<svg version="1.1" xmlns="http://www.w3.org/2000/svg" style="display: block;" viewBox="0 0 2048 2048" width="1024" height="1024" preserveAspectRatio="none">
<defs>
	<linearGradient id="Gradient1" gradientUnits="userSpaceOnUse" x1="237.805" y1="838.033" x2="403.73" y2="1243.72">
		<stop class="stop0" offset="0" stop-opacity="1" stop-color="rgb(75,75,75)"/>
		<stop class="stop1" offset="1" stop-opacity="1" stop-color="rgb(80,91,83)"/>
	</linearGradient>
	<linearGradient id="Gradient2" gradientUnits="userSpaceOnUse" x1="57.0612" y1="740.092" x2="460.03" y2="1321.44">
		<stop class="stop0" offset="0" stop-opacity="1" stop-color="rgb(71,68,71)"/>
		<stop class="stop1" offset="1" stop-opacity="1" stop-color="rgb(81,103,86)"/>
	</linearGradient>
</defs>
<path transform="translate(0,0)" fill="rgb(255,255,255)" d="M 0 0 L 2048 0 L 2048 2048 L 0 2048 L 0 0 z"/>
<path transform="translate(0,0)" fill="rgb(255,255,255)" d="M 124.476 739.51 C 108.606 728.562 107.432 707.173 121.636 694.253 C 128.203 688.192 137.002 685.147 145.911 685.853 C 155.397 686.638 161.237 691.087 167.02 698.13 L 168.658 700.025 C 172.06 714.433 171.839 718.689 167.873 732.809 C 176.127 742.128 184.025 750.535 193.489 758.725 C 210.274 760.512 217.524 760.65 234.031 759.189 L 234.8 760.419 C 232.026 765.4 231.561 765.16 225.922 767.276 C 225.056 771.778 234.23 790.101 236.577 796.604 C 288.999 774.188 283.352 774.327 337.21 795.266 C 372.943 809.159 402.722 824.596 436.881 842.471 C 418.814 817.328 405.846 809.389 376.53 798.271 C 372.211 788.232 369.896 779.921 366.827 769.499 C 396.186 769.244 426.081 783.423 446.531 804.033 C 466.142 823.797 474.854 842.265 481.936 868.566 C 489.053 873.749 511.761 886.349 511.597 892.374 C 510.979 915.136 506.546 943.455 504.062 966.004 C 490.416 1089.9 476.009 1169.46 406.08 1275.25 C 409.055 1283.56 411.901 1293.42 417.834 1299.94 C 436.489 1308.9 454.642 1313.53 474.347 1319.38 C 444.399 1321.97 414.414 1324.13 384.403 1325.85 C 358.753 1356.24 328.589 1382.51 294.966 1403.75 C 251.746 1376.11 239.21 1364.05 207.543 1323.87 C 176.7 1321.65 135.876 1324.01 106.038 1319.26 C 134.339 1313.14 165.88 1309.34 194.924 1304 C 190.441 1298.36 187.145 1292.52 183.453 1286.43 C 150.692 1232.42 129.772 1170.47 112 1110.16 C 107.491 1094.87 100.589 1071.26 97.864 1055.9 C 92.2286 1024.12 88.7801 989.562 85.4964 957.308 C 83.547 938.16 80.3661 905.491 84.5477 887.189 C 88.4383 870.16 122.441 855.212 138.364 846.777 C 132.219 838.99 123.529 829.696 116.423 822.92 C 103.446 827.055 90.0202 828.61 79.4913 818.044 C 74.0752 812.592 71.1732 805.132 71.4821 797.454 C 71.7417 789.697 75.2593 782.409 81.1708 777.38 C 90.313 769.542 98.7833 769.966 109.617 770.954 C 112.439 761.377 119.639 748.639 124.476 739.51 z"/>
<path transform="translate(0,0)" fill="url(#Gradient2)" d="M 124.476 739.51 C 108.606 728.562 107.432 707.173 121.636 694.253 C 128.203 688.192 137.002 685.147 145.911 685.853 C 155.397 686.638 161.237 691.087 167.02 698.13 L 168.658 700.025 C 172.06 714.433 171.839 718.689 167.873 732.809 C 176.127 742.128 184.025 750.535 193.489 758.725 C 210.274 760.512 217.524 760.65 234.031 759.189 L 234.8 760.419 C 232.026 765.4 231.561 765.16 225.922 767.276 C 225.056 771.778 234.23 790.101 236.577 796.604 C 288.999 774.188 283.352 774.327 337.21 795.266 C 372.943 809.159 402.722 824.596 436.881 842.471 C 418.814 817.328 405.846 809.389 376.53 798.271 C 372.211 788.232 369.896 779.921 366.827 769.499 C 396.186 769.244 426.081 783.423 446.531 804.033 C 466.142 823.797 474.854 842.265 481.936 868.566 C 489.053 873.749 511.761 886.349 511.597 892.374 C 510.979 915.136 506.546 943.455 504.062 966.004 C 490.416 1089.9 476.009 1169.46 406.08 1275.25 C 403.428 1270.05 398.07 1259.44 397.486 1253.81 C 395.567 1247.53 389.986 1234.98 387.304 1228.05 C 386.219 1224.93 386.149 1223.04 385.678 1219.78 C 394.698 1204.33 420.386 1150.04 423.415 1133.11 C 421.805 1130.68 421.273 1131.2 417.797 1129.99 C 418.03 1128.69 418.358 1127.51 418.678 1126.23 L 421.127 1125.46 C 419.829 1123.63 416.169 1121.69 414.042 1120.36 C 416.385 1119.07 417.103 1119.09 419.687 1118.41 L 419.317 1116.78 C 422.078 1116.92 424.843 1116.98 427.607 1116.95 C 430.679 1114.88 429.684 1115.83 431.016 1111.53 L 430.795 1110.74 C 448.299 1055.02 461.571 970.897 463.055 913.049 C 413.476 880.901 357.863 852.318 302.508 830.553 C 295.673 827.865 285.581 826.22 278.587 828.469 C 227.834 844.796 173.486 875.524 129.073 904.295 C 131.609 946.421 134.011 991.164 140.884 1032.75 C 152.733 1104.47 178.313 1175.49 209.829 1240.77 C 216.508 1254.6 240.981 1296.96 252.806 1306.63 C 250.743 1308.96 249.89 1309.57 248.46 1312.32 C 259.691 1327.49 274.72 1348.37 292.593 1356.26 C 295.676 1357.62 302.559 1348.62 304.547 1346.23 C 303.589 1343.76 302.85 1341.35 302.033 1338.83 C 317.612 1329.71 361.324 1289.95 371.61 1275.44 C 373.313 1277.8 374.793 1279.37 375.438 1282.19 C 378.426 1287.86 381.263 1292.07 384.803 1297.4 C 388.983 1303.4 390.141 1305.52 393.223 1312.17 C 400.966 1306.69 406.743 1302.19 416.415 1301.39 L 417.834 1299.94 C 436.489 1308.9 454.642 1313.53 474.347 1319.38 C 444.399 1321.97 414.414 1324.13 384.403 1325.85 C 358.753 1356.24 328.589 1382.51 294.966 1403.75 C 251.746 1376.11 239.21 1364.05 207.543 1323.87 C 176.7 1321.65 135.876 1324.01 106.038 1319.26 C 134.339 1313.14 165.88 1309.34 194.924 1304 C 190.441 1298.36 187.145 1292.52 183.453 1286.43 C 150.692 1232.42 129.772 1170.47 112 1110.16 C 107.491 1094.87 100.589 1071.26 97.864 1055.9 C 92.2286 1024.12 88.7801 989.562 85.4964 957.308 C 83.547 938.16 80.3661 905.491 84.5477 887.189 C 88.4383 870.16 122.441 855.212 138.364 846.777 C 132.219 838.99 123.529 829.696 116.423 822.92 C 103.446 827.055 90.0202 828.61 79.4913 818.044 C 74.0752 812.592 71.1732 805.132 71.4821 797.454 C 71.7417 789.697 75.2593 782.409 81.1708 777.38 C 90.313 769.542 98.7833 769.966 109.617 770.954 C 112.439 761.377 119.639 748.639 124.476 739.51 z"/>
<path transform="translate(0,0)" fill="rgb(255,255,255)" d="M 285.408 794.856 C 301.491 798.572 319.093 805.704 334.471 811.942 C 391.208 835.401 445.597 864.18 496.91 897.891 C 493.707 933.865 489.417 969.733 484.045 1005.45 C 473.131 1081.49 461.208 1148.9 422.872 1216.76 C 415.545 1229.73 408.641 1244.18 397.486 1253.81 C 395.567 1247.53 389.986 1234.98 387.304 1228.05 C 386.219 1224.93 386.149 1223.04 385.678 1219.78 C 394.698 1204.33 420.386 1150.04 423.415 1133.11 C 421.805 1130.68 421.273 1131.2 417.797 1129.99 C 418.03 1128.69 418.358 1127.51 418.678 1126.23 L 421.127 1125.46 C 419.829 1123.63 416.169 1121.69 414.042 1120.36 C 416.385 1119.07 417.103 1119.09 419.687 1118.41 L 419.317 1116.78 C 422.078 1116.92 424.843 1116.98 427.607 1116.95 C 430.679 1114.88 429.684 1115.83 431.016 1111.53 L 430.795 1110.74 C 448.299 1055.02 461.571 970.897 463.055 913.049 C 413.476 880.901 357.863 852.318 302.508 830.553 C 295.673 827.865 285.581 826.22 278.587 828.469 C 227.834 844.796 173.486 875.524 129.073 904.295 C 131.609 946.421 134.011 991.164 140.884 1032.75 C 152.733 1104.47 178.313 1175.49 209.829 1240.77 C 216.508 1254.6 240.981 1296.96 252.806 1306.63 C 250.743 1308.96 249.89 1309.57 248.46 1312.32 C 259.691 1327.49 274.72 1348.37 292.593 1356.26 C 295.676 1357.62 302.559 1348.62 304.547 1346.23 C 303.589 1343.76 302.85 1341.35 302.033 1338.83 C 317.612 1329.71 361.324 1289.95 371.61 1275.44 C 373.313 1277.8 374.793 1279.37 375.438 1282.19 C 378.426 1287.86 381.263 1292.07 384.803 1297.4 C 363.295 1331.5 327.935 1361.46 294.748 1383.96 C 266.438 1363.5 241.806 1343.22 220.549 1314.1 C 165.511 1238.72 134.831 1138.55 114.111 1048.64 C 108.898 1026.02 106.438 990.711 103.275 967.579 C 101.006 950.987 96.9384 905.466 99.117 890.385 C 106.585 882.699 122.515 874.221 132.187 868.924 C 181.238 842.06 232.408 812.763 285.408 794.856 z"/>
<path transform="translate(0,0)" fill="url(#Gradient1)" d="M 122.362 900.21 C 135.288 893.192 147.636 884.989 160.382 877.634 C 189.658 860.738 219.544 844.582 250.735 831.479 C 260.968 827.18 271.99 822.095 282.885 819.906 C 308.167 814.825 442.123 890.581 469.726 908.886 C 469.687 996.133 438.151 1155.65 387.304 1228.05 C 386.219 1224.93 386.149 1223.04 385.678 1219.78 C 394.698 1204.33 420.386 1150.04 423.415 1133.11 C 421.805 1130.68 421.273 1131.2 417.797 1129.99 C 418.03 1128.69 418.358 1127.51 418.678 1126.23 L 421.127 1125.46 C 419.829 1123.63 416.169 1121.69 414.042 1120.36 C 416.385 1119.07 417.103 1119.09 419.687 1118.41 L 419.317 1116.78 C 422.078 1116.92 424.843 1116.98 427.607 1116.95 C 430.679 1114.88 429.684 1115.83 431.016 1111.53 L 430.795 1110.74 C 448.299 1055.02 461.571 970.897 463.055 913.049 C 413.476 880.901 357.863 852.318 302.508 830.553 C 295.673 827.865 285.581 826.22 278.587 828.469 C 227.834 844.796 173.486 875.524 129.073 904.295 C 131.609 946.421 134.011 991.164 140.884 1032.75 C 152.733 1104.47 178.313 1175.49 209.829 1240.77 C 216.508 1254.6 240.981 1296.96 252.806 1306.63 C 250.743 1308.96 249.89 1309.57 248.46 1312.32 C 239.302 1299.91 225.966 1282.38 218.425 1269.03 C 173.867 1190.13 143.208 1098.31 131.168 1008.55 C 125.961 969.737 125.638 937.675 122.362 900.21 z"/>
<path transform="translate(0,0)" fill="rgb(255,255,255)" d="M 419.687 1118.41 C 423.885 1119.87 427.472 1120.08 428.168 1125.3 C 425.465 1127.56 424.483 1126.69 421.127 1125.46 C 419.829 1123.63 416.169 1121.69 414.042 1120.36 C 416.385 1119.07 417.103 1119.09 419.687 1118.41 z"/>
<path transform="translate(0,0)" fill="rgb(75,95,82)" d="M 371.61 1275.44 C 373.313 1277.8 374.793 1279.37 375.438 1282.19 C 349.993 1307.86 332.555 1323.24 304.547 1346.23 C 303.589 1343.76 302.85 1341.35 302.033 1338.83 C 317.612 1329.71 361.324 1289.95 371.61 1275.44 z"/>
<path transform="translate(0,0)" fill="rgb(255,255,255)" d="M 162.569 738.889 C 169.95 746.676 179.383 757.11 187.122 764.258 C 164.52 799.306 182.619 800.689 172.922 827.172 C 161.752 832.803 152.956 837.179 142.391 843.956 C 136.022 834.758 129.396 825.739 122.521 816.912 C 132.49 798.456 127.913 784.39 112.01 771.871 L 109.617 770.954 C 112.439 761.377 119.639 748.639 124.476 739.51 L 126.005 741.477 C 142.131 745.768 147.683 747.076 162.569 738.889 z"/>
<path transform="translate(0,0)" fill="rgb(40,39,39)" d="M 124.476 739.51 L 126.005 741.477 C 121.578 751.746 116.211 761.596 112.01 771.871 L 109.617 770.954 C 112.439 761.377 119.639 748.639 124.476 739.51 z"/>
<path transform="translate(0,0)" fill="rgb(255,255,255)" d="M 195.916 767.053 C 203.155 766.915 206.995 767.829 213.712 769.692 C 221.492 779.397 224.253 788.53 227.404 800.275 L 206.786 810.894 L 187.08 821.531 C 185.724 799.619 180.39 786.87 195.916 767.053 z"/>
<path transform="translate(0,0)" fill="rgb(255,255,255)" d="M 137.256 704.553 C 143.464 701.856 150.689 704.625 153.504 710.781 C 156.319 716.937 153.687 724.213 147.586 727.144 C 143.535 729.09 138.748 728.697 135.069 726.115 C 131.391 723.533 129.393 719.165 129.847 714.693 C 130.3 710.222 133.134 706.344 137.256 704.553 z"/>
<path transform="translate(0,0)" fill="rgb(255,255,255)" d="M 98.2845 786.541 C 104.591 785.669 110.464 789.927 111.596 796.192 C 112.728 802.457 108.717 808.501 102.504 809.891 C 98.2495 810.844 93.8154 809.388 90.9533 806.099 C 88.0912 802.811 87.2613 798.218 88.7915 794.136 C 90.3217 790.053 93.9659 787.138 98.2845 786.541 z"/>
<path transform="translate(0,0)" fill="rgb(51,188,50)" d="M 296.745 961.301 L 298.064 961.235 C 312.822 960.366 312.999 951.858 321.199 954.671 C 323.257 957.426 323.054 958.552 323.344 961.962 C 322.032 965.537 321.827 965.862 319.81 969.129 L 320.736 970.357 L 321.5 970.424 C 324.084 968.689 326.307 965.827 328.459 963.424 L 331.499 960.562 C 333.354 962.037 332.54 961.705 333.14 965.307 L 334.538 966.785 C 338.279 970.673 347.276 976.949 349.82 980.268 C 361.914 996.04 368.326 1021.66 372.715 1040.5 L 356.365 1044.58 C 368.838 1059.99 399.242 1095.51 420.541 1103.3 C 420.987 1103.46 426.337 1103.35 427.281 1103.32 C 431.609 1105.67 431.074 1105.79 430.795 1110.74 L 431.016 1111.53 C 429.684 1115.83 430.679 1114.88 427.607 1116.95 C 424.843 1116.98 422.078 1116.92 419.317 1116.78 L 419.687 1118.41 C 417.103 1119.09 416.385 1119.07 414.042 1120.36 C 416.169 1121.69 419.829 1123.63 421.127 1125.46 L 418.678 1126.23 C 418.358 1127.51 418.03 1128.69 417.797 1129.99 C 421.273 1131.2 421.805 1130.68 423.415 1133.11 C 420.386 1150.04 394.698 1204.33 385.678 1219.78 C 386.149 1223.04 386.219 1224.93 387.304 1228.05 C 389.986 1234.98 395.567 1247.53 397.486 1253.81 C 398.07 1259.44 403.428 1270.05 406.08 1275.25 C 409.055 1283.56 411.901 1293.42 417.834 1299.94 L 416.415 1301.39 C 406.743 1302.19 400.966 1306.69 393.223 1312.17 C 390.141 1305.52 388.983 1303.4 384.803 1297.4 C 381.263 1292.07 378.426 1287.86 375.438 1282.19 C 374.793 1279.37 373.313 1277.8 371.61 1275.44 C 361.324 1289.95 317.612 1329.71 302.033 1338.83 C 302.85 1341.35 303.589 1343.76 304.547 1346.23 C 302.559 1348.62 295.676 1357.62 292.593 1356.26 C 274.72 1348.37 259.691 1327.49 248.46 1312.32 C 249.89 1309.57 250.743 1308.96 252.806 1306.63 C 261.161 1295.36 265.027 1260.03 267.299 1244.69 C 260.228 1243.01 253.667 1240 247.169 1236.86 C 249.096 1201.98 256.289 1164.56 252.018 1130.15 L 246.457 1109.85 C 233.616 1102.22 222.149 1100.19 211.923 1088.23 C 192.74 1075.57 220.007 986.001 240.803 973.885 C 249.446 971.729 253.725 966.937 261.862 963.197 C 262.348 963.507 267.923 967.159 267.928 967.16 L 266.58 963.284 C 267.561 958.763 267.841 959.737 271.854 955.834 C 275.928 953.714 275.135 953.31 278.907 953.729 L 282.625 957.152 C 287.082 961.215 287.786 960.523 294.053 961.834 L 296.745 961.301 z"/>
<path transform="translate(0,0)" fill="rgb(51,188,50)" d="M 211.923 1088.23 C 192.74 1075.57 220.007 986.001 240.803 973.885 L 240.267 979.804 C 243.771 983.526 249.296 985.429 253.293 988.389 C 261.64 994.572 284.426 1015.01 286.401 1024.97 L 285.864 1025.56 L 283.896 1024.63 C 281.58 1025.51 279.817 1026.97 278.541 1029.16 C 277.574 1030.07 277.001 1030.9 275.935 1031.23 C 273.54 1034.17 269.057 1039.19 267.735 1042.45 L 265.377 1041.48 C 246.362 1062.56 232.003 1071.14 237.352 1103.08 C 227.975 1098.98 219.136 1091.32 211.923 1088.23 z"/>
<path transform="translate(0,0)" fill="rgb(37,142,37)" d="M 265.377 1041.48 C 268.46 1035.71 269.857 1033.57 275.935 1031.23 C 273.54 1034.17 269.057 1039.19 267.735 1042.45 L 265.377 1041.48 z"/>
<path transform="translate(0,0)" fill="rgb(255,255,255)" d="M 330.723 1232.57 C 335.39 1233.36 339.338 1234.37 343.908 1235.51 C 352.9 1249.44 361.446 1262.33 371.61 1275.44 C 361.324 1289.95 317.612 1329.71 302.033 1338.83 C 298.517 1332.25 290.901 1321.16 286.698 1314.24 C 288.186 1298.12 297.749 1261.21 304.733 1246.35 C 316.58 1241.78 320.115 1239.79 330.723 1232.57 z"/>
<path transform="translate(0,0)" fill="rgb(255,255,255)" d="M 337.412 1078.23 C 358.838 1099.01 382.087 1119.41 410.553 1126.22 C 411.717 1126.5 411.229 1130.14 415.489 1131.07 L 417.797 1129.99 C 421.273 1131.2 421.805 1130.68 423.415 1133.11 C 420.386 1150.04 394.698 1204.33 385.678 1219.78 C 368.574 1176.78 373.126 1144.37 341.36 1105.05 C 341.242 1101.35 341.368 1098.88 340.31 1095.29 C 339.803 1088.47 338.92 1084.88 337.412 1078.23 z"/>
<path transform="translate(0,0)" fill="rgb(255,255,255)" d="M 278.541 1029.16 L 279.538 1030.41 L 281.003 1030.16 L 282.134 1031.94 L 281.053 1027.96 L 282.138 1027 C 288.443 1028.27 299.852 1034.68 305.197 1038.43 C 308.306 1044.02 317.086 1056.85 309.947 1061.05 L 306.502 1060.97 L 307.759 1063.77 L 308.657 1065.37 C 284.977 1086.74 283.603 1100.06 252.408 1109.84 C 252.563 1115.88 253.123 1124.48 252.018 1130.15 L 246.457 1109.85 C 233.616 1102.22 222.149 1100.19 211.923 1088.23 C 219.136 1091.32 227.975 1098.98 237.352 1103.08 C 232.003 1071.14 246.362 1062.56 265.377 1041.48 L 267.735 1042.45 C 269.057 1039.19 273.54 1034.17 275.935 1031.23 C 277.001 1030.9 277.574 1030.07 278.541 1029.16 z"/>
<path transform="translate(0,0)" fill="rgb(75,95,82)" d="M 265.377 1041.48 L 267.735 1042.45 L 266.894 1045.48 C 252.806 1050.56 240.72 1081.85 245.722 1095.7 C 249.49 1106.14 271.327 1096.63 276.922 1092.44 C 288.277 1083.96 297.9 1073.82 307.759 1063.77 L 308.657 1065.37 C 284.977 1086.74 283.603 1100.06 252.408 1109.84 C 252.563 1115.88 253.123 1124.48 252.018 1130.15 L 246.457 1109.85 C 233.616 1102.22 222.149 1100.19 211.923 1088.23 C 219.136 1091.32 227.975 1098.98 237.352 1103.08 C 232.003 1071.14 246.362 1062.56 265.377 1041.48 z"/>
<path transform="translate(0,0)" fill="rgb(67,79,72)" d="M 340.107 1012.12 C 340.748 1014.75 341.46 1017.36 342.244 1019.95 C 344.687 1027.85 348.885 1040.58 356.365 1044.58 C 368.838 1059.99 399.242 1095.51 420.541 1103.3 C 420.987 1103.46 426.337 1103.35 427.281 1103.32 C 431.609 1105.67 431.074 1105.79 430.795 1110.74 L 431.016 1111.53 C 429.684 1115.83 430.679 1114.88 427.607 1116.95 C 424.843 1116.98 422.078 1116.92 419.317 1116.78 L 419.687 1118.41 C 417.103 1119.09 416.385 1119.07 414.042 1120.36 C 416.169 1121.69 419.829 1123.63 421.127 1125.46 L 418.678 1126.23 C 418.358 1127.51 418.03 1128.69 417.797 1129.99 L 415.489 1131.07 C 411.229 1130.14 411.717 1126.5 410.553 1126.22 C 382.087 1119.41 358.838 1099.01 337.412 1078.23 C 338.92 1084.88 339.803 1088.47 340.31 1095.29 C 337.443 1089.53 335.283 1077.36 336.503 1070.9 C 338.225 1067.26 341.595 1052.7 341.615 1048.52 C 340.838 1036.12 340.041 1024.56 340.107 1012.12 z"/>
<path transform="translate(0,0)" fill="rgb(255,255,255)" d="M 341.615 1048.52 L 343.647 1043.29 C 347.437 1045.43 346.067 1047 347.766 1050.04 C 355.095 1063.14 384.659 1090.12 396.133 1096.65 C 398.344 1098.8 397.47 1097.51 397.942 1101.17 L 398.547 1101.36 C 400.501 1100.44 400.171 1100.61 402.278 1100.11 L 402.742 1100.66 C 399.785 1105.26 399.605 1103.14 396.877 1109.89 C 387.736 1111.24 346.249 1077.64 336.503 1070.9 C 338.225 1067.26 341.595 1052.7 341.615 1048.52 z"/>
<path transform="translate(0,0)" fill="rgb(75,95,82)" d="M 396.133 1096.65 C 398.344 1098.8 397.47 1097.51 397.942 1101.17 C 392.663 1101.57 392.392 1103.79 388.169 1103.06 C 389.886 1100.31 393.313 1098.5 396.133 1096.65 z"/>
<path transform="translate(0,0)" fill="rgb(75,95,82)" d="M 414.042 1120.36 C 409.036 1119.24 400.752 1113.32 398.462 1108.45 C 400.91 1101.48 411.383 1108.11 415.006 1108.88 L 416.274 1110.4 C 412.614 1112.5 413.818 1111.65 411.416 1115.57 L 412.312 1117.12 C 415.908 1117.64 415.912 1117.49 419.317 1116.78 L 419.687 1118.41 C 417.103 1119.09 416.385 1119.07 414.042 1120.36 z"/>
<path transform="translate(0,0)" fill="rgb(255,255,255)" d="M 415.006 1108.88 C 417.369 1105.65 415.846 1106.79 419.916 1105.59 L 422.369 1106.42 L 422.64 1107.7 L 419.219 1110.3 C 421.986 1112.74 426.25 1110.56 431.016 1111.53 C 429.684 1115.83 430.679 1114.88 427.607 1116.95 C 424.843 1116.98 422.078 1116.92 419.317 1116.78 C 415.912 1117.49 415.908 1117.64 412.312 1117.12 L 411.416 1115.57 C 413.818 1111.65 412.614 1112.5 416.274 1110.4 L 415.006 1108.88 z"/>
<path transform="translate(0,0)" fill="rgb(255,255,255)" d="M 296.745 961.301 L 298.064 961.235 C 312.822 960.366 312.999 951.858 321.199 954.671 C 323.257 957.426 323.054 958.552 323.344 961.962 C 322.032 965.537 321.827 965.862 319.81 969.129 L 320.736 970.357 C 320.814 992.838 276.557 971.876 267.928 967.16 L 266.58 963.284 C 267.561 958.763 267.841 959.737 271.854 955.834 C 275.928 953.714 275.135 953.31 278.907 953.729 L 282.625 957.152 C 287.082 961.215 287.786 960.523 294.053 961.834 L 296.745 961.301 z"/>
<path transform="translate(0,0)" fill="rgb(192,195,193)" d="M 294.053 961.834 L 296.745 961.301 C 296.767 964.837 296.225 963.334 298.198 966.043 C 303.451 966.128 311.16 963.802 315.038 969.417 C 312.323 970.949 311.504 970.559 308.348 970.397 C 300.63 965.834 301.4 970.329 296.854 967.773 C 295.34 965.144 295.054 964.672 294.053 961.834 z"/>
<path transform="translate(0,0)" fill="rgb(29,89,31)" d="M 240.267 979.804 C 258.519 980.308 280.502 1013.45 290.7 1025.72 C 293.823 1025.74 303.303 1025.32 305.232 1028.14 C 309.353 1034.17 314.688 1049.64 315.142 1057.11 C 315.233 1058.59 309.936 1064.06 308.657 1065.37 L 307.759 1063.77 L 306.502 1060.97 L 309.947 1061.05 C 317.086 1056.85 308.306 1044.02 305.197 1038.43 C 299.852 1034.68 288.443 1028.27 282.138 1027 L 281.053 1027.96 L 282.134 1031.94 L 281.003 1030.16 L 279.538 1030.41 L 278.541 1029.16 C 279.817 1026.97 281.58 1025.51 283.896 1024.63 L 285.864 1025.56 L 286.401 1024.97 C 284.426 1015.01 261.64 994.572 253.293 988.389 C 249.296 985.429 243.771 983.526 240.267 979.804 z"/>
<path transform="translate(0,0)" fill="rgb(255,255,255)" d="M 293.504 1028.01 C 297.77 1027.9 299.129 1027.58 303.048 1028.94 C 306.139 1031.38 306.129 1032.63 307.237 1036.41 C 302.917 1034.44 297.593 1030.68 293.504 1028.01 z"/>
<path transform="translate(0,0)" fill="rgb(67,79,72)" d="M 246.253 930.892 L 250.084 929.195 C 254.974 923.621 249.035 903.523 250.839 894.694 C 256.205 868.434 301.262 867.708 322.766 872.824 C 328.759 884.868 331.231 898.024 332.66 911.239 C 341.634 926.027 342.225 925.619 336.385 939.261 C 333.637 945.682 340.505 953.993 333.14 965.307 C 332.54 961.705 333.354 962.037 331.499 960.562 L 328.459 963.424 C 326.307 965.827 324.084 968.689 321.5 970.424 L 320.736 970.357 L 319.81 969.129 C 321.827 965.862 322.032 965.537 323.344 961.962 C 323.054 958.552 323.257 957.426 321.199 954.671 C 312.999 951.858 312.822 960.366 298.064 961.235 L 296.745 961.301 L 294.053 961.834 C 287.786 960.523 287.082 961.215 282.625 957.152 L 278.907 953.729 C 275.135 953.31 275.928 953.714 271.854 955.834 C 267.841 959.737 267.561 958.763 266.58 963.284 L 267.928 967.16 C 267.923 967.159 262.348 963.507 261.862 963.197 C 262.592 961.794 262.396 961.939 262.674 960.314 C 260.974 959.203 259.587 958.39 257.815 957.393 L 257.976 955.949 C 254.946 953.002 251.944 950.025 248.972 947.019 C 243.339 941.233 246.249 939.142 246.261 932.329 L 246.253 930.892 z"/>
<path transform="translate(0,0)" fill="rgb(67,79,72)" d="M 332.66 911.239 C 341.634 926.027 342.225 925.619 336.385 939.261 C 333.637 945.682 340.505 953.993 333.14 965.307 C 332.54 961.705 333.354 962.037 331.499 960.562 L 328.459 963.424 C 326.307 965.827 324.084 968.689 321.5 970.424 L 320.736 970.357 L 319.81 969.129 C 321.827 965.862 322.032 965.537 323.344 961.962 C 323.054 958.552 323.257 957.426 321.199 954.671 C 312.999 951.858 312.822 960.366 298.064 961.235 L 296.745 961.301 L 294.053 961.834 C 287.786 960.523 287.082 961.215 282.625 957.152 L 285.792 954.398 C 278.96 951.478 269.144 940.097 270.715 932.198 L 270.163 931.103 C 273.615 926.768 285.415 926.555 290.889 925.974 C 287.592 923.13 286.017 922.012 283.497 918.543 C 299.244 919.737 306.19 915.757 321.369 913.197 C 324.084 915.164 325.095 916.099 328.304 917.275 L 329.33 915.034 L 330.239 914.499 L 332.66 911.239 z"/>
<path transform="translate(0,0)" fill="rgb(77,77,77)" d="M 332.66 911.239 C 341.634 926.027 342.225 925.619 336.385 939.261 C 333.637 945.682 340.505 953.993 333.14 965.307 C 332.54 961.705 333.354 962.037 331.499 960.562 L 328.459 963.424 C 328.191 957.455 328.103 955.819 328.991 949.901 C 323.753 948.503 322.811 947.725 318.25 944.685 C 317.908 940.395 316.712 934.788 316.979 930.805 L 317.546 925.84 C 325.089 921.537 329.863 927.962 330.239 914.499 L 332.66 911.239 z"/>
<path transform="translate(0,0)" fill="rgb(255,255,255)" d="M 316.979 930.805 C 318.796 933.66 318.661 934.615 319.005 937.934 L 320.586 939.633 C 322.003 937.577 321.221 934.4 321.094 931.223 C 329.704 934.933 337.698 941.385 328.991 949.901 C 323.753 948.503 322.811 947.725 318.25 944.685 C 317.908 940.395 316.712 934.788 316.979 930.805 z"/>
<path transform="translate(0,0)" fill="rgb(255,255,255)" d="M 270.715 932.198 C 271.688 935.812 271.096 936.234 273.452 937.985 L 273.996 936.821 C 274.655 935.443 274.965 934.887 275.748 933.622 C 279.304 941.292 281.226 947.176 285.792 954.398 C 278.96 951.478 269.144 940.097 270.715 932.198 z"/>
<path transform="translate(0,0)" fill="rgb(255,255,255)" d="M 286.985 927.246 L 288.837 928.383 C 289.112 930.566 289.143 929.466 288.718 931.682 C 301.635 933.55 318.316 924.227 311.81 947.71 L 310.932 948.208 C 305.741 951.089 300.491 952.894 294.545 950.959 C 290.857 949.791 287.865 947.068 286.355 943.506 C 283.844 937.653 284.963 932.907 286.985 927.246 z"/>
<path transform="translate(0,0)" fill="rgb(255,255,255)" d="M 270.874 921.24 C 273.9 918.741 277.015 917.1 280.392 915.132 C 280.744 912.031 280.568 909.815 282.613 907.589 C 291.277 904.772 317.805 895.388 325.338 896.47 C 329.543 901.748 329.032 908.248 329.33 915.034 L 328.304 917.275 C 325.095 916.099 324.084 915.164 321.369 913.197 C 306.19 915.757 299.244 919.737 283.497 918.543 C 286.017 922.012 287.592 923.13 290.889 925.974 C 285.415 926.555 273.615 926.768 270.163 931.103 C 268.12 927.753 268.484 929.44 268.313 926.018 C 270.735 925.314 270.014 925.628 272.269 924.304 L 270.874 921.24 z"/>
<path transform="translate(0,0)" fill="rgb(255,255,255)" d="M 263.167 923.364 C 265.806 921.523 267.674 921.622 270.874 921.24 L 272.269 924.304 C 270.014 925.628 270.735 925.314 268.313 926.018 C 268.484 929.44 268.12 927.753 270.163 931.103 L 270.715 932.198 C 269.144 940.097 278.96 951.478 285.792 954.398 L 282.625 957.152 L 278.907 953.729 C 275.135 953.31 275.928 953.714 271.854 955.834 L 270.742 955.233 L 268.809 955.975 C 260.33 953.395 255.1 936.733 256.927 928.838 C 257.62 925.838 260.81 924.74 263.167 923.364 z"/>
<path transform="translate(0,0)" fill="rgb(67,79,72)" d="M 263.167 923.364 C 265.806 921.523 267.674 921.622 270.874 921.24 L 272.269 924.304 C 270.014 925.628 270.735 925.314 268.313 926.018 C 268.484 929.44 268.12 927.753 270.163 931.103 L 270.715 932.198 C 269.144 940.097 278.96 951.478 285.792 954.398 L 282.625 957.152 L 278.907 953.729 C 275.135 953.31 275.928 953.714 271.854 955.834 L 270.742 955.233 L 275.937 950.508 L 275.475 949.301 L 272.524 950.218 C 267.872 945.644 264.9 930.43 263.167 923.364 z"/>
<path transform="translate(0,0)" fill="rgb(67,79,72)" d="M 256.822 930.469 C 264.228 934.024 263.164 941.622 266.692 950.945 L 267.205 952.275 C 261.722 948.307 260.94 939.44 257.427 931.767 L 256.822 930.469 z"/>
<path transform="translate(0,0)" fill="rgb(77,77,77)" d="M 257.815 957.393 C 248.845 951.96 236.041 941.367 246.253 930.892 L 246.261 932.329 C 246.249 939.142 243.339 941.233 248.972 947.019 C 251.944 950.025 254.946 953.002 257.976 955.949 L 257.815 957.393 z"/>
<path transform="translate(0,0)" fill="rgb(77,77,77)" d="M 790.59 893.47 C 796.454 897.204 869.23 1085.95 877.181 1106.88 L 839.378 1107.02 C 834.577 1097.08 831.331 1086.07 825.857 1074.85 L 755.894 1074.95 C 751.599 1085.59 747.362 1096.26 743.182 1106.95 L 665.169 1106.79 C 660.941 1098.94 655.579 1083.59 652.218 1074.8 C 630.759 1074.56 609.468 1074.8 587.915 1074.43 C 584.619 1084.89 580.194 1096.69 576.54 1107.16 L 534.574 1107.02 C 538.94 1094.14 545.962 1077.83 551.012 1064.74 C 573.763 1007.69 594.221 949.421 618.312 892.878 C 632.208 922.999 645.515 959.038 658.158 989.962 C 673.338 1027.09 690.237 1067.16 703.378 1104.91 C 723.863 1056.64 742.396 1006.97 762.348 958.514 C 768.898 942.605 782.691 905.775 790.59 893.47 z"/>
<path transform="translate(0,0)" fill="rgb(255,255,255)" d="M 791.21 983.726 C 796.172 992.534 807.332 1026.07 810.287 1036.23 L 788.25 1036.47 L 770.495 1036.43 C 776.898 1018.67 783.806 1001.09 791.21 983.726 z"/>
<path transform="translate(0,0)" fill="rgb(255,255,255)" d="M 619.04 985.538 C 621.676 989.88 635.91 1030.01 638.341 1036.67 L 620.5 1036.76 L 600.054 1036.74 C 605.819 1019.47 612.151 1002.39 619.04 985.538 z"/>
<path transform="translate(0,0)" fill="rgb(77,77,77)" d="M 1773 902.145 C 1784.15 901.397 1795.17 901.648 1806.22 901.488 C 1833.17 900.908 1859.2 901.445 1880.75 920.025 C 1918.9 952.92 1922.86 1013.34 1903.67 1057.32 C 1900.05 1065.63 1894.85 1072.74 1889.01 1079.59 C 1855.45 1114.07 1817.75 1106.38 1773.15 1105.91 L 1772.89 974.796 C 1772.8 951.863 1771.89 924.531 1773 902.145 z"/>
<path transform="translate(0,0)" fill="rgb(255,255,255)" d="M 1810.05 941.25 C 1824.71 940.874 1843.57 941.761 1855.16 951.594 C 1882.97 975.18 1882.42 1022.75 1861.44 1050.14 C 1843.96 1067.35 1832.86 1066.24 1809.97 1066.37 L 1810.05 941.25 z"/>
<path transform="translate(0,0)" fill="rgb(77,77,77)" d="M 1633.25 902.254 C 1647.11 901.481 1698.4 901.56 1709.87 903.543 C 1715.77 904.541 1721.45 906.548 1726.66 909.477 C 1760.8 928.637 1765.89 984.697 1738.67 1011.73 C 1730.91 1019.43 1724.2 1021.93 1714.12 1024.82 C 1716.74 1030.93 1724.36 1043.64 1727.94 1050.32 C 1737.6 1068.5 1747.02 1086.81 1756.18 1105.24 C 1742.73 1105.67 1727.66 1105.3 1714.08 1105.23 C 1710.06 1101.93 1675.35 1033.18 1670.4 1023.77 C 1671.19 1046.83 1670.73 1082.2 1669.91 1105.14 L 1632.55 1105.19 C 1633.75 1056.58 1631.52 1006.6 1632.1 957.91 C 1632.23 947.099 1631.1 910.613 1633.25 902.254 z"/>
<path transform="translate(0,0)" fill="rgb(255,255,255)" d="M 1669.89 940.929 C 1686.98 940.667 1714.35 937.249 1717.22 960.081 C 1718.39 969.435 1716.65 974.298 1711.27 981.711 C 1701.58 990.393 1682.62 988.73 1669.86 988.688 L 1669.89 940.929 z"/>
<path transform="translate(0,0)" fill="rgb(77,77,77)" d="M 889.762 901.132 C 909.878 900.984 929.365 900.723 950.141 901.224 C 1002.38 902.484 1021.36 955.043 1003.61 997.861 C 997.208 1013.3 983.764 1020.38 968.582 1025.58 C 980.68 1045.24 1005.1 1086.11 1014.5 1106.23 C 1002.57 1106.75 988.357 1106.46 976.25 1106.52 L 973.154 1106.21 C 967.523 1102.51 934.881 1039.79 927.804 1028.26 C 927.138 1053.25 927.788 1081.13 927.866 1106.32 L 889.922 1106.26 C 887.625 1051.28 890.063 995.422 889.42 940.371 C 889.272 927.723 888.783 913.613 889.762 901.132 z"/>
<path transform="translate(0,0)" fill="rgb(255,255,255)" d="M 930.36 940.391 C 947.691 940.699 969.696 939.542 969.952 964.093 C 970.058 974.254 967.427 980.205 960.541 987.618 C 949.826 994.81 940.603 993.02 928.054 992.439 C 927.777 982.357 925.944 949.356 927.893 941.4 L 930.36 940.391 z"/>
<path transform="translate(0,0)" fill="rgb(77,77,77)" d="M 1217.42 899.259 C 1228.49 898.284 1275.25 899.045 1278.04 918.524 C 1278.82 924.037 1273.87 949.478 1269.85 953.719 C 1268.01 953.695 1252.63 945.314 1247.22 943.74 C 1169.96 921.235 1152.58 1044.19 1218.52 1063.74 C 1230.31 1067.23 1243.13 1064.28 1253.63 1058.04 L 1253.38 1034.65 L 1230.9 1033.96 C 1230.67 1021.05 1230.76 1008.13 1231.18 995.228 C 1245.59 994.767 1261.7 995.081 1276.25 995.044 C 1290.81 994.654 1292.21 997.862 1290.84 1012.9 C 1288.84 1034.68 1294.55 1083.41 1288.1 1101.64 C 1283.59 1104.87 1274.13 1103.12 1268.42 1102.69 C 1259.38 1102.01 1253.59 1105.68 1244.09 1107.47 C 1223.19 1111.41 1201.59 1106.78 1184.14 1094.62 C 1115.32 1047.54 1125.55 915.59 1217.42 899.259 z"/>
<path transform="translate(0,0)" fill="rgb(77,77,77)" d="M 1409.07 900.99 C 1420.58 899.601 1433.69 899.99 1445.25 900.573 C 1445.54 916.133 1445.34 932.321 1445.36 947.932 L 1445.59 1013.81 C 1445.59 1024.83 1446.03 1041.43 1444.16 1051.78 C 1442.37 1061.19 1438.89 1070.21 1433.9 1078.4 C 1424.88 1093.18 1410.34 1103.76 1393.49 1107.8 C 1356.3 1116.44 1319.56 1092.85 1311.31 1055.48 C 1310.06 1049.63 1309.32 1043.68 1309.08 1037.69 C 1307.68 1003.72 1309.74 968.583 1308.81 934.505 C 1308.68 929.566 1308.11 904.1 1309.99 901.171 L 1315.12 900.516 C 1325.83 900.063 1336.55 900.055 1347.27 900.493 C 1348.53 931.985 1347.13 963.453 1347.82 994.988 C 1348.74 1018.5 1340.65 1064.67 1375.49 1067.56 C 1415.82 1070.9 1409.12 1016.45 1409.07 992.951 C 1408.84 962.298 1408.84 931.643 1409.07 900.99 z"/>
<path transform="translate(0,0)" fill="rgb(77,77,77)" d="M 1533.59 901.312 C 1533.99 901.49 1534.43 901.61 1534.8 901.845 C 1538.04 903.895 1615.71 1084.91 1622.41 1106.02 C 1609.22 1106.3 1595.27 1106.02 1582.02 1105.94 C 1577.22 1096.78 1572.97 1084.79 1569.17 1074.98 L 1534.5 1075.03 L 1498.2 1075.02 C 1493.6 1085.23 1489.12 1095.49 1484.75 1105.79 C 1471.24 1105.81 1457.73 1105.66 1444.23 1105.33 C 1449.72 1091.75 1456.46 1077.56 1462.3 1064 L 1503.61 968.849 C 1513.35 946.839 1521.91 921.815 1533.59 901.312 z"/>
<path transform="translate(0,0)" fill="rgb(255,255,255)" d="M 1533.52 988.577 C 1536.56 991.588 1551.77 1029.9 1554.66 1036.65 L 1534.85 1036.38 L 1513.94 1036 C 1519.57 1020.52 1527.01 1003.87 1533.52 988.577 z"/>
<path transform="translate(0,0)" fill="rgb(77,77,77)" d="M 354.106 610.439 C 374.126 609.473 394.191 610.766 413.922 614.294 C 487.17 628.295 551.806 670.94 593.495 732.773 C 600.776 743.512 633.428 802.23 631.177 813.749 C 625.406 819.02 606.354 825.397 598.274 828.461 L 596.476 828.871 C 594.64 828.159 594.144 827.996 593.432 825.838 C 578.637 780.975 558.971 746.312 524.103 713.608 C 485.231 677.782 435.542 655.91 382.867 651.44 C 365.988 649.96 350.347 650.558 333.482 651.092 C 330.243 638.959 325.8 625.494 322.062 613.405 C 332.093 611.272 343.772 610.941 354.106 610.439 z"/>
<path transform="translate(0,0)" fill="rgb(77,77,77)" d="M 1028.53 900.307 C 1058.43 899.711 1094.89 899.714 1124.7 900.575 L 1123.94 940.511 C 1110.84 941.402 1080.91 940.089 1066.3 940.01 C 1065.96 953.54 1066.35 968.509 1066.42 982.145 C 1082.61 982.024 1098.8 982.049 1114.99 982.218 C 1115.21 995.778 1115.18 1009.34 1114.89 1022.9 C 1101.2 1023.67 1080.98 1023.01 1066.79 1023 L 1066.79 1058.25 C 1066.93 1062.06 1066.26 1062.18 1068.19 1064.55 C 1079.98 1065.81 1110.79 1064.77 1124.47 1065.03 C 1125.12 1077.28 1124.68 1093.36 1124.67 1105.9 C 1092.91 1106.11 1061.15 1105.76 1029.41 1104.83 C 1028.25 1084.45 1028.96 1055.23 1028.86 1034.43 L 1028.53 900.307 z"/>
<path transform="translate(0,0)" fill="rgb(77,77,77)" d="M 350.054 688.478 C 452.2 683.186 533.676 745.038 559.211 843.577 C 554.618 845.907 550.04 847.561 545.245 849.418 C 536.398 852.68 530.918 854.586 521.633 855.856 C 502.929 774.58 437.689 727.988 355.578 726.967 C 353.57 720.671 343.82 693.238 345.572 689.3 L 350.054 688.478 z"/>
<path transform="translate(0,0)" fill="rgb(77,77,77)" d="M 212.07 669.767 C 217.63 661.537 207.212 637.416 236.518 631.488 C 243.866 630.046 251.481 631.748 257.515 636.18 C 274.953 648.847 270.07 667.489 258.118 681.824 C 263.826 688.976 268.442 693.898 274.817 700.527 C 322.649 682.836 330.956 743.464 297.567 752.952 C 273.506 759.79 250.019 736.325 267.018 707.325 C 259.823 700.234 254.596 694.57 247.952 687.03 C 235.498 687.699 229.446 685.899 220.332 677.367 C 218.636 675.78 215.598 672.383 213.802 671.487 L 212.07 669.767 z"/>
<path transform="translate(0,0)" fill="rgb(255,255,255)" d="M 284.769 715.427 C 290.292 712.843 296.864 715.207 299.477 720.716 C 302.091 726.225 299.763 732.81 294.268 735.453 C 288.731 738.115 282.085 735.766 279.452 730.215 C 276.819 724.664 279.204 718.03 284.769 715.427 z"/>
<path transform="translate(0,0)" fill="rgb(40,39,39)" d="M 1136.37 1141.48 C 1151.57 1141.72 1165.33 1145.45 1171.77 1160.44 C 1179.51 1178.45 1169.67 1190.5 1153.91 1197.36 C 1141.49 1200.47 1129.6 1199.51 1116.86 1199.11 L 1116.63 1141.79 L 1136.37 1141.48 z"/>
<path transform="translate(0,0)" fill="rgb(255,255,255)" d="M 1127.81 1149.86 C 1138.01 1149.63 1145.68 1148.85 1154.66 1154.75 C 1166.57 1162.59 1165.46 1174.48 1157.51 1184.7 C 1147.41 1192.02 1139.95 1191.11 1127.93 1190.97 L 1127.81 1149.86 z"/>
<path transform="translate(0,0)" fill="rgb(40,39,39)" d="M 941.947 1136.02 C 945.105 1135.82 947.349 1135.34 950.215 1136.59 C 954.313 1141.59 952.14 1154.22 952.026 1161.13 C 956.205 1157.89 959.73 1155.74 965.126 1155.17 C 971.164 1154.52 977.212 1156.29 981.954 1160.09 C 986.631 1163.86 989.572 1169.37 990.101 1175.36 C 990.674 1182.62 988.276 1188.02 983.554 1193.28 C 966.384 1204.76 967.01 1197.07 952.931 1194.98 C 951.416 1197.83 951.666 1197.88 948.861 1199.33 C 944.914 1199.33 945.657 1199.89 942.656 1198.18 C 941.281 1192.07 941.758 1144.53 941.947 1136.02 z"/>
<path transform="translate(0,0)" fill="rgb(255,255,255)" d="M 962.862 1163.46 C 970.393 1162.03 977.678 1166.91 979.232 1174.41 C 980.786 1181.92 976.035 1189.29 968.557 1190.97 C 963.606 1192.08 958.44 1190.43 955.043 1186.66 C 951.646 1182.89 950.547 1177.58 952.168 1172.78 C 953.788 1167.97 957.876 1164.41 962.862 1163.46 z"/>
<path transform="translate(0,0)" fill="rgb(40,39,39)" d="M 1532.48 1140.21 C 1536.88 1140.03 1537.85 1139.94 1542.12 1140.66 C 1545.77 1145.67 1566.25 1193.31 1568.87 1201.02 C 1548.83 1203.86 1562.89 1187.44 1545.25 1186.98 L 1523.52 1187.15 C 1521.67 1191.9 1520.43 1197.52 1516.75 1200.37 C 1512.98 1201.59 1512.53 1201.34 1508.48 1200.79 C 1507.45 1197.27 1529.47 1147.69 1532.48 1140.21 z"/>
<path transform="translate(0,0)" fill="rgb(255,255,255)" d="M 1537.31 1153.63 C 1540.18 1156.28 1546.81 1174.06 1547.8 1178.43 C 1544.95 1179.74 1541.83 1179.33 1538.5 1179.34 L 1526.51 1179.34 C 1529.93 1170.69 1533.53 1162.12 1537.31 1153.63 z"/>
<path transform="translate(0,0)" fill="rgb(40,39,39)" d="M 1603.94 1141.31 C 1610.22 1141.26 1623.34 1141.72 1624.74 1149.25 C 1623.24 1152.94 1624.37 1151.45 1621.28 1153.92 C 1610.49 1154.35 1604.51 1144.92 1593.07 1153.57 C 1571.28 1170.02 1595.46 1204.62 1615.85 1188.69 C 1618.83 1186.37 1618.07 1180.07 1617.96 1176.3 C 1613.17 1176.4 1608.01 1177.14 1604.63 1173.98 C 1604.72 1171.13 1604.71 1171.33 1606.24 1168.89 C 1612.87 1168.86 1620.28 1168.35 1626.96 1168.03 C 1626.97 1174.09 1628.12 1188.77 1626.19 1194.23 C 1623.79 1197.24 1617.58 1199.33 1614.53 1200.08 C 1584.35 1207.51 1562.32 1177.96 1580.62 1152.17 C 1586 1144.6 1594.74 1142.43 1603.94 1141.31 z"/>
<path transform="translate(0,0)" fill="rgb(40,39,39)" d="M 1201.52 1155.19 C 1203.61 1155.08 1205.69 1155.01 1207.78 1154.98 C 1220.48 1154.83 1229.06 1163.71 1229.16 1176.34 C 1223.49 1186.46 1203.16 1176.71 1194.59 1182.01 L 1194.35 1183.88 C 1199.7 1192.45 1205.76 1193.57 1215.37 1190.95 C 1217.09 1190.09 1218.39 1189.53 1220.17 1188.8 C 1223.39 1190.06 1222.34 1188.99 1223.74 1191.75 L 1222.91 1194.31 C 1216.44 1200.68 1203.74 1201.71 1196.58 1197.56 C 1175.31 1185.25 1179.16 1162.28 1201.52 1155.19 z"/>
<path transform="translate(0,0)" fill="rgb(255,255,255)" d="M 1202.81 1162.04 C 1210.05 1161.89 1218.33 1164.6 1219.27 1172.81 C 1216.84 1174.95 1217.45 1174.25 1213.25 1174.34 C 1207.16 1174.37 1198.31 1175.87 1194.31 1170.89 L 1194.91 1168.39 C 1198.15 1164.79 1198.6 1164.61 1202.81 1162.04 z"/>
<path transform="translate(0,0)" fill="rgb(40,39,39)" d="M 1450.47 1155.1 C 1459.38 1154.72 1466.42 1155.06 1472.76 1162.49 C 1476.22 1166.53 1479.93 1170.21 1479.56 1175.83 C 1472.67 1185.69 1452.86 1176.71 1443.46 1182.06 L 1443.05 1184.09 C 1447.38 1192.33 1455.97 1192.95 1464.19 1191.24 C 1468.12 1189.39 1468.36 1188.99 1472.2 1190.44 L 1473.16 1192.62 C 1472.29 1195.41 1470.04 1198.02 1467.29 1199.06 C 1436.33 1210.83 1415.96 1166.99 1450.47 1155.1 z"/>
<path transform="translate(0,0)" fill="rgb(255,255,255)" d="M 1452.82 1162.2 C 1459.03 1162.61 1468.6 1165.29 1467.57 1173.17 C 1464.57 1175.42 1464.9 1174.65 1460.25 1174.76 C 1454.41 1174.88 1446 1176.22 1442.17 1170.87 L 1442.8 1168.34 C 1445.35 1165.6 1449.38 1163.56 1452.82 1162.2 z"/>
<path transform="translate(0,0)" fill="rgb(40,39,39)" d="M 1291.57 1155.21 C 1294.09 1155.03 1297.61 1154.99 1300.09 1155.31 C 1308.71 1156.42 1320.34 1168.54 1318.83 1177.32 C 1318.23 1178.18 1317.63 1179.05 1317.03 1179.91 C 1310.54 1182.85 1284.93 1177.15 1282.48 1184.78 C 1288.44 1193.73 1298.07 1192.33 1306.81 1190 C 1307.99 1188.95 1307.2 1189.43 1309.42 1189.09 L 1311.65 1191.05 C 1313.76 1203.65 1278.93 1205.06 1273.02 1184.66 C 1271.34 1178.68 1272.1 1172.28 1275.11 1166.85 C 1279.27 1159.28 1283.81 1157.37 1291.57 1155.21 z"/>
<path transform="translate(0,0)" fill="rgb(255,255,255)" d="M 1290.74 1163.07 C 1297.85 1162.56 1307.78 1163.86 1308.47 1172.77 C 1306.16 1174.91 1307.46 1174.01 1303.25 1174.25 C 1297.52 1174.4 1288.99 1175.39 1284.31 1172.65 L 1284 1170.45 C 1285.78 1166.84 1287.59 1165.76 1290.74 1163.07 z"/>
<path transform="translate(0,0)" fill="rgb(40,39,39)" d="M 1016.2 1155.06 C 1036.76 1154.06 1041.59 1161.57 1045.09 1180.15 C 1036.99 1180.84 1013.41 1178.17 1009.5 1183.92 C 1012.27 1192.42 1023.77 1192.04 1030.61 1190.84 L 1034.58 1189.06 C 1038.19 1189.4 1036.78 1188.66 1039.16 1190.86 L 1038.88 1193.32 C 1033.38 1199.74 1021.63 1201.09 1014.44 1198.24 C 990.914 1188.89 994.919 1163.92 1016.2 1155.06 z"/>
<path transform="translate(0,0)" fill="rgb(255,255,255)" d="M 1016.85 1163 C 1023.91 1162.62 1032.98 1164.28 1034.89 1172.3 L 1033.65 1173.71 L 1029.25 1173.93 C 1023.68 1174.1 1013.83 1175.29 1009.72 1171.91 L 1009.84 1169.64 C 1012.49 1165.93 1013.04 1165.72 1016.85 1163 z"/>
<path transform="translate(0,0)" fill="rgb(40,39,39)" d="M 848.639 1141.18 C 856.407 1140.63 873.988 1141.34 878.116 1149.11 C 877.482 1152.63 876.935 1151.9 872.861 1154.8 C 867.018 1151.5 862.827 1149.22 855.844 1149.09 C 836.172 1148.74 828.397 1174.63 843.076 1186.5 C 849.227 1191.48 855.588 1191.35 863.207 1190.71 C 866.043 1188.79 867.822 1187.28 871.149 1186.41 C 875.138 1187.91 875.462 1189.57 878.409 1193.28 C 866.317 1199.23 854.591 1202.98 841.552 1196.54 C 834.427 1193.04 829.037 1186.78 826.623 1179.22 C 824.174 1171.62 824.872 1163.35 828.561 1156.27 C 833.262 1147.35 839.745 1144.05 848.639 1141.18 z"/>
<path transform="translate(0,0)" fill="rgb(40,39,39)" d="M 1331.11 1155.15 C 1334.48 1155.01 1337.13 1154.6 1340.32 1155.64 L 1341.08 1159.08 C 1349.11 1158.39 1366.28 1146 1372.9 1164.21 C 1375.46 1171.27 1377.01 1192.49 1373.93 1199.03 C 1370.98 1200.33 1369.11 1199.94 1365.89 1199.79 C 1364.28 1197.42 1364.96 1180.1 1364.96 1175.75 C 1364.69 1168.23 1359.52 1161.79 1351.55 1161.83 C 1336.5 1161.9 1343.52 1194.91 1339.59 1199.39 C 1336.17 1199.92 1335.29 1200.33 1332.02 1199.07 C 1330.17 1196.4 1331.1 1160.78 1331.11 1155.15 z"/>
<path transform="translate(0,0)" fill="rgb(40,39,39)" d="M 923.462 1152.74 C 926.67 1152.69 929.494 1152.13 931.883 1153.95 C 932.216 1156.77 924.991 1170.77 923.091 1174.55 C 916.146 1188.37 912.626 1218.89 890.724 1212.76 C 887.081 1211.74 886.147 1210.67 884.409 1207.65 C 885.526 1201.06 896.056 1208.68 902.92 1202.01 C 903.733 1197.91 903.812 1199.92 902.407 1195.77 C 896.461 1179.99 890.479 1168.51 882.575 1153.83 L 894.361 1154.01 C 899.262 1165.04 904.08 1176.1 908.813 1187.2 L 923.462 1152.74 z"/>
<path transform="translate(0,0)" fill="rgb(40,39,39)" d="M 1401.21 1155.19 C 1406.92 1154.81 1417.97 1155.06 1422.39 1158.85 L 1422.38 1161.12 C 1416.43 1169.02 1402.11 1156.36 1397.48 1167.57 C 1402.79 1176.45 1422.6 1173.95 1425.54 1185.49 C 1427.77 1194.27 1416.83 1198.22 1410.07 1199.99 C 1404.21 1200.23 1390.27 1200.43 1386.87 1194.95 C 1390.63 1181.62 1403.96 1200.64 1415.2 1187.7 L 1414.91 1185.91 C 1407.01 1180.02 1382.46 1181.51 1388.82 1164.41 C 1390.91 1158.82 1396.03 1157.13 1401.21 1155.19 z"/>
<path transform="translate(0,0)" fill="rgb(40,39,39)" d="M 1259.79 1138.3 C 1264.16 1138.35 1267.03 1138.64 1270.49 1141.3 C 1270.98 1144.41 1271.24 1142.94 1269.32 1145.78 C 1262.88 1148.98 1258.31 1142.64 1252.97 1148.8 C 1252.29 1151.55 1251.68 1152.45 1252.79 1154.98 C 1258.18 1155.75 1263.87 1156.22 1268.68 1158.62 L 1268.82 1161.11 C 1263.58 1164.08 1258.19 1163.4 1252.23 1163.24 L 1252.15 1187.78 C 1252.32 1192.89 1253.3 1199.1 1247.89 1201.55 C 1235.06 1198.97 1251.53 1170.77 1237.61 1162.96 L 1236.01 1162.08 L 1235.44 1159.53 C 1237.58 1154.12 1241.1 1157.99 1242.8 1153 C 1246.9 1140.97 1244.32 1140.14 1259.79 1138.3 z"/>
<path transform="translate(0,0)" fill="rgb(40,39,39)" d="M 1079.06 1153.49 C 1081.5 1154.56 1080.4 1153.83 1082.04 1156.17 C 1082.51 1164.37 1070.13 1165.57 1068.05 1170.83 C 1064.74 1179.21 1070.11 1188.42 1065.98 1197.19 C 1062.39 1199.54 1062.4 1198.64 1057.09 1198.47 C 1057 1188.96 1056.23 1164.2 1057.5 1156.14 C 1060.08 1154.69 1064.07 1154.29 1066.76 1155.61 L 1067.42 1160.36 L 1068.89 1160.41 C 1072.7 1156.8 1074.02 1155.14 1079.06 1153.49 z"/>
<path transform="translate(0,0)" fill="rgb(40,39,39)" d="M 167.02 698.13 C 174.951 692.149 203.823 673.589 212.07 669.767 L 213.802 671.487 C 202.159 679.043 180.31 693.492 168.658 700.025 L 167.02 698.13 z"/>
</svg>