<svg version="1.1" xmlns="http://www.w3.org/2000/svg" style="display: block;" viewBox="0 0 1638 2048" width="1024" height="1280" preserveAspectRatio="none">
<path transform="translate(0,0)" fill="rgb(255,255,255)" d="M 0 0 L 1638 0 L 1638 2048 L 0 2048 L 0 0 z"/>
<path transform="translate(0,0)" fill="rgb(40,43,84)" d="M 638.626 263.433 C 714.819 259.765 772.339 269.768 844.013 293.077 C 881.544 275.19 921.97 263.261 964.003 267.069 C 983.324 268.926 1002.08 274.627 1019.16 283.836 C 1039.33 294.552 1058.83 311.677 1076.75 326.011 C 1116.4 357.742 1152.76 392.172 1187.32 429.376 C 1212.16 456.111 1235.54 484.765 1259.01 512.778 C 1251.34 513.456 1243.66 514.047 1235.98 514.552 C 1244.04 525.24 1251.15 537.764 1258.1 549.304 C 1285.85 595.626 1309.77 644.131 1329.64 694.338 C 1447.47 783.09 1515.66 963.285 1539.69 1104.65 C 1542.64 1122.03 1540.76 1139.23 1543.44 1155.34 C 1552.65 1210.69 1566.88 1265.67 1558.54 1322.21 C 1557.98 1333.12 1552.04 1350.05 1553.55 1360.78 C 1561.61 1418.1 1571.67 1492.06 1547.37 1547.67 C 1567.63 1637.94 1573.82 1741.16 1574.23 1833.54 C 1507.43 1788.1 1460.61 1696.29 1432.59 1622.24 C 1430.89 1633.22 1430.46 1647.06 1427.04 1657.5 C 1424.52 1665.18 1420.79 1666.9 1414.11 1669.76 C 1398.93 1666.69 1374.84 1658.1 1359.66 1653.09 L 1355.31 1683.03 C 1363.33 1681.86 1372.46 1681.28 1379.35 1686.22 C 1389.54 1693.53 1401.39 1719.12 1402.62 1730.94 C 1404.61 1750.29 1389.46 1772.42 1378.54 1786.87 C 1370.8 1768.2 1364.33 1755.55 1351.25 1739.88 C 1336.76 1740.19 1318.57 1742.93 1303.9 1744.58 C 1242.27 1751.51 1189.35 1763.67 1133.88 1792.37 C 1138.77 1777.87 1143.38 1767.26 1150.37 1753.67 C 1125 1762.76 1110.09 1771.84 1086.52 1782.74 C 1090.93 1771.51 1095.37 1762.15 1100.88 1751.48 C 1079.09 1754.82 1069.07 1759.38 1049.63 1768.83 C 1063.44 1732.88 1087.02 1692.02 1130.08 1687.59 C 1140.23 1686.54 1148.33 1689.87 1158.8 1686.59 L 1160.09 1686.18 C 1182.25 1681.88 1190.04 1684.73 1211.22 1686.59 C 1217.57 1687.15 1232.85 1685.74 1240.52 1685.98 C 1258.3 1686.52 1275.12 1687.72 1292.78 1690.16 C 1293.47 1685.65 1295.91 1673.77 1293.93 1670.47 L 1288.63 1671.6 C 1282.85 1669.04 1277.34 1625.84 1268.1 1618.19 C 1248.16 1601.67 1223.96 1591.77 1203.01 1576.13 C 1164.9 1547.69 1132.81 1512.28 1111.36 1469.62 C 1098.64 1443.54 1088.11 1419.86 1073.51 1394.35 C 1062.22 1405.38 1050.96 1416.6 1039.43 1427.37 C 989.794 1473.7 932.948 1510.24 872.841 1541.31 C 867.441 1550.84 857.554 1564.28 851.108 1573.47 C 801.676 1643.97 719.392 1727.25 643.398 1768.87 C 612.985 1762.78 552.828 1732.11 525.94 1715.41 C 283.718 1564.94 156.77 1289.14 84.2521 1023.53 C 78.4024 1002.11 71.9711 975.162 63.692 954.848 C 69.2731 952.736 75.1501 950.723 80.7877 948.699 C 79.3367 936.004 78.2935 923.265 77.6598 910.502 C 68.9365 743.194 126.526 579.193 237.938 454.072 C 344.822 336.146 479.134 271.278 638.626 263.433 z"/>
<path transform="translate(0,0)" fill="rgb(255,255,255)" d="M 506.49 729.532 C 513.117 732.965 520.906 738.291 527.408 742.264 C 556.935 760.307 586.316 777.527 617.166 793.232 C 717.704 843.624 824.678 879.989 935.098 901.312 C 969.137 907.789 1003.34 913.377 1037.67 918.07 C 1033.51 974.412 1023.58 1040.23 1013.23 1095.27 C 972.573 1311.57 892.66 1532.89 723.659 1682.43 C 695.036 1707.76 672.306 1723.59 640.829 1744.76 L 628.17 1740.03 C 595.972 1728.02 565.036 1712.86 535.81 1694.78 C 305.868 1553.29 178.55 1281.59 109.97 1030.18 C 104.671 1010.76 97.7057 989.327 93.1407 970.138 C 238.833 924.287 409.135 850.775 506.49 729.532 z"/>
<path transform="translate(0,0)" fill="rgb(40,43,84)" d="M 524.373 845.694 C 530.331 847.874 556.376 862.912 564.45 866.924 C 595.553 882.728 627.261 897.312 659.502 910.642 C 708.041 930.736 757.686 948.048 808.195 962.494 C 853.84 975.147 895.888 984.192 941.369 995.111 C 939.126 1015.65 936.412 1036.14 933.231 1056.55 C 903.723 1247.07 835.311 1450.79 694.246 1588.03 C 671.877 1609.79 652.321 1624.92 627.505 1643.06 L 620.494 1639.2 C 614.834 1636.52 609.24 1633.7 603.717 1630.75 C 562.971 1609.33 524.933 1583.11 490.411 1552.66 C 387.639 1461.68 309.308 1327.39 257.155 1201.49 C 233.205 1143.67 215.857 1086.98 197.479 1027.59 C 316.578 987.292 427.348 925.657 524.373 845.694 z"/>
<path transform="translate(0,0)" fill="rgb(255,255,255)" d="M 752.065 970.156 C 781.806 977.303 811.456 987.658 841.823 994.918 C 843.71 1005.24 844.978 1032.65 845.673 1044.02 C 850.332 1120.87 847.768 1197.98 838.014 1274.34 C 777.572 1268.84 738.739 1271.72 679.383 1283.79 C 669.395 1286.07 660.604 1288.77 650.811 1291.75 C 639.182 1252.24 629.001 1209.76 619.161 1169.69 C 607.61 1122.4 596.354 1075.04 585.395 1027.61 C 604.239 1020.27 625.39 1013.68 644.688 1006.78 C 680.291 994.046 715.972 981.422 752.065 970.156 z"/>
<path transform="translate(0,0)" fill="rgb(255,255,255)" d="M 567.614 1033.99 C 569.695 1033.52 568.917 1033.52 570.971 1034.13 C 572.956 1038.19 577.307 1057.32 578.573 1062.46 C 583.842 1083.64 588.994 1104.85 594.03 1126.09 C 607.318 1183.34 621.6 1240.34 636.868 1297.09 C 589.797 1311.17 513.082 1353.29 473.577 1383.91 C 461.264 1369.17 449.353 1354.11 437.856 1338.73 C 389.653 1269.91 352.298 1202.7 324.79 1122.95 C 354.383 1113.52 393.598 1097.54 423.273 1086.43 C 471.197 1068.44 519.313 1050.95 567.614 1033.99 z"/>
<path transform="translate(0,0)" fill="rgb(255,255,255)" d="M 526.44 872.705 C 529.02 873.861 533.768 876.696 536.419 878.165 C 546.023 923.533 557.095 974.24 568.894 1018.99 C 545.837 1026.36 516.823 1037.54 493.926 1045.92 L 330.754 1106.64 L 319.494 1111.1 C 311.743 1091.31 295.484 1035.92 291.42 1015.02 C 372.364 977.392 459.794 933.222 526.44 872.705 z"/>
<path transform="translate(0,0)" fill="rgb(255,255,255)" d="M 640.122 1314.94 L 640.784 1315.09 C 643.166 1316.86 652.23 1352.07 653.675 1356.98 C 671.442 1416.76 691.418 1475.86 713.562 1534.16 L 708.226 1540.95 C 674.025 1535.59 632.808 1514.34 603.354 1496.85 C 554.792 1467.73 524.334 1437.81 485.749 1398.08 C 542.376 1358.43 576.499 1341.44 640.122 1314.94 z"/>
<path transform="translate(0,0)" fill="rgb(255,255,255)" d="M 759.191 1291.41 C 778.188 1289.1 816.157 1291.26 835.295 1293.07 C 830.85 1312.7 818.418 1367.37 811.527 1384.46 C 795.19 1424.98 757.378 1481.05 730.158 1514.7 C 728.147 1517.39 727.938 1517.71 725.33 1519.77 L 723.922 1518.96 C 715.878 1503.17 704.071 1465.87 698.21 1448.47 C 683.06 1403.5 667.547 1356.41 655.263 1310.67 C 689.34 1299.74 723.622 1294.17 759.191 1291.41 z"/>
<path transform="translate(0,0)" fill="rgb(255,255,255)" d="M 309.643 1129.03 C 312.787 1130.01 316.114 1142.08 317.438 1145.69 C 321.311 1156.52 325.473 1167.24 329.92 1177.85 C 367.123 1264.49 403.684 1318.47 460.42 1392.07 C 446.702 1401.07 425.165 1419.46 412.182 1430.28 C 408.864 1427.95 395.523 1408.61 392.597 1404.46 C 356.485 1353.32 325.227 1297.68 299.215 1240.75 C 285.973 1211.78 270.903 1178.5 261.306 1148.05 C 277.333 1141.5 293.446 1135.16 309.643 1129.03 z"/>
<path transform="translate(0,0)" fill="rgb(255,255,255)" d="M 472.623 1406.06 C 477.186 1410.01 488.969 1423.24 493.859 1428.27 C 505.85 1440.59 518.375 1452.38 531.398 1463.61 C 556.923 1485.68 588.82 1507.41 618.349 1523.56 C 630.542 1530.23 646.097 1535.89 657.585 1542.53 L 658.37 1542.99 C 641.823 1543.45 625.262 1543.05 608.756 1541.8 C 565.409 1537.92 522.717 1528.64 481.672 1514.17 C 478.396 1510.13 474.339 1505.84 470.583 1502.23 C 452.396 1484.74 437.57 1466.02 422.235 1446.08 C 439.325 1431.19 454.94 1419.85 472.623 1406.06 z"/>
<path transform="translate(0,0)" fill="rgb(255,255,255)" d="M 553.236 886.908 C 562.186 890.141 588.878 904.352 599.598 909.41 C 625.276 921.377 651.312 932.559 677.672 942.94 C 693.429 949.305 713.319 957.679 729.402 962.215 C 717.555 966.796 702.953 971.382 690.755 975.576 C 654.822 989.002 618.267 1000.81 582.512 1014.3 C 572.098 978.897 561.307 924.032 553.236 886.908 z"/>
<path transform="translate(0,0)" fill="rgb(255,255,255)" d="M 858.086 999.089 C 877.824 1003.88 897.631 1008.38 917.501 1012.58 C 906.374 1089.07 892.187 1165.32 868.866 1239.13 C 866.784 1246.19 860.071 1275.22 853.213 1275.81 L 852.186 1274.11 C 855.067 1258.52 857.098 1236.09 858.527 1220.11 C 862.838 1170.9 864.157 1121.47 862.477 1072.1 C 861.517 1047.73 859.182 1023.41 858.086 999.089 z"/>
<path transform="translate(0,0)" fill="rgb(255,255,255)" d="M 276.147 1021.03 C 277.023 1021.84 277.719 1022.49 278.039 1023.71 C 286.257 1055.05 295.973 1085.41 306.209 1116.14 C 289.869 1122.96 273.437 1128.86 256.818 1134.95 C 246.17 1102.81 234.271 1076.24 225.797 1041.72 C 238.596 1035.63 261.871 1027.03 276.147 1021.03 z"/>
<path transform="translate(0,0)" fill="rgb(255,255,255)" d="M 526.922 1552.7 C 580.574 1566.36 629.147 1572.59 684.633 1566.68 C 676.347 1573.8 667.986 1580.84 659.552 1587.79 C 648.311 1597.2 635.126 1606.75 623.331 1615.65 C 597.86 1603.4 547.15 1571.94 526.922 1552.7 z"/>
<path transform="translate(0,0)" fill="rgb(255,255,255)" d="M 797.468 352.488 C 812.96 334.45 827.961 320.228 849.718 309.628 C 907.266 281.59 973.233 269.205 1028.23 311.232 C 1099.61 365.783 1167.5 428.958 1223.22 499.644 L 1205.85 501.474 L 1206.73 502.556 C 1216.54 514.433 1232.49 542.435 1240.59 556.129 C 1264.44 596.442 1287.47 639.985 1305.84 683.165 C 1297.04 678.938 1286.28 675.157 1276.96 672.308 C 1267.97 658.536 1255.48 628.334 1247.21 612.166 C 1213.6 546.471 1173.63 463.365 1118.34 413.474 L 1118.13 414.661 L 1116.95 414.565 C 1112.59 410.387 1096.63 395.701 1095.41 391.302 C 1093.85 389.246 1089.79 385.771 1087.72 383.87 L 1086.62 386.365 C 1107.07 406.08 1130.51 428.874 1147.97 451.129 C 1183.74 496.756 1212.03 552.328 1238.6 603.857 C 1249.1 624.224 1261.88 649.659 1270.42 670.39 C 1263.84 670.012 1256.78 669.478 1250.26 669.969 C 1162.38 676.593 1137.22 771.953 1133.1 845.004 C 1131.1 880.452 1134.3 909.909 1139.02 944.663 C 1122.26 933.693 1112.44 926.652 1097.71 912.641 C 1102.51 927.912 1107.26 940.653 1108.47 956.666 C 1083.18 951.804 1075.82 945.435 1058.91 926.24 L 1061.06 899.166 C 1004.65 891.132 942.52 882.579 887.466 867.194 C 893.73 846.939 901.205 824.415 906.655 804.133 L 922.831 838.651 C 928.875 820.838 943.021 790.274 951.953 773.498 C 959.638 787.425 966.7 802.641 974.12 815.899 C 987.334 787.143 999.547 762.631 1009.95 732.621 C 1014.85 740.726 1020.95 753.073 1026.11 759.988 C 1031.51 722.094 1032.67 693.468 1025.71 655.533 C 1023.72 659.59 1024.82 658.143 1020.44 660.935 C 1025.36 684.84 1024.74 704.097 1022.75 728.055 C 1015.49 716.708 1012.15 711.869 1001.57 703.672 C 993.844 730.441 987.027 749.454 974.447 774.074 C 967.181 762.041 958.336 749.828 947.444 740.873 C 939.214 759.937 930.735 778.893 922.01 797.736 C 914.659 782.538 914.646 772.114 912.254 755.878 C 911.816 752.909 910.777 752.147 908.74 750.934 C 902.64 752.524 897.415 761.379 893.514 766.743 C 898.787 720.107 896.818 663.639 876.944 620.289 C 870.833 606.959 862.066 594.576 853.778 582.494 C 860.765 579.852 864.038 578.289 871.584 578.326 L 872.968 575.664 C 914.236 561.473 944.096 529.272 967.167 493.679 C 956.889 489.785 945.657 487.135 934.631 482.582 C 908.002 471.586 876.276 454.245 856.039 433.533 C 853.529 430.965 849.095 416.34 847.586 412.349 C 836.812 383.834 823.627 367.404 797.468 352.488 z"/>
<path transform="translate(0,0)" fill="rgb(29,28,38)" d="M 1086.62 386.365 C 1058.92 358.189 1010.15 311.521 971.96 305.068 C 928.39 297.705 873.512 311.171 836.972 334.828 L 835.855 334.503 C 858.136 310.652 934.071 296.224 965.434 301.447 C 1012.1 309.217 1054.55 352.223 1087.72 383.87 L 1086.62 386.365 z"/>
<path transform="translate(0,0)" fill="rgb(40,43,84)" d="M 1009.88 629.664 C 1011.16 630.241 1012.44 630.838 1013.71 631.454 C 1029.47 639.141 1035.28 648.015 1040.86 664.024 C 1034.78 659.956 1032.38 658.291 1025.71 655.533 C 1023.72 659.59 1024.82 658.143 1020.44 660.935 C 1018.28 651.117 1013.47 639.206 1009.88 629.664 z"/>
<path transform="translate(0,0)" fill="rgb(29,28,38)" d="M 1095.41 391.302 C 1099.97 395.509 1114.79 409.03 1118.34 413.474 L 1118.13 414.661 L 1116.95 414.565 C 1112.59 410.387 1096.63 395.701 1095.41 391.302 z"/>
<path transform="translate(0,0)" fill="rgb(40,43,84)" d="M 942.944 355.239 C 1005.56 349.565 1009.09 437.972 951.247 446.706 C 940.803 447.129 932.28 445.416 923.344 439.683 C 912.593 432.666 905.166 421.569 902.779 408.954 C 897.183 380.418 915.865 360.39 942.944 355.239 z"/>
<path transform="translate(0,0)" fill="rgb(40,43,84)" d="M 933.619 434.122 C 912.313 430.199 906.419 400.637 914.056 382.946 C 917.979 373.697 925.455 366.414 934.802 362.732 C 985.25 342.893 999.169 418.2 971.725 427.507 L 973.239 425.371 L 971.832 424.737 C 960.746 434.891 951.586 436.711 937.489 431.648 L 937.849 435.624 L 936.85 436.522 C 936.156 436.02 934.12 434.622 933.619 434.122 z"/>
<path transform="translate(0,0)" fill="rgb(255,255,255)" d="M 933.619 434.122 C 912.313 430.199 906.419 400.637 914.056 382.946 C 917.979 373.697 925.455 366.414 934.802 362.732 C 985.25 342.893 999.169 418.2 971.725 427.507 L 973.239 425.371 L 971.832 424.737 C 977.059 417.626 979.381 412.61 978.305 403.83 C 977.35 399.552 978.713 398.579 981.229 395.119 C 979.666 363.192 951.362 353.941 926.679 370.388 C 926.402 371.159 925.579 373.63 925.253 374.199 C 907.93 392.287 915.29 420.891 937.489 431.648 L 937.849 435.624 L 936.85 436.522 C 936.156 436.02 934.12 434.622 933.619 434.122 z"/>
<path transform="translate(0,0)" fill="rgb(29,28,38)" d="M 926.679 370.388 C 926.402 371.159 925.579 373.63 925.253 374.199 C 907.93 392.287 915.29 420.891 937.489 431.648 L 937.849 435.624 L 936.85 436.522 C 936.156 436.02 934.12 434.622 933.619 434.122 C 928.725 430.769 924.785 427.865 921.19 423.035 C 914.364 414.051 911.517 402.662 913.313 391.523 C 914.813 382.635 919.401 375.623 926.679 370.388 z"/>
<path transform="translate(0,0)" fill="rgb(71,68,76)" d="M 981.229 395.119 C 981.907 406.428 981.496 416.684 973.239 425.371 L 971.832 424.737 C 977.059 417.626 979.381 412.61 978.305 403.83 C 977.35 399.552 978.713 398.579 981.229 395.119 z"/>
<path transform="translate(0,0)" fill="rgb(255,255,255)" d="M 925.253 374.199 C 917.226 392.224 917.199 415.815 938.396 424.67 C 945.436 427.591 953.351 427.59 960.391 424.667 C 969.254 420.946 975.448 412.821 978.305 403.83 C 979.381 412.61 977.059 417.626 971.832 424.737 C 960.746 434.891 951.586 436.711 937.489 431.648 C 915.29 420.891 907.93 392.287 925.253 374.199 z"/>
<path transform="translate(0,0)" fill="rgb(255,255,255)" d="M 954.86 368.869 C 971.348 369.705 978.472 385.162 963.949 392.15 C 962.746 392.034 961.544 391.897 960.346 391.739 C 947.056 389.948 942.136 376.858 954.86 368.869 z"/>
<path transform="translate(0,0)" fill="rgb(40,43,84)" d="M 900.766 370.475 C 923.445 347.454 935.394 339.906 970.396 337.758 C 972.993 337.599 974.634 337.849 977.044 338.801 L 978.043 340.513 C 974.492 345.086 941.709 350.186 933.041 354.029 C 920.176 359.733 912.906 366.746 901.282 373.001 L 900.766 370.475 z"/>
<path transform="translate(0,0)" fill="rgb(29,28,38)" d="M 873.497 581.64 C 878.294 585.194 887.075 600.12 890.217 605.226 C 908.805 635.436 920.584 685.875 911.172 720.3 L 911.16 720.517 C 910.625 717.892 910.922 708.89 911.029 705.824 C 911.708 686.374 909.178 668.69 904.531 649.961 C 898.086 623.988 885.683 605.046 873.497 581.64 z"/>
<path transform="translate(0,0)" fill="rgb(40,43,84)" d="M 1032.64 475.815 L 1033.43 476.675 C 1033.99 493.377 1012.15 505.415 997.21 506.556 C 996.594 505.679 996.944 506.29 996.514 504.562 C 1012.35 494.744 1020.24 490.071 1032.64 475.815 z"/>
<path transform="translate(0,0)" fill="rgb(40,43,84)" d="M 896.857 361.064 L 897.495 361.895 C 895.347 373.906 871.099 386.794 859.359 388.319 L 858.681 386.708 C 861.617 383.382 891.908 362.325 896.857 361.064 z"/>
<path transform="translate(0,0)" fill="rgb(40,43,84)" d="M 900.766 370.475 L 901.282 373.001 C 901.024 373.187 900.766 373.372 900.508 373.558 L 899.239 374.515 C 883.281 386.416 883.723 402.048 861.924 391.172 C 880.524 386.502 885.32 381.899 900.766 370.475 z"/>
<path transform="translate(0,0)" fill="rgb(40,43,84)" d="M 1218.72 594.8 C 1228.59 601.893 1239.53 625.399 1243.09 637.126 C 1232.94 626.491 1222.06 609.206 1218.72 594.8 z"/>
<path transform="translate(0,0)" fill="rgb(40,43,84)" d="M 1000.35 364.389 C 1007.15 367.624 1019.19 385.335 1020.14 392.644 C 1015.34 390.862 1007.31 383.409 1004.34 379.132 C 1000.03 372.901 999.115 371.701 1000.35 364.389 z"/>
<path transform="translate(0,0)" fill="rgb(255,255,255)" d="M 659.695 287.461 C 709.916 285.469 769.223 295.194 816.73 310.828 C 802.593 322.093 792.546 334.956 779.852 347.357 C 776.922 350.219 763.3 355.474 757.878 359.407 C 747.625 366.844 739.584 379.533 730.727 386.653 C 721.934 393.721 708.008 400.36 697.947 407.708 C 657.626 437.159 624.707 474.011 617.104 525.321 C 609.32 577.858 620.29 620.377 651.09 663.262 C 651.194 657.395 651.893 650.785 652.389 644.867 C 680.07 620.488 742.948 600.384 778.5 594.528 C 795.89 591.663 815.737 589.211 833.547 586.218 C 840.482 594.205 846.628 602.844 851.898 612.016 C 887.229 672.5 881.922 749.992 864.875 815.42 C 875.855 808.391 880.391 805.101 889.105 795.501 C 883.254 818.562 877.529 840.305 870.259 863.033 C 816.719 851.729 756.86 829.229 706.302 808.901 C 652.268 786.58 580.972 750.117 531.243 718.079 C 522.267 681.572 517.339 643.717 511.644 606.57 C 509.997 595.828 508.562 584.697 507.796 573.87 C 524.248 569.281 590.054 545.482 602.119 537.093 C 603.352 530.003 604.404 522.883 605.275 515.74 C 599.987 517.526 593.764 520.279 588.619 522.533 C 561.247 534.526 533.726 544.13 505.34 553.447 C 498.947 491.335 496.822 428.857 498.981 366.453 C 499.718 349.646 500.628 327.92 503.276 311.673 C 513.524 308.294 523.916 305.503 534.309 302.604 C 542.92 304.995 551.509 307.159 560.106 309.662 C 618.016 326.52 663.231 361.111 712.675 393.574 C 718.474 390.845 721.768 388.723 727.195 385.22 C 710.712 374.495 692.996 360.471 675.865 349.226 C 638.642 324.792 608.445 310.595 566.735 295.976 C 600.818 291.036 625.396 288.51 659.695 287.461 z"/>
<path transform="translate(0,0)" fill="rgb(255,255,255)" d="M 1243.98 689.225 C 1275.11 686.798 1303.38 698.102 1327.31 717.197 C 1432.31 801.015 1502.64 979.507 1521.06 1108.3 C 1513.96 1102.38 1505.33 1096.9 1497.61 1091.7 C 1481.45 1026.5 1466.08 967.73 1439.48 905.44 C 1439.51 909.921 1451.01 944.725 1452.98 951.185 C 1458.45 969.538 1463.72 987.95 1468.79 1006.42 C 1475.76 1031.97 1481.09 1058.63 1487.82 1084.47 C 1462.52 1059.04 1453.95 1046.85 1438.7 1014.31 C 1437.98 1012.46 1433.69 1000.96 1432.4 1000.25 C 1432.34 1000.54 1455.66 1105.65 1457.51 1113.23 C 1414.23 1099.91 1389.32 1075.55 1363.06 1040.45 C 1368.56 1060.08 1372.4 1090.15 1375.56 1110.78 C 1318.06 1094.38 1298.55 1066.97 1265.31 1021.28 C 1271.61 1044.15 1282.65 1071.65 1291.62 1093.91 C 1239.42 1078.39 1184.27 1038.38 1167.93 984.311 C 1143.3 902.786 1133.71 712.585 1243.98 689.225 z"/>
<path transform="translate(0,0)" fill="rgb(255,255,255)" d="M 1058.3 937.491 C 1077.94 956.288 1088.11 962.443 1115.85 962 C 1115.69 954 1115.3 944.96 1114.13 937.111 C 1124.25 944.931 1128.45 947.687 1140.21 952.59 C 1167.06 1062.12 1211.19 1156.94 1278.59 1247.35 C 1283.21 1253.55 1287.69 1260.07 1292.2 1266.37 C 1344.09 1338.07 1399.51 1407.15 1458.26 1473.35 C 1481.08 1499.59 1508.14 1526.25 1529.32 1553.29 C 1531.93 1556.62 1538.32 1600.25 1539.42 1607.53 C 1549.05 1669.65 1554.33 1732.36 1555.23 1795.2 C 1534.54 1773.01 1516.3 1748.64 1500.83 1722.54 C 1472.28 1673.94 1448.78 1617.05 1432.48 1563.11 C 1422.15 1528.95 1415.39 1496.99 1401.69 1463.91 C 1388.93 1490.16 1382.98 1511.83 1375.69 1540.03 C 1369.94 1533.4 1363.45 1527.46 1356.34 1522.31 C 1330.97 1504.19 1307.43 1505.99 1289.06 1531.81 C 1287.15 1520.18 1283.12 1505 1280.53 1493.16 C 1276.11 1472.81 1272.18 1452.35 1268.74 1431.81 C 1258.48 1369.94 1258.29 1322.58 1259.89 1261.08 C 1255.16 1255.8 1244.69 1246.38 1238.86 1241.13 C 1200.46 1206.62 1150.98 1171.1 1099.57 1160.45 C 1068.27 1153.98 1044.36 1158.48 1018.32 1176.2 C 1038.19 1103.05 1048.22 1012.86 1058.3 937.491 z"/>
<path transform="translate(0,0)" fill="rgb(255,255,255)" d="M 492.272 578.278 L 493.679 579.132 C 499.612 622.127 504.957 663.055 512.627 706.091 L 501.64 699.512 C 493.665 708.954 487.865 717.365 479.115 727.262 C 421.361 792.585 353.019 835.412 275.723 874.06 L 259.837 881.987 C 251.691 794.409 269.829 685.113 296.803 601.839 C 369.694 601.856 422.062 594.049 492.272 578.278 z"/>
<path transform="translate(0,0)" fill="rgb(255,255,255)" d="M 168.389 595.88 C 204.803 600.391 243.98 600.845 280.853 602.04 C 252.013 686.657 239.76 798.181 245.031 887.262 C 225.357 896.23 205.509 904.813 185.5 913.006 C 163.589 921.86 126.645 936.453 104.374 941.826 C 93.973 809.14 110.958 715.453 168.389 595.88 z"/>
<path transform="translate(0,0)" fill="rgb(255,255,255)" d="M 1190.16 1048.72 C 1193.22 1050.66 1209.04 1066.81 1214.55 1071.23 C 1243.03 1094.13 1274.85 1104.96 1310 1113.01 C 1305.73 1103.77 1303.58 1096.68 1300.52 1087.02 C 1320.72 1103.69 1337.13 1113.27 1361.44 1122.44 C 1372.67 1143.67 1382.5 1165.73 1393.29 1187.2 C 1418.23 1236.8 1440.9 1285.14 1461.94 1336.49 L 1502.44 1437.36 C 1510.92 1458.32 1521.54 1484.85 1531.67 1504.68 C 1534.38 1510.1 1540.09 1522.89 1533.6 1526.9 C 1532.7 1526.75 1532.49 1526.77 1531.7 1526.47 C 1526.65 1524.54 1486.74 1478.05 1480.85 1471.38 C 1412 1393.46 1344.97 1312.3 1286.26 1226.41 C 1270.51 1203.37 1254.67 1180.49 1240.81 1156.24 C 1221.16 1121.77 1204.22 1085.82 1190.16 1048.72 z"/>
<path transform="translate(0,0)" fill="rgb(255,255,255)" d="M 486.911 317.235 C 488.557 318.982 484.932 353.965 484.685 359.136 C 482.166 425.577 484.572 492.114 491.886 558.199 C 451.482 567.041 413.048 576.142 371.504 578.946 C 352.729 580.213 334.443 581.087 315.641 581.759 C 310.481 582.106 307.057 583.593 304.976 578.425 C 305.254 573.047 308.223 569.101 310.042 563.848 C 322.813 526.955 339.777 489.687 359.105 455.745 C 382.261 414.633 411.287 377.117 445.267 344.38 C 459.939 330.275 466.946 322.712 486.911 317.235 z"/>
<path transform="translate(0,0)" fill="rgb(255,255,255)" d="M 1460.08 1070.92 C 1469.01 1079.63 1474.12 1099.58 1477.87 1111.57 C 1497.69 1174.89 1511.16 1240.1 1522.56 1305.4 C 1524.79 1318.21 1529.42 1330.76 1532.17 1343.47 C 1536.24 1365.51 1539.67 1389.38 1541.92 1411.61 C 1545.46 1446.58 1544.92 1473.56 1539.29 1507.88 C 1536.25 1496.49 1527.01 1475.89 1522.19 1464.3 C 1514.22 1444.84 1506.4 1425.32 1498.74 1405.74 C 1478.28 1353.85 1458 1301.02 1434.76 1250.3 C 1415.34 1207.93 1392.91 1164.8 1371.86 1123.08 L 1388.77 1127.56 C 1387.67 1113.14 1386.11 1097.63 1383.62 1083.41 C 1398 1096.49 1412.43 1110.05 1430.33 1118.18 C 1438.27 1121.79 1461.32 1132.2 1469 1124.89 C 1470.84 1118.35 1461.99 1080.63 1460.08 1070.92 z"/>
<path transform="translate(0,0)" fill="rgb(255,255,255)" d="M 746.045 392.301 C 760.418 419.88 771.524 440.776 793.441 463.794 C 797.713 468.28 828.194 493.297 819.029 498.94 C 778.198 524.08 693.744 520.71 665.325 562.95 C 653.567 576.654 643.555 600.647 642.972 618.68 C 642.587 620.896 642.216 623.115 641.86 625.336 L 640.94 625.764 C 623.602 592.283 621.404 544.714 632.337 508.94 C 648.556 455.873 698.765 417.129 746.045 392.301 z"/>
<path transform="translate(0,0)" fill="rgb(255,255,255)" d="M 425.924 340.135 L 426.541 340.838 C 354.989 416.44 322.654 485.715 287.47 581.833 C 254.421 580.721 223.224 579.904 190.179 577.303 C 186.486 577.165 185.295 577.359 181.968 575.986 L 181.404 574.266 C 185.977 563.346 203.271 537.561 210.202 527.602 C 267.836 444.781 337.028 386.352 425.924 340.135 z"/>
<path transform="translate(0,0)" fill="rgb(255,255,255)" d="M 997.279 1262.68 C 1000.26 1265.5 1017.64 1297.82 1021.44 1304 C 1035.16 1326.31 1048.93 1349.01 1062 1371.72 C 1027.35 1407.46 979.812 1447.96 938.5 1474.29 C 924.927 1483.54 910.747 1491.43 897.24 1500.79 C 943.834 1415.2 967.818 1354.59 997.279 1262.68 z"/>
<path transform="translate(0,0)" fill="rgb(255,255,255)" d="M 1330.66 1529 C 1341.9 1531.74 1348.92 1537.55 1357.07 1545.35 C 1356.92 1546.12 1356.79 1546.9 1356.67 1547.68 C 1352.27 1576.07 1349.68 1605.43 1345.9 1633.99 C 1344.47 1644.84 1335.9 1691.92 1340.55 1698.27 C 1347.24 1701.96 1360.05 1698.97 1369.66 1699.03 C 1376.32 1708.04 1383.29 1722.72 1387.22 1733.27 C 1385.36 1742.87 1384.53 1746.04 1380.54 1755.03 C 1360.94 1717.54 1354.71 1722.63 1316.39 1727.1 C 1295.78 1729.32 1275.23 1732.06 1254.75 1735.3 C 1218.15 1741.23 1203.51 1746.23 1169.86 1757.02 C 1202.47 1703.87 1224.22 1694.51 1285.07 1705.65 C 1294.25 1707.33 1305.94 1708.14 1308 1696.36 C 1311.19 1678.07 1313.21 1659.47 1315.73 1641.01 C 1321.08 1603.73 1326.05 1566.39 1330.66 1529 z"/>
<path transform="translate(0,0)" fill="rgb(255,255,255)" d="M 1011.26 1210.71 C 1012.37 1211.82 1035 1261.81 1040.83 1270.41 C 1081.67 1330.73 1114.13 1394.43 1145.46 1459.91 C 1174.66 1520.93 1238.98 1566.07 1297.76 1595.08 C 1300.86 1577.72 1302.91 1558 1304.21 1540.48 L 1313.74 1530.59 C 1312.02 1546.44 1309.94 1562.25 1307.5 1578.01 C 1303.98 1598.5 1301.25 1622.5 1298.35 1643.34 C 1293.87 1627.73 1289.48 1616.63 1282.07 1602.23 C 1263.32 1590.47 1241.72 1578.58 1223.03 1567.08 C 1147.14 1520.38 1126.51 1452.73 1086.83 1378.67 C 1061.52 1331.42 1030.98 1283.95 1005.05 1234.2 C 1007.33 1227.37 1009.46 1217.85 1011.26 1210.71 z"/>
<path transform="translate(0,0)" fill="rgb(255,255,255)" d="M 783.317 363.218 C 825.212 369.724 829.702 421.399 847.971 446.635 C 855.971 457.686 897.906 478.566 911.439 485.276 C 901.153 486.281 890.553 487.629 880.241 488.766 C 863.057 490.69 847.042 490.53 829.846 489.861 C 801.268 464.315 762.983 424.02 751.828 386.48 C 760.174 375 769.4 367.05 783.317 363.218 z"/>
<path transform="translate(0,0)" fill="rgb(40,43,84)" d="M 782.528 403.121 C 801.906 402.336 824.548 422.459 807.615 439.153 C 794.935 439.662 766.943 419.468 782.528 403.121 z"/>
<path transform="translate(0,0)" fill="rgb(255,255,255)" d="M 1480.32 1092.61 C 1483.16 1094.67 1489.39 1101.16 1493.2 1104.3 C 1501.97 1111.53 1510.3 1117.58 1519.52 1124.23 C 1531.23 1189.46 1547.63 1260.71 1539.45 1326.49 L 1538.34 1327.65 C 1533.59 1322.03 1526.14 1278.53 1524.14 1268.33 C 1512.52 1209.17 1499.89 1149.72 1480.32 1092.61 z"/>
<path transform="translate(0,0)" fill="rgb(255,255,255)" d="M 676.229 610.533 C 717.476 581.072 755.86 579.49 799.948 559.484 C 823.525 548.785 903.372 495.694 921.604 497.952 C 922.83 498.104 923.608 498.522 924.558 499.281 C 924.565 502.825 918.924 509.509 916.3 511.95 C 870.829 554.252 812.414 570.332 753.848 585.201 C 733.046 590.482 696.482 601.204 678.421 612.36 L 676.229 610.533 z"/>
<path transform="translate(0,0)" fill="rgb(255,255,255)" d="M 928.72 490.462 C 936.969 492.075 945.665 494.57 953.834 496.737 L 953.109 497.741 C 925.611 535.509 887.525 567.037 840.253 574.592 C 833.589 575.774 826.445 576.606 819.705 577.509 C 834.777 572.638 860.308 561.343 874.845 552.461 C 890.169 543.098 926.324 518.32 932.191 500.486 C 933.435 496.707 930.8 493.396 928.72 490.462 z"/>
<path transform="translate(0,0)" fill="rgb(255,255,255)" d="M 829.448 498.019 C 848.955 498.094 863.511 496.993 882.983 494.523 C 893.08 493.242 909.057 490.655 918.576 490.396 C 870.815 503.167 820.644 509.161 772.766 523.246 C 746.952 530.84 720.699 534.3 696.568 547.999 C 682.63 555.878 671.047 567.334 663.013 581.183 C 657.834 590.251 654.817 598.336 651.667 608.138 C 650.02 613.261 647.616 622.498 645.133 626.848 L 645.295 627.348 L 644.102 627.995 C 643.195 625.639 643.146 621.343 642.972 618.68 C 643.555 600.647 653.567 576.654 665.325 562.95 L 665.515 568.439 C 697.419 532.186 739.467 529.944 783.308 518.229 C 800.155 513.728 817.648 512.189 829.448 498.019 z"/>
<path transform="translate(0,0)" fill="rgb(29,28,38)" d="M 642.972 618.68 C 643.555 600.647 653.567 576.654 665.325 562.95 L 665.515 568.439 C 651.44 587.753 647.659 603.256 645.133 626.848 L 645.295 627.348 L 644.102 627.995 C 643.195 625.639 643.146 621.343 642.972 618.68 z"/>
<path transform="translate(0,0)" fill="rgb(255,255,255)" d="M 1410.48 1558.86 C 1413.27 1562.07 1420.12 1584.05 1421.82 1589.2 C 1418 1609.46 1414.39 1629.76 1411.02 1650.09 C 1399.2 1645.21 1388.04 1641.72 1375.84 1637.9 C 1370.06 1636 1357.72 1634.41 1362.85 1624.81 C 1376.17 1619.97 1404.43 1651.33 1407.45 1616.08 C 1409.09 1596.9 1409.84 1578.1 1410.48 1558.86 z"/>
<path transform="translate(0,0)" fill="rgb(255,255,255)" d="M 1179.14 1700.18 C 1184.72 1699.78 1191.14 1699.91 1196.8 1699.89 C 1184.12 1708.43 1177.89 1716.02 1167.93 1727.31 C 1157.69 1729.51 1151.55 1731.21 1141.76 1734.71 C 1137.13 1736.49 1131.44 1739.34 1126.85 1741.49 C 1127.97 1739.43 1129.17 1737.41 1130.43 1735.43 C 1142.55 1716.22 1157.08 1705.08 1179.14 1700.18 z"/>
<path transform="translate(0,0)" fill="rgb(255,255,255)" d="M 1127.5 1705.08 L 1130.08 1705.1 L 1130.81 1705.91 C 1128.39 1710.2 1117.65 1722.88 1113.44 1728.59 C 1105.33 1729.31 1100.99 1729.98 1093.04 1731.75 L 1090.44 1732.44 L 1089.77 1731.17 C 1095.88 1718.88 1114.15 1708.01 1127.5 1705.08 z"/>
<path transform="translate(0,0)" fill="rgb(218,217,194)" d="M 662.947 620.704 C 667.208 617.068 671.718 613.852 676.229 610.533 L 678.421 612.36 C 672.832 615.873 668.924 617.82 662.947 620.704 z"/>
</svg>