<svg version="1.1" xmlns="http://www.w3.org/2000/svg" style="display: block;" viewBox="0 0 1638 2048" width="1024" height="1280" preserveAspectRatio="none">
<path transform="translate(0,0)" fill="rgb(255,255,255)" d="M 0 0 L 1638 0 L 1638 2048 L 0 2048 L 0 0 z"/>
<path transform="translate(0,0)" fill="rgb(1,1,1)" d="M 823.188 160.251 C 828.203 162.009 846.425 173.835 851.428 176.982 C 903.945 210.018 961.137 255.649 1003.68 300.948 C 1131.48 437.237 1210.8 611.837 1229.39 797.742 C 1234.14 845.878 1233.45 890.18 1231.89 938.27 C 1247.76 947.227 1265.37 956.473 1280.55 966.261 C 1480.76 1095.34 1575.82 1345.81 1585.23 1575.9 C 1587.83 1639.55 1583.97 1701.06 1578.98 1764.86 C 1561.92 1778.21 1542.95 1788.4 1524.08 1798.91 C 1413.51 1860.46 1266.76 1892.41 1140.91 1876.38 C 1039.36 1863.47 943.54 1822.02 864.588 1756.84 C 851.1 1745.73 827.079 1724.22 816.529 1710.56 L 815.513 1709.67 C 812.89 1709.96 805.201 1717.78 802.944 1719.93 C 781.82 1740.01 759.19 1757.12 735.002 1773.44 C 683.778 1808.27 627.189 1834.47 567.488 1850.98 C 416.59 1891.7 269.434 1864.01 129.469 1799.65 C 103.852 1787.87 78.4824 1773.2 53.9851 1759.1 C 53.9266 1754.67 53.3122 1750.25 52.9528 1745.84 C 50.7415 1718.67 48.0019 1691.44 47.1764 1664.19 C 42.7168 1550.64 58.1948 1437.2 92.9078 1328.99 C 145.359 1166.97 252.207 1017.28 406.227 938.664 C 402.389 842.518 411.168 747.96 437.902 655.236 C 496.464 452.119 636.648 262.887 823.188 160.251 z"/>
<path transform="translate(0,0)" fill="rgb(255,255,255)" d="M 822.391 198.695 C 842.479 204.885 911.295 271.213 927.353 287.763 C 981.39 343.984 1027.28 407.506 1063.67 476.472 C 1136.62 610.736 1173.17 761.747 1169.71 914.51 C 1135.43 902.176 1109.67 895.387 1072.46 892.856 C 993.614 887.493 916.035 912.972 851.313 957.32 C 840.364 964.822 829.829 974.287 819.853 982.942 C 813.777 979.477 797.763 965.637 790.612 960.67 C 775.077 949.878 761.042 940.712 744.054 932.281 C 647.671 884.447 569.984 881.566 469.919 912.734 C 468.641 874.199 473.203 812.775 479.493 774.071 C 509.852 587.271 599.082 404.656 734.717 271.729 C 763.305 243.711 790.536 222.18 822.391 198.695 z"/>
<path transform="translate(0,0)" fill="rgb(1,1,1)" d="M 819.552 368.473 C 834.033 390.134 845.928 414.26 859.245 436.71 C 888.914 486.728 919.497 536.344 948.198 586.925 C 951.558 592.845 954.625 598.365 958.37 604.091 C 966.64 604.476 971.981 602.225 979.993 601.697 C 976.523 610.12 973.944 614.451 968.193 621.614 C 975.227 631.451 985.916 650.216 991.772 661.005 C 996.754 669.535 1002.79 680.698 1008.53 688.438 C 971.057 689.792 930.523 688.924 892.735 689.076 C 880.952 689.159 868.931 689.097 857.191 689.772 C 854.51 689.828 854.166 689.681 851.593 690.622 C 852.264 693.524 857.451 697.843 859.212 700.651 C 869.05 716.333 855.434 729.086 843.92 737.113 C 860.722 752.35 858.012 769.884 839.513 782.003 C 841.457 783.437 843.338 784.902 845.073 786.591 C 849.414 790.787 851.801 796.607 851.657 802.642 C 851.385 813.657 844.623 821.445 837.087 828.4 C 841.698 832.72 845.688 837.858 847.341 844.07 C 851.183 858.516 834.261 863.403 830.463 869.624 C 833.068 870.991 836.264 872.789 838.281 874.957 C 840.098 876.904 841.087 879.483 841.037 882.146 C 840.789 891.954 830.573 900.088 823.826 906.119 C 823.252 915.083 823.26 935.306 819.511 942.297 L 818.111 942.308 C 814.309 935.49 813.39 914.708 812.635 905.841 C 797.59 894.115 787.246 882.474 807.919 869.462 C 788.801 858.483 781.872 842.996 802.825 828.554 C 792.74 821.437 782.53 811.997 785.35 798.109 C 786.681 791.494 790.623 785.695 796.283 782.022 C 778.003 768.018 774.811 753.244 792.751 736.771 C 785.353 731.221 779.268 727.008 775.276 718.425 C 767.789 702.323 783.15 695.97 785.07 690.262 C 782.634 688.561 778.863 689.019 775.715 689.002 C 729.274 688.074 674.264 690.681 629.35 688.269 L 668.565 621.262 C 663.744 614.138 660.292 609.044 656.231 601.373 C 661.959 602.601 673.108 605.238 678.614 604.491 C 689.435 588.86 704.672 560.2 714.927 542.866 L 783.873 427.649 C 792.09 413.748 810.96 379.852 819.552 368.473 z"/>
<path transform="translate(0,0)" fill="rgb(201,67,70)" d="M 819.552 368.473 C 834.033 390.134 845.928 414.26 859.245 436.71 C 888.914 486.728 919.497 536.344 948.198 586.925 C 951.558 592.845 954.625 598.365 958.37 604.091 C 953.941 604.493 948.54 605.15 944.17 605.145 C 912.801 605.872 882.366 599.299 851.078 598.757 C 846.95 598.686 841.554 598.064 837.655 599.528 C 834.821 600.592 820.359 609.698 820.079 609.666 C 819.004 609.541 813.538 603.725 811.929 602.727 C 808.968 600.892 804.337 600.124 800.892 599.677 C 771.818 595.901 742.15 604.109 713.04 605.113 C 701.991 607.097 689.84 605.445 678.614 604.491 C 689.435 588.86 704.672 560.2 714.927 542.866 L 783.873 427.649 C 792.09 413.748 810.96 379.852 819.552 368.473 z"/>
<path transform="translate(0,0)" fill="rgb(105,25,28)" d="M 819.552 368.473 C 834.033 390.134 845.928 414.26 859.245 436.71 C 888.914 486.728 919.497 536.344 948.198 586.925 C 951.558 592.845 954.625 598.365 958.37 604.091 C 953.941 604.493 948.54 605.15 944.17 605.145 C 935.705 585.599 909.814 545.028 897.674 524.699 L 819.255 390.603 C 811.773 405.057 799.038 423.974 790.229 438.787 L 739.605 524.989 C 725.551 548.568 705.522 581.083 693.238 605.192 C 699.838 605.074 706.439 605.048 713.04 605.113 C 701.991 607.097 689.84 605.445 678.614 604.491 C 689.435 588.86 704.672 560.2 714.927 542.866 L 783.873 427.649 C 792.09 413.748 810.96 379.852 819.552 368.473 z"/>
<path transform="translate(0,0)" fill="rgb(105,25,28)" d="M 668.565 621.262 C 671.398 624.243 674.203 627.251 676.977 630.286 C 703.838 653.853 719.091 665.877 754.031 676.568 C 759.591 678.064 772.691 680.829 775.876 685.089 L 775.715 689.002 C 729.274 688.074 674.264 690.681 629.35 688.269 L 668.565 621.262 z"/>
<path transform="translate(0,0)" fill="rgb(201,67,70)" d="M 650.764 678.123 C 655.132 669.302 672.381 636.442 676.977 630.286 C 703.838 653.853 719.091 665.877 754.031 676.568 C 745.157 678.146 724.294 677.968 714.658 678.008 L 650.764 678.123 z"/>
<path transform="translate(0,0)" fill="rgb(201,67,70)" d="M 968.193 621.614 C 975.227 631.451 985.916 650.216 991.772 661.005 C 996.754 669.535 1002.79 680.698 1008.53 688.438 C 971.057 689.792 930.523 688.924 892.735 689.076 C 880.952 689.159 868.931 689.097 857.191 689.772 C 866.455 684.309 864.166 684.922 875.72 682.164 C 880.605 680.581 883.908 679.581 888.924 678.48 C 917.062 667.64 942.41 652.484 962.307 629.54 C 963.388 627.474 966.623 623.61 968.193 621.614 z"/>
<path transform="translate(0,0)" fill="rgb(122,31,34)" d="M 976.547 658.159 C 983.33 660.135 984.976 665.159 990.837 662.6 L 991.772 661.005 C 996.754 669.535 1002.79 680.698 1008.53 688.438 C 971.057 689.792 930.523 688.924 892.735 689.076 C 880.952 689.159 868.931 689.097 857.191 689.772 C 866.455 684.309 864.166 684.922 875.72 682.164 C 880.605 680.581 883.908 679.581 888.924 678.48 C 892.682 680.692 919.301 678.721 925.468 678.538 C 945.976 677.932 966.645 678.114 987.113 677.076 C 984.105 670.919 980.002 664.164 976.547 658.159 z"/>
<path transform="translate(0,0)" fill="rgb(105,25,28)" d="M 857.191 689.772 C 866.455 684.309 864.166 684.922 875.72 682.164 L 876.503 682.481 C 882.222 684.734 889.661 686.057 895.758 687.313 C 894.371 688.501 894.45 688.438 892.735 689.076 C 880.952 689.159 868.931 689.097 857.191 689.772 z"/>
<path transform="translate(0,0)" fill="rgb(105,25,28)" d="M 968.193 621.614 C 975.227 631.451 985.916 650.216 991.772 661.005 L 990.837 662.6 C 984.976 665.159 983.33 660.135 976.547 658.159 C 972.02 649.862 965.23 638.177 962.307 629.54 C 963.388 627.474 966.623 623.61 968.193 621.614 z"/>
<path transform="translate(0,0)" fill="rgb(255,255,255)" d="M 662.644 607.136 C 685.442 612.962 699.817 613.57 722.836 612.869 C 747.693 612.111 779.811 601.201 802.507 610.847 C 802.925 618.305 803.217 628.896 807.229 635.217 C 809.697 639.104 813.565 638.529 814.517 644.539 C 816.466 656.846 815.798 669.889 815.609 682.331 L 811.039 681.797 C 806.369 677.564 805.138 661.119 802.588 654.111 C 776.346 581.992 702.753 661.993 662.644 607.136 z"/>
<path transform="translate(0,0)" fill="rgb(255,255,255)" d="M 841.531 607.279 C 893.628 604.188 913.08 623.096 973.133 607.525 C 955.681 632.881 927.199 628.645 900.125 623.789 C 866.194 618.618 846.806 623.465 835.822 660.553 C 833.939 666.912 834.728 675.995 830.954 681.653 C 827.47 682.08 828.922 682.52 826.332 680.78 C 822.568 673.001 824.421 648.891 824.977 639.227 C 829.77 632.049 832.949 628.617 838.967 622.509 C 838.772 617.264 837.102 610.147 841.531 607.279 z"/>
<path transform="translate(0,0)" fill="rgb(255,255,255)" d="M 867.67 627.233 C 900.053 624.333 918.263 637.723 955.112 628.077 C 948.87 635.156 946.653 637.162 938.065 640.965 C 917.506 647.132 890.383 639.105 869.462 636.894 C 863.623 636.278 856.969 636.725 851.056 637.062 C 855.838 630.546 860.36 629.303 867.67 627.233 z"/>
<path transform="translate(0,0)" fill="rgb(255,255,255)" d="M 756.547 627.392 C 773.07 626.198 777.549 626.91 789.809 638.567 C 765.175 633.216 744.926 644.04 717.748 642.476 C 702.14 641.162 694.272 639.351 683.035 628.302 C 711.134 634.582 729.133 630.574 756.547 627.392 z"/>
<path transform="translate(0,0)" fill="rgb(255,255,255)" d="M 862.008 642.449 C 887.583 643.075 910.67 649.56 935.796 646.17 C 926.975 652.503 922.979 654.637 912.366 656.29 C 884.908 658.206 862.398 648.58 839.055 655.047 C 846.84 643.16 847.785 643.502 862.008 642.449 z"/>
<path transform="translate(0,0)" fill="rgb(255,255,255)" d="M 763.354 643.37 C 772.25 642.632 795.254 640.208 798.474 652.222 C 797.983 652.478 744.557 655.868 739.587 655.918 C 721.022 656.003 717.352 654.967 702.084 644.402 C 730.323 647.995 734.774 647.06 763.354 643.37 z"/>
<path transform="translate(0,0)" fill="rgb(255,255,255)" d="M 773.205 658.406 C 781.094 657.242 805.768 654.624 802.206 668.778 C 798.219 669.917 767.859 669.281 759.858 669.849 C 746.893 669.913 738.44 666.147 727.323 659.932 C 744.946 660.32 755.727 660.344 773.205 658.406 z"/>
<path transform="translate(0,0)" fill="rgb(255,255,255)" d="M 850.467 657.313 C 873.01 657.486 891.066 661.826 915.122 660.079 C 908.717 663.084 904.396 664.86 897.721 667.201 C 889.129 669.305 850.799 668.884 839.173 668.607 L 838.256 667.345 C 839.021 658.292 842.542 658.83 850.467 657.313 z"/>
<path transform="translate(0,0)" fill="rgb(255,255,255)" d="M 825.041 699.638 C 831.948 702.888 840.826 705.305 842.403 713.255 C 841.327 717.105 840.002 717.974 837.164 720.888 C 832.523 724.607 829.932 725.907 824.714 728.716 C 824.579 719.108 824.871 709.262 825.041 699.638 z"/>
<path transform="translate(0,0)" fill="rgb(255,255,255)" d="M 808.878 700.963 C 812.062 703.423 810.741 723.62 810.633 728.354 C 807.409 726.653 803.563 724.218 800.364 722.32 C 784.912 710.76 796.697 705.541 808.878 700.963 z"/>
<path transform="translate(0,0)" fill="rgb(255,255,255)" d="M 809.958 745.829 L 811.72 746.953 C 811.724 752.736 814.564 770.057 809.233 772.112 L 804.579 769.606 C 790.959 759.369 798.838 752.33 809.958 745.829 z"/>
<path transform="translate(0,0)" fill="rgb(255,255,255)" d="M 824.211 745.296 C 834.675 750.477 843.497 756.125 833.943 767.462 C 830.986 769.635 827.234 771.981 824.125 774.046 C 824.294 764.578 824.19 754.793 824.211 745.296 z"/>
<path transform="translate(0,0)" fill="rgb(255,255,255)" d="M 822.994 793.313 C 833.129 796.281 841.468 801.633 833.793 812.473 C 831.069 814.413 826.063 817.058 823.009 818.795 L 822.994 793.313 z"/>
<path transform="translate(0,0)" fill="rgb(201,67,70)" d="M 851.598 673.423 C 859.29 672.413 878.055 674.103 886.602 674.714 C 878.572 676.286 872.412 677.407 864.204 678.315 C 857.458 679.805 839.468 682.427 834.471 678.054 C 837.96 673.761 846.53 673.729 851.598 673.423 z"/>
<path transform="translate(0,0)" fill="rgb(255,255,255)" d="M 811.8 791.929 C 812.439 797.037 814.207 813.809 808.686 815.995 L 804.406 813.205 C 794.332 801.337 800.454 797.52 811.8 791.929 z"/>
<path transform="translate(0,0)" fill="rgb(201,67,70)" d="M 759.662 674.507 C 771.28 673.733 790.185 672.341 801.45 676.024 C 804.188 676.919 804.921 679.839 806.044 682.329 C 791.698 681.002 773.28 678.941 759.662 674.507 z"/>
<path transform="translate(0,0)" fill="rgb(255,255,255)" d="M 823.407 836.653 C 828.952 838.862 833.912 839.869 835.775 845.885 C 835.397 850.072 834.431 850.718 831.747 854.244 C 828.942 856.624 827.309 858.643 823.755 857.186 C 821.762 852.624 823.112 842.139 823.407 836.653 z"/>
<path transform="translate(0,0)" fill="rgb(255,255,255)" d="M 809.539 838.796 C 810.7 838.932 810.523 839.031 811.633 839.659 C 811.784 840.609 811.928 841.56 812.067 842.512 C 812.642 846.49 813.816 853.206 811.33 856.55 L 808.546 856.459 C 803.992 852.746 801.519 850.827 802.283 844.783 C 804.389 841.311 805.94 840.84 809.539 838.796 z"/>
<path transform="translate(0,0)" fill="rgb(255,255,255)" d="M 823.648 877.132 C 832.86 880.205 832.593 884.802 828.385 892.568 L 825.378 893.563 L 823.771 892.537 C 821.933 887.307 822.862 882.652 823.648 877.132 z"/>
<path transform="translate(0,0)" fill="rgb(255,255,255)" d="M 811.75 877.779 C 812.779 881.146 813.742 891.286 812.218 894.644 L 810.234 893.871 C 807.348 891.109 805.594 889.555 805.563 885.442 C 806.997 881.547 808.655 880.557 811.75 877.779 z"/>
<path transform="translate(0,0)" fill="rgb(255,255,255)" d="M 1218.76 1023.96 C 1272.49 1055.36 1316.62 1090.09 1357.55 1137 C 1498.63 1298.71 1562.78 1517.52 1552.56 1730.08 C 1551.63 1749.46 1546.53 1747.91 1529.87 1755.63 C 1521.25 1759.6 1512.23 1762.78 1503.54 1766.59 C 1404.25 1808.12 1306.33 1818.72 1199.92 1809.71 C 1089.27 1798.34 984.347 1754.92 898.016 1684.78 C 886.376 1675.25 874.566 1663.76 863.55 1653.35 C 924.159 1577.27 959.12 1483.55 969.332 1387.33 C 982.691 1382.06 997.68 1373.07 1009.55 1364.98 C 1127.74 1284.46 1191.98 1161.84 1218.76 1023.96 z"/>
<path transform="translate(0,0)" fill="rgb(1,1,1)" d="M 1273.48 1257.93 C 1279.53 1264.79 1305.47 1329.86 1310.94 1342.49 L 1402.37 1554.94 C 1416.1 1587.31 1430.24 1619.39 1443.24 1652.08 C 1416.27 1649.2 1388.93 1645.43 1361.77 1642.47 C 1322.06 1638.51 1282.39 1634.23 1242.76 1629.64 L 1048.25 1607.26 C 1073.79 1565.62 1104.45 1522.25 1131.12 1480.98 L 1273.48 1257.93 z"/>
<path transform="translate(0,0)" fill="rgb(6,98,79)" d="M 1271.12 1283.69 C 1279.71 1297.52 1290.5 1326.09 1297.07 1342.04 L 1327.86 1415.25 C 1340.28 1445.1 1354.91 1475.34 1367.74 1505.25 C 1386.5 1548.99 1404.33 1592.83 1423.44 1636.42 C 1403.36 1633.71 1380.24 1632.44 1359.73 1630.32 L 1239.76 1616.74 L 1069.38 1597.65 C 1123.79 1512.64 1182.73 1430.05 1234.27 1343.12 C 1246.17 1323.06 1259.6 1304.25 1271.12 1283.69 z"/>
<path transform="translate(0,0)" fill="rgb(1,1,1)" d="M 1247.54 1410.18 C 1294.41 1408.47 1291.41 1429.71 1288.19 1467.21 C 1316.15 1468.45 1340.45 1468.44 1335.86 1505.18 C 1331.19 1542.55 1310.42 1538.08 1282.09 1533.93 C 1282.35 1555.14 1286.07 1576.77 1262.15 1586.09 C 1215.85 1588.06 1216.33 1565.72 1222.03 1528.41 C 1191.93 1526.8 1170.26 1529.06 1173.67 1487.77 C 1176.52 1453.37 1198.34 1457.1 1225 1460.45 C 1224.77 1439.46 1221.99 1416.6 1247.54 1410.18 z"/>
<path transform="translate(0,0)" fill="rgb(255,255,255)" d="M 1246.54 1423.08 C 1247.17 1423.07 1247.79 1423.06 1248.42 1423.07 C 1289.83 1423.72 1277.23 1444.84 1274.08 1478.69 C 1283.83 1479.91 1294.07 1479.97 1303.75 1480.55 C 1321.15 1481.89 1323.48 1487.35 1323.59 1502.93 C 1323.8 1532.78 1294.13 1522.26 1272.23 1519.61 C 1270.53 1534.26 1273.57 1563.85 1262.42 1572.65 C 1218.97 1579.44 1232.71 1545.91 1233.24 1516.5 C 1221.5 1515.19 1196.8 1516.94 1188.9 1508.7 C 1182.67 1502.21 1183.83 1478.78 1192.02 1473.94 C 1201.81 1468.16 1224.55 1473.7 1235.9 1475.45 C 1236.77 1461.95 1236.02 1447.62 1238.19 1434.56 C 1239.21 1428.44 1241.62 1426.27 1246.54 1423.08 z"/>
<path transform="translate(0,0)" fill="rgb(255,255,255)" d="M 417.244 1024.76 C 418.401 1025.56 418.925 1025.44 419.185 1026.75 C 447.955 1171.34 534.345 1326.95 672.869 1391.97 C 677.097 1478.12 715.153 1581.49 764.528 1651.66 C 745.282 1670.38 719.397 1689.75 697.054 1704.52 C 616.085 1758.41 523.059 1791.48 426.239 1800.77 C 324.813 1810.63 239.981 1799.39 143.564 1765.95 C 129.757 1761.16 92.5343 1746.7 81.1071 1738.82 C 81.1147 1714.04 79.424 1689.46 80.1086 1664.58 C 86.9734 1415.01 194.531 1155.07 417.244 1024.76 z"/>
<path transform="translate(0,0)" fill="rgb(1,1,1)" d="M 368.388 1265.4 C 373.869 1268.25 489.592 1457.75 502.425 1478.03 L 551.855 1556.34 C 561.198 1570.95 579.21 1597.66 585.756 1612.78 C 520.838 1619.08 454.832 1627.51 389.764 1634.26 C 370.972 1636.94 345.324 1638.85 325.84 1640.83 C 282.28 1645.25 234.561 1652.24 191.264 1655.17 C 202.909 1629.69 213.863 1604.07 224.848 1578.3 C 269.95 1472.49 319.171 1369.3 368.388 1265.4 z"/>
<path transform="translate(0,0)" fill="rgb(201,67,70)" d="M 370.673 1286.85 C 372.16 1288.65 385.877 1312.71 388.44 1316.88 L 439.876 1400.13 L 523.524 1533.43 C 538.676 1557.44 553.002 1578.31 567.049 1603.26 C 508.377 1608.82 450.205 1616.35 392.24 1621.8 L 211.851 1641.11 C 227.425 1600.45 244.695 1563.45 262.189 1523.71 C 296.955 1444.12 333.122 1365.16 370.673 1286.85 z"/>
<path transform="translate(0,0)" fill="rgb(1,1,1)" d="M 375.913 1380 C 418.352 1397.81 431.22 1443.32 421.352 1485.43 C 431.621 1489.23 443.75 1494.05 452.417 1500.99 C 470.967 1515.87 486.716 1539.86 490.152 1563.64 C 493.124 1584.21 478.281 1596.81 459.045 1598.21 C 427.876 1600.48 403.244 1588.93 379.981 1569.13 L 377.691 1567.55 C 374.076 1567.52 366.378 1576.52 363.073 1579.13 C 301.411 1627.69 234.371 1584.11 290.684 1513.72 C 302.216 1499.31 315.644 1492.39 332.598 1485.44 C 328.497 1467.45 328.884 1448.72 333.723 1430.91 C 340.587 1405.56 354.154 1392.54 375.913 1380 z"/>
<path transform="translate(0,0)" fill="rgb(255,255,255)" d="M 401.189 1534.45 C 423.71 1544.71 459.669 1563.67 477.651 1581.04 C 472.288 1582.73 469.764 1583.11 464.25 1583.97 C 432.431 1586.73 410.758 1576.64 387.102 1555.87 C 393.805 1548.78 396.663 1542.92 401.189 1534.45 z"/>
<path transform="translate(0,0)" fill="rgb(255,255,255)" d="M 350.132 1534.91 C 352.431 1536.14 364.959 1555.76 365.059 1557.76 C 364.371 1559.09 363.33 1561.03 362.167 1561.97 C 343.783 1576.93 326.157 1585.97 302.7 1585.88 C 296.808 1585.1 287.82 1583.7 284.548 1578.4 C 289.667 1570.57 339.156 1541.01 350.132 1534.91 z"/>
<path transform="translate(0,0)" fill="rgb(255,255,255)" d="M 373.898 1393.02 C 375.63 1395.08 372.333 1470.49 372.093 1478.23 C 363.439 1478.78 354.812 1479.68 346.231 1480.92 C 338.822 1450.91 347.899 1411.57 373.898 1393.02 z"/>
<path transform="translate(0,0)" fill="rgb(255,255,255)" d="M 416.96 1498.69 C 447.545 1511.67 472.881 1532.29 478.336 1566.64 C 478.791 1569.51 479.113 1570.99 477.421 1573.2 L 474.966 1571.31 C 450.319 1549.9 434.987 1540.19 407.824 1522.86 C 410.329 1514.89 413.829 1506.48 416.96 1498.69 z"/>
<path transform="translate(0,0)" fill="rgb(255,255,255)" d="M 379.952 1393.47 C 406.656 1409.22 415.202 1450.3 408.511 1478.7 L 408.156 1479.35 C 405.289 1480.76 388.586 1478.27 384.189 1477.78 C 383.311 1449.15 382.381 1422.03 379.952 1393.47 z"/>
<path transform="translate(0,0)" fill="rgb(255,255,255)" d="M 335.57 1500.98 C 336.895 1502.42 345.395 1520.98 347.021 1524.1 C 325.892 1536.17 306.189 1552.71 287.537 1568.2 C 284.477 1570.81 285.1 1571.17 281.955 1571.32 L 280.934 1569.35 C 280.667 1563.69 282.95 1555.92 285.092 1550.68 C 295.756 1524.6 310.907 1512.03 335.57 1500.98 z"/>
<path transform="translate(0,0)" fill="rgb(255,255,255)" d="M 361.577 1494.29 L 370.924 1493.53 L 370.784 1513.4 L 361.458 1517.36 C 360.838 1517.51 360.523 1517.12 359.658 1516.68 C 356.858 1511.08 352.74 1502.82 352.144 1496.63 C 354.34 1495.12 358.764 1494.75 361.577 1494.29 z"/>
<path transform="translate(0,0)" fill="rgb(255,255,255)" d="M 385.764 1493.22 C 391.49 1493.7 396.288 1494.53 401.958 1495.49 L 395.081 1511.56 L 393.208 1514.28 C 381.373 1517.04 385.242 1500.86 385.764 1493.22 z"/>
<path transform="translate(0,0)" fill="rgb(255,255,255)" d="M 375.088 1527.22 C 377.718 1527.83 383.289 1528.33 386.191 1528.68 C 383.536 1533.36 379.994 1538.77 377.117 1543.42 L 375.563 1543.44 C 372.173 1538.82 370.411 1536.45 367.739 1531.41 C 368.912 1529.26 372.33 1528.41 375.088 1527.22 z"/>
<path transform="translate(0,0)" fill="rgb(255,255,255)" d="M 818.079 178.229 C 819.191 179.736 818.79 181.277 818.863 183.592 C 816.412 189.693 800.19 198.056 794.342 202.837 C 769.622 223.043 744.992 242.443 722.421 265.122 C 585.614 403.795 495.94 582.022 466.12 774.525 C 458.324 827.272 456.806 878.456 456.966 931.621 C 500.282 916.049 535.984 906.134 582.88 905.811 C 675.987 905.171 764.493 947.59 830.445 1011.82 C 917.51 1096.61 959.118 1218.83 958.936 1339.42 C 958.339 1473.08 904.72 1601.04 809.853 1695.21 C 706.939 1798.34 567.385 1856.54 421.689 1857.09 C 317.823 1856.46 205.411 1823.27 113.25 1776.35 C 106.121 1772.72 74.5833 1756.62 70.0109 1751.99 C 83.178 1753.27 100.023 1763.99 114.277 1769.46 C 138.201 1778.52 162.456 1786.68 186.99 1793.92 C 349.524 1840.13 523.8 1819.27 670.831 1735.99 C 885.961 1616.06 992.324 1361.3 866.897 1137.13 C 832.297 1073.74 764.949 1013.81 697.672 987.335 C 622.931 958.543 539.908 960.031 466.248 991.484 C 470.119 1012.14 474.899 1032.61 480.575 1052.84 C 509.717 1155.53 577.139 1259.89 672.058 1312.81 C 671.366 1335.27 671.196 1354.67 671.791 1377.04 C 662.887 1372.53 654.22 1367.56 645.823 1362.17 C 540.963 1294.93 476.709 1188.89 442.48 1071.01 C 436.319 1049.79 432.75 1026.99 428.031 1005.36 C 379.837 1027.24 323.12 1070.82 286.065 1108.79 C 185.206 1212.13 118.658 1348.82 88.9819 1489.45 C 81.8037 1523.47 75.375 1556.02 72.0317 1590.69 C 68.838 1624.94 67.4636 1659.35 67.9145 1693.75 C 68.011 1703 71.2476 1742.79 66.6578 1747.32 C 63.4605 1739.41 61.346 1699.26 60.6589 1688.8 C 51.4536 1557.93 70.2283 1426.59 115.734 1303.53 C 171.599 1156.97 272.662 1015.22 419.107 949.415 C 416.181 850.307 419.563 786.531 443.174 687.991 C 495.339 474.957 630.263 291.5 818.079 178.229 z"/>
<path transform="translate(0,0)" fill="rgb(201,67,70)" d="M 825.207 177.223 C 835.312 182.192 845.028 188.881 854.601 194.896 C 926.568 240.115 991.83 300.793 1043.84 367.69 C 1137.95 488.543 1197.14 632.88 1214.97 785.014 C 1218.7 819.658 1220.65 854.47 1220.84 889.313 C 1220.77 905.411 1218.52 932.869 1219.67 947.483 L 1219.76 948.612 C 1313.59 992.962 1385.73 1061.26 1441.63 1148.11 C 1519.97 1272.45 1565 1414.86 1572.38 1561.63 C 1573.51 1582.84 1574.4 1741.84 1567.03 1750.06 L 1565.51 1749.74 C 1561.86 1743.82 1564.98 1704.2 1565.19 1694.25 C 1570.19 1459.28 1469.56 1182.1 1273.32 1042.8 C 1252.88 1028.63 1231.45 1015.94 1209.2 1004.83 C 1201.22 1057.05 1186.2 1107.96 1164.55 1156.15 C 1153.78 1179.97 1136.82 1211.29 1122.54 1233.03 C 1094.04 1276.41 1019.89 1353.6 970.67 1372.23 C 971.154 1350.21 971.479 1329.32 970.296 1307.27 C 981.999 1302.17 988.997 1297.17 999.119 1289.78 C 1093.45 1220.88 1155.47 1104.23 1172.51 989.636 C 1157.37 985.314 1142.8 980.146 1127.27 976.027 C 1052.57 956.216 980.93 964.44 910.924 996.493 C 894.065 1004.21 876.776 1014.8 860.701 1024.27 C 850.679 1013.37 839.858 1001.36 828.266 992.169 C 896.809 934.928 974.487 902.224 1065.04 905.748 C 1108.52 907.439 1142.31 917.776 1182.15 934.599 C 1183.31 920.045 1182.15 902.834 1182.15 888.051 C 1182.17 847.825 1179.93 809.65 1173.93 769.877 C 1145.53 571.8 1051.81 388.875 907.637 250.114 C 883.085 226.573 855.518 205.286 827.708 185.661 C 825.589 184.166 825.558 179.714 825.207 177.223 z"/>
<path transform="translate(0,0)" fill="rgb(255,255,255)" d="M 567.673 981.415 C 573.718 980.455 592.859 980.432 599.49 980.629 C 664.778 982.565 713.461 1005.34 766.36 1040.84 C 757.632 1057.03 742.935 1075.89 732.63 1094.48 C 698.38 1156.29 680.181 1218.03 673.789 1288.24 C 673.361 1291.76 673.728 1293.44 671.832 1296.03 C 667.934 1294.38 661.706 1289.88 658.009 1287.43 C 561.307 1223.16 502.744 1111.72 480.841 999.637 C 515.058 989.391 532.685 984.687 567.673 981.415 z"/>
<path transform="translate(0,0)" fill="rgb(255,255,255)" d="M 1025.96 979.412 C 1066.07 974.267 1120.85 986.926 1158.6 999.11 C 1137.63 1108.42 1081.27 1212.52 990.369 1278.87 C 983.042 1284.03 977.143 1288.04 969.436 1292.69 C 962.7 1206.23 927.603 1099.74 868.746 1034.71 C 921.603 1003.02 963.364 984.679 1025.96 979.412 z"/>
<path transform="translate(0,0)" fill="rgb(20,148,118)" d="M 854.422 1663.69 C 1011.71 1812.52 1236.95 1865.09 1443.87 1801.29 C 1482.05 1789.36 1518.19 1773.96 1555.02 1758.74 C 1557.18 1757.84 1562.93 1759 1565.44 1759.45 C 1563.06 1763.22 1528.51 1782.35 1522.48 1785.83 C 1435.59 1836.48 1312 1867.4 1212.31 1867.25 C 1084.39 1867.2 960.759 1821.19 863.942 1737.59 C 849.764 1725.5 836.66 1712.08 823.512 1698.88 C 834.082 1687.71 844.961 1675.8 854.422 1663.69 z"/>
<path transform="translate(0,0)" fill="rgb(255,255,255)" d="M 819.647 1092.86 C 825.005 1098.45 836.761 1114.79 841.518 1121.58 C 885.259 1183.96 901.967 1244.55 908.062 1318.9 C 883.151 1327.81 849.583 1332.96 823.219 1333.28 C 788.387 1333.61 767.036 1330.6 733.143 1321.41 C 739.779 1240.18 765.911 1155.54 819.647 1092.86 z"/>
<path transform="translate(0,0)" fill="rgb(20,148,118)" d="M 775.788 1050.64 C 786.138 1058.06 801.556 1072.83 810.121 1082.22 C 803.5 1088.64 793.719 1103.75 788.623 1111.74 C 757.921 1159.5 736.865 1212.82 726.641 1268.67 C 705.043 1390.09 735.51 1506.24 805.497 1606.77 C 800.874 1612.86 793.999 1620.37 788.889 1626.29 L 773.695 1642.94 C 766.821 1633.9 760.415 1622.51 754.8 1612.72 C 699.426 1516.1 676.537 1413.37 684.996 1302.47 C 692.382 1205.64 719.854 1130.46 775.788 1050.64 z"/>
<path transform="translate(0,0)" fill="rgb(255,255,255)" d="M 899.683 1408.21 C 899.861 1408.76 900.15 1409.51 900.062 1410.07 C 889.883 1473.88 854.543 1547.42 814.467 1596.58 C 803.774 1581.05 793.196 1562.27 784.471 1545.65 C 759.307 1498.29 748.104 1463.03 738.311 1410.58 C 788.692 1422.84 849.673 1421.47 899.683 1408.21 z"/>
<path transform="translate(0,0)" fill="rgb(201,67,70)" d="M 906.739 1331.01 L 907.972 1332.93 C 909.01 1348.9 906.457 1379.51 902.403 1394.69 C 846.224 1407.43 799.497 1409.7 742.433 1398.23 C 738.32 1397.4 737.257 1397.54 735.415 1394.77 C 732.166 1376.4 731.835 1353.09 731.91 1334.58 C 783.617 1350.95 856.145 1352.18 906.739 1331.01 z"/>
</svg>