<svg version="1.1" xmlns="http://www.w3.org/2000/svg" style="display: block;" viewBox="0 0 1229 2048" width="1024" height="1707" preserveAspectRatio="none">
<path transform="translate(0,0)" fill="rgb(255,255,255)" d="M 0 0 L 1229 0 L 1229 2048 L 0 2048 L 0 0 z"/>
<path transform="translate(0,0)" fill="rgb(33,38,46)" d="M 612.832 85.6354 C 616.383 88.3629 644.287 140.657 649.49 150.087 L 739.096 310.751 C 776.065 377.579 813.397 444.205 851.091 510.627 C 877.81 557.183 903.577 604.279 928.374 651.887 C 968.716 732.86 1005.17 815.713 1037.61 900.163 C 1107.63 1083.27 1173.27 1301.56 1135.17 1498.84 C 1112.93 1611.25 1058.32 1714.72 978.066 1796.51 C 882.384 1894.32 751.653 1949.95 614.828 1951.07 C 533.132 1950.98 452.678 1931.06 380.378 1893.02 C 250.221 1823.61 152.728 1705.62 109.096 1564.7 C 94.223 1516.95 84.9516 1467.63 81.4685 1417.73 C 66.7621 1179.87 182.264 895.432 287.251 685.039 C 321.075 618.107 356.234 551.858 392.708 486.332 L 512.863 268.199 C 547.124 207.862 580.451 147.001 612.832 85.6354 z"/>
<path transform="translate(0,0)" fill="rgb(255,255,255)" d="M 613.363 135.663 C 617.552 139.998 650.04 199.592 655.404 209.302 L 731.48 345.335 L 815.655 495.363 C 840.298 538.661 869.129 586.966 891.68 631.805 C 1002.56 856.941 1118.93 1119.56 1123.08 1374.3 C 1127.76 1661.36 908.455 1924.16 612.564 1925 C 529.534 1925.98 442.729 1899.62 370.86 1858.44 C 246.802 1787.37 160.381 1663.16 123.104 1526.48 C 67.1326 1321.25 139.473 1084.97 217.247 894.363 C 236.588 845.599 257.538 797.49 280.063 750.114 C 328.999 647.891 389.202 539.13 444.394 439.618 L 551.455 247.494 C 571.77 210.04 592.407 172.762 613.363 135.663 z"/>
<path transform="translate(0,0)" fill="rgb(33,38,46)" d="M 612.896 635.623 C 615.639 637.01 628.976 656.764 631.839 660.875 C 647.677 683.263 663.025 705.994 677.874 729.05 C 789.271 901.365 886.153 1122.24 891.929 1329.38 C 895.933 1464.28 863.524 1609.7 769.804 1711.36 C 724.253 1760.77 681.594 1777.89 616.061 1779.88 C 568.833 1780.65 527.839 1771.02 489.979 1742.08 C 409.369 1680.44 357.497 1555.34 342.655 1457.5 C 308.16 1230.08 397.609 991.47 508.838 797.232 C 540.528 741.491 575.267 687.539 612.896 635.623 z"/>
<path transform="translate(0,0)" fill="rgb(255,255,255)" d="M 613.355 655.576 C 615.623 657.583 620.75 664.494 622.601 667.146 C 757.482 860.351 875.268 1096.69 881.307 1336.52 C 882.017 1364.74 880.955 1405.04 876.475 1432.34 C 866.965 1419.29 855.011 1403.41 844.916 1391.11 C 838.874 1389.77 829.614 1388.6 823.274 1387.61 C 818.812 1378.23 807.767 1362.55 801.601 1353.33 C 790.631 1337 779.814 1320.57 769.15 1304.04 C 760.104 1321.44 749.695 1348.86 742.185 1367.24 C 737.072 1359.97 726.403 1348.57 722.556 1341.4 C 716.114 1329.41 710.128 1312.55 705.176 1299.64 C 695.748 1275.46 686.677 1251.14 677.966 1226.7 C 664.258 1221.52 649.336 1216.45 636.081 1210.5 L 615.038 1164.22 C 610.74 1154.28 606.115 1144.25 601.671 1134.36 C 591.428 1150.63 551.153 1219.59 541.053 1228.01 C 531.668 1235.83 517.281 1240.84 506.205 1246.05 C 492.788 1273.31 479.097 1300.44 465.134 1327.42 C 456.832 1316.76 448.409 1305.1 440.27 1294.23 C 427.461 1322.72 413.698 1353.23 399.796 1381.07 L 392.619 1369.83 C 378.601 1388.24 364.202 1406.37 349.433 1424.18 C 348.523 1414.58 347.746 1404.97 347.103 1395.35 C 345.841 1375.32 345.538 1354.77 346.378 1334.64 C 356.226 1098.45 462.463 878.008 592.008 684.798 C 598.271 675.457 606.062 663.855 613.355 655.576 z"/>
<path transform="translate(0,0)" fill="rgb(255,255,255)" d="M 606.887 1304.65 C 610.589 1306.67 648.44 1381.32 653.938 1392.08 C 688.867 1414.3 713.559 1432.29 745.235 1459.49 C 757.054 1459.67 774.031 1461.33 786.008 1462.25 C 791.913 1468.32 798.49 1477.53 803.901 1484.14 C 820.114 1503.95 834.849 1525.94 851.504 1545.18 C 825.571 1628.73 757.689 1740.16 668.145 1762.99 C 656.008 1754.5 639.213 1743.13 630.334 1731.41 C 628.24 1719.06 632.098 1706.33 629.542 1694.49 C 625.573 1676.11 589.928 1654.28 578.282 1637.83 C 570.186 1626.4 595.671 1608.84 597.455 1596.81 C 599.633 1582.12 520.087 1569.91 511.617 1559.19 C 514.255 1545.16 582.87 1523.61 547.891 1489.39 C 536.493 1481.52 516.047 1475.94 511.511 1469.45 C 509.771 1456.55 530.185 1451.42 535.178 1439.31 C 541.259 1424.56 522.998 1424.49 519.205 1413.22 C 516.127 1404.08 520.94 1394.74 524.36 1386.61 C 517.802 1394.7 510.902 1406.15 513.771 1416.95 C 515.427 1423.19 522.321 1429.15 522.496 1434.56 C 517.197 1446.88 484.969 1450.33 482.949 1469.45 C 480.9 1488.84 505.552 1492.1 513.7 1502.77 C 512.477 1507.4 492.236 1518.88 487.135 1522.87 C 465.626 1540.29 441.458 1557.39 422.451 1577.61 C 386.538 1615.82 507.279 1604.52 450.609 1651.88 C 446.104 1655.64 439.905 1663.11 436.358 1667.69 C 404.887 1621.38 372.02 1549.27 361.284 1493.75 C 379.985 1483.83 398.567 1473.7 417.028 1463.35 C 421.339 1460.94 439.009 1451.37 441.913 1448.54 C 453.738 1436.99 466.419 1418.02 476.153 1404.42 C 485.509 1391.24 495.126 1378.24 504.998 1365.43 C 519.648 1360.78 546.893 1355.23 562.721 1351.23 L 606.887 1304.65 z"/>
<path transform="translate(0,0)" fill="rgb(33,38,46)" d="M 610.904 1329.68 C 616.235 1337.53 637.818 1395.94 642.114 1407.93 C 655.296 1410.85 667.498 1413.31 680.412 1417.39 C 694.516 1438.75 709.431 1459.61 723.479 1481.29 C 714.905 1477 679.282 1438.01 671.044 1428.59 C 659.366 1425.08 642.9 1421.72 630.862 1419.15 C 625.488 1392.9 614.064 1354.97 610.904 1329.68 z"/>
<path transform="translate(0,0)" fill="rgb(255,255,255)" d="M 599.51 1171.74 C 603.199 1175.28 620.299 1217.92 622.975 1224.48 C 632.54 1228.95 653.953 1236.2 664.823 1240.28 C 672.386 1262.08 681.961 1284.84 690.155 1306.47 C 692.79 1313.43 703.498 1342.94 706.782 1347.72 C 718.976 1365.47 733.421 1383.85 746.055 1401.85 C 754.611 1381.39 763.943 1359.99 771.597 1339.28 C 774.84 1346.11 783.133 1358.08 787.504 1364.91 C 795.465 1377.21 803.014 1389.78 810.139 1402.58 C 817.498 1403.75 827.014 1406.02 834.475 1407.57 C 839.121 1415.29 873.405 1455.18 873.144 1459.25 C 872.982 1461.78 872.875 1462.66 871.04 1464.38 C 868.087 1462.9 865.41 1456.91 863.02 1453.35 C 854.706 1440.84 845.799 1428.75 836.33 1417.09 C 827.013 1417.11 816.98 1417.57 807.609 1417.83 C 797.205 1396.56 786.355 1375.52 775.065 1354.71 C 781.12 1376.5 792.302 1406.01 799.683 1428.17 L 828.249 1428.45 C 841.834 1445.51 855.599 1462.42 869.54 1479.19 C 866.134 1495.09 862.419 1509.41 858.231 1525.1 C 839.252 1503.74 814.063 1469.06 796.305 1445.81 C 781.649 1444.28 766.22 1443.6 751.464 1442.71 C 746.77 1438.58 741.373 1434.26 736.531 1430.22 C 718.147 1415.16 687.153 1392.58 666.703 1380.26 C 650.525 1347.41 628.895 1308.51 611.436 1275.89 C 598.24 1290.24 567.136 1325.56 551.761 1335.54 C 547.346 1338.41 505.009 1347.7 496.289 1349.72 C 479.751 1368.26 465.619 1392.47 449.875 1412.1 C 438.815 1425.9 435.777 1434.38 419 1442.97 C 398.349 1453.54 378.112 1466.23 357.123 1476.22 C 355.277 1466.61 353.776 1456.95 352.624 1447.24 C 364.272 1432.89 380.707 1413.76 390.979 1398.98 C 395.554 1405.1 400.185 1411.17 404.873 1417.2 C 416.871 1386.1 429.805 1358.12 443.615 1327.73 C 451.883 1336.92 458.89 1349.61 467.886 1359.78 C 472.413 1352.23 479.516 1336.33 483.794 1327.72 C 495.109 1304.55 506.851 1281.59 519.014 1258.85 C 524.825 1255.92 551.351 1242.92 553.884 1239.68 C 568.473 1221.03 586.11 1191.58 599.51 1171.74 z"/>
<path transform="translate(0,0)" fill="rgb(33,38,46)" d="M 599.333 1190.8 C 602.449 1195.29 614.675 1226.87 617.931 1234.38 C 629.78 1237.53 641.569 1240.89 653.293 1244.47 C 659.162 1256.05 665.028 1271.22 670.021 1283.35 C 678.65 1303.87 686.851 1324.57 694.62 1345.43 C 688.349 1341.22 649.736 1268.07 643.97 1255.48 C 632.95 1251.45 622.898 1248.55 611.667 1245.31 C 608.647 1227.32 602.12 1208.99 599.333 1190.8 z"/>
<path transform="translate(0,0)" fill="rgb(33,38,46)" d="M 1064.83 1381.73 L 1083.2 1381.85 C 1082.58 1503.23 1040.81 1620.8 964.703 1715.35 C 806.166 1909.11 523.255 1942.9 329.583 1780.8 C 218.185 1687.56 159.117 1567.59 145.178 1424.25 C 144.21 1411.54 143.53 1398.81 143.138 1386.07 L 162.145 1385.94 C 163.11 1505.8 206.822 1621.38 285.416 1711.88 C 366.612 1803.51 470.342 1857.5 592.891 1864 C 707.43 1870.07 818.617 1826.22 903.757 1750.88 C 991.043 1673.63 1043.82 1562.42 1059.47 1448.01 C 1062.57 1425.39 1063.46 1404.4 1064.83 1381.73 z"/>
<path transform="translate(0,0)" fill="rgb(33,38,46)" d="M 309.755 798.27 C 312.687 797.981 315.637 797.952 318.574 798.181 C 339.037 799.949 363.888 821.651 375.823 838.203 C 390.176 858.106 404.237 861.85 414.727 835.385 C 416.752 830.278 416.04 823.631 415.857 817.964 C 428.532 835.431 433.716 855.996 414.975 871.47 C 407.615 877.547 396.272 876.077 387.489 874.919 L 386.391 876.199 C 385.809 883.27 384.376 889.755 380.912 896.029 C 376.231 904.62 368.258 910.938 358.825 913.532 C 340.89 918.43 321.792 910.977 306.061 902.158 C 274.911 884.696 257.308 854.044 277.445 820.292 C 284.985 807.655 295.58 801.718 309.755 798.27 z"/>
<path transform="translate(0,0)" fill="rgb(255,255,255)" d="M 309.366 821.253 C 327.949 820.208 348.587 839.143 363.175 850.455 L 349.063 850.192 L 342.002 867.738 C 352.088 868.056 362.798 868.87 372.921 869.47 C 371.666 877.703 370.877 880.218 365.747 886.762 C 349.572 898.212 332.743 887.521 317.091 880.584 C 290.139 868.639 267.928 831.812 309.366 821.253 z"/>
<path transform="translate(0,0)" fill="rgb(33,38,46)" d="M 247.158 893.534 C 254.996 897.529 267.03 901.592 275.758 905.637 C 302.231 917.773 328.297 930.778 353.914 944.63 L 344.866 966.966 C 318.514 967.407 292.156 967.425 265.803 967.02 C 284.893 976.074 310.38 990.789 328.738 1001.67 C 326.951 1006.69 323.37 1018.23 320.322 1021.59 L 317.57 1021.07 C 307.403 1016.7 297.009 1010.39 287.129 1005.23 C 264.534 993.414 241.213 979.73 218.066 969.168 C 220.726 960.681 224.608 951.086 227.795 942.665 C 255.154 943.878 280.423 945.965 308.062 946.156 C 291.918 936.434 259.458 923.899 240.084 913.435 C 242.934 906.422 244.858 900.753 247.158 893.534 z"/>
<path transform="translate(0,0)" fill="rgb(33,38,46)" d="M 286.697 1241.36 C 290.065 1240.89 289.409 1240.42 291.483 1241.88 C 293.192 1247.57 291.525 1258.59 290.917 1264.93 C 283.795 1266.16 275.203 1267.09 267.935 1268.06 L 267.543 1293.3 C 276.172 1295 283.67 1296.78 292.193 1298.96 L 292.043 1321.14 C 262.416 1313.8 235.154 1307.33 205.521 1299.3 C 188.222 1294.25 169.973 1289.2 152.999 1283.4 L 153.497 1260.55 C 195.372 1255.75 244.513 1247.53 286.697 1241.36 z"/>
<path transform="translate(0,0)" fill="rgb(255,255,255)" d="M 244.812 1270.48 C 246.793 1272.05 245.831 1284.9 245.767 1287.97 L 211.772 1280.07 L 197.33 1276.38 C 210.949 1273.79 230.593 1272.08 244.812 1270.48 z"/>
<path transform="translate(0,0)" fill="rgb(33,38,46)" d="M 204.828 1087.21 C 242.624 1085.8 258.982 1101.99 254.89 1139.56 C 269.013 1140.91 283.129 1142.35 297.238 1143.85 C 297.118 1151.89 296.493 1160.2 296.003 1168.25 C 287.441 1166.76 276.303 1165.71 267.5 1164.64 C 259.739 1163.02 241.902 1161.38 233.58 1160.38 C 212.238 1157.86 190.912 1155.22 169.603 1152.44 C 173.237 1123.48 171.36 1095.11 204.828 1087.21 z"/>
<path transform="translate(0,0)" fill="rgb(255,255,255)" d="M 204.584 1110.2 C 222.048 1109.82 239.154 1114.64 233.824 1136.43 C 231.077 1137.43 226.142 1136.31 222.954 1135.84 C 213.103 1134.7 203.28 1133.32 193.493 1131.72 C 194.733 1120.33 194.124 1116.64 204.584 1110.2 z"/>
<path transform="translate(0,0)" fill="rgb(33,38,46)" d="M 343.92 687.959 C 361.825 700.648 380.619 712.276 398.629 724.699 C 413.003 734.689 428.107 745.38 431.087 763.892 C 434.7 786.492 423.832 813.259 399.041 817.197 C 383.05 820.054 371.859 810.033 359.785 801.214 C 344.728 790.215 329.55 778.96 314.465 767.815 C 306.346 762.119 309.643 759.269 313.574 751.799 C 315.103 748.894 316.774 745.86 318.333 742.956 C 335.533 755.522 379.743 790.942 396.814 796.616 C 425.583 788.165 418.551 765.544 398.328 752.734 C 392.203 748.854 385.383 744.008 379.298 739.911 L 333.069 708.614 C 336.804 701.792 340.422 694.906 343.92 687.959 z"/>
<path transform="translate(0,0)" fill="rgb(33,38,46)" d="M 210.516 986.589 C 216.713 989.159 222.887 991.781 229.038 994.456 C 225.382 1008.78 219.172 1026.03 214.41 1040.35 C 223.641 1043.96 232.955 1047.35 242.346 1050.52 C 246.696 1038.99 250.491 1027.27 253.717 1015.37 C 260.483 1017.41 265.906 1019.49 272.473 1022.04 C 268.697 1033.94 264.826 1045.59 261.202 1057.57 C 270.75 1061.43 282.744 1065.34 292.603 1068.86 C 296.37 1057.82 302.571 1034 307.077 1024.86 C 309.859 1023.6 310.082 1024.25 313.511 1024.92 L 325.69 1029.29 C 318.737 1048.1 310.958 1077.89 304.879 1097.91 C 264.976 1084.49 227.769 1070.42 188.372 1055.6 C 194.755 1033.83 202.863 1007.88 210.516 986.589 z"/>
<path transform="translate(0,0)" fill="rgb(33,38,46)" d="M 632.769 432.358 C 636.853 434.848 641.622 438.297 645.64 441.041 C 637.767 461.348 627.696 482.221 618.901 502.396 C 631.184 485.479 647.257 467.692 661.791 452.469 L 671.651 459.407 C 663.629 479.696 654.265 499.587 645.222 519.461 C 654.457 509.541 678.601 479.8 686.386 468.824 C 690.406 471.124 694.922 474.178 698.875 476.707 C 688.742 489.38 676.723 502.43 666.12 515.172 C 651.12 532.31 637.678 548.064 623.204 565.685 L 612.873 558.579 C 620.755 537.01 630.658 515.988 640.236 495.108 C 623.44 513.826 612.998 528.374 598.262 548.513 C 593.41 545.513 589.403 543.214 585.095 539.401 L 610.231 482.925 C 617.646 466.625 626.353 448.871 632.769 432.358 z"/>
<path transform="translate(0,0)" fill="rgb(33,38,46)" d="M 903.931 770.758 C 906.585 773.004 910.728 780.6 912.741 783.947 C 898.82 798.337 878.677 815.669 863.601 829.704 C 881.946 819.025 902.116 809.537 921.033 798.588 L 928.871 811.527 C 920.474 818.966 912.312 827.245 903.791 834.735 C 895.355 842.149 886.361 849.435 878.294 857.161 C 892.105 847.824 921.44 832.809 937.008 825.855 C 938.892 830.434 942.612 837.352 944.908 841.967 C 934.419 844.916 923.459 849.537 913.616 854.204 C 898.232 861.439 864.967 877.344 851.689 886.312 L 844.062 871.89 C 858.288 856.469 879.343 840.229 895.363 825.969 C 876.837 836.207 856.266 846.278 837.374 856.272 L 829.948 843.913 C 832.844 840.517 836.195 837.486 839.355 834.338 C 860.752 813.02 883.116 792.654 903.931 770.758 z"/>
<path transform="translate(0,0)" fill="rgb(33,38,46)" d="M 392.278 609.465 L 406.663 621.093 C 399.085 632.337 389.594 650.137 382.653 662.367 C 390.542 668.558 397.364 673.637 405.612 679.333 C 409.064 673.504 412.579 667.714 416.158 661.963 L 431.703 674.175 C 427.571 679.676 422.966 686.78 419.013 692.545 C 426.08 699.5 440.606 711.206 448.63 718.044 L 473.347 679.917 C 477.451 684.415 484.04 689.696 487.247 694.283 C 474.633 712.078 462.378 730.125 450.489 748.413 C 441.103 739.79 429.967 730.672 420.166 722.279 C 399.869 704.897 377.845 684.992 356.441 669.132 C 368.368 650.935 380.171 628.774 392.278 609.465 z"/>
<path transform="translate(0,0)" fill="rgb(33,38,46)" d="M 970.66 911.79 C 971.884 912.354 972.405 912.519 973.094 914.017 C 981.98 933.343 996.572 966.871 972.805 981.551 C 964.014 986.981 953.267 985.755 943.601 983.26 C 941.408 981.172 938.588 978.011 936.432 975.742 C 926.868 987.856 914.809 1000.58 904.336 1012.05 C 901.642 1007.39 899.026 1001.35 896.717 996.392 C 899.841 992.75 903.811 988.718 907.135 985.161 C 912.724 979.321 927.752 967.01 928.8 960.443 L 927.229 959.499 C 919.131 960.526 897.712 973.734 890.83 978.957 C 888.514 973.807 886.946 969.639 885.057 964.311 C 913.454 946.429 942.165 929.793 970.66 911.79 z"/>
<path transform="translate(0,0)" fill="rgb(255,255,255)" d="M 964.236 936.907 C 972.401 940.976 974.538 974.568 950.297 966.613 C 945.491 961.05 943.46 957.609 940.005 951.365 C 948.35 945.42 955.199 941.605 964.236 936.907 z"/>
<path transform="translate(0,0)" fill="rgb(33,38,46)" d="M 872.139 704.903 C 875.288 707.007 886.858 728.864 888.687 733.277 C 895.969 750.844 885.041 776.182 864.459 777.455 C 855.675 777.998 851.497 773.975 845.373 768.39 C 835.153 785.617 824.586 802.604 816.226 820.805 L 806.555 804.136 C 810.56 796.988 815.246 789.563 819.532 782.522 C 823.787 776.161 834.306 762.559 834.54 755.62 L 833.363 754.42 C 825.171 755.767 801.44 779.848 796.442 786.69 L 787.365 770.342 C 815.392 748.232 843.652 726.418 872.139 704.903 z"/>
<path transform="translate(0,0)" fill="rgb(255,255,255)" d="M 867.169 726.792 C 877.335 728.22 884.108 767.804 857.276 761.947 C 851.231 757.537 847.391 750.637 843.576 744.316 C 850.813 738.565 859.647 732.361 867.169 726.792 z"/>
<path transform="translate(0,0)" fill="rgb(33,38,46)" d="M 932.418 1154.99 C 968.184 1160.66 1003.85 1166.92 1039.41 1173.77 L 1041.67 1187.39 C 1028.38 1192.64 1014.93 1197.48 1001.34 1201.9 C 975.656 1210.09 966.62 1212.29 942.988 1225.36 C 941.217 1217.93 939.867 1208.7 938.567 1201.03 L 957.755 1195.48 C 956 1189.15 954.885 1181.94 953.713 1175.42 C 946.805 1174.3 939.906 1173.12 933.017 1171.89 C 932.983 1166.36 932.646 1160.53 932.418 1154.99 z"/>
<path transform="translate(0,0)" fill="rgb(255,255,255)" d="M 966.972 1176.23 C 979.983 1178.18 992.951 1180.41 1005.87 1182.92 C 1002.22 1184.26 998.377 1185.52 994.685 1186.78 C 986.093 1190.06 979.638 1192.27 970.809 1194.82 C 969.079 1187.96 967.909 1183.3 966.972 1176.23 z"/>
<path transform="translate(0,0)" fill="rgb(33,38,46)" d="M 273.632 1174.75 C 280.284 1174.86 289.215 1176.02 296.054 1176.72 C 294.839 1194.58 293.779 1212.44 292.874 1230.31 C 256.552 1227.36 215.246 1223.26 179.251 1221.87 C 172.481 1221.23 165.715 1220.55 158.953 1219.83 C 159.057 1212.79 159.727 1204.47 160.137 1197.34 L 271.865 1206.26 C 272.002 1196.44 273.016 1184.7 273.632 1174.75 z"/>
<path transform="translate(0,0)" fill="rgb(33,38,46)" d="M 987.604 1233.56 C 991.131 1233.37 994.66 1233.22 998.191 1233.1 C 1012.06 1232.59 1026.69 1229.9 1037.04 1239.78 C 1043.01 1245.56 1046.45 1253.45 1046.62 1261.76 C 1046.98 1289.25 1020.97 1287.45 1001.93 1287.76 C 1001.86 1280.39 1001.12 1271.66 1000.65 1264.18 C 1003.77 1264.11 1006.61 1264.16 1009.71 1264.24 C 1015.42 1266.69 1014.94 1271.95 1019.68 1272.31 C 1031.34 1273.35 1034.54 1257.73 1026.64 1251.81 C 1020.35 1247.09 1003.2 1249.41 995.525 1249.78 C 985.391 1250.02 966.553 1247.51 957.914 1253.21 C 952.628 1256.69 952.297 1266.06 956.756 1271.22 C 963.873 1275.89 969.577 1272.38 973.721 1266.29 C 976.732 1263.95 982.049 1264.68 986.047 1264.8 L 986.218 1288.56 C 973.605 1289.19 959.53 1289.01 946.806 1289.12 C 941.683 1276.03 933.031 1254.18 944.495 1241.96 C 953.625 1232.23 974.895 1233.85 987.604 1233.56 z"/>
<path transform="translate(0,0)" fill="rgb(33,38,46)" d="M 717.849 499.752 C 722.941 503.911 727.404 508.034 732.23 512.475 C 715.611 545.847 698.388 578.915 680.569 611.662 C 677.027 608.593 672.864 604.386 669.405 601.085 C 671.411 596.949 679.545 583.503 679.31 580.194 C 674.979 576.652 670.008 572.728 665.048 570.233 C 659.535 575.402 653.811 581.265 648.392 586.607 L 637.004 578.297 C 663.794 551.952 690.743 525.77 717.849 499.752 z"/>
<path transform="translate(0,0)" fill="rgb(255,255,255)" d="M 704.735 531.941 C 704.951 537.024 690.284 562.639 686.749 567.681 C 684.19 567.966 683.577 566.941 680.958 565.36 C 678.672 563.565 678.015 563.317 676.84 560.777 C 680.075 555.686 699.593 536.032 704.735 531.941 z"/>
<path transform="translate(0,0)" fill="rgb(33,38,46)" d="M 415.767 576.717 C 441.399 602.026 467.421 629.569 492.496 655.6 C 501.073 646.023 510.005 632.848 517.567 622.207 C 522.591 626.056 526.49 629.63 531.131 633.868 C 526.413 638.793 522.233 645.137 518.262 650.748 C 509.496 662.38 501.039 674.242 492.901 686.322 C 483.923 677.541 474.695 667.222 465.756 658.076 L 404.106 595.888 L 415.767 576.717 z"/>
<path transform="translate(0,0)" fill="rgb(33,38,46)" d="M 466.609 512.893 C 491.672 539.589 513.433 570.709 540.311 598.077 C 548.101 588.921 559.348 577.558 567.753 569.024 C 571.45 573.945 575.744 578.686 579.803 583.337 C 575.248 588.22 569.672 593.567 564.904 598.356 C 554.971 608.05 545.419 618.807 536.206 629.194 C 509.855 595.439 482.09 562.561 455.215 529.132 C 458.924 523.53 462.677 518.327 466.609 512.893 z"/>
<path transform="translate(0,0)" fill="rgb(33,38,46)" d="M 1019.65 1039.01 L 1021.36 1039.55 C 1025.74 1047.92 1034 1071.19 1037.74 1081.06 C 1032.6 1082.64 1028.64 1084.48 1023.77 1086.65 C 1020.21 1080.05 1015.67 1067.77 1012.73 1060.42 C 1003.6 1063.79 994.538 1067.33 985.54 1071.04 L 990.893 1086.82 C 985.67 1088.57 980.033 1090.93 974.865 1092.95 C 973.325 1087.57 971.229 1081.64 969.467 1076.27 C 963.788 1078.81 947.513 1083.54 944.236 1087.58 L 944.748 1090.23 C 947.884 1099.25 951.689 1110.38 953.707 1119.57 L 935.82 1125.08 C 932.1 1113.11 927.951 1101.06 924.922 1088.93 C 922.674 1079.93 925.845 1076.72 933.879 1073.29 C 961.958 1061.3 992.168 1052.27 1019.65 1039.01 z"/>
<path transform="translate(0,0)" fill="rgb(33,38,46)" d="M 998.896 981.1 C 1001.33 983.849 1004.18 991.585 1005.76 995.325 C 995.144 1000.64 984.501 1006.24 973.939 1011.69 C 986.222 1012.29 1001.3 1014.66 1013.7 1016.28 L 1017.13 1027.38 C 1013.43 1028.71 1009.37 1030.45 1005.68 1031.93 C 988.869 1030.28 968.47 1025.51 952.062 1021.24 C 943.372 1025.26 933.949 1030.23 925.32 1034.56 C 933.919 1035.07 942.634 1035.81 951.215 1035.16 C 952.102 1039.22 953.588 1043.8 954.79 1047.83 C 952.688 1050.32 927.824 1066.57 923.699 1069.3 C 922.124 1064.72 920.658 1059.72 919.195 1055.06 C 924.628 1050.04 934.762 1043.6 941.187 1039.26 C 931.556 1039.18 921.932 1038.76 912.331 1037.99 C 911.175 1034.4 910.047 1029.32 909.094 1025.55 C 923.531 1018.01 938.073 1010.67 952.716 1003.53 C 967.469 996.478 984.768 988.861 998.896 981.1 z"/>
<path transform="translate(0,0)" fill="rgb(33,38,46)" d="M 838.283 645.945 C 845.088 653.742 859.634 676.995 865.422 686.069 C 861.334 689.174 856.516 693.712 852.599 697.199 C 846.886 688.153 841.237 679.067 835.654 669.942 C 829.136 675.36 822.542 681.253 816.119 686.829 L 823.457 696.574 L 809.166 708.247 L 802.244 697.973 C 795.936 703.051 779.655 715.089 775.905 722.311 C 775.307 723.463 776.915 725.248 777.866 726.79 C 783.867 735.023 788.45 741.003 795.48 748.309 C 789.392 752.357 785.806 755.213 780.969 760.636 C 772.419 746.587 763.578 732.742 755.138 718.61 C 776.088 700.771 822.636 664.633 838.283 645.945 z"/>
<path transform="translate(0,0)" fill="rgb(33,38,46)" d="M 750.183 550.007 C 775.573 549.042 792.313 575.832 777.22 598.64 C 774.213 595.692 769.511 591.441 767.411 588.034 C 769.747 578.087 763.976 561.484 753.256 565.632 C 744.162 575.403 747.009 619.672 739.973 633.639 C 735.361 642.794 733.827 644.579 724.094 648.442 C 716.351 649.209 712.59 648.327 704.964 643.878 C 692.559 636.641 684.358 607.929 702.428 602.813 C 705.735 601.877 709.767 605.811 712.505 608.069 C 708.588 614.868 702.749 629.538 714.967 633.561 C 728.72 638.089 728.476 617.103 729.771 609.04 C 732.925 589.41 728.245 559.636 750.183 550.007 z"/>
<path transform="translate(0,0)" fill="rgb(33,38,46)" d="M 944.629 852.118 L 945.976 852.051 C 948.09 853.649 964.429 890.267 967.021 895.756 C 963.68 897.459 959.722 899.825 956.386 901.695 C 952.264 893.209 948.781 886.995 943.957 878.866 C 937.324 882.725 929.146 888.313 922.54 892.545 C 925.623 897.615 927.599 900.722 929.841 906.306 C 925.137 908.532 921.591 910.048 916.713 911.857 C 914.684 907.995 911.634 904.124 909.011 900.576 C 902.554 903.704 886.953 911.186 881.974 915.873 L 894.683 943.254 C 889.856 945.63 884.57 947.735 879.586 949.823 C 876.602 943.644 858.777 911.759 865.353 906.872 C 885.983 891.541 912.823 882.465 933.346 866.859 C 936.783 864.245 936.406 859.283 936.26 855.5 C 939.24 852.682 940.047 853.248 944.629 852.118 z"/>
<path transform="translate(0,0)" fill="rgb(33,38,46)" d="M 797.594 590.059 C 802.669 593.91 826.681 627.344 832.173 634.539 C 828.056 638.465 824.629 640.859 820.063 644.156 C 815.876 638.319 811.22 632.893 806.624 627.373 C 788.885 644.508 771.32 661.822 753.931 679.311 C 748.819 684.367 743.742 689.779 738.745 694.977 L 730.655 682.738 C 752.465 660.382 775.611 636.103 798.467 615.08 C 794.405 610.028 790.36 605.264 786.997 599.713 L 797.594 590.059 z"/>
<path transform="translate(0,0)" fill="rgb(33,38,46)" d="M 229.801 896.397 C 233.37 897.072 233.922 897.133 236.743 899.376 C 239.648 907.408 231.89 911.551 230.453 921.536 C 231.969 923.647 232.74 924.89 233.499 927.379 C 228.847 928.207 224.448 925.341 220.201 923.235 C 223.614 914.367 226.815 905.418 229.801 896.397 z"/>
<path transform="translate(0,0)" fill="rgb(33,38,46)" d="M 848.652 191.942 C 870.81 193.725 882.193 208.698 861.791 224.935 C 853.905 231.211 835.12 242.161 825.944 246.229 C 820.148 245.219 814.253 244.058 808.396 243.65 L 807.053 245.214 C 805.66 250.959 804.387 257.575 803.136 263.414 L 794.32 251.115 C 797.006 239.767 799.806 228.447 802.719 217.155 C 817.85 208.427 833.164 200.021 848.652 191.942 z"/>
<path transform="translate(0,0)" fill="rgb(255,255,255)" d="M 851.713 201.899 C 855.501 201.854 858.736 202.673 861.304 205.579 C 863.358 217.004 830.781 231.374 821.617 236.164 C 817.801 236.163 812.533 236.72 809.665 234.646 C 808.469 231.769 809.791 228.895 810.684 225.673 C 823.975 217.101 837.667 209.167 851.713 201.899 z"/>
<path transform="translate(0,0)" fill="rgb(33,38,46)" d="M 1062.86 645.05 C 1080.08 642.451 1089.99 663.629 1081.65 673.286 C 1074.63 681.42 1039.32 695.825 1028 697.742 C 1013.23 696.354 1010.21 682.993 1006.99 670.627 C 1024.37 661.635 1044.9 652.836 1062.86 645.05 z"/>
<path transform="translate(0,0)" fill="rgb(255,255,255)" d="M 1066.87 654.957 C 1072.55 655.324 1075.16 662.86 1072.58 665.478 C 1063.74 674.448 1036.78 684.347 1025.36 687.621 C 1021.9 685.059 1018.8 680.937 1019.65 676.442 C 1024.8 672.926 1058.32 658.847 1066.87 654.957 z"/>
<path transform="translate(0,0)" fill="rgb(33,38,46)" d="M 1024.64 536.071 C 1025.57 536.134 1030.57 536.763 1031.18 537.129 C 1072.18 561.996 1010.12 585.434 989.822 595.938 L 979.51 601.221 C 972.187 586.532 966.759 574.193 983.662 563.058 C 995.85 555.027 1010.94 540.491 1024.64 536.071 z"/>
<path transform="translate(0,0)" fill="rgb(255,255,255)" d="M 1023.71 546.781 C 1036.73 546.317 1036.24 557.467 1026.18 563.394 C 1013.61 570.796 1000.84 577.612 988.486 585.371 L 985.016 587.293 C 982.006 586.692 983.109 587.336 981.039 584.368 C 980.934 583.387 980.78 580.847 981.155 580.174 C 985.414 572.524 1016.74 550.339 1023.71 546.781 z"/>
<path transform="translate(0,0)" fill="rgb(33,38,46)" d="M 952.503 375.979 C 955.251 379.118 957.988 384.337 960.136 388.094 C 952.563 400.185 945.567 410.396 937.332 422.04 C 946.963 414.949 956.774 408.105 966.754 401.516 L 973.637 412.297 C 955.997 424.798 930.276 442.111 911.99 453.353 C 909.639 451.812 908.48 448.225 907.216 445.469 C 910.437 442.196 913.73 438.087 916.723 434.527 C 927.404 420.611 936.3 408.58 945.464 393.476 C 929.736 406.978 916.209 420.97 901.76 435.816 L 896.455 426.089 C 917.051 402.935 928.46 394.96 952.503 375.979 z"/>
<path transform="translate(0,0)" fill="rgb(33,38,46)" d="M 890.128 243.073 C 893.141 246.488 896.642 252.187 899.232 256.123 C 883.92 270.954 852.563 298.659 835.612 310.154 L 830.842 300.361 C 834.296 297.734 837.75 294.966 841.171 292.282 C 844.127 289.892 847.034 288.231 847.967 284.761 C 843.832 273.868 830.118 287.24 825.049 291.048 C 822.848 287.413 820.691 283.621 818.542 279.943 C 841.324 268.882 868.621 255.61 890.128 243.073 z"/>
<path transform="translate(0,0)" fill="rgb(255,255,255)" d="M 872.631 263.947 L 873.536 264.727 C 871.06 268.305 860.446 277.289 856.562 279.705 C 854.204 276.676 854.089 277.555 854.303 274.673 C 858.697 270.144 866.651 266.973 872.631 263.947 z"/>
<path transform="translate(0,0)" fill="rgb(33,38,46)" d="M 902.761 288.881 C 906.628 289.076 910.959 290.883 913.681 293.619 C 928.672 308.694 907.274 333.938 890.342 334.247 C 883.035 334.38 877.916 327.408 873.158 322.494 C 870.321 324.342 867.415 326.387 864.602 328.301 C 860.157 331.55 855.448 335.683 851.183 339.252 L 845.231 328.754 C 864.584 316.418 881.325 300.301 902.761 288.881 z"/>
<path transform="translate(0,0)" fill="rgb(255,255,255)" d="M 903.56 299.777 C 918.103 305.143 898.131 323.117 887.936 324.284 C 885.637 322.008 882.905 318.808 880.683 316.336 L 903.56 299.777 z"/>
<path transform="translate(0,0)" fill="rgb(33,38,46)" d="M 1059.69 593.06 C 1061.77 594.658 1064.53 600.972 1065.89 603.69 C 1049.64 618.207 1034.61 632.963 1016 644.283 C 1011.53 647 1005.83 651.853 1001.58 655.169 L 997.506 645.03 L 1010.06 635.25 L 1020.28 626.98 C 1018.79 624.613 1016.95 622.043 1015.35 619.708 C 1007.23 622.5 999.684 628.064 992.772 627.65 C 989.721 625.335 990.073 624.156 988.539 620.048 C 1011.01 610.054 1036.36 601.477 1059.69 593.06 z"/>
<path transform="translate(0,0)" fill="rgb(255,255,255)" d="M 1047.27 607.022 L 1048.03 607.203 L 1048.27 608.09 C 1043.19 611.511 1034.01 621.42 1030.12 622.349 L 1024.58 615.669 L 1047.27 607.022 z"/>
<path transform="translate(0,0)" fill="rgb(33,38,46)" d="M 1004.6 478.851 L 1005.77 478.878 C 1008.45 481.265 1010.47 485.738 1012.23 489.041 C 1001.5 493.16 991.018 497.918 980.852 503.291 C 991.353 501.485 1006.19 500.757 1017.21 499.865 C 1019.06 502.722 1021.15 506.734 1022.85 509.787 L 997.09 510.393 C 989.624 517.505 967.633 548.205 961.243 557.621 C 959.047 553.933 954.743 548.982 957.431 545.387 C 964.116 538.384 978.465 519.061 985.057 510.675 C 978.819 510.699 975.398 510.051 970.863 514.935 C 964.066 522.254 958.117 530.619 951.694 538.352 C 950.078 535.722 948.526 532.404 947.118 529.61 C 971.291 496.494 968.975 499.453 1004.6 478.851 z"/>
<path transform="translate(0,0)" fill="rgb(33,38,46)" d="M 1097.82 704.549 C 1099.08 705.936 1102.77 715.537 1103.75 717.934 C 1082.93 729.646 1070.3 727.156 1057.65 747.206 L 1053.13 738.64 L 1036.46 745.546 L 1035.63 745.6 C 1033.09 743.887 1031.91 739.957 1030.59 736.929 L 1050.43 729.299 C 1047.68 721.491 1046.05 716.633 1044.24 708.573 C 1062.13 707.683 1080 706.341 1097.82 704.549 z"/>
<path transform="translate(0,0)" fill="rgb(255,255,255)" d="M 1068.3 716.583 C 1071.86 716.147 1075.27 715.296 1078.48 716.543 C 1076.89 719.188 1066.78 723.929 1063.39 725.73 L 1060.85 726.373 C 1058.04 724.794 1057.24 724.51 1055.45 721.88 C 1056.29 716.24 1064.05 716.738 1068.3 716.583 z"/>
<path transform="translate(0,0)" fill="rgb(33,38,46)" d="M 927.384 330.73 C 931.007 331.956 940.298 348.182 943.06 352.591 L 935.526 359.35 C 933.167 355.02 928.96 349.071 926.142 344.821 C 919.374 350.388 915.373 353.719 909.44 360.094 L 916.146 371.101 L 909.301 376.617 L 901.659 366.469 C 895.99 370.653 887.398 375.825 881.283 379.743 C 884.772 386.376 888.326 392.974 891.943 399.538 L 884.951 405.349 C 879.315 394.996 873.958 384.492 868.887 373.85 C 899.02 357.143 901.695 350.594 927.384 330.73 z"/>
<path transform="translate(0,0)" fill="rgb(33,38,46)" d="M 970.995 437.105 C 988.429 436.011 992.258 448.968 996.272 463.207 L 986.438 469.881 C 986.05 463.203 983.9 450.346 976.717 447.839 C 962.469 447.774 956.178 482.118 954.078 493.246 L 952.963 493.723 C 948.377 495.642 947.729 496.934 942.497 495.896 C 940.12 497.28 938.794 498.407 936.079 498.325 C 931.355 495.85 919.544 475.001 919.925 470.931 C 922.246 467.986 921.045 468.895 924.468 467.442 C 932.503 470.088 932.241 484.802 939.965 488.619 L 942.475 487.761 C 953.776 477.741 946.916 449.47 970.995 437.105 z"/>
</svg>