<svg version="1.1" xmlns="http://www.w3.org/2000/svg" style="display: block;" viewBox="0 0 2048 2048" width="1024" height="1024" preserveAspectRatio="none">
<path transform="translate(0,0)" fill="rgb(251,250,245)" d="M 0 0 L 2048 0 L 2048 2048 L 0 2048 L 0 0 z"/>
<path transform="translate(0,0)" fill="rgb(80,60,47)" d="M 1330.68 680.114 C 1336.13 679.642 1590.37 735.208 1599.32 738.848 C 1640.38 728.459 1642.08 727.258 1682.97 735.53 L 1683.03 764.737 C 1697.09 767.141 1713.09 769.817 1726.74 773.63 L 1894.7 959.513 C 1873.97 967.129 1850.33 972.879 1829.04 979.499 C 1828.46 1063.76 1828.36 1148.03 1828.75 1232.3 C 1859.61 1221.42 1866.7 1216.59 1892.58 1197.5 C 1850.07 1257.99 1783.29 1254.3 1719.19 1264.61 C 1695.23 1268.46 1662.84 1280.99 1638.89 1288.41 C 1559.33 1313.05 1477.02 1312.35 1394.6 1311.25 C 1274.87 1310.04 1155.43 1298.8 1036.06 1289.23 C 881.819 1276.4 727.247 1268 572.529 1264.02 C 485.171 1262.39 397.475 1262.96 310.61 1273.73 C 268.155 1279 223.838 1288.83 185.572 1308.6 C 174.744 1314.19 165.271 1321.99 154.621 1327.78 L 153.507 1328.37 C 178.063 1289.8 243.247 1270.56 285.787 1261.44 L 285.861 1235.78 C 263.517 1239.45 229.866 1231.23 206.198 1227.6 C 219.504 1222.87 235.762 1215.94 247.421 1208.23 C 208.196 1204.65 192.202 1196.4 159.327 1176.39 L 160.67 1176.33 C 187.812 1174.85 218.746 1162.12 237.177 1141.66 C 220.297 1142.76 207.184 1143.62 190.382 1146.85 C 206.439 1131.97 221.179 1114.33 235.029 1097.38 L 244.339 1084.86 C 234.74 1087.23 224.701 1089.02 214.97 1090.9 C 261.376 1053.38 293.297 996.017 318.281 942.488 C 344.454 999.362 377.874 1049.56 415.677 1099.06 C 407.885 1097.17 400.138 1095.1 392.442 1092.86 C 403.266 1111.63 422.015 1139.55 435.349 1156.03 C 425.941 1156.12 414.98 1155.35 405.475 1154.9 C 418.274 1172.66 436.108 1190.13 448.12 1208.15 C 428.773 1208.16 410.324 1204.09 391.656 1199.55 C 397.975 1208.68 411.549 1224.06 418.929 1232.93 C 388.73 1234.24 373.112 1233.28 343.79 1227.28 L 343.778 1254.92 C 418.05 1246.87 511.651 1248.41 587.54 1249.89 C 717.006 1253.01 846.362 1259.68 975.464 1269.87 C 1074.84 1277.54 1171.8 1287.32 1271.58 1292.18 C 1328.15 1295.16 1384.79 1296.87 1441.44 1297.29 C 1483.32 1297.53 1529.86 1297.63 1571.28 1290.64 C 1573.48 1171.83 1571.37 1048.79 1571.15 929.678 C 1502.72 858.914 1424.9 789.668 1353.57 720.928 C 1276.84 753.657 1240.89 814.105 1193.91 879.086 C 1185.98 890.055 1171.41 915.484 1163.1 924.143 C 1150.48 914.055 1137.49 901.261 1124.53 890.51 C 1159.17 828.96 1190.32 765.436 1226.35 703.522 C 1234.97 700.653 1254.11 696.84 1263.37 694.905 C 1286.23 690.13 1307.95 685.737 1330.68 680.114 z"/>
<path transform="translate(0,0)" fill="rgb(251,250,245)" d="M 1584.82 953.827 C 1602.42 956.426 1625.86 958.062 1644.19 960.145 L 1812.9 979.307 L 1812.71 1238.61 C 1802.21 1241.35 1769.62 1245.82 1758.79 1246.53 C 1758.5 1229.37 1758.47 1212.2 1758.69 1195.04 C 1767.48 1194.56 1776.27 1194.21 1785.07 1194 L 1785 1127.82 L 1785.01 1114.76 C 1750.99 1114.92 1716.81 1113.53 1682.77 1112.62 L 1682.98 1259.09 C 1651.19 1270.83 1618.58 1280.21 1585.42 1287.15 C 1583.8 1248.15 1584.92 1199.33 1584.94 1159.84 L 1584.82 953.827 z"/>
<path transform="translate(0,0)" fill="rgb(80,60,47)" d="M 1607.08 1112.61 L 1672.6 1114.31 L 1672.87 1199.74 C 1650.95 1199.7 1629.03 1199.84 1607.12 1200.15 L 1607.08 1112.61 z"/>
<path transform="translate(0,0)" fill="rgb(251,250,245)" d="M 1646.44 1127 L 1662.75 1127.04 C 1662.93 1147.8 1662.88 1168.55 1662.59 1189.3 L 1646.79 1189.53 C 1646.19 1169 1646.41 1147.58 1646.44 1127 z"/>
<path transform="translate(0,0)" fill="rgb(80,60,47)" d="M 1608.51 982.884 C 1625.92 983.051 1658.46 987.545 1677.22 989.146 C 1676.98 1011.61 1676.91 1034.08 1677.01 1056.55 C 1654.26 1054.99 1631.5 1053.7 1608.73 1052.69 L 1608.51 982.884 z"/>
<path transform="translate(0,0)" fill="rgb(251,250,245)" d="M 1654.02 996.934 C 1657.89 997.045 1662.2 997.632 1666.08 998.06 L 1666.5 1046.53 C 1662.86 1046.68 1658.04 1046.51 1654.29 1046.5 C 1653.07 1045.89 1653.5 1045.9 1652.62 1044.16 C 1652.56 1036.05 1658.32 1031.3 1663.83 1025.17 L 1654.15 1021.3 L 1654.02 996.934 z"/>
<path transform="translate(0,0)" fill="rgb(80,60,47)" d="M 1718.24 993.66 C 1739.29 994.097 1763.86 998.204 1785.89 999.117 C 1785.74 1020.38 1785.79 1041.65 1786.03 1062.92 C 1763.75 1062.04 1741.41 1059.43 1718.77 1058.88 C 1717.92 1037.62 1718.25 1015.01 1718.24 993.66 z"/>
<path transform="translate(0,0)" fill="rgb(251,250,245)" d="M 1764.91 1007.97 C 1768.08 1007.89 1769.81 1007.63 1772.87 1008.58 C 1777.5 1013.68 1775.3 1025.67 1775.12 1033.64 C 1771.42 1032.16 1768.53 1030.17 1765.17 1028.08 L 1764.91 1007.97 z"/>
<path transform="translate(0,0)" fill="rgb(251,250,245)" d="M 1773.44 1033.67 L 1774.58 1034.84 C 1775.67 1039.52 1775.15 1047.74 1775.06 1052.83 C 1771.21 1052.76 1767.11 1052.45 1763.24 1052.23 C 1762.18 1051.67 1762.88 1052.11 1761.48 1050.46 C 1764.37 1044.53 1767.57 1036.53 1773.44 1033.67 z"/>
<path transform="translate(0,0)" fill="rgb(251,250,245)" d="M 1351.48 699.928 C 1362.87 701.626 1378.09 705.206 1389.7 707.62 C 1415.52 712.893 1441.28 718.435 1466.99 724.246 C 1502.05 731.962 1537.53 739.183 1572.49 747.345 C 1575.66 748.084 1583.01 750.382 1585.21 752.272 C 1605.6 769.813 1621.81 794.347 1642.28 811.897 C 1642.55 812.093 1642.83 812.288 1643.11 812.483 C 1652.89 813.937 1682.99 820.549 1690.14 819.072 L 1690.65 817.389 C 1688.75 814.198 1685.56 813.152 1682.14 811.457 L 1682.19 779.534 C 1694.48 781.207 1706.19 782.925 1718.11 786.402 C 1724.8 793.096 1735.17 805.965 1741.79 813.586 C 1756.77 830.854 1771.89 847.997 1787.16 865.015 C 1763.99 860.866 1712.77 854.424 1689.73 855.277 C 1710.96 862.817 1770.84 870.101 1793.96 872.248 C 1804.89 885.249 1815.85 896.276 1827.73 908.426 C 1805.97 904.429 1769.87 902.868 1747.29 902.043 L 1770.05 907.762 C 1792.44 911.859 1814.88 915.723 1837.35 919.352 C 1845.06 927.253 1853.98 938.159 1861.78 946.653 C 1767.03 937.654 1671.27 922.116 1576.83 909.654 C 1569.22 908.65 1522.33 860.047 1512.44 850.382 C 1477.01 815.73 1438.5 782.598 1403.31 747.838 C 1429.46 749.507 1455.63 750.088 1481.74 752.627 C 1488.68 753.301 1495.99 753.955 1502.92 753.629 C 1493.93 751.061 1470.47 747.99 1459.93 746.492 C 1437.22 743.331 1414.53 740.006 1391.87 736.517 C 1378.3 724.525 1364.96 712.063 1351.48 699.928 z"/>
<path transform="translate(0,0)" fill="rgb(80,60,47)" d="M 1578.27 873.333 C 1609.57 874.593 1640.4 877.425 1671.46 881.433 C 1685.89 883.295 1710.47 886.086 1724.18 890.538 C 1698.15 893.41 1602.25 883.193 1578.27 873.333 z"/>
<path transform="translate(0,0)" fill="rgb(80,60,47)" d="M 1529.27 829.223 C 1551.73 832.067 1619.83 833.596 1639.21 842.71 C 1610.09 845.358 1557.43 839.315 1529.27 829.223 z"/>
<path transform="translate(0,0)" fill="rgb(80,60,47)" d="M 1455.36 783.398 C 1474.03 781.736 1559.16 787.533 1574.85 793.519 C 1556.11 795.062 1468.86 790.441 1455.36 783.398 z"/>
<path transform="translate(0,0)" fill="rgb(251,250,245)" d="M 318.126 975.529 C 321.505 979.534 323.8 984.238 326.177 988.904 C 341.562 1019.11 360.218 1046.95 378.644 1075.32 C 354.108 1069.54 341.547 1066.45 323.135 1049.1 C 337.956 1072.87 349.853 1076.93 375.216 1088.07 C 385.96 1101.77 399.591 1126.07 408.345 1141.1 C 377.86 1135.11 355.737 1128.78 335.677 1103.85 C 336.543 1105.94 337.466 1108 338.446 1110.04 C 349.052 1131.92 367.467 1143.09 389.983 1150.83 C 398.059 1162.64 405.846 1177.31 412.87 1189.89 C 387.506 1184.49 369.715 1172.15 348.942 1157.75 C 356.205 1173.98 374.977 1201.86 384.743 1216.62 C 360.029 1218.1 341.905 1209.99 325.575 1191.29 C 321.36 1186.46 318.607 1180.19 313.934 1175.82 L 313.16 1176.47 L 313.726 1181.78 C 314.245 1188.5 311.077 1190.55 307.83 1195.67 C 291.351 1221.66 271.755 1225.66 242.787 1224.67 L 245.539 1223.37 C 271.933 1210.78 285.545 1194.28 295.12 1167.25 C 258.853 1197.18 242.506 1198.59 198.891 1182.48 C 201.408 1181.91 203.907 1181.26 206.383 1180.54 C 227.847 1174.33 243.314 1159.62 253.915 1140.42 C 275.833 1131.34 295.382 1121.48 309.922 1102.28 C 283.109 1115.51 260.46 1121.55 231.734 1128.61 C 243.636 1113.86 251.312 1099.08 261.883 1083.72 C 265.248 1078.84 276.526 1071.3 281.237 1066.63 C 286.908 1061.02 290.066 1056.78 294.83 1050.18 C 281.988 1059.93 270.114 1066.63 254.866 1072.24 C 267.185 1055.85 280.933 1038.94 292.048 1021.96 C 301.195 1007.98 310.185 990.441 318.126 975.529 z"/>
<path transform="translate(0,0)" fill="rgb(251,250,245)" d="M 1328.52 697.22 C 1331.91 697.057 1339.42 703.956 1342.41 706.376 C 1313.01 711.427 1281.92 718.334 1252.39 724.134 C 1240.36 748.447 1171.56 890.789 1159.34 901.617 L 1143.82 886.543 C 1171.53 840.51 1195 789.577 1221.74 742.69 C 1226.33 734.636 1231.05 725.677 1234.79 717.189 C 1265.96 710.189 1297.2 703.533 1328.52 697.22 z"/>
<path transform="translate(0,0)" fill="rgb(251,250,245)" d="M 1699.58 1127.64 C 1712.28 1127.48 1725.7 1127.8 1738.46 1127.91 C 1738.46 1139.52 1739.26 1221.07 1737.32 1225.53 C 1724.82 1226.95 1712.29 1228.18 1699.75 1229.2 L 1699.58 1127.64 z"/>
<path transform="translate(0,0)" fill="rgb(251,250,245)" d="M 1648.77 740.468 C 1655.97 741.703 1663.51 744.118 1670.57 746.189 C 1670.77 766.184 1670.79 786.18 1670.61 806.175 C 1663 805.626 1656.55 804.693 1648.99 803.576 C 1648.72 782.541 1648.64 761.504 1648.77 740.468 z"/>
<path transform="translate(0,0)" fill="rgb(251,250,245)" d="M 317.238 1205.54 C 320.673 1208.74 322.514 1211.72 325.204 1215.54 C 325.995 1227.79 325.498 1244.09 325.428 1256.67 C 320.352 1257.04 314.362 1257.96 309.241 1258.62 C 306.216 1259.14 306.269 1259.33 303.374 1258.53 C 300.178 1253.21 301.798 1234.28 301.921 1226.8 C 307.08 1219.75 312.186 1212.67 317.238 1205.54 z"/>
<path transform="translate(0,0)" fill="rgb(251,250,245)" d="M 1758.99 1125.93 C 1764.08 1125.72 1769.7 1125.82 1774.84 1125.81 L 1774.76 1183.44 L 1759.05 1183.93 L 1758.99 1125.93 z"/>
<path transform="translate(0,0)" fill="rgb(80,60,47)" d="M 1802.66 1263.2 L 1803.55 1263.9 C 1771.49 1285.4 1712.72 1303.93 1675.75 1314.66 C 1458.91 1377.6 1257.97 1365.12 1037.74 1349.86 L 832.276 1335.32 C 704.23 1325.63 577.317 1316.35 448.75 1318.92 C 443.687 1319.1 438.773 1318.51 433.722 1318.07 C 448.236 1313.97 477.227 1313.29 493.398 1312.56 C 559.096 1309.99 624.87 1310.01 690.566 1312.62 C 796.053 1316.83 901.45 1323.06 1006.7 1331.29 C 1148.3 1341.78 1288.13 1353.81 1430.25 1341.8 C 1524.94 1333.8 1615.92 1315.68 1707.53 1290.87 C 1740.83 1281.86 1769.91 1274.01 1802.66 1263.2 z"/>
<path transform="translate(0,0)" fill="rgb(80,60,47)" d="M 748.169 957.343 C 818.518 956.496 818.777 1068.04 749.009 1068.33 C 733.227 1068.39 724.719 1063.68 713.934 1053 L 713.606 1074.84 L 713.491 1103.02 L 686.805 1102.94 L 686.956 959 L 712.548 959.206 L 712.712 974.286 C 725.397 962.423 730.941 959.304 748.169 957.343 z"/>
<path transform="translate(0,0)" fill="rgb(251,250,245)" d="M 738.348 980.264 C 754.756 979.378 767.713 984.955 773.041 1001.66 C 775.955 1010.73 775.13 1020.59 770.749 1029.05 C 765.893 1038.25 758.999 1042.13 749.443 1044.95 C 701.997 1048.01 702.191 989.559 738.348 980.264 z"/>
<path transform="translate(0,0)" fill="rgb(80,60,47)" d="M 1077.01 919.74 C 1085.74 919.557 1095.18 919.796 1103.97 919.85 L 1103.84 971.533 C 1110.48 964.626 1118.62 959.206 1128.19 957.789 C 1184.91 949.392 1205.12 1011.95 1175.87 1051.42 C 1161.87 1067.7 1135.59 1071.95 1115.99 1065.28 C 1111.15 1063.63 1106.22 1058.45 1101.14 1057.53 C 1099.21 1062.11 1101.05 1061.31 1097.63 1065.13 C 1092.06 1067.29 1083.39 1065.94 1076.9 1065.61 L 1077.01 919.74 z"/>
<path transform="translate(0,0)" fill="rgb(251,250,245)" d="M 1126.72 979.085 C 1170.31 976.391 1177.4 1033.68 1138.17 1045.52 C 1091.69 1050.44 1088.82 991.003 1126.72 979.085 z"/>
<path transform="translate(0,0)" fill="rgb(80,60,47)" d="M 528.943 925.972 L 556.141 926 C 576.238 972.72 595.77 1019.68 614.734 1066.87 L 585.22 1066.91 L 574.046 1037.2 L 557.148 1036.98 C 541.437 1036.99 525.726 1037.11 510.016 1037.34 C 506.23 1047.17 502.588 1057.06 499.093 1067 C 489.61 1067.2 479.771 1067.1 470.255 1067.13 C 477.621 1047.51 488.131 1024.63 496.409 1005.13 C 507.414 978.813 518.259 952.425 528.943 925.972 z"/>
<path transform="translate(0,0)" fill="rgb(251,250,245)" d="M 541.887 957.684 C 545.273 960.742 562.226 1007.55 565.062 1015.06 L 540.821 1015.19 L 518.923 1015.06 C 524.828 997.038 534.248 974.96 541.887 957.684 z"/>
<path transform="translate(0,0)" fill="rgb(80,60,47)" d="M 868.957 957.386 C 869.549 957.343 870.141 957.299 870.733 957.255 C 884.314 956.601 897.588 961.436 907.566 970.673 C 918.005 980.314 924.758 995.203 925.003 1009.52 C 925.047 1012.13 924.616 1016.27 922.418 1018.01 C 916.255 1022.89 854.684 1020.93 843.062 1021.02 C 844.212 1024.78 845.121 1027.93 847.315 1031.24 C 852.043 1038.32 859.429 1043.19 867.799 1044.74 C 882.748 1047.54 891.504 1041.8 902.64 1034.24 C 905.725 1034.46 905.159 1034.88 908.043 1037.56 L 920.136 1050.56 C 884.333 1082.04 823.34 1071.65 817.498 1018.77 C 815.748 1003.72 820.134 988.601 829.665 976.827 C 840.61 963.461 852.659 959.122 868.957 957.386 z"/>
<path transform="translate(0,0)" fill="rgb(251,250,245)" d="M 865.4 979.204 C 886.59 978.005 894.074 982.689 900.609 1003.11 L 880.25 1003.14 L 842.941 1002.99 L 843.42 1001.4 C 847.536 987.494 852.179 984.06 865.4 979.204 z"/>
<path transform="translate(0,0)" fill="rgb(240,146,12)" d="M 606.976 1122.83 C 634.517 1119.65 659.423 1139.39 662.611 1166.93 C 665.799 1194.47 646.062 1219.38 618.523 1222.57 C 590.975 1225.77 566.054 1206.02 562.865 1178.48 C 559.676 1150.93 579.427 1126.01 606.976 1122.83 z"/>
<path transform="translate(0,0)" fill="rgb(251,250,245)" d="M 607.744 1141.71 C 625.105 1138.86 641.461 1150.7 644.174 1168.08 C 646.887 1185.46 634.918 1201.73 617.515 1204.3 C 600.303 1206.85 584.258 1195.04 581.575 1177.85 C 578.891 1160.66 590.575 1144.52 607.744 1141.71 z"/>
<path transform="translate(0,0)" fill="rgb(80,60,47)" d="M 1432.41 925.507 L 1456.28 925.06 L 1456.01 1002.76 C 1468.62 988.502 1481.34 974.354 1494.19 960.315 C 1504.44 960.078 1515.54 960.251 1525.86 960.23 C 1510.57 975.568 1495.2 991.911 1479.97 1007.47 C 1490.29 1019.39 1500.53 1031.39 1510.69 1043.45 C 1517.03 1050.78 1523.17 1058.28 1529.12 1065.94 L 1497.77 1066.53 C 1489.15 1057.55 1473.42 1035.31 1465.55 1024.79 C 1461.06 1029.24 1459.45 1031.3 1455.71 1036.29 C 1456.21 1045.65 1455.99 1056.88 1456.05 1066.38 C 1447.3 1066.19 1438.31 1066.25 1429.54 1066.2 C 1429.9 1034.84 1430.04 1003.49 1429.97 972.136 C 1429.99 961.025 1429.35 936.916 1430.42 926.617 L 1432.41 925.507 z"/>
<path transform="translate(0,0)" fill="rgb(80,60,47)" d="M 1009.01 957.362 C 1051.23 962.681 1049.53 994.038 1048.98 1027.46 C 1048.77 1039.96 1048.96 1053.06 1048.95 1065.61 L 1022.64 1065.7 C 1022.61 1048.32 1026.29 1002.65 1017.95 989.435 C 1015.05 984.846 1010.69 981.584 1005.31 980.605 C 996.391 978.984 989.809 981.441 982.635 986.599 C 968.384 1000.88 973.717 1045.15 973.893 1065.28 C 964.959 1065.83 956.904 1065.61 947.986 1065.43 L 947.659 959.187 L 972.249 959.038 L 972.121 973.204 C 985.12 960.611 991.277 958.819 1009.01 957.362 z"/>
<path transform="translate(0,0)" fill="rgb(80,60,47)" d="M 1362.04 957.225 C 1364.64 957.008 1367.24 956.864 1369.85 956.793 C 1385.39 956.239 1401.55 959.318 1413.3 970.242 C 1408.84 977.623 1403.93 982.866 1398.24 989.249 C 1391.75 984.579 1387.08 981.36 1378.85 979.935 C 1370.72 978.511 1362.36 980.449 1355.69 985.306 C 1320.93 1010.25 1359.03 1066.94 1396.99 1035.54 L 1398.35 1034.4 L 1399.84 1034.77 C 1405.16 1041.03 1408.26 1044.77 1414.39 1050.14 C 1407.8 1057.85 1399.13 1063.5 1389.42 1066.42 C 1375.38 1070.73 1359.01 1069.35 1346.04 1062.35 C 1332.9 1055.16 1323.21 1042.99 1319.15 1028.57 C 1309.13 994.001 1327.39 965.87 1362.04 957.225 z"/>
<path transform="translate(0,0)" fill="rgb(240,146,12)" d="M 1456.03 1123.26 C 1479.32 1121.7 1489.64 1124.41 1507.15 1139.66 C 1502.15 1144.36 1498.65 1146.96 1493.15 1151.02 C 1490.56 1149.03 1487.86 1147.18 1485.07 1145.46 C 1476.59 1140.21 1466.71 1138.27 1456.96 1140.76 C 1448.52 1142.93 1441.36 1148.5 1437.18 1156.15 C 1432.57 1164.51 1431.66 1174.41 1434.68 1183.47 C 1440.79 1202.17 1462.1 1208.49 1480.05 1202.45 C 1488.4 1199.65 1492.07 1191.77 1495.15 1184.1 L 1467.02 1183.65 L 1466.93 1170.91 L 1467.37 1169.68 C 1471.29 1168.11 1508.84 1168.36 1515.83 1168.33 C 1515.38 1179.38 1513.9 1189.9 1508.49 1199.78 C 1495.07 1224.26 1457.93 1227.63 1435.59 1213.87 C 1424.49 1207.13 1416.74 1196.03 1414.23 1183.29 C 1408.17 1152.77 1426.55 1129.45 1456.03 1123.26 z"/>
<path transform="translate(0,0)" fill="rgb(240,146,12)" d="M 1347.7 1124.17 L 1366.15 1124.08 C 1378.89 1156.48 1392.68 1188.45 1407.5 1219.96 L 1386.31 1219.87 C 1382.17 1213.1 1380.35 1209.11 1377.51 1201.81 L 1368.25 1201.76 C 1357.41 1201.79 1346.57 1201.57 1335.74 1201.1 C 1333.28 1207.91 1331.19 1213.33 1328.25 1219.93 L 1307.51 1219.9 C 1316.21 1195.98 1327.27 1172.24 1336.84 1148.64 C 1340.13 1140.51 1343.79 1132.01 1347.7 1124.17 z"/>
<path transform="translate(0,0)" fill="rgb(251,250,245)" d="M 1356.31 1150.68 C 1358.14 1152.63 1369.12 1180.25 1371.44 1185.21 L 1358.6 1185.18 L 1342.97 1185.04 C 1347.2 1173.63 1351.37 1161.77 1356.31 1150.68 z"/>
<path transform="translate(0,0)" fill="rgb(240,146,12)" d="M 952.965 1124.96 L 970.706 1124.95 C 983.29 1153.7 998.104 1191.43 1009.6 1220.81 L 988.878 1221 L 981.943 1201.53 L 971.827 1201.17 L 940.676 1201 C 937.991 1207.36 935.41 1213.91 932.809 1220.32 L 911.838 1220.05 C 924.564 1189.79 938.731 1154.09 952.965 1124.96 z"/>
<path transform="translate(0,0)" fill="rgb(251,250,245)" d="M 961.199 1148.65 C 964.373 1154.77 972.298 1176.35 975.297 1183.94 L 962.5 1184 L 947.471 1184.05 C 951.923 1172.06 956.187 1160.43 961.199 1148.65 z"/>
<path transform="translate(0,0)" fill="rgb(240,146,12)" d="M 527.924 1124.46 L 546.687 1124.55 C 546.203 1156.29 546.04 1188.04 546.199 1219.78 L 527.343 1219.83 L 527.722 1177.17 L 490.846 1177.03 L 490.958 1215.25 C 491.075 1218.26 491.368 1217.18 490.135 1219.79 C 484.974 1221.93 477.362 1220.89 471.449 1220.65 C 470.924 1189.14 471.508 1156.37 471.777 1124.8 C 478.143 1124.7 484.585 1124.72 490.959 1124.68 L 490.79 1160.09 L 527.806 1160.06 C 527.673 1148.19 527.712 1136.32 527.924 1124.46 z"/>
<path transform="translate(0,0)" fill="rgb(80,60,47)" d="M 1301.34 789.871 C 1320.87 789.43 1341.49 789.751 1361.11 789.742 L 1360.97 859.576 C 1341.19 859.724 1321.41 859.768 1301.63 859.708 C 1301.72 836.429 1301.62 813.149 1301.34 789.871 z"/>
<path transform="translate(0,0)" fill="rgb(251,250,245)" d="M 1312.17 801.292 L 1318.42 801.569 C 1320.44 806.908 1318.98 837.397 1319.15 844.555 C 1319.23 847.857 1318.76 848.609 1316.78 850.331 C 1313.81 850.168 1312.25 850.348 1309.64 848.892 C 1308.5 842.712 1308.48 808.536 1309.83 802.673 L 1312.17 801.292 z"/>
<path transform="translate(0,0)" fill="rgb(240,146,12)" d="M 751.833 1125.24 C 772.222 1125.07 816.16 1119.88 816.197 1152.23 C 816.227 1177.89 795.868 1182.16 774.75 1181.84 L 771.609 1182.09 C 768.613 1186.37 770.158 1213.64 770.326 1220.94 L 751.578 1220.92 C 751.44 1189.03 751.525 1157.13 751.833 1125.24 z"/>
<path transform="translate(0,0)" fill="rgb(251,250,245)" d="M 770.058 1141.12 C 784.125 1140.78 807.002 1142.74 792.675 1162.96 C 784.652 1166.78 779.114 1166.33 770.225 1166.71 L 770.058 1141.12 z"/>
<path transform="translate(0,0)" fill="rgb(80,60,47)" d="M 1211.46 919.339 L 1238.77 919.303 L 1238.6 1066.5 L 1211.49 1066.01 C 1212.43 1017.22 1211.37 968.157 1211.46 919.339 z"/>
<path transform="translate(0,0)" fill="rgb(80,60,47)" d="M 629.631 923.007 L 656.063 922.978 L 656.242 1067.08 L 629.574 1066.9 C 628.72 1019.86 629.712 970.351 629.631 923.007 z"/>
<path transform="translate(0,0)" fill="rgb(240,146,12)" d="M 699.79 1124.28 C 714.872 1123.26 721.936 1125.16 734.03 1133.56 C 730.616 1138.29 727.896 1142.4 723.564 1146.38 C 720.348 1145.09 717.115 1143.85 713.864 1142.66 C 706.708 1140.08 695.301 1138.87 692.326 1148.06 C 695.035 1161.49 736.806 1165.11 736.408 1189.52 C 736.023 1213.14 721.752 1221.6 700.095 1221.81 C 686.277 1220.53 681.521 1218.54 669.861 1211.48 C 673.287 1206.7 676.914 1200.8 680.151 1195.78 C 684.192 1198.95 686.373 1200.71 691.369 1203.04 C 698.015 1206.53 721.25 1206.2 717.758 1194 C 712.27 1174.82 677.954 1178.38 673.967 1156.73 C 670.385 1137.28 682.13 1127.2 699.79 1124.28 z"/>
<path transform="translate(0,0)" fill="rgb(80,60,47)" d="M 1267.08 959.273 L 1294.13 959.439 C 1291.9 990.679 1293.13 1034.46 1293.12 1066.61 L 1266.93 1066.78 L 1267.08 959.273 z"/>
<path transform="translate(0,0)" fill="rgb(240,146,12)" d="M 1178.85 1125.09 C 1184.94 1124.79 1191.95 1124.95 1198.13 1124.97 C 1205.51 1135.59 1213.17 1152.05 1219.05 1163.92 C 1226.76 1151.46 1232.38 1137.98 1240.8 1124.93 L 1259.44 1124.98 C 1253.42 1137.2 1245.63 1150.49 1238.91 1162.5 C 1224.82 1184.88 1228.38 1193.41 1228.91 1219.73 L 1208.58 1219.71 C 1209.74 1164.51 1201.99 1172.02 1178.85 1125.09 z"/>
<path transform="translate(0,0)" fill="rgb(240,146,12)" d="M 1113.36 1124.79 L 1175.5 1124.87 C 1175.7 1130.05 1175.69 1135.6 1175.76 1140.82 C 1168.38 1140.57 1161.24 1140.61 1153.86 1140.65 L 1154.08 1197.37 L 1154.15 1220.08 L 1134.97 1219.95 L 1134.67 1140.96 L 1113.12 1140.97 L 1113.36 1124.79 z"/>
<path transform="translate(0,0)" fill="rgb(240,146,12)" d="M 859.293 1124.88 L 916.218 1125.03 L 916.288 1140.79 L 895.906 1140.52 L 896.109 1200.5 L 896.233 1220.28 L 876.136 1220.24 L 876.351 1140.92 L 859.206 1141.06 L 859.293 1124.88 z"/>
<path transform="translate(0,0)" fill="rgb(240,146,12)" d="M 1023.43 1124.92 L 1042.87 1124.92 C 1042.88 1151.49 1042.7 1178.06 1042.32 1204.62 C 1051.49 1204.52 1060.65 1204.52 1069.81 1204.62 L 1070.59 1219.58 C 1066.47 1221.38 1030.41 1220.85 1023.21 1220.92 L 1023.43 1124.92 z"/>
<path transform="translate(0,0)" fill="rgb(240,146,12)" d="M 828.767 1124.92 L 847.785 1124.91 C 848.095 1156.69 847.322 1188.49 847.748 1220.58 C 843.985 1221.04 833.204 1220.71 828.894 1220.69 L 828.767 1124.92 z"/>
<path transform="translate(0,0)" fill="rgb(240,146,12)" d="M 1083.16 1124.27 C 1089.65 1124.15 1096.43 1124.27 1102.94 1124.29 C 1102.39 1156.78 1101.65 1187.14 1101.67 1219.87 C 1096 1220.17 1088.84 1220.06 1083.05 1220.14 L 1083.16 1124.27 z"/>
<path transform="translate(0,0)" fill="rgb(80,60,47)" d="M 1276.89 913.1 C 1282.1 911.826 1287.6 913.48 1291.25 917.421 C 1294.89 921.361 1296.12 926.968 1294.44 932.07 C 1292.77 937.172 1288.47 940.966 1283.19 941.982 C 1275.31 943.502 1267.66 938.458 1265.95 930.618 C 1264.24 922.778 1269.09 915.003 1276.89 913.1 z"/>
</svg>