<svg version="1.1" xmlns="http://www.w3.org/2000/svg" style="display: block;" viewBox="0 0 2048 2048" width="1024" height="1024" preserveAspectRatio="none">
<path transform="translate(0,0)" fill="rgb(250,250,249)" d="M 0 0 L 2048 0 L 2048 2048 L 0 2048 L 0 0 z"/>
<path transform="translate(0,0)" fill="rgb(4,58,94)" d="M 1371.1 590.899 C 1320.37 625.434 1331.57 696.933 1288.29 735.109 C 1255.43 763.655 1214.34 746.9 1225.8 701.562 C 1242.7 634.755 1304 589.417 1370.79 581.906 C 1383.21 580.51 1392.34 566.171 1414.05 572.49 C 1440.43 580.163 1456.23 598.798 1470.45 621.163 C 1502.67 604.82 1542.8 595.549 1578.6 603.291 C 1583.06 611.916 1589.34 620.849 1594.23 629.923 C 1586.79 637.94 1571.79 654.936 1563.55 660.306 C 1567.31 682.073 1574.61 692.013 1590.05 707.172 C 1584.75 715.872 1579.7 723.534 1573.11 731.311 C 1579.51 743.076 1586.6 756.142 1592.35 768.165 C 1590.6 773.432 1589.08 776.126 1586.53 780.945 C 1609.03 820.009 1630.46 858.747 1652.14 898.266 C 1669.47 929.877 1687.33 960.325 1703.95 992.489 C 1817.19 941.163 1905.64 1087.43 1829.05 1188.51 C 1842.93 1214.9 1856.1 1243.61 1868.88 1270.61 C 1874.79 1283.1 1883.98 1301.51 1888.53 1313.9 C 1875.79 1324.82 1847.54 1344.4 1832.9 1352.39 C 1868.21 1356.76 1898.75 1365.58 1930.06 1382.55 C 1727.46 1318.27 1537.95 1365.66 1349.35 1439.37 C 1303.85 1457.16 1197.8 1478.21 1148.67 1474.83 C 1168.14 1470.68 1192.09 1467.92 1212.07 1465.2 C 1183.87 1458.18 1149.69 1457.46 1121.58 1451.89 C 1091.82 1446 1070.93 1434.46 1038.98 1430.67 C 993.376 1425.26 971.652 1440.56 929.304 1448.53 C 897.649 1454.5 866.642 1457.82 834.82 1465.21 C 850.981 1467.67 867.109 1470.34 883.202 1473.21 L 881.034 1476.11 C 844.442 1476.74 749.34 1459.19 715.055 1445.8 C 516.457 1368.23 331.801 1325.7 117.834 1382.5 C 146.107 1368.34 184.091 1359.3 215.628 1355.65 C 215.742 1347.28 217.276 1299.61 214.362 1295.39 C 197.269 1291.38 203.236 1296.19 188.16 1282.05 C 193.905 1271.41 257.393 1187.56 265.949 1180.52 C 275.259 1172.86 291.672 1169 303.05 1164.89 C 305.169 1047.16 311.9 931.401 311.945 812.914 C 304.795 813.205 296.842 815.342 294.929 806.92 C 299.765 799.149 313.131 788.182 319.652 778.707 C 334.37 757.321 348.876 735.738 363.598 714.363 C 369.573 705.688 377.539 693.301 384.422 685.684 C 390.524 693.109 397.973 704.435 403.757 712.665 L 448.542 777.544 C 453.172 784.125 474.199 803.485 467.964 809.591 C 462.518 810.893 455.957 810.096 450.222 809.791 L 458.696 986.117 C 460.592 1026.69 461.525 1067.37 464.387 1107.87 L 475.3 1103.78 C 489.339 1117.32 597.494 1254.67 598.909 1260.08 C 595.758 1267.52 584.522 1269 577.342 1270.57 C 576.704 1308.94 577.929 1351.1 577.987 1390.01 C 601.459 1391.52 611.739 1383.75 631.507 1373.23 C 652.041 1362.3 655.701 1348.45 672.538 1334.98 C 682.98 1326.63 702.22 1331.1 712.787 1324.76 C 719.977 1320.44 725.195 1309.91 733.362 1303.95 C 742.834 1316.55 747.963 1318.19 761.243 1325.84 C 764.428 1327.68 770.197 1333.43 773.111 1336.2 C 774.567 1335.99 776.026 1335.8 777.488 1335.64 C 806.657 1332.49 841.609 1373.34 863.323 1390.64 C 897.456 1383.84 923.984 1384.57 958.01 1382.48 C 1013.17 1379.08 1062.73 1374.15 1118.06 1382.07 C 1143.33 1384.78 1168.23 1388.71 1193.1 1393.74 C 1218.83 1398.95 1235.42 1409.1 1262.08 1404.02 C 1289.81 1398.74 1303.31 1395.55 1326.93 1380.66 C 1340.24 1372.28 1368 1331.62 1376.84 1329.59 C 1380.42 1331.33 1382.09 1334 1384.66 1337.12 C 1406.67 1325.54 1417.22 1324.27 1433.38 1304.02 C 1454.75 1322.23 1456.15 1337.72 1489.8 1338.93 C 1505.78 1339.51 1525.96 1358.13 1538.26 1368.48 C 1545.85 1366.82 1553.78 1365.37 1561.42 1363.85 L 1561.34 1130.74 C 1547.97 1138.13 1535.57 1147.66 1520.54 1155.71 C 1514.46 1152.8 1501.73 1148.39 1500.64 1141.32 C 1506.45 1135.37 1533.19 1119.33 1541.4 1113.7 C 1578.23 1088.45 1620.58 1063.99 1656.5 1037.72 C 1653.21 1029.73 1645.8 1017.34 1641.38 1009.54 L 1614.66 962.509 L 1539.87 827.279 C 1532.17 827.62 1525.96 829.893 1521.5 823.505 C 1523.68 818.814 1529.54 824.214 1531.34 817.242 C 1526.9 800.934 1495.6 774.048 1485.05 760.754 C 1473.83 772.702 1463.47 765.289 1461.41 751.297 C 1443.43 741.073 1453.2 744.097 1452.82 735.005 C 1444.05 728.084 1416.63 747.589 1405.77 746.551 C 1397.62 745.771 1380.7 722.825 1374.46 715.48 C 1388.96 681.282 1418.92 655.462 1448.03 634.092 C 1430.68 606.556 1403.65 590.665 1371.1 590.899 z"/>
<path transform="translate(0,0)" fill="rgb(250,250,249)" d="M 470.26 1139.87 C 473.19 1142.86 476.892 1147.79 479.474 1151.2 C 508.937 1190.13 542.87 1227.55 569.887 1268.15 C 568.971 1306.66 569.586 1348.01 569.384 1386.86 C 540.252 1378.01 510.519 1371.63 480.794 1365.2 C 439.992 1356.8 398.583 1351.7 356.965 1349.94 C 357.034 1337.81 355.832 1275.63 357.869 1269.29 C 359.568 1268.35 363.646 1266.2 364.808 1264.8 C 392.924 1230.85 420.575 1196.47 449.53 1163.21 C 456.406 1155.31 463.078 1147.49 470.26 1139.87 z"/>
<path transform="translate(0,0)" fill="rgb(4,58,94)" d="M 446.846 1268.09 C 454.79 1251.27 478.392 1249.39 490.36 1262.23 C 503.78 1276.63 499.897 1307.61 499.702 1326.75 C 499.73 1328.95 499.71 1328.5 499.226 1330.68 C 496.561 1331.95 447.099 1331.02 439.819 1330.98 C 439.71 1313.62 436.844 1280.86 446.846 1268.09 z"/>
<path transform="translate(0,0)" fill="rgb(250,250,249)" d="M 446.846 1268.09 C 458.044 1257.65 471.108 1254.06 483.443 1266.03 C 495.717 1277.93 491.919 1299.72 492.281 1315.24 C 492.32 1318.14 491.895 1321.27 490.525 1323.77 C 487.154 1324.15 487.043 1324.42 483.954 1322.83 C 481.93 1319.69 482.844 1313.81 483.032 1309.75 C 483.226 1299.32 484.334 1287.02 480.872 1277.38 L 479.379 1276.45 C 475.254 1280.6 476.129 1300 476.132 1306.59 L 446.725 1306.43 C 446.339 1295.36 443.744 1277.31 446.846 1268.09 z"/>
<path transform="translate(0,0)" fill="rgb(250,250,249)" d="M 447.063 1313.35 C 456.648 1313.44 467.053 1311.02 474.336 1314.61 C 476.657 1318.16 475.739 1318.75 475.665 1323.97 C 466.056 1323.82 455.718 1326.05 448.385 1322.62 C 446.117 1318.78 446.982 1318.66 447.063 1313.35 z"/>
<path transform="translate(0,0)" fill="rgb(250,250,249)" d="M 1740.59 991.387 C 1759.57 988.643 1783.35 995.448 1799.29 1005.73 C 1861.86 1046.09 1869.32 1153.66 1805.48 1196.26 C 1792.88 1204.67 1779.2 1208.1 1764.57 1210.93 C 1657.62 1212.48 1613.14 1067.49 1698.48 1006.49 C 1712.25 996.647 1723.96 993.278 1740.59 991.387 z"/>
<path transform="translate(0,0)" fill="rgb(4,58,94)" d="M 1746.74 1005.4 C 1767.12 1003.96 1785.77 1011.12 1801.53 1023.71 C 1862.4 1072.37 1850.76 1190.52 1762.28 1197.92 C 1712.14 1194.52 1673.91 1152.45 1668.86 1103.49 C 1666.44 1079.08 1673.73 1054.69 1689.16 1035.62 C 1704.39 1017.07 1723.19 1007.77 1746.74 1005.4 z"/>
<path transform="translate(0,0)" fill="rgb(250,250,249)" d="M 1741.64 1014.22 C 1762.33 1013.08 1777.2 1017.73 1794.68 1028.74 C 1789.98 1037.87 1780.44 1052 1774.65 1061.04 L 1766.89 1071.66 C 1761.72 1069.88 1757.13 1068.93 1751.82 1067.73 C 1743.63 1051.13 1735.98 1034.27 1728.89 1017.18 C 1733.11 1015.92 1737.33 1015.13 1741.64 1014.22 z"/>
<path transform="translate(0,0)" fill="rgb(250,250,249)" d="M 1779.57 1117.84 C 1786 1121.03 1814.64 1141.8 1822.14 1146.99 C 1815.98 1161.64 1809.39 1169.04 1796.88 1178.21 C 1793.18 1180.48 1788.36 1182.39 1784.33 1184.17 C 1774.47 1166.18 1768.22 1150.18 1760.51 1131.08 C 1768.39 1126.55 1772.71 1123.69 1779.57 1117.84 z"/>
<path transform="translate(0,0)" fill="rgb(250,250,249)" d="M 1749.44 1076.04 C 1777.39 1073.82 1789.6 1121.22 1750.44 1120.92 C 1748.87 1126.7 1746.19 1132.57 1744.31 1138.4 C 1739.84 1152.31 1735.44 1165.87 1730.18 1179.51 L 1729.34 1179.83 C 1725.78 1178.62 1718.09 1172.87 1714.55 1170.41 C 1723.91 1152.84 1735.9 1136.25 1745.62 1118.14 C 1731.09 1103.76 1731.8 1086.95 1749.44 1076.04 z"/>
<path transform="translate(0,0)" fill="rgb(250,250,249)" d="M 1802.15 1035.54 C 1819.99 1052.94 1827.59 1073.92 1830.47 1098.19 C 1822.36 1097.45 1814.24 1096.76 1806.12 1096.13 L 1784.45 1095.54 C 1781.38 1087.21 1779.18 1084 1773.86 1077.39 C 1782.27 1067.78 1794.3 1047.3 1802.15 1035.54 z"/>
<path transform="translate(0,0)" fill="rgb(250,250,249)" d="M 1681.54 1068.27 C 1696.58 1075.4 1711.97 1081.75 1727 1089.05 C 1726.93 1095.5 1727.21 1097.66 1728.19 1103.93 C 1723.81 1106.41 1719.25 1108.47 1714.69 1110.62 C 1703.84 1115.85 1694.24 1120.45 1683.06 1124.96 C 1677.68 1105.49 1679.87 1088.12 1681.54 1068.27 z"/>
<path transform="translate(0,0)" fill="rgb(250,250,249)" d="M 1785.75 1104.64 C 1801.47 1104.76 1815.61 1104.7 1831.27 1106.87 C 1831.09 1119.28 1829.88 1125.72 1826.74 1137.74 L 1824.96 1138.72 C 1812.19 1131.06 1800.97 1121.16 1785.11 1111.9 C 1783.91 1109.01 1784.8 1108.46 1785.75 1104.64 z"/>
<path transform="translate(0,0)" fill="rgb(250,250,249)" d="M 1696.81 1039.77 C 1703.22 1045.92 1725.65 1071.52 1727.74 1079.65 L 1726.39 1080.12 L 1722.64 1078.03 C 1710.13 1071.45 1697.2 1065.71 1683.92 1060.84 C 1687.85 1052.12 1690.93 1047.1 1696.81 1039.77 z"/>
<path transform="translate(0,0)" fill="rgb(250,250,249)" d="M 1729.97 1112.9 C 1731.05 1113.6 1730.45 1113.08 1731.41 1114.79 C 1729.53 1120.12 1701.56 1149.99 1696.97 1151.26 L 1694.36 1148.44 C 1690.55 1142.41 1688.91 1139.87 1686.1 1133.27 C 1698.07 1128.76 1717.81 1118.66 1729.97 1112.9 z"/>
<path transform="translate(0,0)" fill="rgb(250,250,249)" d="M 1746.6 1158.72 C 1749.41 1161.43 1758.89 1183.46 1760.65 1188.17 L 1760.09 1188.95 L 1755.77 1188.92 C 1750.05 1187.79 1743.88 1185.72 1738.25 1184.02 C 1741.16 1175.97 1743.92 1166.92 1746.6 1158.72 z"/>
<path transform="translate(0,0)" fill="rgb(250,250,249)" d="M 1752.99 1139.48 C 1755.38 1141.85 1772.96 1180.04 1774.39 1185.62 C 1774.84 1187.4 1774.2 1187.33 1772.81 1189.21 C 1772.38 1189.03 1769.73 1187.57 1769.7 1187.48 C 1764.33 1174.77 1757.86 1162.18 1752 1149.72 C 1749.76 1144.95 1751.09 1144.54 1752.99 1139.48 z"/>
<path transform="translate(0,0)" fill="rgb(250,250,249)" d="M 1723.01 1056.95 C 1719.75 1052.35 1703.87 1035.19 1704.17 1032.22 L 1707.91 1029.19 C 1711.83 1030.61 1721.31 1050.34 1724.53 1055.85 L 1723.01 1056.95 z"/>
<path transform="translate(0,0)" fill="rgb(250,250,249)" d="M 1718 1020.48 C 1724.07 1023.45 1739.47 1059.94 1741.15 1067.42 C 1736.44 1060.79 1718.61 1027.69 1718 1020.48 z"/>
<path transform="translate(0,0)" fill="rgb(250,250,249)" d="M 1721.89 1140.93 C 1721.79 1144.83 1710.29 1162.36 1706.54 1163.99 L 1704.68 1161.19 C 1704.73 1156.53 1717.68 1145.23 1721.89 1140.93 z"/>
<path transform="translate(0,0)" fill="rgb(112,207,228)" d="M 1724.53 1055.85 C 1728.91 1062.92 1731.55 1067.24 1734.97 1074.75 C 1730.41 1069.91 1726.41 1062.76 1723.01 1056.95 L 1724.53 1055.85 z"/>
<path transform="translate(0,0)" fill="rgb(250,250,249)" d="M 1026.09 1386.57 C 1072.16 1383.39 1132.41 1391.59 1178.05 1399.44 C 1197.48 1402.78 1218.75 1409.92 1237.95 1413.58 C 1273.42 1420.34 1310.57 1427.38 1346.45 1430.57 C 1316.94 1442.26 1262.43 1453.97 1229.77 1459.93 C 1225.3 1460.74 1199.66 1454.44 1192.68 1453.22 C 1170.19 1449.29 1132.43 1447.4 1111.32 1441.18 C 1074.16 1430.23 1061.37 1422.94 1021.17 1421.56 C 983.712 1421.87 978.561 1428.59 943.285 1437.31 C 916.749 1443.87 883.946 1447.54 856.66 1453.02 C 847.173 1453.76 828.642 1461.39 820.038 1460.54 C 781.186 1456.74 738.562 1444.11 701.842 1432.78 L 811.304 1409.67 C 836.29 1404.48 865.515 1398.07 890.576 1394.68 C 907.003 1392.46 933.197 1392.18 950.36 1391.34 C 975.612 1389.9 1000.86 1388.31 1026.09 1386.57 z"/>
<path transform="translate(0,0)" fill="rgb(250,250,249)" d="M 364.48 951.348 L 448.95 951.235 C 449.234 969.559 451.045 989.17 451.662 1007.64 C 452.807 1041.94 454.883 1075.85 457.209 1110.07 C 449.231 1112.53 441.61 1115.25 433.751 1118.03 L 363.727 1142.08 L 364.48 951.348 z"/>
<path transform="translate(0,0)" fill="rgb(250,250,249)" d="M 450.397 1120 L 451.378 1120.21 C 450.802 1122.59 431.202 1142.95 427.777 1146.78 C 399.089 1179.44 370.765 1212.42 342.809 1245.71 C 326.912 1249.95 306.045 1253.42 289.585 1256.52 C 262.455 1261.75 235.268 1266.67 208.028 1271.29 L 206.732 1270.59 C 207.424 1267.52 228.099 1240.75 232.146 1235.83 C 245.165 1220.02 257.356 1199.83 271.567 1185.56 C 276.769 1180.34 311.038 1171.37 318.919 1167.29 C 361.546 1150.43 408.035 1136.73 450.397 1120 z"/>
<path transform="translate(0,0)" fill="rgb(250,250,249)" d="M 366.197 806.936 C 391.028 806.915 417.585 807.982 442.419 808.913 C 444.119 847.631 446.216 901.716 447.916 941.52 C 447.528 942.172 447.139 942.824 446.75 943.476 C 419.601 944.011 391.872 943.882 364.678 944.017 C 364.598 898.319 365.104 852.621 366.197 806.936 z"/>
<path transform="translate(0,0)" fill="rgb(250,250,249)" d="M 318.156 952.221 C 330.045 951.6 344.593 951.807 356.689 951.662 C 355.779 1016.09 355.461 1080.53 355.735 1144.96 L 340.756 1150.93 L 311.174 1161.99 C 313.596 1093.28 314.011 1020.42 318.156 952.221 z"/>
<path transform="translate(0,0)" fill="rgb(250,250,249)" d="M 1352.77 593.252 L 1353.97 593.289 L 1354.36 594.467 C 1351.13 598.62 1347.6 602.276 1344.35 606.407 C 1321.9 634.967 1318.3 670.814 1302.38 702.617 C 1291.45 724.454 1267.16 751.454 1240.37 736.987 C 1221.91 719.14 1239.35 682.043 1250.67 664.74 C 1275.49 626.819 1308.94 602.992 1352.77 593.252 z"/>
<path transform="translate(0,0)" fill="rgb(4,58,94)" d="M 1320.24 618.656 C 1322.34 619.54 1321.56 619.053 1323.05 621.034 C 1321.86 624.884 1317.12 626.954 1313.82 629.763 C 1302.82 639.107 1291.18 650.771 1284.91 663.932 C 1282.16 669.72 1282.55 673.873 1278.47 679.287 L 1275.02 677.401 C 1266.48 662.175 1308.75 626.063 1320.24 618.656 z"/>
<path transform="translate(0,0)" fill="rgb(4,58,94)" d="M 1309.57 642.502 L 1311.69 643.349 C 1311.49 645.829 1304.58 658.675 1302.82 662.536 C 1302.17 662.587 1301.54 662.235 1300.9 662.048 C 1299.43 655.902 1305.81 647.06 1309.57 642.502 z"/>
<path transform="translate(0,0)" fill="rgb(250,250,249)" d="M 1577.73 782.942 C 1581.76 787.232 1599.5 821.224 1603.7 828.695 L 1656.09 922.843 C 1669.78 947.455 1684.34 972.769 1696.68 997.991 C 1690.78 1002.01 1678.53 1013.6 1674.94 1015.44 L 1673.13 1013.95 C 1648.01 967.864 1622.24 922.142 1595.82 876.793 C 1581.68 852.64 1561.85 821.84 1549.72 797.808 C 1558.32 792.894 1568.85 787.647 1577.73 782.942 z"/>
<path transform="translate(0,0)" fill="rgb(250,250,249)" d="M 677.82 1341.57 C 683.743 1343.45 697.797 1367.28 704.775 1371.4 C 709.792 1374.36 718.22 1370.91 723.85 1369.3 C 733.92 1379.39 735.119 1380.02 748.188 1384.7 C 751.282 1397.32 754.605 1402.21 762.422 1412.35 C 738.496 1417.07 713.237 1422.49 689.215 1425.71 C 684.304 1425.34 653.504 1413.97 645.879 1411.36 C 630.898 1406.17 615.783 1401.39 600.55 1397 C 618.197 1390.55 645.835 1376.87 658.822 1362.66 C 666.123 1354.68 667.183 1348.55 677.82 1341.57 z"/>
<path transform="translate(0,0)" fill="rgb(250,250,249)" d="M 730.962 1316.51 C 734.646 1318.17 747.155 1327.22 751.955 1329.66 C 757.057 1332.25 765.889 1340.97 770.992 1345.05 C 772.711 1344.85 780.333 1343.98 781.541 1344.03 C 804.914 1344.95 836.177 1377.43 852.502 1392.52 L 803.77 1402.84 L 771.912 1409.5 C 759.332 1397.33 760.056 1395.44 754.281 1379.19 C 751.488 1377.76 745.727 1375.6 743.477 1374.06 C 728.001 1363.51 727.627 1361.35 710.413 1366.36 C 706.086 1358.84 690.228 1344.07 688.51 1338.93 L 689.506 1337.09 C 712.864 1335.1 716.018 1339.19 730.962 1316.51 z"/>
<path transform="translate(0,0)" fill="rgb(250,250,249)" d="M 1748.02 1217.79 C 1754.85 1218.9 1759.57 1218.92 1766.49 1219.07 C 1788.45 1260.81 1807.41 1304.21 1828.35 1346.45 C 1829.26 1348.3 1831.53 1350.67 1833.05 1352.13 C 1824.61 1351.44 1813.89 1349.52 1805.1 1348.53 C 1786.13 1346.38 1767.07 1345.15 1747.99 1344.85 L 1748.02 1217.79 z"/>
<path transform="translate(0,0)" fill="rgb(250,250,249)" d="M 1374.79 1341.75 C 1376.56 1343.47 1382.53 1351.74 1385.7 1354.98 C 1401.3 1370.95 1409.4 1371.04 1429.98 1371.41 C 1435.33 1377.38 1442.7 1387.43 1448.04 1394.06 C 1432.15 1398.89 1416.4 1404.19 1400.83 1409.96 C 1387.91 1414.75 1374.12 1420.35 1360.8 1423.79 C 1358.21 1424.46 1351.9 1423.57 1349.02 1423.21 C 1322.05 1419.13 1297.28 1416.48 1270 1410.99 C 1330.79 1402.11 1338.4 1380.88 1374.79 1341.75 z"/>
<path transform="translate(0,0)" fill="rgb(250,250,249)" d="M 472.386 1112.79 C 477.065 1114.76 578.855 1243.41 590.364 1258.48 C 586.189 1259.91 581.181 1261.28 576.892 1262.58 C 564.594 1246.29 481.367 1137.58 470.677 1131.55 C 460.56 1133.63 398.155 1212.15 387 1225.64 C 377.608 1237.2 368.012 1248.59 358.217 1259.81 C 346.037 1260.02 326.663 1263.92 314.1 1266.09 C 278.248 1272.07 242.624 1279.35 207.3 1287.91 C 204.069 1285.66 200.5 1282.37 197.47 1279.74 C 240.218 1274.42 282.395 1265.13 324.852 1257.91 C 332.627 1256.58 340.124 1255.33 347.643 1252.85 C 357.469 1242.65 371.55 1224.66 381.008 1213.39 C 398.433 1192.77 416.055 1172.3 433.871 1152.01 C 444.349 1140 459.387 1121.05 472.386 1112.79 z"/>
<path transform="translate(0,0)" fill="rgb(250,250,249)" d="M 1540.58 609.408 C 1565.6 605.872 1571.56 607.097 1583.08 628.992 C 1577.88 634.929 1572.61 640.809 1567.28 646.631 C 1561.61 641.072 1556.51 635.899 1550.21 630.988 C 1501.06 630.134 1439.19 665.092 1414.79 707.752 C 1409.76 717.756 1406.16 726.827 1404.41 737.863 C 1398.24 730.018 1390.34 722.115 1383.69 713.793 C 1387.57 706.124 1397.31 692.158 1403 685.701 C 1440.51 643.136 1483.73 614.849 1540.58 609.408 z"/>
<path transform="translate(0,0)" fill="rgb(250,250,249)" d="M 350.991 807.41 C 353.831 806.871 354.112 807.027 357.044 807.277 C 359.082 810.784 356.767 931.244 356.67 944.089 L 325.75 944.157 C 322.18 944.247 322.081 944.717 319.208 943.169 C 318.172 933.756 318.958 909.66 319.013 898.858 L 319.38 812.047 C 329.857 810.113 340.401 808.567 350.991 807.41 z"/>
<path transform="translate(0,0)" fill="rgb(250,250,249)" d="M 1534.33 639.355 C 1537.9 638.794 1543.32 638.824 1547.08 638.71 C 1550.71 642.464 1554.66 647.085 1558.18 651.037 C 1554.28 659.376 1555.22 663.391 1557.44 671.869 C 1517.74 680.441 1486.98 698.159 1459.84 728.307 C 1449.88 716.796 1441.52 707.243 1431.94 695.321 C 1462.21 664.553 1490.43 645.458 1534.33 639.355 z"/>
<path transform="translate(0,0)" fill="rgb(250,250,249)" d="M 331.073 1271.45 C 332.871 1273.81 332.014 1340.44 331.988 1349.09 C 292.546 1349 262.792 1350.6 223.424 1354.42 C 223.088 1338.52 223.336 1321.72 223.311 1305.75 L 223.177 1291.88 L 248.899 1286.26 L 248.941 1335.7 C 261.407 1334.75 286.811 1331.1 298.955 1328.79 C 299.287 1311.42 299.429 1294.05 299.381 1276.68 C 309.527 1275.27 320.878 1273.15 331.073 1271.45 z"/>
<path transform="translate(0,0)" fill="rgb(250,250,249)" d="M 1433.86 1316.78 C 1441.23 1323.43 1446.99 1332.83 1456.68 1338.64 C 1471.57 1347.58 1486.73 1344.36 1501.73 1351.03 C 1511.28 1355.28 1520.4 1364.14 1527.98 1371.23 C 1510.95 1375.7 1493.99 1380.4 1477.09 1385.32 L 1457.45 1391.04 C 1450.78 1384.53 1445.55 1377.83 1439.55 1370.91 C 1432.43 1362.71 1426 1361.41 1415.45 1361.33 C 1401.96 1361.23 1395.16 1353.3 1386.64 1343.85 C 1406.38 1335.85 1419.25 1332.38 1433.86 1316.78 z"/>
<path transform="translate(0,0)" fill="rgb(250,250,249)" d="M 1821.51 1194.76 C 1825.34 1197.17 1871.56 1296.79 1878.48 1311.47 C 1869.42 1317.97 1860.31 1324.41 1851.16 1330.8 C 1843.96 1319.07 1834.01 1296.12 1827.84 1283.07 C 1816.4 1259.42 1804.73 1235.88 1792.85 1212.46 C 1805.29 1207.22 1810.68 1203.15 1821.51 1194.76 z"/>
<path transform="translate(0,0)" fill="rgb(250,250,249)" d="M 384.793 699.645 C 392.187 705.165 435.636 772.465 445.073 785.285 C 437.112 784.419 431.143 784.189 423.107 784.021 C 401.906 784.043 380.706 783.879 359.508 783.53 C 362.198 768.418 367.883 753.294 372.545 738.659 C 376.679 725.68 380.47 712.539 384.793 699.645 z"/>
<path transform="translate(0,0)" fill="rgb(250,250,249)" d="M 1555 728.08 C 1558.24 727.643 1558.17 727.399 1561.1 728.664 C 1567.69 735.441 1579.37 761.094 1582.96 770.514 C 1565.35 779.194 1547.2 789.304 1529.61 798.42 C 1526.97 794.439 1521 787.275 1517.93 783.678 C 1502.39 765.471 1489.95 763.171 1516.89 745.915 C 1529.44 737.868 1540.48 732.933 1555 728.08 z"/>
<path transform="translate(0,0)" fill="rgb(250,250,249)" d="M 1645.84 1075.03 C 1646.73 1076.24 1644.78 1094.57 1645.14 1100.27 C 1646.41 1120.03 1649.1 1132.27 1657.46 1150.1 L 1602.37 1149.99 L 1587.66 1150.03 L 1587.72 1113.76 C 1606.67 1100.7 1626.65 1088.05 1645.84 1075.03 z"/>
<path transform="translate(0,0)" fill="rgb(250,250,249)" d="M 1543.15 800.774 C 1543.23 800.782 1543.32 800.79 1543.41 800.797 C 1544.06 801.045 1544.72 801.293 1545.37 801.54 C 1548.19 806.446 1552.7 814.078 1555.49 818.705 C 1584.54 867.004 1612.78 915.789 1640.19 965.041 C 1650.34 983.407 1661.55 1002.57 1670.99 1021.17 L 1663.28 1031.39 C 1660.06 1028.46 1639.5 989.079 1636.07 982.841 L 1581.48 884.084 C 1568.06 859.808 1550.83 827.504 1534.75 805.44 L 1543.15 800.774 z"/>
<path transform="translate(0,0)" fill="rgb(250,250,249)" d="M 1663.55 1306.46 L 1674.3 1306.06 C 1657.41 1317.59 1630.97 1341.94 1616.36 1350.69 L 1614.75 1351.63 C 1609.6 1354.7 1604.61 1355.16 1598.66 1356.22 C 1595.54 1356.91 1590.58 1358.43 1588.04 1356.93 C 1586.81 1345.69 1587.58 1319.4 1587.61 1307.05 C 1612.92 1307.07 1638.24 1306.88 1663.55 1306.46 z"/>
<path transform="translate(0,0)" fill="rgb(250,250,249)" d="M 1587.44 1189.65 C 1587.27 1186.52 1586.82 1185.23 1587.78 1182.41 C 1592.81 1184.15 1638.67 1223.54 1643.35 1228.27 L 1643.29 1229.72 C 1641.21 1231.07 1641.09 1231.33 1638.74 1231.95 C 1637.4 1233.18 1636.62 1233.79 1635.46 1235.2 C 1625.53 1244.77 1600.47 1262.13 1587.95 1272.62 C 1587.85 1250.15 1588.63 1216.49 1586.95 1195 C 1586.9 1193.5 1587.26 1191.21 1587.44 1189.65 z"/>
<path transform="translate(0,0)" fill="rgb(250,250,249)" d="M 1587.44 1189.65 C 1587.27 1186.52 1586.82 1185.23 1587.78 1182.41 C 1592.81 1184.15 1638.67 1223.54 1643.35 1228.27 L 1643.29 1229.72 C 1641.21 1231.07 1641.09 1231.33 1638.74 1231.95 C 1637.4 1233.18 1636.62 1233.79 1635.46 1235.2 C 1621.11 1222.48 1602.02 1203.82 1588.28 1192.54 L 1586.95 1195 C 1586.9 1193.5 1587.26 1191.21 1587.44 1189.65 z"/>
<path transform="translate(0,0)" fill="rgb(4,58,94)" d="M 1587.44 1189.65 C 1596.71 1193.93 1632.96 1225.16 1638.74 1231.95 C 1637.4 1233.18 1636.62 1233.79 1635.46 1235.2 C 1621.11 1222.48 1602.02 1203.82 1588.28 1192.54 L 1586.95 1195 C 1586.9 1193.5 1587.26 1191.21 1587.44 1189.65 z"/>
<path transform="translate(0,0)" fill="rgb(250,250,249)" d="M 1594.78 1174.14 C 1615.97 1172.6 1649.17 1173.65 1670.99 1173.71 C 1677.24 1182.04 1682.82 1186.96 1690.66 1193.7 C 1685.52 1197.77 1679.87 1201.84 1674.6 1205.79 L 1651.25 1223.66 C 1632.88 1206.66 1612.68 1190.89 1594.78 1174.14 z"/>
<path transform="translate(0,0)" fill="rgb(250,250,249)" d="M 1577.12 1119.7 L 1578.51 1120.07 C 1579.21 1124.1 1578.81 1140.44 1578.78 1145.25 C 1578.66 1162.12 1578.63 1178.99 1578.68 1195.86 L 1578.84 1303.21 C 1578.86 1319.43 1579.69 1344.17 1578.57 1359.26 C 1575.85 1361.43 1575.04 1360.91 1571.06 1361.61 C 1570.06 1360.39 1569.83 1147.28 1570.23 1126.22 C 1571.68 1123.06 1574.23 1121.78 1577.12 1119.7 z"/>
<path transform="translate(0,0)" fill="rgb(250,250,249)" d="M 1712.21 1207.76 L 1720.34 1210.82 L 1720.03 1277.16 C 1713.54 1271.6 1705.46 1265.56 1698.67 1260.2 C 1689.56 1252.99 1680.5 1245.7 1671.5 1238.35 C 1684.68 1227.64 1698.26 1217.44 1712.21 1207.76 z"/>
<path transform="translate(0,0)" fill="rgb(250,250,249)" d="M 1785.65 1213.98 L 1786.96 1213.98 C 1791.22 1215.88 1840.66 1321.7 1846.22 1334.35 L 1836.45 1340.21 L 1835.44 1340.11 C 1832.59 1337.82 1816.45 1300.86 1813.19 1293.97 C 1805.63 1278.1 1797.91 1262.29 1790.03 1246.57 C 1786.07 1238.69 1779.11 1225.93 1776.33 1218.29 C 1778.5 1215.89 1782.42 1215.04 1785.65 1213.98 z"/>
<path transform="translate(0,0)" fill="rgb(250,250,249)" d="M 1655.27 1250.67 C 1660.21 1252.34 1692.9 1282.18 1698.37 1287 L 1651.84 1286.95 L 1606.67 1287.13 C 1623.33 1275.61 1639.54 1263.45 1655.27 1250.67 z"/>
<path transform="translate(0,0)" fill="rgb(250,250,249)" d="M 1710.41 1306.21 L 1720.97 1306.24 L 1721.07 1344.71 C 1699.37 1344.8 1683.56 1345.42 1661.75 1347.14 L 1651.37 1348.09 C 1671.07 1335.22 1692.43 1321.14 1710.41 1306.21 z"/>
<path transform="translate(0,0)" fill="rgb(250,250,249)" d="M 1651.85 1051.06 C 1652.98 1053.69 1649.99 1060.5 1648.86 1064.08 C 1606.81 1089.91 1566.29 1119.84 1523.58 1144.67 C 1521.6 1145.81 1519.41 1145.5 1517.25 1145.2 L 1514.6 1142.77 C 1515.3 1141.15 1639.56 1059.18 1651.85 1051.06 z"/>
<path transform="translate(0,0)" fill="rgb(250,250,249)" d="M 1698.73 1199.87 C 1701.09 1200.83 1702 1201.54 1704.14 1202.89 L 1704.42 1204.29 C 1684.95 1220.2 1661.27 1236.56 1641.09 1252.13 C 1629.05 1261.42 1606.02 1279.59 1593.86 1286.94 C 1590.04 1287.61 1591.65 1288 1588.72 1286.6 L 1588.56 1284.34 C 1594.29 1274.83 1683.45 1210.34 1698.73 1199.87 z"/>
<path transform="translate(0,0)" fill="rgb(250,250,249)" d="M 1729.58 1214.27 L 1738.72 1216.49 L 1738.5 1344.71 C 1734.99 1344.84 1734.75 1344.93 1731.16 1344.21 C 1729.33 1340.84 1729.16 1229.1 1729.58 1214.27 z"/>
<path transform="translate(0,0)" fill="rgb(250,250,249)" d="M 1561.72 694.157 L 1565.03 693.873 C 1568.42 695.234 1569.55 698.018 1571.61 701.23 C 1532.68 708.454 1503.86 726.562 1477.26 755.37 C 1474.75 757.842 1476.21 757.246 1472.78 757.332 L 1471.37 755.952 C 1469.44 748.306 1477.48 741.264 1482.81 736.341 C 1506.75 714.232 1530.24 701.456 1561.72 694.157 z"/>
<path transform="translate(0,0)" fill="rgb(250,250,249)" d="M 371.704 715.816 C 372.239 719.363 353.678 775.072 351.34 783.509 C 341.87 785.437 332.383 787.282 322.88 789.046 C 323.206 784.92 365.834 724.177 371.704 715.816 z"/>
<path transform="translate(0,0)" fill="rgb(250,250,249)" d="M 1557.42 680.16 L 1558.34 680.285 C 1560.38 681.981 1560.27 681.825 1561.04 684.364 C 1558.37 688.263 1540.22 691.655 1534.61 693.991 C 1506.92 705.511 1485.46 722.932 1464.72 744.238 C 1462.67 743.394 1461.38 742.089 1460.52 740.148 C 1461.46 735.798 1470.59 727.719 1473.95 724.48 C 1498.17 701.159 1525.01 688.158 1557.42 680.16 z"/>
<path transform="translate(0,0)" fill="rgb(250,250,249)" d="M 1591.45 1294.55 C 1605.85 1293.95 1714.86 1292.21 1720.73 1295.62 C 1721.56 1298.47 1721.67 1297.12 1720.43 1299.8 L 1717.25 1300.08 L 1628.97 1300.04 C 1621.64 1300.06 1591.62 1302.4 1587.87 1298.29 L 1588.52 1295.54 L 1591.45 1294.55 z"/>
<path transform="translate(0,0)" fill="rgb(250,250,249)" d="M 346.042 1267.63 L 349.363 1268.42 C 350.998 1275.16 348.91 1334.14 349.491 1345.09 C 349.688 1348.79 348.788 1348.89 346.529 1350.78 C 344.115 1350.01 342.621 1349.38 340.309 1348.41 C 339.547 1343.64 339.833 1328.82 339.819 1323.29 L 339.686 1271.49 C 341.289 1268.58 341.926 1269.2 346.042 1267.63 z"/>
<path transform="translate(0,0)" fill="rgb(250,250,249)" d="M 358.88 790.926 C 383.669 790.951 444.252 787.148 460.273 803.014 C 434.018 800.131 407.52 799.747 381.131 799.396 C 374.545 799.309 367.904 799.566 361.367 798.643 C 359.399 796.774 359.372 793.804 358.88 790.926 z"/>
<path transform="translate(0,0)" fill="rgb(250,250,249)" d="M 270.371 1282.32 L 271.539 1282.23 C 274.354 1285.25 272.768 1317.95 272.578 1324.44 L 260.227 1326.94 C 259.022 1327.05 258.715 1326.83 257.471 1326.55 C 255.675 1320.96 256.612 1292.14 256.717 1284.71 L 270.371 1282.32 z"/>
<path transform="translate(0,0)" fill="rgb(250,250,249)" d="M 1426.23 701.634 C 1431.44 704.476 1442.14 719.915 1445.99 725.085 C 1436.85 727.479 1430.99 729.597 1422.09 732.976 C 1417.33 734.892 1411.84 736.405 1406.89 737.913 C 1411.84 724.327 1416.9 712.805 1426.23 701.634 z"/>
<path transform="translate(0,0)" fill="rgb(250,250,249)" d="M 1570.17 709.238 C 1572.79 708.849 1573.86 708.388 1576.3 709.303 C 1578 714.733 1573.9 718.402 1569.67 721.12 C 1563.01 719.052 1560.34 717.998 1553.58 720.068 C 1533.06 726.342 1513.76 737.623 1498.65 752.674 C 1496.42 755.157 1496.35 755.424 1493.45 757.302 L 1490.98 756.282 C 1489.85 750.104 1507.22 738.009 1511.71 734.698 C 1529.28 721.761 1548.95 713.8 1570.17 709.238 z"/>
<path transform="translate(0,0)" fill="rgb(250,250,249)" d="M 1587.19 1157.82 L 1661.92 1158.23 C 1663.44 1160.67 1665.31 1162.9 1665.3 1165.62 C 1650.46 1165.88 1635.18 1165.61 1620.29 1165.7 C 1611.01 1165.76 1597.25 1166.23 1588.48 1165.28 C 1586.56 1162.43 1587.26 1162 1587.19 1157.82 z"/>
<path transform="translate(0,0)" fill="rgb(250,250,249)" d="M 291.107 1278.4 C 293.01 1280.83 292.096 1316.97 291.6 1321.78 C 289.273 1323.58 284.497 1323.73 281.303 1324.12 C 279.634 1321.29 280.585 1286.54 280.633 1280.47 L 291.107 1278.4 z"/>
<path transform="translate(0,0)" fill="rgb(250,250,249)" d="M 1687.2 1306.06 C 1690.69 1305.95 1695 1305.5 1698.17 1306.59 C 1697.32 1307.77 1644.38 1345.22 1638.92 1349.02 C 1635.6 1350.32 1635.55 1350.5 1631.85 1350.68 L 1631.96 1349.61 C 1641.34 1340.17 1675.75 1314.26 1687.2 1306.06 z"/>
<path transform="translate(0,0)" fill="rgb(250,250,249)" d="M 1664.35 1242.45 C 1672.47 1247.8 1709.1 1277.88 1714.58 1285.54 L 1713.7 1287.25 C 1710.33 1287.19 1709.87 1287.24 1706.47 1286.48 C 1699.65 1280.27 1664.52 1250.9 1661.64 1246.23 L 1664.35 1242.45 z"/>
<path transform="translate(0,0)" fill="rgb(250,250,249)" d="M 350.357 791.302 L 351.534 791.647 C 352.452 794.793 352.869 795.587 352.606 798.927 C 348.035 801.624 314.768 805.057 307.151 805.994 C 305.438 805.781 306.268 806.055 304.688 805.104 C 317.065 795.082 334.383 794.212 350.357 791.302 z"/>
<path transform="translate(0,0)" fill="rgb(250,250,249)" d="M 1384.2 583.42 C 1393.54 582.303 1396.35 583.314 1405.36 585.677 C 1421.69 589.96 1449.54 616.143 1456.4 630.275 C 1449.99 627.76 1431.4 601.013 1418.6 594.761 C 1404.25 587.759 1399.61 587.233 1384.2 583.42 z"/>
<path transform="translate(0,0)" fill="rgb(250,250,249)" d="M 1409.75 580.275 C 1429.11 583.953 1457.65 606.886 1462.4 626.164 C 1457.35 622.93 1450.42 611.652 1445.94 606.531 C 1434.81 593.774 1424.57 587.707 1409.75 580.275 z"/>
<path transform="translate(0,0)" fill="rgb(112,207,228)" d="M 473.993 844.379 C 486.7 843.678 504.874 844.182 518.021 844.175 L 600.329 844.164 L 855.746 844.454 L 1506.74 844.813 C 1512.74 844.866 1519.71 844.354 1523.86 848.605 C 1525.25 851.836 1524.78 852.956 1524.27 856.422 C 1518.87 857.295 1504.17 857.024 1498.1 857.012 L 1453.5 856.898 L 1282.17 856.512 L 648.239 857.197 L 534.357 857.055 C 517.973 857.019 501.639 857.125 485.26 857.219 C 479.15 857.254 472.712 856.617 470.957 850.171 C 471.855 846.807 471.732 847.021 473.993 844.379 z"/>
<path transform="translate(0,0)" fill="rgb(4,58,94)" d="M 1082.38 928.194 C 1156.98 922.868 1168.04 1023.96 1099.12 1037.69 C 1117.31 1049.12 1125.89 1048.3 1141.88 1034.06 C 1148.19 1042.31 1156.62 1049.31 1161.88 1057.72 C 1162.71 1059.04 1161.49 1060.08 1160.36 1062.12 L 1151.2 1071.59 C 1146.83 1067.47 1142.29 1062.76 1138.01 1058.48 C 1134.9 1060.08 1131.48 1061.74 1128.3 1062.6 C 1100.47 1070.05 1091.43 1054.33 1074.05 1037.81 C 1069.57 1034.37 1063.75 1031.71 1058.96 1028.85 C 1033.7 1013.73 1029.34 976.224 1044.89 952.711 C 1054.24 938.56 1066.33 931.442 1082.38 928.194 z"/>
<path transform="translate(0,0)" fill="rgb(250,250,249)" d="M 1083.33 948.798 C 1102.45 944.909 1121.11 957.249 1125.01 976.366 C 1128.91 995.483 1116.58 1014.14 1097.46 1018.06 C 1078.33 1021.97 1059.65 1009.63 1055.75 990.499 C 1051.84 971.365 1064.19 952.69 1083.33 948.798 z"/>
<path transform="translate(0,0)" fill="rgb(112,207,228)" d="M 600.45 1196.26 L 1230.96 1196.1 L 1411.92 1196.13 C 1439.55 1196.19 1467.44 1196.44 1495.08 1196.38 C 1498.51 1196.38 1502.02 1196.96 1504.88 1198.92 C 1506.04 1202.44 1506 1200.62 1504.29 1204.55 L 1501.25 1205.04 L 855.268 1205.27 L 681.726 1205.53 L 632.054 1205.68 C 623.708 1205.78 602.327 1208.35 597.325 1202.08 C 597.644 1198.48 597.576 1199.58 600.45 1196.26 z"/>
<path transform="translate(0,0)" fill="rgb(4,58,94)" d="M 473.862 819.973 C 498.774 819.219 528.759 820.06 554.015 820.11 L 709.031 820.266 L 1181.46 820.223 L 1410.48 819.996 C 1424.54 819.975 1498.83 818.333 1507.3 821.135 C 1509.42 824.004 1508.74 823.655 1509.09 827.861 C 1478.66 828.508 1445.74 827.922 1415.11 827.936 L 1256.4 828.23 L 808 828.4 L 578.329 828.101 L 513.332 827.951 C 503.848 827.926 485.502 828.308 476.535 827.083 C 473.9 824.602 474.674 824.466 473.862 819.973 z"/>
<path transform="translate(0,0)" fill="rgb(4,58,94)" d="M 604.601 1224.27 C 666.268 1222.73 734.949 1224.21 797.225 1224.17 L 1196.63 1224.14 L 1407.08 1224.15 L 1469.56 1224.12 C 1477.79 1224.09 1506 1221.86 1510.8 1227.67 C 1509.89 1230.97 1510.75 1229.53 1507.66 1231.84 L 900.617 1231.42 L 696.464 1231.89 C 668.588 1231.87 640.621 1231.63 612.733 1232.15 C 608.859 1232.22 606.143 1231.92 603.184 1229.57 C 602.955 1226 602.674 1227.75 604.601 1224.27 z"/>
<path transform="translate(0,0)" fill="rgb(4,58,94)" d="M 722.836 928.884 C 739.592 928.775 766.876 926.663 781.502 934.524 C 790.046 939.084 796.339 946.957 798.905 956.295 C 805.571 980.081 794.709 1000.24 770.921 1006.79 C 763.041 1008.33 750.976 1008.17 742.644 1008.33 C 742.262 1017.55 742.459 1027.83 742.438 1037.13 L 722.24 1037.06 C 722.77 1001 722.968 964.944 722.836 928.884 z"/>
<path transform="translate(0,0)" fill="rgb(250,250,249)" d="M 742.828 947.02 C 752.6 946.896 761.488 946.225 770.306 951.318 C 784.093 959.28 783.293 973.387 774.916 985.159 C 764.231 993.647 756.238 992.008 742.833 991.862 L 742.828 947.02 z"/>
<path transform="translate(0,0)" fill="rgb(4,58,94)" d="M 916.577 926.56 C 924.12 929.229 976.511 984.447 985.932 994.097 L 985.801 928.659 C 992.191 928.528 999.029 928.66 1005.46 928.667 C 1005.1 953.562 1005.01 978.459 1005.18 1003.36 C 1005.19 1013.73 1005.42 1025.06 1005.01 1035.46 C 1004.9 1038.08 1004.3 1037.92 1002.57 1039.13 C 1000.15 1037.19 983.851 1019.42 980.579 1015.97 C 965.973 1000.3 950.854 985.123 935.248 970.455 C 936.298 991.803 935.932 1015.45 936.023 1036.97 L 916.636 1036.95 L 916.313 965.636 C 916.247 954.586 915.643 936.825 916.577 926.56 z"/>
<path transform="translate(0,0)" fill="rgb(4,58,94)" d="M 568.458 921.668 C 572.967 925.882 613.876 1022.51 620.067 1036.81 L 598.765 1036.78 C 596.324 1030.56 593.68 1024.42 590.839 1018.37 L 572.25 1018.54 L 546.446 1018.84 C 543.611 1024.12 540.673 1031.43 538.238 1037.06 L 516.743 1037.02 C 533.741 998.359 551.626 960.26 568.458 921.668 z"/>
<path transform="translate(0,0)" fill="rgb(250,250,249)" d="M 568.278 964.583 C 571.717 967.549 582.241 997.098 584.414 1002.9 L 567.881 1002.97 L 552.786 1002.97 C 557.777 990.107 562.941 977.309 568.278 964.583 z"/>
<path transform="translate(0,0)" fill="rgb(4,58,94)" d="M 1169.89 928.941 C 1176.42 928.784 1183.36 928.914 1189.93 928.927 C 1189.85 943.443 1189.76 957.915 1189.72 972.523 C 1189.45 989.317 1187 1018.39 1211.47 1018.3 C 1241.05 1018.2 1234.32 980.982 1234.67 961.701 C 1234.88 950.576 1234.51 939.73 1234.45 928.914 L 1254.88 928.929 L 1254.84 947.225 C 1254.92 965.985 1256.22 987.4 1253.55 1005.73 C 1248.61 1039.71 1202.45 1047.43 1180.45 1024.62 C 1176.62 1020.66 1173.81 1015.84 1172.25 1010.57 C 1168.27 996.727 1169.8 946.472 1169.89 928.941 z"/>
<path transform="translate(0,0)" fill="rgb(4,58,94)" d="M 822.955 929.034 L 890.604 929.203 L 890.47 948.018 L 843.662 948.203 L 843.572 974.091 L 878.816 974.06 L 878.573 990.635 C 868.474 990.926 854.248 989.711 844.682 991.029 C 842.967 994.086 843.609 994.686 843.559 998.75 L 843.584 1017.42 C 859.155 1017.21 874.729 1017.32 890.296 1017.73 L 890.241 1036.89 L 823.17 1036.99 L 822.955 929.034 z"/>
<path transform="translate(0,0)" fill="rgb(4,58,94)" d="M 1284.02 929.135 L 1345.06 929.082 L 1345.03 947.808 L 1303.27 947.897 L 1303.29 974.294 C 1315 974.277 1326.71 974.348 1338.43 974.508 L 1338.39 991.03 L 1304.03 991.08 L 1303.98 1007 L 1304 1018 L 1346.91 1017.99 L 1346.87 1036.51 L 1283.98 1036.64 L 1284.02 929.135 z"/>
<path transform="translate(0,0)" fill="rgb(4,58,94)" d="M 1371.95 928.984 L 1392.1 928.994 L 1392.43 1017.7 L 1432.74 1017.8 L 1432.71 1036.55 C 1412.42 1036.22 1392.13 1036.15 1371.84 1036.34 C 1371.07 1001.65 1371.89 963.922 1371.95 928.984 z"/>
<path transform="translate(0,0)" fill="rgb(4,58,94)" d="M 641.941 928.896 C 648.363 928.72 655.309 928.846 661.778 928.842 L 661.87 1017.92 L 702.235 1017.93 L 702.245 1036.99 L 642.272 1036.96 L 641.941 928.896 z"/>
<path transform="translate(0,0)" fill="rgb(4,58,94)" d="M 1452.77 928.466 L 1472.96 928.569 L 1472.96 1017.28 L 1508.5 1017.4 L 1508.48 1036.17 C 1498.82 1037.44 1464.17 1036.6 1452.86 1036.6 C 1452.64 1000.56 1452.61 964.511 1452.77 928.466 z"/>
<path transform="translate(0,0)" fill="rgb(4,58,94)" d="M 274.539 1394.43 C 318.996 1391.84 369.092 1399.15 412.633 1408.15 C 437.742 1413.39 462.72 1419.23 487.547 1425.67 C 524.948 1435.13 562.503 1448.1 600.938 1438.29 C 578.126 1450.66 555.329 1447.6 530.645 1443.77 C 509.821 1440.2 488.157 1434.05 467.562 1429.11 C 382.553 1408.74 290.854 1390.36 203.479 1406.47 L 204.069 1405.52 C 229.54 1398.14 248.389 1395.67 274.539 1394.43 z"/>
<path transform="translate(0,0)" fill="rgb(4,58,94)" d="M 1754.9 1391.42 C 1778.87 1389.13 1825.83 1390.39 1847.69 1398.27 C 1754.59 1389.42 1636.6 1415.27 1546.38 1437.64 C 1519.97 1443.75 1493.73 1450.58 1467.15 1455.9 C 1490.87 1445.26 1518.97 1437.74 1543.97 1430.71 C 1613.48 1411.15 1682.73 1396.51 1754.9 1391.42 z"/>
<path transform="translate(0,0)" fill="rgb(4,58,94)" d="M 1042.75 1124.27 C 1045.82 1114.66 1048.47 1104.51 1054.98 1096.66 L 1056.48 1096.88 C 1056.36 1103.89 1054.84 1107.15 1052.48 1113.74 C 1049.76 1120.64 1045.8 1134.56 1044.13 1141.54 C 1039.61 1132.33 1035.43 1122.05 1031.36 1112.57 C 1026.83 1122.54 1022.49 1132.08 1018.39 1142.26 C 1014.33 1127.9 1004.97 1108.01 1002.49 1096.67 L 1006.02 1097.13 C 1011.31 1101.35 1016.58 1117.28 1019.25 1124.21 C 1023.44 1115.44 1027.34 1105.71 1031.15 1096.7 C 1035.17 1105.83 1039.04 1115.02 1042.75 1124.27 z"/>
<path transform="translate(0,0)" fill="rgb(4,58,94)" d="M 1105.44 1096.66 C 1113.72 1096.43 1131.24 1095.61 1130.97 1110.22 C 1130.87 1115.41 1125.72 1119.65 1121.64 1122.51 C 1124.26 1126.88 1131.28 1137.17 1129.3 1141.91 C 1126.03 1140.54 1125.75 1139.8 1123.64 1137.03 C 1119.9 1130.84 1115.98 1124.76 1111.9 1118.79 C 1111.75 1123.27 1111.78 1136.94 1110.18 1140.38 L 1107.91 1140.88 L 1109.67 1141 L 1107.36 1139.77 L 1107.6 1140.47 C 1104.49 1131.41 1105.42 1107.64 1105.44 1096.66 z"/>
<path transform="translate(0,0)" fill="rgb(250,250,249)" d="M 1111.73 1102.05 C 1117 1102.24 1120.8 1101.72 1124.1 1106.37 C 1125.18 1110.33 1124.78 1110.83 1123.64 1114.98 C 1119.12 1116.7 1116.69 1118.35 1112.48 1115.6 C 1110.74 1111.57 1111.51 1106.63 1111.73 1102.05 z"/>
<path transform="translate(0,0)" fill="rgb(4,58,94)" d="M 967.603 1096.97 C 970.697 1096.88 973.792 1096.85 976.888 1096.88 C 982.159 1096.96 987.164 1099.22 990.707 1103.12 C 997.757 1111 989.908 1118.49 983.516 1122.78 C 986.811 1127.65 991.009 1133.41 992.44 1139.02 L 990.971 1140.51 C 989.206 1139.99 988.719 1139.43 987.097 1138.4 C 982.341 1131.38 978.93 1126.5 973.534 1120.03 C 973.512 1124.37 973.966 1137.61 971.982 1140.57 L 969.46 1140.57 C 966.497 1135.13 967.561 1105.28 967.603 1096.97 z"/>
<path transform="translate(0,0)" fill="rgb(250,250,249)" d="M 973.781 1101.96 C 978.884 1102.28 982.876 1101.87 985.977 1106.44 C 987.029 1110.36 986.582 1111.04 985.602 1115.17 C 980.945 1116.81 978.544 1118.06 974.563 1114.69 C 972.853 1110.55 973.555 1106.55 973.781 1101.96 z"/>
<path transform="translate(0,0)" fill="rgb(4,58,94)" d="M 1311.52 1096.14 C 1319.8 1095.69 1323.78 1097.09 1330.4 1101.69 C 1332.15 1105.01 1332 1103.36 1331.23 1106.75 L 1328.86 1108.19 C 1321.05 1107.5 1317.74 1097.42 1307.1 1104.1 C 1286.52 1117.03 1304.15 1144.98 1324.42 1130.96 C 1326.55 1129.5 1326.53 1128.11 1326.66 1125.98 C 1323.88 1123.37 1323.91 1124.24 1318.98 1123.86 C 1316.94 1123.33 1317.75 1123.91 1316.58 1122.07 L 1316.89 1120.93 C 1319.78 1118.01 1332.02 1118.59 1336.4 1118.54 C 1332.91 1134.35 1322.32 1147.87 1304.94 1138.87 C 1299.36 1136 1295.15 1131.04 1293.21 1125.07 C 1288.54 1110.17 1297.78 1100.18 1311.52 1096.14 z"/>
<path transform="translate(0,0)" fill="rgb(4,58,94)" d="M 758.397 1096.68 C 758.975 1096.71 760.584 1096.77 761.044 1096.95 C 765.439 1098.6 773.031 1119.96 774.825 1124.29 C 777.764 1115.34 780.218 1108.1 782.207 1098.84 C 785.436 1104.95 789.603 1115.46 792.464 1122.07 C 795.39 1114.77 799.193 1103.96 803.393 1097.67 C 805.881 1097.06 804.641 1097.05 807.139 1098.22 C 807.38 1101.85 805.748 1103.76 804.005 1107.42 C 798.625 1119.21 795.866 1128.08 794.2 1140.81 C 790.937 1132.73 787.471 1124.74 783.805 1116.84 C 780.396 1124.07 777.435 1132.3 774.55 1139.81 C 771.52 1132.61 758.128 1102.89 758.397 1096.68 z"/>
<path transform="translate(0,0)" fill="rgb(4,58,94)" d="M 1262.14 1095.81 C 1265.65 1100.95 1281.59 1135.32 1280.95 1140.85 C 1278.03 1139.84 1274.78 1135.88 1273.39 1133.2 C 1271 1128.59 1268.76 1129.99 1263.53 1130.04 L 1253.04 1130.09 L 1252.35 1131.39 C 1249.89 1135.99 1249.09 1138.79 1244.15 1140.28 L 1243.56 1139.73 C 1243.35 1133.79 1258.69 1104.12 1262.14 1095.81 z"/>
<path transform="translate(0,0)" fill="rgb(250,250,249)" d="M 1262.37 1109.77 C 1264.48 1112.52 1268.98 1120.64 1267.99 1124.14 L 1265.24 1125 C 1262.01 1125.1 1260.01 1125.56 1257.36 1123.83 C 1256.37 1119.25 1259.95 1114.43 1262.37 1109.77 z"/>
<path transform="translate(0,0)" fill="rgb(4,58,94)" d="M 818.04 1129.67 C 816.988 1133.63 816.345 1136.63 813.668 1139.58 C 810.558 1139.88 811.931 1140.21 809.352 1138.88 C 809.648 1132.2 824.914 1103.92 829.001 1094.94 C 831.932 1102.98 848.933 1134.73 845.069 1139.96 C 840.123 1139.17 840.114 1133.77 836.321 1129.46 C 829.623 1129.97 824.739 1129.85 818.04 1129.67 z"/>
<path transform="translate(0,0)" fill="rgb(250,250,249)" d="M 828.669 1109.82 L 835.357 1124.64 C 835.57 1125.92 835.867 1128.38 836.321 1129.46 C 829.623 1129.97 824.739 1129.85 818.04 1129.67 C 818.861 1126.49 819.299 1126.35 821.398 1123.88 L 828.669 1109.82 z"/>
<path transform="translate(0,0)" fill="rgb(4,58,94)" d="M 818.04 1129.67 C 818.861 1126.49 819.299 1126.35 821.398 1123.88 C 826.217 1125.03 830.395 1124.69 835.357 1124.64 C 835.57 1125.92 835.867 1128.38 836.321 1129.46 C 829.623 1129.97 824.739 1129.85 818.04 1129.67 z"/>
<path transform="translate(0,0)" fill="rgb(4,58,94)" d="M 1144.33 1095.36 C 1147.07 1095.86 1147.45 1095.58 1149.29 1097.51 C 1151.02 1102.77 1150.21 1109.38 1150.06 1115.21 C 1154.47 1110.06 1163.81 1097.76 1170.52 1097.05 L 1170.69 1098.61 C 1168.07 1104.61 1162.02 1110.29 1157.4 1115.19 C 1160.73 1120.87 1167.73 1129.86 1171.81 1135.43 C 1173.07 1137.18 1173.29 1137.55 1174.23 1139.5 L 1172.47 1140.53 C 1166.77 1139.41 1154.39 1121.34 1150.16 1115.8 C 1150.04 1123.11 1150.02 1130.42 1150.08 1137.73 C 1148.28 1140.88 1149.55 1139.88 1146.3 1141.03 L 1144.9 1140 C 1143.52 1128.68 1144.2 1107.45 1144.33 1095.36 z"/>
<path transform="translate(0,0)" fill="rgb(4,58,94)" d="M 1186.7 1096.88 C 1193.38 1096.78 1203.03 1096.3 1209.35 1097.45 C 1210.57 1100.11 1210.51 1098.74 1209.92 1101.6 C 1205.12 1105 1197.46 1099.12 1191.84 1106.78 C 1190.86 1118.26 1201.6 1112.14 1207.97 1114.04 C 1209.6 1116.77 1209.29 1115.3 1208.69 1118.63 C 1204.56 1121.46 1198.42 1117.29 1193.37 1120.68 L 1192.95 1123.75 C 1192.86 1128.15 1192.62 1130.04 1193.57 1134.27 C 1196.88 1135.86 1203.29 1134.71 1208.25 1134.96 C 1210.72 1136.82 1209.99 1135.65 1210.74 1138.42 L 1209.81 1139.48 C 1205.59 1141.13 1192.45 1140.51 1186.67 1140.71 C 1187.26 1125.99 1186.99 1111.61 1186.7 1096.88 z"/>
<path transform="translate(0,0)" fill="rgb(4,58,94)" d="M 1068.55 1096.88 C 1074.09 1096.88 1087.42 1096.35 1091.91 1097.97 L 1092.37 1099.99 C 1089.24 1102.46 1079.76 1102.43 1075.63 1102.68 L 1074.28 1104.45 C 1074.59 1108.38 1074.09 1112.21 1076.33 1114.44 C 1080.14 1114.59 1086.8 1113.5 1089.47 1115.28 L 1089.68 1117.05 C 1086.21 1120.67 1084.38 1119.95 1079.18 1120.05 L 1074.23 1120.12 L 1074.3 1134.22 L 1079 1134.29 C 1082.44 1134.31 1090.11 1133.97 1092.08 1137.25 C 1085.95 1141.38 1075.69 1140.2 1068.38 1139.96 C 1068.58 1125.6 1068.64 1111.24 1068.55 1096.88 z"/>
<path transform="translate(0,0)" fill="rgb(4,58,94)" d="M 1074.23 1120.12 C 1074.23 1113.01 1072.89 1112.91 1074.28 1104.45 C 1074.59 1108.38 1074.09 1112.21 1076.33 1114.44 C 1080.14 1114.59 1086.8 1113.5 1089.47 1115.28 L 1089.68 1117.05 C 1086.21 1120.67 1084.38 1119.95 1079.18 1120.05 L 1074.23 1120.12 z"/>
<path transform="translate(0,0)" fill="rgb(4,58,94)" d="M 865.134 1097.1 C 870.955 1096.37 878.612 1096.17 880.516 1103.1 C 876.497 1105.63 868.635 1101.22 863.204 1104.57 C 862.199 1111.04 870.828 1114.05 875.774 1117.92 C 889.178 1128.43 884.814 1138.56 867.795 1140.71 C 861.749 1138.49 856.496 1135.99 856.582 1128.85 L 858.056 1128.12 C 865.431 1128.71 863.695 1135.99 872.409 1134.37 C 875.325 1132.2 875.82 1132.22 877.181 1128.82 C 874.998 1117.96 840.547 1111.8 865.134 1097.1 z"/>
<path transform="translate(0,0)" fill="rgb(4,58,94)" d="M 904.105 1096.03 C 910.636 1096.89 913.701 1098.29 917.143 1104 L 916.431 1104.94 C 909.735 1105.48 907.009 1100.34 900.54 1104.07 C 900.169 1112.67 917.178 1119.08 918.403 1129.2 C 919.416 1137.57 910.818 1140.78 904.139 1141.55 C 899.061 1139.52 892.86 1135.27 891.858 1129.55 C 894.494 1128.14 893.106 1128.68 896.928 1129.28 C 901.323 1133.54 902.303 1135.87 908.636 1134.99 C 911.325 1133.07 911.383 1133.32 912.472 1130.26 C 911.374 1119.12 876.584 1107.09 904.105 1096.03 z"/>
<path transform="translate(0,0)" fill="rgb(4,58,94)" d="M 930.608 1097.05 C 936.608 1096.82 950.635 1095.45 954.661 1100.2 L 953.394 1101.45 C 948.085 1103.52 942.742 1102.72 937.051 1102.37 L 936.969 1114.53 C 936.651 1117.05 936.301 1117.71 936.751 1120.04 C 937.079 1124.59 937.036 1130.19 937.131 1134.84 C 944.284 1134.76 947.86 1134.12 954.511 1136.49 L 954.895 1137.6 C 948.667 1141.45 938.394 1140.38 931.111 1140.19 C 931.14 1127.21 932.305 1109.5 930.608 1097.05 z"/>
<path transform="translate(0,0)" fill="rgb(4,58,94)" d="M 936.969 1114.53 C 941.995 1114.5 946.248 1113.87 950.526 1116.17 L 951.15 1117.69 C 947.479 1121 941.806 1120.12 936.751 1120.04 C 936.301 1117.71 936.651 1117.05 936.969 1114.53 z"/>
<path transform="translate(0,0)" fill="rgb(35,66,90)" d="M 883.202 1473.21 L 897.932 1475.4 C 892.439 1475.67 886.494 1476.08 881.034 1476.11 L 883.202 1473.21 z"/>
</svg>