<svg version="1.1" xmlns="http://www.w3.org/2000/svg" style="display: block;" viewBox="0 0 2048 1462" width="1434" height="1024" preserveAspectRatio="none">
<defs>
	<linearGradient id="Gradient1" gradientUnits="userSpaceOnUse" x1="876.65" y1="663.752" x2="936.487" y2="656.355">
		<stop class="stop0" offset="0" stop-opacity="1" stop-color="rgb(39,33,36)"/>
		<stop class="stop1" offset="1" stop-opacity="1" stop-color="rgb(40,44,41)"/>
	</linearGradient>
</defs>
<path transform="translate(0,0)" fill="rgb(255,255,255)" d="M 0 0 L 2048 0 L 2048 1462 L 0 1462 L 0 0 z"/>
<path transform="translate(0,0)" fill="rgb(40,39,39)" d="M 525.576 424.411 C 582.43 420.974 632.102 440.223 663.257 489.875 C 673.94 506.901 684.772 528.411 689.968 547.808 C 711.837 549.821 734.324 552.278 756.185 553.443 C 755.021 566.597 754.542 580.15 746.824 591.414 C 733.396 611.009 695.224 613.898 672.248 617.376 L 671.808 642.036 C 678.28 650.153 687.088 659.153 694.219 667.805 C 690.783 682.032 685.461 690.785 676.032 701.784 C 683.953 717.514 680.435 713.045 676.804 728.822 C 675.726 733.507 676.245 746.821 676.155 752.351 C 676.062 758.036 681.83 766.974 680.454 774.343 C 672.509 787.567 658.049 794.483 644.375 800.656 C 627.998 797.999 610.558 792.537 594.506 787.875 C 591.626 799.02 589.569 810.643 587.408 821.972 C 601.65 830.632 616.404 836.62 630.66 846.344 C 625.83 857.729 616.841 877.14 616.116 889.46 C 614.47 917.418 636.773 939.279 648.999 963.156 C 658.251 981.226 666.032 995.168 672.918 1014.43 L 657.852 1014.39 C 648.211 993.642 637.461 973.425 625.65 953.828 C 615.942 937.954 605.097 922.697 595.314 906.817 C 594.872 889.871 608.803 854.284 608.449 852.152 L 606.657 851.802 C 602.363 855.448 579.046 892.572 574.34 899.689 C 563.404 889.399 545.013 875.136 532.74 866.841 C 572.736 917.345 584.747 950.374 594.783 1014.75 L 578.492 1014.75 C 575.754 990.471 567.452 954.202 557.362 931.935 C 545.406 905.551 533.683 888.326 506.253 877.614 C 476.384 869.818 410.205 920.37 393.23 944.946 C 387.637 953.042 352.698 998.199 351.994 1006.27 C 347.049 1062.9 351.737 1123.45 356.774 1180.09 L 340.148 1180.08 L 336.739 1133.89 C 319.157 1119.05 286.151 1088.91 270.209 1072.85 C 262.387 1102.57 253.304 1149.1 250.741 1179.99 L 234.59 1179.97 C 248.855 1086.66 269.52 993.142 313.016 908.511 C 325.763 883.653 339.815 859.486 355.112 836.112 C 361.33 826.786 374.324 813.071 378.693 803.677 C 384.363 791.488 389.351 771.103 392.441 757.847 C 401.043 756.758 407.335 756.309 415.988 755.939 L 413.104 745.414 L 402.825 745.96 C 394.674 727.154 386.157 708.508 377.281 690.033 L 355.963 697.148 C 348.765 679.902 341.748 662.875 333.888 645.913 L 342.3 639.764 C 341.84 636.047 341.447 632.323 341.122 628.591 C 336.812 578.353 340.457 530.551 374.202 490.322 C 412.873 444.22 467.594 429.401 525.576 424.411 z"/>
<path transform="translate(0,0)" fill="rgb(255,255,255)" d="M 603.729 635.452 C 613.51 634.747 624.339 635.48 634.089 636.144 C 633.408 644.595 631.426 656.868 635.563 664.434 C 639.493 671.621 648.455 674.292 655.245 669.222 C 659.789 665.829 659.919 660.415 660.862 655.11 L 677.114 671.507 C 666.478 695.851 650.87 686.519 666.556 715.655 C 657.796 719.624 648.494 722.269 638.957 723.502 C 634.487 724.041 636.025 724.365 632.423 721.517 L 630.2 722.288 C 628.403 725.143 628.679 723.648 629.264 726.906 C 632.534 729.082 635.776 727.422 639.862 727.876 C 647.205 728.691 654.51 729.733 661.827 730.763 C 658.436 747.452 660.364 752.943 663.989 769.604 C 656.811 776.683 650.626 780.342 641.425 784.163 C 622.183 780.169 604.602 774.034 586.209 767.043 C 570.413 761.117 553.378 754.266 542.489 740.722 C 536.895 733.765 532.385 723.809 527.926 715.84 C 533.594 753.433 544.662 767.816 578.788 784.299 C 576.794 793.302 574.098 807.226 571.256 815.565 C 568.147 815.687 566.909 814.455 563.842 812.916 C 552.751 806.879 541.822 799.816 530.403 794.231 C 501.772 780.228 465.19 768.615 433.865 763.556 C 433.043 758.348 431.492 752.159 430.328 746.932 C 449.259 741.68 460.027 740.162 479.44 738.215 C 478.751 726.787 478.847 715.339 478.828 703.891 L 491.398 700.808 C 499.746 709.108 514.965 722.969 528.634 714.179 C 532.359 711.783 536.593 702.564 534.938 697.899 C 529.446 697.683 526.508 712.692 512.442 706.337 C 494.567 698.261 467.261 656.157 495.096 643.566 C 512.177 635.84 526.857 661.269 538.183 668.888 C 539.624 669.857 539.912 669.379 541.538 668.775 C 543.733 661.54 529.698 646.852 524.878 642.099 C 550.867 637.758 577.428 636.43 603.729 635.452 z"/>
<path transform="translate(0,0)" fill="rgb(40,39,39)" d="M 498.041 651.716 C 512.137 653.925 524.246 669.319 524.146 683.277 C 519.89 684.093 516.868 674.969 509.443 677.352 C 507.098 680.142 507.109 681.536 506.427 685.125 L 506.193 686.39 C 502.333 676.87 504.569 674.723 511.358 668.192 C 509.396 662.565 505.923 658.036 499.837 656.946 C 493.607 659.705 496.404 664.194 493.37 671.101 C 488.322 663.837 492.025 656.665 498.041 651.716 z"/>
<path transform="translate(0,0)" fill="rgb(40,39,39)" d="M 660.849 679.317 L 661.451 680.166 C 659.853 683.222 653.521 687.304 650.384 688.6 C 649.094 687.094 649.18 686.89 648.511 684.986 L 649.672 682.806 C 653.297 680.41 656.553 680.155 660.849 679.317 z"/>
<path transform="translate(0,0)" fill="rgb(255,255,255)" d="M 491.582 477.378 C 545.099 469.457 600.049 509.63 622.149 556.687 C 566.927 560.212 499.204 573.415 447.514 591.169 C 415.351 601.58 385.196 614.699 357.165 633.886 C 354.316 591.053 349.606 573.966 376.569 540.691 C 405.029 505.212 446.382 482.448 491.582 477.378 z"/>
<path transform="translate(0,0)" fill="rgb(255,255,255)" d="M 523.524 439.4 C 547.764 436.495 577.496 440.945 599.213 451.665 C 642.768 473.164 660.899 511.857 676.039 554.392 C 660.712 554.237 646.965 554.165 631.759 556.168 C 613.655 511.21 570.907 479.672 524.1 470.271 C 472.71 460.634 417.612 485.477 382.228 521.616 C 374.417 529.593 368.827 537.604 361.554 545.689 C 366.782 528.558 375.424 512.662 386.958 498.959 C 420.488 458.772 473.319 444.216 523.524 439.4 z"/>
<path transform="translate(0,0)" fill="rgb(255,255,255)" d="M 658.392 563.453 C 667.725 563.449 733.975 564.912 738.618 569.036 C 738.708 571.502 739.145 575.352 735.872 575.647 C 723.457 576.768 710.939 577.205 698.496 578.118 L 612.866 584.961 C 583.759 587.21 521.908 593.906 498.427 610.381 C 466.866 632.526 453.921 643.498 416.245 659.383 C 399.547 666.125 382.57 672.157 365.362 677.463 C 360.174 667.759 357.17 660.433 353.086 650.229 C 425.574 588.799 565.422 567.648 658.392 563.453 z"/>
<path transform="translate(0,0)" fill="rgb(255,255,255)" d="M 463.676 847.378 C 479.16 846.687 492.17 849.242 507.323 851.612 C 518.581 862.752 525.292 870.817 534.728 883.535 C 520.054 873.211 513.785 870.774 496.5 866.255 C 495.769 866.468 495.041 866.691 494.316 866.924 C 431.462 887.564 379.517 932.558 350.122 991.824 C 349.799 974.457 352.423 949.528 353.793 931.662 C 336.722 962.231 336.659 1001.79 334.928 1035.46 C 326.33 1026.69 317.468 1018.19 308.355 1009.96 C 311.917 1002.64 317.013 986.765 320.536 978.097 C 330.734 952.939 344.593 929.426 361.664 908.319 C 385.985 878.543 424.672 851.376 463.676 847.378 z"/>
<path transform="translate(0,0)" fill="rgb(255,255,255)" d="M 405.054 771.539 C 468.609 777.304 544.754 810.251 596.992 846.926 C 592.459 856.523 585.445 865.857 579.291 874.558 L 572.326 884.841 C 508.741 836.871 479.702 811.887 395.392 805.572 C 398.916 794.316 402.138 782.968 405.054 771.539 z"/>
<path transform="translate(0,0)" fill="rgb(255,255,255)" d="M 391.723 814.809 C 423.523 816.813 461.395 826.354 490.458 839.46 C 475.282 838.356 460.883 837.234 445.97 841.342 C 393.133 855.898 356.484 894.042 329.25 938.954 C 318.337 959.256 309.201 980.464 301.945 1002.34 L 293.277 996.15 C 307.134 947.365 356.264 851.632 391.723 814.809 z"/>
<path transform="translate(0,0)" fill="rgb(255,255,255)" d="M 289.852 1005.63 C 304.878 1020.17 320.317 1033.76 334.903 1048.82 C 334.585 1073.33 335.428 1096.15 336.13 1120.55 C 332.745 1117.84 328.919 1114.27 325.635 1111.34 C 307.604 1095.31 289.825 1078.99 272.307 1062.4 C 278.3 1043.77 283.994 1024.39 289.852 1005.63 z"/>
<path transform="translate(0,0)" fill="rgb(255,255,255)" d="M 476.902 645.966 L 477.665 646.849 C 468.966 667.622 474.214 675.207 484.638 693.093 C 469.58 697.111 447.819 708.729 433.27 715.569 C 428.982 717.586 416.892 724.338 413.03 725.138 L 410.866 722.458 C 404.786 710.782 397.845 696.753 392.574 684.817 C 414.696 678.407 457.75 658.797 476.902 645.966 z"/>
<path transform="translate(0,0)" fill="rgb(255,255,255)" d="M 628.453 610.421 C 637.529 610.08 645.598 610.069 654.68 610.206 C 650.949 611.269 638.975 614.363 637.967 617.513 C 634.727 627.631 632.752 624.798 620.676 624.55 C 595.393 623.94 570.1 625.192 545.001 628.296 C 536.66 629.612 528.294 630.762 519.907 631.746 C 555.074 617.465 591.03 612.72 628.453 610.421 z"/>
<path transform="translate(0,0)" fill="rgb(255,255,255)" d="M 466.872 708.947 C 468.009 708.949 468.157 709.157 469.298 709.557 C 470.483 714.498 469.95 724.209 469.862 729.639 C 454.64 731.661 442.377 735.008 427.542 739.049 C 425.393 736.418 423.265 733.258 421.283 730.46 C 435.687 722.523 451.727 715.312 466.872 708.947 z"/>
<path transform="translate(0,0)" fill="rgb(255,255,255)" d="M 630.899 598.424 C 634.659 597.912 635.717 597.548 639.143 599.024 C 636.505 603.316 588.991 604.696 579.631 607.001 C 565.772 610.414 523.12 617.99 514.316 628.029 C 514.222 630.72 514.336 631.706 513.383 634.286 C 510.072 635.646 501.064 634.932 496.962 634.812 C 495.221 635.054 493.534 635.192 491.786 635.347 L 491.93 634.041 C 497.52 628.475 514.844 619.931 522.599 617.068 C 557.596 604.146 594 600.815 630.899 598.424 z"/>
<path transform="translate(0,0)" fill="rgb(255,255,255)" d="M 655.96 619.383 C 659.688 623.516 653.229 657.337 649.79 661.78 L 646.619 662.078 C 645.949 661.444 644.096 659.686 643.908 658.912 C 642.104 651.49 644.768 627.205 647.094 621.134 C 649.168 619.391 653.049 619.582 655.96 619.383 z"/>
<path transform="translate(0,0)" fill="rgb(255,255,255)" d="M 729.368 585.173 L 730.416 585.501 C 723.479 595.388 678.847 600.556 665.266 602.387 C 663.937 600.736 663.847 599.868 663.273 597.863 C 664.767 595.911 671.911 595.695 675.043 595.365 C 694.598 593.303 710.499 590.7 729.368 585.173 z"/>
<path transform="translate(0,0)" fill="rgb(40,39,39)" d="M 991.857 101.843 C 997.555 102.287 1075.88 148.399 1083.88 153.108 C 1184.69 213.344 1285.2 274.084 1385.41 335.328 L 1462.71 382.307 C 1473.91 389.146 1495.25 403.749 1506.64 408.298 C 1542.23 422.52 1581.87 433.422 1617.7 446.92 L 1617.41 558.802 L 1603.22 554.447 L 1603.18 456.555 C 1566.28 443.172 1529.58 431.589 1492.61 418.972 L 1249.58 335.965 L 1139.7 297.986 C 1123.37 292.363 1092.81 280.864 1076.96 278.519 L 1076.41 905.09 C 1086.25 908.494 1096.64 912.676 1106.42 916.415 L 1105.47 929.894 L 1071.14 918.052 C 1044.06 927.629 1016.32 936.12 989.015 945.14 L 871.602 984.259 L 811.621 1004.01 C 799.894 1007.91 783.655 1013.62 771.782 1016.19 C 763.939 1017.89 743.799 1016.82 734.762 1016.57 C 776.602 1000.39 823.179 985.944 865.972 971.801 L 1026.65 918.255 C 1038.86 914.329 1051.02 910.225 1063.11 905.946 L 1062.97 281.014 C 1054.22 283.189 1034.99 293.699 1025.97 298.105 L 951.023 334.823 C 908.356 355.648 865.549 376.186 822.605 396.434 C 772.937 420.775 722.991 444.545 672.777 467.739 C 670.77 464.048 667.572 459.779 665.088 456.251 L 968.642 310.239 C 957.443 303.588 949.758 297.662 942.995 285.597 C 931.877 265.761 932.265 233.85 954.161 221.284 C 958.789 219.042 963.727 218.591 968.505 220.635 C 985.167 227.812 973.651 236.605 969.116 246.665 C 960.89 264.91 978.983 282.034 997.301 275.466 C 1006.41 272.199 1009.39 267.001 1013.01 258.797 C 1008.88 249.63 1001.36 240.088 996.032 231.444 C 984.323 212.457 969.407 195.945 954.566 179.325 C 930.823 196.888 905.963 217.385 882.563 235.881 L 721.321 364.351 L 673.266 402.491 C 666.47 407.927 640.998 430.166 634.196 430.097 L 632.282 427.774 C 633.344 422.513 657.038 405.773 663.036 400.958 C 685.863 382.518 708.793 364.206 731.826 346.025 L 839.827 259.354 C 876.315 230.95 912.516 202.179 948.425 173.046 L 922.05 142.708 C 944.19 128.677 969.016 114.763 991.857 101.843 z"/>
<path transform="translate(0,0)" fill="rgb(255,255,255)" d="M 1062.13 149.132 C 1198.08 232.439 1336.75 313.374 1472.07 397.602 C 1457.35 392.152 1442.53 386.964 1427.63 382.039 C 1347.8 355.53 1268.17 328.411 1188.75 300.682 L 1123.88 277.836 C 1095.04 267.864 1080.22 260.122 1049.39 270.538 C 1052.88 236.764 1040.84 222.947 1012.67 206.297 C 1029.04 187.141 1045.53 168.086 1062.13 149.132 z"/>
<path transform="translate(0,0)" fill="rgb(255,255,255)" d="M 992.901 117.8 C 1009.93 127.165 1026.87 136.691 1043.71 146.376 C 1032.97 161.611 1008.62 189.565 996.001 204.644 C 979.236 184.84 962.185 165.281 944.852 145.972 C 960.694 136.288 976.713 126.896 992.901 117.8 z"/>
<path transform="translate(0,0)" fill="rgb(255,255,255)" d="M 1004.88 216.205 C 1030.32 228.63 1048.41 251.893 1031.12 279.317 C 1016.26 286.012 999.536 294.756 984.789 302.083 C 957.554 294.427 945.935 278.923 947.393 250.394 C 949.662 236.579 954.226 234.107 966.093 228.395 C 961.369 236.02 956.148 244.486 956.021 253.611 C 955.466 293.523 1011.64 303.107 1023.04 263.577 C 1027.73 247.309 1011.05 236.975 1004.09 224.859 C 1002.41 221.936 1003.97 219.16 1004.88 216.205 z"/>
<path transform="translate(0,0)" fill="rgb(227,127,48)" d="M 233.532 1330.1 L 1815.82 1330.91 L 1815.75 1357.87 L 233.356 1357.39 L 233.532 1330.1 z"/>
<path transform="translate(0,0)" fill="rgb(40,39,39)" d="M 1408.54 558.955 L 1410.37 558.949 C 1413.79 561.62 1444.84 623.206 1449.72 632.118 C 1473.63 630.451 1484.46 629.966 1508.15 632.269 C 1519.9 613.903 1536.02 580.58 1547.03 560.114 C 1578.01 570.379 1609.74 578.939 1640.58 589.487 C 1634 609.387 1626.38 648.668 1621.17 670.516 C 1632.63 676.11 1652.8 693.444 1662.39 701.687 C 1689.24 693.791 1718.57 686.747 1745.83 679.82 C 1757.87 703.522 1774.22 728.616 1787.04 753.431 C 1767.7 770.723 1748.48 788.15 1729.39 805.711 C 1737.1 823.394 1741.21 835.867 1744.91 854.579 C 1769.92 859.742 1797.65 864.134 1823.01 868.604 L 1823.1 960.521 L 1742.7 971.053 C 1739.47 990.203 1734.78 1002.62 1726.93 1020.42 C 1744.42 1039.3 1763.73 1058.01 1780.67 1077.15 C 1765.33 1100.92 1750.23 1124.83 1735.35 1148.89 C 1714.01 1141.81 1677.53 1127.29 1656.81 1118.1 C 1639.92 1130.49 1622.01 1146.18 1605.82 1159.86 L 1605.7 1138.47 C 1622.81 1127 1637.03 1114.88 1652.29 1101.17 C 1677.75 1112.02 1703.48 1122.26 1729.43 1131.88 C 1740.48 1115.36 1751.6 1096.14 1761.96 1078.96 C 1745.32 1059.96 1728.13 1041.45 1710.39 1023.48 C 1721.44 998.913 1726.51 983.916 1731.19 957.758 C 1756.69 955.1 1783.48 951.227 1808.92 947.756 L 1808.98 880.492 C 1784.14 876.26 1757.24 870.963 1732.46 867.619 C 1730.7 845.247 1722.65 822.351 1711.41 803.05 C 1725.77 788.031 1753.11 764.932 1769.32 750.485 C 1761.27 733.606 1747.88 712.38 1738.09 696.193 L 1716.25 701.898 C 1697.86 706.811 1675.61 712.005 1657.8 717.851 C 1644.27 701.816 1623.03 688.019 1605.34 677.223 C 1610.71 650.98 1617.62 625.055 1623.09 598.656 C 1606.48 592.254 1571.49 582.149 1554.2 577.309 C 1542.99 595.834 1526.25 628.86 1516.54 648.55 C 1490.05 643.383 1468.65 642.891 1442.1 648.623 C 1429.6 624.747 1417.29 599.212 1404.03 575.928 C 1380.53 582.861 1357.16 590.242 1333.93 598.065 C 1340.46 623.475 1346.73 648.949 1352.75 674.484 C 1326.66 689.248 1314.6 696.723 1293.69 718.029 C 1271.03 709.424 1237.19 697.903 1214.04 690.995 C 1202.99 708.494 1191.1 731.094 1180.84 749.455 C 1199.64 766.239 1218.6 782.854 1237.71 799.299 C 1228.08 816.851 1219.33 847.69 1214.4 866.861 C 1198.92 871.001 1159.45 877.474 1143.34 880.026 C 1142.64 902.138 1142.2 924.257 1142.01 946.379 C 1167.17 951.478 1193.21 955.932 1218.51 960.661 C 1219.26 969.697 1222.19 979.678 1224.62 988.445 C 1211.9 996.069 1194.96 1008.94 1184.19 1019.09 C 1176.33 1019.03 1168.24 1019.33 1160.36 1019.52 C 1169.07 1011.07 1203.49 985.784 1206.48 980.429 C 1206.42 976.826 1206.62 976.34 1204.85 973.379 C 1197.86 970.539 1178.63 967.654 1170.04 966.088 C 1155.84 963.453 1141.66 960.657 1127.53 957.703 C 1128.72 928.8 1128.79 896.977 1129.05 867.988 C 1153.68 863.699 1178.28 859.203 1202.84 854.499 C 1207.83 836.37 1213.45 820.528 1219.82 802.961 C 1201.64 786.14 1179.99 768.523 1162.94 750.698 C 1178.3 726.55 1193.08 698.473 1207.17 673.27 C 1228.4 678.877 1267.22 693.983 1289.15 701.756 C 1304.65 687.727 1318.34 677.892 1336.03 667.079 C 1331.37 642.483 1323.29 612.744 1316.75 588.345 C 1346.78 577.573 1378.25 569.709 1408.54 558.955 z"/>
<path transform="translate(0,0)" fill="rgb(40,39,39)" d="M 1030.82 329.037 L 1031.26 329.449 C 1034.16 336.888 1032.12 501.066 1032.08 518.438 L 1031.99 883.233 L 1031.4 883.462 C 999.638 895.682 961.067 907.203 928.432 918.198 L 747.447 980.96 C 741.568 983.043 699.446 998.824 696.817 997.655 C 695.047 993.456 695.007 989.402 694.636 984.858 C 737.388 968.696 783.477 953.525 826.824 938.639 C 890.662 916.487 954.629 894.708 1018.72 873.304 L 1018.82 862.987 C 1018.65 693.205 1020.38 521.353 1018.44 351.682 C 999.668 359.884 981.331 369.079 962.758 377.713 C 877.788 417.212 793.782 460.389 708.388 498.846 C 706.723 494.729 704.519 490.796 702.446 486.856 L 1030.82 329.037 z"/>
<path transform="translate(0,0)" fill="rgb(40,39,39)" d="M 1462.91 678.433 C 1473.31 677.859 1483.74 678.038 1494.12 678.969 C 1556.38 684.555 1611.38 712.58 1651.34 760.695 C 1690.5 807.116 1709.33 867.352 1703.57 927.815 C 1696.92 998.396 1658.66 1054.48 1605.13 1098.71 L 1605.26 1084.59 C 1630.99 1062.13 1648.46 1043.02 1665.67 1012.86 C 1693.49 963.096 1700.79 904.445 1686.02 849.383 C 1671.11 795.061 1633.3 745.2 1584.16 717.265 C 1532.94 688.04 1472.25 680.215 1415.29 695.491 C 1378.61 705.726 1345.19 725.264 1318.28 752.212 C 1313.06 757.367 1303.69 767.38 1300.07 773.742 C 1308.32 766.065 1316.99 757.742 1325.83 750.862 C 1371.24 716.21 1428.52 700.922 1485.16 708.332 C 1528.78 714.409 1569.43 733.907 1601.47 764.122 C 1686.53 844.394 1684.43 962.894 1605.07 1046.34 L 1604.93 1033.87 C 1659.24 969.545 1674.85 881.045 1626.6 808.445 C 1595.95 761.659 1547.65 729.295 1492.72 718.745 C 1386.08 697.406 1274.18 772.22 1257.05 880.402 C 1255.38 890.922 1254.12 901.504 1252.06 911.946 C 1251.41 907.093 1250.52 901.055 1250.43 896.193 C 1248.18 775.343 1346.42 684.852 1462.91 678.433 z"/>
<path transform="translate(0,0)" fill="rgb(40,39,39)" d="M 1108.81 320.325 C 1155.53 334.721 1208.8 354.726 1255.68 370.745 L 1572.05 477.994 C 1571.97 488.937 1572.71 531.553 1571.41 540.319 C 1568.27 542.041 1568.49 541.425 1564.37 541.427 C 1562.52 538.126 1563 496.72 1562.96 489.898 C 1528.4 477.44 1491.62 465.729 1456.61 453.781 L 1211.77 369.915 L 1119.68 338.784 L 1119.09 722.68 L 1118.93 820.098 C 1118.97 830.6 1120.1 862.385 1118.38 871.051 C 1116.24 872.532 1111.09 872.088 1108.94 870.739 C 1107.64 864.733 1108.38 835.215 1108.42 827.138 L 1108.7 733.251 L 1108.81 320.325 z"/>
<path transform="translate(0,0)" fill="rgb(40,39,39)" d="M 1493.68 746.09 C 1526.84 741.876 1557.14 765.328 1561.38 798.486 C 1565.62 831.643 1542.19 861.963 1509.03 866.225 C 1475.85 870.492 1445.49 847.033 1441.24 813.841 C 1437 780.65 1460.48 750.309 1493.68 746.09 z"/>
<path transform="translate(0,0)" fill="rgb(255,255,255)" d="M 1493.33 755.251 C 1521.38 750.887 1547.69 770.03 1552.16 798.07 C 1556.64 826.11 1537.6 852.489 1509.57 857.073 C 1481.4 861.683 1454.84 842.514 1450.34 814.318 C 1445.84 786.122 1465.11 759.639 1493.33 755.251 z"/>
<path transform="translate(0,0)" fill="rgb(40,39,39)" d="M 1008.08 1063.07 C 1042.35 1062.86 1109.67 1054.18 1110.41 1106.05 C 1110.68 1125.05 1101.39 1135.23 1085.92 1144.94 C 1089.79 1150.88 1110.69 1178.06 1111.59 1181.4 C 1109.69 1182.33 1103.25 1181.97 1100.75 1181.96 L 1082.57 1181.97 C 1075.58 1171.23 1068.43 1160.6 1061.14 1150.06 L 1035.42 1149.94 L 1035.22 1182.14 L 1008.37 1182.12 L 1008.08 1063.07 z"/>
<path transform="translate(0,0)" fill="rgb(255,255,255)" d="M 1035.62 1084.04 C 1047.48 1083.9 1067.51 1082.02 1076.7 1090.46 C 1087.85 1100.69 1086 1112.15 1076.52 1122.37 C 1065.14 1130.67 1049.37 1128.76 1035.65 1128.49 C 1035.19 1113.78 1035.49 1098.78 1035.62 1084.04 z"/>
<path transform="translate(0,0)" fill="rgb(40,39,39)" d="M 1348.39 894.3 C 1378.99 891.051 1406.47 913.156 1409.84 943.745 C 1413.21 974.335 1391.22 1001.9 1360.65 1005.4 C 1329.89 1008.92 1302.14 986.77 1298.74 956.002 C 1295.35 925.234 1317.61 897.568 1348.39 894.3 z"/>
<path transform="translate(0,0)" fill="rgb(255,255,255)" d="M 1350.05 903.393 C 1375.74 901.015 1398.49 919.921 1400.85 945.612 C 1403.22 971.303 1384.3 994.044 1358.61 996.397 C 1332.93 998.749 1310.21 979.848 1307.85 954.174 C 1305.48 928.501 1324.37 905.769 1350.05 903.393 z"/>
<path transform="translate(0,0)" fill="rgb(40,39,39)" d="M 873.991 1062.97 L 895.6 1062.81 C 914.493 1084.87 938.501 1115.38 956.364 1138.49 C 956.624 1113.31 956.655 1088.12 956.457 1062.93 L 983.054 1063 L 983.018 1180.01 L 981.923 1181.57 C 976.659 1182.42 965.67 1181.96 959.912 1181.89 C 954.643 1176.49 944.986 1163.82 939.984 1157.62 L 900.322 1108.17 L 900.07 1181.93 L 873.848 1181.96 L 873.991 1062.97 z"/>
<path transform="translate(0,0)" fill="rgb(40,39,39)" d="M 1451.52 1062.5 C 1457.86 1063.14 1470.56 1080.89 1475.36 1086.67 L 1517.62 1137.63 C 1518.27 1114.28 1517.4 1086.59 1517.3 1062.87 L 1543.09 1062.82 L 1543.07 1182.43 C 1536.53 1182.02 1528.7 1182.28 1522.06 1182.34 C 1501.58 1157.01 1477.12 1129.77 1457.82 1104.2 L 1457.64 1182.23 L 1432.27 1182.01 L 1432.01 1062.77 L 1451.52 1062.5 z"/>
<path transform="translate(0,0)" fill="rgb(227,127,48)" d="M 609.538 1204.14 C 637.573 1201.43 662.455 1222.06 664.983 1250.11 C 667.511 1278.17 646.717 1302.91 618.65 1305.26 C 590.841 1307.58 566.372 1287.02 563.868 1259.23 C 561.363 1231.43 581.762 1206.83 609.538 1204.14 z"/>
<path transform="translate(0,0)" fill="rgb(255,255,255)" d="M 610.986 1222.66 C 628.557 1220.76 644.378 1233.37 646.429 1250.93 C 648.479 1268.48 635.991 1284.41 618.454 1286.6 C 600.713 1288.82 584.563 1276.16 582.489 1258.4 C 580.414 1240.64 593.211 1224.59 610.986 1222.66 z"/>
<path transform="translate(0,0)" fill="rgb(40,39,39)" d="M 560.862 1062.47 L 570.36 1062.21 C 585.504 1100.04 605.837 1144.03 622.703 1181.42 C 613.088 1181.72 603.149 1181.68 593.503 1181.75 C 590.172 1173.68 586.701 1165.67 583.095 1157.72 L 553.324 1157.75 L 529.999 1157.53 C 526.328 1165.51 522.951 1173.62 519.877 1181.85 C 510.197 1181.79 500.517 1181.9 490.841 1182.18 C 509.731 1142.51 526.518 1102.19 545.236 1062.81 L 560.862 1062.47 z"/>
<path transform="translate(0,0)" fill="rgb(255,255,255)" d="M 557.417 1094.78 C 559.622 1097.88 572.017 1131.16 574.078 1136.61 L 556.932 1136.84 L 539.412 1136.84 L 557.417 1094.78 z"/>
<path transform="translate(0,0)" fill="rgb(40,39,39)" d="M 1212.02 1062.93 L 1238.8 1062.89 L 1238.14 1180.74 C 1235.45 1182.61 1216.55 1181.94 1211.95 1181.92 L 1211.88 1133.97 L 1158.55 1134.08 C 1158.48 1149.87 1158.75 1165.99 1158.86 1181.81 L 1131.82 1181.8 L 1131.53 1062.9 L 1158.08 1062.95 C 1157.98 1079.32 1158.16 1095.68 1158.6 1112.04 C 1176.18 1111.83 1194.31 1112.13 1211.94 1112.22 L 1212.02 1062.93 z"/>
<path transform="translate(0,0)" fill="rgb(40,39,39)" d="M 761.132 1062.94 L 852.106 1062.89 L 852.101 1084.63 L 788.064 1084.87 L 788.054 1111.4 C 806.044 1111.82 824.661 1111.74 842.704 1111.9 L 842.813 1133.15 L 789.159 1133.14 C 787.867 1137.15 788.456 1154.82 788.519 1159.91 L 855.043 1159.86 L 855.029 1181.88 L 761.005 1181.9 L 761.132 1062.94 z"/>
<path transform="translate(0,0)" fill="rgb(40,39,39)" d="M 1264.97 1063.01 L 1356.99 1062.97 L 1356.89 1084.35 C 1335.62 1084.9 1313.24 1084.69 1291.88 1084.79 L 1291.86 1111.1 C 1309.96 1111 1328.85 1111.59 1347.01 1111.92 L 1346.98 1132.67 L 1294.75 1132.61 C 1293.03 1132.88 1293.86 1132.65 1292.29 1134.05 C 1291.32 1141.16 1291.83 1152.42 1291.94 1159.89 C 1313.97 1159.61 1335.91 1159.82 1357.96 1159.25 L 1357.95 1181.76 L 1265.09 1181.71 L 1264.97 1063.01 z"/>
<path transform="translate(0,0)" fill="rgb(40,39,39)" d="M 629.795 1062.85 L 656.965 1062.97 C 656.715 1087.94 655.412 1114.69 657.427 1139.36 C 660.242 1167.88 706.088 1167 708.962 1141.16 C 711.673 1116.79 710.06 1087.39 709.954 1062.9 L 736.423 1062.94 L 736.404 1083.78 C 736.415 1107.28 740.7 1152.44 724.297 1169.7 C 705.598 1189.38 662.04 1188.11 642.731 1168.87 C 638.102 1164.32 634.714 1158.66 632.891 1152.43 C 627.927 1135.94 629.802 1082.66 629.795 1062.85 z"/>
<path transform="translate(0,0)" fill="rgb(227,127,48)" d="M 1294.22 1206.58 L 1314.51 1206.71 C 1319.39 1215.74 1325.6 1230.35 1330.05 1239.97 C 1339.59 1260.72 1349.29 1281.41 1359.13 1302.02 L 1337.12 1301.94 C 1333.89 1295.27 1330.78 1287.89 1327.76 1281.07 L 1316.21 1281.07 L 1280.52 1281.07 C 1277.34 1286.9 1273.94 1295.9 1271.34 1302.24 L 1249.79 1302.09 C 1265.19 1271.74 1279.19 1237.66 1294.22 1206.58 z"/>
<path transform="translate(0,0)" fill="rgb(255,255,255)" d="M 1303.73 1228.64 C 1307.03 1231.45 1317.6 1259.43 1319.99 1265.42 L 1307.25 1265.66 L 1287.88 1265.64 C 1291.03 1255.84 1299.31 1238.26 1303.73 1228.64 z"/>
<path transform="translate(0,0)" fill="rgb(227,127,48)" d="M 1404.34 1206.25 C 1423.69 1204.6 1434.78 1206.74 1450.44 1217.95 C 1445.17 1222.86 1442.39 1225.77 1437.76 1231.29 C 1418.17 1219.65 1391.86 1218.31 1382.48 1243.07 C 1379.14 1251.93 1379.55 1261.76 1383.59 1270.32 C 1386.97 1277.61 1393.19 1283.2 1400.81 1285.78 C 1412.06 1289.56 1422.86 1286.86 1433.04 1281.66 L 1433.23 1264.47 L 1408.92 1264.72 L 1408.91 1247.21 L 1451.95 1247.37 L 1451.92 1292.6 C 1429.71 1305.48 1402.07 1309.94 1379.68 1294.86 C 1358.03 1280.25 1352.72 1247.64 1368.11 1226.69 C 1377.4 1214.04 1389.32 1208.75 1404.34 1206.25 z"/>
<path transform="translate(0,0)" fill="rgb(227,127,48)" d="M 723.138 1205.33 C 740.463 1204.33 751.204 1207.82 765.618 1217.05 C 761.177 1222.21 759.024 1225.21 755.283 1230.91 C 742.28 1223.55 729.425 1218.68 714.745 1225.44 C 698.676 1232.83 693.44 1255.57 701.039 1270.73 C 704.614 1277.95 710.986 1283.39 718.674 1285.79 C 729.682 1289.23 739.379 1286.4 749.199 1281.31 C 749.91 1276.33 749.778 1269.61 749.829 1264.42 C 741.883 1263.96 731.278 1264.19 723.139 1264.15 C 723.054 1259.49 722.661 1254.27 723.752 1249.8 L 725.777 1248.83 C 739.874 1248.95 753.972 1248.86 768.066 1248.56 L 768.075 1291.25 C 746.84 1305.36 718.691 1310.27 696.934 1294.44 C 686.544 1287.03 679.64 1275.69 677.824 1263.06 C 673.319 1232.05 693.051 1209.7 723.138 1205.33 z"/>
<path transform="translate(0,0)" fill="url(#Gradient1)" d="M 910.688 431.002 C 912.407 433.233 911.654 504.412 911.653 513.121 L 911.64 793.924 C 911.628 807.182 913.747 881.272 910.76 886.558 C 909.677 888.476 906.404 888.738 904.356 889.273 C 902.021 885.475 902.86 811.073 902.851 800.277 L 902.726 642.424 L 902.575 514.04 C 902.534 489.063 902.035 460.371 902.986 435.551 C 904.544 433.193 907.954 432.188 910.688 431.002 z"/>
<path transform="translate(0,0)" fill="rgb(40,39,39)" d="M 971.712 402.934 L 972.38 403.54 C 973.655 406.487 974.275 831.86 972.728 859.554 C 970.472 862.453 969.879 861.736 965.474 862.579 C 963.285 856.426 964.354 776.542 964.362 764.634 L 964.469 522.375 L 964.386 448.231 C 964.37 436.587 963.789 418.763 964.708 407.925 C 966.982 404.536 967.757 404.907 971.712 402.934 z"/>
<path transform="translate(0,0)" fill="rgb(227,127,48)" d="M 857.58 1205.25 C 869.888 1204.12 883.315 1208.14 894.372 1213.23 L 886.515 1228.7 C 875.382 1223.28 844.853 1214.42 842.932 1234.2 C 849.806 1248.63 896.557 1245.1 898.747 1270.29 C 900.959 1295.72 882.654 1301.59 861.907 1304.05 C 844.613 1303.28 836.258 1301.26 821.715 1292.21 L 828.196 1277.33 C 838.607 1283.3 865.809 1294.27 876.438 1281.97 C 877.684 1280.53 878.321 1274.61 877.394 1273.14 C 869.593 1260.76 847.151 1263.52 835.551 1254.53 C 830.39 1251.22 825.938 1246.98 824.957 1240.39 C 821.386 1216.38 838.126 1208.32 857.58 1205.25 z"/>
<path transform="translate(0,0)" fill="rgb(227,127,48)" d="M 1146 1206.19 C 1163.91 1204.96 1171.6 1205.84 1187.12 1215.09 C 1184.89 1219.07 1181.27 1224.39 1178.74 1228.36 C 1172.44 1225.83 1159.79 1220.87 1154.07 1221.74 C 1119.88 1226.93 1141.59 1244.26 1161.48 1247.03 C 1172.36 1248.54 1191.75 1259.11 1191.03 1271.31 C 1189.72 1293.84 1174.99 1302.05 1154.25 1303.6 C 1144.61 1303.92 1119.07 1300.47 1115.96 1289.48 C 1116.84 1284.78 1120.26 1279.93 1122.82 1275.73 C 1132.9 1282.15 1142.49 1286.78 1154.73 1286.36 C 1162.11 1286.11 1171.55 1283.1 1170.66 1274.1 C 1162.72 1260.52 1123.58 1263.34 1118.95 1241.41 C 1114.52 1220.45 1127.14 1210.3 1146 1206.19 z"/>
<path transform="translate(0,0)" fill="rgb(40,39,39)" d="M 789.206 485.809 L 790.886 487.043 C 791.589 496.454 791.056 511.261 791.003 521.226 L 790.878 579.243 L 790.909 770.814 L 790.828 881.546 C 790.834 895.771 791.229 912.866 790.28 927.22 C 790.118 929.674 786.732 931.231 784.576 932.613 C 781.17 928.979 782.569 850.182 782.574 838.988 L 782.539 558.761 C 782.594 538.546 781.483 511.283 782.525 490.643 C 782.62 488.755 787.037 486.986 789.206 485.809 z"/>
<path transform="translate(0,0)" fill="rgb(40,39,39)" d="M 849.114 458.522 L 851.247 459.309 C 852.104 464.13 851.759 483.852 851.757 489.71 L 851.709 552.131 L 851.552 783.131 L 851.84 870.355 C 851.882 880.664 852.148 893.421 851.513 903.936 C 851.369 906.321 847.849 907.956 845.504 909.529 L 844.535 908.438 C 842.01 898.72 843.466 834.373 843.449 820.609 L 843.631 553.074 L 843.058 489.268 C 842.977 481.143 842.757 471.322 843.295 463.08 C 843.425 461.09 846.992 459.717 849.114 458.522 z"/>
<path transform="translate(0,0)" fill="rgb(227,127,48)" d="M 1073.47 1205.39 C 1086.94 1204.4 1098.88 1210.01 1109.86 1217.11 L 1098.8 1231.91 C 1080.05 1215.88 1053.05 1219.8 1045.07 1244.41 C 1042.19 1253.18 1042.93 1262.75 1047.13 1270.97 C 1052.87 1282.08 1062.92 1286.49 1074.95 1286.69 C 1085.04 1286.86 1091.32 1281.25 1099.78 1276.83 L 1109.62 1289.03 C 1101.04 1297.22 1091.52 1302.3 1079.61 1303.63 C 1065.43 1305.23 1051.2 1301.07 1040.12 1292.08 C 1030.08 1284.18 1023.68 1272.54 1022.39 1259.83 C 1019.14 1226.91 1042.91 1208.19 1073.47 1205.39 z"/>
<path transform="translate(0,0)" fill="rgb(40,39,39)" d="M 1378.92 1062.96 L 1405.59 1062.91 C 1405.29 1102.5 1405.2 1142.09 1405.32 1181.68 C 1398.41 1182.21 1386.2 1181.88 1378.89 1181.92 L 1378.92 1062.96 z"/>
<path transform="translate(0,0)" fill="rgb(227,127,48)" d="M 901.125 1207.04 L 978.277 1206.98 L 978.238 1224.01 L 949.287 1223.94 L 949.28 1272.75 L 949.459 1302.69 L 929.091 1302.56 L 929.027 1223.89 L 901.01 1223.79 L 901.125 1207.04 z"/>
<path transform="translate(0,0)" fill="rgb(40,39,39)" d="M 723.428 619.526 C 725.452 619.625 727.403 619.441 729.01 620.522 C 729.984 627.365 729.37 647.046 729.339 655.083 L 729.237 725.856 L 729.345 891.034 C 729.339 908.554 729.46 930.024 729.12 947.863 C 729.087 949.589 726.573 950.759 724.856 951.967 L 723.29 951.71 C 719.789 947.979 721.517 920.584 721.567 914.149 L 721.661 848.348 L 721.124 709.471 C 720.985 682.529 720.938 655.483 721.18 628.538 C 721.224 623.625 721.048 623.144 723.428 619.526 z"/>
<path transform="translate(0,0)" fill="rgb(40,39,39)" d="M 1533.68 916.383 C 1540.79 915.962 1547.92 916.465 1554.9 917.881 C 1573.51 921.994 1589.67 933.432 1599.75 949.611 C 1608.85 963.913 1618.42 1002 1601.72 1017.85 C 1600.35 1019.15 1597.21 1018.66 1595.35 1018.08 C 1592.3 1012.9 1599.87 1002.42 1600.74 994.902 C 1604.95 958.343 1581.21 930.913 1545.59 925.553 C 1528.54 923.888 1511.51 929.002 1498.2 939.789 C 1480.64 954.144 1472.15 978.204 1477.55 1000.49 C 1478.74 1005.36 1482.39 1012.46 1482.25 1017 C 1482.21 1018.59 1481.7 1018.45 1480.22 1019.51 C 1477.63 1019.44 1476.43 1018.35 1474.22 1016.97 C 1471.85 1013.38 1471.34 1011.35 1469.96 1007.39 C 1456.88 969.842 1481.62 928.974 1519.1 918.851 C 1524.07 917.509 1528.44 916.938 1533.68 916.383 z"/>
<path transform="translate(0,0)" fill="rgb(227,127,48)" d="M 495.992 1207.18 L 515.111 1207.24 L 515.131 1285.81 L 558.926 1285.81 L 558.822 1302.08 L 495.961 1302.02 L 495.992 1207.18 z"/>
<path transform="translate(0,0)" fill="rgb(40,39,39)" d="M 1059.31 957.171 C 1068.83 957.194 1136.34 976.607 1149.38 981.628 C 1151.58 982.476 1152.42 984.056 1152.97 986.227 C 1152.58 986.718 1152.19 987.208 1151.8 987.699 C 1136 987.915 1067.04 964.242 1056.61 966.828 C 1026.66 974.255 989.973 985.872 960.482 995.059 C 937.928 1001.81 913.563 1010.6 890.662 1015.48 C 883.459 1017.01 867.224 1016.82 859.447 1016.84 C 900.926 1003.87 942.494 991.184 984.148 978.79 C 1008.35 971.529 1034.92 963.021 1059.31 957.171 z"/>
<path transform="translate(0,0)" fill="rgb(40,39,39)" d="M 1215.28 391.456 C 1218.76 391.797 1220.7 391.686 1223.73 393.45 C 1225.12 396.624 1224.07 636.77 1224.07 655.782 C 1221.08 655.916 1219.9 655.879 1216.92 655.527 C 1216.46 654.923 1216 654.319 1215.54 653.715 C 1214.79 579.486 1215.13 460.686 1215.28 391.456 z"/>
<path transform="translate(0,0)" fill="rgb(227,127,48)" d="M 785.774 1207.04 L 806.064 1207.05 C 805.902 1238.88 805.911 1270.71 806.092 1302.53 L 786.259 1302.42 L 785.774 1207.04 z"/>
<path transform="translate(0,0)" fill="rgb(227,127,48)" d="M 987.773 1206.95 L 1007.88 1206.95 C 1007.89 1238.65 1007.73 1270.34 1007.42 1302.03 C 1004.71 1302.53 991.362 1302.27 987.84 1302.26 L 987.773 1206.95 z"/>
<path transform="translate(0,0)" fill="rgb(40,39,39)" d="M 1312.05 425.89 C 1316 426.013 1317.9 425.417 1320.91 427.232 C 1321.98 436.207 1321.21 461.908 1321.19 472.158 L 1321.11 566.323 C 1317.68 566.981 1315.35 567.691 1312.47 566.411 C 1311.37 553.767 1312.04 530.728 1312.04 517.436 L 1312.05 425.89 z"/>
<path transform="translate(0,0)" fill="rgb(40,39,39)" d="M 669.876 808.028 C 671.334 809.671 672.409 944.893 670.584 947.889 L 668.634 946.296 L 662.861 940.505 L 662.794 860.067 C 662.723 846.095 661.984 824.598 663.114 811.16 C 665.1 808.91 666.65 809.023 669.876 808.028 z"/>
<path transform="translate(0,0)" fill="rgb(40,39,39)" d="M 1487.94 485.446 C 1492.66 486.165 1493.26 485.775 1496.32 488.555 C 1498.33 505.391 1495.62 543.685 1495.88 561.78 C 1495.91 563.577 1491.34 574.257 1490.3 576.719 L 1488.75 580.226 C 1487 577.879 1487.95 494.551 1487.94 485.446 z"/>
<path transform="translate(0,0)" fill="rgb(40,39,39)" d="M 1404.9 453.987 C 1408.3 454.194 1409.71 453.995 1412.63 455.522 C 1413.48 464.08 1413.1 480.568 1413.03 489.649 C 1412.93 503.07 1413.47 519.505 1412.61 532.695 C 1409.32 532.409 1408.38 532.288 1405.22 531.336 C 1402.84 522.821 1404.77 466.719 1404.9 453.987 z"/>
</svg>