<svg version="1.1" xmlns="http://www.w3.org/2000/svg" style="display: block;" viewBox="0 0 2048 2048" width="1024" height="1024" preserveAspectRatio="none">
<path transform="translate(0,0)" fill="rgb(248,248,247)" d="M 0 0 L 2048 0 L 2048 2048 L 0 2048 L 0 0 z"/>
<path transform="translate(0,0)" fill="rgb(74,74,74)" d="M 307.365 746.405 L 321.539 746.64 C 323.636 759.776 326.392 770.809 329.786 783.527 C 338.419 785.74 365.096 797.15 375.097 801.252 C 398.783 810.967 424.618 819.749 447.333 831.104 C 450.448 832.661 450.024 831.995 454.292 831.606 L 455.427 832.818 C 455.578 841.627 455.378 848.912 454.933 857.719 C 452.34 861.749 453.872 857.009 448.711 859.893 C 447.492 867.168 447.523 890.037 447.109 899.302 C 425.7 903.545 404.244 907.547 382.745 911.308 L 383.392 879.259 C 369.185 881.788 351.224 886.523 336.893 889.883 C 337.598 1013.5 337.31 1137.12 336.03 1260.73 C 376.866 1263.94 429.257 1272.79 470.346 1278.73 C 498.818 1282.75 527.227 1287.19 555.566 1292.05 C 569.788 1294.45 589.407 1297.41 602.987 1301.06 C 590.846 1301.34 569.88 1298.82 557.275 1297.59 C 527.498 1294.68 497.753 1291.45 468.046 1287.9 C 354.058 1275.74 240.359 1261.01 127.036 1243.72 C 137.634 1241.71 150.793 1242.25 161.752 1242.34 L 161.75 1241.46 C 161.968 1224.41 166.543 1211.77 172.208 1195.94 C 174.221 1189.57 184.319 1172.26 181.773 1167.7 L 179.876 1167.25 C 177.38 1171.09 180.346 1174.09 177.669 1177.83 L 175.917 1177.4 C 163.054 1165.37 154.254 1136.07 160.031 1118.86 C 168.657 1093.18 169.615 1081.07 194.789 1066.81 C 193.682 1064.49 191.313 1061.48 191.245 1058.89 C 190.998 1049.52 199.712 1040.92 208.963 1041.23 C 212.846 1041.38 216.478 1043.19 218.927 1046.2 C 225.338 1053.97 223.356 1066.08 222.246 1075.35 L 237.341 1076.04 C 236.84 1089.56 235.386 1093.79 229.842 1105.82 C 241.294 1113.62 248.709 1115.22 262.062 1118.26 C 267.159 1116.67 269.909 1114.38 275.252 1113.49 C 283.685 1116.74 285.139 1133.56 275.915 1137.54 L 270.539 1133.78 C 258.472 1125.3 248.315 1132.28 231.912 1124.32 C 231.761 1128.62 231.242 1138.44 231.737 1142.07 C 234.401 1161.62 242.761 1182.92 245.532 1202.44 C 246.859 1211.8 246.775 1228.89 247.269 1239.44 L 258.801 1242.27 L 262.447 1249.64 C 271.955 1251.41 281.545 1252.7 291.181 1253.51 L 290.049 899.146 C 273.559 903.07 257.201 907.527 241 912.509 C 241.051 923.29 242.628 947.289 238.839 956.196 C 232.691 970.643 223.21 982.326 227.922 999.869 C 230.015 1007.66 239.536 1013.16 236.076 1021.79 C 229.929 1042.64 200.309 1031.11 208.617 1014.61 C 224.436 983.195 210.072 979.359 200.394 951.318 C 196.848 941.047 202.358 923.944 196.975 908.732 L 196.462 907.3 C 191.544 905.238 184.182 902.837 183.002 896.559 C 181.874 890.559 189.648 892.723 193.901 889.858 C 197.145 888.065 199.174 884.576 201.836 882.01 C 233.472 851.514 264.395 818.11 296.589 788.375 C 299.781 776.797 301.726 765.052 304.246 753.337 C 305.319 748.35 304.357 748.366 307.365 746.405 z"/>
<path transform="translate(0,0)" fill="rgb(248,248,247)" d="M 330.58 793.818 C 363.322 804.187 399.144 821.221 431.976 833.253 C 426.164 834.764 419.199 836.073 413.242 837.345 C 387.734 843.65 362.065 849.287 336.261 854.25 C 334.646 834.227 332.314 813.92 330.58 793.818 z"/>
<path transform="translate(0,0)" fill="rgb(248,248,247)" d="M 295.642 800.847 C 297.478 803.361 292.839 855.354 293.005 864.522 C 267.721 870.269 238.428 879.327 214.459 884.016 L 213.68 882.97 C 238.784 855.994 271.612 828.75 295.642 800.847 z"/>
<path transform="translate(0,0)" fill="rgb(248,248,247)" d="M 205.537 1169.48 C 218.855 1178.33 223.87 1232.07 227.438 1247.94 C 219.932 1247.83 211.487 1247.2 203.921 1246.81 L 188.113 1244.72 L 181.571 1237.16 C 191.068 1211.48 200.032 1197.27 205.537 1169.48 z"/>
<path transform="translate(0,0)" fill="rgb(248,248,247)" d="M 307.024 793.396 C 311.611 793.03 316.952 792.965 321.612 792.789 C 322.267 800.534 327.628 849.146 326.028 852.042 L 322.147 852.673 C 316.434 853.027 308.703 854.225 302.885 854.972 C 302.913 845.629 303.461 799.069 307.024 793.396 z"/>
<path transform="translate(0,0)" fill="rgb(248,248,247)" d="M 230.391 915.161 C 231.686 915.165 230.897 915.042 232.611 916.066 C 234.2 924.285 234.379 945.799 230.817 953.47 C 229.791 955.679 214.939 954.48 212.14 954.361 C 209.433 954.028 210.569 954.643 208.522 952.838 C 207.059 946.062 207.801 927.432 207.949 919.482 C 215.323 918.801 223.115 916.812 230.391 915.161 z"/>
<path transform="translate(0,0)" fill="rgb(248,248,247)" d="M 303.346 1021.6 C 308.976 1025.57 314.452 1028.53 320.442 1031.9 L 323.275 1033.98 C 318.752 1042.56 312.474 1044.85 303.907 1048 L 302.808 1047.38 L 303.649 1046.22 C 304.29 1043.41 304.672 1042.75 304.203 1039.9 C 302.709 1034.16 303.232 1027.62 303.346 1021.6 z"/>
<path transform="translate(0,0)" fill="rgb(86,85,86)" d="M 320.442 1031.9 L 323.275 1033.98 C 318.752 1042.56 312.474 1044.85 303.907 1048 L 302.808 1047.38 L 303.649 1046.22 C 304.29 1043.41 304.672 1042.75 304.203 1039.9 C 307.23 1037.76 316.56 1033.7 320.442 1031.9 z"/>
<path transform="translate(0,0)" fill="rgb(248,248,247)" d="M 323.275 1033.98 C 318.752 1042.56 312.474 1044.85 303.907 1048 L 302.808 1047.38 L 303.649 1046.22 C 305.029 1045.02 319.198 1036.83 323.275 1033.98 z"/>
<path transform="translate(0,0)" fill="rgb(248,248,247)" d="M 180.711 1110.77 C 181.988 1120.84 175.323 1132.86 182.042 1141.45 C 181.215 1147.42 180.99 1152.27 179.802 1158.41 L 178.479 1158.52 C 168.709 1134.79 167.572 1133.02 180.711 1110.77 z"/>
<path transform="translate(0,0)" fill="rgb(248,248,247)" d="M 302.967 1054.07 C 307.728 1055.33 324.697 1062.19 323.912 1067.76 L 321.234 1069.75 C 315.073 1072.32 309.282 1073.86 302.881 1075.7 L 302.967 1054.07 z"/>
<path transform="translate(0,0)" fill="rgb(248,248,247)" d="M 323.348 993.008 L 324.039 993.203 C 325.223 996.14 324.698 1004.85 324.651 1008.5 C 318.028 1010.53 311.442 1012.67 304.896 1014.93 C 302.607 1013.21 303.794 1007.59 303.988 1004.79 C 310.165 1000.85 317.019 996.926 323.348 993.008 z"/>
<path transform="translate(0,0)" fill="rgb(248,248,247)" d="M 313.318 755.743 C 316.112 758.786 320.84 780.009 319.794 784.271 L 317.242 785.107 C 313.938 784.954 310.233 785.329 307.792 783.792 C 308.039 776.386 311.334 763.247 313.318 755.743 z"/>
<path transform="translate(0,0)" fill="rgb(248,248,247)" d="M 303.071 960.467 C 307.925 963.591 321.789 970.399 323.559 974.344 L 321.756 975.427 C 315.03 977.08 309.685 978.599 303.084 980.703 L 303.071 960.467 z"/>
<path transform="translate(0,0)" fill="rgb(248,248,247)" d="M 315.334 1184.68 C 318.065 1184.81 321.685 1186.39 323.636 1188.39 C 324.812 1196.34 318.111 1197.54 312.024 1199.28 C 307.711 1200.45 307.231 1200.94 304.026 1199.36 L 303.688 1197.01 C 306.681 1190.02 309.165 1188.82 315.334 1184.68 z"/>
<path transform="translate(0,0)" fill="rgb(248,248,247)" d="M 321.448 1134.78 L 323.977 1135.67 C 326.305 1141.81 325.364 1149.28 316.877 1149.56 C 314.039 1149.65 309.983 1145.72 307.752 1143.82 C 304.645 1141.29 303.337 1140.18 303.799 1136.2 L 306.004 1135.85 L 307.051 1136.64 L 305.749 1139.06 L 306.539 1139.96 C 310.627 1139.79 317.381 1136.49 321.448 1134.78 z"/>
<path transform="translate(0,0)" fill="rgb(248,248,247)" d="M 316.303 1111.9 C 318.836 1111.88 319.481 1112.44 321.949 1113.36 L 322.74 1115.16 C 320.338 1120.91 314.109 1123.89 308.835 1126.84 C 306.57 1128.15 306.738 1128.2 304.162 1128.34 C 302.173 1125.03 303.028 1121.42 303.086 1116.94 L 316.303 1111.9 z"/>
<path transform="translate(0,0)" fill="rgb(248,248,247)" d="M 324.033 943.141 C 325.694 945.412 325.05 959.764 325.012 963.584 L 313.434 956.436 L 304.602 951.081 C 312.611 948.54 316.401 946.822 324.033 943.141 z"/>
<path transform="translate(0,0)" fill="rgb(248,248,247)" d="M 322.501 1082.75 L 324.145 1083.47 C 325.69 1088.97 325.835 1099.2 321.372 1103.32 L 319.885 1103.02 L 320.797 1099.83 L 309.643 1093.75 C 314.689 1088.78 316.759 1086.9 322.501 1082.75 z"/>
<path transform="translate(0,0)" fill="rgb(248,248,247)" d="M 323.755 1041.9 C 325.295 1045.56 326.48 1054.54 322.549 1057.21 L 318.826 1055.57 C 316.258 1054.24 315.259 1054.1 313.819 1051.66 L 314.868 1049.43 C 318.991 1046.6 320.206 1045.45 323.755 1041.9 z"/>
<path transform="translate(0,0)" fill="rgb(248,248,247)" d="M 302.413 911.171 C 305.837 912.015 310.094 913.006 312.206 915.806 C 312.246 919.224 312.267 918.1 309.051 921.461 L 302.029 927.599 L 302.413 911.171 z"/>
<path transform="translate(0,0)" fill="rgb(248,248,247)" d="M 323.562 1164.93 L 324.689 1165.89 C 325.526 1170.29 324.886 1175.4 324.593 1179.96 L 324.01 1180.37 C 322.664 1176.39 323.49 1177.03 320.743 1174.54 C 317.528 1174.42 313.596 1174.71 311.086 1173.02 C 312.406 1170.54 320.29 1166.86 323.562 1164.93 z"/>
<path transform="translate(0,0)" fill="rgb(248,248,247)" d="M 302.666 936.39 C 306.276 936.572 314.762 936.572 317.104 938.743 L 314.668 940.152 C 311.31 941.794 306.562 944.736 303.145 944.315 C 301.507 941.071 302.272 940.738 302.666 936.39 z"/>
<path transform="translate(0,0)" fill="rgb(248,248,247)" d="M 312.357 1159.14 C 315.796 1160.18 316.042 1159.57 317.517 1161.89 C 315.995 1164.49 311.258 1166.12 308.287 1167.51 C 305.746 1168.33 306.693 1168.28 304.035 1167.74 L 303.46 1165.87 C 305.577 1160.84 307.451 1160.47 312.357 1159.14 z"/>
<path transform="translate(0,0)" fill="rgb(248,248,247)" d="M 321.738 921.743 C 322.307 921.918 323.433 922.622 324.01 922.949 C 324.296 926.857 324.695 925.111 323.054 928.432 C 319.614 930.634 316.189 930.182 311.947 930.284 L 310.658 929.539 C 312.768 926.8 318.546 923.701 321.738 921.743 z"/>
<path transform="translate(0,0)" fill="rgb(248,248,247)" d="M 322.842 1016.08 L 323.989 1016.93 C 324.574 1020.64 325.313 1024.3 323.355 1027.42 L 321.397 1025.85 C 319.094 1023.77 317.216 1022.5 316.035 1019.67 C 318.019 1017.14 319.251 1017.4 322.842 1016.08 z"/>
<path transform="translate(0,0)" fill="rgb(248,248,247)" d="M 321.772 905.26 C 322.865 905.307 322.153 905.199 323.78 906.058 C 324.611 910.166 324.822 910.127 323.891 914.075 L 322.673 914.74 L 320.417 912.94 C 317.571 911.138 316.371 910.602 314.185 907.961 C 316.41 905.773 318.131 906.077 321.772 905.26 z"/>
<path transform="translate(0,0)" fill="rgb(248,248,247)" d="M 305.818 1206.72 C 310.23 1207.24 312.712 1207.9 316.62 1209.86 L 316.601 1210.93 L 312.283 1211.87 C 308.338 1213.78 308.111 1213.6 304.713 1211.32 C 304.202 1208.14 303.944 1209.64 305.818 1206.72 z"/>
<path transform="translate(0,0)" fill="rgb(74,74,74)" d="M 1776.32 1022.81 C 1811.28 1039.87 1848.86 1056.28 1883.16 1074.12 C 1883.87 1112.79 1882.99 1153.27 1883.03 1192.14 L 1899.36 1198.85 C 1898.24 1209.91 1897.28 1219.93 1896.78 1231.07 C 1846.27 1253.49 1795.87 1281.79 1745.7 1303.59 L 1737.57 1298.5 C 1734.88 1287.72 1734.63 1275.58 1731.39 1264.85 C 1727.44 1251.75 1705.02 1244.37 1692.26 1238.51 C 1687.94 1236.72 1682.27 1232.69 1678.03 1232.84 L 1676.84 1234.55 C 1676.87 1235.91 1676.57 1239.76 1678.34 1240.63 C 1692.29 1247.39 1716.84 1250.07 1726.48 1262.47 C 1736.24 1275 1720.54 1301.9 1703.31 1294.82 C 1683.5 1286.69 1688.62 1271.64 1683.02 1258.86 C 1674.17 1255.63 1669.72 1270.96 1659.23 1268.76 C 1634.75 1263.63 1627.07 1228.7 1646.21 1213.92 C 1645.67 1170.08 1646.1 1125.27 1646.08 1081.35 C 1687.33 1059.75 1734.38 1042.96 1776.32 1022.81 z"/>
<path transform="translate(0,0)" fill="rgb(248,248,247)" d="M 1655.67 1089.06 C 1688.14 1103.17 1723 1120.99 1755 1136.63 L 1754.62 1238.81 C 1750.43 1237.87 1722.56 1223.6 1717.02 1220.89 L 1655.85 1191.72 C 1655.25 1158.02 1655.72 1122.88 1655.67 1089.06 z"/>
<path transform="translate(0,0)" fill="rgb(74,74,74)" d="M 1686.93 1118.86 C 1696.56 1121.05 1709.79 1128.04 1719.02 1132.51 L 1719.16 1171.81 C 1715.18 1169.9 1707.21 1167.17 1706.22 1163.17 C 1706.39 1158.04 1707.64 1143.06 1702.51 1140.36 C 1698.54 1145.39 1699.71 1156.3 1699.85 1162.82 L 1686.86 1156.06 L 1686.93 1118.86 z"/>
<path transform="translate(0,0)" fill="rgb(248,248,247)" d="M 1872.91 1087.31 C 1874.51 1089.08 1873.82 1190.5 1873.82 1202.98 C 1858.42 1211.36 1837.46 1220.54 1821.38 1228.02 C 1818.68 1196.83 1820.85 1144.05 1821.13 1111.24 L 1872.91 1087.31 z"/>
<path transform="translate(0,0)" fill="rgb(248,248,247)" d="M 1813.57 1114.99 L 1815.62 1115.28 C 1816.51 1120.64 1816.01 1141.92 1815.99 1148.58 L 1815.22 1230.41 C 1799.07 1238.69 1781.88 1246.64 1765.49 1254.66 L 1764.8 1254.69 C 1763.24 1251.75 1764.36 1147.77 1764.67 1136.11 C 1778.77 1131.28 1799.46 1121.3 1813.57 1114.99 z"/>
<path transform="translate(0,0)" fill="rgb(248,248,247)" d="M 1827.85 1058.9 C 1841.85 1064.34 1859.61 1073.1 1873.95 1079.37 C 1837.14 1094.73 1799.21 1114.24 1762.23 1128.34 C 1756.11 1127.11 1724.02 1110.88 1717.54 1107.65 C 1733.16 1101.33 1749.79 1093.13 1765.5 1086.3 C 1785.66 1077.53 1808.56 1068.79 1827.85 1058.9 z"/>
<path transform="translate(0,0)" fill="rgb(248,248,247)" d="M 1775.89 1034.06 C 1787.16 1039.25 1810.56 1049.3 1820.28 1055.26 C 1784.11 1070.98 1745.75 1088.74 1709.32 1102.94 C 1694.97 1097.01 1679.62 1088.92 1664.7 1082.6 C 1698.47 1066.44 1741.12 1049.14 1775.89 1034.06 z"/>
<path transform="translate(0,0)" fill="rgb(248,248,247)" d="M 1889.13 1206.87 L 1891.46 1207.64 L 1892.35 1209.66 C 1890.43 1216.81 1878.55 1220.68 1871.98 1223.68 C 1858.88 1229.68 1845.78 1235.51 1832.79 1241.79 C 1812.91 1251.48 1793.16 1261.42 1773.53 1271.61 C 1769.41 1273.75 1750.88 1284.49 1747.96 1284.48 L 1746.78 1281.54 L 1742.9 1262.53 C 1747.99 1264.91 1753.18 1267.52 1758.24 1269.99 C 1794.47 1249.72 1850.65 1224.83 1889.13 1206.87 z"/>
<path transform="translate(0,0)" fill="rgb(248,248,247)" d="M 1656.22 1200.37 C 1678.25 1212.16 1703.79 1222.3 1726.25 1233.85 C 1735.04 1238.38 1744.85 1242.3 1753.11 1247.68 C 1754.69 1250.29 1753.99 1252.7 1753.69 1255.88 C 1730.85 1249.02 1679.58 1221.9 1656.42 1209.87 L 1656.22 1200.37 z"/>
<path transform="translate(0,0)" fill="rgb(248,248,247)" d="M 1651.86 1227.52 C 1655.21 1227.67 1658.06 1227.73 1660.85 1229.73 C 1663.58 1231.64 1665.36 1234.63 1665.73 1237.94 C 1666.47 1243.94 1664.28 1247.98 1660.85 1252.55 C 1647.02 1253.29 1644.35 1237.24 1651.86 1227.52 z"/>
<path transform="translate(0,0)" fill="rgb(74,74,74)" d="M 1653.86 1233.31 C 1657.94 1233.98 1657.77 1234.32 1659.94 1237.44 C 1660.59 1241.81 1660.33 1242.09 1658.89 1246.42 C 1652.82 1244.05 1652.89 1238.72 1653.86 1233.31 z"/>
<path transform="translate(0,0)" fill="rgb(248,248,247)" d="M 1698.4 1260.96 C 1711.42 1261.25 1718.87 1265.86 1712.82 1279.55 C 1698.65 1285.14 1696.9 1270.99 1698.4 1260.96 z"/>
<path transform="translate(0,0)" fill="rgb(74,74,74)" d="M 1609.05 894.989 L 1643.55 895.061 C 1643.56 952.695 1644.11 1011.54 1643.45 1069 C 1638.21 1069.51 1632.17 1069.61 1626.85 1069.83 L 1611.4 1069.99 L 1534.22 955.552 C 1534.13 992.901 1534.58 1031.74 1533.6 1068.97 L 1500.01 1068.91 L 1500.27 895.69 L 1521.46 895.479 L 1533.42 895.017 C 1555.64 926.702 1589.67 975.516 1609.28 1008.68 L 1609.05 894.989 z"/>
<path transform="translate(0,0)" fill="rgb(74,74,74)" d="M 856.877 896.001 L 890.69 895.865 C 915.678 931.208 941.58 967.469 966.043 1003.05 L 965.675 895.966 L 999.78 895.872 L 999.826 1007.65 C 999.851 1023.55 1000.76 1052.99 999.438 1068.03 C 996.061 1069.63 991.618 1069.14 987.75 1069.11 L 972.207 1069.13 C 946.413 1034.16 916.392 986.456 889.948 953.944 L 890.009 1069.19 L 856.536 1069.15 C 855.879 1012.43 856.394 952.755 856.877 896.001 z"/>
<path transform="translate(0,0)" fill="rgb(74,74,74)" d="M 1024.96 895.934 C 1049.24 895.831 1090.73 892.674 1110.99 903.46 C 1122.4 909.432 1130.84 919.842 1134.32 932.237 C 1142.06 959.423 1125.64 988.737 1097.99 995.889 C 1118.29 1019.46 1136.87 1044.97 1157.42 1069.02 L 1120.75 1069.2 C 1118.28 1069.33 1116.92 1069.12 1114.47 1068.87 C 1110.64 1065.41 1099.56 1049.96 1095.91 1045.08 L 1058.89 995.405 C 1059.7 1019.53 1059.35 1044.96 1059.37 1069.2 L 1025.15 1069.23 L 1024.96 895.934 z"/>
<path transform="translate(0,0)" fill="rgb(248,248,247)" d="M 1059.32 925.753 C 1071.82 925.757 1084.05 925.369 1094.12 934.068 C 1105.44 943.853 1101.31 955.838 1092.57 965.393 C 1080.93 973.044 1073.4 971.673 1059.54 971.496 C 1059.25 956.426 1059.39 940.865 1059.32 925.753 z"/>
<path transform="translate(0,0)" fill="rgb(74,74,74)" d="M 1164.37 895.983 L 1199.01 895.849 L 1198.97 961.958 C 1220.61 961.808 1242.25 961.937 1263.89 962.344 L 1263.91 896.001 L 1299.53 895.927 L 1299.48 1005.81 C 1299.42 1024.53 1300.06 1049.57 1298.87 1067.89 C 1296.63 1069.6 1294.78 1068.97 1291.25 1069.07 L 1264.02 1069.07 L 1264.15 992.72 C 1244.53 991.872 1219.02 992.58 1199 992.721 L 1198.83 1069.01 L 1164.21 1069.07 L 1164.37 895.983 z"/>
<path transform="translate(0,0)" fill="rgb(74,74,74)" d="M 481.379 895.812 L 506.502 895.948 C 513.823 910.937 521.211 928.842 528.006 944.245 L 582.479 1068.97 L 545.016 1068.8 C 539.957 1055.36 534.411 1042.11 528.389 1029.07 L 509.5 1029.09 L 460.185 1029 C 454.154 1040.08 446.926 1057.25 441.635 1069 L 406.98 1068.89 C 413.108 1050.94 425.218 1024.57 432.987 1006.39 C 448.642 969.324 464.774 932.462 481.379 895.812 z"/>
<path transform="translate(0,0)" fill="rgb(248,248,247)" d="M 493.616 945.558 C 496.896 948.754 513.316 992.076 516.507 1000.05 L 496.5 999.982 L 472.426 999.717 L 493.616 945.558 z"/>
<path transform="translate(0,0)" fill="rgb(74,74,74)" d="M 584.055 895.978 L 618.453 895.8 L 618.194 967.837 C 618.166 995.766 612.206 1055.88 667.455 1035.94 C 688.176 1028.46 684.087 985.579 684.032 965.643 L 684.016 896.116 L 718.326 895.975 L 718.486 928.766 L 718.878 975.59 C 719.065 1003.28 721.629 1030.25 701.568 1052.43 C 677.281 1079.34 629.054 1079.75 603.086 1055.22 C 586.435 1039.48 583.761 1014.98 583.964 993.372 C 584.068 982.307 583.983 971.226 584.015 960.158 L 584.055 895.978 z"/>
<path transform="translate(0,0)" fill="rgb(74,74,74)" d="M 1323.35 895.96 L 1417.02 895.776 L 1416.95 926.333 L 1358.79 926.425 L 1358.72 965.783 C 1373.43 965.745 1395.8 965.211 1409.95 966.996 L 1409.96 996.434 C 1393.19 996.568 1375.94 996.212 1359.13 996.062 L 1359.02 1022.5 L 1359 1038.2 L 1421.25 1038.28 L 1421.13 1069.06 L 1323.98 1069.05 L 1323.35 895.96 z"/>
<path transform="translate(0,0)" fill="rgb(74,74,74)" d="M 741.545 895.979 C 771.775 895.615 802.659 895.92 832.944 895.894 L 832.941 926.811 C 814.411 927.002 795.472 926.749 776.909 926.702 L 776.94 965.262 L 827.082 965.318 L 827.086 996.028 L 776.868 995.828 L 776.789 1023.25 L 776.876 1038.55 C 796.32 1038.45 815.765 1038.53 835.208 1038.79 L 835.203 1069.02 L 741.92 1069.03 C 742.02 1011.9 740.635 952.863 741.545 895.979 z"/>
<path transform="translate(0,0)" fill="rgb(74,74,74)" d="M 532.821 1127.37 C 544.587 1126.92 557.6 1129.66 567.423 1136.27 C 577.276 1142.96 583.975 1153.37 585.971 1165.11 C 591.592 1196.4 569.887 1215.47 541.093 1219.96 C 526.973 1220.25 514.983 1218.74 503.219 1209.62 C 493.628 1202.33 487.431 1191.43 486.06 1179.46 C 484.412 1166.89 488.099 1154.2 496.227 1144.48 C 506.236 1132.59 518.177 1128.89 532.821 1127.37 z"/>
<path transform="translate(0,0)" fill="rgb(248,248,247)" d="M 529.441 1143.97 C 540.23 1141.57 551.475 1145.18 558.85 1153.41 C 566.226 1161.64 568.582 1173.21 565.014 1183.68 C 561.445 1194.14 552.507 1201.86 541.638 1203.86 C 525.249 1206.89 509.455 1196.24 506.13 1179.91 C 502.804 1163.57 513.173 1147.59 529.441 1143.97 z"/>
<path transform="translate(0,0)" fill="rgb(74,74,74)" d="M 1439.35 895.928 L 1474.23 895.809 L 1474.33 1068.91 L 1439.92 1068.97 L 1439.35 895.928 z"/>
<path transform="translate(0,0)" fill="rgb(74,74,74)" d="M 1508.7 1127.34 C 1527.91 1125.81 1545.15 1131.58 1559.42 1144.46 C 1554.75 1148.26 1549.86 1151.84 1545.04 1155.45 C 1526.67 1137.39 1493.96 1136.62 1482.58 1161.94 C 1479.01 1169.88 1478.87 1178.93 1482.2 1186.98 C 1489.98 1205.41 1515.74 1208.48 1532.85 1202.05 C 1541.03 1198.98 1544.46 1191.91 1547.57 1184.3 C 1541.58 1184.01 1517.23 1184.4 1513.22 1183.17 L 1512.5 1180.75 L 1512.48 1170.5 C 1530.82 1170.71 1549.16 1170.82 1567.5 1170.8 C 1566.83 1196.87 1557.69 1212.23 1530.44 1217.84 C 1503.57 1223.8 1463.11 1213.06 1459.27 1181.06 C 1455.34 1148.36 1480.26 1130.91 1508.7 1127.34 z"/>
<path transform="translate(0,0)" fill="rgb(74,74,74)" d="M 1365.11 1128.85 L 1383.14 1128.82 C 1397.33 1157.61 1414.41 1188.19 1429.43 1216.96 L 1407.64 1216.85 L 1396.56 1194.99 L 1384.5 1195.05 L 1350.75 1195.08 C 1346.77 1201.47 1342.88 1209.78 1339.45 1216.63 L 1319.89 1216.65 C 1333.53 1187.8 1350.47 1157.69 1365.11 1128.85 z"/>
<path transform="translate(0,0)" fill="rgb(248,248,247)" d="M 1373.02 1149.54 C 1378.11 1156.89 1385.5 1172.48 1389.52 1180.82 L 1375.5 1180.71 C 1369.73 1180.67 1363.81 1180.47 1358.03 1180.34 C 1362.93 1170.02 1367.74 1159.67 1373.02 1149.54 z"/>
<path transform="translate(0,0)" fill="rgb(74,74,74)" d="M 668.951 1127.39 C 682.411 1126.55 694.483 1131.47 705.715 1138.3 C 701.814 1144.5 698.808 1147.58 693.719 1152.89 C 678.186 1138.16 648.45 1139.98 641.495 1160.59 C 630.425 1193.39 660.143 1214.83 689.684 1199.84 C 689.951 1194.97 689.896 1188.88 689.978 1183.92 L 663.948 1183.95 C 663.854 1179.56 663.304 1174.18 664.721 1170.21 L 666.988 1169.2 L 708.309 1168.9 L 708.245 1206.94 C 700.841 1212.97 692.014 1217.02 682.605 1218.68 C 666.781 1221.56 649.458 1218.82 636.294 1209.23 C 626.87 1202.38 620.696 1191.95 619.237 1180.4 C 614.861 1146.87 639.196 1130.38 668.951 1127.39 z"/>
<path transform="translate(0,0)" fill="rgb(74,74,74)" d="M 838.39 1127.36 C 850.813 1127.54 858.381 1129.1 869.501 1134.68 C 868.014 1138.78 865.706 1143.67 863.922 1147.73 C 853.238 1144.16 825.836 1135.84 824.926 1154.97 C 829.895 1169.18 874.775 1167.91 872.966 1190.47 C 870.915 1216.05 851.392 1219.32 830.068 1219.14 C 819.118 1217.14 812.415 1215.25 803.93 1207.62 L 811.071 1195.01 C 821.536 1202.96 845.349 1212.04 853.274 1196.84 C 852.736 1181.42 818.848 1183.15 807.167 1163.51 C 805.781 1138.84 813.975 1130.85 838.39 1127.36 z"/>
<path transform="translate(0,0)" fill="rgb(74,74,74)" d="M 1183.18 1128.18 C 1197.65 1127.2 1205.67 1128.13 1219.37 1133.22 C 1217.05 1138.8 1215.53 1141.91 1212.64 1147.23 C 1206.05 1144.6 1175.17 1135.1 1175.36 1154.11 C 1175.4 1158.76 1187.46 1163.49 1192.06 1164.84 C 1212.98 1170.95 1232.46 1181.97 1218.17 1206.31 C 1213.32 1214.48 1202 1217.27 1192.6 1219 C 1178.64 1219.28 1168.79 1217.37 1156.87 1209.74 C 1158.75 1204.07 1160.36 1200.47 1162.81 1195.05 C 1169.44 1200.82 1174.06 1202.63 1182.91 1203.8 C 1190.43 1204.79 1203.95 1203.64 1204.19 1193.33 C 1201.8 1187.07 1192.87 1183.25 1186.68 1181.27 C 1167.58 1175.14 1149.14 1163.06 1161.92 1140.84 C 1166.41 1133.02 1174.57 1130.1 1183.18 1128.18 z"/>
<path transform="translate(0,0)" fill="rgb(74,74,74)" d="M 1087.78 1128.26 C 1102.52 1126.72 1114.52 1127.61 1127.67 1135.25 L 1123.31 1151.16 C 1112.52 1146.04 1103.7 1141.76 1091.27 1144.06 C 1073.24 1147.41 1062.26 1164.78 1067.33 1182.54 C 1069.48 1190.14 1074.65 1196.53 1081.63 1200.23 C 1092.73 1206.09 1102.96 1204.18 1114.08 1200.47 C 1117.45 1198.87 1121.54 1196 1124.74 1193.91 L 1124.52 1211.71 C 1107.7 1221.02 1086.08 1222.36 1069.29 1212.16 C 1059.24 1206.12 1052.03 1196.29 1049.29 1184.89 C 1042.51 1156.48 1059.96 1133.71 1087.78 1128.26 z"/>
<path transform="translate(0,0)" fill="rgb(74,74,74)" d="M 892.952 1129.45 L 965.078 1129.1 L 965.029 1144.52 L 936.921 1144.71 L 937 1188.75 L 936.912 1217.57 C 930.743 1217.65 924.144 1217.48 917.936 1217.42 L 918.085 1144.89 L 892.812 1144.81 L 892.952 1129.45 z"/>
<path transform="translate(0,0)" fill="rgb(74,74,74)" d="M 412.585 1129.47 L 427.825 1129.58 L 428.099 1203.03 L 460.636 1202.97 C 460.581 1207.06 461.145 1214.45 459.007 1217.4 C 443.22 1217.68 426.37 1217.27 410.505 1217.15 L 410.074 1160.5 C 410.029 1153.22 409.546 1136.98 410.569 1130.47 L 412.585 1129.47 z"/>
<path transform="translate(0,0)" fill="rgb(74,74,74)" d="M 749.019 1128.93 L 767.155 1128.96 L 767.028 1218.3 L 748.979 1218.21 L 749.019 1128.93 z"/>
<path transform="translate(0,0)" fill="rgb(74,74,74)" d="M 994.127 1129.23 L 1012.21 1129.05 L 1012.08 1217.56 L 993.812 1217.77 C 994.228 1188.39 993.871 1158.7 994.127 1129.23 z"/>
</svg>