<svg version="1.1" xmlns="http://www.w3.org/2000/svg" style="display: block;" viewBox="0 0 2048 2048" width="1024" height="1024" preserveAspectRatio="none">
<defs>
	<linearGradient id="Gradient1" gradientUnits="userSpaceOnUse" x1="520.865" y1="1049.2" x2="561.654" y2="1014.57">
		<stop class="stop0" offset="0" stop-opacity="1" stop-color="rgb(12,57,107)"/>
		<stop class="stop1" offset="1" stop-opacity="1" stop-color="rgb(55,98,142)"/>
	</linearGradient>
</defs>
<path transform="translate(0,0)" fill="rgb(255,255,255)" d="M 0 0 L 2048 0 L 2048 2048 L 0 2048 L 0 0 z"/>
<path transform="translate(0,0)" fill="rgb(6,35,77)" d="M 409.758 612.355 C 416.365 614.303 424.382 618.037 430.848 620.831 C 422.233 642.463 407.905 665.03 401.586 687.282 C 400.309 691.777 419.654 718.526 421.848 729.433 C 426.808 754.086 420.194 773.874 394.234 779.604 C 400.132 804.492 422.546 882.01 396.142 901.646 C 383.067 911.369 343.73 903.45 326.857 900.294 L 327 911.965 C 346.506 930.558 383.598 956.131 406.111 971.977 C 407.869 973.214 421.542 977.35 425.134 978.872 C 434.892 983.009 445.141 989.872 449.633 1000.06 C 452.538 1006.65 450.268 1017.74 446.442 1023.24 C 445.435 1024.69 441.619 1024.19 439.901 1031.12 C 439.049 1034.56 436.035 1037.14 433.462 1039.54 C 418.39 1031.9 396.314 1013.03 381.637 1003.32 C 364.782 992.171 351.776 987.741 333.111 981.053 C 333.159 996.071 329.697 1025.35 331.213 1037.68 C 337.712 1090.53 354.942 1143.14 369.018 1194.4 C 370.396 1199.42 371.543 1204.74 372.512 1209.87 C 379.051 1262.27 383.995 1319.53 403.959 1368.69 C 407.419 1377.19 421.425 1387.45 429.717 1391.23 C 454.634 1404.8 479.176 1391 480.538 1426.79 C 478.299 1427.96 476.024 1429.06 473.717 1430.09 C 439.857 1445.01 419.466 1435.26 385.484 1430.98 C 371.617 1429.23 359.188 1434.31 343.06 1428.05 C 342.7 1411.48 345.084 1391.25 344.31 1377.15 C 343.533 1363.02 330.086 1332 324.736 1316.88 C 315.495 1290.76 306.204 1263.29 296.12 1237.51 C 291.179 1242.87 251.086 1283.85 243.479 1274.51 C 243.442 1272.55 243.011 1272.21 244.131 1271.2 C 249.497 1266.37 256.02 1261.7 261.696 1257.18 C 273.276 1247.94 282.336 1239.35 292.049 1228.29 C 288.33 1214.02 278.349 1188.51 273.116 1173.8 C 266.928 1229.45 269.183 1235.37 226.592 1272.51 C 216.877 1280.96 207.245 1289.51 197.697 1298.14 C 179.613 1315.14 161.894 1332.53 144.553 1350.28 C 145.833 1355.72 147.316 1363.45 148.535 1368.88 C 154.559 1395.71 168.72 1395.9 188.051 1407.88 L 189.12 1408.55 C 192.625 1415.31 193.053 1419.29 194.141 1426.6 C 173.309 1440.22 127.137 1442.15 110.985 1420.6 C 101.663 1408.16 93.8863 1395.35 85.2679 1382.41 C 78.6515 1372.47 68.5876 1364.23 63.1267 1353.64 C 61.9257 1351.35 76.0176 1330.77 77.7294 1328.01 C 92.9193 1321.69 102.713 1316.25 112.117 1302.23 C 131.79 1272.91 164.642 1242.73 181.368 1212.7 C 177.543 1201.16 159.837 1118.81 162.592 1112.61 C 169.625 1108.61 168.543 1107.26 167.611 1098.99 C 165.714 1082.15 163.744 1065.78 162.827 1048.84 C 156.849 1044.55 151.397 1040.26 145.624 1035.7 C 148.877 1028.54 153.588 1021.09 157.445 1014.29 C 179.143 976.03 180.306 932.59 177.422 889.854 C 176.005 868.856 175.188 849.388 179.825 828.669 C 184.303 808.662 194.735 799.765 208.083 785.201 C 214.943 776.928 221.037 746.184 222.309 734.801 C 213.063 739.067 204.474 743.197 194.82 746.538 C 202.934 735.371 211.058 726.031 221.954 717.57 C 218.084 709.553 213.712 701.26 211.133 692.969 C 196.597 646.25 249.176 610.398 290.06 632.077 C 301.506 638.147 309.816 646.644 320.383 652.631 C 338.956 651.224 357.961 644.529 376.327 644.396 C 380.003 644.37 381.535 645.853 383.546 648.237 C 379.85 654.818 335.349 669.426 325.921 672.094 C 330.96 679.592 333.821 690.445 339.085 695.919 C 346.865 704.009 345.681 706.177 343.771 717.217 C 342.862 722.473 341.034 730.546 341.963 735.993 C 344.898 743.586 343.826 744.586 341.415 752.709 C 337.544 756.386 333.004 758.541 329.127 761.994 C 285.58 800.781 322.465 801.511 347.006 828.959 C 352.914 808.827 359.023 788.753 365.33 768.743 C 356.053 758.106 347.315 730.134 361.607 720.451 C 378.115 709.266 377.126 705.696 365.972 689.333 C 361.056 682.12 376.844 672.607 379.979 667.854 C 390.091 649.758 401.278 631.456 409.758 612.355 z"/>
<path transform="translate(0,0)" fill="rgb(80,120,143)" d="M 241.858 788.023 C 284.889 783.889 327.902 828.733 359.784 850.855 C 355.968 866.441 354.003 877.64 352.313 893.334 C 309.37 882.569 270.044 870.936 229.041 853.689 C 240.194 871.916 261.428 880.82 280.357 889.828 C 274.001 898.318 266.926 906.246 259.211 913.524 C 255.279 917.177 235.666 931.823 234.385 934.002 L 235.703 935.546 C 255.341 938.799 278.986 908.693 288.521 894.194 L 308.78 902.167 C 309.844 905.082 313.256 930.491 313.608 934.753 C 316.113 966.404 327.498 1002.58 315.641 1033.38 C 308.322 1052.39 280.125 1054.66 262.72 1055.95 C 224.421 1058.79 192.138 1048.6 157.904 1032.54 C 194.94 982.351 191.164 931.051 188.045 872.716 C 187.196 856.835 187.63 835.802 194.988 821.452 C 205.755 800.452 221.564 795.221 241.858 788.023 z"/>
<path transform="translate(0,0)" fill="rgb(6,35,77)" d="M 298.908 946.654 C 306.724 952.97 300.998 962.617 296.115 969.148 C 278.129 993.208 248.811 1028.69 218.096 1034.39 C 214.829 1032.8 215.808 1034 214.639 1031.04 C 216.185 1027.33 224.562 1022.82 228.311 1020.56 C 259.799 1001.57 278.574 976.268 298.908 946.654 z"/>
<path transform="translate(0,0)" fill="rgb(80,120,143)" d="M 320.793 1049.77 C 323.583 1052.65 338.219 1127.29 341.631 1138 C 344.969 1148.48 349.899 1172.39 353.435 1184.1 C 360.789 1208.45 362.979 1236.35 367.192 1261.52 C 372.543 1293.99 379.094 1326.24 386.831 1358.22 C 379.371 1360.74 361.753 1364.76 353.919 1361.97 C 352.675 1361.53 352.563 1360.06 351.944 1358.41 C 339.651 1315.98 319.949 1271.34 305.256 1229.29 C 296.834 1203.04 280.677 1174.03 278.084 1146.72 C 275.33 1117.72 287.124 1090.88 294.061 1064.35 L 294.297 1063.42 C 305.945 1059.33 310.578 1056.73 320.793 1049.77 z"/>
<path transform="translate(0,0)" fill="rgb(80,120,143)" d="M 174.914 1053.4 C 214.627 1068.58 242.275 1073.21 284.823 1065.34 C 261.294 1101.95 267.212 1183.57 253.004 1226.22 C 246.39 1246.07 224.417 1259.97 209.503 1273.98 C 192.484 1289.96 174.082 1304.25 158.273 1321.53 C 154.314 1325.86 149.129 1330.73 144.131 1333.79 C 141.776 1335.12 141.07 1334.13 138.264 1333.07 C 129.297 1327.18 124.321 1323.25 118.631 1314.04 C 127.206 1298.93 144.37 1281.07 155.391 1266.85 C 166.335 1252.73 176.883 1238.13 187.998 1224.27 C 194.327 1229.84 196.496 1231.66 203.663 1235.98 C 202.097 1230.56 195.738 1219.16 193.245 1212.79 C 187.923 1199.19 186.026 1186.94 183.245 1172.67 C 195.138 1173.69 219.496 1171.01 225.343 1160.71 C 231.378 1150.07 240.442 1100.64 238.787 1090.13 C 237.188 1088.41 236.907 1088.25 233.755 1088.35 C 213.035 1089 198.495 1092.08 177.547 1089.45 C 175.162 1076.67 174.972 1066.22 174.914 1053.4 z"/>
<path transform="translate(0,0)" fill="rgb(80,120,143)" d="M 255.562 634.238 C 282.269 632.64 295.744 646.675 316.923 661.248 C 294.81 672.456 280.714 680.024 259.568 693.326 C 249.147 699.835 239.19 707.631 228.612 714.389 C 208.553 681.044 215.168 646.733 255.562 634.238 z"/>
<path transform="translate(0,0)" fill="rgb(255,255,255)" d="M 314.556 673.817 C 317.899 675.857 323.033 688.392 325.063 692.716 C 327.791 698.526 334.111 705.104 333.612 711.119 C 327.357 717.402 331.583 736.605 333.082 745.267 C 327.665 750.272 324.937 752.779 318.905 756.951 C 306.051 755.612 303.361 754.232 291.606 748.492 C 280.893 742.537 270.854 736.563 268.112 723.431 C 265.979 713.221 271.63 701.066 282.828 699.754 C 290.764 698.824 292.845 701.363 298.456 706.086 L 291.518 688.878 C 295.735 685.088 308.987 677.25 314.556 673.817 z"/>
<path transform="translate(0,0)" fill="rgb(255,255,255)" d="M 374.187 772.595 C 376.928 774.829 378.44 778.375 380.317 781.594 C 382.913 782.197 383.103 782.006 385.122 783.644 C 393.933 803.654 398.496 850.798 398.178 872.719 C 397.826 897.035 385.398 897.671 365.198 895.007 C 362.698 894.726 363.416 895.055 361.537 893.635 C 359.546 886.464 365.292 859.126 370.705 854.188 C 373.179 855.179 372.992 855.197 375.632 854.965 C 377.276 852.719 376.814 853.993 376.422 850.862 C 372.518 844.861 364.355 838.171 358.328 834.24 C 363.055 814.806 368.176 791.357 374.187 772.595 z"/>
<path transform="translate(0,0)" fill="rgb(255,255,255)" d="M 104.646 1324.75 C 105.675 1325.28 115.039 1334.03 117.245 1335.81 C 123.444 1340.79 127.909 1343.67 134.676 1347.95 C 134.481 1365.07 137.914 1384.74 149.488 1397.63 C 151.304 1399.66 156.847 1406.19 157.365 1408.2 C 154.643 1411.65 147.89 1411.03 143.822 1411.01 C 122.195 1405.82 120.389 1386.91 110.64 1371.15 C 102.409 1357.84 93.9919 1351.67 88.2281 1335.82 L 104.646 1324.75 z"/>
<path transform="translate(0,0)" fill="rgb(255,255,255)" d="M 392.262 712.062 C 409.336 711.659 415.208 730.479 414.173 744.476 C 413.207 757.533 400.015 770.614 386.497 768.758 L 379.514 767.408 L 379.105 766.109 L 381.642 762.305 L 381.285 760.907 C 375.636 757.905 368.881 759.553 366.598 756.819 C 363.008 752.52 365.735 734.328 366.294 729.51 C 375.956 723.355 381.203 716.869 392.262 712.062 z"/>
<path transform="translate(0,0)" fill="rgb(255,255,255)" d="M 392.241 1370.16 C 394.131 1371.79 399.339 1380.97 401.916 1384.15 C 412.92 1397.69 426.287 1402.42 441.781 1408.57 C 427.848 1414.01 421.441 1413.32 407.586 1410.1 C 387.173 1404.08 378.148 1401.06 356.797 1399.9 C 355.84 1392.4 355.201 1384.87 354.883 1377.32 C 369.468 1376.84 378.724 1375.1 392.241 1370.16 z"/>
<path transform="translate(0,0)" fill="rgb(255,255,255)" d="M 328.367 927.689 C 332.754 930.461 337.024 933.66 341.039 936.947 C 359.253 951.86 379.317 965.076 397.3 980.189 C 397.116 983.313 395.69 984.384 393.729 987.45 L 391.962 989.561 C 385.051 990.133 339.058 969.204 330.222 965.357 C 329.515 952.936 328.602 940.095 328.367 927.689 z"/>
<path transform="translate(0,0)" fill="rgb(80,120,143)" d="M 221.588 1119.13 L 222.788 1119.44 C 224.767 1125.71 220.146 1145.79 218.09 1152.45 C 205.589 1160.56 193.476 1164.92 179.608 1157.32 C 177.508 1147.44 175.782 1130.77 174.555 1120.55 C 192.767 1123.98 203.862 1123.54 221.588 1119.13 z"/>
<path transform="translate(0,0)" fill="rgb(255,255,255)" d="M 274.542 745.098 C 290.007 752.344 297.898 756.165 314.622 760.605 C 308.983 767.142 305.844 771.7 301.838 779.245 C 300.414 782.754 299.321 786.855 298.236 790.52 C 289.315 786.323 284.051 783.817 276.665 777.314 C 275.627 769.158 273.439 752.816 274.542 745.098 z"/>
<path transform="translate(0,0)" fill="rgb(255,255,255)" d="M 407.883 985.657 C 414.398 986.425 432.751 993.58 434.61 1000.23 C 430.908 1009.14 435.131 1012.38 433.718 1021.99 L 431.986 1023.04 C 428.673 1020.01 425.522 1015.58 422.769 1011.98 C 408.527 1006.16 389.983 1005.72 407.883 985.657 z"/>
<path transform="translate(0,0)" fill="rgb(80,120,143)" d="M 223.504 1099.44 L 226.076 1099.1 L 227.501 1100.47 C 227.59 1104.62 228.023 1102.69 226.02 1106.43 C 214.825 1114.31 195.168 1114.09 181.956 1113.93 L 179.98 1113.01 C 178.515 1109.97 178.129 1103.93 177.701 1100.33 C 192.321 1102.3 208.862 1101.06 223.504 1099.44 z"/>
<path transform="translate(0,0)" fill="rgb(140,185,201)" d="M 550.077 1097.47 C 536.082 1070.53 529.267 1059.36 498.083 1047.4 C 492.75 1045.35 480.52 1044.83 476.49 1042.42 C 476.279 1038.84 475.731 1040.3 477.828 1037.77 C 486.653 1034.55 505.394 1039.52 514.002 1043.64 C 536.931 1054.63 547.689 1068.91 557.081 1091.62 C 564.827 1089.72 588.621 1083.36 595.795 1082.69 C 600.01 1082.34 600.488 1082.2 604.531 1080.84 C 615.319 1078.17 629.466 1076.22 640.497 1074.93 L 650.957 1075.1 C 656.701 1077.49 891.372 1075.99 915.159 1076.01 L 2023.31 1076.62 L 2023.23 1098.31 L 1086 1098.1 L 729.826 1097.98 C 670.691 1097.9 608.937 1098.61 550.077 1097.47 z"/>
<path transform="translate(0,0)" fill="rgb(6,35,77)" d="M 1547.68 894.159 C 1571.94 892.592 1588.13 911.653 1594.7 932.974 C 1600.54 952.484 1598.37 973.515 1588.68 991.423 C 1581.35 1004.8 1572.53 1011.73 1558.24 1015.92 C 1499.83 1021.85 1488.31 910.082 1547.68 894.159 z"/>
<path transform="translate(0,0)" fill="rgb(255,255,255)" d="M 1547.38 911.134 C 1563.49 909.772 1573.69 917.436 1580.08 932.189 C 1586.33 946.728 1586.37 963.193 1580.17 977.758 C 1575.33 988.851 1569.88 994.842 1558.75 999.099 C 1518.34 1006.74 1505.05 930.98 1547.38 911.134 z"/>
<path transform="translate(0,0)" fill="rgb(6,35,77)" d="M 698.934 895.573 C 710.691 895.483 724.784 894.133 734.03 902.403 C 748.676 915.504 748.478 935.209 736.083 949.566 C 752.207 964.389 753.939 981.919 744.923 1001.27 C 731.858 1018.27 718.422 1015.96 699.072 1015.85 L 698.934 895.573 z"/>
<path transform="translate(0,0)" fill="rgb(255,255,255)" d="M 712.79 957.959 C 717.922 957.972 723.478 957.38 728.069 959.982 C 741.205 967.428 739.291 982.453 732.199 993.701 C 726.556 997.336 720.541 1001.47 714.454 997.318 C 710.749 990.668 712.715 967.792 712.79 957.959 z"/>
<path transform="translate(0,0)" fill="rgb(255,255,255)" d="M 712.883 912.852 C 728.703 913.405 734.828 922.142 728.186 936.834 C 707.807 949.799 712.583 925.411 712.883 912.852 z"/>
<path transform="translate(0,0)" fill="rgb(6,35,77)" d="M 1655.33 980.836 C 1661.77 960.928 1667.64 941.112 1675.06 921.479 C 1678.65 911.968 1681.5 901.883 1686.22 892.864 C 1688.71 904.065 1690.59 920.937 1692.5 932.988 L 1705.69 1013.86 L 1692.58 1014.09 C 1690.14 994.741 1687.31 975.446 1684.07 956.216 L 1681.35 942.391 C 1672.25 965.584 1663.7 992.817 1654.73 1016.93 C 1646.71 992.099 1637.14 966.733 1628.6 941.908 C 1624.07 961.951 1618.99 993.498 1616.22 1014.03 L 1603.23 1014.08 L 1617.57 935.975 C 1619.99 922.969 1622.57 905.897 1626.09 893.616 C 1628.29 897.103 1630.05 904.071 1631.33 908.161 C 1638.96 932.505 1647.51 956.559 1655.33 980.836 z"/>
<path transform="translate(0,0)" fill="rgb(6,35,77)" d="M 931.071 894.246 C 934.571 894.022 938.085 894.162 941.556 894.661 C 955.459 896.688 963.471 905.678 971.021 916.359 C 967.629 919.654 964.702 923.009 961.554 926.525 C 956.995 921.303 951.818 914.312 945.099 912.552 C 937.85 910.687 927.998 910.42 921.5 914.561 C 886.885 936.624 900.215 1017.72 950.108 996.854 C 957.286 993.852 960.953 981.223 962.647 973.69 C 957.06 973.424 942.456 974.294 938.356 972.73 L 937.721 970.25 L 937.976 957.209 L 975.941 956.978 C 975.087 969.659 975.106 987.575 968.767 998.477 C 958.036 1016.93 930.799 1022.64 913.14 1010.77 C 872.794 983.662 879.949 904.153 931.071 894.246 z"/>
<path transform="translate(0,0)" fill="rgb(6,35,77)" d="M 827.586 896.138 C 854.801 895.823 881.026 896.437 874.983 936.154 C 873.294 947.254 865.395 955.035 856.177 960.917 C 863.534 977.968 874.134 997.03 882.458 1014.3 L 867.555 1014.36 L 862.59 1003.73 L 840.193 960.324 L 840.288 1014.92 L 827.63 1014.9 C 827.895 975.314 827.88 935.725 827.586 896.138 z"/>
<path transform="translate(0,0)" fill="rgb(255,255,255)" d="M 841.194 913.149 C 845.259 913.189 850.224 912.885 853.886 914.75 C 864.711 920.263 863.595 931.417 857.993 940.509 C 853.589 943.463 848.555 945.615 843.539 943.39 C 839.186 937.542 841.072 921.603 841.194 913.149 z"/>
<path transform="translate(0,0)" fill="rgb(6,35,77)" d="M 1786.45 890.76 C 1789.21 895.128 1799.32 925.875 1801.85 933.332 C 1811.1 960.614 1819.85 987.257 1830.33 1014.2 C 1825.43 1014.37 1820.18 1014.14 1815.26 1014.03 C 1811.94 1004.18 1809.01 995.293 1804.93 985.691 C 1799.67 985.266 1793.59 985.294 1788.25 985.19 L 1765.98 985.166 C 1762.51 994.991 1759.3 1004.2 1755.22 1013.82 C 1750.89 1014.01 1746.18 1013.93 1741.81 1013.95 C 1753.94 976.886 1771.99 925.995 1786.45 890.76 z"/>
<path transform="translate(0,0)" fill="rgb(255,255,255)" d="M 1785.45 928.579 C 1789.81 932.511 1798.07 963.094 1800.03 970.229 L 1787.62 970.375 L 1771.31 970.319 C 1775.9 955.78 1779.94 942.8 1785.45 928.579 z"/>
<path transform="translate(0,0)" fill="rgb(6,35,77)" d="M 1866.22 895.256 C 1889.32 892.923 1901.97 902.369 1911.48 922.641 C 1905.88 923.263 1902.93 923.96 1897.58 925.275 C 1853.23 877.138 1823.71 968.269 1859.13 994.34 C 1875.26 1006.21 1889.13 999.536 1899.3 984.831 L 1899.63 969.45 L 1879.46 969.61 C 1878.57 964.599 1879.08 959.159 1879.28 954.012 L 1912.99 953.633 C 1913.14 963.026 1914.31 982.826 1911.18 990.238 C 1894.95 1028.01 1849.89 1023.86 1835.65 985.99 C 1823.02 952.368 1829.34 910.252 1866.22 895.256 z"/>
<path transform="translate(0,0)" fill="rgb(6,35,77)" d="M 1064.49 894.592 C 1067.71 897.509 1075.3 921.878 1077.3 927.572 L 1108.24 1014.1 L 1094.17 1014.43 C 1090.81 1004.02 1087.05 993.356 1083.53 982.975 L 1064.41 983.141 L 1047.61 983.585 C 1043.07 993.415 1039.32 1004.23 1035.55 1014.43 L 1020.74 1014.24 C 1036.49 975.155 1049.51 933.389 1064.49 894.592 z"/>
<path transform="translate(0,0)" fill="rgb(255,255,255)" d="M 1065 930.543 C 1067.37 932.875 1076.46 961.366 1078.28 966.728 L 1066.5 966.835 L 1052.48 966.855 C 1057.89 954.471 1061.1 943.417 1065 930.543 z"/>
<path transform="translate(0,0)" fill="rgb(6,35,77)" d="M 1910.65 630.436 C 1930.93 629.183 1950.45 631.881 1970.12 636.594 C 1969.38 640.323 1968.59 644.041 1967.74 647.747 C 1935.98 638.909 1895 639.597 1863.76 649.682 C 1808.01 667.68 1771.88 698.992 1745.04 750.182 C 1737.76 764.466 1733.4 777.302 1728.82 792.425 L 1717.07 790.138 C 1725.14 755.974 1741.7 724.402 1765.23 698.351 C 1802.65 656.745 1855.09 633.449 1910.65 630.436 z"/>
<path transform="translate(0,0)" fill="rgb(6,35,77)" d="M 1257.95 896.303 L 1307.03 896.531 L 1306.87 911.78 C 1295.08 911.999 1282.83 911.863 1271 911.895 L 1271.05 943.96 C 1283.58 943.848 1296.11 943.859 1308.64 943.995 L 1308.48 959.265 C 1296.41 959.54 1283.98 959.494 1271.88 959.597 L 1271.89 981.316 L 1271.86 998.313 L 1308.54 998.443 L 1308.49 1014.6 L 1258.42 1014.59 C 1257.2 976.842 1257.67 934.121 1257.95 896.303 z"/>
<path transform="translate(0,0)" fill="rgb(6,35,77)" d="M 1367.25 896.153 C 1384.25 896.141 1401.24 896.255 1418.24 896.494 L 1418.13 911.688 C 1406.35 912.197 1392.28 911.9 1380.34 911.939 L 1380.31 943.791 L 1419.01 943.635 L 1418.97 958.74 L 1380 958.876 L 1380.05 979.25 L 1380.07 998.15 C 1392.69 998.264 1405.31 998.146 1417.92 997.795 L 1418.03 1014.46 C 1401.15 1014.32 1384.27 1014.27 1367.39 1014.32 C 1368.3 975.679 1367.11 935.086 1367.25 896.153 z"/>
<path transform="translate(0,0)" fill="rgb(6,35,77)" d="M 766.014 896.11 L 814.019 896.029 L 814.023 912.419 L 778.971 912.338 L 779.03 945.659 L 814.933 945.245 L 814.887 959.993 C 802.918 960.081 790.949 959.89 778.989 959.419 L 779.003 977.629 L 779.022 998.054 L 811.777 997.789 C 811.825 1004.38 811.768 1008.12 812.806 1014.64 L 765.88 1014.85 L 766.014 896.11 z"/>
<path transform="translate(0,0)" fill="rgb(6,35,77)" d="M 1471.35 893.265 C 1497.96 891.729 1500.86 903.659 1500.17 926.089 C 1499.43 925.157 1498.68 924.221 1497.94 923.281 C 1471.85 890.741 1439.44 920.778 1437.95 954.331 C 1436.63 984.194 1467.79 1017.44 1493.29 991.121 L 1500.07 983.017 C 1500.8 991.776 1501.23 995.925 1503.22 1004.4 C 1429.03 1061.22 1388.53 906.592 1471.35 893.265 z"/>
<path transform="translate(0,0)" fill="rgb(6,35,77)" d="M 1906.21 800.938 C 1921.54 797.607 1936.68 807.253 1940.14 822.547 C 1943.59 837.842 1934.07 853.064 1918.81 856.649 C 1903.36 860.276 1887.92 850.619 1884.42 835.144 C 1880.92 819.669 1890.71 804.309 1906.21 800.938 z"/>
<path transform="translate(0,0)" fill="rgb(6,35,77)" d="M 458.71 943.386 C 507.056 938.608 547.135 945.576 587.4 974.421 C 621.2 998.129 644.091 1034.39 650.957 1075.1 L 640.497 1074.93 C 640.445 1074.15 640.376 1073.37 640.291 1072.6 C 636.855 1041.8 613.189 1006.52 589.097 988.021 C 549.703 957.771 509.864 947.538 461.399 952.833 L 458.71 943.386 z"/>
<path transform="translate(0,0)" fill="rgb(6,35,77)" d="M 1196.7 896.073 L 1247.14 896.092 L 1246.97 911.707 C 1241.97 912.104 1234.19 911.943 1228.94 911.974 L 1228.79 996.509 L 1228.84 1014.47 L 1215 1014.35 L 1215.29 911.951 L 1196.61 912.002 L 1196.7 896.073 z"/>
<path transform="translate(0,0)" fill="rgb(6,35,77)" d="M 980.072 896.167 C 996.727 896.004 1013.38 896.137 1030.03 896.566 L 1029.85 912.209 C 1023.83 912.467 1017.3 912.45 1011.24 912.553 L 1011.24 998.25 L 1011.39 1014.73 L 998.144 1014.58 L 997.948 912.914 C 992.18 912.538 985.887 912.423 980.068 912.201 L 980.072 896.167 z"/>
<path transform="translate(0,0)" fill="rgb(6,35,77)" d="M 1903.91 689.361 C 1922.33 687.264 1937.29 688.911 1954.99 693.234 C 1956.95 696.156 1956.47 694.556 1956.25 698.269 C 1954.91 700.018 1954.71 701.126 1951.95 700.504 C 1888.51 686.213 1826.26 714.24 1793.87 772.304 C 1787.87 785.74 1784.96 792.72 1781.99 807.052 L 1770.96 803.855 C 1789.96 740.594 1838.29 698.423 1903.91 689.361 z"/>
<path transform="translate(0,0)" fill="rgb(6,35,77)" d="M 1321.03 896.183 L 1333.44 896.224 C 1334.12 929.38 1333.4 965.008 1333.34 998.362 L 1356.8 998.462 L 1356.87 1014.08 C 1345.44 1014.54 1332.44 1014.38 1320.88 1014.51 C 1320.53 975.07 1320.58 935.625 1321.03 896.183 z"/>
<path transform="translate(0,0)" fill="rgb(140,185,201)" d="M 487.773 1079.35 C 500.827 1076.04 514.087 1083.97 517.333 1097.04 C 520.58 1110.11 512.574 1123.33 499.485 1126.51 C 486.496 1129.66 473.399 1121.73 470.177 1108.75 C 466.955 1095.78 474.818 1082.64 487.773 1079.35 z"/>
<path transform="translate(0,0)" fill="rgb(6,35,77)" d="M 1116.64 896.083 L 1129.49 896.039 C 1128.4 928.587 1129.12 965.19 1129.11 998.08 L 1150.42 998.112 L 1150.46 1014.01 C 1139.28 1014.02 1128.09 1014.22 1116.91 1014.59 L 1116.64 896.083 z"/>
<path transform="translate(0,0)" fill="url(#Gradient1)" d="M 595.795 1082.69 C 580.443 1035.11 549.255 1007.26 498.996 998.57 C 492.73 997.487 474.545 997.702 472.052 996.337 L 471.98 992.955 C 476.948 985.542 492.921 989.276 500.935 990.229 C 531.182 993.826 558.679 1008.88 578.797 1031.62 C 592.589 1047.2 598.078 1061.57 604.531 1080.84 C 600.488 1082.2 600.01 1082.34 595.795 1082.69 z"/>
<path transform="translate(0,0)" fill="rgb(6,35,77)" d="M 1914.62 748.427 C 1922.49 748.145 1936.52 747.967 1943.12 752.421 L 1942.78 754.768 C 1938.96 757.767 1934.04 754.687 1929.29 754.278 C 1889.47 750.851 1857.43 771.191 1839.61 805.391 C 1836.19 813.09 1836.76 819.043 1831.55 824.212 L 1829.83 824.14 C 1822.74 813.397 1839.01 791.739 1845.99 783.557 C 1864.18 762.226 1886.69 750.482 1914.62 748.427 z"/>
</svg>