<svg version="1.1" xmlns="http://www.w3.org/2000/svg" style="display: block;" viewBox="0 0 1365 2048" width="1024" height="1536" preserveAspectRatio="none">
<defs>
	<linearGradient id="Gradient1" gradientUnits="userSpaceOnUse" x1="633.604" y1="607.731" x2="608.791" y2="644.218">
		<stop class="stop0" offset="0" stop-opacity="1" stop-color="rgb(10,10,9)"/>
		<stop class="stop1" offset="1" stop-opacity="1" stop-color="rgb(42,41,42)"/>
	</linearGradient>
	<linearGradient id="Gradient2" gradientUnits="userSpaceOnUse" x1="758.906" y1="819.517" x2="697.064" y2="820.411">
		<stop class="stop0" offset="0" stop-opacity="1" stop-color="rgb(46,139,144)"/>
		<stop class="stop1" offset="1" stop-opacity="1" stop-color="rgb(55,181,159)"/>
	</linearGradient>
	<linearGradient id="Gradient3" gradientUnits="userSpaceOnUse" x1="649.461" y1="790.72" x2="635.146" y2="872.407">
		<stop class="stop0" offset="0" stop-opacity="1" stop-color="rgb(0,0,0)"/>
		<stop class="stop1" offset="1" stop-opacity="1" stop-color="rgb(37,37,36)"/>
	</linearGradient>
	<linearGradient id="Gradient4" gradientUnits="userSpaceOnUse" x1="798.886" y1="916.646" x2="668.413" y2="970.128">
		<stop class="stop0" offset="0" stop-opacity="1" stop-color="rgb(31,31,30)"/>
		<stop class="stop1" offset="1" stop-opacity="1" stop-color="rgb(57,57,56)"/>
	</linearGradient>
</defs>
<path transform="translate(0,0)" fill="rgb(255,255,255)" d="M 0 0 L 1365 0 L 1365 2048 L 0 2048 L 0 0 z"/>
<path transform="translate(0,0)" fill="rgb(48,47,48)" d="M 790.473 394.301 C 834.373 389.177 873.148 418.033 882.061 461.131 C 884.302 471.964 883.986 481.396 883.81 492.341 C 926.314 520.391 949.468 544.31 981.901 581.842 C 991.72 577.39 1002.69 576.138 1013.26 578.263 C 1025.63 580.66 1036.47 588.025 1043.26 598.64 C 1055.12 617.07 1054.65 641.669 1039.38 657.936 C 1033.99 663.676 1029.2 666.586 1022.66 670.822 C 1045.79 720.59 1054.71 773.502 1057.62 827.873 C 1104.52 845.824 1117.96 899.275 1082.46 936.59 C 1068.19 951.589 1053.82 955.038 1033.72 955.123 C 1025.79 976.067 1016.3 996.77 1001.91 1014.23 C 1014.68 1030.04 1018.65 1050.94 1009.92 1069.71 C 1004.39 1081.6 994.262 1090.72 981.866 1094.99 C 965.294 1100.87 952.4 1097.66 937.354 1090.4 C 896.578 1130.38 831.05 1165.64 775.154 1177.76 C 774.435 1202.3 760.179 1218.89 733.513 1214.59 C 721.065 1212.58 714.241 1203.22 707.781 1193.25 C 688.04 1193.94 668.277 1193.62 648.569 1192.28 C 639.298 1205.96 632.198 1211.96 617.785 1219.31 C 611.588 1221.68 607.112 1223.03 600.493 1224.08 C 581.767 1227.16 562.59 1222.61 547.244 1211.44 C 527.876 1197.21 520.969 1180.17 517.614 1157.41 C 484.873 1145.26 449.971 1119.5 424.267 1095.92 C 417.537 1103.04 406.099 1110.12 396.635 1112.72 C 313.808 1135.52 258.416 1039.47 320.297 977.907 C 314.646 960.932 305.584 944.772 300.276 926.918 C 217.984 650.111 443.186 384.551 732.039 427.16 C 748.98 407.138 763.84 398.209 790.473 394.301 z"/>
<path transform="translate(0,0)" fill="rgb(255,255,255)" d="M 664.972 661.527 L 666.026 657.842 L 667.748 656.943 C 679.825 661.193 730.261 682.878 740.165 683.58 L 800.412 707.594 C 806.922 710.203 824.382 716.767 829.887 719.789 L 830.31 720.786 C 827.354 720.577 820.466 719.324 818.524 720.522 C 821.449 724.229 826.65 723.188 826.705 725.736 L 825.476 726.055 C 817.345 758.003 827.384 784.467 860.262 795.089 C 857.053 819.519 849.484 852.438 847.526 875.263 C 833.5 878.191 822.687 885.474 814.625 897.367 C 808.774 905.999 806.606 914.968 806.785 925.173 C 806.807 926.452 806.8 930.596 805.829 931.493 C 805.829 931.493 801.875 932.43 801.549 932.502 C 801.29 932.554 801.03 932.606 800.771 932.658 C 803.234 933.358 805.638 933.654 807.072 935.653 C 805.262 938.628 803.321 938.275 800.52 940.83 C 803.263 940.28 807.655 938.935 809.947 939.99 C 816.664 954.396 822.432 964.592 838.794 970.441 C 851.111 974.759 864.653 973.886 876.313 968.021 C 881.177 965.631 884.881 962.596 888.867 959.009 C 896.126 969.182 903.498 979.5 911.08 989.425 C 917.43 997.738 924.025 1005.1 929.737 1013.98 C 910.144 1037.56 910.67 1056.68 927.472 1081.64 C 898.646 1108.17 856.295 1134.04 819.759 1148.58 C 804.277 1154.74 788.33 1158.98 772.379 1163.58 C 765.734 1154.21 759.514 1148.26 747.561 1146.11 C 738.516 1144.42 729.173 1146.48 721.671 1151.8 C 712.106 1158.59 708.072 1167.26 706.128 1178.39 C 689.856 1178.95 673.573 1179.1 657.294 1178.84 C 662.872 1146.82 662.641 1124.35 637.051 1100.16 C 634.171 1097.44 627.604 1094.18 625.65 1091.39 L 628.727 1083.75 C 624.894 1085.85 625.204 1086.32 623.168 1090.09 L 620.86 1090.48 L 619.302 1089.16 C 619.536 1083.27 623.708 1080.4 623.465 1075.06 C 620.866 1077.56 618.386 1083.59 616.717 1087.09 C 596.528 1079.97 588.277 1080.67 567.507 1084.93 C 565.582 1079.31 563.328 1071.88 560.522 1066.81 C 560.137 1072.26 564.186 1076.56 561.573 1081.86 C 555.386 1074.23 558.808 1069.3 550.676 1065.68 C 547.418 1055.45 542.599 1045.88 538.569 1035.89 L 517.471 982.307 C 514.934 975.94 508.073 959.714 506.89 953.697 C 505.966 950.012 505.165 948.351 503.642 944.971 C 503.465 941.912 503.455 939.693 503.549 936.629 C 505.032 939.028 505.498 940.701 507.944 941.609 C 509.182 939.604 508.708 940.723 508.51 937.728 L 509.986 937.139 C 509.044 932.667 506.934 928.623 505.019 924.457 C 540.655 917.83 559.402 888.175 548.334 853.623 C 544.579 841.905 536.441 837.891 529.44 828.569 C 528.622 827.48 530.449 823.129 530.909 821.739 C 536.66 813.774 553.904 781.217 559.484 770.981 C 576.233 740.868 592.811 710.661 609.22 680.361 C 620.861 679.551 624.287 682.166 638.063 678.597 C 648.232 675.962 661.903 662.027 664.972 661.527 z"/>
<path transform="translate(0,0)" fill="rgb(255,255,255)" d="M 800.52 940.83 C 803.263 940.28 807.655 938.935 809.947 939.99 C 816.664 954.396 822.432 964.592 838.794 970.441 C 851.111 974.759 864.653 973.886 876.313 968.021 C 881.177 965.631 884.881 962.596 888.867 959.009 C 896.126 969.182 903.498 979.5 911.08 989.425 C 917.43 997.738 924.025 1005.1 929.737 1013.98 C 910.144 1037.56 910.67 1056.68 927.472 1081.64 C 898.646 1108.17 856.295 1134.04 819.759 1148.58 C 804.277 1154.74 788.33 1158.98 772.379 1163.58 C 765.734 1154.21 759.514 1148.26 747.561 1146.11 C 738.516 1144.42 729.173 1146.48 721.671 1151.8 C 712.106 1158.59 708.072 1167.26 706.128 1178.39 C 689.856 1178.95 673.573 1179.1 657.294 1178.84 C 662.872 1146.82 662.641 1124.35 637.051 1100.16 C 634.171 1097.44 627.604 1094.18 625.65 1091.39 L 628.727 1083.75 C 624.894 1085.85 625.204 1086.32 623.168 1090.09 L 620.86 1090.48 L 619.302 1089.16 C 619.536 1083.27 623.708 1080.4 623.465 1075.06 C 625.151 1071.54 627.959 1066.93 630.074 1063.58 C 645.43 1039.22 657.937 1010.25 674.868 987.182 C 679.31 983.989 675.533 981.602 679.702 982.477 C 682.516 983.067 683.798 984.651 684.888 987.021 L 683.898 988.912 L 682.111 989.374 C 711.365 999.812 732.655 984.151 733.045 953.335 C 742.601 952.858 790.875 943.833 800.52 940.83 z"/>
<path transform="translate(0,0)" fill="rgb(26,24,22)" d="M 674.868 987.182 C 679.31 983.989 675.533 981.602 679.702 982.477 C 682.516 983.067 683.798 984.651 684.888 987.021 L 683.898 988.912 L 682.111 989.374 C 671.89 1009.58 658.512 1030.27 647.436 1050.28 C 643.705 1057.02 632.502 1078.98 628.727 1083.75 C 624.894 1085.85 625.204 1086.32 623.168 1090.09 L 620.86 1090.48 L 619.302 1089.16 C 619.536 1083.27 623.708 1080.4 623.465 1075.06 C 625.151 1071.54 627.959 1066.93 630.074 1063.58 C 645.43 1039.22 657.937 1010.25 674.868 987.182 z"/>
<path transform="translate(0,0)" fill="url(#Gradient4)" d="M 674.868 987.182 C 673.879 984.567 671.712 981.576 670.392 978.876 C 665.666 969.247 662.583 957.349 666.155 946.879 C 674.326 922.925 706.815 916.75 724.091 934.79 C 727.747 938.607 728.876 941.122 731.035 945.822 C 754.221 941.124 777.468 936.736 800.771 932.658 C 803.234 933.358 805.638 933.654 807.072 935.653 C 805.262 938.628 803.321 938.275 800.52 940.83 C 790.875 943.833 742.601 952.858 733.045 953.335 C 732.655 984.151 711.365 999.812 682.111 989.374 L 683.898 988.912 L 684.888 987.021 C 683.798 984.651 682.516 983.067 679.702 982.477 C 675.533 981.602 679.31 983.989 674.868 987.182 z"/>
<path transform="translate(0,0)" fill="rgb(48,47,48)" d="M 503.642 944.971 C 503.465 941.912 503.455 939.693 503.549 936.629 C 505.032 939.028 505.498 940.701 507.944 941.609 C 509.182 939.604 508.708 940.723 508.51 937.728 L 509.986 937.139 L 510.613 938.919 C 516.182 950.073 521 964.282 525.406 976.076 C 530.939 990.594 536.548 1005.08 542.232 1019.54 C 544.801 1026.12 559.659 1062.57 560.522 1066.81 C 560.137 1072.26 564.186 1076.56 561.573 1081.86 C 555.386 1074.23 558.808 1069.3 550.676 1065.68 C 547.418 1055.45 542.599 1045.88 538.569 1035.89 L 517.471 982.307 C 514.934 975.94 508.073 959.714 506.89 953.697 C 505.966 950.012 505.165 948.351 503.642 944.971 z"/>
<path transform="translate(0,0)" fill="rgb(26,24,22)" d="M 503.642 944.971 C 503.465 941.912 503.455 939.693 503.549 936.629 C 505.032 939.028 505.498 940.701 507.944 941.609 C 509.182 939.604 508.708 940.723 508.51 937.728 L 509.986 937.139 L 510.613 938.919 L 510.586 939.895 C 510.452 945.889 512.515 950.225 511.38 954.367 L 509.625 955.281 L 506.89 953.697 C 505.966 950.012 505.165 948.351 503.642 944.971 z"/>
<path transform="translate(0,0)" fill="rgb(26,24,22)" d="M 664.972 661.527 L 666.026 657.842 L 667.748 656.943 C 679.825 661.193 730.261 682.878 740.165 683.58 L 800.412 707.594 C 806.922 710.203 824.382 716.767 829.887 719.789 L 830.31 720.786 C 827.354 720.577 820.466 719.324 818.524 720.522 C 821.449 724.229 826.65 723.188 826.705 725.736 L 825.476 726.055 C 810.994 722.792 771.328 705.385 756.191 699.231 L 705.552 678.395 C 692.721 673.236 677.2 667.556 664.972 661.527 z"/>
<path transform="translate(0,0)" fill="rgb(48,47,48)" d="M 683.708 747.428 C 714.273 743.81 760.868 754.607 786.356 771.87 C 791.826 775.575 805.27 784.273 806.628 790.328 L 786.869 814.698 C 743.354 780.114 701.103 774.397 647.782 788.068 C 632.518 792.477 605.59 809.593 594.416 821.355 C 590.273 825.715 576.667 842.599 572.612 844.559 C 564.676 843.765 551.072 831.942 544.304 826.652 C 579.615 777.008 622.507 751.853 683.708 747.428 z"/>
<path transform="translate(0,0)" fill="rgb(202,40,67)" d="M 683.883 757.428 C 715.243 754.97 773.923 765.592 793.636 792.15 L 785.226 801.74 C 773.032 792.995 764.827 787.01 750.382 781.955 C 713.306 768.98 679.4 768.999 642.257 780.793 C 606.938 794.501 593.733 808.237 568.463 835.429 C 564.858 832.396 561.515 829.091 558.117 825.828 C 584.908 784.524 635.66 760.403 683.883 757.428 z"/>
<path transform="translate(0,0)" fill="url(#Gradient3)" d="M 681.764 796.932 C 707.312 792.117 741.197 801.551 762.52 815.989 C 766.783 818.83 770.781 822.048 774.467 825.606 C 768.402 833.63 761.624 841.28 755.04 848.9 C 735.088 830.875 715.253 827.447 689.256 826.557 C 687.344 826.639 685.436 826.799 683.538 827.036 C 650.178 831.022 632.282 847.023 612.604 872.053 C 602.831 866.898 594.168 861.742 585.533 854.788 C 603.928 823.619 645.602 798.674 681.764 796.932 z"/>
<path transform="translate(0,0)" fill="rgb(26,24,22)" d="M 681.764 796.932 C 707.312 792.117 741.197 801.551 762.52 815.989 C 766.783 818.83 770.781 822.048 774.467 825.606 C 768.402 833.63 761.624 841.28 755.04 848.9 C 735.088 830.875 715.253 827.447 689.256 826.557 C 690.922 825.315 698.932 825.489 701.473 825.42 C 698.115 824.985 697.174 825.101 694.367 823.41 C 697.155 820.699 698.786 823.24 702.079 821.189 L 695.55 818.266 L 694.717 817.999 C 695.008 813.853 695.094 809.303 695.258 805.116 C 694.716 802.853 694.199 801.179 693.478 798.965 C 690.321 796.568 686.285 797.156 681.764 796.932 z"/>
<path transform="translate(0,0)" fill="url(#Gradient2)" d="M 695.258 805.116 C 718.053 804.983 745.849 811.15 763.076 826.875 C 760.675 829.814 757.44 834.002 754.911 836.678 C 734.952 824.448 719.185 819.342 695.55 818.266 L 694.717 817.999 C 695.008 813.853 695.094 809.303 695.258 805.116 z"/>
<path transform="translate(0,0)" fill="rgb(245,221,12)" d="M 695.258 805.116 C 695.094 809.303 695.008 813.853 694.717 817.999 C 666.115 817.361 636.158 829.299 617.625 850.972 C 614.876 854.187 612.363 857.655 608.246 858.476 C 604.134 857.346 601.938 855.277 598.566 852.673 C 600.448 850.293 602.384 847.957 604.372 845.665 C 630.253 816.022 657.44 807.533 695.258 805.116 z"/>
<path transform="translate(0,0)" fill="rgb(48,47,48)" d="M 681.548 843.224 C 706.623 841.008 724.579 846.32 743.359 863.169 C 737.354 870.471 731.511 877.903 725.832 885.461 C 713.081 869.83 696.744 865.439 677.607 871.132 C 662.951 877.822 657.672 884.028 651.524 898.893 C 641.727 893.217 634.854 888.934 625.616 882.42 C 637.285 860.603 657.252 847.177 681.548 843.224 z"/>
<path transform="translate(0,0)" fill="rgb(77,74,106)" d="M 690.173 852.454 C 706.811 851.95 719.65 855.507 732.844 865.624 L 725.135 873.215 C 711.014 861.391 689.42 855.571 672.504 864.945 C 661.457 868.122 653.784 878.996 647.728 888.07 C 644.415 885.3 640.993 882.166 637.735 879.289 C 639.311 877.331 640.93 875.41 642.592 873.525 C 655.806 858.713 671.103 853.65 690.173 852.454 z"/>
<path transform="translate(0,0)" fill="rgb(255,255,255)" d="M 331.809 970.568 C 326.188 954.194 310.7 923.526 309.913 906.956 C 307.573 857.636 339.492 792.381 368.124 755.254 C 419.452 688.697 487.056 649.277 569.528 638.229 C 570.262 641.12 571.105 643.983 572.055 646.811 C 577.297 662.568 587.971 670.314 602.191 677.427 L 609.22 680.361 C 592.811 710.661 576.233 740.868 559.484 770.981 C 553.904 781.217 536.66 813.774 530.909 821.739 C 527.04 824.171 526.778 827.868 522.402 828.634 C 520.671 825.681 521.075 826.965 521.525 823.098 C 511.663 821.462 498.034 819.483 488.29 821.489 C 474.484 824.362 462.387 832.608 454.668 844.409 C 437.056 871.446 448.525 902.988 474.706 919.436 C 456.99 937.704 438.566 958.277 421.313 977.138 C 392.253 958.759 362.896 955.219 331.809 970.568 z"/>
<path transform="translate(0,0)" fill="rgb(26,24,22)" d="M 602.191 677.427 L 609.22 680.361 C 592.811 710.661 576.233 740.868 559.484 770.981 C 553.904 781.217 536.66 813.774 530.909 821.739 C 527.04 824.171 526.778 827.868 522.402 828.634 C 520.671 825.681 521.075 826.965 521.525 823.098 C 525.216 813.684 540.518 788.014 546.015 777.86 L 578.226 719.614 C 585.654 706.083 593.682 690.084 602.191 677.427 z"/>
<path transform="translate(0,0)" fill="rgb(255,255,255)" d="M 714.424 453.419 L 718.225 453.055 C 720.48 454.732 718.313 463.034 717.921 467.185 C 715.812 489.562 720.882 507.491 733.027 526.13 C 722.534 533.447 709.707 544.379 699.408 552.602 C 686.498 562.911 669.677 575.342 657.962 586.486 C 646.964 578.547 636.851 573.559 622.988 573.196 C 608.923 572.747 595.277 578.011 585.157 587.788 C 572.574 599.89 569.156 613.546 568.785 630.291 C 547.198 632.723 514.551 639.708 494.328 647.679 C 426.109 674.57 355.541 740.088 326.408 807.395 C 321.949 816.943 318.046 826.92 314.097 836.703 C 318.475 788.82 336.19 740.867 358.607 698.704 C 426.562 570.893 569.036 467.385 714.424 453.419 z"/>
<path transform="translate(0,0)" fill="rgb(255,255,255)" d="M 738.429 532.764 C 766.504 556.271 786.005 562.903 822.554 556.53 C 824.663 571.151 830.372 592.62 833.822 607.517 L 850.582 682.393 C 851.614 686.373 852.341 689.396 853.05 693.45 C 853.257 696.028 854.037 698.021 852.345 699.34 C 842.228 707.229 837.261 708.452 829.887 719.789 C 824.382 716.767 806.922 710.203 800.412 707.594 L 740.165 683.58 C 735.631 681.113 730.538 678.96 725.689 677.221 C 706.608 670.378 687.708 661.127 668.789 654.247 C 678.66 632.771 677.239 613.12 663.739 593.751 C 686.442 573.782 714.618 551.905 738.429 532.764 z"/>
<path transform="translate(0,0)" fill="rgb(255,255,255)" d="M 646.393 437.417 C 651.584 437.151 656.778 436.944 661.974 436.794 C 670.506 436.573 720.7 436.764 724.871 440.725 C 723.576 442.262 720.968 443.284 718.991 443.596 C 696.761 447.109 676.386 449.79 654.487 455.437 C 604.4 468.747 556.811 490.111 513.581 518.694 C 415.591 582.691 333.895 689.783 309.751 805.256 C 304 832.904 304 850.371 301.28 878.054 C 298.874 866.283 297.749 856.223 296.94 844.18 C 289.142 742.116 322.645 641.195 389.933 564.058 C 454.885 489.041 547.344 443.385 646.393 437.417 z"/>
<path transform="translate(0,0)" fill="rgb(255,255,255)" d="M 879.833 505.8 C 908.763 527.586 935.969 549.991 959.259 577.932 C 962.461 581.773 966.198 586.336 969.597 589.882 C 950.83 613.974 949.717 633.245 966.931 658.177 C 947.949 675.755 925.212 691.292 905.969 709.598 C 891.413 696.301 882.545 697.361 863.745 695.494 C 862.94 694.52 862.234 693.664 861.626 692.927 L 860.21 685.506 C 858.549 672.95 853.571 654.35 850.655 641.526 C 844.072 612.366 837.327 583.243 830.423 554.158 C 857.796 541.288 865.188 531.022 879.833 505.8 z"/>
<path transform="translate(0,0)" fill="rgb(255,255,255)" d="M 482.236 923.241 L 496.559 924.976 C 498.803 932.429 500.298 937.897 503.642 944.971 C 505.165 948.351 505.966 950.012 506.89 953.697 C 508.073 959.714 514.934 975.94 517.471 982.307 L 538.569 1035.89 C 542.599 1045.88 547.418 1055.45 550.676 1065.68 C 552.135 1071.24 556.538 1081.79 558.792 1087.59 C 534.333 1099.5 525.004 1117.62 518.143 1142.5 C 480.101 1125.73 463.027 1109.44 431.481 1085.98 C 460.47 1057.22 453.402 1010.88 426.721 983.02 C 445.286 963.769 464.013 942.933 482.236 923.241 z"/>
<path transform="translate(0,0)" fill="rgb(255,255,255)" d="M 974.178 664.652 C 976.169 665.228 980.915 668.367 983.28 669.437 C 993.439 674.031 999.608 673.856 1010.25 673.853 C 1029.86 724.423 1041.78 770.736 1043.43 825.038 C 1020.73 824.949 1006.23 830.743 990.184 846.47 L 982.39 838.115 C 963.398 817.995 932.747 793.634 915.634 773.497 C 926.039 751.911 925.435 735.534 911.687 715.833 C 929.163 700.994 956.037 677.73 974.178 664.652 z"/>
<path transform="translate(0,0)" fill="rgb(255,255,255)" d="M 790.749 407.946 C 828.53 402.492 863.583 428.682 869.064 466.458 C 874.544 504.235 848.378 539.307 810.605 544.813 C 772.796 550.325 737.682 524.127 732.197 486.314 C 726.711 448.501 752.932 413.406 790.749 407.946 z"/>
<path transform="translate(0,0)" fill="rgb(255,255,255)" d="M 360.659 975.301 C 395.468 969.207 428.647 992.424 434.848 1027.21 C 441.049 1062 417.935 1095.25 383.165 1101.56 C 348.241 1107.9 314.813 1084.66 308.585 1049.72 C 302.357 1014.78 325.697 981.421 360.659 975.301 z"/>
<path transform="translate(0,0)" fill="rgb(48,47,48)" d="M 367.877 1002.15 C 388.118 999.884 406.335 1014.53 408.473 1034.78 C 410.612 1055.04 395.854 1073.16 375.587 1075.17 C 355.498 1077.17 337.567 1062.57 335.448 1042.49 C 333.328 1022.41 347.815 1004.39 367.877 1002.15 z"/>
<path transform="translate(0,0)" fill="rgb(202,40,67)" d="M 365.613 1010.61 C 375.654 1008.43 386.087 1011.85 392.891 1019.55 C 399.696 1027.25 401.81 1038.02 398.419 1047.72 C 395.029 1057.42 386.663 1064.53 376.544 1066.31 C 361.317 1068.99 346.746 1058.99 343.768 1043.82 C 340.791 1028.65 350.503 1013.88 365.613 1010.61 z"/>
<path transform="translate(0,0)" fill="rgb(255,255,255)" d="M 909.078 780.819 C 911.54 782.261 924.555 795.067 927.333 797.627 C 946.641 815.42 965.422 835.352 985.328 852.356 C 975.617 866.592 972.973 879.93 973.884 896.88 C 958.882 899.389 943.934 902.205 929.048 905.328 L 902.562 910.608 C 895.622 887.55 879.956 876.577 856.53 873.649 C 858.522 851.354 865.947 820.763 868.787 796.091 C 886.549 796.184 895.917 793.006 909.078 780.819 z"/>
<path transform="translate(0,0)" fill="rgb(255,255,255)" d="M 580.029 1096.34 C 611.612 1091.25 641.341 1112.72 646.444 1144.3 C 651.547 1175.88 630.092 1205.62 598.515 1210.74 C 566.914 1215.87 537.146 1194.39 532.04 1162.79 C 526.933 1131.18 548.423 1101.43 580.029 1096.34 z"/>
<path transform="translate(0,0)" fill="rgb(48,47,48)" d="M 582.253 1119.67 C 600.329 1115.67 618.215 1127.11 622.161 1145.2 C 626.106 1163.29 614.609 1181.14 596.509 1185.03 C 578.486 1188.9 560.726 1177.47 556.798 1159.45 C 552.87 1141.44 564.254 1123.65 582.253 1119.67 z"/>
<path transform="translate(0,0)" fill="rgb(32,167,190)" d="M 582.572 1128.09 C 591.501 1125.59 601.088 1128.09 607.646 1134.65 C 614.205 1141.21 616.713 1150.8 614.207 1159.72 C 611.7 1168.65 604.57 1175.54 595.557 1177.72 C 585.953 1180.05 575.865 1176.66 569.621 1169 C 563.378 1161.34 562.089 1150.77 566.309 1141.84 C 569.483 1135.12 575.416 1130.1 582.572 1128.09 z"/>
<path transform="translate(0,0)" fill="rgb(255,255,255)" d="M 1028.47 839.401 C 1056.34 834.178 1083.21 852.381 1088.69 880.196 C 1094.17 908.011 1076.22 935.051 1048.46 940.794 C 1020.33 946.614 992.85 928.372 987.294 900.187 C 981.737 872.001 1000.24 844.694 1028.47 839.401 z"/>
<path transform="translate(0,0)" fill="rgb(48,47,48)" d="M 1029.55 859.835 C 1046.25 855.924 1062.95 866.327 1066.8 883.04 C 1070.65 899.754 1060.19 916.415 1043.46 920.207 C 1026.82 923.98 1010.26 913.582 1006.43 896.953 C 1002.6 880.324 1012.94 863.727 1029.55 859.835 z"/>
<path transform="translate(0,0)" fill="rgb(77,74,106)" d="M 1030.91 866.665 C 1043.6 863.628 1056.37 871.372 1059.55 884.031 C 1062.73 896.69 1055.12 909.549 1042.5 912.866 C 1034.21 915.045 1025.39 912.6 1019.4 906.465 C 1013.41 900.33 1011.19 891.451 1013.57 883.216 C 1015.95 874.981 1022.57 868.66 1030.91 866.665 z"/>
<path transform="translate(0,0)" fill="rgb(255,255,255)" d="M 973.688 906.357 C 977.398 906.11 980.99 921.839 984.661 926.658 C 995.686 941.13 1005.31 946.383 1020.68 954.243 C 1011.09 975.109 1004.29 987.455 991.565 1006.65 C 975.779 997.752 963.431 997.337 946.016 1001.82 C 943.301 1003.11 939.22 1005.71 936.513 1007.31 C 926.668 991.708 906.796 968.538 894.833 951.494 C 902.309 939.524 902.605 932.289 903.939 918.646 C 927.241 915.677 950.375 909.627 973.688 906.357 z"/>
<path transform="translate(0,0)" fill="rgb(255,255,255)" d="M 612.353 587.807 C 633.961 582.644 655.642 596.057 660.668 617.697 C 665.694 639.337 652.143 660.933 630.471 665.821 C 608.993 670.666 587.633 657.263 582.652 635.816 C 577.671 614.369 590.938 592.924 612.353 587.807 z"/>
<path transform="translate(0,0)" fill="url(#Gradient1)" d="M 614.495 603.59 C 627.186 599.606 640.696 606.707 644.612 619.419 C 648.528 632.131 641.356 645.603 628.623 649.451 C 615.985 653.271 602.637 646.164 598.75 633.547 C 594.863 620.93 601.899 607.544 614.495 603.59 z"/>
<path transform="translate(0,0)" fill="rgb(245,221,12)" d="M 616.879 612.47 C 624.773 609.818 633.322 614.067 635.973 621.961 C 638.625 629.855 634.376 638.403 626.482 641.055 C 618.589 643.706 610.041 639.457 607.389 631.564 C 604.737 623.671 608.986 615.123 616.879 612.47 z"/>
<path transform="translate(0,0)" fill="rgb(255,255,255)" d="M 867.442 707.528 C 888.504 704.923 907.777 719.654 910.791 740.662 C 913.805 761.67 899.451 781.225 878.506 784.647 C 864.59 786.92 850.532 781.498 841.747 770.468 C 832.963 759.438 830.823 744.523 836.152 731.469 C 841.482 718.414 853.449 709.258 867.442 707.528 z"/>
<path transform="translate(0,0)" fill="rgb(48,47,48)" d="M 867.332 723.36 C 879.644 720.677 891.82 728.41 894.627 740.695 C 897.434 752.979 889.824 765.233 877.569 768.163 C 869.53 770.086 861.078 767.543 855.435 761.504 C 849.791 755.466 847.825 746.861 850.286 738.971 C 852.747 731.081 859.256 725.12 867.332 723.36 z"/>
<path transform="translate(0,0)" fill="rgb(206,33,98)" d="M 869.978 729.02 C 878.863 727.66 887.197 733.678 888.701 742.54 C 890.205 751.402 884.323 759.832 875.487 761.48 C 869.642 762.57 863.663 760.423 859.846 755.865 C 856.029 751.306 854.966 745.044 857.066 739.481 C 859.165 733.918 864.101 729.92 869.978 729.02 z"/>
<path transform="translate(0,0)" fill="rgb(255,255,255)" d="M 849.981 886.474 C 870.371 883.398 889.407 897.396 892.55 917.776 C 895.692 938.156 881.756 957.238 861.386 960.446 C 840.922 963.669 821.733 949.655 818.577 929.181 C 815.42 908.707 829.497 889.564 849.981 886.474 z"/>
<path transform="translate(0,0)" fill="rgb(48,47,48)" d="M 848.629 901.741 C 856.38 899.29 864.852 901.211 870.788 906.766 C 876.723 912.322 879.2 920.648 877.267 928.545 C 875.333 936.442 869.29 942.681 861.458 944.866 C 849.634 948.164 837.348 941.376 833.847 929.609 C 830.347 917.843 836.924 905.443 848.629 901.741 z"/>
<path transform="translate(0,0)" fill="rgb(202,40,67)" d="M 852.06 909.678 C 859.567 907.806 867.16 912.412 868.97 919.934 C 870.78 927.456 866.113 935.012 858.576 936.761 C 851.126 938.489 843.676 933.887 841.887 926.451 C 840.097 919.015 844.639 911.527 852.06 909.678 z"/>
<path transform="translate(0,0)" fill="rgb(255,255,255)" d="M 494.277 835.414 C 514.377 832.836 532.808 846.918 535.603 866.989 C 538.398 887.061 524.517 905.643 504.476 908.655 C 491.319 910.632 478.113 905.388 469.897 894.923 C 461.68 884.457 459.72 870.384 464.765 858.072 C 469.809 845.759 481.079 837.107 494.277 835.414 z"/>
<path transform="translate(0,0)" fill="rgb(255,255,255)" d="M 957.534 1012.36 C 970.529 1009.66 983.966 1014.22 992.624 1024.28 C 1001.28 1034.34 1003.8 1048.31 999.195 1060.76 C 994.592 1073.21 983.593 1082.17 970.473 1084.18 C 950.92 1087.16 932.547 1074.03 929.04 1054.57 C 925.533 1035.1 938.169 1016.38 957.534 1012.36 z"/>
<path transform="translate(0,0)" fill="rgb(48,47,48)" d="M 951.73 1027.58 C 975.238 1014.43 990.175 1030.57 990.11 1054.38 C 986.195 1062.57 981.586 1069.2 972.535 1072.43 C 966.5 1074.59 959.848 1074.23 954.081 1071.43 C 947.648 1068.26 942.728 1062.67 940.39 1055.89 C 936.909 1045.46 940.48 1033.43 950.682 1028.4 L 951.73 1027.58 z"/>
<path transform="translate(0,0)" fill="rgb(26,24,22)" d="M 951.73 1027.58 C 960.739 1026.81 962.584 1026.18 971.045 1029.32 L 969.929 1029.24 C 957.879 1028.48 954.744 1034.38 946.977 1035.8 C 947.17 1032.04 948.145 1031.98 950.682 1028.4 L 951.73 1027.58 z"/>
<path transform="translate(0,0)" fill="rgb(245,221,12)" d="M 962.314 1033.34 C 970.575 1031.76 978.574 1037.1 980.271 1045.34 C 981.969 1053.58 976.735 1061.65 968.522 1063.47 C 963.105 1064.66 957.463 1062.85 953.757 1058.72 C 950.051 1054.59 948.855 1048.79 950.627 1043.53 C 952.399 1038.28 956.865 1034.38 962.314 1033.34 z"/>
<path transform="translate(0,0)" fill="rgb(255,255,255)" d="M 994.883 590.699 C 1014.22 586.426 1033.36 598.616 1037.67 617.943 C 1041.98 637.271 1029.83 656.438 1010.51 660.782 C 991.136 665.139 971.908 652.946 967.588 633.567 C 963.267 614.189 975.496 594.983 994.883 590.699 z"/>
<path transform="translate(0,0)" fill="rgb(44,58,58)" d="M 979.216 618.687 C 982.648 606.685 994.64 599.258 1006.91 601.533 C 1014.22 602.888 1020.51 607.526 1023.96 614.114 C 1028.06 621.95 1027.56 631.398 1022.66 638.76 C 1017.76 646.122 1009.24 650.229 1000.43 649.472 C 991.616 648.715 983.918 643.215 980.347 635.124 C 978.06 629.946 977.66 624.13 979.216 618.687 z"/>
<path transform="translate(0,0)" fill="rgb(32,167,190)" d="M 998.939 609.25 C 1003.49 608.27 1008.25 609.256 1012.04 611.966 C 1017.78 616.069 1020.28 623.357 1018.28 630.12 C 1016.28 636.883 1010.21 641.634 1003.17 641.953 C 996.12 642.272 989.647 638.089 987.042 631.534 C 985.156 626.786 985.569 621.433 988.161 617.03 C 990.508 613.044 994.417 610.222 998.939 609.25 z"/>
<path transform="translate(0,0)" fill="rgb(48,47,48)" d="M 979.216 618.687 C 982.648 606.685 994.64 599.258 1006.91 601.533 L 1009.8 605.44 C 1004.24 606.317 1003.48 605.357 998.939 609.25 C 994.417 610.222 990.508 613.044 988.161 617.03 C 978.837 625.113 986.241 631.692 980.347 635.124 C 978.06 629.946 977.66 624.13 979.216 618.687 z"/>
<path transform="translate(0,0)" fill="rgb(44,56,46)" d="M 1006.91 601.533 C 1014.22 602.888 1020.51 607.526 1023.96 614.114 C 1024.02 616.194 1023.89 618.209 1023.8 620.288 L 1022.89 620.715 C 1022.02 619.536 1021.13 618.365 1020.24 617.201 C 1016.73 612.652 1016.79 612.566 1012.04 611.966 C 1008.25 609.256 1003.49 608.27 998.939 609.25 C 1003.48 605.357 1004.24 606.317 1009.8 605.44 L 1006.91 601.533 z"/>
<path transform="translate(0,0)" fill="rgb(255,255,255)" d="M 735.764 1160.43 C 743.03 1158.44 750.808 1160.51 756.117 1165.86 C 761.426 1171.2 763.442 1179 761.393 1186.25 C 759.343 1193.5 753.546 1199.08 746.223 1200.86 C 735.135 1203.55 723.939 1196.85 721.081 1185.8 C 718.223 1174.75 724.761 1163.46 735.764 1160.43 z"/>
<path transform="translate(0,0)" fill="rgb(26,24,22)" d="M 850.582 682.393 C 855.071 674.677 847.036 664.143 849.768 652.56 C 852.924 655.46 851.585 675.68 860.21 685.506 L 861.626 692.927 C 857.892 694.102 856.987 693.867 853.05 693.45 C 852.341 689.396 851.614 686.373 850.582 682.393 z"/>
<path transform="translate(0,0)" fill="rgb(48,47,48)" d="M 198.336 1315.09 C 225.915 1315 253.839 1314.06 281.519 1316.25 C 306.86 1318.26 325.668 1342.76 318.636 1367.79 C 315.899 1377.54 307.491 1383.95 299.486 1389.43 C 325.008 1396.92 333.141 1420.57 323.607 1444.26 C 309.354 1472.04 278.201 1469.53 251.67 1469.3 C 234.032 1469.14 216.33 1469.12 198.695 1469.38 C 196.965 1421.58 197.859 1363.3 198.336 1315.09 z"/>
<path transform="translate(0,0)" fill="rgb(255,255,255)" d="M 238.6 1405.95 C 251.526 1405.85 267.303 1404.44 279.313 1409.4 C 289.877 1413.77 288.44 1423.14 282.196 1430.65 C 272.009 1437.2 251.661 1435.56 238.74 1435.78 L 238.6 1405.95 z"/>
<path transform="translate(0,0)" fill="rgb(255,255,255)" d="M 238.539 1348.26 C 250.18 1348.76 267.758 1346.77 277.244 1354.46 C 282.149 1358.44 278.388 1365.46 274.661 1369.09 C 265.529 1374.32 249.397 1372.89 238.438 1372.78 C 238.389 1364.61 238.422 1356.43 238.539 1348.26 z"/>
<path transform="translate(0,0)" fill="rgb(48,47,48)" d="M 479.031 1314.99 C 502.466 1315.05 526.062 1315.09 549.431 1315.57 C 587.321 1316.35 611.079 1343.42 603.999 1381.18 C 601.132 1396.47 591.518 1405.8 579.083 1414.19 C 589.322 1432.34 601.476 1451.51 612.253 1469.55 C 604.999 1469.19 597.031 1469.3 589.718 1469.26 L 568.072 1469.26 C 557.524 1454.49 547.784 1437.77 539.347 1421.74 C 532.747 1421.61 525.648 1421.73 519.01 1421.73 L 518.904 1469.08 L 479.02 1469.04 C 478.743 1417.69 478.746 1366.34 479.031 1314.99 z"/>
<path transform="translate(0,0)" fill="rgb(255,255,255)" d="M 518.928 1349.73 C 530.919 1349.6 544.925 1348.07 555.591 1354.71 C 567.346 1362.03 564.844 1373.73 557.767 1383.38 C 546.375 1391.23 532.973 1389.14 519.028 1388.89 L 518.928 1349.73 z"/>
<path transform="translate(0,0)" fill="rgb(48,47,48)" d="M 692.083 1313.39 C 720.702 1311.33 735.974 1319.78 756.532 1338.34 C 748.844 1344.98 738.944 1356.48 730.579 1364.4 C 713.69 1349.43 695.474 1340.54 675.577 1357.18 C 657.217 1372.54 657.214 1402.53 672.522 1420.12 C 680.232 1429.01 691.185 1434.43 702.926 1435.17 C 724.945 1436.66 724.669 1430.53 724.453 1412.19 L 697.141 1412.03 L 697.155 1380.2 L 732.5 1380.2 C 742.339 1380.1 752.179 1380.19 762.015 1380.46 L 761.899 1446.93 C 748.312 1457.6 735.823 1467.04 717.945 1469.28 C 693.649 1472.33 670.498 1469.09 650.767 1453.35 C 594.793 1408.69 619.2 1321.14 692.083 1313.39 z"/>
<path transform="translate(0,0)" fill="rgb(48,47,48)" d="M 946.106 1315.03 L 980.044 1315.09 C 987.045 1333.47 997.26 1355.32 1005.18 1373.85 L 1045.2 1468.74 L 1002.42 1469.16 C 998.706 1460.72 996.233 1449.96 991.663 1442.07 C 990.887 1440.73 988.423 1441.12 986.25 1441.01 C 970.157 1441.14 954.063 1441.15 937.969 1441.04 L 926.293 1469.03 C 912.124 1469.08 897.956 1469.05 883.788 1468.95 C 903.164 1418.2 926.313 1366.38 946.106 1315.03 z"/>
<path transform="translate(0,0)" fill="rgb(255,255,255)" d="M 965.265 1361.64 C 969.941 1377.76 975.464 1393.71 980.813 1409.62 L 963.75 1409.34 L 948.484 1409.15 C 950.551 1401.75 961.776 1366.98 965.265 1361.64 z"/>
<path transform="translate(0,0)" fill="rgb(48,47,48)" d="M 346.182 1314.97 C 382.549 1314.88 418.916 1314.97 455.282 1315.24 L 455.289 1348.02 L 386.108 1347.98 L 386.25 1372.89 L 441.738 1372.99 C 441.22 1383.96 441.304 1395.64 441.207 1406.68 C 430.146 1407.03 396.236 1405.74 387.675 1407.5 C 385.8 1410.49 386.517 1411.48 386.64 1415.5 L 386.898 1434.36 C 410.728 1434.45 434.559 1434.36 458.388 1434.09 L 458.231 1468.95 C 420.854 1469.31 383.475 1469.32 346.097 1468.99 L 346.182 1314.97 z"/>
<path transform="translate(0,0)" fill="rgb(48,47,48)" d="M 770.753 1315.13 C 811.337 1315.06 854.485 1314.43 894.925 1315.71 L 894.987 1350.55 C 881.504 1350.09 866.215 1350.47 852.6 1350.51 L 852.667 1428.5 C 852.691 1442.01 852.576 1455.53 852.322 1469.04 L 812.843 1469.01 L 812.72 1350.34 C 798.733 1350.57 784.743 1350.53 770.757 1350.22 C 770.443 1337.96 770.27 1327.45 770.753 1315.13 z"/>
<path transform="translate(0,0)" fill="rgb(48,47,48)" d="M 736.841 1494.11 C 765.603 1490.05 792.208 1510.08 796.266 1538.84 C 800.324 1567.6 780.298 1594.21 751.537 1598.26 C 722.774 1602.32 696.167 1582.3 692.109 1553.53 C 688.051 1524.77 708.078 1498.16 736.841 1494.11 z"/>
<path transform="translate(0,0)" fill="rgb(255,255,255)" d="M 739.319 1508.92 C 759.57 1506.09 778.324 1520.09 781.375 1540.31 C 784.426 1560.53 770.637 1579.43 750.453 1582.71 C 737.196 1584.86 723.807 1579.72 715.393 1569.25 C 706.979 1558.79 704.839 1544.6 709.79 1532.12 C 714.741 1519.64 726.018 1510.77 739.319 1508.92 z"/>
<path transform="translate(0,0)" fill="rgb(48,47,48)" d="M 1057.1 1315.37 L 1096.65 1315.52 C 1097.76 1352.61 1096.93 1394.21 1097 1431.58 C 1115.83 1432.66 1141.22 1432.08 1160.46 1432.19 C 1160.7 1444.37 1160.64 1456.56 1160.29 1468.74 C 1125.71 1468.86 1090.85 1468.24 1056.33 1468.78 C 1056.41 1419.67 1055.38 1363.98 1057.1 1315.37 z"/>
<path transform="translate(0,0)" fill="rgb(48,47,48)" d="M 821.892 1494 L 837.437 1494.02 C 848.546 1511.19 857.922 1527.36 868.223 1545.08 C 879.192 1531.06 891.294 1510.07 902.692 1494.34 L 917.002 1494.31 L 916.961 1596.76 C 912.039 1596.92 906.4 1596.72 901.421 1596.66 C 901.248 1578.69 901.2 1560.72 901.277 1542.75 L 901.165 1522.98 C 889.188 1536.39 879.725 1557.2 868.206 1570.67 C 856.972 1554.53 847.724 1537.54 836.804 1522.01 C 835.404 1543.76 836.534 1574.56 836.707 1596.95 L 821.711 1596.92 C 822.513 1563.32 821.95 1527.75 821.892 1494 z"/>
<path transform="translate(0,0)" fill="rgb(48,47,48)" d="M 309.633 1495.88 L 379.965 1495.98 C 379.876 1500.77 379.422 1506.13 379.115 1510.96 C 361.224 1510.41 342.092 1510.68 324.102 1510.65 L 324.172 1538.65 C 340.781 1539.15 358.741 1538.92 375.453 1538.99 L 375.568 1553.06 C 360.244 1553.37 344.132 1553.15 328.75 1553.15 L 326.504 1553.29 C 323.484 1557.14 324.404 1576.49 324.282 1583.18 L 380.91 1583.06 L 380.796 1597.03 L 309.006 1597 C 308.917 1565.22 307.98 1527.11 309.633 1495.88 z"/>
<path transform="translate(0,0)" fill="rgb(48,47,48)" d="M 494.5 1495.96 C 517.786 1495.78 541.074 1495.81 564.36 1496.05 L 564.368 1510.11 L 510.288 1510.1 C 510.199 1519.67 510.348 1529.46 510.388 1539.05 C 524.2 1538.99 547.066 1538.36 559.788 1539.92 L 559.546 1552.87 C 544.367 1553.21 528.1 1552.94 512.841 1552.95 L 511.885 1553.15 C 509.089 1556.38 510.388 1577.83 510.492 1583.72 L 565.983 1583.7 L 565.941 1596.92 L 495.159 1597.07 C 494.55 1567.24 496.796 1524.14 494.5 1495.96 z"/>
<path transform="translate(0,0)" fill="rgb(48,47,48)" d="M 972.351 1596.88 C 978.7 1583.8 1011.61 1504.57 1016.58 1500.59 C 1020.45 1500 1021.15 1499.86 1024.98 1500.53 C 1027.93 1504.13 1060.66 1587.48 1062.6 1594.94 C 1060.6 1596.89 1053.47 1596.26 1050.52 1596.09 C 1048 1589.33 1042.53 1575.73 1040.97 1569.26 C 1034.53 1570.58 1008.88 1569.72 1001.57 1569.38 C 999.158 1569.8 997.931 1569.49 996.784 1571.52 C 992.458 1579.16 989.481 1588.78 985.787 1596.6 L 972.351 1596.88 z"/>
<path transform="translate(0,0)" fill="rgb(48,47,48)" d="M 1001.57 1569.38 C 1007.66 1566.08 1034.13 1564.35 1040.08 1566.99 L 1040.97 1569.26 C 1034.53 1570.58 1008.88 1569.72 1001.57 1569.38 z"/>
<path transform="translate(0,0)" fill="rgb(255,255,255)" d="M 1019.31 1517.52 C 1022.11 1519.84 1034.65 1553.56 1036.9 1559.31 L 1018.23 1559.42 L 1001.38 1559.9 C 1005.61 1548.1 1013.83 1528.59 1019.31 1517.52 z"/>
<path transform="translate(0,0)" fill="rgb(48,47,48)" d="M 632.403 1494.3 C 634.28 1494.2 636.157 1494.13 638.035 1494.08 C 653.387 1493.69 665.768 1498.09 676.932 1508.68 L 665.625 1519.69 C 644.738 1501.71 616.577 1504.93 604.915 1531.01 C 600.543 1540.86 600.391 1552.07 604.494 1562.04 C 613.631 1584.56 635.956 1588.05 656.629 1579.43 C 660.673 1577.17 662.352 1575.65 665.891 1572.69 C 669.632 1575.96 672.88 1578.86 676.413 1582.35 C 654.698 1599.07 630.911 1606.64 606.464 1588.91 C 595.573 1581.11 588.239 1569.29 586.083 1556.07 C 581.067 1524.43 601.128 1499.02 632.403 1494.3 z"/>
<path transform="translate(0,0)" fill="rgb(48,47,48)" d="M 1107.24 1502.23 C 1123.51 1500.68 1133.79 1504.44 1146.41 1514.19 C 1144.32 1516.81 1141.63 1519.68 1139.36 1522.21 C 1101.78 1497.25 1066.43 1528.92 1083.3 1568.54 C 1092.37 1589.84 1118.81 1589.82 1137.85 1578.9 L 1138.08 1554.62 L 1111.03 1554.7 L 1109.53 1554.24 C 1108.8 1551.31 1108.55 1546.95 1110.12 1544.36 C 1118.15 1543.14 1139.54 1543.78 1148.61 1543.84 C 1148.21 1557.3 1148.39 1571.79 1148.32 1585.33 C 1098.81 1618.91 1045.47 1574.38 1074.52 1521.71 C 1080.56 1510.75 1095.28 1504.45 1107.24 1502.23 z"/>
<path transform="translate(0,0)" fill="rgb(48,47,48)" d="M 209.282 1495.93 C 234.233 1495.09 263.562 1495.97 288.839 1496.1 L 288.787 1509.89 L 257.002 1509.94 L 257.121 1568.23 C 257.093 1577.92 256.862 1587.16 258.01 1596.78 L 241.574 1596.96 C 242.476 1569.03 241.851 1538.01 241.838 1509.76 C 230.932 1509.82 220.027 1509.99 209.124 1510.26 L 209.282 1495.93 z"/>
<path transform="translate(0,0)" fill="rgb(48,47,48)" d="M 407.153 1495.95 L 422.208 1495.97 L 422.366 1583.37 C 439.832 1583.16 457.299 1583.17 474.764 1583.4 L 474.956 1596.97 L 407.261 1597.08 L 407.153 1495.95 z"/>
</svg>