<svg version="1.1" xmlns="http://www.w3.org/2000/svg" style="display: block;" viewBox="0 0 1229 2048" width="1024" height="1707" preserveAspectRatio="none">
<defs>
	<linearGradient id="Gradient1" gradientUnits="userSpaceOnUse" x1="841.034" y1="263.44" x2="838.121" y2="279.692">
		<stop class="stop0" offset="0" stop-opacity="1" stop-color="rgb(26,35,51)"/>
		<stop class="stop1" offset="1" stop-opacity="1" stop-color="rgb(54,58,62)"/>
	</linearGradient>
</defs>
<path transform="translate(0,0)" fill="rgb(255,255,255)" d="M 0 0 L 1229 0 L 1229 2048 L 0 2048 L 0 0 z"/>
<path transform="translate(0,0)" fill="rgb(42,52,72)" d="M 793.82 103.307 C 865.84 94.4933 934.031 169.645 932.791 239.116 C 932.108 277.384 917.012 324.728 895.328 356.254 C 893.236 359.295 893.081 361.041 893.924 364.375 C 898.082 367.108 901.638 365.312 905.975 363.843 C 911.488 372.578 934.318 408.601 937.08 415.428 L 935.46 417.155 C 935.447 419.59 948.181 434.993 950.688 438.311 C 966.91 460.198 980.625 483.835 991.574 508.78 C 1004.43 538.349 1014.34 569.3 1016.76 601.58 C 1018.25 621.59 1017.45 639.841 1023.7 659.182 C 1026.29 667.198 1028.86 678.942 1030.51 687.224 C 1036.59 719.176 1040.79 751.455 1043.1 783.897 C 1044 798.198 1043.13 809.609 1042.84 824.254 C 1042.19 856.932 1043.9 893.862 1031.35 924.637 C 1029.14 930.036 1019.55 943.055 1016.16 948.691 C 1005.1 966.144 993.323 986.934 980.918 1003.27 C 956.351 1035.62 946.566 1042.19 946.519 1084.55 C 946.447 1149.34 967.631 1201.4 993.151 1259.17 C 1009.65 1295.79 1026.63 1332.18 1044.1 1368.35 C 1064.45 1410.91 1083.82 1453.93 1102.22 1497.38 C 1125.19 1551.47 1143.24 1607.51 1156.17 1664.84 C 1139.35 1685.68 1117.89 1705.58 1098.52 1723.97 L 1149.76 1944.2 C 1096.8 1944.77 1043.83 1944.77 990.86 1944.22 C 986.022 1927.76 974.913 1901.45 968.444 1884.75 C 963.791 1873.91 956.611 1850.77 951.004 1842.08 L 965.428 1944.11 C 919.62 1944.56 873.808 1944.64 827.999 1944.34 C 787.052 1779 740.79 1611.26 697.269 1446.38 L 662.061 1312.97 C 652.638 1277.38 642.113 1239.85 636.404 1203.61 C 629.048 1156.93 629.8 1109 630.554 1061.95 C 630.7 1052.82 628.146 1043 627.278 1033.83 C 626.059 1020.95 625.426 1007.91 625.173 994.956 C 627.643 852.769 645.746 705.868 702.423 574.299 C 704.865 568.631 711.088 539.246 712.261 537.814 C 732.567 513.045 754.652 487.466 770.232 459.215 C 765.698 444.366 761.975 428.417 751.933 416.467 C 740.834 421.725 720.613 431.001 708.9 426.114 C 682.203 414.175 670.169 382.434 659.207 358.178 C 643.014 322.348 662.392 313.266 672.22 283.717 C 669.348 274.643 666.134 255.483 663.184 244.374 C 616.86 202.772 659.224 166.191 697.447 143.546 C 729.252 124.703 757.325 110.152 793.82 103.307 z"/>
<path transform="translate(0,0)" fill="rgb(255,255,255)" d="M 896.026 446.819 C 902.442 451.401 915.553 496.795 917.88 506.133 C 861.409 521.81 833.214 598.189 818.717 648.865 C 778.817 788.339 758.443 932.677 750.317 1077.28 C 742.917 1076.15 724.567 1072.12 718.788 1075.96 C 717.721 1081.66 736.743 1104.41 741.02 1110.59 C 778.53 1164.84 823.52 1212.37 874.918 1253.58 C 882.4 1259.57 898.458 1278.68 907.493 1274.26 L 907.905 1272.63 C 907.33 1270.16 905.477 1267.03 903.59 1265.31 C 885.772 1249.07 866.848 1234.13 849.47 1217.37 C 845.537 1196.68 842.12 1174.59 838.422 1153.67 C 874.056 1145.24 898.687 1100.23 937.313 1077.65 C 933.879 1146.49 956.214 1203.27 984.018 1264.66 C 1036.66 1380.89 1095.78 1492.57 1132.87 1615.22 C 1137.17 1630.79 1141.28 1646.42 1145.2 1662.1 C 1079.79 1734.72 1001.27 1794.35 913.759 1837.86 C 910.227 1815.77 899.722 1784.08 892.508 1763.16 C 872.553 1706.55 849.85 1650.94 824.481 1596.54 C 769.598 1475.76 708.163 1347.85 679.645 1217.42 C 668.58 1166.82 664.067 1105.06 660.492 1053.27 C 656.359 993.416 655.418 936.21 661.662 876.384 C 666.44 831.339 673.392 786.551 682.493 742.177 C 683.982 734.673 689.568 705.041 692.781 700.108 C 716.995 662.919 749.192 624.29 783.577 596.408 C 782.668 579.758 781.915 554.741 783.906 538.737 C 819.438 526.274 825.958 520.166 848.878 491.699 C 860.368 477.43 881.829 458.638 896.026 446.819 z"/>
<path transform="translate(0,0)" fill="rgb(42,52,72)" d="M 717.097 1109.49 C 718.076 1109.54 721.132 1109.81 721.619 1110.7 C 775.054 1207.88 854.235 1282.61 934.235 1357.58 C 936.97 1360.14 944.029 1366.53 944.041 1370.04 C 881.333 1319.64 821.358 1260.59 770.861 1197.2 C 755.819 1178.32 727.663 1136.48 716.654 1113 C 716.827 1111.62 716.975 1110.46 717.097 1109.49 z"/>
<path transform="translate(0,0)" fill="rgb(255,255,255)" d="M 925.276 511.188 C 927.664 511 934.472 510.374 936.499 510.582 C 956.603 512.647 970.385 551.354 977.961 567.42 C 1011.19 636.877 1029.87 712.394 1032.86 789.334 C 1033.27 801.324 1032.16 813.702 1032.07 825.846 C 1031.85 856.825 1032.85 889.576 1022.37 919.187 C 1020.26 925.141 1011.27 936.572 1007.68 942.685 C 984.283 982.441 957.384 1019.93 926.188 1053.95 C 908.228 1073.42 889.236 1094.4 869.43 1111.99 C 868.373 1111.57 867.319 1111.15 866.268 1110.73 C 830.163 1096.04 809.002 1066.19 794.193 1031.28 C 800.853 1020.55 807.019 1009.53 812.671 998.238 C 828.93 965.177 844.608 924.428 868.191 896.439 C 891.808 868.41 931.51 908.754 949.147 909.532 L 950.439 907.925 C 949.847 901.903 943.308 900.08 938.411 897.231 C 920.981 887.088 905.004 882.49 885.148 879.684 C 908.199 854.461 949.985 842.47 982.628 835.982 C 988.473 834.82 999.147 836.538 1001.94 832.534 L 1001.31 830.396 C 996.987 826.003 986.88 828.307 981.25 829.228 C 949.205 834.469 916.476 847.351 888.936 864.394 C 896.715 828.423 950.949 820.693 957.309 804.577 C 950.568 793.745 899.374 819.855 890.229 825.348 C 882.491 813.716 879.761 809.786 878.857 795.645 C 878.83 788.934 878.87 781.837 878.235 775.128 C 874.724 738.039 857.255 703.822 853.152 666.467 C 852.366 659.309 849.545 641.593 844.357 637.206 L 842.513 637.452 C 831.527 652.333 861.057 742.404 866.509 763.858 C 869.295 774.819 866.288 800.624 869.562 808.23 C 879.366 831.013 888.394 834.285 879.148 861.448 C 878.797 862.481 878.967 871.286 879.024 873.597 C 869.769 880.675 862.486 886.67 854.738 895.34 C 843.036 847.124 836.419 797.814 834.996 748.219 C 834.611 732.591 834.876 716.955 835.791 701.349 C 836.091 696.093 838.606 684.071 836.504 680.191 C 833.021 680.085 833.922 679.595 831.58 681.278 C 822.082 724.164 832.333 860.802 849.874 900.823 C 825.541 943.196 808.415 989.006 782.261 1030.09 C 773.898 1043.23 765.343 1056.44 757.428 1069.84 C 764.446 939.476 784.152 810.109 816.265 683.569 C 826.422 644.65 838.387 599.7 859.535 565.326 C 871.162 546.428 894.715 518.738 917.344 513.529 C 921.466 514.527 918.495 517.109 922.218 520.597 C 925.64 520.111 924.52 520.764 926.664 518.442 L 925.276 511.188 z"/>
<path transform="translate(0,0)" fill="rgb(255,255,255)" d="M 640.422 1116.61 C 647.556 1122.24 648.421 1126.04 657.132 1130.92 C 661.405 1176.29 667.945 1224.23 680.515 1268.13 C 719.975 1405.93 786.363 1533.54 842.384 1664.79 C 867.694 1724.09 894.312 1789.85 906.167 1853.22 C 915.913 1846.72 930.796 1839.26 941.418 1833.56 C 943.975 1861.63 948.546 1887.74 951.284 1915.24 L 953.36 1934.07 C 914.232 1933.9 875.103 1933.96 835.976 1934.24 C 818.873 1860.35 797.173 1781.46 777.578 1707.82 L 717.21 1478.84 C 701.444 1421.39 686.176 1363.81 671.409 1306.1 C 661.944 1269.3 651.387 1233.25 645.841 1195.45 C 641.997 1169.25 640.994 1143.03 640.422 1116.61 z"/>
<path transform="translate(0,0)" fill="rgb(255,255,255)" d="M 656.841 224.179 C 635.376 173.392 726.649 139.41 759.813 123.136 C 823.431 91.9203 889.138 135.698 913.123 195.721 C 931.658 239.228 917.797 297.502 894.322 337.013 C 899.682 321.125 914.653 280.575 911.721 265.107 L 910.748 264.64 C 908.533 268.792 907.455 273.946 906.297 278.519 C 900.92 299.767 895.123 321.533 883.531 340.394 C 880.67 333.165 879.191 329.611 877.349 322.15 C 875.222 313.53 877.301 295.62 872.799 289.414 C 871.192 290.882 870.646 294.084 870.66 295.975 C 870.786 312.501 873.084 314.462 864.28 329.271 L 856.98 310.173 C 859.916 303.059 862.522 297.058 863.761 289.484 C 866.428 273.2 865.921 258.233 848.799 251.163 C 835.612 245.717 824.962 249.707 811.236 249.309 C 803.143 249.044 796.123 247.095 788.335 244.979 C 795.78 253.192 798.692 254.746 809.533 257.401 L 784.875 272.996 C 777.935 262.255 772.166 253.538 763.695 243.909 L 762.507 243.185 C 769.311 242.853 792.37 241.179 797.53 238.386 C 796.738 236.037 797.457 236.97 795.085 235.683 C 761.463 237.406 744.797 200.352 732.572 198.365 L 731.751 199.366 C 736.409 213.367 755.539 228.633 767.968 236.294 C 710.088 223.691 711.237 162.922 704.518 158.217 C 703.863 158.678 703.091 158.899 703.126 159.685 C 704.487 189.992 717.215 216.997 742.119 234.561 C 703.657 230.06 692.378 203.588 684.098 169.996 C 663.778 186.317 656.898 198.262 656.841 224.179 z"/>
<path transform="translate(0,0)" fill="rgb(36,41,56)" d="M 795.085 235.683 C 780.77 227.536 767.917 219.342 757.402 206.295 C 751.428 198.882 731.473 171.852 734.543 162.709 C 738.269 167.125 741.525 174.724 744.45 179.96 C 759.17 206.307 792.553 235.018 823.69 237.821 C 825.697 237.989 827.707 238.107 829.72 238.172 C 831.376 239.019 830.495 238.707 832.632 238.531 L 834.854 235.488 C 833.022 225.744 817.41 216.127 818.266 207.85 C 824.944 208.699 840.919 234.302 843.619 240.837 C 837.562 241.828 829.744 243.264 823.722 243.101 C 811.619 242.774 795.482 238.834 783.629 243.12 L 784.068 245.704 C 784.172 245.67 766.788 243.858 763.695 243.909 L 762.507 243.185 C 769.311 242.853 792.37 241.179 797.53 238.386 C 796.738 236.037 797.457 236.97 795.085 235.683 z"/>
<path transform="translate(0,0)" fill="rgb(42,52,72)" d="M 829.72 238.172 L 830.192 237.765 C 827.612 234.263 803.511 225.77 801.505 220.568 C 806.126 221.968 829.205 232.914 834.854 235.488 L 832.632 238.531 C 830.495 238.707 831.376 239.019 829.72 238.172 z"/>
<path transform="translate(0,0)" fill="rgb(42,52,72)" d="M 816.985 121.044 C 837.793 122.353 871.852 148.323 884.658 164.2 C 894.708 176.659 912.826 205.539 911.449 221.682 L 909.433 220.563 C 908.32 219.945 903.859 208.662 903.254 206.975 C 888.529 165.876 855.84 141.365 817.815 123.349 C 817.538 122.581 817.261 121.812 816.985 121.044 z"/>
<path transform="translate(0,0)" fill="rgb(42,52,72)" d="M 796.5 132.937 C 826.792 131.592 884.328 197.447 884.031 227.951 C 883.441 227.896 880.956 227.419 880.714 226.928 C 874.644 214.611 863.887 190.239 855.45 180.484 C 843.775 166.984 836.413 160.546 823.052 150.216 C 815.734 144.397 799.082 137.353 796.5 132.937 z"/>
<path transform="translate(0,0)" fill="rgb(255,255,255)" d="M 1097.62 1778.95 L 1099.01 1778.98 C 1100.92 1781.49 1132.5 1917.22 1136.79 1933.96 L 998.466 1934.32 C 985.925 1904.16 967.458 1856.75 957.06 1825.88 C 979.646 1813.68 992.302 1811.81 1016.81 1804.48 C 1043.74 1796.43 1071.42 1789.06 1097.62 1778.95 z"/>
<path transform="translate(0,0)" fill="rgb(255,255,255)" d="M 850.341 323.717 C 856.755 327.454 856.659 346.341 864.53 346.296 C 867.682 343.916 868.604 340.173 870.043 336.401 C 875.701 350.322 880.58 357.896 889.044 370.307 C 878.268 382.552 862.944 397.217 851.333 409.426 C 820.272 441.617 792.157 476.525 767.325 513.734 C 702.262 609.921 678.178 689.264 660.456 803.107 C 652.868 851.854 647.712 897.469 646.581 947.168 C 645.831 980.122 648.28 1012.35 649.109 1045.16 L 638.343 1043.61 C 635.738 1018.78 635.797 998.118 635.879 973.326 C 637.529 865.661 656.831 735.499 690.881 633.72 C 693.537 625.78 702.814 597.438 707.33 592.107 C 708.255 595.082 707.985 596.172 710.136 597.589 C 712.88 594.985 738.896 545.94 742.904 539.09 C 752.43 523.056 762.652 507.447 773.543 492.308 C 790.576 469.005 819.105 435.555 812.476 403.501 C 810.628 406.177 810.121 415.032 808.936 419.246 C 803.44 438.788 793.516 452.876 781.871 469.054 C 776.925 452.075 769.073 435.378 764.483 418.516 C 763.805 416.025 763 418.25 761.256 414.919 C 762.524 412.539 782.746 393.122 786.07 389.651 C 801.97 373.044 811.822 359.372 822.828 338.953 C 837.126 335.803 840.202 334.656 850.341 323.717 z"/>
<path transform="translate(0,0)" fill="rgb(255,255,255)" d="M 900.065 373.812 C 905.891 378.237 919.671 406.569 923.222 413.872 C 895.543 432.561 867.96 458.984 844.843 482.811 C 836.129 491.792 826.507 505.401 817.253 512.792 C 807.049 520.941 787.812 524.907 776.565 531.845 L 775.646 532.424 C 771.621 553.542 772.696 569.864 773.934 591.187 C 750.977 608.903 732.334 631.252 714.207 653.684 C 710.055 659.012 706.335 664.125 701.375 668.733 C 728.531 584.259 783.432 501.719 841.519 435.052 C 860.324 413.468 880.721 394.546 900.065 373.812 z"/>
<path transform="translate(0,0)" fill="rgb(255,255,255)" d="M 664.91 322.601 C 680.195 317.722 718.99 310.48 735.886 309.588 C 744.828 343.053 740.536 367.147 783.551 371.69 C 767.77 383.966 734.549 412.848 717.523 418.332 C 711.962 416.715 709.973 416.249 705.055 413.334 L 703.816 411.864 C 697.876 407.846 693.268 401.151 689.216 395.321 L 688.51 393.766 C 685.369 389.832 678.984 381.179 679.055 376.115 L 678.254 373.851 C 673.637 370.625 670.748 359.879 668.79 354.129 L 667.743 352.538 L 662.947 339.313 L 662.11 337.883 C 662.911 333.098 663.73 327.22 664.91 322.601 z"/>
<path transform="translate(0,0)" fill="rgb(85,85,87)" d="M 662.11 337.883 C 675.271 334.646 688.52 331.775 701.84 329.273 C 708.983 327.963 723.247 326.127 729.425 324.071 L 730.611 325.183 C 729.876 325.656 668.048 338.837 662.947 339.313 L 662.11 337.883 z"/>
<path transform="translate(0,0)" fill="rgb(85,85,87)" d="M 703.816 411.864 C 721.549 403.318 739.691 394.342 754.711 381.365 C 757.198 379.216 759.566 376.976 762.203 375.007 L 762.975 376.011 C 759.879 383.319 728.123 402.154 719.458 406.224 C 717.36 407.21 705.927 412.685 705.055 413.334 L 703.816 411.864 z"/>
<path transform="translate(0,0)" fill="rgb(85,85,87)" d="M 678.254 373.851 C 694.661 369.672 709.975 362.717 725.376 355.832 C 727.808 354.745 733.729 351.709 736.151 351.62 C 730.349 358.397 687.979 373.647 679.055 376.115 L 678.254 373.851 z"/>
<path transform="translate(0,0)" fill="rgb(85,85,87)" d="M 667.743 352.538 C 674.454 351.178 728.521 337.973 729.565 338.123 C 722.276 344.173 679.615 352.064 668.79 354.129 L 667.743 352.538 z"/>
<path transform="translate(0,0)" fill="rgb(85,85,87)" d="M 688.51 393.766 C 704.879 387.436 720.873 381.019 736.151 372.303 C 738.304 371.075 743.942 367.389 745.999 367.254 C 742.735 374.685 700.959 390.744 691.388 394.478 L 689.216 395.321 L 688.51 393.766 z"/>
<path transform="translate(0,0)" fill="rgb(255,255,255)" d="M 826.371 254.976 C 857.323 252.34 861.064 278.338 850.632 301.589 C 848.232 306.938 845.543 311.993 844.079 317.702 L 843.808 318.793 C 838.243 324.285 832.395 330.519 824.245 327.467 C 820.333 323.457 819.938 318.381 818.93 312.881 C 816.41 312.16 817.161 312.393 814.29 313.081 C 809.161 318.749 815.04 331.051 819.381 336.182 C 810.848 344.734 802.241 353.211 793.561 361.613 C 784.514 369.746 775.074 366.972 765.293 361.376 C 749.021 352.065 747.315 327.27 742.966 310.3 C 760.18 301.616 786.496 279.878 803.879 269.12 C 811.654 264.309 817.226 258.799 826.371 254.976 z"/>
<path transform="translate(0,0)" fill="rgb(42,52,72)" d="M 826.105 297.31 C 824.085 294.972 821.791 292.694 819.634 290.466 C 824.82 290.01 824.056 293.695 827.333 293.155 C 827.762 281.394 819.08 281.763 817.909 272.266 C 817.551 269.37 817.901 263.877 819.953 261.318 C 823.108 260.255 821.715 260.222 825.266 261.867 C 844.931 256.818 852.399 271.261 854.057 288.252 C 849.104 278.02 844.615 267.699 831.717 266.138 C 832.883 273.886 837.118 282.317 840.187 289.82 C 844.743 300.957 833.213 320.852 821.154 313.144 C 816.877 305.757 820.956 302.569 826.105 297.31 z"/>
<path transform="translate(0,0)" fill="rgb(255,255,255)" d="M 829.311 282.844 C 826.528 280.453 823.758 278.574 822.736 275.05 C 823.788 271.267 823.034 272.685 826.225 269.687 L 828.144 271.992 C 833.335 280.309 841.793 295.715 836.569 305.056 C 834.889 308.061 831.452 312.809 828.048 313.846 C 824.784 313.456 824.305 313.429 821.793 311.353 C 820.064 304.213 828.131 301.142 830.083 294.977 C 830.355 294.117 829.466 284.503 829.311 282.844 z"/>
<path transform="translate(0,0)" fill="url(#Gradient1)" d="M 825.266 261.867 C 844.931 256.818 852.399 271.261 854.057 288.252 C 849.104 278.02 844.615 267.699 831.717 266.138 C 830.608 267.787 828.815 270.212 828.144 271.992 L 826.225 269.687 C 825.156 267.771 825.37 264.324 825.266 261.867 z"/>
<path transform="translate(0,0)" fill="rgb(255,255,255)" d="M 685.203 198.088 C 700.924 235.427 718.32 245.565 758.933 245.065 C 766.378 255.049 773.287 265.423 779.629 276.142 C 768.857 283.341 751.624 295.645 740.896 301.745 C 731.986 301.852 716.611 303.919 709.921 303.645 L 708.183 304.667 C 703.539 301.653 699.876 298.823 694.354 299.242 C 689.995 293.838 674.765 253.639 673.45 246.036 C 680.202 227.275 679.256 213.004 685.203 198.088 z"/>
<path transform="translate(0,0)" fill="rgb(36,41,56)" d="M 696.056 293.481 C 696.091 289.808 696.203 286.137 696.392 282.47 C 691.33 278.032 692.179 277.716 695.543 272.293 C 694.378 269.216 691.979 271.13 690.301 267.321 C 699.414 261.821 714.895 272.724 722.337 277.417 C 717.376 276.4 707.664 272.927 704.386 273.831 L 703.964 274.876 L 709.411 277.17 L 709.734 278.443 C 707.346 278.397 704.96 278.294 702.577 278.135 L 702.828 279.388 C 705.914 280.871 710.832 282.073 712.241 284.026 C 710.509 288.205 706.821 286.84 705.499 288.428 C 702.879 291.579 704.15 294.319 697.65 294.433 L 696.056 293.481 z"/>
<path transform="translate(0,0)" fill="rgb(42,52,72)" d="M 696.056 293.481 L 697.65 294.433 C 700.483 297.992 706.089 300.741 709.921 303.645 L 708.183 304.667 C 703.539 301.653 699.876 298.823 694.354 299.242 L 694.361 294.692 L 696.056 293.481 z"/>
<path transform="translate(0,0)" fill="rgb(36,41,56)" d="M 697.506 248.122 C 699.195 247.979 700.893 247.96 702.585 248.064 C 714.032 248.674 721.875 257.032 728.95 265.034 L 707.784 258.754 C 698.034 258.735 696.086 263.145 687.33 264.158 C 683.709 264.576 680.649 259.053 681.34 255.521 C 684.748 252.781 693.117 249.867 697.506 248.122 z"/>
<path transform="translate(0,0)" fill="rgb(255,255,255)" d="M 926.754 424.747 C 926.934 424.893 927.115 425.038 927.295 425.183 C 968.274 468.645 1004.33 552.788 1007.08 609.772 L 999.538 591.752 C 990.902 571.409 968.392 523.819 952.059 508.59 C 945.053 502.058 932.872 503.87 924.002 505.092 C 920.229 489.842 908.731 455.033 900.399 443.139 L 926.754 424.747 z"/>
<path transform="translate(0,0)" fill="rgb(255,255,255)" d="M 771.679 1065.72 C 773.244 1067.05 779.409 1083.14 781.374 1086.92 C 792.074 1107.56 807.668 1125.26 826.792 1138.48 C 829.897 1161.78 833.607 1185 837.917 1208.12 L 829.692 1200.28 C 806.882 1178.06 774.005 1139.31 756.853 1112.82 C 760.804 1091.6 762.15 1084.66 771.679 1065.72 z"/>
<path transform="translate(0,0)" fill="rgb(255,255,255)" d="M 789.609 1038.95 C 791.315 1041.05 798.164 1056.2 800.609 1060.1 C 816.611 1085.64 834.961 1106.32 863.545 1117.06 L 851.628 1128.21 C 846.534 1132.78 826.269 1123.18 821.415 1119.75 C 802.566 1106.4 784.751 1076.6 780.219 1054.31 C 782.963 1049.3 786.547 1043.85 789.609 1038.95 z"/>
<path transform="translate(0,0)" fill="rgb(255,255,255)" d="M 772.817 474.889 L 773.809 476.529 C 772.186 481.478 752.851 506.981 748.591 513.249 C 736.34 531.276 725.87 546.58 717.605 567.111 L 716.723 566.845 C 717.036 550.054 720.522 542.817 731.382 530.421 C 746.397 513.285 758.194 492.22 772.817 474.889 z"/>
<path transform="translate(0,0)" fill="rgb(255,255,255)" d="M 680.086 289.193 C 683.391 293.726 688.039 301.13 694.354 299.242 C 699.876 298.823 703.539 301.653 708.183 304.667 C 694.68 307.024 683.249 309.079 669.917 312.368 C 673.37 305.58 677.03 296.36 680.086 289.193 z"/>
<path transform="translate(0,0)" fill="rgb(255,255,255)" d="M 930.277 814.052 L 931.625 814.724 C 916.754 823.151 908.598 827.855 895.613 839.307 L 893.071 830.988 C 905.426 824.44 916.843 818.157 930.277 814.052 z"/>
<path transform="translate(0,0)" fill="rgb(49,118,122)" d="M 189.467 185.414 C 271.554 256.349 344.368 340.353 355.647 454.349 C 366.369 562.73 295.205 636.238 236.871 718.215 C 42.1524 991.853 129.952 1166.75 362.236 1364.54 C 445.262 1435.23 543.712 1512.01 620.707 1590.76 C 637.556 1608 667.91 1639.83 680.962 1660.07 L 680.509 1661.2 C 673.454 1652.74 655.486 1636.06 647.148 1627.87 C 575.278 1556.83 487.902 1509.06 403.841 1454.74 C 266.203 1365.8 116.543 1244.75 80.3965 1076.39 C 51.7216 942.827 108.13 815.888 186.292 710.865 C 244.459 632.708 324.063 558.964 323.8 454.103 C 323.886 366.809 273.624 286.439 218.808 222.173 C 209.421 211.168 197.798 196.624 188.007 186.745 L 189.467 185.414 z"/>
<path transform="translate(0,0)" fill="rgb(42,52,72)" d="M 235.899 1374.39 L 265.396 1402.75 C 261.981 1423.38 260.76 1444.32 261.754 1465.22 C 270.593 1619.12 437.004 1730.76 546.059 1818.1 C 564.339 1832.74 585.144 1847.21 602.493 1862.69 L 589.237 1854.75 C 434.031 1752.91 142.978 1602.73 235.899 1374.39 z"/>
<path transform="translate(0,0)" fill="rgb(95,157,160)" d="M 320.144 642.976 C 326.325 647.212 333.173 652.994 338.762 657.976 C 400.66 713.14 443.306 792.314 447.716 875.828 C 451.118 940.259 433.184 1001.85 401.761 1057.79 C 398.242 1064.05 386.895 1083.6 382.516 1088.49 L 381.894 1087.37 C 410.983 1029.19 427.989 960.61 420.95 895.597 C 410.796 801.821 362.28 737.703 290.488 680.171 C 300.176 669.72 310.536 654.585 320.144 642.976 z"/>
<path transform="translate(0,0)" fill="rgb(95,157,160)" d="M 166.645 279.846 C 166.922 282.372 157.151 304.646 155.362 309.896 C 150.527 324.085 145.378 338.874 141.898 353.492 C 136.369 376.156 134.775 399.601 137.183 422.805 C 145.642 505.755 182.985 550.869 245.284 601.786 C 237.845 611.319 230.455 620.891 223.114 630.5 L 221.802 631.367 C 220.441 630.788 219.492 630.305 218.312 629.422 C 165.041 589.575 128.825 534.562 119.12 468.363 C 109.867 401.736 126.912 334.123 166.645 279.846 z"/>
<path transform="translate(0,0)" fill="rgb(95,157,160)" d="M 384.398 877.739 C 386.793 878.465 390.792 882.938 392.768 884.91 C 386.316 890.013 378.237 898.202 371.929 903.996 C 359.588 915.235 347.183 926.406 334.717 937.506 C 282.067 984.29 225.159 1036.08 171.472 1081.3 C 168.626 1079.07 164.642 1057.82 162.791 1051.41 C 209.525 1014.22 257.567 978.131 304.529 941.024 C 320.965 928.052 337.32 914.977 353.594 901.801 C 362.554 894.563 375.08 883.823 384.398 877.739 z"/>
<path transform="translate(0,0)" fill="rgb(95,157,160)" d="M 350.545 786.802 L 351.767 786.838 C 354.98 789.034 357.841 793.679 360.168 796.983 C 337.205 811.953 304.189 838.467 281.528 855.467 C 244.85 883.01 207.416 909.532 169.271 935.003 C 166.326 936.886 163.044 939.277 160.127 941.292 L 168.821 902.578 C 187.432 889.314 220.334 871.46 240.895 858.672 C 278.487 835.291 313.605 810.745 350.545 786.802 z"/>
<path transform="translate(0,0)" fill="rgb(95,157,160)" d="M 392.786 995.993 C 391.455 1015.38 250.893 1158.8 227.911 1181.49 L 222.245 1174.59 L 212.405 1163.66 C 236.917 1139.84 264.062 1116.93 289.042 1093.49 C 323.641 1061.02 358.23 1028.51 392.786 995.993 z"/>
<path transform="translate(0,0)" fill="rgb(42,52,72)" d="M 428.634 1126.04 L 429.612 1126.31 C 429.008 1128.11 419.169 1133.67 416.715 1135.49 C 373.196 1167.76 337.82 1226.63 316.819 1275.83 L 305.377 1265.14 C 301.059 1260.86 296.579 1256.07 292.321 1251.68 C 321.218 1198.1 368.981 1144.85 428.634 1126.04 z"/>
<path transform="translate(0,0)" fill="rgb(95,157,160)" d="M 274.607 396.852 C 276.08 397.396 281.885 405.623 283.44 407.589 C 279.285 410.668 274.309 413.937 269.939 416.719 C 239.341 436.197 208.888 458.491 177.499 476.563 L 175.865 476.159 C 173.388 471.17 171.681 463.894 170.165 458.383 C 202.059 437.98 241.416 416.182 274.607 396.852 z"/>
<path transform="translate(0,0)" fill="rgb(95,157,160)" d="M 354.022 1558.52 C 365.743 1556.99 376.482 1565.26 377.994 1576.99 C 379.506 1588.71 371.217 1599.44 359.491 1600.93 C 347.79 1602.42 337.093 1594.15 335.585 1582.46 C 334.076 1570.76 342.326 1560.05 354.022 1558.52 z"/>
<path transform="translate(0,0)" fill="rgb(95,157,160)" d="M 244.417 309.894 C 247.429 310.884 251.42 318.455 253.002 321.248 L 173.572 370.032 C 172.607 370.664 168.473 372.531 167.195 373.144 C 167.855 366.864 169.426 359.599 170.616 353.316 C 192.795 339.285 221.324 323.702 244.417 309.894 z"/>
<path transform="translate(0,0)" fill="rgb(95,157,160)" d="M 301.43 732.959 C 303.622 733.394 308.25 738.844 310.117 740.806 C 285.149 758.771 252.214 777.871 225.572 793.268 C 223.196 794.878 222.531 795.592 219.79 796.094 L 219.284 794.543 C 220.572 789.549 229.69 775.144 232.706 770.051 C 256.246 759.151 279.116 746.145 301.43 732.959 z"/>
<path transform="translate(0,0)" fill="rgb(95,157,160)" d="M 413.036 1625.51 C 419.476 1623.19 426.67 1624.53 431.836 1629.02 C 437.003 1633.52 439.332 1640.45 437.923 1647.15 C 436.515 1653.86 431.589 1659.27 425.051 1661.3 C 415.25 1664.35 404.81 1659.01 401.544 1649.28 C 398.278 1639.55 403.382 1628.99 413.036 1625.51 z"/>
<path transform="translate(0,0)" fill="rgb(95,157,160)" d="M 481.759 1687.46 C 489.909 1686.77 497.092 1692.78 497.839 1700.93 C 498.586 1709.08 492.617 1716.3 484.476 1717.1 C 476.26 1717.9 468.959 1711.87 468.205 1703.65 C 467.451 1695.43 473.534 1688.16 481.759 1687.46 z"/>
<path transform="translate(0,0)" fill="rgb(95,157,160)" d="M 317.579 1479.7 C 325.551 1478.62 332.883 1484.21 333.962 1492.18 C 335.042 1500.15 329.46 1507.49 321.491 1508.58 C 313.51 1509.67 306.16 1504.08 305.079 1496.1 C 303.998 1488.11 309.596 1480.77 317.579 1479.7 z"/>
<path transform="translate(0,0)" fill="rgb(95,157,160)" d="M 539.738 1749.54 C 544.643 1747.76 550.062 1750.31 551.816 1755.22 C 553.57 1760.14 550.99 1765.54 546.065 1767.27 C 541.181 1768.98 535.831 1766.42 534.091 1761.55 C 532.352 1756.68 534.874 1751.31 539.738 1749.54 z"/>
<path transform="translate(0,0)" fill="rgb(95,157,160)" d="M 209.233 261.937 C 211.549 262.226 214.71 269.447 215.869 271.636 C 211.347 274.86 203.267 279.457 198.26 282.482 C 195.381 284.013 196.225 284.088 193.4 283.923 C 192.16 280.667 194.05 274.537 194.869 270.771 C 198.968 267.942 204.865 264.595 209.233 261.937 z"/>
<path transform="translate(0,0)" fill="rgb(212,220,222)" d="M 680.962 1660.07 C 684.138 1662.86 686.474 1664.45 688.017 1668.37 L 687.387 1669.31 C 684.913 1667.89 681.369 1663.77 680.509 1661.2 L 680.962 1660.07 z"/>
<path transform="translate(0,0)" fill="rgb(212,220,222)" d="M 188.007 186.745 C 185.667 184.917 182.669 182.271 181.871 179.49 C 184.75 179.975 187.212 183.155 189.467 185.414 L 188.007 186.745 z"/>
</svg>