<svg version="1.1" xmlns="http://www.w3.org/2000/svg" style="display: block;" viewBox="0 0 2048 2048" width="1024" height="1024" preserveAspectRatio="none">
<path transform="translate(0,0)" fill="rgb(255,255,255)" d="M 0 0 L 2048 0 L 2048 2048 L 0 2048 L 0 0 z"/>
<path transform="translate(0,0)" fill="rgb(75,56,91)" d="M 1653.97 759.838 C 1649.08 754.343 1644.8 750.171 1645.41 742.233 C 1646.49 728.265 1662.36 720.755 1674.55 719.773 C 1677.65 723.697 1672.87 727.845 1680.97 729.094 C 1689.31 730.381 1691.66 727.046 1697.24 733.999 C 1722.76 739.252 1725.6 738.58 1735.63 764.457 C 1739.28 767.067 1743.5 769.892 1746.83 772.827 C 1743.33 774.633 1739.21 776.625 1735.84 778.527 L 1739.81 790.514 C 1735.24 792.088 1731.03 792.97 1727.68 796.265 C 1725.36 801.321 1728.08 805.443 1722.69 809.169 L 1719.4 806.838 C 1715.74 808.243 1715.56 811.449 1715.34 814.983 C 1719.46 823.85 1732.27 832.716 1738.24 841.261 C 1752.49 861.623 1763.29 883.495 1773.27 906.116 C 1787.34 937.991 1780.11 959.712 1751.9 979.471 C 1751.69 988.323 1751.49 996.901 1753.17 1005.59 C 1758.99 1035.73 1783.32 1087.05 1803.74 1109.64 C 1787.43 1136.86 1773.93 1147.5 1746.12 1162.61 C 1751.34 1182.61 1764.5 1195.18 1773.76 1213.39 C 1784.06 1233.67 1789.78 1257.8 1801.16 1277.15 C 1806.12 1285.58 1818.44 1296.64 1825.67 1304.22 C 1817.03 1336.2 1808.04 1370.98 1763.85 1360.93 C 1761.68 1360.43 1759.69 1359.65 1757.6 1358.87 C 1765.35 1347.74 1774.8 1335.11 1780.41 1322.97 C 1735.52 1309.49 1678.73 1293.31 1632.43 1291.89 C 1635.05 1298.25 1637.85 1304.58 1639.72 1311.19 C 1632.86 1315.5 1625.46 1320.33 1617.46 1322.01 C 1614.53 1321.03 1614.72 1321 1612.44 1318.84 C 1596.78 1328.16 1566.11 1346.92 1549.18 1331.13 L 1549.19 1329.77 C 1563 1317.47 1576.63 1303.64 1590.15 1291.85 C 1575.74 1291.91 1564.55 1293.42 1551.08 1293.83 L 1549.97 1291.39 C 1565.33 1288.41 1584.42 1288.23 1599.06 1283.65 C 1600.82 1283.09 1601.53 1273.26 1601.47 1270.9 C 1600.41 1223.93 1595.67 1180.36 1604.9 1133.65 C 1592.7 1129.82 1581.41 1127.86 1569.61 1122.62 C 1580.91 1103.19 1590.14 1084.03 1600.5 1064.64 C 1617.48 1032.85 1614.92 1007.63 1622.99 974.359 C 1625.9 962.389 1636.93 947.943 1642.19 936.547 C 1645.81 928.706 1648.5 920.53 1651.3 912.293 C 1649.86 897.132 1649.49 889.475 1651.18 874.417 C 1631.47 877.024 1613.05 887.576 1590.68 880.673 C 1572.62 875.097 1543.8 833.852 1536.38 817.384 L 1541.58 808.389 L 1540.78 806.177 C 1531.9 804.198 1516.88 785.391 1508.98 777.717 C 1509.96 774.371 1510.38 772.928 1510.87 769.5 C 1506.84 763.62 1499.48 751.368 1503.58 744.655 C 1513.45 740.699 1518.76 753.092 1522.7 753.922 C 1523.57 751.416 1523.45 751.417 1525.1 749.393 L 1528.41 749.109 C 1540.43 760.172 1553.19 767.834 1547.85 785.746 C 1561.36 803.251 1580.79 828.795 1598.85 841.207 C 1616.33 840.872 1634.03 834.675 1650.95 829.728 C 1646.03 824.43 1642.31 818.49 1643.65 811.169 C 1646.74 794.265 1650.91 776.78 1653.97 759.838 z"/>
<path transform="translate(0,0)" fill="rgb(204,196,217)" d="M 1656.68 879.439 C 1657.92 868.101 1666.71 847.19 1673.95 838.797 L 1675.11 838.987 C 1676.7 845.434 1672.23 848.75 1669.29 853.925 C 1661.3 867.965 1662.08 884.216 1656.85 899.518 C 1656.4 896.68 1656.71 883.397 1656.68 879.439 z"/>
<path transform="translate(0,0)" fill="rgb(75,51,95)" d="M 1651.18 874.417 L 1653.83 871.816 L 1654.86 872.326 L 1654.94 873.345 C 1655.16 876.084 1654.97 877.307 1656.68 879.439 C 1656.71 883.397 1656.4 896.68 1656.85 899.518 C 1656.65 904.494 1654.08 908.256 1651.3 912.293 C 1649.86 897.132 1649.49 889.475 1651.18 874.417 z"/>
<path transform="translate(0,0)" fill="rgb(255,255,255)" d="M 1673.79 1093.84 C 1678.7 1099.69 1677.56 1143.49 1675.9 1152.71 C 1674.71 1159.3 1668.81 1182.95 1673 1186.47 C 1681.58 1187.65 1696.03 1182.07 1704.79 1179.31 C 1712.61 1193.63 1721.74 1209.38 1731.08 1222.68 C 1755.14 1256.97 1777.73 1275.63 1780.18 1319.4 L 1759.71 1310.94 C 1719.54 1295.16 1673.01 1283.14 1629.85 1285.72 C 1630.61 1249.42 1642.25 1211.35 1639.28 1174.27 C 1639.06 1171.54 1638.61 1158.13 1639.29 1155.53 C 1643.89 1137.9 1664.66 1107.82 1673.79 1093.84 z"/>
<path transform="translate(0,0)" fill="rgb(204,196,217)" d="M 1707.19 1000.39 C 1720.79 994.801 1730.59 988.384 1743.11 981.608 C 1742.63 1018.09 1754.28 1047 1772.47 1078.55 C 1778.48 1088.96 1786.23 1099.42 1792.08 1109.65 C 1777.35 1139.19 1732.71 1159.95 1703.11 1169.9 C 1696.21 1172.18 1689.29 1174.37 1682.33 1176.46 C 1697.34 1108.59 1679.84 1088.03 1663.66 1028.14 C 1675.56 1022.25 1670.03 1024.52 1676.82 1013.89 C 1677.49 1012.84 1683.59 1010.67 1685.61 1009.56 C 1688.9 1013.34 1689.68 1030.89 1692.61 1038.48 C 1700.97 1060.14 1709.54 1080.26 1723.62 1098.69 L 1723.22 1097.46 C 1718.46 1082.32 1710.7 1066.2 1704.62 1051.33 C 1698.68 1036.81 1694.08 1023.89 1689.07 1008.97 L 1707.19 1000.39 z"/>
<path transform="translate(0,0)" fill="rgb(75,56,91)" d="M 1684.61 1048.67 C 1684.7 1048.75 1696.87 1067.16 1697.16 1067.73 C 1696.22 1068.07 1696.9 1067.9 1695.08 1067.53 C 1689.77 1061.58 1687.06 1056.19 1684.61 1048.67 z"/>
<path transform="translate(0,0)" fill="rgb(204,196,217)" d="M 1741.71 859.722 C 1753.5 880.126 1778.04 921.94 1771.4 944.754 C 1767.13 959.42 1753.09 971.829 1739.57 978.115 C 1718.31 987.999 1689.77 1005.63 1666.5 1008.1 L 1665.32 1009.5 L 1666.16 1011.34 C 1664.06 1013 1664.22 1013.06 1661.64 1013.58 L 1660.74 1012.23 L 1661.64 1008.06 L 1662.92 1007.5 C 1663.17 1004.88 1657.83 995.649 1656.29 991.846 C 1684.86 983.692 1708.89 976.28 1731.42 954.831 C 1737.3 949.229 1737.88 950.348 1744.98 951.861 L 1746.43 950.865 C 1745.48 946.988 1741.55 945.518 1739.56 941.158 C 1738.92 939.967 1738.26 939.259 1737.42 938.18 C 1736.9 934.775 1737.02 933.498 1734.76 930.891 L 1732.83 931.235 C 1729.14 937.622 1729.86 939.042 1730.24 946.537 C 1717.62 957.683 1692.78 973.13 1677.15 980.072 C 1676.67 974.355 1680.65 951.896 1681.21 943.16 C 1692.61 928.323 1687 922.849 1679.92 907.408 C 1687.48 902.785 1692.18 900.253 1700.21 896.507 C 1697.83 890.799 1694.97 884.337 1692.93 878.594 C 1712.13 874.18 1724.72 870.29 1741.71 859.722 z"/>
<path transform="translate(0,0)" fill="rgb(75,51,95)" d="M 1737.42 938.18 C 1743.8 937.757 1746.7 937.243 1752.01 940.858 L 1751.66 942.087 C 1747.75 942.952 1743.59 941.842 1739.56 941.158 C 1738.92 939.967 1738.26 939.259 1737.42 938.18 z"/>
<path transform="translate(0,0)" fill="rgb(204,196,217)" d="M 1553.1 803.554 C 1558.06 805.611 1578.2 836.026 1596.45 847.232 C 1617.32 848.149 1631.48 841.732 1651.06 835.59 C 1658.31 833.317 1664.02 831.002 1671.64 830.647 C 1666.55 839.694 1663.25 847.112 1659.18 856.585 C 1657.6 859.775 1655.88 864.177 1654.45 867.539 C 1585.21 884.094 1580.39 875.483 1543.55 817.449 L 1553.1 803.554 z"/>
<path transform="translate(0,0)" fill="rgb(255,255,255)" d="M 1659.52 763.007 C 1669.6 767.15 1676.46 771.078 1684.43 778.364 C 1684.48 783.912 1684.03 788.075 1686.93 792.777 C 1692.49 793.939 1691.04 789.555 1696.65 790.184 C 1700.54 795.389 1699.11 806.419 1698.85 813.308 C 1700.61 815.358 1703.87 818.432 1705.86 820.425 C 1700.35 836.571 1690.46 855.815 1677.42 831.347 C 1678.04 829.928 1681.1 826.267 1682.38 824.214 C 1674.01 826.488 1657.59 829.061 1651.27 821.695 C 1643.67 812.842 1653.55 795.434 1654.84 784.278 L 1673.63 785.776 L 1674.79 784.364 L 1674.6 785.785 L 1676.96 785.451 L 1676.19 785.628 L 1675.93 784.662 L 1675.86 785.636 L 1675.11 784.324 L 1674.35 785.615 L 1673.93 783.887 C 1667.74 781.912 1662.61 780.544 1656.31 778.979 C 1657.12 772.026 1657.31 769.704 1659.52 763.007 z"/>
<path transform="translate(0,0)" fill="rgb(204,196,217)" d="M 1582.78 1117.24 C 1596.81 1094.27 1615.43 1057.41 1621.39 1031.44 C 1623.29 1023.13 1625.28 1000.28 1626.4 990.445 C 1627.66 993.321 1628.3 994.591 1629.86 997.308 L 1630.11 999.454 L 1632.84 1000.72 C 1636.07 1008.33 1631.04 1044.34 1629.18 1052.6 C 1623.83 1076.37 1615.09 1100.65 1606.52 1123.46 C 1598.71 1121.93 1590.06 1120.3 1582.78 1117.24 z"/>
<path transform="translate(0,0)" fill="rgb(204,196,217)" d="M 1652.46 970.018 C 1655.1 964.149 1661.44 956.229 1662.32 952.629 C 1663.7 946.937 1658.76 933.208 1658.45 926.258 C 1657.86 915.913 1661.34 905.177 1664.64 895.562 C 1671.38 875.881 1684.32 859.301 1698.62 844.522 C 1702.77 840.236 1707.95 828.58 1713.39 825.988 C 1714.69 832.285 1694.64 853.744 1690.14 859.205 C 1676.8 875.41 1675.35 890.161 1674.01 910.307 L 1680.35 922.413 L 1676.37 933.104 C 1674.4 935.329 1674.54 935.173 1671.66 935.978 L 1671.15 938.561 C 1673.56 940.168 1676.11 942.037 1678.68 943.289 L 1681.21 943.16 C 1680.65 951.896 1676.67 974.355 1677.15 980.072 L 1675.03 981.115 C 1669 984.106 1666.95 984.527 1660.47 986.157 C 1658.44 981.355 1654.9 974.798 1652.46 970.018 z"/>
<path transform="translate(0,0)" fill="rgb(75,51,95)" d="M 1671.15 938.561 C 1664.62 932.679 1666.36 921.761 1672.9 921.039 C 1676.25 923.789 1675.52 922.274 1676.82 925.568 L 1673.05 928.173 C 1673.24 931.107 1673.51 930.408 1676.37 933.104 C 1674.4 935.329 1674.54 935.173 1671.66 935.978 L 1671.15 938.561 z"/>
<path transform="translate(0,0)" fill="rgb(75,51,95)" d="M 1678.68 943.289 L 1681.21 943.16 C 1680.65 951.896 1676.67 974.355 1677.15 980.072 L 1675.03 981.115 C 1674.57 970.633 1678.84 954.575 1678.68 943.289 z"/>
<path transform="translate(0,0)" fill="rgb(204,196,217)" d="M 1720.49 831.478 C 1727.96 837.007 1734.92 846.865 1739.24 855.08 C 1725.3 862.818 1718.32 866.268 1703.12 871.206 L 1686.53 875.896 C 1698.53 859.679 1708.79 849.59 1720.49 831.478 z"/>
<path transform="translate(0,0)" fill="rgb(255,255,255)" d="M 1638.71 995.434 C 1653.83 982.884 1654.32 996.478 1661.64 1008.06 L 1660.74 1012.23 L 1661.64 1013.58 C 1664.22 1013.06 1664.06 1013 1666.16 1011.34 C 1666.56 1016.24 1665.47 1021.94 1659.02 1022.23 C 1654.27 1022.44 1651.56 1025.43 1647.41 1024.69 L 1647.29 1023.03 C 1650.58 1020.71 1650.46 1020.66 1652.89 1017.34 L 1652.48 1016.1 C 1649.62 1018.28 1649.02 1018.94 1645.55 1020.21 L 1644.5 1018.87 C 1645.14 1016.73 1645.57 1015.04 1646.07 1012.86 L 1645.12 1011.87 L 1642.99 1015.68 C 1639.95 1011.55 1640.43 1006.42 1635.75 1000.13 L 1632.84 1000.72 L 1630.11 999.454 L 1629.86 997.308 L 1635.31 998.18 C 1636.78 997.357 1637.43 996.585 1638.71 995.434 z"/>
<path transform="translate(0,0)" fill="rgb(75,51,95)" d="M 1638.71 995.434 C 1641.78 994.368 1646.94 991.881 1649.36 992.87 C 1644.65 995.666 1640.28 997.493 1635.75 1000.13 L 1632.84 1000.72 L 1630.11 999.454 L 1629.86 997.308 L 1635.31 998.18 C 1636.78 997.357 1637.43 996.585 1638.71 995.434 z"/>
<path transform="translate(0,0)" fill="rgb(255,255,255)" d="M 1529.72 757.772 C 1536.49 761.962 1538.73 764.434 1542.95 771.198 C 1542.93 775.895 1543.2 780.271 1543.36 784.915 C 1543.55 790.575 1547.26 798.093 1544.92 802.857 C 1537.62 799.932 1517.86 783.995 1518.3 776.572 C 1521.9 775.945 1524.69 776.619 1526.99 774.119 C 1530.19 770.648 1530.06 763.25 1529.81 759.016 L 1529.72 757.772 z"/>
<path transform="translate(0,0)" fill="rgb(204,196,217)" d="M 1626.4 990.445 C 1629.15 972.889 1635.53 963.026 1644.52 947.965 C 1645.76 945.885 1648.31 939.875 1649.83 938.795 C 1649.24 943.074 1646.79 949.105 1645.11 953.226 C 1639.68 966.607 1633.73 983.293 1635.31 998.18 L 1629.86 997.308 C 1628.3 994.591 1627.66 993.321 1626.4 990.445 z"/>
<path transform="translate(0,0)" fill="rgb(255,255,255)" d="M 1507.55 749.302 C 1517.21 749.644 1523.05 764.933 1522.83 773.749 C 1514.68 767.353 1504.37 761.004 1507.55 749.302 z"/>
<path transform="translate(0,0)" fill="rgb(204,196,217)" d="M 1681.25 846.524 C 1683.87 847.69 1683.98 847.692 1686.21 849.444 C 1683.72 855.78 1670.21 871.289 1665.51 879.598 C 1664.81 880.968 1665.32 880.197 1663.71 881.707 C 1661.82 873.571 1676.46 853.794 1681.25 846.524 z"/>
<path transform="translate(0,0)" fill="rgb(204,196,217)" d="M 1684.29 880.495 C 1687.44 883.009 1690.5 889.327 1692.63 893.097 L 1685.63 898.159 C 1684.57 898.682 1683.06 899.187 1681.92 899.619 L 1680.64 898.281 C 1679.8 892.622 1682.42 885.954 1684.29 880.495 z"/>
<path transform="translate(0,0)" fill="rgb(75,51,95)" d="M 405.678 800.418 C 425.79 800.121 446.607 806.475 462.459 819.002 C 482.503 834.879 495.457 858.038 498.497 883.428 C 502.069 914.339 489.429 934.395 476.937 961.461 L 443.55 1033.44 L 391.999 1144.16 C 369.83 1191.72 357.478 1239.45 296.825 1245.25 C 245.856 1247.02 207.151 1214.72 201.404 1163.65 C 197.972 1133.15 209.711 1113.91 221.691 1087.14 L 253.953 1015.74 L 311.35 888.552 C 334.284 838.943 344.018 804.944 405.678 800.418 z"/>
<path transform="translate(0,0)" fill="rgb(255,255,255)" d="M 404.652 817.39 C 436.508 817.747 465.645 836.942 476.854 867.193 C 490.297 903.474 473.009 929.18 458.282 961.206 C 445.295 989.599 432.138 1017.91 418.814 1046.15 L 356.971 1017.09 C 339.949 1009.28 320.185 1000.94 303.917 992.096 C 321.356 965.078 342.694 918.085 357.123 887.576 C 373.067 851.262 380.328 834.737 425.625 842.529 C 421.744 840.305 417.511 837.768 413.145 836.577 C 368.664 824.437 355.148 867.76 340.764 898.989 C 326.825 929.25 311.178 959.364 301.373 990.898 C 296.773 988.723 291.525 986.799 286.758 984.921 C 298.282 958.397 310.034 931.973 322.015 905.653 C 330.314 887.282 338.243 868.966 347.844 851.222 C 360.009 828.742 380.203 819.672 404.652 817.39 z"/>
<path transform="translate(0,0)" fill="rgb(204,196,217)" d="M 278.965 1001.48 C 294.421 1007.08 310.136 1014.72 325.201 1021.52 C 347.2 1031.36 369.127 1041.37 390.979 1051.53 C 386.008 1064.77 372.04 1091.23 364.908 1106.36 C 352.706 1132.24 339.316 1163.7 325.54 1188.68 C 321.849 1195.37 303.772 1200.98 298.335 1204.25 L 298.714 1205.93 C 316.367 1212.42 334.705 1195.33 341.073 1180.49 C 346.662 1167.47 352.391 1154.3 358.257 1141.4 C 368.483 1119.31 378.517 1097.13 388.357 1074.86 C 390.455 1070.01 395.223 1056.41 398.36 1054.71 L 411.332 1061.03 L 410.661 1062.57 C 398.776 1089.81 385.32 1117.54 372.908 1144.62 C 367.297 1156.86 351.76 1192.72 344.616 1202.17 C 337.256 1211.84 327.366 1219.28 316.041 1223.68 C 278.608 1237.99 235.686 1218.24 222.01 1180.57 C 210.542 1148.98 223.116 1121.69 237.161 1093.61 C 252.207 1063.54 264.548 1031.86 278.965 1001.48 z"/>
<path transform="translate(0,0)" fill="rgb(75,51,95)" d="M 979.427 895.173 C 995.12 893.752 1009.91 896.003 1023.51 904.311 C 1037.58 913.038 1047.57 927.049 1051.22 943.202 C 1056.22 964.5 1050.67 981.1 1039.74 999.06 C 1044.82 1005.03 1049.86 1011.03 1054.86 1017.06 C 1049.59 1023.08 1045.4 1027.36 1039.64 1032.94 C 1033.12 1028.03 1026.67 1021.06 1020.86 1015.17 C 1001.37 1028.41 973.832 1027.02 954.22 1014.73 C 940.11 1005.99 930.101 991.945 926.437 975.755 C 917.498 936.529 940.774 903.577 979.427 895.173 z"/>
<path transform="translate(0,0)" fill="rgb(255,255,255)" d="M 980.473 921.109 C 997.648 919.791 1014.02 923.921 1022.64 940.644 C 1029.33 953.619 1026.2 965.378 1021.88 978.384 C 1013.41 970.407 1005.15 962.216 997.109 953.819 C 992.588 957.895 982.155 965.772 980.455 971.342 C 980.053 972.66 981.576 974.429 982.461 975.921 C 989.192 982.752 995.233 988.993 1001.65 996.164 C 980.43 1000.56 960.78 996.156 952.618 973.799 C 948.92 963.567 949.493 952.278 954.208 942.474 C 959.871 930.736 968.815 925.337 980.473 921.109 z"/>
<path transform="translate(0,0)" fill="rgb(75,51,95)" d="M 645.024 896.202 C 672.843 895.9 703.503 892.182 725.6 911.422 C 738.034 922.386 745.638 937.815 746.758 954.355 C 748.202 974.837 741.322 990.072 728.366 1005.23 C 727.872 1005.75 727.368 1006.27 726.854 1006.78 C 704.479 1028.83 674.563 1024.19 644.939 1024.02 C 644.99 983.751 643.496 935.761 645.024 896.202 z"/>
<path transform="translate(0,0)" fill="rgb(255,255,255)" d="M 669.937 924.016 C 682.527 923.743 697.827 922.713 707.616 931.602 C 725.132 947.509 723.489 968.734 709.715 985.633 C 695.424 997.621 687.962 996.772 669.871 996.774 L 669.937 924.016 z"/>
<path transform="translate(0,0)" fill="rgb(75,51,95)" d="M 1296.04 896.259 C 1329.16 896.283 1386.42 888.265 1378 943.941 C 1376.23 955.686 1367.61 962.355 1358.09 968.265 C 1367.49 986.723 1379.43 1004.81 1389.12 1023.51 L 1360.04 1023.31 C 1354.32 1016.93 1334.07 968.72 1324.22 975.423 C 1322 980.893 1322.73 1014.93 1322.72 1023.33 L 1296.02 1023.16 L 1296.04 896.259 z"/>
<path transform="translate(0,0)" fill="rgb(255,255,255)" d="M 1321.99 922.949 C 1334.72 922.68 1362.66 922.179 1348.76 943.284 C 1339.84 948.57 1332.42 947.381 1322.03 947.279 L 1321.99 922.949 z"/>
<path transform="translate(0,0)" fill="rgb(75,51,95)" d="M 757.056 896.097 C 782.182 896.059 807.308 896.195 832.431 896.503 C 832.8 905.403 832.575 915.195 832.549 924.168 L 783.058 924.239 L 783.112 945.815 L 825.217 945.879 L 825.053 971.101 C 811.611 971.545 796.254 971.158 782.671 971.124 L 782.716 981.03 L 782.701 996.028 L 833.155 995.925 L 833.138 1023.48 L 757.355 1023.21 C 756.841 980.84 756.741 938.467 757.056 896.097 z"/>
<path transform="translate(0,0)" fill="rgb(75,51,95)" d="M 557.449 896.085 L 633.048 896.062 L 633.055 923.221 L 581.934 923.498 L 581.948 945.545 C 596.466 945.545 612.235 945.337 626.563 947.106 C 626.787 955.731 626.794 962.376 626.353 970.973 C 613.647 971.261 595.241 970.029 583.128 971.327 C 581.235 973.941 581.918 974.813 581.795 978.75 L 581.807 996.052 L 633.299 996.016 L 633.237 1023.92 L 557.272 1023.71 L 557.449 896.085 z"/>
<path transform="translate(0,0)" fill="rgb(75,51,95)" d="M 1069 896.258 L 1094.79 896.123 C 1095.08 914.31 1093.92 932.766 1094.07 950.962 C 1094.28 963.787 1092.08 977.22 1100.4 988.15 C 1107.78 997.846 1123.08 998.907 1131.75 990.502 C 1142.64 979.939 1140.23 961.004 1140.19 946.931 L 1140.05 896.327 L 1166.03 896.619 L 1165.98 922.5 C 1165.9 962.066 1175.4 1020.85 1117.49 1022.89 C 1104.53 1023.42 1091.94 1018.58 1082.68 1009.51 C 1077.43 1004.47 1073.58 998.146 1071.51 991.169 C 1067.21 976.65 1068.88 915.212 1069 896.258 z"/>
<path transform="translate(0,0)" fill="rgb(75,51,95)" d="M 1228.11 891.621 C 1231.64 896.032 1251.47 937.291 1254.65 944.442 C 1266.14 970.287 1281.39 997.643 1292.62 1023.07 L 1265.24 1023.03 L 1252.55 997.015 L 1230.5 997.014 L 1205.06 996.961 C 1200.5 1006.09 1196.82 1013.62 1192.92 1023.13 L 1165.85 1023.18 C 1168.15 1016.88 1172 1008.75 1175.12 1002.74 C 1193.73 966.911 1209.38 927.117 1228.11 891.621 z"/>
<path transform="translate(0,0)" fill="rgb(255,255,255)" d="M 1227.41 944.562 C 1229.79 946.694 1239.98 968.912 1240.74 972.359 C 1237.96 973.514 1233.84 973.115 1230.57 973.107 L 1214.75 973.085 C 1219.31 963.733 1223.53 954.219 1227.41 944.562 z"/>
<path transform="translate(0,0)" fill="rgb(75,51,95)" d="M 1399.35 895.997 L 1475.62 895.844 C 1465.65 923.848 1446.25 966.632 1433.82 994.733 C 1446.66 994.12 1459.22 994.228 1472.06 994.249 C 1472.16 1000.13 1473.17 1019.18 1470.87 1023.12 L 1391.69 1023.15 C 1407.19 990.692 1420.82 955.2 1435.32 921.976 C 1424.16 922.969 1410.69 922.858 1399.34 923.051 L 1399.35 895.997 z"/>
<path transform="translate(0,0)" fill="rgb(75,51,95)" d="M 846.039 896.889 C 853.975 896.561 863.049 896.792 871.073 896.809 L 871.091 995.914 L 920.364 995.764 L 920.862 1023.57 L 845.719 1023.61 L 846.039 896.889 z"/>
<path transform="translate(0,0)" fill="rgb(75,51,95)" d="M 848.749 1061.07 C 861.354 1060.95 879.176 1059.46 890.835 1063.04 C 903.432 1066.91 909.098 1083.19 903.374 1094.69 C 899.476 1102.52 895.793 1103.95 887.733 1106.71 C 894.738 1116.18 901.547 1125.8 908.158 1135.55 L 896.238 1135.65 C 890.381 1134.37 879.64 1115.1 875.191 1108.71 L 861.588 1108.36 L 861.864 1135.47 C 857.761 1135.85 853.131 1135.85 848.968 1135.96 C 848.766 1111 848.693 1086.03 848.749 1061.07 z"/>
<path transform="translate(0,0)" fill="rgb(255,255,255)" d="M 862.38 1073.41 C 874.944 1073.32 903.042 1072.02 889.301 1093.1 C 880.314 1097.24 872.218 1096.15 862.293 1096.06 L 862.38 1073.41 z"/>
<path transform="translate(0,0)" fill="rgb(75,51,95)" d="M 1006.63 1061.13 L 1019.33 1061.41 C 1019.05 1086.09 1018.95 1110.77 1019.04 1135.45 L 1006.03 1135.75 C 1006.09 1118.33 1006.02 1100.91 1005.79 1083.5 L 981.102 1113.75 C 976.241 1108.25 963.036 1090.1 958.551 1086.52 L 957.623 1087.84 L 957.907 1135.21 L 944.908 1135.75 C 944.031 1112.61 944.594 1085.57 944.523 1062.13 L 956.043 1062.11 C 964.421 1072.44 973.03 1082.58 981.862 1092.53 C 991.17 1081.78 998.516 1072.75 1006.63 1061.13 z"/>
<path transform="translate(0,0)" fill="rgb(75,51,95)" d="M 557.762 1060.98 C 571.346 1060.8 594.673 1058.54 605.279 1066.44 C 610.171 1070.12 613.372 1075.62 614.159 1081.69 C 616.441 1098.28 604.689 1107.69 589.25 1109.02 L 569.975 1108.95 L 570.033 1135.97 C 566.1 1136.04 561.865 1136.59 558.459 1134.88 C 557.371 1127.56 557.894 1114.25 557.915 1106.5 L 557.762 1060.98 z"/>
<path transform="translate(0,0)" fill="rgb(255,255,255)" d="M 569.625 1073.86 C 584.298 1073.51 608.462 1070.61 598.342 1093.77 C 588.412 1098.55 580.752 1097.3 569.718 1097.17 C 569.559 1089.5 569.645 1081.56 569.625 1073.86 z"/>
<path transform="translate(0,0)" fill="rgb(75,51,95)" d="M 1344.02 1061.26 C 1357.69 1060.17 1368.55 1063.9 1380.26 1070.43 C 1377.4 1073.98 1373.47 1077.93 1370.28 1081.3 C 1369.61 1080.71 1368.93 1080.13 1368.24 1079.57 C 1362.31 1074.75 1353.96 1072.5 1346.42 1073.54 C 1339.07 1074.54 1332.5 1078.62 1328.36 1084.77 C 1313.16 1107.18 1335.71 1132.76 1360.17 1124.39 C 1365.25 1122.65 1373.59 1114.38 1371.67 1109.45 C 1366.16 1107.05 1357.06 1109.85 1351.28 1107.48 C 1349.75 1106.86 1349.62 1104.89 1348.96 1102.86 L 1350.23 1098.09 C 1355.46 1094.84 1378.2 1096.08 1385.99 1096.11 C 1386.16 1104.62 1386.19 1112.99 1382.03 1120.61 C 1366.38 1149.34 1316.93 1138.8 1310.54 1108.17 C 1307.02 1091.33 1314.75 1073.65 1330.03 1065.86 C 1335.08 1063.29 1338.62 1062.43 1344.02 1061.26 z"/>
<path transform="translate(0,0)" fill="rgb(75,51,95)" d="M 776.87 1058.93 C 778.217 1059.16 782.735 1059.84 783.394 1061.19 C 795.328 1085.59 806.499 1110.84 817.935 1135.48 C 813.345 1135.8 808.264 1135.82 803.625 1135.95 C 801.447 1130.78 800.363 1127.92 797.223 1123.15 L 782.293 1123.26 L 761.751 1123.21 L 755.63 1136.01 L 741.179 1135.86 C 745.737 1125.64 750.904 1116.06 755.61 1105.91 C 762.803 1090.39 769.193 1074.18 776.87 1058.93 z"/>
<path transform="translate(0,0)" fill="rgb(255,255,255)" d="M 779.333 1082.6 C 782.308 1085.34 791.026 1106.83 793.085 1111.59 L 782.242 1111.87 L 766.205 1111.91 C 770.517 1101.71 774.428 1092.56 779.333 1082.6 z"/>
<path transform="translate(0,0)" fill="rgb(75,51,95)" d="M 1090.29 1056.61 C 1095.89 1062.07 1123.63 1124.35 1128.63 1135.48 C 1124.32 1135.69 1119.64 1135.66 1115.29 1135.73 C 1113.23 1131.87 1111.06 1127 1109.13 1122.99 L 1091.96 1122.91 L 1072.75 1122.83 L 1066.97 1135.03 L 1052.31 1134.81 C 1059.54 1120.37 1066.6 1105.86 1073.5 1091.26 C 1078.47 1080.56 1084.42 1066.4 1090.29 1056.61 z"/>
<path transform="translate(0,0)" fill="rgb(255,255,255)" d="M 1090.18 1083.43 C 1094.34 1086.95 1101.27 1105.9 1103.71 1111.92 L 1091.74 1112.09 L 1077.01 1112.03 C 1081.22 1102.4 1085.27 1092.72 1090.18 1083.43 z"/>
<path transform="translate(0,0)" fill="rgb(75,51,95)" d="M 1244.2 1057.43 C 1249.11 1061 1278.49 1126.24 1282.45 1135.86 L 1268.82 1135.91 C 1266.47 1131.74 1263.94 1126.59 1261.7 1122.27 C 1256.72 1122.75 1250.53 1122.72 1245.44 1122.83 L 1225.38 1122.2 L 1219.8 1135.77 L 1206.53 1135.47 L 1229.17 1087.03 C 1233.06 1078.69 1239.19 1064.72 1244.2 1057.43 z"/>
<path transform="translate(0,0)" fill="rgb(255,255,255)" d="M 1243.79 1081.71 C 1247.6 1085.83 1255.31 1105.45 1257.93 1111.75 L 1245.62 1111.98 L 1229.79 1112.04 L 1243.79 1081.71 z"/>
<path transform="translate(0,0)" fill="rgb(75,51,95)" d="M 1524.86 661.647 C 1539.73 657.456 1555.17 666.18 1559.25 681.082 C 1563.34 695.983 1554.5 711.358 1539.57 715.332 C 1524.79 719.265 1509.61 710.539 1505.57 695.79 C 1501.53 681.042 1510.14 665.795 1524.86 661.647 z"/>
<path transform="translate(0,0)" fill="rgb(75,51,95)" d="M 1821.24 1340.85 C 1843.51 1353.77 1853.31 1379.51 1820.72 1383.73 C 1746.46 1393.32 1681.66 1350.1 1607.75 1348.69 C 1596.94 1348.89 1586.69 1349.29 1575.85 1348.89 C 1580.05 1347.64 1584.79 1347.11 1589.16 1346.46 C 1612.06 1343.57 1634.17 1342.01 1657.01 1346.05 C 1708.65 1355.19 1756.27 1378.81 1810.03 1375.36 C 1842.8 1373.26 1835.85 1361.14 1821.24 1340.85 z"/>
<path transform="translate(0,0)" fill="rgb(100,99,100)" d="M 1607.75 1348.69 C 1596.94 1348.89 1586.69 1349.29 1575.85 1348.89 C 1580.05 1347.64 1584.79 1347.11 1589.16 1346.46 C 1594.63 1349.98 1602.9 1345.89 1607.75 1348.69 z"/>
<path transform="translate(0,0)" fill="rgb(75,51,95)" d="M 696.757 1060.94 L 710.014 1060.85 L 709.963 1108 C 709.96 1114.53 710.409 1128.61 709.215 1134.48 L 706.748 1135.75 C 701.925 1135.8 701.989 1136.57 698.479 1134.5 C 694.785 1127.82 696.744 1113.19 696.834 1104.33 L 661.129 1104.41 L 661.053 1135.43 L 648.189 1135.57 C 648.205 1125.58 647.182 1068.41 649.212 1062.2 L 651.421 1061.51 C 654.678 1061.27 656.96 1060.63 659.582 1062.36 C 663.182 1068.73 661.157 1083.49 661.093 1092.31 C 672.622 1092.76 685.246 1092.52 696.875 1092.51 L 696.757 1060.94 z"/>
<path transform="translate(0,0)" fill="rgb(45,39,45)" d="M 1540.11 1293.38 L 1549.97 1291.39 L 1551.08 1293.83 L 1539.8 1295.47 L 1540.11 1293.38 z"/>
<path transform="translate(0,0)" fill="rgb(100,99,100)" d="M 1540.11 1293.38 L 1539.8 1295.47 C 1535.54 1296.07 1531.72 1296.91 1527.49 1296.38 C 1530.49 1294.5 1536.37 1293.98 1540.11 1293.38 z"/>
</svg>