<svg version="1.1" xmlns="http://www.w3.org/2000/svg" style="display: block;" viewBox="0 0 2048 1536" width="1365" height="1024" preserveAspectRatio="none">
<defs>
	<linearGradient id="Gradient1" gradientUnits="userSpaceOnUse" x1="323.864" y1="679.322" x2="276.755" y2="691.201">
		<stop class="stop0" offset="0" stop-opacity="1" stop-color="rgb(1,1,1)"/>
		<stop class="stop1" offset="1" stop-opacity="1" stop-color="rgb(45,44,45)"/>
	</linearGradient>
</defs>
<path transform="translate(0,0)" fill="rgb(243,243,242)" d="M 0 0 L 2048 0 L 2048 1536 L 0 1536 L 0 0 z"/>
<path transform="translate(0,0)" fill="rgb(54,53,53)" d="M 1502.57 419.056 C 1503.05 410.653 1507.25 365.195 1514.29 362.985 C 1528.33 358.574 1579.96 348.348 1592.5 351.931 C 1600.4 358.826 1608.74 390.73 1614.08 403.287 C 1632.29 404.673 1646.72 406.084 1664.76 408.569 C 1670.03 399.478 1693.76 360.747 1705.09 363.939 C 1724.13 369.303 1758.72 379.458 1773.99 391.581 C 1778.54 395.194 1768.41 436.748 1767.72 445.534 L 1767.62 446.877 C 1781.5 455.972 1789.2 462.291 1801.92 473.204 C 1817.23 466.661 1839.62 454.697 1854.95 450.894 C 1863.9 448.674 1908.87 507.559 1907.99 515.839 C 1906.85 526.578 1882.72 547.32 1873.94 555.451 C 1880.86 570.665 1887.37 584.971 1893.54 600.527 C 1903.14 601.136 1940.26 602.481 1946.96 607.093 C 1956.96 613.976 1956.47 657.64 1959.12 670.407 C 1960.52 677.122 1960.12 688.448 1956.69 694.549 C 1947.93 702.163 1918.63 707.243 1905.98 710.718 L 1900.5 754.281 C 1913.01 763.387 1936.63 779.24 1945.06 790.649 C 1943.08 807.782 1923.53 851.03 1910.37 863.747 C 1905.81 868.149 1872.77 855.269 1865.15 852.739 C 1842.14 886.138 1833.3 898.295 1804.19 926.653 C 1818.78 939.408 1829.11 952.12 1830.38 972.533 C 1831.4 986.855 1826.6 1000.98 1817.08 1011.73 C 1794.5 1037.03 1750.45 1040.01 1725.15 1016.95 C 1715.66 1008.3 1711.39 998.77 1707.34 986.876 C 1695.19 992.832 1669.51 999.712 1656.25 1002.59 C 1656.55 1004.11 1656.88 1005.64 1657.23 1007.16 C 1674.93 1084.48 1747.98 1126.43 1824.27 1108.88 C 1857.93 1101.13 1892.51 1077.67 1910.44 1047.95 C 1926.11 1021.54 1930.71 990.018 1923.25 960.236 C 1913.5 922.848 1889.24 899.054 1857.08 880.319 L 1867.56 867.552 C 1909.33 877.122 1907.82 890.371 1935.77 853.1 L 1960.83 884.224 C 1950.38 894.163 1942.85 901.534 1934.24 913.072 C 1934.42 915.54 1934.39 918.318 1934.41 920.824 C 1938.12 927.663 1942.29 934.687 1946.18 941.464 C 1955.54 944.749 1975.9 946.029 1986.51 946.98 C 1987.57 963.867 1988.44 981.188 1990.23 997.982 C 1977.96 1001.2 1962.91 1004.73 1951.23 1009.08 C 1939.23 1051.21 1941.72 1038.75 1973.37 1066.3 C 1964.2 1081.09 1955.31 1096.04 1946.71 1111.17 C 1933.48 1105.09 1920.15 1099.22 1906.73 1093.57 C 1873.49 1116.59 1879.97 1120.82 1887.21 1156.43 C 1870.85 1161.37 1851.04 1168.95 1834.78 1174.88 C 1817.39 1148.2 1801.99 1107.7 1773.63 1158.63 C 1770.4 1164.43 1766.94 1170.49 1763.69 1176.32 C 1748.9 1172.85 1728.34 1167.23 1713.96 1165.34 C 1713.58 1140.27 1726.48 1116.99 1694.51 1108.97 C 1678.66 1113.24 1669.77 1118.93 1656.67 1128.29 C 1644.12 1118.35 1630.69 1101.04 1622.47 1087.38 C 1631.92 1073.45 1637.25 1065.19 1641.89 1048.78 C 1639.35 1037.58 1632.09 1018.77 1627.97 1007.89 C 1622.38 1008.86 1613.69 1009.24 1607.81 1009.67 C 1599.02 1024.95 1591.91 1048.35 1586.01 1065.35 C 1551.67 1064.72 1527.77 1063.27 1494.06 1054.27 L 1493.8 995.986 C 1477.09 991.46 1460.55 984.862 1444.27 978.841 C 1432.13 988.561 1413.97 1001.91 1403.33 1012.28 C 1385.89 1003.11 1364.09 985.278 1349.59 972.176 C 1321.03 977.514 1283.73 988.089 1255.06 995.442 C 1193.78 1011.24 1132.61 1027.5 1071.56 1044.2 L 897.518 1091.63 C 852.676 1104.03 808.451 1115.46 765.018 1132.17 C 733.002 1144.48 697.505 1174.58 662.329 1158.74 C 656.999 1156.34 651.702 1150.35 650.301 1144.57 C 646.764 1128.08 669.334 1123.5 678.396 1114.71 C 684.959 1108.33 689.541 1099.38 693.94 1091.52 C 690.039 1083.59 686.398 1070.31 683.369 1061.52 C 678.213 1046.47 672.206 1031.72 665.379 1017.35 C 648.383 981.743 620.153 947.023 599.669 912.215 C 584.935 887.178 568.585 844.695 553.134 822.92 C 531.309 848.218 538.038 864.737 533.375 895.561 C 531.815 905.873 525.463 920.42 525.968 930.238 C 526.833 947.041 544.814 966.241 537.56 983.059 C 546.47 1005.99 556.561 1039.32 567.456 1061.94 C 570.747 1064.58 580.043 1069.59 582.086 1072.99 C 600.015 1102.79 618.067 1131.28 637.776 1159.97 C 614.079 1159.45 590.396 1161.48 567.131 1166.01 C 559.652 1135.22 534.013 1097.65 552.899 1068.7 C 546.76 1054.22 540.861 1039.64 535.203 1024.97 C 532.033 1016.77 520.594 981.193 509.981 982.943 C 505.914 993.421 510.269 1026.09 509.84 1038.3 C 509.365 1051.81 519.135 1096.95 516.25 1107.5 C 505.416 1115.73 522.737 1124.27 526.276 1133.05 C 529.04 1139.91 529.184 1142.82 529.6 1150.18 C 513.393 1155.86 498.577 1158.39 482.236 1162.75 C 463.791 1167.67 446.116 1176.02 427.029 1179.35 C 414.177 1181.59 402.212 1181.68 389.191 1181.43 C 376.794 1181.32 370.258 1178.15 372.36 1164.52 C 375.163 1146.34 393.318 1142.7 406.317 1134.79 C 415.247 1129.36 438.808 1119.09 440.39 1108.82 C 439.128 1105.17 433.797 1101.95 430.19 1098.98 C 429.41 1082.38 430.894 1065.29 430.186 1047.67 C 400.637 1067.7 356.957 1081.89 321.484 1084.95 C 258.179 1089.96 195.465 1069.71 147.043 1028.62 C 100.119 988.969 74.5213 933.998 69.5298 873.295 C 62.3716 868.629 56.458 864.977 49.9819 859.344 C 65.286 845.9 66.2287 839.848 69.5577 820.163 C 65.0924 815.658 56.8823 809.79 60.3994 803.41 C 65.1363 800.319 72.2533 799.836 78.109 798.823 C 86.9211 771.69 97.6553 744.908 116.381 722.958 C 115.043 695.766 119.704 687.172 146.636 686.653 C 148.174 686.623 167.196 670.566 170.098 668.5 C 190.227 654.174 211.477 644.438 234.876 636.678 C 279.453 580.807 306.573 543.182 340.877 479.903 L 335.886 469.034 C 327.231 470.557 298.097 476.306 292.443 469.029 C 292.284 461.781 319.045 461.997 321.815 450.355 C 324.824 437.711 311.603 402.355 317.784 392.745 C 327.572 377.525 370.101 360.497 387.913 354.534 C 399.777 350.563 407.135 351.385 417.616 357.003 C 422.408 367.09 427.475 377.881 433.884 386.994 C 436.77 386.582 439.682 386.38 442.597 386.392 C 453.214 386.358 496.884 388.724 494.798 403.108 C 488.989 412.233 463.797 419.124 452.532 423.112 C 456.435 434.557 459.606 438.881 469.377 445.892 C 496.921 448.842 526.267 437.126 552.164 452.296 C 584.382 471.17 636.718 595.937 650.878 635.264 C 658.901 657.548 666.401 680.696 670.271 704.118 C 675.274 734.391 676.275 765.313 678.102 795.904 C 679.431 818.167 680.241 841.642 686.532 863.167 C 694.833 891.567 715.796 916.552 728.475 943.315 C 748.164 984.874 760.301 1030.29 772.377 1074.52 L 764.887 1080.88 C 778.184 1093.2 782.562 1089.41 780.081 1110.16 C 832.633 1092.19 902.944 1074.33 957.359 1059.58 C 1039.09 1037.05 1121 1015.18 1203.09 993.959 C 1238.51 984.795 1273.99 975.858 1309.52 967.147 C 1323.89 963.52 1346.75 957.243 1360.37 954.687 C 1366.44 953.548 1397.66 954.629 1406.24 954.695 C 1427.41 954.857 1454.21 953.841 1474.85 955.384 C 1479.29 955.716 1509.69 965.449 1516.56 967.148 C 1591.61 986.141 1664.1 977.796 1731.38 939.05 C 1857.45 866.455 1915.42 688.559 1837.67 561.107 C 1800.35 499.931 1746.51 460.517 1676.84 442.57 C 1606.84 423.901 1532.33 433.259 1469.12 468.657 C 1451.44 478.687 1436.83 492.339 1422.83 500.415 L 1421.82 500.986 L 1378.62 500.941 C 1371.83 492.351 1353.8 466.457 1352.94 458.045 C 1351.7 445.824 1405.35 404.157 1417.1 403.953 C 1424.72 403.821 1452.33 433.59 1459.02 439.578 C 1470.54 432.148 1489.48 424.644 1502.57 419.056 z"/>
<path transform="translate(0,0)" fill="rgb(107,66,62)" d="M 1707.34 986.876 C 1723.24 978.103 1737.94 973.379 1755.62 962.369 C 1775.1 950.242 1786.28 939.864 1804.19 926.653 C 1818.78 939.408 1829.11 952.12 1830.38 972.533 C 1831.4 986.855 1826.6 1000.98 1817.08 1011.73 C 1794.5 1037.03 1750.45 1040.01 1725.15 1016.95 C 1715.66 1008.3 1711.39 998.77 1707.34 986.876 z"/>
<path transform="translate(0,0)" fill="rgb(243,243,242)" d="M 272.455 664.828 C 289.416 661.432 306.481 662.238 323.538 663.889 L 320.955 667.189 C 330.659 668.699 344.975 670.619 353.733 674.539 C 351.664 682.729 349.568 687.342 350.546 695.538 C 345.944 696.491 344.718 695.017 343.101 697.851 C 340.819 701.852 337.583 707.03 336.693 711.498 C 338.688 714.129 338.799 714.619 341.754 715.688 C 348.367 715.137 350.751 708.782 353.489 703.504 C 355.425 705.974 358.191 709.739 360.302 711.887 L 354.009 727.11 C 357.868 728.738 364.289 731.241 367.764 733.192 C 371.837 725.808 375.815 718.373 379.698 710.888 C 389.609 707.759 394.134 706.139 393.072 694.359 L 392.002 692.522 L 392.716 690.358 C 394.301 682.618 400.824 677.841 406.983 673.457 C 437.219 688.121 467.686 719.951 484.757 748.441 C 556.396 868.002 501.907 1014.54 370.897 1059.24 C 315.09 1077.67 254.24 1073.13 201.791 1046.61 C 152.596 1022.8 114.901 980.388 97.0271 928.741 C 78.291 872.974 81.1192 819.807 106.921 766.246 C 110.888 758.01 118.583 744.773 124.194 737.712 C 132.435 741.197 134.667 742.085 143.465 743.41 C 123.455 774.22 109.516 804.071 106.119 841.305 C 105.742 845.443 104.678 858.119 105.619 861.742 C 106.513 859.996 106.038 860.789 107.937 859.511 C 109.837 853.989 110.87 832.151 112.384 823.669 C 120.237 779.7 150.135 731.367 186.578 705.642 C 195.143 718.69 203.835 731.654 212.65 744.534 L 225.558 736.07 C 216.342 723.113 207.519 709.882 199.1 696.394 C 224.548 679.4 246.454 673.442 276.103 668.244 L 272.455 664.828 z"/>
<path transform="translate(0,0)" fill="rgb(243,243,242)" d="M 406.983 673.457 C 437.219 688.121 467.686 719.951 484.757 748.441 C 556.396 868.002 501.907 1014.54 370.897 1059.24 C 315.09 1077.67 254.24 1073.13 201.791 1046.61 C 152.596 1022.8 114.901 980.388 97.0271 928.741 C 78.291 872.974 81.1192 819.807 106.921 766.246 C 110.888 758.01 118.583 744.773 124.194 737.712 C 132.435 741.197 134.667 742.085 143.465 743.41 C 123.455 774.22 109.516 804.071 106.119 841.305 C 105.742 845.443 104.678 858.119 105.619 861.742 C 106.654 888.492 109.947 910.343 121.433 934.798 C 166.559 1030.88 275.727 1073.45 374.619 1036.05 C 421.324 1018.37 458.993 982.713 479.195 937.046 C 500.06 890.293 501.355 837.135 482.793 789.421 C 467.296 749.104 432.542 707.997 392.716 690.358 C 394.301 682.618 400.824 677.841 406.983 673.457 z"/>
<path transform="translate(0,0)" fill="rgb(54,53,53)" d="M 392.716 690.358 C 432.542 707.997 467.296 749.104 482.793 789.421 C 501.355 837.135 500.06 890.293 479.195 937.046 C 458.993 982.713 421.324 1018.37 374.619 1036.05 C 275.727 1073.45 166.559 1030.88 121.433 934.798 C 109.947 910.343 106.654 888.492 105.619 861.742 C 106.513 859.996 106.038 860.789 107.937 859.511 C 119.212 860.648 151.242 859.855 164.04 859.888 L 163.971 874.089 C 145.72 873.955 128.598 875.306 109.658 874.962 C 113.592 910.677 119.034 923.704 135.907 955.397 C 148.83 949.244 170.138 935.175 182.765 927.279 L 190.968 940.146 C 180.671 945.755 153.933 963.023 145.77 970.074 C 165.166 992.864 182.318 1008.53 209.053 1022.4 C 217.073 1007.01 224.462 992.064 232.713 976.643 C 236.923 978.27 241.211 980.807 245.21 982.989 C 238.577 997.888 229.208 1014.95 221.868 1029.98 C 245.164 1040.71 277.499 1046.79 303.031 1046.82 C 303.489 1030.64 300.949 1013.91 300.977 997.268 C 301.042 959.091 301.667 922.166 299.596 883.984 C 278.453 871.496 289.759 865.302 281.25 857.128 C 276 852.085 269.488 848.199 263.478 844.128 C 248.04 833.67 231.011 823.417 218.157 809.867 C 239.843 819.806 267.069 838.289 288.552 850.53 L 297.701 845.731 L 297.4 844.379 C 295.91 837.624 287.306 798.134 290.264 793.538 L 291.796 793.992 C 295.083 800.186 301.078 834.579 303.053 844.01 C 309.162 846.315 311.78 847.305 317.332 850.605 C 328.227 840.551 400.582 785.939 410.421 784.639 C 406.933 792.739 331.671 847.306 320 855.817 L 321.741 867.382 C 317.258 877.042 314.298 879.385 305.263 883.491 C 305.015 894.101 307.491 995.168 308.643 996.784 C 309.576 996.961 314.738 997.917 315.288 998.953 C 318.627 1005.24 314.926 1044.37 322.8 1044.82 C 345.104 1046.07 383.13 1030.3 400.493 1019.92 C 393.964 1012.04 375.975 984.056 370.779 974.832 C 374.492 972.531 378.321 969.697 381.914 967.163 C 392.303 981.089 401.804 998.128 413.354 1011.17 C 436.325 997.81 457.051 971.343 469.082 947.928 C 453.162 939.973 436.497 933.883 420.413 926.177 L 427.257 913.504 C 443.318 920.192 459.815 927.339 476.152 933.192 C 487.961 909.11 492.053 876.34 491.687 849.775 C 478.463 849.777 452.489 853.544 438.219 854.985 C 437.494 850.553 436.96 845.735 436.378 841.251 C 453.132 839.476 472.958 835.402 490.711 833.205 C 483.913 802.266 478.411 782.829 461.09 756.093 C 447.31 765.262 433.224 776.165 419.682 785.969 C 414.793 781.419 413.404 779.404 409.499 773.883 C 421.326 764.307 439.399 752.207 452.241 743.243 C 436.098 723.452 416.12 705.602 393.072 694.359 L 392.002 692.522 L 392.716 690.358 z"/>
<path transform="translate(0,0)" fill="url(#Gradient1)" d="M 272.455 664.828 C 289.416 661.432 306.481 662.238 323.538 663.889 L 320.955 667.189 C 310.448 666.568 301.96 666.153 291.462 666.353 C 293.64 680.838 295.405 701.119 296.407 715.914 L 281.187 716.972 C 280.672 710.966 277.324 670.835 276.103 668.244 L 272.455 664.828 z"/>
<path transform="translate(0,0)" fill="rgb(54,53,53)" d="M 135.303 767.958 C 143.038 770.193 176.078 784.957 185.894 789.037 C 183.555 793.369 181.218 798.329 179.005 802.78 C 171.928 800.227 135.79 783.591 128.912 779.801 C 130.813 773.784 131.374 772.698 135.303 767.958 z"/>
<path transform="translate(0,0)" fill="rgb(243,243,242)" d="M 359.28 500.629 C 373.443 508.716 375.232 512.036 386.413 523.81 C 391.994 523.879 398.557 524.315 404.107 524.212 C 418.802 524.098 449.269 557.969 446.203 570.983 C 441.231 592.085 411.513 618.967 394.127 630.928 C 383.506 630.746 369.676 637.847 364.76 636.337 C 335.905 626.878 305.233 624.328 275.213 628.893 C 307.443 589.049 335.606 546.081 359.28 500.629 z"/>
<path transform="translate(0,0)" fill="rgb(243,243,242)" d="M 154.274 701.97 C 183.32 672.096 226.838 651.732 267.692 644.875 C 299.929 639.465 327.698 642.486 358.989 650.38 C 356.415 657.513 355.56 662.264 354.096 669.623 C 345.044 667.459 332.729 664.78 323.538 663.889 C 306.481 662.238 289.416 661.432 272.455 664.828 C 219.998 673.594 193.645 691.082 156.807 727.253 C 155.783 719.045 155.374 710.615 154.274 701.97 z"/>
<path transform="translate(0,0)" fill="rgb(243,243,242)" d="M 465.801 605.867 C 473.039 612.91 490.003 666.949 493.693 678.996 C 486.513 688.969 481.028 698.201 474.807 708.787 C 470.266 703.878 464.085 698.261 459.173 693.549 C 450.293 685.594 440.102 677.843 430.579 670.599 L 430.939 669.776 C 438.067 653.114 434.778 653.443 419.053 647.173 C 437.256 632.634 448.976 621.908 465.801 605.867 z"/>
<path transform="translate(0,0)" fill="rgb(107,66,62)" d="M 801.769 866.147 C 821.566 864.91 851.148 865.661 871.597 865.695 L 996.731 865.898 L 1386.75 866.005 L 1610.06 865.937 L 1673.74 865.9 C 1680.94 865.891 1693.58 864.85 1700.02 866.006 C 1715.18 868.725 1715.1 884.875 1702.76 892.482 C 1694.89 893.724 1659.93 892.977 1649.61 892.957 L 1534.8 892.927 L 1119.22 893.025 L 894.667 892.965 L 836.502 893.012 C 828.358 893.063 817.816 894.155 809.932 892.999 C 792.019 890.373 783.645 877.211 801.769 866.147 z"/>
<path transform="translate(0,0)" fill="rgb(20,20,20)" d="M 1579.57 567.39 C 1583.8 566.592 1591.33 566.977 1595.62 567.103 C 1628.05 568.053 1657.08 589.788 1664.27 622.087 C 1668.25 640.321 1664.8 659.386 1654.7 675.078 C 1642.09 694.54 1625.03 701.917 1603.44 706.444 C 1561.98 711.084 1523.05 689.876 1516.57 646.369 C 1514.04 628.209 1518.84 609.79 1529.92 595.176 C 1541.86 579.482 1560.18 569.975 1579.57 567.39 z"/>
<path transform="translate(0,0)" fill="rgb(243,243,242)" d="M 1583.65 586.567 C 1611.71 582.643 1637.62 602.256 1641.46 630.327 C 1645.3 658.397 1625.61 684.251 1597.53 688.012 C 1569.57 691.757 1543.84 672.167 1540.01 644.212 C 1536.19 616.256 1555.7 590.475 1583.65 586.567 z"/>
<path transform="translate(0,0)" fill="rgb(20,20,20)" d="M 1691.18 570.235 C 1709.93 570.086 1744.58 567.312 1759.02 579.007 C 1779.86 595.88 1777.05 641.397 1745.07 645.269 L 1743.8 645.416 L 1743.17 646.605 C 1744.79 649.882 1752.67 660.396 1755.17 663.971 C 1764.45 677.112 1773.56 690.376 1782.5 703.759 C 1776.71 703.9 1759.88 704.972 1756.05 702.35 C 1743.78 687.606 1724.88 659.947 1714.05 643.492 C 1713.95 663.63 1714 683.769 1714.19 703.906 L 1691.09 703.886 L 1691.18 570.235 z"/>
<path transform="translate(0,0)" fill="rgb(243,243,242)" d="M 1714.41 590.105 C 1725.92 589.905 1737.54 588.708 1747.13 596.682 C 1755.38 603.538 1752.01 616.075 1745.78 623.091 C 1734.49 630.016 1727.3 629.106 1714.5 628.942 C 1714.28 616.16 1714.44 602.927 1714.41 590.105 z"/>
<path transform="translate(0,0)" fill="rgb(20,20,20)" d="M 1283.17 567.359 C 1288.03 569.443 1374.64 650.835 1384.37 660.093 L 1384.01 570.003 L 1406.19 570.038 L 1406.08 707.614 C 1405.69 707.845 1405.3 708.075 1404.91 708.305 C 1394.54 699.183 1385.71 689.331 1375.63 680.332 C 1351.64 658.924 1328.21 637.78 1304.83 615.686 C 1305.69 644.258 1305.18 675.068 1305.23 703.806 L 1283.24 703.805 L 1283.17 567.359 z"/>
<path transform="translate(0,0)" fill="rgb(20,20,20)" d="M 873.015 570.229 L 956.117 570.278 L 956.048 590.016 C 936.006 589.73 915.451 589.94 895.368 589.916 L 895.476 621.107 L 953.818 620.968 L 953.769 640.709 C 939.49 640.227 910.721 639.58 897.083 640.385 C 895.141 641.977 895.756 641.353 895.419 644.75 L 895.366 684.428 C 915.85 684.7 936.996 684.395 957.531 684.355 L 957.502 703.898 L 873.226 703.801 C 873.086 659.446 872.616 614.541 873.015 570.229 z"/>
<path transform="translate(0,0)" fill="rgb(20,20,20)" d="M 1175.84 569.976 C 1202.17 569.402 1230 569.874 1256.44 569.897 L 1256.34 589.066 L 1198.38 588.946 L 1198.41 621.757 L 1254.28 621.572 L 1254.26 640.722 C 1246.44 640.639 1204.07 639.559 1199.34 641.314 L 1198.73 643.75 L 1198.67 683.724 C 1216.56 684.366 1237.44 683.859 1255.55 683.825 L 1255.5 703.455 C 1229.4 702.915 1201.91 703.325 1175.69 703.301 L 1175.84 569.976 z"/>
<path transform="translate(0,0)" fill="rgb(20,20,20)" d="M 1099.1 567.42 C 1117.88 563.966 1131.26 574.704 1144.14 586.506 C 1140.04 591.733 1133.97 596.695 1128.92 601.152 C 1128.11 599.857 1127.23 598.601 1126.29 597.388 C 1117.66 586.161 1098 578.314 1092.41 598.918 C 1090.19 607.117 1110.07 621.62 1117.12 626.544 C 1139.98 642.515 1165.34 668.769 1139.73 695.482 C 1130.79 704.814 1116.6 707.139 1103.75 707.007 C 1084.3 703.814 1073.43 696.463 1064.03 678.715 C 1069.25 676.021 1075.15 672.18 1080.22 669.059 C 1084.64 675.644 1088.17 680.041 1094.54 684.959 C 1108.37 695.642 1137.47 682.59 1125.39 663.858 C 1112.22 643.45 1078.69 633.462 1071.9 609.014 C 1066.08 588.073 1079.25 572.498 1099.1 567.42 z"/>
<path transform="translate(0,0)" fill="rgb(20,20,20)" d="M 773.934 570.221 L 848.349 570.287 L 848.234 590.198 L 795.997 590.13 L 796.057 621.161 L 846.282 621.053 L 846.343 640.532 L 836.25 640.618 L 796.354 640.567 L 796.21 703.887 L 773.682 703.783 L 773.934 570.221 z"/>
<path transform="translate(0,0)" fill="rgb(20,20,20)" d="M 1422.96 569.597 L 1512.44 569.894 L 1512.63 588.155 L 1478.76 588.083 L 1479 669.5 L 1479 703.75 C 1471.44 703.586 1463.57 703.717 1455.98 703.732 L 1456.06 588.314 L 1422.98 588.325 L 1422.96 569.597 z"/>
<path transform="translate(0,0)" fill="rgb(20,20,20)" d="M 982.958 570.164 L 1005.09 570.061 L 1004.91 683.947 L 1053.18 684.189 L 1053.13 703.861 L 982.769 703.978 L 982.958 570.164 z"/>
<path transform="translate(0,0)" fill="rgb(20,20,20)" d="M 1270.58 751.541 C 1282.32 749.426 1294.28 753.778 1301.92 762.938 C 1309.55 772.098 1311.68 784.653 1307.48 795.814 C 1303.29 806.975 1293.42 815.022 1281.64 816.886 C 1263.7 819.724 1246.82 807.592 1243.79 789.683 C 1240.76 771.774 1252.71 754.763 1270.58 751.541 z"/>
<path transform="translate(0,0)" fill="rgb(243,243,242)" d="M 1269.71 759.421 C 1283.34 755.824 1297.29 763.973 1300.85 777.605 C 1302.57 784.207 1301.58 791.225 1298.08 797.085 C 1294.58 802.944 1288.88 807.155 1282.25 808.771 C 1268.68 812.08 1254.98 803.84 1251.54 790.304 C 1248.1 776.767 1256.21 762.988 1269.71 759.421 z"/>
<path transform="translate(0,0)" fill="rgb(20,20,20)" d="M 826.287 751.704 C 831.647 767.516 839.615 780.976 844.813 797.085 C 847.942 788.137 855.948 752.235 867.117 753.617 C 868.237 757.071 865.418 762.388 863.933 766.158 C 857.865 783.197 852.624 800.845 846.42 817.618 C 838.919 803.891 834.274 787.092 825.247 773.639 C 819.459 785.491 812.284 805.219 806.742 818.17 C 799.606 798.56 789.749 773.015 784.127 753.113 C 787.035 753.279 792.477 753.053 793.64 755.972 C 798.922 769.23 803.139 784.16 807.509 797.682 L 826.287 751.704 z"/>
<path transform="translate(0,0)" fill="rgb(20,20,20)" d="M 1142.2 753.028 L 1148.06 752.77 C 1153.23 755.635 1161.79 787.192 1164.69 795.006 C 1171.41 780.645 1177.42 764.14 1182.19 749.055 C 1187.84 764.667 1193.86 780.145 1200.23 795.478 C 1204.63 784.347 1209.92 764.14 1215.38 754.193 C 1217.88 752.599 1219.08 753.046 1222.06 753.328 L 1222.7 754.575 C 1222.29 759.544 1218.97 766.85 1217.05 771.752 C 1211.51 786.173 1206.14 802.023 1200.91 816.657 C 1196.17 807.086 1186.37 781.054 1182.88 770.755 C 1176.61 784.042 1169.43 802.679 1163.66 816.574 C 1157.01 794.902 1148.51 776.116 1142.2 753.028 z"/>
<path transform="translate(0,0)" fill="rgb(20,20,20)" d="M 1336.87 753.052 C 1348.21 752.872 1378.01 754.277 1370.06 777.168 C 1368.13 782.712 1359.99 785.172 1354.29 786.253 C 1356.99 789.839 1375.87 813.603 1376.46 815.035 C 1374.13 816.263 1370.1 815.641 1367.29 815.492 C 1359.67 806.17 1352.29 796.661 1345.14 786.971 C 1345.13 791.859 1345.74 812.236 1344.08 815.005 C 1340.82 815.308 1340.39 815.553 1337.61 814.125 C 1336.08 808.313 1336.84 762.602 1336.87 753.052 z"/>
<path transform="translate(0,0)" fill="rgb(243,243,242)" d="M 1345.13 759.768 C 1358.21 759.639 1368.01 765.618 1358.49 778.762 C 1354.01 781.178 1350.11 781.099 1345.1 781.417 L 1345.13 759.768 z"/>
<path transform="translate(0,0)" fill="rgb(20,20,20)" d="M 1624.26 751.238 C 1625.62 751.671 1626.28 752.107 1627.55 752.762 C 1630.97 758.616 1656.9 811.326 1656.5 814.611 C 1646.11 816.893 1644.56 806.945 1641.1 798.981 L 1624.75 798.783 L 1610.69 798.584 C 1608.6 803.952 1606.29 812.112 1601.63 815.154 C 1597.91 815.379 1597.5 816.087 1595.11 814.453 C 1596.72 808.789 1602.32 798.495 1605.1 792.832 C 1611.97 778.842 1618.75 765.901 1624.26 751.238 z"/>
<path transform="translate(0,0)" fill="rgb(243,243,242)" d="M 1626.23 766.654 C 1628.45 770.24 1635.45 786.537 1637.55 791.166 L 1626.79 791.718 L 1614.58 791.377 C 1618.27 783.047 1622.16 774.803 1626.23 766.654 z"/>
<path transform="translate(0,0)" fill="rgb(20,20,20)" d="M 1716.9 751.338 C 1725.24 750.88 1738.04 754.206 1744 760.266 C 1745.29 763.796 1745.33 762.384 1744.26 765.678 C 1741.24 767.314 1742.82 767.011 1739.36 766.554 C 1723.47 751.333 1700.18 758.681 1691.6 779.285 C 1693.85 825.452 1744.23 810.012 1741.64 792.797 C 1738.7 790.418 1739.74 791.15 1735.25 790.85 C 1730.8 790.996 1728.13 791.858 1725.25 789.477 C 1725.27 785.674 1724.64 786.334 1726.6 784.313 C 1730.91 783.522 1745.92 783.414 1749.78 784.671 C 1750.37 785.437 1751.3 786.676 1751.31 787.661 C 1751.99 827.055 1688.58 824.693 1684.08 789.813 C 1681.13 766.971 1695.83 754.213 1716.9 751.338 z"/>
<path transform="translate(0,0)" fill="rgb(20,20,20)" d="M 905.384 751.571 C 907.974 753.829 934.63 808.133 936.644 814.024 L 935.891 815.328 C 932.512 815.96 932.661 815.92 929.253 815.298 C 925.424 812.309 922.667 804.596 920.516 799.846 C 916.87 799.985 912.515 799.901 908.812 799.916 L 891.834 799.918 C 889.67 804.254 887.262 810.527 885.345 815.139 C 881.795 815.543 879.142 816.218 876.369 814.436 C 877.735 810.448 884.637 797.317 886.844 793.032 C 894.298 778.561 899.856 766.855 905.384 751.571 z"/>
<path transform="translate(0,0)" fill="rgb(243,243,242)" d="M 906.459 770.685 C 909.524 773.657 915.222 787.915 915.945 792.431 C 913.588 793.452 908.267 792.902 905.326 792.822 L 895.405 792.87 C 898.859 785.362 902.545 777.964 906.459 770.685 z"/>
<path transform="translate(0,0)" fill="rgb(20,20,20)" d="M 1072.03 752.839 C 1075.24 752.747 1075.81 752.588 1078.79 753.534 C 1082.53 758.25 1080.85 771.894 1080.8 779.162 L 1111.91 779.19 C 1111.81 772.323 1111.67 763.465 1111.76 756.475 C 1111.78 754.403 1113.67 753.829 1115.24 752.984 C 1118.59 753.4 1117.41 752.626 1119.24 754.785 C 1120.8 766.683 1119.91 801.149 1119.26 814.844 C 1119.22 815.78 1116.4 816.896 1115.17 817.538 L 1112.74 815.493 C 1111.13 809.952 1111.84 792.79 1111.96 786.191 L 1080.2 786.145 C 1080.18 791.157 1080.96 812.889 1078.88 815.224 C 1076.16 815.307 1074.89 815.643 1072.62 814.175 C 1071.06 808.269 1071.97 762.633 1072.03 752.839 z"/>
<path transform="translate(0,0)" fill="rgb(20,20,20)" d="M 1408.56 776.725 C 1413.69 771.691 1426.6 756.562 1431.46 753.461 C 1434.57 753.208 1437.27 752.676 1440.17 753.636 C 1437.29 757.819 1418.74 775.97 1414.09 780.658 C 1420.93 788.548 1427.86 796.371 1434.86 804.125 L 1446.6 815.847 C 1432.96 816.054 1431.82 812.162 1422.72 801.993 C 1417.92 796.636 1413.1 791.251 1408.15 786.03 C 1408.12 791.822 1409.14 811.978 1406.21 815.472 C 1402.42 815.239 1402.61 815.914 1400.61 813.909 C 1399.3 803.914 1400.68 765.506 1400.82 753.058 C 1403.78 752.977 1404.02 752.944 1406.89 753.502 C 1410.5 757.432 1408.63 770.303 1408.56 776.725 z"/>
<path transform="translate(0,0)" fill="rgb(20,20,20)" d="M 1027.84 752.214 C 1034.12 751.621 1046.11 753.212 1050.16 758.477 C 1050.98 762.439 1051.15 760.563 1049.62 764.307 C 1042.38 760.376 1035.84 757.936 1027.35 759.689 C 1020.51 761.105 1014.56 765.276 1010.89 771.219 C 1002.66 784.659 1008.22 800.294 1021.67 807.403 C 1027.94 810.712 1035.59 809.176 1042.01 807.282 C 1044.88 805.287 1045.23 804.912 1048.49 803.877 L 1050.32 805.053 L 1050.5 807.616 C 1043.85 820.523 1025.41 817.653 1014.76 812.033 C 1007.38 808.2 1001.86 801.53 999.483 793.554 C 997.123 785.605 998.068 777.041 1002.1 769.799 C 1007.95 759.33 1016.84 755.226 1027.84 752.214 z"/>
<path transform="translate(0,0)" fill="rgb(20,20,20)" d="M 1478.36 752.156 C 1484.71 752.14 1496.11 754.286 1498.75 760.968 C 1489.25 767.694 1481.89 752.362 1471.99 762.356 C 1470.51 775.473 1510.92 789.223 1497.27 807.857 C 1492.18 814.799 1487.88 815.596 1479.92 816.596 C 1472.15 814.863 1465.76 811.28 1461.88 804.063 L 1462.89 801.677 C 1471.02 800.171 1482.52 818.532 1491.94 802.958 C 1493.71 789.273 1468.16 781.289 1464.47 768.593 C 1461.77 759.318 1470.79 754.433 1478.36 752.156 z"/>
<path transform="translate(0,0)" fill="rgb(20,20,20)" d="M 945.831 754.129 C 951.782 754.115 980.468 752.879 983.429 755.385 C 983.599 759.088 984.047 757.838 982.247 760.694 C 979.026 762.193 973.606 761.447 969.779 761.277 L 969.54 804.25 C 969.609 808.259 970.195 812.642 967.968 815.592 C 964.45 815.411 963.421 816.046 961.465 814.238 C 959.984 807.099 960.742 770.508 960.774 761.098 C 955.673 761.042 953.182 761.92 947.98 760.791 C 945.242 758.251 946.11 759.156 945.831 754.129 z"/>
</svg>