<svg version="1.1" xmlns="http://www.w3.org/2000/svg" style="display: block;" viewBox="0 0 2048 2048" width="1024" height="1024" preserveAspectRatio="none">
<defs>
	<linearGradient id="Gradient1" gradientUnits="userSpaceOnUse" x1="1447.12" y1="1388.76" x2="1482" y2="1375.57">
		<stop class="stop0" offset="0" stop-opacity="1" stop-color="rgb(125,123,125)"/>
		<stop class="stop1" offset="1" stop-opacity="1" stop-color="rgb(149,148,148)"/>
	</linearGradient>
	<linearGradient id="Gradient2" gradientUnits="userSpaceOnUse" x1="828.985" y1="1299.94" x2="829.052" y2="1307.05">
		<stop class="stop0" offset="0" stop-opacity="1" stop-color="rgb(136,136,136)"/>
		<stop class="stop1" offset="1" stop-opacity="1" stop-color="rgb(172,170,171)"/>
	</linearGradient>
</defs>
<path transform="translate(0,0)" fill="rgb(250,250,249)" d="M 0 0 L 2048 0 L 2048 2048 L 0 2048 L 0 0 z"/>
<path transform="translate(0,0)" fill="rgb(149,149,148)" d="M 1245.5 257.956 C 1260.87 267.616 1290.18 297.611 1304.65 310.339 C 1310.34 305.451 1317.18 298.531 1322.72 293.25 C 1460.88 380.056 1586.72 504.237 1688.57 630.619 C 1682.89 637.261 1674.49 645.128 1668.14 651.411 C 1687.32 668.906 1711.27 688.901 1729.24 706.501 C 1664.05 762.542 1610.99 914.4 1594.19 998.067 C 1592.48 1006.59 1589.65 1032.51 1592.12 1041.07 C 1598.73 1063.98 1636.32 1058.44 1637.51 1088.88 C 1640.37 1120.77 1626.03 1164.47 1610.98 1192.07 C 1602.39 1207.82 1565.62 1208.86 1548.68 1211.41 C 1537.45 1234.29 1525.79 1256.96 1513.7 1279.4 C 1528.71 1291.71 1543.31 1299.18 1557.65 1314.08 C 1620.2 1379.04 1547.26 1497.4 1465.84 1495.92 C 1432.9 1495.32 1405.23 1465.78 1384.34 1442.56 C 1359.22 1459.88 1340.63 1476.17 1313.52 1493.04 C 1319.04 1510.87 1328.59 1525 1326.47 1544.42 C 1322.8 1576.44 1299.23 1583.27 1275.98 1594.86 C 1219.14 1623.21 1203.12 1624.92 1163.55 1574.17 C 1155.27 1576.02 1140.28 1581.18 1131.74 1583.87 C 1056.26 1607.84 986.165 1646.25 925.344 1696.96 C 889.859 1726.44 870.497 1746.03 839.019 1779.31 C 823.775 1764.94 798.597 1742.83 782.419 1730.2 L 792.638 1698.56 C 780.779 1710.23 773.502 1724.04 761.571 1734.97 C 757.316 1738.62 751.445 1735.24 747.697 1732.64 C 734.503 1723.5 721.623 1713.2 708.968 1703.35 C 603.68 1622.73 505.082 1533.74 414.135 1437.23 C 406.639 1429.19 381.491 1403.54 377.29 1394.88 C 376.786 1388.15 383.586 1381.09 387.866 1374.87 C 365.824 1365.43 339.216 1347.63 324.037 1328.26 C 321.76 1325.35 320.591 1320.82 321.982 1317.28 C 326.911 1304.72 335.117 1292.64 341.07 1280.23 C 354.771 1251.69 367.174 1222.54 378.241 1192.87 C 387.047 1168.66 395.311 1144.26 403.026 1119.67 C 405.942 1110.5 414.033 1086.32 414.66 1077.48 C 415.731 1062.39 413.95 1042.8 414.68 1026.83 C 416.246 992.544 419.796 956.006 426.592 922.407 C 469.54 703.977 620.485 522.31 827.353 440.078 C 860.982 426.981 895.692 416.852 931.088 409.81 C 952.111 405.41 969.35 404.963 989.592 397.292 C 1084.64 361.271 1161.69 313.645 1245.5 257.956 z"/>
<path transform="translate(0,0)" fill="rgb(250,250,249)" d="M 1040.67 427.475 C 1167.17 427.858 1298.3 474.875 1391.31 561.769 C 1508.38 671.141 1557.66 803.952 1562.68 962.004 C 1567.8 1123.65 1503.49 1272.48 1393.56 1389.26 C 1282.13 1506 1129.07 1573.95 967.75 1578.29 C 834.65 1579.77 706.19 1529.44 609.519 1437.94 C 507.094 1339.26 447.489 1196.82 445.008 1055.04 C 440.973 890.842 502.888 731.869 616.915 613.65 C 732.705 494.034 874.429 430.318 1040.67 427.475 z"/>
<path transform="translate(0,0)" fill="rgb(149,149,148)" d="M 1011.56 472.456 C 1131.05 465.896 1248.52 505.363 1339.81 582.744 C 1445.45 673.431 1499.35 792.719 1509.59 930.746 C 1518.55 1046.85 1490.45 1162.81 1429.32 1261.93 C 1413.56 1287.16 1391.17 1316 1371.64 1338.59 C 1274.14 1449.66 1136.69 1517.69 989.245 1527.84 C 986.13 1528.08 983.012 1528.3 979.891 1528.47 C 959.221 1529.66 933.598 1528.38 912.905 1526.38 C 812.725 1517.35 718.245 1475.81 643.858 1408.1 C 548.608 1322.72 496.055 1192.44 489.358 1066.27 C 480.913 914.15 533.599 764.963 635.699 651.884 C 732.117 544.439 867.389 479.863 1011.56 472.456 z"/>
<path transform="translate(0,0)" fill="rgb(250,250,249)" d="M 1013.73 505.425 C 1014.09 505.389 1014.46 505.353 1014.82 505.317 C 1122.3 500.501 1233.77 534.481 1316.25 603.588 C 1414.18 685.644 1467.1 798.164 1477.99 924.098 C 1491.42 1063.48 1447.95 1202.37 1357.46 1309.22 C 1287.84 1391.75 1189.05 1453.37 1084.51 1480.42 C 1052.15 1488.8 1024.58 1492.08 991.418 1494.9 C 974.883 1495.47 958.957 1496.01 942.399 1495.33 C 704.586 1485.57 540.143 1304.09 523.476 1069.91 C 514.459 930.002 560.386 792.091 651.487 685.519 C 747.429 575.444 868.62 515.346 1013.73 505.425 z"/>
<path transform="translate(0,0)" fill="rgb(149,149,148)" d="M 932.79 1110.53 C 947.836 1109.92 964.282 1110.07 979.436 1109.92 C 983.968 1119.59 991.222 1129.07 996.671 1138.31 C 1011.29 1163.12 1017.95 1202.89 1009.96 1230.74 C 1000 1265.48 961.945 1309.44 930.293 1327.07 C 892.168 1348.31 852.933 1348.5 811.787 1337.2 C 793.192 1331.33 780.143 1326.01 765.767 1312.25 C 739.785 1287.29 724.738 1253.07 723.912 1217.06 C 723.115 1181.54 734.473 1150.65 759.637 1125.72 C 763.665 1121.73 770.762 1114.93 776.14 1113.73 C 792.011 1110.17 812.758 1111.67 829.216 1111.49 L 932.79 1110.53 z"/>
<path transform="translate(0,0)" fill="rgb(250,250,249)" d="M 823.241 1118.46 C 826.579 1115.57 824.772 1116.29 828.558 1115.47 C 834.52 1119.05 845.433 1116.79 852.863 1116.86 C 878.301 1117.11 903.698 1117.17 929.101 1116.24 C 937.674 1115.92 969.432 1113.59 975.222 1115.5 C 972.613 1117.01 946.099 1116.94 939.918 1117.77 C 949.576 1124.71 957.77 1133.49 964.033 1143.6 C 964.108 1145.51 964.381 1144.85 963.918 1145.73 C 964.851 1148.22 965.42 1150.55 967.254 1152.4 L 968.026 1151.51 L 970.288 1150.78 L 968.821 1150.28 L 970.364 1150.85 L 972.547 1155.05 C 971.378 1156.07 971.949 1155.83 971.015 1156.09 L 971.562 1157.86 C 975.544 1170.46 986.291 1193.41 980.499 1208.04 C 985.311 1213.35 983.529 1219.3 981.623 1225.97 L 979.842 1226.56 C 975.932 1237.86 970.943 1248.76 964.945 1259.11 C 964.11 1260.58 964.43 1259.93 963.8 1261.57 C 963.131 1266.68 955.564 1274.57 950.318 1275.84 C 931.756 1295.02 925.511 1293.85 907.57 1306.07 C 904.646 1307.47 903.885 1307.87 900.691 1308.82 C 897.87 1307.74 897.088 1306.52 895.04 1304.32 C 890.329 1305.05 892.161 1307.88 890.82 1311.47 C 872.218 1314.95 855.246 1314.65 836.65 1312.04 C 832.761 1311.87 827.009 1311.3 824.178 1308.5 L 825.794 1307 C 824.436 1303.85 824.694 1303.8 821.956 1301.85 C 820.864 1304.08 821.67 1303.16 819.465 1304.54 C 805.971 1301.6 795.443 1289.93 784.737 1283.18 L 783.054 1282.14 L 781.308 1282 C 776.662 1277.98 770.314 1273.03 771.095 1266.43 C 762.61 1257.77 758.545 1233.68 756.641 1222.05 L 765.042 1221.65 C 767.247 1221.23 766.462 1221.46 768.441 1220.23 C 769.802 1215.89 768.751 1211.62 768.169 1206.97 L 755.743 1206.19 C 759.438 1186.29 762.796 1177.15 772.153 1158.93 L 773.415 1159.51 L 775.267 1160.35 C 778.621 1161.9 779.405 1162.85 783.056 1162.08 C 786.414 1159.71 786.954 1157.15 788.693 1153.17 C 787.386 1149.22 785.944 1149.38 782.124 1147.4 C 783.771 1141.72 816.316 1118.67 823.241 1118.46 z"/>
<path transform="translate(0,0)" fill="rgb(128,127,127)" d="M 823.241 1118.46 C 826.579 1115.57 824.772 1116.29 828.558 1115.47 C 834.52 1119.05 845.433 1116.79 852.863 1116.86 C 878.301 1117.11 903.698 1117.17 929.101 1116.24 C 937.674 1115.92 969.432 1113.59 975.222 1115.5 C 972.613 1117.01 946.099 1116.94 939.918 1117.77 C 908.773 1118.74 870.833 1116.96 840.639 1119.2 L 839.544 1120.65 L 837.263 1123.59 C 835.246 1126.19 835.061 1126.65 831.891 1127.85 L 829.831 1127.57 C 827.751 1124.76 825.307 1121.04 823.241 1118.46 z"/>
<path transform="translate(0,0)" fill="rgb(128,127,127)" d="M 771.095 1266.43 C 774.978 1264.11 778.887 1261.84 782.824 1259.61 C 788.229 1268.4 792.191 1272.19 781.998 1279.41 C 782.301 1280.2 782.725 1281.38 783.054 1282.14 L 781.308 1282 C 776.662 1277.98 770.314 1273.03 771.095 1266.43 z"/>
<path transform="translate(0,0)" fill="rgb(149,149,148)" d="M 971.013 1208.41 C 975.206 1207.01 976.108 1206.81 980.499 1208.04 C 985.311 1213.35 983.529 1219.3 981.623 1225.97 L 979.842 1226.56 L 979.77 1224.48 C 968.725 1221.68 965.42 1220.71 971.013 1208.41 z"/>
<path transform="translate(0,0)" fill="rgb(97,97,99)" d="M 971.013 1208.41 C 975.206 1207.01 976.108 1206.81 980.499 1208.04 C 985.311 1213.35 983.529 1219.3 981.623 1225.97 L 979.842 1226.56 L 979.77 1224.48 C 980.87 1218.54 982.103 1217.64 980.149 1212.86 L 980.458 1214.82 C 977.983 1209.37 976.218 1209.52 971.013 1208.41 z"/>
<path transform="translate(0,0)" fill="url(#Gradient2)" d="M 822.947 1298.11 L 824.018 1295.73 C 836.803 1294.3 839.059 1301.2 836.65 1312.04 C 832.761 1311.87 827.009 1311.3 824.178 1308.5 L 825.794 1307 C 824.436 1303.85 824.694 1303.8 821.956 1301.85 L 822.947 1298.11 z"/>
<path transform="translate(0,0)" fill="rgb(97,97,99)" d="M 822.947 1298.11 L 824.018 1295.73 C 836.803 1294.3 839.059 1301.2 836.65 1312.04 C 832.761 1311.87 827.009 1311.3 824.178 1308.5 L 825.794 1307 C 829.572 1309.64 831.415 1310.27 835.345 1308.13 C 838.99 1300.08 829.818 1297.85 824.185 1298.98 L 822.947 1298.11 z"/>
<path transform="translate(0,0)" fill="rgb(97,97,99)" d="M 952.152 1153.39 C 955.714 1149.75 957.184 1148.03 961.542 1145.17 L 963.918 1145.73 C 964.851 1148.22 965.42 1150.55 967.254 1152.4 L 968.026 1151.51 L 970.288 1150.78 L 968.821 1150.28 L 970.364 1150.85 L 972.547 1155.05 C 971.378 1156.07 971.949 1155.83 971.015 1156.09 C 967.587 1156.79 963.135 1161.37 960.421 1163.8 C 957.206 1160.31 954.966 1157.18 952.152 1153.39 z"/>
<path transform="translate(0,0)" fill="rgb(97,97,99)" d="M 888.616 1299.02 C 891.081 1298.11 893.556 1297.22 896.04 1296.37 C 900.391 1294.89 900.902 1294.78 904.691 1296.63 C 906.941 1299.56 906.965 1302.36 907.57 1306.07 C 904.646 1307.47 903.885 1307.87 900.691 1308.82 C 897.87 1307.74 897.088 1306.52 895.04 1304.32 C 890.329 1305.05 892.161 1307.88 890.82 1311.47 C 889.73 1307.39 889.238 1303.21 888.616 1299.02 z"/>
<path transform="translate(0,0)" fill="rgb(171,171,171)" d="M 900.124 1297.03 L 901.712 1296.86 C 904.82 1299.3 905.466 1304.24 902.216 1306.96 C 899.672 1305.23 900.8 1306.31 899.568 1302.72 L 899.806 1301.63 C 896.078 1301.73 895.361 1301.74 891.707 1301.21 C 893.782 1298.79 896.862 1298.21 900.124 1297.03 z"/>
<path transform="translate(0,0)" fill="rgb(128,127,127)" d="M 950.318 1275.84 C 946.633 1274.42 945.973 1274.91 944.13 1272.23 C 947.863 1256.78 959.256 1263.47 963.8 1261.57 C 963.131 1266.68 955.564 1274.57 950.318 1275.84 z"/>
<path transform="translate(0,0)" fill="rgb(128,127,127)" d="M 861.386 1188.09 C 876.293 1187.05 883.215 1194.44 887.1 1208.16 C 885.422 1214.79 884.425 1217.48 881.018 1223.35 C 884.745 1231.47 904.668 1268.18 900.955 1273.7 L 898.639 1273.83 L 896.018 1271.17 C 889.224 1259.07 880.805 1239.73 875.116 1226.79 C 864.007 1229.79 852.84 1228.38 847.199 1216.97 C 844.801 1212.24 844.494 1206.71 846.351 1201.74 C 849.239 1193.89 854.386 1191.44 861.386 1188.09 z"/>
<path transform="translate(0,0)" fill="rgb(250,250,249)" d="M 865.013 1195.22 C 872.464 1194.58 879.036 1200.07 879.726 1207.52 C 880.417 1214.97 874.967 1221.58 867.525 1222.32 C 860.012 1223.06 853.328 1217.55 852.631 1210.03 C 851.934 1202.51 857.491 1195.87 865.013 1195.22 z"/>
<path transform="translate(0,0)" fill="rgb(97,97,99)" d="M 788.693 1153.17 C 785.562 1151.06 785.413 1151.09 782.027 1149.89 C 777.945 1150.52 778.952 1150.62 775.255 1153.74 L 774.295 1153.66 C 776.41 1150.05 777.708 1147.31 782.124 1147.4 C 785.944 1149.38 787.386 1149.22 788.693 1153.17 z"/>
<path transform="translate(0,0)" fill="rgb(171,171,171)" d="M 756.641 1222.05 C 756.07 1218.74 755.092 1212.77 756.897 1209.83 C 757.817 1214.24 758.063 1215.57 757.65 1220.02 C 759.123 1221.56 762.272 1221.33 765.042 1221.65 L 756.641 1222.05 z"/>
<path transform="translate(0,0)" fill="rgb(171,171,171)" d="M 775.19 1156.15 L 776.162 1155.68 C 778.798 1156.9 781.308 1157.71 783.166 1159.85 C 779.821 1160.66 775.803 1160.06 775.19 1156.15 z"/>
<path transform="translate(0,0)" fill="rgb(9,8,8)" d="M 1260.12 891.484 C 1293.58 887.684 1323.71 911.911 1327.18 945.405 C 1330.65 978.898 1306.13 1008.79 1272.61 1011.93 C 1239.54 1015.04 1210.15 990.925 1206.72 957.892 C 1203.3 924.859 1227.12 895.232 1260.12 891.484 z"/>
<path transform="translate(0,0)" fill="rgb(250,250,249)" d="M 1259.62 909.654 C 1282.83 905.542 1305.02 920.898 1309.36 944.071 C 1313.69 967.245 1298.55 989.583 1275.42 994.137 C 1251.97 998.752 1229.26 983.358 1224.87 959.87 C 1220.48 936.383 1236.09 913.823 1259.62 909.654 z"/>
<path transform="translate(0,0)" fill="rgb(9,8,8)" d="M 1336.63 893.091 C 1358.24 892.838 1393.05 888.526 1404.15 911.13 C 1413.86 930.901 1406.93 949.866 1388.05 959.699 C 1395.91 976.078 1407.49 996.6 1416.1 1013.09 L 1397.37 1013.24 L 1393.33 1005.56 C 1385.24 991.228 1377.05 976.952 1368.76 962.734 L 1353.79 962.684 L 1353.76 1011.41 C 1347.91 1011.54 1341.74 1011.45 1335.86 1011.46 C 1336.59 971.991 1336.19 932.547 1336.63 893.091 z"/>
<path transform="translate(0,0)" fill="rgb(250,250,249)" d="M 1353.91 909.857 C 1359.33 909.725 1365.01 909.485 1370.4 909.785 C 1390.65 910.911 1396.72 925.362 1385.82 941.697 C 1375.81 948.605 1365.86 947.149 1353.9 947.046 L 1353.91 909.857 z"/>
<path transform="translate(0,0)" fill="rgb(9,8,8)" d="M 1109.54 892.974 L 1126.96 892.912 L 1127.58 1012.8 C 1120.92 1010.49 1101 988.172 1094.88 982.037 C 1078.12 965.478 1061.26 949.026 1044.29 932.681 C 1045.39 956.953 1044.83 985.654 1044.87 1010.24 L 1026.24 1010.55 C 1026.83 986.598 1027.03 962.64 1026.83 938.684 C 1026.71 925.466 1025.81 905.026 1026.88 892.436 C 1036.17 897.3 1096.95 960.552 1109.71 973.241 C 1108.69 946.84 1109.29 919.454 1109.54 892.974 z"/>
<path transform="translate(0,0)" fill="rgb(149,149,148)" d="M 903.261 656.73 L 942.236 781.474 C 948.422 800.784 964.406 846.612 967.325 864.537 C 964.757 868.564 963.263 870.179 960.061 873.808 C 946.792 884.609 928.003 882.671 925.037 864.232 C 921.721 843.614 920.266 822.184 917.713 801.337 L 908.221 720.56 C 906.12 701.703 903.163 675.47 903.261 656.73 z"/>
<path transform="translate(0,0)" fill="rgb(9,8,8)" d="M 698.948 892.989 L 773.002 893.011 L 773.014 908.915 C 754.315 908.857 735.616 908.893 716.917 909.022 L 716.858 941.956 L 767.008 941.952 L 767.007 957.247 C 755.419 957.639 727.511 956.367 717.869 957.85 L 716.825 959.801 L 716.952 993.783 C 736.145 994.029 755.79 993.881 775.016 993.924 L 774.987 1010.01 C 749.879 1010.45 724.137 1010.22 698.978 1010.26 L 698.948 892.989 z"/>
<path transform="translate(0,0)" fill="rgb(9,8,8)" d="M 942.031 893.047 L 1014.19 893.054 L 1014.17 908.988 L 958.296 909.106 C 958.234 919.832 958.345 930.558 958.627 941.28 L 1006.97 941.307 L 1006.9 956.891 C 995.7 956.83 970.272 956.065 960.076 957.215 C 958.434 959.16 959.008 959.528 958.865 962.75 L 958.947 993.819 L 1015.62 993.712 L 1015.68 1010.09 L 941.174 1010.41 C 941.753 971.29 942.038 932.169 942.031 893.047 z"/>
<path transform="translate(0,0)" fill="rgb(9,8,8)" d="M 887.937 891.205 C 889.246 891.083 890.558 890.989 891.871 890.924 C 907.051 890.218 915.85 896.419 926.588 905.989 C 922.288 911.82 920.827 913.664 915.575 918.66 C 906.434 911.707 889.72 903.18 881.263 913.241 C 854.802 944.721 935.131 941.018 933.222 975.618 C 931.519 1006.48 915.666 1011.43 890.824 1013.13 C 874.834 1011.3 864.987 1005.19 854.471 993.677 C 860.009 988.504 862.637 986.885 869.062 982.747 C 878.335 998.295 905.442 1002.16 913.552 987.369 C 926.03 964.615 883.977 958.574 872.963 951.293 C 845.087 932.866 856.268 898.144 887.937 891.205 z"/>
<path transform="translate(0,0)" fill="rgb(9,8,8)" d="M 619.302 892.912 L 690.014 892.979 L 689.814 909.009 C 672.69 909.399 654.62 909.161 637.42 909.215 L 637.539 941.941 L 684.613 941.821 L 684.507 957.289 C 669.041 957.71 652.526 957.505 636.977 957.586 L 636.992 1010.17 C 631.136 1010.47 624.988 1010.54 619.101 1010.69 L 619.302 892.912 z"/>
<path transform="translate(0,0)" fill="rgb(149,149,148)" d="M 1289.35 1191.05 C 1292.05 1190.92 1294.59 1190.9 1297.23 1191.53 C 1304.01 1193.14 1355.98 1236.88 1360.26 1243.95 C 1362.88 1248.28 1364.05 1253.12 1362.63 1258.07 C 1360.81 1264.39 1353.53 1268.89 1347.99 1271.43 C 1345.08 1271.53 1341.69 1271.39 1338.91 1270.47 C 1328.51 1267.03 1281 1226.97 1276.24 1216.99 C 1274.02 1212.33 1273.48 1207.09 1275.51 1202.27 C 1278.14 1196.06 1283.5 1193.55 1289.35 1191.05 z"/>
<path transform="translate(0,0)" fill="rgb(149,149,148)" d="M 1132.15 1329.11 C 1144.06 1328.05 1152.95 1333.25 1156.03 1344.29 C 1162.97 1369.19 1202.59 1406.08 1169.15 1422.86 C 1142.48 1425.6 1139.47 1394.92 1128.05 1374.91 C 1117.81 1356.95 1110.79 1341.21 1132.15 1329.11 z"/>
<path transform="translate(0,0)" fill="rgb(149,149,148)" d="M 948.214 1368.99 C 959.989 1368.78 963.391 1373.26 968.99 1382.53 C 969.524 1397.29 966.934 1442.86 961.675 1457.45 C 959.706 1462.91 954.322 1465.54 949.139 1467.5 C 947.498 1467.37 945.918 1467.2 944.304 1466.86 C 938.539 1465.64 932.408 1462.82 929.335 1457.53 C 925.145 1450.3 931.14 1390.67 934.676 1380.56 C 936.875 1374.28 942.489 1371.52 948.214 1368.99 z"/>
<path transform="translate(0,0)" fill="rgb(149,149,148)" d="M 672.224 696.193 C 692.654 695.078 708.599 722.499 724.489 733.588 C 740.063 744.457 750.208 764.385 725.707 772.982 C 723.001 773.014 720.378 772.992 717.801 772.06 C 706.077 767.82 662.842 730.775 658.469 719.905 C 656.743 715.616 656.358 710.565 658.454 706.331 C 661.241 700.7 666.545 698.083 672.224 696.193 z"/>
<path transform="translate(0,0)" fill="rgb(149,149,148)" d="M 1415.89 821.079 C 1430.2 819.827 1435.49 826.32 1439.25 839.351 C 1438.44 842.954 1437.74 846.815 1435.92 850.071 C 1430.9 859.036 1382.07 876.348 1370.21 880.048 C 1349.54 884.966 1335.83 855.965 1362.54 844.043 C 1379.65 836.409 1398.48 828.389 1415.89 821.079 z"/>
<path transform="translate(0,0)" fill="rgb(149,149,148)" d="M 1293.39 643.205 C 1309.79 645.45 1317.49 658.365 1307.05 672.366 C 1294.22 689.584 1276.24 706.587 1260.51 721.197 C 1259.13 722.476 1254.39 723.637 1252.46 724.1 C 1217.58 720.927 1241.21 686.928 1255.85 675.116 C 1267.49 665.729 1277.51 646.435 1293.39 643.205 z"/>
<path transform="translate(0,0)" fill="rgb(9,8,8)" d="M 1132.79 892.861 L 1214.85 893 L 1214.92 909.461 L 1181.86 909.367 L 1181.85 979.804 L 1181.89 1010.86 L 1164.45 1010.84 L 1164.78 909.61 L 1132.84 909.398 L 1132.79 892.861 z"/>
<path transform="translate(0,0)" fill="rgb(149,149,148)" d="M 1084.14 543.151 C 1087.23 542.877 1090.95 542.436 1093.97 543.197 C 1097.8 544.149 1101.09 546.601 1103.09 550.003 C 1111.81 564.602 1090.65 605.776 1084.85 621.552 C 1082.6 627.669 1077.64 632.047 1072.09 635.339 C 1035.41 641.136 1060.16 589.283 1065.41 573.542 C 1069.41 561.532 1072.59 549.738 1084.14 543.151 z"/>
<path transform="translate(0,0)" fill="rgb(149,149,148)" d="M 633.625 1130.31 C 637.822 1130.81 642.379 1131.6 645.525 1134.66 C 663.324 1151.99 643.801 1165.52 627.875 1171.94 C 615.558 1176.9 599.112 1187.06 586.245 1188.43 C 584.585 1187.96 582.953 1187.39 581.358 1186.73 C 546.409 1171.89 586.475 1147.31 603.997 1142.55 C 613.004 1140.1 623.271 1132.68 633.625 1130.31 z"/>
<path transform="translate(0,0)" fill="rgb(9,8,8)" d="M 787.914 893.347 L 804.981 893.301 L 805.04 993.435 C 821.511 993.329 837.983 993.354 854.454 993.511 L 854.575 1010.23 C 832.202 1010.39 809.829 1010.37 787.458 1010.16 C 789.006 972.751 787.375 931.361 787.914 893.347 z"/>
<path transform="translate(0,0)" fill="rgb(9,8,8)" d="M 1026.57 1093.1 C 1012.95 1086.42 1006.66 1070.47 1012.06 1056.3 C 1017.46 1042.13 1032.77 1034.41 1047.38 1038.48 C 1061.98 1042.56 1071.08 1057.1 1068.36 1072.02 C 1065.63 1086.94 1051.99 1097.32 1036.89 1095.98 C 1033.3 1095.66 1029.8 1094.68 1026.57 1093.1 z"/>
<path transform="translate(0,0)" fill="rgb(250,250,249)" d="M 1037.28 1046.23 C 1048.38 1045.01 1058.42 1052.9 1059.84 1063.98 C 1061.27 1075.05 1053.55 1085.23 1042.51 1086.85 C 1035.18 1087.92 1027.85 1084.96 1023.32 1079.1 C 1018.8 1073.24 1017.79 1065.4 1020.68 1058.58 C 1023.58 1051.77 1029.93 1047.05 1037.28 1046.23 z"/>
<path transform="translate(0,0)" fill="rgb(149,149,148)" d="M 858.879 567.122 C 879.014 566.79 882.321 580.414 886.41 598.285 C 890.028 614.095 902.355 644.653 881.876 652.133 C 861.592 651.354 860.496 629.681 854.83 612.869 C 849.204 596.177 839.404 577.247 858.879 567.122 z"/>
<path transform="translate(0,0)" fill="rgb(149,149,148)" d="M 747.204 1317.94 C 763.339 1315.64 772.853 1332.43 766.387 1344.67 C 760.357 1356.08 737.21 1379.39 725.94 1384.01 C 700.135 1384.06 698.979 1364.61 714.413 1349.06 C 723.684 1339.72 736.439 1324.96 747.204 1317.94 z"/>
<path transform="translate(0,0)" fill="rgb(149,149,148)" d="M 1026.57 1093.1 C 1029.8 1094.68 1033.3 1095.66 1036.89 1095.98 C 1037.88 1099.17 1058.18 1127.76 1061.48 1132.67 L 1152.33 1265.55 C 1165.22 1284.31 1178.34 1302.9 1191.25 1321.64 C 1193.58 1325.01 1197.81 1333.5 1194.85 1337.21 C 1194.6 1337.15 1194.33 1337.14 1194.1 1337.04 C 1184.52 1333.06 1071.43 1160.74 1057.34 1139.68 C 1047.08 1124.35 1035.02 1109.49 1026.57 1093.1 z"/>
<path transform="translate(0,0)" fill="rgb(9,8,8)" d="M 1088.82 1038.48 C 1100.93 1037.97 1117.27 1037.05 1122.41 1050.77 C 1126.01 1060.37 1117.83 1068.45 1109.49 1071.37 C 1112.77 1076.11 1123.22 1088.51 1123.77 1093.56 C 1120.45 1094.82 1117.67 1094.5 1115.02 1092.37 C 1108.88 1083.79 1103.3 1075.82 1095.88 1068.29 C 1095.64 1075.18 1095.39 1081.16 1095.91 1088.06 C 1096.19 1091.72 1095.82 1091.83 1094 1093.67 C 1090.41 1093.86 1090.59 1094.42 1087.87 1092.94 C 1086.85 1087.99 1086.66 1040.97 1088.82 1038.48 z"/>
<path transform="translate(0,0)" fill="rgb(250,250,249)" d="M 1095.44 1046.17 C 1106.93 1046.71 1117.71 1047.45 1111.03 1062.43 C 1105.77 1064.57 1100.38 1066.29 1096.15 1062.16 C 1094.42 1057.44 1095.22 1051.39 1095.44 1046.17 z"/>
<path transform="translate(0,0)" fill="rgb(9,8,8)" d="M 616.232 1038.36 C 617.802 1038.24 622.444 1037.79 623.019 1038.49 C 626.938 1043.26 636.606 1068.82 638.721 1074.04 C 641.929 1063.89 648.673 1048.9 652.806 1038.47 C 658.707 1050.18 663.02 1062.21 667.648 1074.45 C 670.753 1066.66 673.816 1058.81 677.057 1051.08 C 679.342 1045.64 682.355 1034.74 690.398 1039.13 C 690.117 1043.49 686.922 1049.86 685.108 1054.14 C 679.473 1067.46 672.065 1082.45 667.517 1095.97 C 662.321 1083.84 658.875 1071.45 653.176 1058.53 C 647.449 1070.28 643.612 1082.26 637.21 1094.62 C 634.014 1086.4 616.719 1044.13 616.232 1038.36 z"/>
<path transform="translate(0,0)" fill="rgb(9,8,8)" d="M 925.995 1038.33 C 927.518 1038.24 931.084 1037.93 932.114 1038.61 C 938.664 1042.97 946.184 1066.4 949.043 1073.52 C 953.003 1065.56 958.04 1052.96 961.835 1044.42 C 966.744 1053.09 971.811 1064.01 976.291 1073.07 C 980.365 1063.44 985.672 1048.78 990.789 1040.37 C 994.349 1038.45 993.511 1039.09 998.118 1039.15 L 998.931 1040.25 C 998.044 1045.51 993.967 1053.55 991.602 1058.75 C 986.095 1071.82 981.766 1083.05 977.721 1096.62 C 972.692 1086.11 967.676 1074.18 962.871 1063.43 C 958.268 1072.07 953.051 1085.68 948.798 1095.11 C 945.2 1088 927.038 1044.17 925.995 1038.33 z"/>
<path transform="translate(0,0)" fill="rgb(9,8,8)" d="M 1377.23 1038.17 C 1386.57 1037.08 1401.08 1037.4 1405.19 1047.59 C 1404.62 1051.91 1405.48 1050.15 1403.03 1053.26 C 1396.99 1054.54 1397.98 1045.15 1384.38 1045.73 C 1378.35 1046.01 1372.72 1048.79 1368.83 1053.41 C 1347.91 1078.15 1389.18 1099.85 1403.25 1078.65 C 1403.3 1075.29 1403.82 1076.7 1401.85 1074.21 C 1397.24 1073.68 1392.86 1073.54 1388.23 1073.33 C 1386.83 1070.55 1386.97 1069.47 1387.51 1067.14 C 1390.96 1065.05 1409.21 1064.62 1412.94 1067.75 C 1417.81 1077.23 1404.75 1089.36 1397.1 1093.48 C 1383.23 1100.94 1363.71 1092.84 1357.64 1078.57 C 1354.26 1070.73 1354.36 1061.82 1357.9 1054.05 C 1362.16 1044.92 1368.24 1041.4 1377.23 1038.17 z"/>
<path transform="translate(0,0)" fill="rgb(149,149,148)" d="M 572.45 901.128 C 600.781 899.397 616.974 930.015 587.406 936.925 C 561.802 933.671 536.581 913.62 572.45 901.128 z"/>
<path transform="translate(0,0)" fill="rgb(9,8,8)" d="M 868.009 1038.06 C 872.889 1038.06 873.24 1037.38 875.978 1039.98 C 877.679 1045.73 876.512 1053.84 876.448 1060.2 L 901.128 1060.25 C 901.17 1054.51 900.225 1045.55 901.951 1040.84 C 904.764 1038.32 903.515 1039.04 908.244 1039.01 C 911.753 1042.21 909.956 1086.13 909.572 1093.37 C 908.86 1094.13 908.147 1094.89 907.435 1095.66 L 902.954 1094.15 C 899.769 1090.28 901.209 1074.75 901.3 1068.88 L 876.573 1068.96 C 876.383 1076.58 878.293 1085.98 875.499 1092.21 C 872.152 1094.65 874.048 1093.93 869.41 1093.82 C 866.289 1089.65 867.829 1046.37 868.009 1038.06 z"/>
<path transform="translate(0,0)" fill="rgb(9,8,8)" d="M 1314.41 1039.55 C 1317.57 1042.16 1341.73 1090.5 1340.97 1093.45 C 1337.41 1094.17 1337.49 1094.32 1333.82 1093.3 C 1330.51 1090.85 1328.63 1085.41 1326.82 1081.44 L 1314.75 1081.38 L 1303.98 1081.31 C 1302.3 1084.68 1299.07 1092.41 1296.06 1093.89 C 1293.24 1093.91 1291.1 1094.29 1288.79 1092.83 C 1290.48 1087.26 1296.7 1076.09 1299.54 1070.4 C 1304.56 1060.15 1309.52 1049.86 1314.41 1039.55 z"/>
<path transform="translate(0,0)" fill="rgb(250,250,249)" d="M 1314.95 1056.48 C 1317.98 1060.22 1323.4 1068.89 1321.92 1073.63 L 1318.25 1074.04 C 1313.76 1074.27 1311.06 1075.43 1308.8 1071.44 C 1308.8 1067.23 1312.86 1060.58 1314.95 1056.48 z"/>
<path transform="translate(0,0)" fill="rgb(9,8,8)" d="M 720.227 1039.51 C 722.349 1041.56 747.18 1092.29 747.071 1093.4 C 737.475 1097.78 737.484 1088.18 732.471 1082.34 C 730.083 1079.55 727.6 1080.29 724.137 1080.11 L 709.708 1080.04 C 705.9 1088.3 705.579 1094.18 695.759 1093.47 L 695.157 1091.99 C 699.43 1080.08 713.973 1051.3 720.227 1039.51 z"/>
<path transform="translate(0,0)" fill="rgb(250,250,249)" d="M 720.354 1058.59 C 723.207 1061.22 726.508 1067.62 726.554 1071.58 L 724.233 1072.44 C 720.111 1072.29 718.193 1072.83 715.617 1070.53 C 715.093 1066.91 718.444 1062.1 720.354 1058.59 z"/>
<path transform="translate(0,0)" fill="rgb(9,8,8)" d="M 1143.49 1038.7 C 1150.57 1038.34 1153.32 1039.25 1153.22 1047.3 C 1153.15 1052.77 1152.61 1058.63 1152.37 1064.13 C 1157.91 1057.87 1168.42 1043.64 1174.24 1039.34 C 1177.65 1039.13 1178.31 1038.48 1180.75 1039.9 C 1179.74 1045.66 1165.53 1060.25 1160.98 1065.36 C 1165.46 1071.18 1170.62 1077.31 1175.26 1083.07 C 1177.69 1085.87 1182.1 1090.83 1182.79 1094.17 L 1181.32 1094.89 C 1170 1094.02 1161.51 1079.33 1152.23 1069.99 C 1152.07 1077.78 1153.77 1087.86 1150.11 1094.2 C 1146.87 1095.69 1148.54 1095.51 1144.91 1094.49 C 1141.6 1090.11 1143.38 1047.07 1143.49 1038.7 z"/>
<path transform="translate(0,0)" fill="rgb(9,8,8)" d="M 826.369 1038.23 C 838.392 1037.46 842.055 1039.22 851.975 1045.2 C 840.789 1055.53 845.862 1046.9 830.729 1046.27 C 826.047 1046.08 819.473 1049.89 816.496 1053.83 C 813.237 1058.21 811.86 1063.71 812.671 1069.11 C 814.735 1083.51 825.76 1086.99 838.481 1084.56 C 840.588 1083.56 842.504 1082.73 844.645 1081.81 C 847.908 1082.37 846.656 1081.58 848.593 1084.14 L 848.012 1087.01 C 841.236 1095.6 829.796 1096.61 820.806 1091.94 C 794.943 1078.51 798.677 1046.49 826.369 1038.23 z"/>
<path transform="translate(0,0)" fill="rgb(9,8,8)" d="M 1210.74 1038.25 C 1217.21 1037.81 1224.66 1040.48 1226.77 1047.08 L 1225.36 1048.78 C 1214.33 1051.63 1217.21 1043.62 1206.88 1048.07 C 1203.27 1057.38 1231.39 1067.79 1230.67 1080.94 C 1230 1093.16 1220.9 1096.31 1210.17 1096.61 C 1202.68 1094.59 1197.19 1092.61 1194.42 1084.84 L 1196.96 1081.81 C 1206.82 1081.62 1209.85 1094.28 1220.6 1084.43 C 1223.11 1074.72 1208.91 1068.56 1203 1061.73 C 1192.08 1049.14 1195.66 1041.63 1210.74 1038.25 z"/>
<path transform="translate(0,0)" fill="rgb(9,8,8)" d="M 755.715 1039.38 C 761.578 1039.27 788.458 1037.94 791.782 1040.72 C 792.065 1043.59 792.383 1043.75 791.142 1046.25 C 787.468 1047.98 782.539 1047.37 778.323 1047.29 L 778.22 1083.31 C 778.228 1086.65 778.75 1091.17 776.961 1093.66 C 773.528 1093.97 773.436 1094.17 770.07 1092.99 C 768.368 1087.24 769.318 1055.32 769.409 1047.11 C 764.357 1047.34 759.078 1048.4 755.156 1046.09 C 754.414 1043.17 754.959 1042.32 755.715 1039.38 z"/>
<path transform="translate(0,0)" fill="rgb(250,250,249)" d="M 1322.41 311.741 C 1340.95 322.409 1367.47 342.007 1384.76 354.842 C 1474.51 422.581 1556.87 499.586 1630.49 584.58 C 1640.23 595.943 1662.59 621.071 1667.89 633.367 C 1658.85 642.525 1597.67 707.023 1592.03 707.86 L 1589.44 705.859 C 1577.23 696.169 1555.84 675.166 1543.54 663.767 L 1451.01 577.56 L 1322.88 457.933 C 1294.54 431.478 1265.84 405.292 1238.37 377.955 C 1245.53 370.636 1262.57 358.244 1271.46 351.427 C 1288.53 338.306 1305.51 325.077 1322.41 311.741 z"/>
<path transform="translate(0,0)" fill="rgb(250,250,249)" d="M 444.069 1305.63 C 450.07 1306.59 500.846 1349.07 505.538 1356.14 C 530.877 1394.32 556.622 1427.71 590.497 1459.67 C 616.355 1484.25 644.785 1505.97 675.294 1524.47 C 684.742 1530.16 706.884 1540.41 713.573 1545.6 C 726.039 1555.27 742.998 1570.49 755.238 1580.99 L 823.585 1638.87 C 793.019 1659.14 777.836 1676.89 759.535 1708.61 L 754.761 1717.83 C 732.267 1703.97 695.378 1671.72 674.022 1654.08 C 597.831 1590.84 524.631 1524.08 454.663 1454.02 C 432.424 1431.93 411.621 1409.18 389.612 1387.04 C 403.791 1372.11 418.384 1345.46 429.899 1327.56 C 434.822 1319.9 438.078 1313.01 444.069 1305.63 z"/>
<path transform="translate(0,0)" fill="rgb(250,250,249)" d="M 1472.27 1319.61 C 1476.74 1314.86 1488.23 1309.49 1494.68 1309.4 C 1515.62 1309.11 1544.44 1339.32 1552.33 1356.52 C 1545.92 1362.37 1537.35 1366.13 1530.25 1370.6 C 1521.01 1376.42 1500.62 1394.16 1494.46 1402.62 L 1493.46 1406.38 L 1492.11 1406.8 L 1491.4 1406.28 C 1478.03 1418.11 1466.72 1443.31 1462.16 1460.68 C 1463.65 1463.39 1464.92 1464.91 1464.59 1467.93 L 1462.68 1469.05 C 1457.35 1468.24 1451 1464.31 1446.3 1461.56 C 1432.55 1453.53 1410.69 1437.49 1406.99 1421.21 C 1403.34 1405.11 1416.18 1379.65 1424.09 1366.31 C 1431.71 1353.46 1456.02 1324.2 1470.76 1320.48 L 1472.27 1319.61 z"/>
<path transform="translate(0,0)" fill="url(#Gradient1)" d="M 1491.4 1406.28 L 1491.48 1404.82 C 1482.91 1399.76 1437.31 1367.3 1436.04 1360.59 L 1437.58 1359.79 C 1442.88 1361.08 1488.4 1396.93 1494.46 1402.62 L 1493.46 1406.38 L 1492.11 1406.8 L 1491.4 1406.28 z"/>
<path transform="translate(0,0)" fill="rgb(128,127,127)" d="M 1472.27 1319.61 C 1482.92 1322.73 1520.8 1356.57 1527.8 1368.05 C 1519.15 1363.03 1472.62 1327.7 1470.76 1320.48 L 1472.27 1319.61 z"/>
<path transform="translate(0,0)" fill="rgb(128,127,127)" d="M 1412.97 1400.44 C 1420.44 1402.85 1461.88 1434.68 1464.27 1442.1 C 1455.18 1439.47 1425.72 1414.85 1416.56 1408.12 C 1413.03 1405.53 1413.27 1404.07 1412.97 1400.44 z"/>
<path transform="translate(0,0)" fill="rgb(250,250,249)" d="M 898.61 1588.93 C 923.952 1590.5 948.794 1592.13 974.224 1591.99 C 997.407 1591.87 1020.06 1590 1043.16 1588.72 C 987.707 1616.95 949.595 1640.88 901.484 1679.26 C 879.538 1696.18 853.739 1719.61 834.175 1739.16 C 823.803 1734.38 819.198 1730.16 811.664 1722.02 C 826.535 1674.51 868.029 1626.73 898.61 1588.93 z"/>
<path transform="translate(0,0)" fill="rgb(250,250,249)" d="M 1669.4 681.074 C 1676.45 686.764 1688 697.791 1694.4 704.257 C 1678.99 727.071 1661.75 749.962 1647.64 773.599 C 1620.03 819.857 1599.97 869.239 1581.53 919.627 L 1580 919.697 C 1578.67 917.215 1575.15 880.815 1574.39 875.244 C 1570.51 846.807 1564.59 820.196 1557.4 792.451 C 1592.86 754.293 1629.3 714.202 1669.4 681.074 z"/>
<path transform="translate(0,0)" fill="rgb(250,250,249)" d="M 1243.27 290.872 C 1248.32 293.429 1259.35 303.919 1263.68 308.136 C 1255.35 315.677 1246.04 322.717 1237.75 330.614 C 1205 361.828 1172.23 393.014 1139.3 424.04 C 1106.4 418.965 1083.77 415.431 1049.74 415.024 L 1016.9 414.948 C 1029.13 409.36 1043.04 404.355 1056.14 398.392 C 1091.8 382.419 1126.47 364.348 1159.99 344.276 C 1187.57 328.004 1217.15 305.517 1243.27 290.872 z"/>
<path transform="translate(0,0)" fill="rgb(250,250,249)" d="M 427.212 1132.65 C 429.012 1135.4 437.117 1171.86 439.636 1179.63 C 444.184 1193.67 446.025 1200.07 452.942 1214.39 C 427.463 1252.65 401.208 1296.16 373.039 1332.38 C 364.809 1342.04 356.401 1328.36 351.948 1321.69 C 356.319 1310.99 363.198 1299.53 368.095 1288.87 C 386.678 1248.41 404.461 1208.27 416.221 1165.18 C 418.69 1156.13 423.202 1141.1 427.212 1132.65 z"/>
<path transform="translate(0,0)" fill="rgb(250,250,249)" d="M 1290.94 1502.76 L 1292.65 1503.28 C 1299.8 1514.74 1307.05 1538.86 1300.06 1550.96 C 1291.72 1565.4 1268.8 1572.76 1254.65 1579.63 C 1235.33 1589.01 1224.31 1596.7 1203.35 1586.5 C 1192.41 1579.93 1187.82 1567.9 1183.05 1556.71 C 1216.73 1538.8 1258.15 1523.41 1290.94 1502.76 z"/>
<path transform="translate(0,0)" fill="rgb(250,250,249)" d="M 1568.04 1072.96 C 1568.77 1073 1569.5 1073.05 1570.23 1073.11 C 1621.26 1077.81 1627.04 1093.29 1610.8 1140.6 C 1606.27 1153.8 1600.58 1169.92 1589.05 1178.47 C 1572.38 1187.6 1557.89 1185.74 1542.43 1174.89 C 1556.21 1133.17 1561.27 1115.85 1568.04 1072.96 z"/>
<path transform="translate(0,0)" fill="rgb(250,250,249)" d="M 1552.92 1371.02 C 1554.95 1373.41 1554.68 1374.38 1554.89 1377.5 C 1557.84 1422.71 1512.92 1467.51 1468.94 1469.27 L 1467.62 1468.47 C 1467.52 1463.63 1471.77 1452.23 1473.96 1447.79 C 1490.16 1414.97 1518.61 1384.23 1552.92 1371.02 z"/>
<path transform="translate(0,0)" fill="rgb(250,250,249)" d="M 1213.25 395.616 C 1216.79 396.858 1279.54 453.157 1288.54 460.52 L 1268.81 451.012 C 1245.86 440.911 1210.46 426.978 1186.18 420.907 C 1194.9 412.461 1204.33 403.926 1213.25 395.616 z"/>
<path transform="translate(0,0)" fill="rgb(250,250,249)" d="M 1513.59 670.824 C 1518.06 673.974 1531 686.558 1535.61 690.855 L 1581.52 733.925 C 1578.18 737.812 1573.69 741.909 1569.96 745.519 L 1557.43 756.799 L 1513.59 670.824 z"/>
<path transform="translate(0,0)" fill="rgb(250,250,249)" d="M 793.886 1579.74 C 797.915 1580.16 802.367 1581.74 806.223 1583.06 C 823.631 1589 840.884 1593.54 858.789 1597.72 C 855.991 1601.55 852.291 1605.75 849.211 1609.44 L 841.653 1617.94 C 828.247 1605.05 809.053 1591.21 793.886 1579.74 z"/>
<path transform="translate(0,0)" fill="rgb(250,250,249)" d="M 459.444 1257.79 C 462.039 1261.34 472.099 1287.16 474.221 1292.46 L 464.096 1286.55 L 445.049 1275.6 L 459.444 1257.79 z"/>
</svg>