<svg version="1.1" xmlns="http://www.w3.org/2000/svg" style="display: block;" viewBox="0 0 2048 2048" width="1024" height="1024" preserveAspectRatio="none">
<path transform="translate(0,0)" fill="rgb(255,255,255)" d="M 0 0 L 2048 0 L 2048 2048 L 0 2048 L 0 0 z"/>
<path transform="translate(0,0)" fill="rgb(24,44,85)" d="M 1078.24 328.194 C 1099.33 335.6 1140.09 343.528 1163.5 348.771 L 1340.5 387.586 C 1382.99 439.567 1422.63 494.698 1466.45 546.042 C 1719.74 429.03 1929.1 664.126 1823.47 907.629 C 1815.24 926.618 1801.84 942.169 1791.18 959.276 C 1833.34 967.731 1875.58 975.849 1917.88 983.63 L 1935.3 986.387 C 1951.62 988.993 1974.31 991.877 1989.98 995.247 C 1985.79 998.085 1986.2 996.217 1981.58 997.955 C 1912.56 998.791 1834.93 993.757 1765.59 990.717 C 1616.62 984.698 1467.84 974.696 1319.4 960.722 C 1258.34 954.702 1197.35 948.002 1136.44 940.624 C 1120.5 938.658 1104.59 936.488 1088.7 934.116 C 1075.91 932.283 1061.83 929.448 1049.05 930.933 C 1027.74 933.408 1006.39 936.011 985.083 938.491 C 934.145 944.547 883.173 950.308 832.17 955.774 C 775.761 961.692 719.454 968.338 663.169 975.347 C 514.086 993.912 364.471 996.68 214.546 997.575 L 123.818 998.178 C 101.624 998.456 68.215 999.254 46.5632 997.258 C 98.7833 991.202 148.518 981.39 200.25 972.499 C 268.548 960.762 336.685 947.262 405.374 938.165 C 390.334 913.892 379.471 887.268 373.237 859.402 C 357.815 855.789 340.392 849.415 325.226 844.26 C 308.194 860.834 284.676 860.405 277.016 835.968 C 274.629 828.135 275.468 819.673 279.347 812.462 C 289.6 792.97 308.489 796.472 324.661 805.33 C 337.65 799.465 352.734 789.391 366.39 785.46 C 373.184 741.786 376.537 727.246 394.993 687.351 C 386.413 671.149 379.004 653.637 370.717 637.021 C 307.342 638.211 336.408 556.628 383.512 582.43 C 391.592 586.856 394.422 598.727 395.647 607.296 C 408.434 612.549 421.003 616.909 434.042 621.494 C 467.921 584.948 490.339 568.329 534.794 546.917 C 535.172 534.617 539.283 517.279 540.305 503.029 C 526.574 485.375 523.608 462.978 547.176 452.277 C 554.658 448.83 563.243 448.673 570.846 451.845 C 589.833 459.704 592.021 477.229 584.537 494.5 C 591.522 505.715 597.947 517.595 604.4 529.146 C 636.783 526.776 689.537 527.727 720.272 538.942 C 729.899 530.202 739.893 521.663 749.596 512.874 C 747.145 497.546 749.41 484.633 764.859 477.194 C 772.651 473.446 781.655 473.129 789.691 476.321 C 811.121 484.965 814.079 513.413 795.554 526.815 C 791.372 529.84 788.117 531.004 783.374 532.752 C 778.381 542.318 777.76 553.683 776.788 564.361 C 785.965 568.641 792.461 574.132 800.502 580.119 C 839.291 608.996 867.152 658.393 886.084 702.492 C 893.048 698.745 895.063 696.869 900.219 691.266 C 900.256 664.042 900.51 636.819 900.981 609.599 C 886.602 609.009 871.823 609.905 857.455 609.51 C 851.395 609.343 834.421 610.794 833.919 602.404 C 833.679 598.378 836.736 592.555 839.404 589.734 C 862.63 565.188 886.031 539.616 908.509 514.514 C 945.861 472.546 983.633 430.953 1021.82 389.743 C 1040.42 369.442 1059.33 348.044 1078.24 328.194 z"/>
<path transform="translate(0,0)" fill="rgb(255,255,255)" d="M 155.051 991.297 C 193.255 984.477 232.71 982.795 271.076 977.134 C 391.411 959.377 512.689 951.416 633.336 937.04 C 725.833 925.47 818.4 914.465 911.031 904.028 C 941.722 900.148 972.446 896.535 1003.2 893.19 C 1018.87 891.418 1038.27 888.746 1053.76 888.421 C 1062.85 888.23 1080.99 890.896 1090.4 892.091 L 1146 899.106 C 1401.84 930.156 1657.36 948.047 1912.65 987.587 L 1917.32 988.658 L 1915.25 989.586 C 1896.32 987.717 1870.17 987.56 1850.41 986.742 L 1707.83 981.083 C 1601.01 975.423 1494.29 968.147 1387.7 959.258 C 1307.33 952.483 1227.1 944.119 1147.06 934.171 C 1130.63 932.282 1114.22 930.097 1097.86 927.617 C 1087.48 926.058 1063.6 921.731 1054.48 922.517 C 1030.8 924.556 1005.73 927.938 982.051 930.782 L 853.166 945.596 C 823.596 948.615 794.043 951.809 764.511 955.178 C 713.311 961.324 662.215 968.252 610.874 973.183 C 497.338 984.134 383.371 990.018 269.312 990.818 L 195.713 991.174 C 182.788 991.263 167.653 992.017 155.051 991.297 z"/>
<path transform="translate(0,0)" fill="rgb(24,44,85)" d="M 1917.88 983.63 L 1935.3 986.387 C 1931.63 989.233 1919.13 992.201 1915.25 989.586 L 1917.32 988.658 L 1912.65 987.587 C 1916.67 986.058 1914.9 987.2 1917.88 983.63 z"/>
<path transform="translate(0,0)" fill="rgb(255,255,255)" d="M 1080.43 394.886 C 1133.19 460.349 1185.08 529.711 1236.12 596.51 C 1229.42 689.456 1222.1 782.356 1214.18 875.206 C 1164.69 868.957 1112.98 863.991 1063.24 858.504 C 1055 857.236 1016.39 862.899 1006.01 864.121 L 908.927 875.099 C 909.183 838.439 909.819 801.782 910.836 765.135 L 912.996 579.101 C 920.594 567.799 939.841 548.689 950.038 537.008 C 991.79 489.173 1038.43 442.349 1080.43 394.886 z"/>
<path transform="translate(0,0)" fill="rgb(24,44,85)" d="M 1078.02 467.389 C 1150.23 470.004 1149.39 578.809 1074.81 584.592 C 1005.45 584.48 1000.87 474.099 1078.02 467.389 z"/>
<path transform="translate(0,0)" fill="rgb(255,255,255)" d="M 1075.51 578.108 C 1071.04 577.493 1065.28 576.515 1060.94 575.067 C 1049.06 571.089 1039.35 562.366 1034.14 550.973 C 1018.92 518.474 1043.19 472.522 1081.45 475.404 C 1090.18 476.061 1094.4 477.802 1102.3 481.027 L 1101.64 482.309 C 1064.72 471.588 1047.02 515.937 1053.16 545.351 C 1056.53 561.513 1062.43 569.189 1075.51 578.108 z"/>
<path transform="translate(0,0)" fill="rgb(255,255,255)" d="M 1120.27 504.866 C 1127.17 515.761 1122.93 551.067 1110.41 557.755 C 1107.12 558.285 1105.84 557.252 1102.81 555.786 C 1092.51 539.824 1104.94 537.315 1118.12 539.378 C 1121.37 525.84 1121.83 518.75 1120.27 504.866 z"/>
<path transform="translate(0,0)" fill="rgb(67,83,122)" d="M 1102.3 481.027 C 1111.22 485.281 1113.92 490.442 1119.57 498.346 L 1119.33 499.292 C 1112.28 492.66 1109.43 487.524 1101.64 482.309 L 1102.3 481.027 z"/>
<path transform="translate(0,0)" fill="rgb(24,44,85)" d="M 1475.34 556.095 C 1577.06 497.846 1699.32 544.839 1754.68 643.601 C 1788.76 703.519 1797.33 774.618 1778.48 840.922 C 1770.05 870.123 1764.59 878.443 1751.48 903.934 L 1749.42 906.654 C 1744.13 915.144 1735.72 926.033 1729.58 933.804 C 1709.68 905.843 1689.74 874.888 1670.31 846.222 L 1557.85 679.38 C 1543.95 658.412 1530.16 637.649 1515.76 616.998 C 1511.34 610.66 1508.99 602.477 1505.32 595.81 C 1503.02 591.631 1497.6 585.132 1494.41 581.172 L 1493.06 581.347 C 1490.36 578.988 1486.5 573.463 1485.27 570.08 C 1482.26 565.913 1478.02 560.362 1475.34 556.095 z"/>
<path transform="translate(0,0)" fill="rgb(255,255,255)" d="M 1516.25 560.209 C 1523.5 569.427 1531.66 582.916 1538.16 592.996 L 1573.93 648.037 C 1606.44 697.51 1639.33 746.732 1672.59 795.698 C 1697.62 833.137 1721.49 871.371 1749.42 906.654 C 1744.13 915.144 1735.72 926.033 1729.58 933.804 C 1709.68 905.843 1689.74 874.888 1670.31 846.222 L 1557.85 679.38 C 1543.95 658.412 1530.16 637.649 1515.76 616.998 C 1511.34 610.66 1508.99 602.477 1505.32 595.81 C 1503.02 591.631 1497.6 585.132 1494.41 581.172 C 1492.46 577.84 1491.18 576.003 1488.89 572.885 C 1498.07 567.716 1506.28 563.778 1516.25 560.209 z"/>
<path transform="translate(0,0)" fill="rgb(255,255,255)" d="M 1475.34 556.095 C 1577.06 497.846 1699.32 544.839 1754.68 643.601 C 1788.76 703.519 1797.33 774.618 1778.48 840.922 C 1770.05 870.123 1764.59 878.443 1751.48 903.934 C 1749.67 899.991 1744.74 893.642 1742.03 889.89 C 1783.81 812.028 1782.67 714.321 1733.97 639.939 C 1703.64 593.599 1660.69 562.194 1606.17 550.956 C 1566.81 542.844 1519.27 547.71 1485.27 570.08 C 1482.26 565.913 1478.02 560.362 1475.34 556.095 z"/>
<path transform="translate(0,0)" fill="rgb(255,255,255)" d="M 1557.58 552.41 C 1595.81 545.943 1650.01 566.444 1680.39 588.961 C 1726.99 623.484 1755.98 677.362 1764.92 734.162 C 1771.56 776.371 1765.77 817.784 1751.24 857.706 C 1748.37 865.685 1744.35 877.632 1739.4 884.374 L 1737.95 884.359 L 1591.94 666.013 C 1568.81 630.893 1544.1 594.636 1522.06 558.992 C 1535.36 555.309 1543.84 553.567 1557.58 552.41 z"/>
<path transform="translate(0,0)" fill="rgb(255,255,255)" d="M 1103.03 348.768 C 1123.59 353.968 1144.76 358.083 1165.5 362.681 L 1274.64 386.983 C 1290.43 390.512 1318.21 395.417 1332.2 399.581 C 1335.86 403.317 1338.57 407.466 1341.83 411.511 C 1367.34 443.208 1392.17 475.428 1417.33 507.39 L 1463.6 565.659 C 1470.32 574.033 1484.33 590.513 1489.7 599.016 C 1466.78 600.652 1438.73 600.095 1415.58 600.071 C 1376.11 600.268 1336.64 599.848 1297.19 598.811 C 1233.74 515.231 1167.51 431.671 1103.03 348.768 z"/>
<path transform="translate(0,0)" fill="rgb(255,255,255)" d="M 1378.27 624.49 L 1388.88 624.467 L 1362.11 892.15 C 1330.45 888.716 1298.83 885.019 1267.24 881.061 C 1260.98 880.645 1252.08 879.324 1245.64 878.579 C 1251.25 845.548 1254.19 791.792 1256.86 758.079 C 1260.15 716.664 1264.83 669.055 1266.1 628.026 C 1281.55 622.028 1356.64 624.887 1378.27 624.49 z"/>
<path transform="translate(0,0)" fill="rgb(255,255,255)" d="M 636.743 543.464 C 656.265 543.134 681.006 545.736 699.595 550.278 C 763.698 565.63 818.768 606.458 852.087 663.332 C 895.781 736.447 896.93 799.453 876.86 878.839 C 867.887 880.643 850.974 882.169 841.323 883.315 C 902.917 747.72 809.078 587.213 662.011 571.723 C 629.961 568.347 607.177 571.898 576.282 579.633 C 558.162 585.4 543.107 591.619 526.866 601.615 C 475.873 632.592 439.408 682.699 425.613 740.747 C 409.932 807.729 424.749 873.997 460.436 931.789 C 449.306 933.574 436.29 934.937 424.994 936.416 C 336.258 784.143 413.098 589.084 587.747 548.868 C 604.42 545.029 619.795 544.186 636.743 543.464 z"/>
<path transform="translate(0,0)" fill="rgb(255,255,255)" d="M 623.592 575.403 C 659.326 569.653 714.736 586.405 745.859 604.478 C 796.61 633.95 833.609 682.339 848.748 739.041 C 859.264 779.524 857.611 846.946 836.111 883.532 C 823.659 885.199 811.178 886.639 798.674 887.851 C 822.788 846.361 829.949 814.935 823.008 767.287 C 806.99 657.333 708.837 589.668 599.537 611.161 C 503.261 632.131 444.797 721.039 455.744 817.726 C 460.316 858.111 478.188 895.181 503.629 926.593 C 491.065 928.118 479.343 930.123 466.547 931.368 C 444.551 906.486 428.75 852.672 425.312 820.292 C 411.96 694.558 498.005 588.336 623.592 575.403 z"/>
<path transform="translate(0,0)" fill="rgb(255,255,255)" d="M 1433.07 624.166 C 1451.47 624.736 1471.71 624.365 1490.21 624.293 C 1507.68 648.034 1525.38 676.602 1541.87 701.42 L 1633.55 838.044 L 1683.2 912.028 C 1686.05 916.212 1701 934.537 1699.59 937.956 L 1695.76 937.885 L 1622.47 927.483 C 1608.76 905.684 1591.97 882.443 1577.3 861.105 L 1515.06 769.856 C 1485.13 726.275 1455.49 679.876 1425.81 635.653 C 1428.47 631.762 1430.65 628.178 1433.07 624.166 z"/>
<path transform="translate(0,0)" fill="rgb(255,255,255)" d="M 581.377 626.938 C 584.022 628.827 589.968 655.839 591.569 661.349 C 597.999 683.472 604.879 705.402 611.741 727.39 C 599.847 734.056 593.845 739.545 585.398 750.109 C 569.671 741.129 507.824 700.856 494.49 703.062 C 491.627 705.471 492.446 704.006 491.726 707.478 C 494.773 711.754 566.988 749.934 580.458 758.731 L 576.202 767.806 C 562.261 760.341 492.972 721.656 481.74 723.378 C 479.09 725.473 479.293 726.058 478.384 729.33 C 486.692 735.137 499.672 741.279 508.939 745.917 C 530.158 756.597 551.662 766.703 573.427 776.223 C 569.349 791.152 568.514 796.029 571.838 811.218 C 558.478 813.446 544.448 816.971 531.027 819.493 C 509.969 823.45 489.314 827.242 468.543 832.538 C 461.08 798.375 463.706 762.78 476.101 730.082 C 497.453 674.713 529.525 649.713 581.377 626.938 z"/>
<path transform="translate(0,0)" fill="rgb(255,255,255)" d="M 762.28 666.556 C 787.508 690.544 801.537 719.011 809.23 752.481 C 821.102 804.125 815.296 844.501 786.707 889.592 C 767.737 891.74 748.78 894 729.836 896.373 C 719.935 881.62 707.092 861.774 695.264 849.318 C 706.767 838.932 710.728 829.09 715.548 814.794 C 732.108 813.922 748.676 813.192 765.248 812.605 C 774.292 811.969 806.908 812.716 811.543 807.116 C 811.594 803.484 812.055 805.073 810.429 802.096 C 798.602 798.525 752.4 803.18 737.394 802.316 C 732.339 802.026 723.429 803.612 717.986 802.242 C 716.826 799.95 716.7 796.754 717.297 794.205 C 717.316 794.126 717.987 792.082 718.402 791.881 C 725.679 788.363 800.722 795.51 809.908 789.087 C 811.228 788.164 810.959 787.592 811.209 786.144 C 806.623 778.717 789.109 780.781 780.77 780.54 C 759.275 780.053 737.776 779.706 716.275 779.499 C 713.176 764.35 711.468 762.368 702.995 749.303 C 716.901 732.263 752.968 683.897 762.28 666.556 z"/>
<path transform="translate(0,0)" fill="rgb(255,255,255)" d="M 1407.03 670.34 C 1406 669.79 1573.01 914.461 1574.26 919.393 L 1573.16 920.574 L 1568.89 920.194 C 1548.16 916.154 1517.38 912.177 1496.23 909.602 C 1478.69 885.634 1458.92 852.834 1441.83 827.556 C 1431.35 812.055 1407.1 776.605 1399.07 761.03 C 1403.87 747.323 1401.41 748.317 1402.63 735.887 C 1404.44 717.219 1401.69 687.417 1407.03 670.34 z"/>
<path transform="translate(0,0)" fill="rgb(255,255,255)" d="M 633.666 731.21 C 668.992 725.377 702.297 749.465 707.819 784.841 C 713.34 820.216 688.96 853.308 653.537 858.517 C 618.553 863.662 585.96 839.649 580.507 804.712 C 575.054 769.775 598.778 736.971 633.666 731.21 z"/>
<path transform="translate(0,0)" fill="rgb(24,44,85)" d="M 639.426 753.458 C 662.38 751.017 682.921 767.759 685.161 790.733 C 687.4 813.707 670.478 834.101 647.485 836.138 C 624.776 838.15 604.69 821.483 602.478 798.792 C 600.266 776.102 616.756 755.87 639.426 753.458 z"/>
<path transform="translate(0,0)" fill="rgb(255,255,255)" d="M 641.442 760.484 C 660.012 759.127 676.236 772.919 677.887 791.465 C 679.537 810.011 666.003 826.452 647.486 828.396 C 635.243 829.681 623.259 824.267 616.13 814.232 C 609.002 804.197 607.836 791.098 613.081 779.962 C 618.325 768.825 629.165 761.381 641.442 760.484 z"/>
<path transform="translate(0,0)" fill="rgb(255,255,255)" d="M 1079.48 347.596 C 1090.73 351.919 1143.61 423.601 1153.94 437.018 L 1211.94 511.007 L 1256.56 568.212 C 1263.95 577.749 1277.89 595.446 1283.55 605.039 C 1277.39 609.481 1274.19 610.887 1267.25 614.142 C 1254.33 599.814 1229.54 564.851 1216.74 548.023 L 1130.92 437.224 C 1119.01 421.784 1093.63 386.863 1079.46 374.814 C 1069.17 385.455 1058.13 398.447 1047.89 409.587 L 967.873 496.981 L 912.931 557.209 C 902.113 569.099 888.62 583.437 878.714 595.86 C 871.058 595.822 863.302 595.62 855.638 595.487 C 862.467 585.919 874.616 572.878 882.653 563.876 L 937.049 503.785 C 968.585 468.096 1000.58 432.818 1033.03 397.96 C 1046.94 382.797 1065.03 361.147 1079.48 347.596 z"/>
<path transform="translate(0,0)" fill="rgb(255,255,255)" d="M 593.411 622.42 C 644.581 610.128 686.276 618.728 731.8 642.689 L 731.93 644.209 C 727.138 649.351 718.824 662.448 714.034 668.864 C 700.073 687.565 686.678 707.591 672.273 725.936 C 659.118 721.556 652.831 720.715 639.162 720.665 C 639.049 710.699 627.07 626.69 622.949 621.282 C 620.596 619.962 612.733 618.985 612.547 622.511 C 611.697 638.653 632.797 711.402 628.592 721.69 C 624.931 723.078 625.072 722.971 621.39 722.854 C 618.538 716.64 614.858 701.02 612.826 693.74 L 593.411 622.42 z"/>
<path transform="translate(0,0)" fill="rgb(255,255,255)" d="M 1384.65 779.906 C 1381.33 772.039 1383.45 761.502 1384.39 752.736 C 1418.52 804.493 1452.37 856.438 1485.93 908.569 C 1479.05 907.65 1468.59 907.58 1464.42 902.753 L 1462.92 905.214 C 1437.11 899.629 1399.02 897.482 1370.67 892.572 C 1371.5 872.421 1375.69 847.199 1377.13 826.707 C 1377.62 819.775 1380.7 788.281 1382.45 783.158 L 1384.65 779.906 z"/>
<path transform="translate(0,0)" fill="rgb(255,255,255)" d="M 1384.65 779.906 C 1381.33 772.039 1383.45 761.502 1384.39 752.736 C 1418.52 804.493 1452.37 856.438 1485.93 908.569 C 1479.05 907.65 1468.59 907.58 1464.42 902.753 L 1462.92 905.214 C 1446.65 880.679 1430.55 856.037 1414.6 831.291 C 1405.31 816.88 1392.82 796.313 1382.45 783.158 L 1384.65 779.906 z"/>
<path transform="translate(0,0)" fill="rgb(45,50,80)" d="M 1384.65 779.906 C 1388.48 783.409 1464.09 901.159 1464.42 902.753 L 1462.92 905.214 C 1446.65 880.679 1430.55 856.037 1414.6 831.291 C 1405.31 816.88 1392.82 796.313 1382.45 783.158 L 1384.65 779.906 z"/>
<path transform="translate(0,0)" fill="rgb(255,255,255)" d="M 572.573 819.057 L 574.404 819.086 C 576.304 821.187 576.098 821.36 576.873 824.16 C 572.564 832.092 492.304 846.564 478.609 854.33 C 477.601 857.496 478.115 857.893 479.205 861.061 C 490.694 868.577 567.864 838.713 581.224 832.841 C 587.75 845.139 591.427 848.541 602.235 856.146 C 598.332 865.169 594.497 874.22 590.73 883.3 C 586.04 894.363 581.259 905.387 576.387 916.371 C 557.202 918.982 537.673 922.047 518.488 924.871 C 492.945 898.044 482.78 879.207 470.982 844.547 C 499.391 834.164 541.867 828.256 572.573 819.057 z"/>
<path transform="translate(0,0)" fill="rgb(255,255,255)" d="M 1242.55 606.485 C 1247.17 610.241 1256.63 624.145 1261.04 629.889 C 1260.76 661.77 1255.47 710.405 1252.89 742.996 C 1249.53 785.418 1246.75 835.935 1240.74 877.43 C 1234.33 876.879 1227.57 876.025 1221.13 875.321 C 1230.24 786.443 1234.76 695.538 1242.55 606.485 z"/>
<path transform="translate(0,0)" fill="rgb(255,255,255)" d="M 1506.98 614.897 C 1511.96 619.375 1521.02 633.692 1525.21 639.832 L 1560.35 691.81 L 1666.33 849.138 C 1679.84 869.208 1693.24 889.353 1706.53 909.572 C 1710.37 915.369 1722.83 931.116 1722.81 936.645 C 1719.59 938.856 1718.78 937.921 1713.83 937.748 C 1704.78 934.385 1644.02 839.908 1632.64 822.901 L 1550.69 702.799 C 1536 681.117 1511.3 641.865 1495.84 622.762 C 1501.5 619.867 1502.46 619.329 1506.98 614.897 z"/>
<path transform="translate(0,0)" fill="rgb(255,255,255)" d="M 1420.08 648.544 C 1435.67 669.644 1452.55 697.156 1467.19 719.428 C 1496.53 763.352 1525.38 807.6 1553.75 852.163 C 1560.67 862.894 1596.83 915.935 1598.37 922.532 L 1596.23 923.129 C 1595.08 923.043 1587.17 922.366 1586.67 921.617 C 1528.75 836.115 1474.39 745.699 1414.15 661.904 C 1415.96 657.266 1417.98 653.046 1420.08 648.544 z"/>
<path transform="translate(0,0)" fill="rgb(255,255,255)" d="M 1798.16 782.932 C 1812.88 782.922 1827.22 784.194 1841.87 785.355 C 1839.76 804.873 1840.13 817.749 1836.3 838.355 C 1821.84 836.409 1806.07 835.007 1791.51 833.483 C 1794.72 815.382 1796.64 801.197 1798.16 782.932 z"/>
<path transform="translate(0,0)" fill="rgb(255,255,255)" d="M 1794.55 720.559 C 1808.29 721.365 1822.82 722.818 1836.57 724.013 C 1839.89 739.066 1841.8 761.483 1842.07 776.659 L 1798.29 773.937 C 1797.77 755.476 1796.18 738.932 1794.55 720.559 z"/>
<path transform="translate(0,0)" fill="rgb(255,255,255)" d="M 1788.6 841.016 C 1801.86 843.737 1819.98 844.646 1834.03 846.286 C 1832.29 855.068 1823.76 888.016 1818.87 893.158 C 1803.51 890.756 1787.52 888.746 1772.08 886.591 C 1779.3 870.068 1783.45 858.166 1788.6 841.016 z"/>
<path transform="translate(0,0)" fill="rgb(255,255,255)" d="M 1792.32 661.5 L 1816.92 661.091 C 1824.55 680.183 1829.48 694.941 1835.03 714.683 L 1819.24 713.239 L 1791.81 710.766 C 1786.85 694.242 1781.19 677.936 1774.85 661.889 L 1792.32 661.5 z"/>
<path transform="translate(0,0)" fill="rgb(255,255,255)" d="M 667.677 865.292 C 670.537 867.782 688.95 897.259 691.808 901.775 C 675.237 903.151 658.705 904.966 642.23 907.219 C 635.074 908.168 627.926 909.174 620.786 910.235 C 625.336 896.5 629.76 882.722 634.056 868.905 C 646.986 870.289 655.4 869.032 667.677 865.292 z"/>
<path transform="translate(0,0)" fill="rgb(255,255,255)" d="M 1784.36 612.473 L 1786.09 612.819 C 1794.94 625.213 1804.5 639.719 1811.82 653.058 C 1799.46 653.082 1787.1 653.328 1774.75 653.795 L 1771.72 653.577 C 1769.26 651.136 1752.86 621.721 1747.32 613.979 C 1759.67 613.389 1772.01 612.887 1784.36 612.473 z"/>
<path transform="translate(0,0)" fill="rgb(255,255,255)" d="M 742.184 649.149 C 746.046 652.108 755.992 659.696 758.205 663.59 C 755.395 664.055 756.239 663.797 753.091 662.64 C 747.197 666.731 699.031 730.146 692.366 739.509 L 684.287 732.963 C 696.152 715.424 708.328 698.097 720.809 680.991 C 725.992 673.765 737.651 658.254 741.553 650.831 L 742.184 649.149 z"/>
<path transform="translate(0,0)" fill="rgb(255,255,255)" d="M 1766.85 894.753 C 1783.28 897.167 1799.74 899.4 1816.23 901.453 C 1812.24 909.247 1806.12 918.912 1801.55 926.595 C 1801.05 926.886 1800.55 927.177 1800.05 927.469 C 1788.66 924.149 1764.62 919.603 1754.18 917.586 C 1758.86 910.608 1762.93 902.268 1766.85 894.753 z"/>
<path transform="translate(0,0)" fill="rgb(255,255,255)" d="M 1749.29 924.61 C 1764.55 929.555 1781.34 931.406 1795.36 936.632 C 1790.8 943.275 1785.11 949.526 1779.81 955.632 C 1778.57 956.319 1776.81 957.268 1775.38 957.048 C 1759.9 954.658 1746.64 954.757 1735.19 944.004 C 1740.03 937.64 1744.73 931.174 1749.29 924.61 z"/>
<path transform="translate(0,0)" fill="rgb(255,255,255)" d="M 1744.45 573.288 L 1745.26 573.206 C 1751.66 576.599 1772.42 598.028 1778.24 603.882 C 1767.97 603.915 1757.7 604.144 1747.43 604.569 L 1742.49 604.941 C 1736.6 602.758 1719.2 582.58 1713.1 576.267 C 1722.53 575.391 1735.95 575.637 1744.45 573.288 z"/>
<path transform="translate(0,0)" fill="rgb(255,255,255)" d="M 395.179 623.645 C 402.792 627.844 417.659 632.799 426.272 635.888 L 411.233 661.958 C 409.83 664.617 407.677 668.011 406.102 670.675 C 398.609 659.989 392.053 645.103 388.04 632.727 C 390.459 630.142 393.012 626.525 395.179 623.645 z"/>
<path transform="translate(0,0)" fill="rgb(255,255,255)" d="M 610.661 861.08 L 625.816 867.12 C 618.873 881.476 614.808 894.907 608.486 909.39 C 606.958 912.892 605.438 912.653 602.28 913.504 L 588.726 915.558 C 595.665 899.436 605.334 877.395 610.661 861.08 z"/>
<path transform="translate(0,0)" fill="rgb(255,255,255)" d="M 570.851 505.275 C 573.996 507.659 584.086 529.288 586.56 534.364 L 566.664 538.217 L 550.569 541.626 C 552.558 530.559 554.324 519.453 555.867 508.315 C 562.263 507.488 564.648 507.015 570.851 505.275 z"/>
<path transform="translate(0,0)" fill="rgb(255,255,255)" d="M 366.257 802.811 L 367.504 803.221 C 368.807 806.078 369.988 833.802 370.957 840.307 L 350.901 835.908 C 347.886 835.142 345.007 834.25 342.035 833.351 C 341.028 826.984 341.024 821.419 340.862 814.992 L 366.257 802.811 z"/>
<path transform="translate(0,0)" fill="rgb(255,255,255)" d="M 1689.62 543.406 C 1701.58 542.169 1723.56 558.586 1734.65 565.692 L 1712.76 567.186 C 1711.56 567.464 1706.52 568.611 1705.89 568.303 C 1691.2 561.174 1681.93 552.472 1666.24 546.138 C 1673.74 545.048 1682.03 544.273 1689.62 543.406 z"/>
<path transform="translate(0,0)" fill="rgb(255,255,255)" d="M 1285.18 612.257 C 1300.63 610.983 1327.19 611.898 1343.89 611.918 L 1454.78 612.169 C 1459.78 612.196 1494.21 611.566 1497.29 612.377 L 1495.79 614.395 C 1491.12 615.075 1474.51 615.723 1470.33 615.374 C 1450.19 613.693 1289.31 618.481 1284.29 614.588 L 1285.18 612.257 z"/>
<path transform="translate(0,0)" fill="rgb(255,255,255)" d="M 362.46 593.153 C 367.384 592.314 372.377 594.201 375.516 598.086 C 378.655 601.972 379.45 607.25 377.595 611.888 C 375.74 616.526 371.524 619.8 366.572 620.449 C 359.115 621.426 352.247 616.254 351.127 608.818 C 350.007 601.381 355.046 594.415 362.46 593.153 z"/>
<path transform="translate(0,0)" fill="rgb(255,255,255)" d="M 687.421 854.92 C 691.482 858.784 714.597 891.43 717.561 896.917 C 715.757 898.541 713.719 898.415 710.892 898.978 C 708.531 899.233 706.911 899.272 704.53 899.311 C 697.986 891.213 685.27 870.199 679.083 860.616 L 687.421 854.92 z"/>
<path transform="translate(0,0)" fill="rgb(255,255,255)" d="M 554.623 465.705 C 561.41 463.036 569.079 466.346 571.792 473.116 C 574.506 479.885 571.247 487.576 564.495 490.334 C 557.681 493.118 549.903 489.821 547.164 482.988 C 544.425 476.156 547.772 468.4 554.623 465.705 z"/>
<path transform="translate(0,0)" fill="rgb(255,255,255)" d="M 776.176 489.655 C 783.282 488.252 790.191 492.839 791.657 499.933 C 793.122 507.026 788.597 513.975 781.517 515.504 C 774.347 517.053 767.29 512.458 765.806 505.274 C 764.322 498.09 768.98 491.075 776.176 489.655 z"/>
<path transform="translate(0,0)" fill="rgb(255,255,255)" d="M 758.683 523.756 L 765.169 530.089 C 762.678 539.245 760.476 548.478 758.567 557.773 L 745.32 551.695 L 733.616 546.917 C 741.714 539.095 750.36 531.374 758.683 523.756 z"/>
<path transform="translate(0,0)" fill="rgb(255,255,255)" d="M 299.028 814.903 C 317.228 814.028 319.469 830.817 307.386 839.094 C 290.542 841.14 283.808 824.967 299.028 814.903 z"/>
<path transform="translate(0,0)" fill="rgb(255,255,255)" d="M 1625.99 527.27 C 1633.73 527.674 1669.72 531.899 1673.06 537.051 C 1668.66 537.917 1660.42 538.627 1655.31 539.422 C 1645.62 535.429 1635.2 532.221 1625.99 527.27 z"/>
<path transform="translate(0,0)" fill="rgb(255,255,255)" d="M 899.886 718.068 L 900.403 718.723 C 900.712 724.37 900.644 755.294 898.769 758.616 L 898.058 756.792 L 891.406 726.298 C 894.885 723.445 896.776 721.37 899.886 718.068 z"/>
<path transform="translate(0,0)" fill="rgb(255,255,255)" d="M 894.703 846.884 C 897.31 851.851 897.193 869.087 896.166 874.926 C 893.366 877.091 891.653 876.878 887.874 877.626 L 886.383 876.885 C 885.713 873.748 893.144 851.926 894.703 846.884 z"/>
<path transform="translate(0,0)" fill="rgb(192,198,214)" d="M 324.93 816.665 L 326.871 817.606 C 329.973 821.31 329.427 827.58 329.637 832.694 C 328.737 832.241 327.838 831.789 326.939 831.336 C 327.079 825.71 326.967 822.032 324.93 816.665 z"/>
<path transform="translate(0,0)" fill="rgb(67,83,122)" d="M 731.8 642.689 C 735.122 644.025 740.356 645.885 742.184 649.149 L 741.553 650.831 C 739.165 648.722 734.715 646.023 731.93 644.209 L 731.8 642.689 z"/>
<path transform="translate(0,0)" fill="rgb(24,44,85)" d="M 1011.48 1522.98 C 1015.09 1516.55 1017.17 1510.58 1023.89 1508.04 C 1031.39 1508.17 1034.9 1517.37 1038.08 1523.22 C 1085.29 1538.22 1101.88 1555.24 1120.05 1601.05 L 1121.26 1601.73 C 1124 1603.24 1127.51 1605.2 1130.65 1605.48 C 1151.26 1607.31 1172.59 1607.13 1193.26 1607.74 C 1235.49 1608.85 1277.7 1610.31 1319.9 1612.12 C 1326.15 1612.41 1354.55 1613.22 1359.34 1615.03 C 1339.58 1618.46 1310.47 1617.49 1289.92 1618.6 C 1236.17 1621.49 1182.05 1621.55 1128.34 1624.41 C 1117.91 1624.97 1113.74 1647.14 1109.19 1655.73 C 1091.98 1688.24 1068.45 1703.78 1033.17 1711.54 C 1030.9 1717.51 1030.31 1721.4 1025.56 1725.43 C 1016.62 1727.78 1013.83 1716.52 1011.06 1709.68 C 978.747 1701.14 961.672 1690.3 942.709 1660.68 C 935.908 1650.05 934.18 1639.39 929.68 1628.67 C 908.836 1620.76 881.443 1623.38 858.683 1622.78 C 817.027 1621.52 775.365 1620.5 733.697 1619.72 C 724.248 1620.08 713.06 1619.39 703.484 1619.04 L 709.9 1616.95 C 713.666 1616.96 719.471 1616.36 723.384 1616.07 C 764.781 1613.72 806.192 1611.61 847.614 1609.76 C 868.944 1608.92 891.511 1608.88 912.845 1607.42 C 917.14 1607.13 925.071 1603.18 929.285 1601.18 C 948.006 1555.08 962.58 1538.13 1011.48 1522.98 z"/>
<path transform="translate(0,0)" fill="rgb(67,83,122)" d="M 709.9 1616.95 C 713.666 1616.96 719.471 1616.36 723.384 1616.07 L 721.928 1617.74 C 727.524 1620.18 729.434 1616.95 733.697 1619.72 C 724.248 1620.08 713.06 1619.39 703.484 1619.04 L 709.9 1616.95 z"/>
<path transform="translate(0,0)" fill="rgb(255,255,255)" d="M 1021.82 1526.29 L 1024.05 1524.61 C 1027.83 1525.83 1027.32 1528.6 1029.3 1530.12 L 1026.34 1532.27 L 1026.01 1534.36 L 1024.84 1538.68 L 1025.66 1539.36 C 1055.62 1563.94 1079.13 1567.24 1093.83 1609.67 C 1098.89 1611.35 1104.02 1612.99 1109 1614.87 C 1102.03 1617.25 1098.58 1619.03 1092.25 1623 C 1083.43 1644.12 1076.31 1655.78 1057.02 1668.93 C 1048.43 1674.79 1029.25 1683.79 1024.44 1692.08 C 1022.74 1697.07 1022.7 1699.27 1021.54 1703.88 C 1018.66 1703.99 1011.86 1701.39 1008.62 1700.33 C 982.568 1691.85 960.565 1674.87 947.51 1650.58 C 942.394 1641.06 941.805 1625.61 934.896 1619.23 C 931.275 1619.17 931.744 1618.66 928.113 1616.37 L 927.881 1614.41 C 930.102 1612.42 930.883 1612.49 933.77 1611.71 C 940.109 1605.61 943.129 1592.28 947.242 1583.33 C 951.947 1573.3 958.487 1564.24 966.523 1556.62 C 981.11 1542.72 998.217 1537.7 1016.6 1531.38 C 1018.25 1530.81 1020.67 1527.73 1021.82 1526.29 z"/>
<path transform="translate(0,0)" fill="rgb(255,255,255)" d="M 934.896 1619.23 C 942.231 1619.19 944.459 1621.17 950.516 1625.47 C 957.219 1641.28 958.567 1644.58 969.394 1657.31 C 985.089 1675.78 1018.18 1680.55 1021.54 1703.88 C 1018.66 1703.99 1011.86 1701.39 1008.62 1700.33 C 982.568 1691.85 960.565 1674.87 947.51 1650.58 C 942.394 1641.06 941.805 1625.61 934.896 1619.23 z"/>
<path transform="translate(0,0)" fill="rgb(255,255,255)" d="M 1021.82 1526.29 C 1021.08 1533.27 1018.25 1538.48 1012.58 1542.54 C 1003.91 1548.75 994.033 1553.28 984.932 1559.2 C 970.571 1568.54 962.542 1579.36 954.971 1594.67 C 952.776 1599.11 950.151 1605.5 947.488 1609.47 C 943.502 1611.33 940.957 1612.96 936.567 1613.07 L 933.77 1611.71 C 940.109 1605.61 943.129 1592.28 947.242 1583.33 C 951.947 1573.3 958.487 1564.24 966.523 1556.62 C 981.11 1542.72 998.217 1537.7 1016.6 1531.38 C 1018.25 1530.81 1020.67 1527.73 1021.82 1526.29 z"/>
<path transform="translate(0,0)" fill="rgb(24,44,85)" d="M 1021.82 1526.29 L 1024.05 1524.61 C 1027.83 1525.83 1027.32 1528.6 1029.3 1530.12 L 1026.34 1532.27 L 1026.01 1534.36 L 1024.84 1538.68 L 1019.32 1543.07 C 1013.62 1547.6 1003.17 1553.43 996.799 1557.38 C 972.443 1572.46 964.831 1584.29 954.684 1609.69 C 948.03 1614.09 946.737 1614.19 938.715 1614.47 C 944.256 1616.56 949.367 1618.3 954.581 1621.13 C 966.368 1648.77 973.65 1657.3 1000.22 1673.95 C 1007 1678.2 1015.89 1682.35 1020.3 1688.74 C 1021.32 1690.21 1022.8 1691.56 1024.44 1692.08 C 1022.74 1697.07 1022.7 1699.27 1021.54 1703.88 C 1018.18 1680.55 985.089 1675.78 969.394 1657.31 C 958.567 1644.58 957.219 1641.28 950.516 1625.47 C 944.459 1621.17 942.231 1619.19 934.896 1619.23 C 931.275 1619.17 931.744 1618.66 928.113 1616.37 L 927.881 1614.41 C 930.102 1612.42 930.883 1612.49 933.77 1611.71 L 936.567 1613.07 C 940.957 1612.96 943.502 1611.33 947.488 1609.47 C 950.151 1605.5 952.776 1599.11 954.971 1594.67 C 962.542 1579.36 970.571 1568.54 984.932 1559.2 C 994.033 1553.28 1003.91 1548.75 1012.58 1542.54 C 1018.25 1538.48 1021.08 1533.27 1021.82 1526.29 z"/>
<path transform="translate(0,0)" fill="rgb(24,44,85)" d="M 1003.78 1582.23 C 1011.23 1583.11 1019.33 1582.46 1027.04 1582.5 C 1035.54 1601.9 1043.66 1622.52 1052.8 1641.46 C 1049.05 1641.78 1045.13 1642.35 1041.37 1642.82 C 1039.82 1637.96 1038.71 1631.22 1035.76 1627.1 C 1033.8 1624.35 1031.74 1625.21 1028.17 1625.26 C 1021.66 1625.6 1014.57 1625.57 1008.01 1625.65 C 1006.02 1630.69 1003.6 1638.62 999.883 1641.88 C 995.641 1642.07 994.972 1642.18 990.9 1641.31 C 991.288 1636.81 1012.93 1598.92 1013.49 1586.14 L 1011.86 1584.5 C 1009.67 1584.85 1009.48 1585.01 1007.76 1586.33 L 1006.28 1587.48 C 1003.74 1585.11 1004.87 1586.44 1003.78 1582.23 z"/>
<path transform="translate(0,0)" fill="rgb(255,255,255)" d="M 1020.64 1593.74 C 1023.48 1596.55 1030.02 1612.74 1031.16 1616.99 C 1029.28 1618.54 1028.34 1618 1025.25 1618.13 L 1011.52 1618 L 1020.64 1593.74 z"/>
<path transform="translate(0,0)" fill="rgb(255,255,255)" d="M 1111.24 1617.84 C 1111.88 1618.24 1112.52 1618.63 1113.16 1619.02 C 1112.75 1621.09 1102.69 1646.42 1101.37 1649.5 C 1092.3 1670.76 1073.26 1688.44 1051.33 1695.79 C 1043.59 1698.39 1035.33 1700.63 1027.48 1703.58 L 1026.37 1703.06 C 1028.7 1685.89 1042.38 1684.32 1055.7 1676.06 C 1062.3 1671.92 1068.45 1667.09 1074.03 1661.66 C 1085.97 1649.92 1090.68 1639.43 1097.8 1624.6 C 1102 1621.96 1106.72 1619.95 1111.24 1617.84 z"/>
<path transform="translate(0,0)" fill="rgb(255,255,255)" d="M 1029.3 1530.12 C 1036.56 1532.89 1043.61 1534.55 1050.49 1537.32 C 1076.15 1547.66 1093.31 1563.93 1104.25 1589.38 C 1107.36 1596.62 1109.93 1603.82 1113.18 1611.05 C 1107.44 1609.31 1103.75 1608.25 1098.23 1605.69 C 1082.17 1572.95 1073.76 1565.02 1041.91 1545.55 C 1036.02 1541.95 1030.56 1537.16 1026.01 1534.36 L 1026.34 1532.27 L 1029.3 1530.12 z"/>
<path transform="translate(0,0)" fill="rgb(24,44,85)" d="M 495.157 1085.66 C 502.741 1092.25 547.586 1207.3 556.74 1224.9 C 573.292 1256.74 562.761 1264.57 602.392 1279.72 C 576.297 1281.54 537.138 1280.7 509.816 1280.91 C 533.698 1269.29 526.716 1259.61 515.845 1239.06 C 493.785 1238.06 471.691 1238.07 449.632 1239.07 C 447.598 1244.05 445.467 1249.13 443.6 1254.15 C 437.537 1270.45 443.595 1274.32 457.251 1279.88 C 414.736 1280.96 371.877 1280.28 329.319 1280.65 C 308.551 1280.83 287.345 1280.85 266.596 1280.18 C 302.595 1271.16 293.313 1251.68 293.191 1219.5 C 293.205 1186.6 293.396 1153.32 292.868 1120.38 C 292.554 1100.81 278.798 1106.9 268.639 1097.94 C 272.734 1094.17 359.471 1094.56 363.724 1098.39 C 359.232 1102.91 338.192 1099.95 337.345 1113.61 C 336.297 1130.51 336.757 1147.5 336.798 1164.44 L 336.924 1262.81 C 352.812 1262.9 369.088 1263.19 384.935 1262.67 C 397.891 1255.34 401.857 1244.53 407.903 1231.75 C 408.63 1244.77 408.974 1257.8 408.934 1270.84 C 431.043 1247.37 478.286 1121.27 495.157 1085.66 z"/>
<path transform="translate(0,0)" fill="rgb(255,255,255)" d="M 483.984 1158.46 C 491.021 1171.57 503.49 1206.06 509.368 1221.08 L 482.5 1221.05 L 456.732 1221.23 C 465.106 1202.12 475.1 1176.67 483.984 1158.46 z"/>
<path transform="translate(0,0)" fill="rgb(24,44,85)" d="M 1000.91 1097.43 C 1027.51 1094.64 1057.28 1098.01 1083.84 1096.89 C 1126.29 1095.1 1171.43 1103.88 1162.62 1158.67 C 1159.93 1175.42 1150.4 1185.39 1137.25 1194.68 C 1137.67 1195.95 1138.12 1197.21 1138.59 1198.46 C 1145.59 1216.92 1164.31 1253.9 1178.41 1267.4 C 1184.84 1273.55 1190.36 1276.15 1198.26 1279.7 C 1167.84 1280.41 1141.68 1283.19 1120.73 1257.08 C 1106.91 1239.67 1098.88 1219.58 1091.31 1198.98 L 1068 1198.85 C 1067.89 1216.84 1065.96 1248.85 1070.39 1265.54 C 1072.28 1272.65 1085.21 1277.04 1091.89 1279.64 C 1076.46 1280.61 1057.14 1279.84 1041.39 1280.23 C 1033.45 1280.43 1011.05 1280.76 1004.79 1279.67 C 1009.01 1273.38 1019.31 1273.52 1023.08 1265.66 C 1024.2 1263.31 1024.64 1260.98 1024.77 1258.38 C 1025.6 1242.04 1025.42 1116.94 1021.71 1108.98 C 1017.94 1100.89 1007.69 1101.73 1000.63 1099.13 L 1000.91 1097.43 z"/>
<path transform="translate(0,0)" fill="rgb(255,255,255)" d="M 1067.94 1117.88 C 1079.9 1117.54 1100.13 1115.74 1109.24 1123.42 C 1124.09 1135.92 1122.21 1160.27 1110.78 1174.12 C 1097.93 1184.96 1083.94 1183.9 1068 1184.09 C 1067.66 1162.31 1067.94 1139.72 1067.94 1117.88 z"/>
<path transform="translate(0,0)" fill="rgb(24,44,85)" d="M 161.652 1058.43 C 188.32 1056.72 215.031 1061.03 239.811 1071.03 C 239.967 1090.32 240.446 1110.63 239.879 1129.84 C 234.325 1118.97 231.286 1109.33 223.058 1099.84 C 201.514 1074.51 153.363 1075.67 129.879 1097.87 C 94.4695 1131.34 96.3181 1206.52 128.644 1241.22 C 140.761 1254.38 157.686 1262.07 175.567 1262.55 C 190.369 1262.98 206.822 1258.89 205.398 1241.04 C 204.321 1227.56 208.291 1207.87 200.243 1196 C 198.297 1193.13 184.316 1190.89 180.864 1187.36 C 182.896 1185.76 184.106 1186.07 186.748 1186.06 L 187.75 1186.07 C 210.497 1186.02 254.007 1184.68 275.286 1186.72 C 271.662 1188.11 256.95 1192.29 255.978 1195.13 C 250.23 1211.93 253.003 1242.46 252.491 1260.49 C 236.203 1275.09 202.459 1280.74 181.445 1282.09 C 148.589 1284.51 115.809 1280.66 90.0232 1258.45 C 45.7132 1220.28 41.1448 1137.06 80.2902 1093.85 C 101.297 1070.67 130.789 1060.24 161.652 1058.43 z"/>
<path transform="translate(0,0)" fill="rgb(24,44,85)" d="M 1157.96 1065.38 C 1187.96 1065.15 1217.96 1065.31 1247.96 1065.86 C 1238.77 1070.46 1230.25 1074.14 1234.26 1086.02 C 1239.51 1101.53 1246.16 1116.53 1252.57 1131.6 C 1263.75 1157.34 1274.48 1183.27 1284.75 1209.39 C 1292.46 1192.41 1335.04 1087.26 1332.72 1077.28 C 1331.43 1071.68 1324.4 1068.52 1319.86 1065.92 C 1340.64 1065.19 1366.06 1065 1386.83 1065.69 C 1373.93 1072.63 1366.47 1077.26 1360 1090.96 C 1337.86 1151.96 1309.08 1212.14 1285.12 1272.54 C 1283.76 1275.98 1281.12 1279.86 1278.4 1282.34 C 1273.2 1283.75 1269.31 1283.43 1266.66 1278.18 C 1261.12 1267.19 1256.26 1255.5 1251.34 1244.24 C 1235.24 1206.89 1218.88 1169.66 1202.26 1132.55 C 1197.34 1121.53 1192.49 1110.03 1187.67 1098.99 C 1179.99 1081.39 1173.82 1076.54 1157.68 1067.3 L 1157.96 1065.38 z"/>
<path transform="translate(0,0)" fill="rgb(24,44,85)" d="M 1524.44 1096.35 C 1543.09 1095.62 1597.69 1094.98 1614.64 1097.37 C 1611.52 1098.04 1608.33 1098.49 1605.18 1099 C 1599.51 1099.91 1593.29 1101.39 1589.96 1106.56 C 1587.72 1110.05 1587.15 1114.71 1586.86 1118.75 C 1585.85 1133.13 1587.07 1148.16 1587.09 1162.61 C 1587.12 1182.87 1584.08 1213.29 1588.45 1232.12 C 1590.72 1241.87 1595.89 1250.59 1604.57 1255.88 C 1614.98 1262.23 1629.83 1263.18 1641.55 1260.07 C 1651.29 1257.48 1660.86 1251.03 1665.61 1241.99 C 1668.42 1236.65 1669.87 1230.55 1670.51 1224.57 C 1672.01 1210.53 1673.79 1117.84 1670.09 1109.03 C 1666.87 1101.39 1655.57 1099.05 1648.53 1096.59 C 1663.8 1095.6 1681.98 1096.01 1697.5 1096.01 L 1719.39 1096.15 C 1694.09 1106.58 1696.5 1102.25 1696.72 1131.54 L 1696.83 1180.28 C 1696.85 1203.74 1699.21 1243.79 1682.08 1261.22 C 1653.99 1289.81 1589.24 1289.3 1560.66 1261.31 C 1538.97 1240.06 1543.06 1208.44 1542.88 1180.9 C 1542.76 1161.29 1543.17 1142.54 1542.97 1123.01 C 1542.72 1096.44 1529.95 1104.74 1522.53 1097.64 L 1524.44 1096.35 z"/>
<path transform="translate(0,0)" fill="rgb(24,44,85)" d="M 1428.59 1092.76 C 1430.73 1093.09 1433.33 1093.35 1435.27 1094.33 C 1442.25 1097.82 1476.02 1183.93 1481.55 1196.71 C 1489.23 1214.46 1505.27 1257.97 1518.01 1269.83 C 1523.45 1274.9 1529.86 1277.32 1536.64 1280.01 C 1507.81 1280.7 1476.19 1279.98 1447.14 1279.9 C 1449.74 1278.92 1455.36 1276.95 1457.56 1275.58 C 1471.78 1266.71 1458.28 1245.57 1452.15 1235.02 L 1437.59 1235.02 L 1392.38 1235.06 C 1382.12 1257.99 1371.22 1270.59 1401.18 1279.88 C 1378.48 1280.59 1352.02 1280.25 1329.23 1279.97 C 1335.79 1277.85 1343.58 1275.72 1348.23 1270.12 C 1352.36 1265.24 1355.36 1259.47 1357.96 1253.63 C 1374.07 1217.34 1389.43 1180.7 1404.89 1144.13 C 1411 1129.69 1415.68 1114.64 1422.41 1100.46 C 1424.06 1096.99 1425.6 1095.08 1428.59 1092.76 z"/>
<path transform="translate(0,0)" fill="rgb(255,255,255)" d="M 1421.41 1161.54 C 1426.03 1165.88 1443.07 1210.56 1446.15 1218.32 L 1424.97 1218.18 L 1397.94 1218.16 C 1405.54 1197.98 1412.7 1181.18 1421.41 1161.54 z"/>
<path transform="translate(0,0)" fill="rgb(24,44,85)" d="M 985.478 1094.34 L 986.628 1094.4 C 987.907 1099.62 986.721 1134.94 986.492 1142.1 C 983.864 1135.93 982.198 1131.36 977.485 1126.32 C 965.566 1113.58 939.94 1115.91 922.988 1115.97 L 923.003 1177.8 C 948.454 1177.93 958.658 1182.27 971.771 1157.8 L 971.886 1220.91 C 967.705 1210.73 966.367 1206.6 958.883 1198.49 C 945.604 1195.42 936.586 1196.05 923.05 1196.22 L 922.994 1260.28 C 957.488 1261.4 980.395 1267.1 997.516 1231.29 L 998.437 1230.21 L 999.364 1230.77 C 998.732 1242.11 993.789 1268.16 991.563 1280.05 L 898.66 1280.02 C 885.525 1280.01 860.769 1280.68 848.747 1278.75 C 854.575 1276.94 861.05 1276.09 867.112 1275.08 C 871.416 1271.74 876.864 1266.42 877.789 1260.53 C 879.557 1249.26 878.965 1237.75 879 1226.3 C 879.106 1191.39 878.613 1156.4 878.869 1121.48 C 878.909 1116.05 876.811 1109.97 872.787 1106.23 C 867.589 1101.4 858.102 1102.84 853.249 1098.29 C 857.614 1092.88 966.592 1099.08 985.478 1094.34 z"/>
<path transform="translate(0,0)" fill="rgb(24,44,85)" d="M 673.51 1093.34 C 694.612 1090.29 712.317 1098.65 732.253 1102.17 C 735.752 1100.35 739.554 1098.1 743.032 1096.15 L 743.066 1142.19 C 731.154 1129.37 718.844 1115.72 700.985 1112.82 C 686.585 1110.6 671.894 1114.18 660.131 1122.78 C 626.253 1147.81 622.246 1205.45 647.265 1237.85 C 667.31 1263.82 701.523 1271.7 728.272 1249.72 C 735.294 1243.5 741.59 1234.71 747.305 1227.16 C 746.48 1241.33 744.198 1256.1 741.88 1270.08 C 701.75 1284.42 658.088 1288.67 621.872 1261.98 C 602.308 1247.78 589.329 1226.25 585.894 1202.32 C 582.499 1177.25 589.076 1151.85 604.211 1131.58 C 621.934 1108.2 645.007 1097.17 673.51 1093.34 z"/>
<path transform="translate(0,0)" fill="rgb(24,44,85)" d="M 1987.6 1086.26 L 1989.53 1087.16 C 1991.57 1090.81 1991.83 1136.32 1986.89 1139.16 C 1971.3 1131.36 1994.82 1115.42 1939.01 1116.04 C 1939.14 1165.55 1938.21 1216.26 1939.07 1265.63 C 1944.9 1275.31 1948.45 1275.95 1958.87 1280.02 L 1872.7 1279.84 C 1886.23 1275.65 1891.77 1275.01 1894.88 1260.28 L 1894.74 1115.44 C 1884.72 1115.3 1868.59 1114.12 1860.19 1119.09 C 1853.41 1123.1 1852.55 1129.37 1850.67 1136.43 C 1848.03 1139.1 1849.53 1138.44 1846.4 1139.16 L 1844.68 1137.73 C 1841.33 1130.35 1839.94 1093.23 1845.2 1087.66 L 1847.52 1087.87 C 1850.58 1089.73 1850.87 1091.3 1852.36 1094.59 L 1852.89 1095.81 C 1884.78 1096.61 1917.01 1095.73 1948.93 1096.13 C 1958.67 1096.25 1970.83 1096.63 1980.23 1094.7 C 1982.95 1090.59 1983.69 1089.14 1987.6 1086.26 z"/>
<path transform="translate(0,0)" fill="rgb(24,44,85)" d="M 1723.69 1096.42 C 1733.03 1095.6 1746.93 1095.97 1756.5 1095.97 C 1775.7 1095.87 1794.9 1095.95 1814.09 1096.21 C 1805.1 1099.67 1791.24 1100.64 1790.19 1112.69 C 1788.89 1127.49 1789.81 1142.43 1789.49 1157.26 C 1788.72 1192.45 1790.69 1228.51 1788.92 1263.6 C 1822.81 1263.4 1835.73 1268.73 1857.57 1239.84 L 1857.82 1254.97 L 1857.95 1279.87 L 1724.59 1279.93 C 1739.48 1274.95 1746.43 1271.42 1745.77 1254.08 C 1744.01 1207.74 1748.24 1156.93 1744.81 1110.98 C 1736.27 1098.28 1728.1 1102.12 1723.69 1096.42 z"/>
<path transform="translate(0,0)" fill="rgb(24,44,85)" d="M 563.242 1341.82 C 582.197 1341.68 603.279 1340.4 621.881 1342.75 C 651.493 1346.48 664.983 1374.65 636.396 1393.01 C 653.736 1400.33 662.038 1410.96 655.714 1430.26 C 639.235 1454.47 590.732 1448.07 563.238 1448 L 563.242 1341.82 z"/>
<path transform="translate(0,0)" fill="rgb(255,255,255)" d="M 583.681 1402.1 C 598.482 1401.91 621.205 1399.51 633.878 1407.76 C 641.216 1412.54 637.145 1422.48 632.52 1427.96 C 619.62 1434.23 598.475 1432.73 583.819 1432.75 L 583.681 1402.1 z"/>
<path transform="translate(0,0)" fill="rgb(255,255,255)" d="M 583.215 1357.73 C 594.653 1357.6 607.397 1356.79 618.656 1358.72 C 632.305 1361.06 636.404 1370.94 627.408 1382.09 C 615.836 1389.16 597.413 1387.4 583.419 1387.47 C 583.209 1377.71 583.277 1367.52 583.215 1357.73 z"/>
<path transform="translate(0,0)" fill="rgb(24,44,85)" d="M 761.695 1096.44 C 771.737 1096.05 845.993 1094.84 850.885 1098.01 C 847.253 1102.51 828.2 1101.36 828.078 1117.66 C 827.9 1162.42 827.375 1207.31 828.243 1252.06 C 828.735 1277.45 841.029 1269.61 851.331 1278.26 L 850.631 1279.63 L 847.25 1280.1 C 820.042 1280.01 780.416 1281.14 754.139 1279.35 C 760.551 1276.49 767.807 1275.83 773.998 1272.69 C 777.411 1270.96 780.816 1268.27 781.978 1264.48 C 786.176 1250.8 785.206 1141.11 783.524 1122.08 C 783.102 1117.31 782.433 1110.83 779.958 1106.72 C 777.657 1102.9 763.853 1100.03 759.49 1098.88 L 759.176 1097.57 L 761.695 1096.44 z"/>
<path transform="translate(0,0)" fill="rgb(24,44,85)" d="M 58.0712 1384.16 L 493.095 1383.81 C 493.136 1390.57 493.332 1397.25 492.655 1403.97 C 437.512 1403.2 381.558 1403.88 326.314 1403.84 L 57.9559 1403.91 L 58.0712 1384.16 z"/>
<path transform="translate(0,0)" fill="rgb(24,44,85)" d="M 1559.09 1383.66 C 1576.52 1383.34 1595.3 1383.87 1612.94 1383.8 C 1665.99 1383.41 1719.04 1383.43 1772.09 1383.86 L 1988.96 1384 C 1989.04 1390.65 1988.76 1397.06 1988.5 1403.7 L 1559 1403.36 C 1558.82 1396.64 1558.94 1390.39 1559.09 1383.66 z"/>
<path transform="translate(0,0)" fill="rgb(24,44,85)" d="M 847.522 1340.74 L 865.219 1340.98 C 890.218 1368.08 915.828 1394.61 942.029 1420.55 L 941.977 1340.81 L 961.547 1340.84 C 962.392 1375.25 961.543 1413.22 961.444 1447.95 L 942.684 1448.1 C 934.851 1437.34 921.021 1423.65 911.507 1413.91 L 866.946 1368.51 L 867.044 1448.96 L 847.661 1448.84 C 847.922 1412.81 847.202 1376.73 847.522 1340.74 z"/>
<path transform="translate(0,0)" fill="rgb(24,44,85)" d="M 1256.71 1340.03 L 1272.89 1340.42 C 1274.99 1345.37 1277.36 1350.23 1279.87 1354.99 C 1296.31 1386.19 1312.03 1417.96 1330.22 1448.19 L 1308.04 1448.23 L 1295.43 1423.28 L 1272.5 1423.29 C 1258.69 1423.3 1244.89 1423.41 1231.08 1423.61 C 1226.83 1431.32 1222.76 1440.2 1218.9 1448.19 L 1198.26 1448.11 L 1256.71 1340.03 z"/>
<path transform="translate(0,0)" fill="rgb(255,255,255)" d="M 1262.84 1362.51 C 1266.91 1364.89 1284.56 1401.38 1288.08 1408.33 L 1263.75 1408.62 C 1255.61 1408.75 1247.88 1408.6 1239.74 1408.4 C 1244.95 1395.26 1255.97 1375.55 1262.84 1362.51 z"/>
<path transform="translate(0,0)" fill="rgb(24,44,85)" d="M 751.686 1340.57 L 753.489 1340.37 C 756.616 1342.19 762.896 1356.6 765.058 1360.69 C 780.516 1389.89 796.198 1418.96 810.989 1448.51 L 789.772 1448.67 L 776.922 1423.27 L 746.209 1423.37 C 736.2 1423.29 728.345 1423.3 718.297 1424 L 705.706 1447.81 C 698.89 1448.08 691.574 1448.06 684.712 1448.16 C 693.223 1430.56 704.168 1411.84 713.483 1394.32 C 722.021 1378.27 731.439 1357.3 740.605 1342.23 C 743.34 1340.55 748.274 1340.75 751.686 1340.57 z"/>
<path transform="translate(0,0)" fill="rgb(255,255,255)" d="M 747.213 1365.58 C 751.559 1370.22 767.649 1402.87 770.312 1409.64 L 748.75 1408.82 L 725.467 1408.87 C 731.948 1394.07 739.207 1379.62 747.213 1365.58 z"/>
<path transform="translate(0,0)" fill="rgb(24,44,85)" d="M 1417.45 1339.4 C 1434.84 1339.13 1449.35 1342.1 1465.17 1349.01 L 1465.06 1369.46 C 1446.84 1357.97 1432.55 1354.03 1410.78 1356.15 C 1374.4 1359.7 1357.09 1407.08 1390.69 1427.43 C 1408.44 1438.18 1430.13 1438.5 1450.02 1433.81 L 1449.92 1408.94 C 1443.13 1408.96 1427.33 1410.95 1422.4 1407.82 L 1421.81 1403.93 C 1421.79 1400.35 1421.37 1397.81 1423.04 1394.72 C 1430.34 1393.43 1460.2 1394.03 1468.97 1394.04 L 1469.17 1444.29 C 1440.69 1454.81 1398.24 1456.35 1372.88 1436.99 C 1350.1 1419.61 1346.34 1384.48 1365.12 1362.73 C 1379.29 1346.32 1396.63 1341.1 1417.45 1339.4 z"/>
<path transform="translate(0,0)" fill="rgb(24,44,85)" d="M 1086.73 1340.92 L 1112.1 1341.04 C 1102 1352.21 1075.17 1375.46 1062.55 1387.16 L 1094.09 1423.32 C 1101.68 1431.59 1109.21 1439.93 1116.67 1448.33 L 1092.18 1448 C 1078.74 1434.06 1063.05 1414.78 1050.22 1399.69 C 1046.26 1402.16 1037.72 1409.47 1033.33 1412.82 L 1033.48 1448.02 L 1013.52 1447.99 C 1014 1413.14 1013.07 1375.99 1012.97 1340.94 L 1032.95 1340.95 L 1032.83 1391.33 C 1052.16 1374.53 1068.46 1359.02 1086.73 1340.92 z"/>
<path transform="translate(0,0)" fill="rgb(45,50,80)" d="M 1989.98 995.247 C 1996.06 995.92 2002.36 996.528 2008.4 997.307 C 1998.5 998.074 1991.46 998.098 1981.58 997.955 C 1986.2 996.217 1985.79 998.085 1989.98 995.247 z"/>
<path transform="translate(0,0)" fill="rgb(129,136,156)" d="M 703.484 1619.04 C 700.43 1619.1 698.956 1619.31 695.986 1618.42 C 701.57 1616.83 704.159 1617.05 709.9 1616.95 L 703.484 1619.04 z"/>
</svg>