<svg version="1.1" xmlns="http://www.w3.org/2000/svg" style="display: block;" viewBox="0 0 1638 2048" width="1024" height="1280" preserveAspectRatio="none">
<path transform="translate(0,0)" fill="rgb(255,255,255)" d="M 0 0 L 1638 0 L 1638 2048 L 0 2048 L 0 0 z"/>
<path transform="translate(0,0)" fill="rgb(26,53,89)" d="M 370.165 86.7735 C 370.669 87.1814 371.173 87.5894 371.677 87.9973 C 373.216 100.102 375.626 117.133 377.989 128.519 C 389.542 184.18 409.613 238.97 432.368 290.993 C 429.536 262.726 426.656 235.683 428.225 207.209 C 430.781 160.803 434.266 110.579 484.868 92.866 C 459.103 162.466 478.747 260.395 495.593 329.896 C 497.245 282.988 506.06 172.085 566.69 156.032 C 579.967 152.517 594.008 158.332 605.272 165.754 C 581.96 179.599 569.767 191.762 558.281 217.291 C 527.557 285.581 532.414 368.751 544.284 440.745 C 547.588 460.785 554.117 491.387 561.089 510.507 C 563.614 472.404 566.794 455.226 606.119 441.894 C 586.201 489.984 583.516 546.974 602.674 596.376 C 609.461 611.995 618.955 626.451 627.346 641.262 C 662.516 703.335 679.88 770.5 705.763 836.567 C 734.808 814.813 778.251 761.384 803.035 731.955 C 815.21 738.97 827.82 745.202 840.789 750.611 C 849.173 729.711 865.058 695.519 884.36 683.031 C 893.435 677.159 903.448 675.353 911.591 665.75 C 921.224 654.654 927.089 638.394 936.406 627.34 C 976.147 580.19 1015.93 532.363 1056.71 486.148 C 1067.23 499.347 1120.6 578.321 1128.77 582.84 C 1132.5 584.9 1138.03 587.25 1140.8 590.474 C 1148.1 598.974 1172.64 653.908 1179.88 668.799 C 1189.67 665.792 1201.17 659.534 1212.8 655.915 C 1228.86 688.795 1248 720.712 1264.65 753.33 C 1274.14 771.916 1288.13 779.055 1304.15 791.671 C 1305.45 796.414 1307.3 802.156 1309.14 806.825 C 1323.36 842.901 1331.23 883.626 1354.19 915.405 C 1358.16 920.908 1361.78 926.571 1365.47 932.085 C 1383.6 924.729 1404.48 914.483 1422.47 906.12 C 1433.26 920.417 1442.77 940.325 1455.2 955.143 C 1460.94 961.98 1481.95 983.681 1483.76 987.944 C 1494.84 1014.03 1580.75 1219.25 1581.48 1230.29 C 1571.09 1213.33 1562.11 1191.5 1553.32 1173.26 L 1497.55 1055.49 C 1490.42 1040.18 1479.55 1015.23 1471.68 1001.1 C 1460.83 987.011 1449.28 973.062 1438.11 959.216 C 1430.99 950.39 1422.81 936.392 1415.25 928.854 C 1422.13 955.352 1432.34 985.73 1440.41 1012.24 C 1431.35 1000.24 1421.27 986.343 1413.11 973.87 C 1411.58 987.231 1411.69 999.371 1409.69 1013.52 C 1437.85 1058 1470.59 1100.32 1500.22 1143.83 C 1503.3 1148.35 1506.54 1152.84 1509.43 1157.47 L 1508.44 1157.24 C 1485.5 1134.29 1458.91 1101.49 1437.77 1076.38 C 1419.23 1054.35 1395.87 1024.47 1379.92 1000.41 C 1369.13 984.125 1357.38 953.785 1347.44 935.911 C 1339.61 921.815 1329.21 907.436 1322.71 892.911 C 1317.84 882.026 1313.73 868.78 1309.61 857.337 C 1302.59 838.304 1295.72 819.216 1289 800.073 C 1259.1 777.683 1261.11 780.585 1243.05 745.804 C 1231.67 723.886 1217.16 697.209 1204.29 676.111 C 1194.39 680.775 1182.27 685.469 1172.03 689.714 C 1156.6 662.014 1145.01 631.823 1129.33 604.279 C 1126.5 599.318 1115.81 597.078 1112.27 592.674 C 1107.16 586.311 1102.28 579.565 1097.38 573.004 C 1086.19 558.295 1075.34 543.333 1064.84 528.128 C 1060.02 559.232 1047.15 600.74 1038.39 631.873 C 1044.26 644.346 1054.48 661.019 1061.54 673.311 C 1046.78 718.296 1056.92 745.782 1057.06 791.335 C 1043.23 763.666 1039.93 753.246 1012.31 736.804 C 973.046 795.153 892.187 861.594 837.719 906.914 C 828.892 914.26 804.659 933.957 795.856 939.437 C 843.359 885.948 889.238 831.038 933.428 774.781 C 917.777 777.796 901.273 780.152 885.476 782.634 C 904.939 770.049 921.098 756.453 939.239 742.296 C 975.441 714.046 1003.06 690.589 1034.05 656.726 L 1028.83 645.139 C 993.459 675.742 967.939 694.267 928.643 719.685 C 960.873 667.478 995.449 607.646 1026.11 553.975 C 1001.23 582.53 975.425 610.548 951.269 639.679 C 940.945 652.129 931.406 671.127 920.664 682.926 C 910.394 694.205 898.442 691.588 886.359 705.331 C 871.769 722.278 865.595 743.921 854.029 762.49 C 850.258 767.383 845.513 772.202 841.225 776.603 C 813.296 805.27 790.283 837.864 765.205 869.094 C 778.866 830.051 792.868 794.875 805.866 754.789 C 776.445 790.229 748.412 821.839 713.155 851.687 C 734.83 907.785 774.211 980.147 811.331 1029.23 C 830.944 1047.28 867.781 1065.68 893.009 1067.2 C 939.964 1070.03 1027.85 1085.73 1052.83 1129.91 C 1078.92 1140.63 1105.44 1156.12 1103.48 1189.05 C 1102.54 1205.02 1094.9 1214.73 1083.31 1225.02 C 1082.17 1213.88 1081.47 1209.7 1076.79 1199.63 C 1067.4 1199.6 1055.85 1201.04 1046.57 1201.12 C 1007.29 1201.47 993.513 1208.52 965.295 1235.11 C 990.018 1284.2 1035.27 1325.93 1077.02 1360.29 C 1106.1 1383.48 1136.4 1405.11 1167.78 1425.08 C 1245.53 1473.59 1289.48 1494.21 1333.57 1579.38 C 1328.29 1578.02 1322.2 1576.02 1316.9 1574.41 C 1326.8 1583.56 1349.66 1593 1361.98 1599.08 C 1418.89 1627.18 1520.38 1656.08 1582.81 1632.64 C 1552.01 1692 1479.39 1684.32 1426.3 1663.99 C 1468.4 1695.51 1531.29 1726.26 1584.36 1730.55 C 1573.91 1738.47 1562.1 1744.41 1549.51 1748.07 C 1499.62 1762.89 1444.13 1734.31 1401.4 1711.11 C 1436.06 1748.14 1497.38 1794.63 1545 1812.98 C 1533.84 1817.95 1522 1821.19 1509.87 1822.59 C 1457.28 1828.45 1412.02 1795.9 1373.09 1765.14 C 1399.33 1807.23 1445.99 1860.01 1486.33 1888.13 C 1474.05 1889.45 1463.97 1890.21 1451.52 1889.2 C 1399.37 1884.97 1354.76 1838.23 1323.19 1799.92 C 1337.2 1834.97 1355.21 1872.62 1376.84 1903.72 C 1381.66 1910.66 1392.4 1921.41 1398.45 1929.07 L 1397.63 1930.48 C 1386.06 1934.16 1371.83 1932.06 1360.49 1928.42 C 1308.39 1911.7 1276.21 1855.12 1252.63 1808.97 C 1263.87 1855.16 1271.73 1882.41 1288.25 1926.52 C 1279.93 1925.56 1271.74 1923.66 1263.84 1920.86 C 1222.48 1905.79 1198.73 1866.93 1181.29 1829.43 C 1179.24 1857.35 1179.73 1876.94 1195.52 1900.56 C 1157.15 1891.01 1128.32 1863.75 1109.99 1829.67 C 1107.76 1825.51 1105.69 1821.46 1103.14 1817.46 L 1102.63 1816.68 C 1103.49 1831.91 1104.51 1843.65 1108.47 1858.52 C 1068.21 1844.43 1051.53 1818.52 1031.92 1783.56 C 1031.02 1793.05 1030.19 1800.46 1028.59 1809.88 C 1005.91 1794.74 982.962 1776.03 970.71 1751.35 C 949.771 1740.43 935.918 1728.67 917.028 1714.96 C 910.554 1710.26 892.3 1705.61 883.93 1700.44 C 874.566 1694.66 871.107 1689.03 862.745 1682.4 C 858.652 1682.64 854.825 1683.12 850.981 1681.51 C 830.396 1672.92 814.17 1658.93 801.008 1641.29 C 771.515 1629.52 767.5 1616.9 754.905 1587.79 C 734.476 1574.42 728.126 1560.57 716.908 1539.57 C 716.802 1539.37 707.528 1534.24 706.412 1532.92 C 696.847 1521.55 679.313 1491.74 677.694 1477.24 C 661.327 1466.18 646.348 1445.92 637.584 1428.38 C 622.424 1419.01 608.759 1407.42 597.046 1394 C 591.43 1411.46 579.461 1435.47 571.884 1452.95 C 558.378 1482.82 545.784 1513.33 529.512 1541.84 C 515.693 1566.06 506.914 1575.6 478.545 1572.85 L 460.777 1554.21 L 452.543 1559.89 C 440.026 1560.16 427.064 1559.46 414.516 1558.97 C 406.17 1552.44 399.091 1544.68 391.709 1537.07 C 379.266 1536.05 365.241 1533.94 352.852 1532.24 C 346.527 1521.02 339.279 1507.98 334.234 1496.24 L 294.483 1487.37 C 290.825 1477.73 284.613 1454.15 283.494 1444.17 C 272.556 1440.67 261.774 1436.37 250.509 1432.82 C 246.887 1413.44 242.797 1403.04 249.655 1384.54 C 238.449 1376.02 226.3 1367.15 216.024 1357.66 C 222.399 1343.23 229.679 1329.47 241.02 1318.33 C 234.744 1308.91 228.487 1299.34 223.48 1289.19 C 229.763 1279.39 242.68 1264.81 250.753 1256.58 C 245.589 1245.34 239.394 1233.96 233.619 1222.96 C 241.596 1217.63 250.56 1212.43 259.971 1210.25 C 325.122 1195.13 417.437 1202.17 482.504 1213.77 C 464.016 1195.25 451.638 1182.44 437.643 1160.29 C 412.482 1153.28 392.76 1125.33 378.319 1104.47 C 351.307 1129.95 310.55 1162.38 286.87 1188.82 C 297.873 1165.12 311.599 1142.83 322.53 1117.88 C 313.109 1117.09 303.681 1116.38 294.247 1115.76 C 280.272 1132.52 266.155 1149.17 251.898 1165.69 C 241.749 1160.92 231.323 1157.28 220.799 1153.41 C 182.097 1185.31 144.772 1218.84 108.928 1253.91 C 98.2491 1264.25 87.6653 1274.69 77.1783 1285.23 C 72.8059 1289.7 64.5849 1299.4 60.3119 1302.59 C 84.8231 1254.22 146.523 1197 186.898 1161.12 C 193.713 1155.06 211.858 1138.81 219.001 1135.05 C 228.815 1138.36 238.601 1141.76 248.357 1145.24 C 261.421 1130.17 274.237 1114.88 286.798 1099.39 C 300.68 1099.78 314.566 1100 328.454 1100.05 C 335.27 1087.31 341.135 1074.08 346.003 1060.48 C 343.568 1055.04 335.817 1033 333.562 1030.92 C 312.349 1011.36 305.931 991.965 296.784 965.333 C 295.517 961.641 283.992 950.689 281.4 945.074 C 277.205 936.302 271.604 924.161 269.821 914.574 C 267.027 899.549 264.026 897.206 256.134 885.167 C 246.815 870.95 242.961 852.701 240.825 835.859 C 212.851 812.336 205.361 797.472 199.749 762.34 C 181.028 744.083 172.765 715.62 176.628 689.989 C 175.303 688.405 174.026 686.781 172.799 685.12 C 159.669 667.603 154.736 649.39 157.919 627.633 C 140.258 603.723 139.019 574.714 141.217 546.335 C 123.597 523.167 112.034 504.127 101.407 476.953 C 123.835 478.916 141.104 478.43 163.427 477.972 C 129.185 457.157 99.8702 434.963 85.7456 395.206 C 108.485 400.394 132.394 402.888 155.54 406.144 C 175.621 409.113 195.642 412.477 215.591 416.233 C 170.35 384.307 116.814 338.55 127.217 276.63 C 166.658 311.481 199.72 325.29 246.492 349.787 C 240.207 339.864 231.673 330.155 225.001 320.354 C 198.266 281.086 164.029 229.294 188.045 181.453 C 214.164 227.466 263.169 278.706 303.009 312.947 C 296.274 298.101 286.938 283.783 280.886 268.537 C 262.467 222.13 234.885 156.862 272.002 113.362 C 291.386 165.594 323.642 227.921 357.706 272.469 C 346.572 230.222 335.353 174.649 342.264 130.748 C 345.286 111.547 354.178 97.6808 370.165 86.7735 z"/>
<path transform="translate(0,0)" fill="rgb(255,255,255)" d="M 821.417 1056.11 C 858.556 1079.51 879.938 1081.38 921.902 1085.35 C 958.669 1088.82 1005.69 1102.51 1034.28 1126.5 C 1032.6 1136.31 1031.6 1140.78 1027.73 1149.96 C 1001.2 1134.06 990.432 1133.82 959.524 1129.44 C 948.504 1127.88 939.327 1126.67 929.231 1121.74 C 935.143 1131.34 939.093 1137.53 949.493 1142.96 L 949.785 1142.14 L 938.93 1129.96 C 944.122 1131.32 950.638 1132.9 954.744 1134.26 C 975.248 1138.15 966.702 1147.68 970.332 1152.52 C 983.555 1170.15 995.176 1164.15 1000.4 1148.14 L 1001.56 1147.73 C 1006.12 1150.19 1006.94 1150.93 1010.68 1154.28 L 1010.62 1156.29 C 1006.39 1162.49 997.47 1167.54 990.88 1170.86 L 992.336 1172.38 C 995.7 1171.02 997.933 1169.68 1001.47 1170.07 L 1002.28 1170.8 C 999.211 1174.04 969.533 1188.44 964.385 1190.63 L 962.946 1192.72 L 959.396 1193.07 L 957.516 1195.83 C 958.778 1196.67 974.504 1190.58 977.254 1189.3 C 995.374 1180.86 1043.73 1182.39 1061.56 1189.55 C 1056.77 1190.75 1049.48 1190.42 1044.53 1190.29 C 1018.65 1189.68 996.959 1190.58 975.877 1207.21 C 949.114 1228.33 929.44 1254.04 914.796 1284.86 C 912.053 1281.29 909.351 1277.7 906.69 1274.07 C 897.735 1261.74 895.485 1253.24 897.845 1238.43 C 877.407 1265.91 878.664 1259.57 853.953 1279.48 C 846.086 1263.29 842.004 1251.7 849.598 1234.57 C 830.76 1235.95 820.936 1235.73 803.696 1243.8 C 804.233 1202.76 814.872 1200.93 851.467 1198.34 C 830.316 1194.57 799.822 1194.15 778.803 1198.59 C 786.212 1173.74 800.449 1157.54 824.373 1147.65 C 805.045 1143.93 794.951 1142.18 775.465 1141.97 C 793.58 1119.27 812.338 1111.49 840.594 1118.6 C 819.447 1107.65 811.459 1102.44 795.986 1085.08 C 814.731 1081.51 824.411 1080.17 842.384 1085.95 C 829.105 1075.08 827.733 1072.22 821.417 1056.11 z"/>
<path transform="translate(0,0)" fill="rgb(255,255,255)" d="M 992.336 1172.38 C 995.7 1171.02 997.933 1169.68 1001.47 1170.07 L 1002.28 1170.8 C 999.211 1174.04 969.533 1188.44 964.385 1190.63 C 972.07 1180.93 981.221 1177.21 992.336 1172.38 z"/>
<path transform="translate(0,0)" fill="rgb(47,61,74)" d="M 990.88 1170.86 L 992.336 1172.38 C 981.221 1177.21 972.07 1180.93 964.385 1190.63 L 962.946 1192.72 L 959.396 1193.07 C 967.331 1180.84 978.154 1176.4 990.88 1170.86 z"/>
<path transform="translate(0,0)" fill="rgb(255,255,255)" d="M 953.698 1248.01 C 992.649 1317.86 1080.94 1388.34 1147.87 1430.3 C 1216.81 1473.54 1263.25 1497.42 1312.4 1566.83 C 1307.41 1562.94 1301.85 1557.98 1296.96 1553.83 C 1289.48 1569.83 1285.65 1570.51 1271.55 1577.24 C 1264.01 1580.85 1265.85 1593.66 1249.55 1598.82 C 1232.01 1604.38 1217.64 1597.22 1202.08 1590.28 C 1193.86 1597.57 1186.75 1602.13 1174.98 1598.04 C 1158.53 1592.33 1143.52 1582.46 1127.48 1575.44 C 1020.21 1528.49 913.786 1465.73 834.396 1378.4 C 829.091 1372.57 800.375 1341.02 802.576 1333.82 C 810.145 1334 827.62 1357.89 832.446 1364.46 C 853.129 1358.63 908.391 1353.08 930.888 1351.94 C 938.5 1350.42 950.318 1350.88 958.311 1351.07 C 953.934 1352.26 950.677 1353.33 946.092 1353.59 C 921.418 1358.33 870.523 1368.29 847.82 1377.94 C 859.36 1390.81 872.995 1403.74 883.865 1416.45 C 928.084 1404.26 961.877 1389.29 1009.9 1384.95 C 992.351 1390.1 915.478 1415.72 905.129 1427.09 C 902.556 1439 934.831 1457.01 944.495 1461.58 C 981.312 1439 1004.3 1426.78 1045.09 1412.83 C 1028.2 1422.82 970.168 1453.77 964.584 1469.74 C 963.708 1472.24 963.665 1474.8 964.939 1477.18 C 967.703 1482.34 989.244 1494.94 994.781 1496.82 C 998.247 1498.01 1002.76 1499.08 1006.21 1497.26 C 1015.66 1492.27 1024.43 1481.87 1032.38 1474.72 C 1049.71 1459.13 1070.32 1442.01 1091.37 1431.89 L 1092.77 1431.23 C 1073.62 1447.85 1028.27 1489.89 1019.09 1511.99 C 1027.34 1519.28 1051.34 1532.6 1062.48 1534.41 C 1069.56 1535.55 1080.56 1511.73 1085.02 1505.24 C 1098.43 1485.69 1112.89 1463.69 1130.28 1447.38 C 1110.1 1478.94 1094.26 1508.63 1081.15 1543.65 C 1082.88 1544.83 1084.64 1545.95 1086.43 1547.02 C 1096.6 1553.08 1117.56 1564.5 1128.97 1561.6 C 1135.73 1550.03 1137.96 1535.45 1141.89 1522.47 C 1147.21 1504.79 1154.37 1487.72 1163.25 1471.54 C 1153.06 1507.18 1146.37 1535.79 1144.8 1573.24 C 1154.47 1579.57 1175.55 1591.33 1186.84 1585.86 C 1194.32 1582.23 1192.41 1556.27 1193 1548.29 C 1194.51 1528.23 1195.73 1506.82 1200.8 1487.31 L 1201.21 1485.76 C 1205.31 1512.4 1201.15 1548.22 1204.47 1578.06 C 1213.31 1586.05 1222.24 1588.83 1234.13 1589.83 C 1240.98 1590.41 1258.61 1587.01 1257.17 1576.87 C 1256.49 1572.08 1252.65 1564.23 1250.9 1559.4 C 1245.9 1545.58 1240.17 1527.82 1240.86 1513.04 C 1248.96 1514.37 1256.24 1585.48 1279.46 1564.92 C 1283.55 1561.3 1288.6 1555.38 1291.22 1550.5 C 1255.76 1508.44 1223.43 1495.01 1178.2 1466.74 C 1111.22 1424.87 1025.14 1379.74 973.611 1319.09 C 960.464 1303.62 949.292 1281.47 941.385 1263.25 C 945.143 1258.28 949.727 1252.9 953.698 1248.01 z"/>
<path transform="translate(0,0)" fill="rgb(219,221,223)" d="M 930.888 1351.94 C 938.5 1350.42 950.318 1350.88 958.311 1351.07 C 953.934 1352.26 950.677 1353.33 946.092 1353.59 C 941.997 1351.26 936.36 1352.13 930.888 1351.94 z"/>
<path transform="translate(0,0)" fill="rgb(255,255,255)" d="M 157.245 547.466 C 189.242 560.263 232.777 562.1 268.41 569.126 C 328.063 580.889 367.023 597.724 421.594 622.041 C 422.59 626.149 425.955 637.321 424.219 640.652 C 376.053 629.892 332.673 623.619 282.92 625.075 C 250.534 626.022 216.288 629.784 184.546 623.098 C 154.39 616.745 153.612 571.398 157.245 547.466 z"/>
<path transform="translate(0,0)" fill="rgb(255,255,255)" d="M 126.097 494.044 C 234.614 491.029 316.771 512.869 410.519 570.202 C 413.615 581.636 416.219 595.884 418.666 607.669 C 403.746 602.223 386.108 593.091 370.678 586.95 C 337.994 574.24 304.226 564.516 269.787 557.897 C 235.05 551.087 199.99 550.397 165.644 543.43 C 150.448 540.347 132.852 507.523 126.097 494.044 z"/>
<path transform="translate(0,0)" fill="rgb(255,255,255)" d="M 428.378 589.834 L 429.413 589.965 C 443.325 591.639 557.282 664.224 574.167 676.814 L 574.202 677.615 C 568.126 675.563 540.44 660.83 532.685 656.759 C 501.07 640.16 466.95 623.668 436.066 606.003 C 440.556 628.915 446.821 651.763 451.675 674.599 C 501.425 682.923 549.487 699.293 593.974 723.067 C 583.24 720.455 567.63 713.882 556.33 710.473 C 524.035 700.732 489.281 691.682 455.535 689.511 C 461.055 711.885 466.234 734.342 471.069 756.875 C 516.576 756.738 560.17 761.995 601.41 782.428 C 590.51 780.115 579.228 776.583 568.031 774.223 C 539.511 768.212 502.179 766.416 473.509 771.289 C 478.488 795.65 482.776 813.51 489.508 837.23 C 521.931 829.957 583.946 827.163 614.136 839.421 C 571.578 836.04 536.709 837.335 496.191 853.154 C 502.425 873.646 512.255 895.598 521.42 914.895 C 548.261 905.639 567.738 900.741 596.244 897.797 C 614.481 895.679 634.636 896.354 652.861 898.091 C 642.867 899.75 629.279 900.219 618.478 901.839 C 584.52 906.931 559.656 914.685 529.291 929.808 C 539.604 952.382 550.776 974.384 561.723 996.653 C 595.644 978.446 630.243 961.846 669.908 963.769 C 662.794 966.307 651.585 968.056 642.997 971.019 C 614.96 980.693 592.048 993.475 569.193 1012.05 C 570.662 1015.98 572.371 1019.8 574.117 1023.62 C 583.503 1044.15 591.862 1065.13 601.508 1085.54 C 625.445 1065.39 665.688 1038.42 696.282 1030.81 C 667.387 1047.82 630.925 1074.19 609.35 1100.11 C 612.986 1109.76 617.898 1120.73 621.944 1130.35 C 619.853 1131.72 617.427 1132.94 615.208 1134.14 L 614.143 1133.8 C 608.778 1124.55 600.242 1103.26 596.006 1092.68 C 588.417 1073.72 581.199 1056.57 572.669 1037.96 C 560.938 1012.28 548.742 986.819 536.089 961.584 C 520.443 930.563 501.326 893.952 489.691 861.116 C 472.864 813.625 464.642 759.081 452.559 709.952 C 445.969 683.16 438.801 656.868 433.295 629.759 C 431.065 618.781 428.056 607.512 426.517 596.361 C 425.948 592.237 426.352 592.34 428.378 589.834 z"/>
<path transform="translate(0,0)" fill="rgb(255,255,255)" d="M 1088.98 1569.36 C 1099.57 1573.24 1111.49 1580.4 1124.8 1585.18 C 1112.63 1660.35 1095.8 1736.21 1089.51 1812.36 C 1088.96 1818.96 1088.97 1826.02 1088.95 1832.67 L 1079.67 1824.31 C 1064.42 1809.28 1052.01 1791.62 1043.04 1772.17 C 1036.41 1757.77 1034.03 1750.63 1037.5 1734.98 C 1049.93 1678.97 1069.21 1623.22 1088.98 1569.36 z"/>
<path transform="translate(0,0)" fill="rgb(255,255,255)" d="M 1163.8 1604.35 C 1176.95 1608.12 1183.38 1609.5 1196.7 1606.7 C 1204.94 1649.29 1214.22 1691.2 1222.68 1733.72 C 1233.87 1789.92 1243.79 1847.69 1261.88 1902.16 C 1256.19 1902.17 1240.46 1887.86 1235.85 1883.56 C 1221.22 1869.87 1209.31 1853.55 1200.73 1835.44 C 1173.74 1778.25 1166.01 1669.71 1163.8 1604.35 z"/>
<path transform="translate(0,0)" fill="rgb(255,255,255)" d="M 142.956 309.451 C 186.657 337.68 234.79 358.651 279.994 383.777 C 330.751 411.989 374.916 452.029 413.373 495.185 C 411.453 498.936 409.341 504 407.592 507.923 C 407.251 510.545 407.286 510.567 406.279 512.994 C 404.206 513.075 402.106 512.651 400.4 511.451 C 389.143 503.531 377.565 496.188 365.68 489.224 C 343.599 475.443 319.892 464.846 297.628 451.384 C 254.201 425.126 207.888 397.705 173.104 360.37 C 158.834 345.054 148.661 329.36 142.956 309.451 z"/>
<path transform="translate(0,0)" fill="rgb(255,255,255)" d="M 572.191 518.995 C 572.069 516.059 571.563 513.614 573.05 511.238 C 574.528 519.319 574.339 522.992 573.896 531.309 C 575.988 586.084 587.55 607.749 614.965 653.491 C 647.414 707.632 664.023 773.167 686.799 832.083 C 719.133 915.719 762.414 988.955 812.496 1062.97 C 783.522 1039.68 757.721 1012.7 735.749 982.711 C 692.595 924.088 656.532 851.427 636.794 781.335 C 627.135 742.796 623.049 702.905 606.475 666.339 C 596.613 644.548 583.969 624.685 576.952 601.642 C 568.365 573.446 567.816 547.896 572.191 518.995 z"/>
<path transform="translate(0,0)" fill="rgb(135,142,155)" d="M 572.191 518.995 C 572.069 516.059 571.563 513.614 573.05 511.238 C 574.528 519.319 574.339 522.992 573.896 531.309 L 572.191 518.995 z"/>
<path transform="translate(0,0)" fill="rgb(255,255,255)" d="M 343.583 685.42 C 376.195 683.522 404.119 685.643 436.303 689.354 C 439.099 700.91 442.774 713.49 445.89 725.061 C 381.07 723.209 347.132 731.591 285.346 742.711 C 260.71 747.381 234.767 750.661 209.684 750.636 C 193.847 735.971 191.828 716.852 191.683 696.566 C 217.515 699.196 253.368 694.075 279.54 691.005 C 300.823 688.458 322.181 686.595 343.583 685.42 z"/>
<path transform="translate(0,0)" fill="rgb(255,255,255)" d="M 1133.69 1589.29 C 1139.78 1592.56 1148.3 1595.99 1154.79 1598.81 C 1157.22 1622.05 1157.98 1646.78 1159.76 1670.15 C 1162.64 1708.2 1164.67 1746.07 1165.85 1784.21 C 1166.75 1813.08 1164.37 1844.23 1167.98 1872.65 C 1161.59 1868.25 1157.25 1864.63 1151.38 1859.67 C 1143.97 1852.55 1137.29 1844.7 1131.47 1836.23 C 1121.66 1822.11 1107.27 1793.83 1105.16 1776.3 C 1103.97 1766.51 1109.41 1735.66 1111.07 1724.71 C 1117.87 1679.45 1125.42 1634.31 1133.69 1589.29 z"/>
<path transform="translate(0,0)" fill="rgb(255,255,255)" d="M 113.387 415.778 C 244.012 427.329 300.981 450.929 405.558 526.836 C 405.718 536.262 407.275 545.327 408.625 554.652 C 401.379 551.724 384.415 542.376 376.103 538.151 C 355.777 527.82 337.629 519.878 316.128 511.835 C 236.244 481.951 172.896 486.908 113.387 415.778 z"/>
<path transform="translate(0,0)" fill="rgb(255,255,255)" d="M 421.524 736.463 L 448.53 737.108 C 449.683 747.819 453.072 760.856 455.715 771.299 C 394.19 772.479 364.505 783.128 306.781 806.252 C 291.857 812.231 267.161 822.021 252.072 825.938 C 251.329 825.368 250.593 824.788 249.864 824.2 C 229.444 807.719 218.382 788.696 215.549 762.844 C 265.097 761.315 294.695 752.491 341.707 744.467 C 368.095 739.953 394.765 737.278 421.524 736.463 z"/>
<path transform="translate(0,0)" fill="rgb(255,255,255)" d="M 535.945 988.07 C 539.917 990.379 558.986 1034.04 562.061 1041.15 C 512.142 1056.47 469.781 1099.4 444.736 1144.16 C 438.031 1142.32 434.842 1141.48 428.831 1138.03 C 413.449 1125.61 405.884 1114.98 394.871 1099.09 C 434.793 1044.99 470.88 1010.31 535.945 988.07 z"/>
<path transform="translate(0,0)" fill="rgb(255,255,255)" d="M 505.031 931.038 L 506.428 930.898 C 511.019 932.95 528.373 970.946 531.373 977.432 C 485.51 993.029 444.608 1020.52 412.844 1057.09 C 405.197 1065.97 398.241 1074.9 391.905 1084.73 C 390.448 1086.99 389.248 1087.76 386.961 1088.09 L 384.224 1085.15 C 368.802 1067.27 359.821 1053.77 351.074 1031.77 C 359.668 1025.77 382.203 1005.01 390.764 997.069 C 428.916 961.68 456.635 947.7 505.031 931.038 z"/>
<path transform="translate(0,0)" fill="rgb(255,255,255)" d="M 484.128 877.412 C 486.275 878.912 500.465 913.943 503.064 919.997 C 430.105 940.793 402.326 971.603 348.14 1020.32 L 340.046 1014.59 C 326.982 1003.96 319.215 982.785 314.586 967.018 C 369.533 922.744 412.122 888.32 484.128 877.412 z"/>
<path transform="translate(0,0)" fill="rgb(255,255,255)" d="M 1204.7 1601.56 C 1214.12 1605.98 1220 1607.95 1230.05 1610.49 C 1242.34 1644.38 1258.24 1676.57 1270.79 1709.13 C 1298.81 1781.77 1319.16 1844.75 1361.78 1911.31 C 1355.89 1909.61 1347.17 1904.42 1342.2 1900.82 C 1293.98 1865.87 1269.8 1810.01 1246.8 1756.73 C 1225.05 1706.38 1214.49 1655.82 1204.7 1601.56 z"/>
<path transform="translate(0,0)" fill="rgb(255,255,255)" d="M 270.299 150.702 C 272.443 152.845 280.606 174.068 282.769 178.701 C 289.646 193.721 298.666 207.553 306.789 221.874 C 333.253 268.533 368.309 309.709 394.453 356.503 C 399.482 365.505 404.438 374.55 409.524 383.518 C 420.652 402.989 432.231 422.198 444.252 441.13 C 441.588 443.363 438.731 446.136 436.148 448.522 L 431.468 456.809 C 416.923 439.803 402.093 423.043 386.983 406.537 C 377.125 395.956 353.529 372.729 346.683 361.395 C 317.293 312.733 260.682 207.229 270.299 150.702 z"/>
<path transform="translate(0,0)" fill="rgb(255,255,255)" d="M 439.33 783.407 C 444.267 782.953 452.37 782.999 457.554 782.859 C 460.355 794.145 463.309 805.393 466.414 816.6 C 430.547 823.231 396.844 829.315 364.088 846.655 C 336.876 861.06 310.831 876.922 283.36 890.885 C 268.597 889.642 257.754 849.265 256.302 836.895 C 269.27 833.742 294.791 823.593 307.978 818.352 C 357.327 798.738 386.398 787.143 439.33 783.407 z"/>
<path transform="translate(0,0)" fill="rgb(255,255,255)" d="M 1007.28 1527.07 C 1017.55 1532.72 1027.87 1538.72 1038.07 1544.52 C 1014.86 1597.48 975.595 1677.9 971.627 1734 L 962.554 1728.48 C 949.565 1720.08 937.814 1710.88 925.615 1701.38 C 919.985 1649.81 980.584 1571.13 1007.28 1527.07 z"/>
<path transform="translate(0,0)" fill="rgb(255,255,255)" d="M 467.952 829.473 C 469.694 831.165 479.564 862.122 481.5 866.937 C 410.602 876.658 363.861 911.728 310.009 956.134 L 303.109 948.606 C 291.158 934.858 286.779 920.739 282.225 903.678 C 351.7 874.071 385.964 835.044 467.952 829.473 z"/>
<path transform="translate(0,0)" fill="rgb(255,255,255)" d="M 194.908 218.8 C 197.706 221.847 207.532 235.777 210.891 240.067 C 221.673 253.574 233.001 266.637 244.847 279.222 C 282.218 318.423 326.411 350.244 362.621 390.423 C 385.012 415.269 404.438 442.319 426.017 467.83 C 424.237 470.821 422.473 474.548 420.879 477.698 C 420.168 480.115 420.301 480.044 418.728 481.974 C 414.254 481.366 402.123 467.937 397.062 463.401 C 375.287 443.865 352.766 425.176 329.549 407.376 C 319.969 400.083 304.503 391.265 296.673 383.568 C 288.667 375.698 278.556 362.518 271.031 353.718 C 245.089 323.383 195.438 259.916 194.908 218.8 z"/>
<path transform="translate(0,0)" fill="rgb(255,255,255)" d="M 1047.69 1549.3 C 1058.23 1554.49 1068.7 1559.8 1079.12 1565.23 C 1074.32 1582.56 1068.03 1599.28 1062.24 1616.29 C 1051.33 1648.37 1040.47 1680.06 1031.93 1712.89 C 1027.55 1729.6 1023.93 1746.49 1021.07 1763.52 C 1020.2 1768.65 1020.21 1779.57 1018.27 1782.98 L 1016.41 1782.5 C 1003.78 1772.39 989.909 1760.03 983.932 1744.55 C 970.445 1709.61 1031.68 1584.54 1047.69 1549.3 z"/>
<path transform="translate(0,0)" fill="rgb(255,255,255)" d="M 172.633 633.37 C 205.042 641.925 230.318 638.34 263.129 637.978 C 319.975 637.351 372.562 637.997 427.483 653.884 L 433.837 678.777 L 423.152 676.798 C 375.055 668.907 328.824 672.269 280.864 678.385 C 255.12 681.668 223.614 685.985 198.148 684.958 C 178.176 674.026 172.88 654.498 172.633 633.37 z"/>
<path transform="translate(0,0)" fill="rgb(255,255,255)" d="M 360.325 121.614 C 360.852 122.114 361.664 122.766 361.821 123.505 C 366.79 146.787 371.334 170.074 378.533 192.824 C 392.433 235.556 408.672 277.492 427.179 318.44 C 442.324 352.034 462.21 392.542 475.541 426.584 L 464.613 436.718 L 458.222 442.099 C 441.013 420.963 412.24 375.936 400.715 352.002 C 376.853 302.447 342.976 172.17 360.325 121.614 z"/>
<path transform="translate(0,0)" fill="rgb(255,255,255)" d="M 467.172 1331.83 L 468.587 1332.33 C 462.842 1345.14 446.143 1373.85 475.26 1369.13 C 431.547 1400.97 385.522 1448.22 343.974 1482.65 C 337.086 1480.49 324.884 1478.58 317.443 1477.19 L 305.582 1474.37 C 303.096 1464.92 301.084 1455.54 298.988 1446 C 323.629 1423.69 360.682 1401.37 388.614 1382.56 C 400.722 1374.41 413.913 1367.53 425.834 1358.63 C 445.251 1376.27 444.365 1350.31 454.552 1339.85 C 458.068 1336.24 462.731 1334.07 467.172 1331.83 z"/>
<path transform="translate(0,0)" fill="rgb(255,255,255)" d="M 1260.99 1603.3 C 1265.03 1607.94 1275.55 1630.23 1279.43 1636.83 C 1328.65 1720.55 1369.73 1811.34 1445.71 1874.78 C 1440.59 1873.16 1435.66 1870.84 1430.74 1868.68 C 1428.8 1867.83 1426.87 1866.97 1424.95 1866.08 C 1367.83 1839.66 1315.19 1770.72 1285.1 1716.96 C 1274.07 1697.27 1264.85 1673.46 1256.26 1652.51 C 1250.5 1638.48 1244.02 1624.03 1238.78 1609.85 C 1249.33 1608.79 1251.73 1608.33 1260.99 1603.3 z"/>
<path transform="translate(0,0)" fill="rgb(255,255,255)" d="M 565.971 1052.03 C 570.224 1054.32 585.316 1092.97 588.226 1100.08 C 559.097 1114.94 538.023 1133.51 517.728 1159.03 C 509.03 1169.96 497.957 1184.03 487.844 1193.22 C 485.466 1193.23 484.762 1191.71 482.379 1189.58 C 469.825 1176.33 462.051 1168.27 453.837 1151.65 C 454.08 1151.11 454.331 1150.59 454.59 1150.06 C 476.098 1106.27 519.617 1067.54 565.971 1052.03 z"/>
<path transform="translate(0,0)" fill="rgb(255,255,255)" d="M 424.582 1312.93 L 426.73 1313.26 C 425.724 1321.96 409.494 1325.39 418.745 1352.06 C 401.436 1363.9 381.688 1375.62 363.915 1387.31 C 340.66 1402.61 318.801 1417.97 295.964 1433.81 C 287.793 1430.01 282.661 1427.94 274.209 1424.9 L 264.499 1421.76 C 262.46 1414.79 261.089 1405.49 259.797 1398.18 C 262.841 1391.62 270.262 1381 274.456 1374.57 C 314.316 1352.44 380.685 1329.46 424.582 1312.93 z"/>
<path transform="translate(0,0)" fill="rgb(255,255,255)" d="M 799.896 1356.19 L 801.099 1356.04 C 803.696 1356.72 828.693 1388.13 833.58 1393.47 C 779.182 1405.91 727.913 1426.71 684.821 1462.86 C 668.469 1449.97 661.087 1440.05 650.832 1421.63 C 677.392 1391.31 761.562 1366.51 799.896 1356.19 z"/>
<path transform="translate(0,0)" fill="rgb(255,255,255)" d="M 869.599 1430.86 C 873.265 1431.66 896.278 1451.27 900.972 1455.04 C 889.547 1461.72 876.65 1471.62 865.744 1479.39 C 826.372 1507.44 790.763 1536.69 761.31 1575.34 C 747.122 1564.8 736.834 1546.84 731.235 1530.31 C 771.779 1486.58 818.44 1460.27 869.599 1430.86 z"/>
<path transform="translate(0,0)" fill="rgb(255,255,255)" d="M 940.262 1484.54 C 942.748 1485.55 961.419 1498.35 964.965 1500.7 C 928.132 1546.49 867.492 1609.11 857.562 1668.85 L 848.298 1663.39 C 835.083 1654.3 826.025 1646.85 816.194 1634.06 C 828.435 1594.26 860.717 1563.52 888.541 1533.84 C 904.745 1516.55 923.998 1501.64 940.262 1484.54 z"/>
<path transform="translate(0,0)" fill="rgb(255,255,255)" d="M 487.741 1269.39 C 492.222 1268.95 491.961 1268.27 495.429 1269.9 C 497.489 1273.09 497.403 1271.89 496.849 1274.85 C 491.856 1279.36 462.473 1284.06 454.322 1288.42 C 395.308 1320.03 316.291 1335.39 260.636 1372.1 L 252.52 1366.63 C 246.04 1362.12 240.149 1357.67 233.893 1352.89 C 255.999 1318.23 274.211 1312.92 312.11 1303.08 C 369.785 1288.11 428.59 1276.66 487.741 1269.39 z"/>
<path transform="translate(0,0)" fill="rgb(255,255,255)" d="M 973.728 1506.58 C 981.772 1511.64 989.766 1516.78 997.708 1522 C 970.372 1563.29 914.139 1648.47 913.793 1696.58 L 899.619 1690.14 C 886.488 1683.22 877.512 1677.83 869.189 1665.52 C 873.27 1624.77 944.905 1538.51 973.728 1506.58 z"/>
<path transform="translate(0,0)" fill="rgb(255,255,255)" d="M 840.353 1403.23 C 843.353 1404.03 859.004 1419.61 862.593 1422.99 C 818.536 1447.18 773.81 1473.42 737.055 1508.03 C 732.77 1512.07 725.062 1521.35 720.375 1523.91 L 718.177 1523.07 C 705.608 1507.39 697.562 1491.92 691.332 1472.94 C 723.345 1438.66 795.296 1412.94 840.353 1403.23 z"/>
<path transform="translate(0,0)" fill="rgb(255,255,255)" d="M 909.449 1462.73 C 912.513 1463.23 928.341 1475.4 932.024 1478.1 C 890.167 1513.53 822.909 1577.06 807.105 1629.62 C 804.296 1628.42 801.378 1626.93 798.617 1625.59 C 783.58 1615.83 776.331 1598.97 770.273 1582.84 C 804.402 1535.25 861.28 1494.76 909.449 1462.73 z"/>
<path transform="translate(0,0)" fill="rgb(255,255,255)" d="M 1277.86 1584.45 C 1285.54 1586.65 1371.96 1702.18 1387.35 1718.75 C 1411.28 1744.26 1437.43 1767.59 1465.48 1788.46 C 1471.81 1793.11 1493.18 1806.04 1495.41 1807.91 C 1493.12 1809.06 1490.49 1808.24 1487.79 1807.84 C 1480.24 1807.31 1468.05 1804.11 1461.08 1801.15 C 1371.54 1763.01 1306.7 1681.83 1268.27 1595.6 C 1271.75 1590.56 1273.52 1588.83 1277.86 1584.45 z"/>
<path transform="translate(0,0)" fill="rgb(255,255,255)" d="M 468.024 1388.01 C 469.273 1389.38 470.798 1395.31 471.479 1397.49 L 480.297 1404.6 C 474.822 1408.98 472.21 1408.95 474.664 1415.43 C 471.242 1430.34 408.571 1507.53 396.827 1520.15 C 385.525 1520.22 376.052 1519.55 364.755 1518.74 L 363.493 1518.67 C 359.003 1516.64 351.787 1498.31 349.464 1493.1 C 380.684 1461.32 432.251 1414.75 468.024 1388.01 z"/>
<path transform="translate(0,0)" fill="rgb(255,255,255)" d="M 750.91 1095.71 C 705.14 1114.02 625.753 1149.22 589.672 1182.56 C 612.214 1177.12 620.692 1174.36 643.994 1175.44 C 593.206 1187.19 501.982 1226.7 520.041 1293.37 C 526.208 1316.14 528.829 1317.45 507.534 1331.84 C 500.627 1336.57 492.99 1357.56 479.656 1348.88 C 473.369 1338.11 490.614 1318.27 497.707 1310.59 C 481.607 1313.17 451.693 1320.23 442.187 1334.06 C 436.938 1341.7 436.769 1346.4 435.481 1355.33 C 430.991 1351.48 428.65 1349.54 424.885 1345.03 C 426.113 1340.88 428.931 1329.39 432.019 1327.01 C 433.295 1329.22 433.657 1330.14 434.61 1332.45 L 435.762 1332.3 C 438.039 1329.36 440.304 1326.18 442.971 1323.62 C 441.078 1321.98 441.127 1319.34 440.521 1316.39 C 440.376 1314.35 440.021 1312.24 442.054 1310.65 C 462.133 1294.95 489.196 1296.55 511.067 1283.03 C 510.431 1251.34 521.622 1233.36 543.777 1210.45 C 595.877 1156.58 676.888 1109.35 750.91 1095.71 z"/>
<path transform="translate(0,0)" fill="rgb(26,53,89)" d="M 440.521 1316.39 C 447.662 1309.05 461.184 1305.26 471.134 1304.98 L 473.138 1306.03 C 468.795 1312.62 450.068 1319.01 442.971 1323.62 C 441.078 1321.98 441.127 1319.34 440.521 1316.39 z"/>
<path transform="translate(0,0)" fill="rgb(255,255,255)" d="M 326.357 1218.5 C 371.057 1215.62 466.464 1224.16 510.174 1235.38 L 502.129 1250.54 C 480.601 1246.08 455.799 1244.56 433.847 1243.08 C 374.137 1241.44 328.97 1244.96 271.21 1258.41 C 266.325 1248.74 260.529 1238.5 255.334 1228.92 C 277.791 1219.64 302.296 1219.5 326.357 1218.5 z"/>
<path transform="translate(0,0)" fill="rgb(255,255,255)" d="M 746.566 1334.39 C 767.787 1332.65 778.451 1332.63 796.159 1345.15 C 785.231 1349.13 768.34 1353.58 756.752 1357.1 C 716.84 1369.23 683.826 1382.12 649.514 1406.26 L 640.859 1412.55 C 623.309 1399.95 614.344 1392.73 602.876 1373.79 C 647.396 1355.31 698.588 1339.74 746.566 1334.39 z"/>
<path transform="translate(0,0)" fill="rgb(255,255,255)" d="M 388.836 1252.43 C 411.726 1251.24 483.254 1253.46 504.834 1259.24 C 494.796 1261.62 470.172 1262.56 457.671 1264.51 C 414.482 1271.27 373.878 1277.51 331.278 1288.1 C 305.353 1294.29 279.797 1301.93 254.734 1310.99 C 250.136 1304.13 245.97 1297.08 241.709 1290 C 245.528 1285.31 253.693 1274.28 259.265 1272.49 C 299.082 1259.66 347.638 1255.16 388.836 1252.43 z"/>
<path transform="translate(0,0)" fill="rgb(255,255,255)" d="M 584.772 1380.98 C 584.781 1381.2 584.79 1381.42 584.799 1381.64 C 569.515 1420.39 525.84 1529.59 501.077 1555.51 C 496.53 1557.04 491.665 1558.04 486.975 1559.13 C 484.021 1556.59 480.762 1553.47 477.855 1550.81 L 466.511 1539.16 C 477.34 1517.12 523.352 1441.52 538.647 1425.34 C 547.949 1415.5 561.025 1409.61 570.577 1399.81 C 577.518 1392.69 575.141 1385.98 584.772 1380.98 z"/>
<path transform="translate(0,0)" fill="rgb(255,255,255)" d="M 483.529 1422.61 C 487.507 1425.58 494.282 1431.58 498.982 1431.56 C 500.464 1429.98 500.793 1429.63 502.519 1428.33 C 506.461 1428.32 515.908 1430.94 521.402 1431.74 C 509.024 1447.72 458.945 1538.52 450.933 1543.96 C 440.754 1543.82 430.573 1543.73 420.393 1543.72 C 413.917 1539.47 409.259 1533.8 404.568 1527.75 C 431.146 1493.47 457.084 1457.31 483.529 1422.61 z"/>
<path transform="translate(0,0)" fill="rgb(255,255,255)" d="M 458.707 132.806 C 459.879 134.411 457.665 165.31 457.588 170.391 C 457.349 183.907 457.776 197.428 458.866 210.902 C 464.245 279.491 482.498 348.964 507.468 413.005 C 500.936 412.963 498.152 412.766 491.868 414.324 L 483.847 419.019 C 475.07 404.18 467.209 387.819 462.606 371.192 C 447.021 314.892 430.557 184.006 458.707 132.806 z"/>
<path transform="translate(0,0)" fill="rgb(255,255,255)" d="M 1297.99 1571.88 C 1302.27 1575.31 1314.19 1587.84 1318.66 1592.24 C 1329.81 1603.11 1341.13 1613.8 1352.63 1624.31 C 1399.85 1667.96 1446.92 1706.14 1508.19 1728.25 C 1515.47 1730.88 1522.98 1732.61 1530.06 1735.72 L 1529.89 1736.44 L 1524.97 1736.39 C 1519.49 1736.23 1514.03 1735.75 1508.6 1734.95 C 1450.71 1726.95 1380.17 1681.97 1338.37 1641.91 C 1323.99 1628.14 1300.35 1596.27 1287.66 1579.55 L 1297.99 1571.88 z"/>
<path transform="translate(0,0)" fill="rgb(255,255,255)" d="M 591.604 1110.85 C 594.924 1112.59 602.956 1135.25 605.133 1140.44 C 583.576 1154.74 558.531 1175.57 541.191 1194.81 C 533.038 1203.85 525.399 1216.01 516.472 1225.99 C 513.801 1226.35 513.485 1225.2 510.5 1223 C 503.263 1217.92 497.602 1211.94 491.496 1205.65 C 501.651 1197.47 513.211 1183.63 521.385 1173.33 C 544.889 1143.72 559.156 1130 591.604 1110.85 z"/>
<path transform="translate(0,0)" fill="rgb(255,255,255)" d="M 569.856 1357.46 C 592.608 1354.13 616.876 1345.15 638.939 1337.97 L 715.821 1313.32 C 750.438 1301.98 782.278 1290.44 818.73 1285.29 C 790.516 1295.29 764.282 1302.14 734.34 1313.31 C 783.575 1307.51 830.371 1308.42 877.698 1303.48 C 879.649 1304.16 881.087 1304.52 882.857 1305.58 C 850.787 1311.43 820.262 1317.5 787.593 1319.9 C 759.969 1321.94 730.513 1321.41 703.225 1325.38 C 691.915 1327.02 675.653 1334.06 664.343 1337.6 C 634.555 1346.92 605.265 1358.53 575.717 1368.33 L 569.856 1357.46 z"/>
<path transform="translate(0,0)" fill="rgb(255,255,255)" d="M 537.7 1347.96 C 540.721 1347.69 553.745 1353.57 557.209 1355.02 C 565.016 1373.01 571.598 1384.71 551.857 1397.64 C 540.693 1404.96 526.387 1420.65 512.131 1419.69 C 506.88 1419.34 504.139 1411.36 509.003 1408.75 C 510.735 1410.26 512.022 1411.31 513.855 1412.7 L 514.836 1411.69 L 513.011 1408.75 C 514.11 1403.22 544.289 1382.68 538.656 1374 C 532.077 1371.91 524.379 1375.71 517.759 1378.11 C 496.83 1384.94 501.965 1380.46 483.904 1392.53 L 482.838 1391.99 C 482.007 1375.75 523.768 1376.54 530.662 1365.49 L 529.345 1364.11 C 524.421 1362.56 498.34 1369.12 490.163 1370.43 C 487.298 1373.15 485.944 1374.42 482.702 1376.65 L 482.657 1375.75 C 490.558 1365.87 498.798 1365.67 509.983 1360.69 C 519.261 1356.57 528.506 1352.28 537.7 1347.96 z"/>
<path transform="translate(0,0)" fill="rgb(255,255,255)" d="M 567.985 171.932 C 569.705 171.863 569.052 171.78 570.668 172.49 C 522.276 219.592 517.094 315.992 520.761 379.044 C 521.505 391.446 522.617 403.824 524.096 416.161 C 524.892 422.856 526.331 429.456 526.665 436.092 L 525.61 436.335 C 522.019 426.092 518.891 414.655 516.972 403.97 C 507.244 349.785 507.095 196.598 567.985 171.932 z"/>
<path transform="translate(0,0)" fill="rgb(255,255,255)" d="M 417.785 501.622 C 423.146 506.051 431.578 515.151 436.36 520.615 C 474.433 564.119 518.755 599.503 561.104 638.305 C 556.979 637.582 525.467 613.217 519.753 608.851 C 500.377 593.881 480.597 578.537 462.256 562.352 C 448.838 550.511 436.801 537.406 423.531 525.383 C 424.555 547.288 429.136 563.132 432.392 584.228 L 431.257 585.326 C 428.686 585.551 427.174 585.959 424.849 584.869 C 418.448 559.845 411.773 526.85 417.785 501.622 z"/>
<path transform="translate(0,0)" fill="rgb(255,255,255)" d="M 1044.74 1142.6 C 1065.88 1147.17 1090.02 1159.68 1091.1 1183.94 C 1091.25 1187.46 1091.53 1195.87 1089.23 1198.53 C 1084.58 1195.83 1082.55 1188.56 1072.12 1182.59 L 1071.01 1181.95 C 1056.23 1175.51 1041.33 1175.37 1025.56 1175.8 C 1020.32 1175.95 1009.26 1176.84 1005.06 1173.78 L 1005.35 1171.71 C 1012.18 1164.18 1025.76 1161.47 1035.02 1157.02 C 1040.16 1154.55 1042.77 1147.55 1044.74 1142.6 z"/>
<path transform="translate(0,0)" fill="rgb(255,255,255)" d="M 637.781 1255.35 L 638.913 1255.37 L 639.444 1256.08 C 635.455 1258.86 630.164 1261.2 625.829 1263.53 C 605.9 1274.25 585.734 1284.02 564.912 1292.88 C 552.25 1298.27 546.813 1303.61 539.849 1315.4 C 557.359 1365.12 629.217 1315.47 655.272 1297.72 C 652.977 1300.1 649.873 1302.86 647.411 1305.17 C 627.599 1323.55 602.944 1341.51 575.184 1344.18 C 556.19 1346 545.804 1338.6 532.182 1327.18 C 539.605 1316.52 541.114 1305.42 548.014 1296.39 C 568.005 1270.2 607.04 1260.49 637.781 1255.35 z"/>
<path transform="translate(0,0)" fill="rgb(255,255,255)" d="M 559.714 604.169 C 517.894 564.866 478.909 526.023 450.45 475.552 C 446.839 469.148 431.508 450.621 448.773 449.087 C 453.138 454.238 459.274 466.105 463.141 472.716 C 467.85 480.601 472.739 488.378 477.805 496.04 C 496.398 524.439 536.769 577.744 560.995 602.362 L 559.714 604.169 z"/>
<path transform="translate(0,0)" fill="rgb(255,255,255)" d="M 497.031 418.855 C 500.031 421.309 509.257 450.228 511.046 455.379 C 518.868 478.105 528.037 500.344 538.504 521.979 C 541.45 527.936 559.319 558.302 559.455 559.664 L 557.241 558.025 C 528.395 524.686 510.363 491.444 496.52 449.446 C 494.506 443.335 489.423 430.813 488.865 424.973 C 490.426 422.183 494.133 420.548 497.031 418.855 z"/>
<path transform="translate(0,0)" fill="rgb(255,255,255)" d="M 1384.5 1626.86 C 1391.87 1628.05 1409.52 1635.94 1417.72 1638.52 C 1431.74 1642.94 1445.19 1646.83 1459.63 1649.88 C 1476.1 1653.33 1492.82 1655.51 1509.63 1656.37 C 1515.58 1656.69 1530.15 1656.45 1534.84 1657.37 L 1533.8 1658.37 C 1520.75 1660.54 1504.26 1662.65 1491.17 1661.74 C 1457 1659.35 1413.9 1643.79 1384.5 1626.86 z"/>
<path transform="translate(0,0)" fill="rgb(255,255,255)" d="M 503.115 1396.59 L 504.444 1397.08 L 504.903 1398.43 C 502.916 1402.25 501.457 1403.93 499.428 1407.32 C 497.682 1410.24 498.524 1416.7 495.225 1419.2 L 491.98 1417.4 C 489.721 1415.86 486.497 1412.84 484.346 1410.94 C 490.035 1407.48 496.263 1401.13 503.115 1396.59 z"/>
<path transform="translate(0,0)" fill="rgb(255,255,255)" d="M 977.247 1143.57 L 980.911 1146.33 C 983.935 1145.6 984.477 1145.46 987.551 1145.27 C 989.67 1148.19 989.235 1149.57 989.742 1153.47 C 984.403 1154.35 980.993 1154.6 977.311 1150.47 C 976.15 1146.12 976.162 1147.93 977.247 1143.57 z"/>
<path transform="translate(0,0)" fill="rgb(255,255,255)" d="M 473.67 1346.56 C 477.472 1348.85 481.002 1350.26 482.38 1354.21 L 479.844 1356.37 C 478.045 1356.81 476.161 1357.21 474.345 1357.61 C 471.389 1356.57 472.441 1357.5 471.006 1354.82 C 471.133 1351.11 471.998 1350.01 473.67 1346.56 z"/>
<path transform="translate(0,0)" fill="rgb(255,255,255)" d="M 521.744 1336.13 L 525.503 1337.62 L 525.732 1338.89 C 522.974 1341.84 515.35 1344.55 511.282 1346.28 C 509.972 1346.7 510.295 1346.53 508.793 1346.37 C 511.214 1341.74 517.084 1338.16 521.744 1336.13 z"/>
<path transform="translate(0,0)" fill="rgb(219,221,223)" d="M 877.698 1303.48 L 908.208 1299.48 C 900.495 1302.07 890.958 1304.67 882.857 1305.58 C 881.087 1304.52 879.649 1304.16 877.698 1303.48 z"/>
<path transform="translate(0,0)" fill="rgb(219,221,223)" d="M 560.995 602.362 C 563.167 604.376 566.954 607.247 567.519 609.875 C 563.946 608.369 562.543 606.74 559.714 604.169 L 560.995 602.362 z"/>
<path transform="translate(0,0)" fill="rgb(26,53,89)" d="M 1114.87 752.587 C 1119.07 755.211 1147.05 790.223 1152.29 796.45 C 1161.78 807.533 1171.4 818.509 1181.13 829.376 C 1183.54 811.931 1189.55 790.412 1194.23 773.279 C 1208.78 806.064 1224.72 838.516 1239.77 871.09 C 1243.36 878.849 1249.45 888.183 1251.08 896.447 C 1248.52 893.315 1246.43 889.905 1244.3 886.468 C 1228.9 861.53 1214.46 836.032 1199.49 810.835 C 1196 827.008 1193.54 845.011 1190.99 861.461 C 1170.05 840.746 1137.68 803.348 1118.85 779.761 C 1115.99 795.025 1111.05 810.18 1105.87 824.796 C 1102.26 834.979 1078.82 887.463 1079.4 893.176 C 1081.47 913.762 1116.28 916.843 1128.41 930.721 C 1148.06 953.196 1148.68 986.911 1165 1011.54 C 1180.3 1034.63 1209.17 1051.19 1230.05 1069.26 C 1249.53 1086.12 1267.85 1104.1 1286.77 1121.56 C 1309.45 1142.3 1330.45 1162.88 1352.52 1184.04 L 1352.44 1184.92 C 1347.98 1182.41 1330.56 1168.5 1325.14 1164.44 L 1259.78 1115.25 C 1240.79 1101.17 1221.67 1087.28 1202.43 1073.56 C 1161.5 1044.5 1139.95 1032.12 1125.22 981.587 C 1116.97 953.262 1100.23 954.19 1087.23 981.065 C 1066.95 964.981 1057.99 913.171 1042.75 913.457 C 1009.49 914.081 953.238 954.246 925.234 971.697 C 941.736 951.703 961.896 930.971 979.582 911.609 C 997.039 892.498 1019.52 861.336 1039.57 846.962 C 1075.41 821.262 1093.49 789.849 1114.87 752.587 z"/>
<path transform="translate(0,0)" fill="rgb(26,53,89)" d="M 1267.84 936.515 C 1313.51 1028.72 1379.79 1102.61 1444.97 1180.46 C 1449.16 1185.47 1476.17 1218.04 1475.36 1220.6 C 1454.84 1201.04 1434.19 1181.58 1413.95 1161.73 C 1349.78 1098.8 1304.35 1019.11 1266.74 938.229 L 1267.84 936.515 z"/>
<path transform="translate(0,0)" fill="rgb(135,142,155)" d="M 1266.74 938.229 C 1264.82 934.666 1262.35 931 1262.05 927.113 C 1264.41 928.618 1266.45 933.732 1267.84 936.515 L 1266.74 938.229 z"/>
</svg>