<svg version="1.1" xmlns="http://www.w3.org/2000/svg" style="display: block;" viewBox="0 0 2048 2048" width="1024" height="1024" preserveAspectRatio="none">
<path transform="translate(0,0)" fill="rgb(245,246,240)" d="M 0 0 L 2048 0 L 2048 2048 L 0 2048 L 0 0 z"/>
<path transform="translate(0,0)" fill="rgb(21,58,46)" d="M 742.998 770.044 C 767.252 760.477 790.794 748.804 815.25 739.686 C 820.314 737.244 821.423 731.974 827.719 732.035 C 836.159 732.116 836.347 745.646 831.167 747.337 C 806.646 755.339 782.764 765.43 758.786 774.994 C 832.703 800.974 946.591 837.771 994.77 904.796 C 924.021 840.466 833.071 810.482 743.421 782.56 C 698.727 799.834 616.401 833.378 577.928 860.072 C 610.291 867.551 614.102 871.351 624.801 902.177 C 650.541 906.154 667.576 912.607 690.694 924.701 C 704.68 932.018 724.175 941.111 724.815 959.547 C 725.581 981.587 725.085 1004.57 725.076 1026.68 L 725.091 1091.51 C 725.097 1097.53 725.477 1127.55 723.762 1130.66 C 711.355 1153.16 671.268 1189.02 651.045 1202.62 C 674.281 1205.38 706.949 1212.35 730.923 1216.69 C 778.513 1224.95 826.045 1233.55 873.516 1242.47 C 1014.41 1268.69 1155.57 1293.48 1296.97 1316.84 L 1295.23 1320.04 C 1263.64 1320.04 1233.49 1321.31 1202.53 1314.5 C 1193.55 1312.53 1183.63 1311.14 1174.52 1309.5 L 1068.29 1290.44 L 738.094 1231.06 C 698.214 1224.08 658.007 1214.91 617.961 1208.91 C 610.339 1207.76 587.758 1214.7 579.767 1217.03 C 601.504 1222.67 624.585 1228.09 646.528 1232.69 C 775.104 1259.63 903.206 1293.32 1032.27 1317.45 C 1011.52 1318.28 974.488 1316.53 953.525 1315.19 C 945.996 1314.71 909.839 1306.03 899.864 1303.86 C 863.735 1296.15 827.669 1288.14 791.672 1279.83 L 635.909 1245.11 C 609.553 1239.14 583.748 1232.88 557.515 1226.58 C 538.83 1222.1 510.948 1224.83 491.2 1220.01 C 487.869 1219.12 472.356 1216.53 470.09 1214.77 C 467.448 1212.72 446.97 1207.64 447.217 1207.83 C 424.417 1190.39 397.999 1146.61 401.728 1116.78 C 406.944 1075.04 430.327 1031.68 447.102 993.391 C 462.854 959.289 483.795 916.944 521.759 903.903 C 526.407 886.163 533.296 881.334 547.482 870.362 C 555.092 864.683 563.086 855.972 571.17 851.196 C 619.05 822.911 676.538 795.902 728.739 776.87 C 715.655 771.12 683.332 760.82 668.057 755.396 C 661.72 757.038 659.338 757.454 655.103 751.538 C 652.178 736.091 667.579 736.565 673.428 745.347 C 673.765 745.853 694.325 752.79 697.181 753.775 C 712.488 759.101 727.761 764.524 742.998 770.044 z"/>
<path transform="translate(0,0)" fill="rgb(245,246,240)" d="M 571.484 870.701 C 605.016 875.6 602.358 882.902 616.127 909.267 C 618.428 913.672 625.79 914.042 630.663 914.455 L 621.477 921.665 C 618.715 921.205 615.928 920.911 613.13 920.783 C 595.015 919.85 576.684 921.209 558.538 921.191 C 547.832 921.181 535.653 919.189 525.148 921.123 C 519.629 922.138 514.591 925.08 510.559 928.925 C 490.37 948.179 471.204 1049.22 470.507 1080.46 C 470.324 1088.67 470.859 1100.42 477.227 1106.41 C 484.834 1113.56 524.927 1112.21 535.778 1111.45 C 542.142 1111.01 548.186 1109.84 552.586 1104.88 C 561.607 1094.73 565.93 1076.27 570.534 1063.55 C 581.18 1034.13 608.984 951.843 627.328 931.23 C 631.857 926.141 638.254 921.429 645.364 921.362 C 655.586 921.265 699.486 942.511 707.013 950.273 C 709.615 952.956 711.415 956.218 712.021 959.92 C 714.806 976.931 713.067 996.098 713.032 1013.38 L 712.809 1113.98 C 698.464 1121.44 683.71 1130.7 669.91 1139.14 C 629.708 1162.8 612.391 1167.08 576.585 1200.62 C 567.429 1183.2 555.621 1152.29 543.896 1139.06 C 523.299 1137.84 501.455 1138.97 480.755 1137.84 C 462.471 1136.84 459.781 1144.48 454.329 1160.15 C 449.962 1172.7 448.569 1180.5 449.052 1193.83 C 432.404 1174.86 417.894 1153.25 414.899 1127.61 C 413.618 1116.65 416.434 1107.14 419.326 1096.78 C 426.694 1100.18 443.332 1109.86 451.006 1108.52 C 452.381 1108.27 453.437 1107.06 454.119 1105.91 C 457.096 1100.9 456.776 1077.71 457.698 1069.95 C 460.764 1044.12 473.297 966.258 486.373 946.514 C 498.631 928.003 517.761 917.461 539.049 913.171 C 536.804 891.664 539.584 890.198 558.003 878.986 C 560.417 883.061 562.703 885.995 565.527 889.757 C 570.882 890.198 581.399 890.523 585.632 892.897 L 585.206 893.872 C 576.631 896.143 560.437 894.747 551.054 894.29 C 551.085 900.562 550.423 906.065 553.971 911.206 C 558.859 913.366 595.647 912.748 602.515 912.06 C 604.599 907.903 602.2 902.29 601.757 898.234 C 599.781 880.111 573.713 881.82 569.097 875.95 C 568.94 872.481 568.628 874.262 571.484 870.701 z"/>
<path transform="translate(0,0)" fill="rgb(21,58,46)" d="M 640 957.077 C 648.315 957.213 658.803 959.273 659.39 969.526 C 660.202 983.718 659.583 998.173 659.46 1012.42 C 659.441 1036.03 659.561 1059.64 659.821 1083.25 C 646.259 1090.81 614.128 1100.09 597.737 1105.21 C 592.92 1106.64 581.984 1111.1 578.765 1106.91 C 579.761 1094.93 588.524 1072.96 592.766 1060.91 C 602.188 1034.14 612.586 1007.07 622.819 980.571 C 626.446 971.176 630.6 961.077 640 957.077 z"/>
<path transform="translate(0,0)" fill="rgb(21,58,46)" d="M 663.927 966.105 C 676.224 970.837 694.298 980.894 704.994 987.854 L 704.96 1063.05 L 695.013 1068.91 C 684.604 1074.37 675.212 1077.9 664.128 1081.61 L 663.927 966.105 z"/>
<path transform="translate(0,0)" fill="rgb(21,58,46)" d="M 424.221 1137.03 C 422.063 1135.14 419.581 1132.98 418.635 1130.18 C 422.122 1122.36 449.228 1131.3 452.871 1136.82 C 452.827 1139.75 452.151 1140.71 449.048 1141.87 L 448.235 1144.53 C 448.538 1145.65 448.19 1145.61 447.544 1147.18 C 442.095 1151.72 430.161 1150.22 424.743 1145.72 C 423.177 1142.73 423.482 1142.53 423.874 1139.23 L 424.221 1137.03 z"/>
<path transform="translate(0,0)" fill="rgb(21,58,46)" d="M 423.874 1139.23 C 431.598 1140.75 440.812 1142.3 448.235 1144.53 C 448.538 1145.65 448.19 1145.61 447.544 1147.18 C 442.095 1151.72 430.161 1150.22 424.743 1145.72 C 423.177 1142.73 423.482 1142.53 423.874 1139.23 z"/>
<path transform="translate(0,0)" fill="rgb(245,246,240)" d="M 424.221 1137.03 C 431.407 1137.58 441.925 1140.06 449.048 1141.87 L 448.235 1144.53 C 440.812 1142.3 431.598 1140.75 423.874 1139.23 L 424.221 1137.03 z"/>
<path transform="translate(0,0)" fill="rgb(21,58,46)" d="M 608.796 1141.35 C 612.043 1140.87 613.11 1140.54 616.414 1141.1 C 617.71 1144.13 617.362 1142.5 616.752 1146.27 C 609.779 1153.55 581.204 1155.74 571.232 1156.35 C 568.932 1156.95 569.693 1156.75 567.153 1156.42 C 564.793 1153.96 563.743 1151.93 564.891 1148.6 C 570.799 1146.51 600.777 1142.59 608.796 1141.35 z"/>
<path transform="translate(0,0)" fill="rgb(21,58,46)" d="M 610.682 1128.38 C 614.347 1127.68 614.998 1128.34 617.599 1130.22 C 618.795 1133.48 618.928 1132 617.645 1134.82 C 611.854 1139.34 579.36 1142.42 570.204 1143.42 C 565.078 1144.28 565.198 1144.34 562.045 1140.66 L 562.433 1138.4 C 567.527 1133.54 601.471 1129.73 610.682 1128.38 z"/>
<path transform="translate(0,0)" fill="rgb(245,246,240)" d="M 502.683 977.473 C 529.368 976.414 564.265 976.703 591.096 977.437 C 576.924 1012.9 563.576 1048.69 551.063 1084.77 C 548.394 1092.34 543.977 1101.26 533.636 1100.57 C 523.156 1100.24 494.12 1102.26 486.353 1097.54 C 472.079 1088.88 497.59 981.693 502.683 977.473 z"/>
<path transform="translate(0,0)" fill="rgb(245,246,240)" d="M 547.732 928.436 C 569.739 927.467 590.858 928.199 612.842 929.038 C 606.294 941.978 600.946 952.874 596.09 966.509 C 588.759 966.174 581.113 966.08 573.749 965.88 L 505.278 965.872 C 512.925 938.812 518.031 929.499 547.732 928.436 z"/>
<path transform="translate(0,0)" fill="rgb(245,246,240)" d="M 710.858 1129.03 C 710.409 1138.69 648.609 1189.44 637.558 1195.52 L 628.642 1188.98 L 622.093 1182.71 C 639.005 1172.32 657.694 1163.16 674.899 1153.1 C 687.365 1145.82 699.137 1137.45 710.858 1129.03 z"/>
<path transform="translate(0,0)" fill="rgb(245,246,240)" d="M 485.026 1149.95 C 489.33 1150.4 493.849 1150.93 497.347 1153.39 C 499.726 1158.25 501.019 1183.89 496.85 1188.31 C 491.477 1187.63 486.126 1186.79 480.804 1185.78 C 482.012 1177.47 481.926 1154.11 485.026 1149.95 z"/>
<path transform="translate(0,0)" fill="rgb(245,246,240)" d="M 471.092 1200.22 C 481.738 1199.26 511.242 1204.58 525.102 1204.07 C 536.263 1203.65 548.789 1202.47 559.924 1202.54 C 562.228 1202.56 564.067 1206.48 565.459 1208.63 C 542.705 1212.12 490.725 1212.68 471.092 1200.22 z"/>
<path transform="translate(0,0)" fill="rgb(111,133,117)" d="M 560.079 904.51 C 566.868 903.88 582.813 902.922 588.879 905.465 C 581.577 906.266 566.718 907.24 560.079 904.51 z"/>
<path transform="translate(0,0)" fill="rgb(21,58,46)" d="M 1235.1 938.047 C 1270.02 932.13 1303.17 955.515 1309.3 990.398 C 1315.44 1025.28 1292.26 1058.57 1257.42 1064.93 C 1222.27 1071.34 1188.61 1047.91 1182.42 1012.72 C 1176.23 977.525 1199.87 944.017 1235.1 938.047 z"/>
<path transform="translate(0,0)" fill="rgb(245,246,240)" d="M 1239.12 966.131 C 1258.24 962.704 1276.6 975.173 1280.46 994.21 C 1284.33 1013.25 1272.28 1031.89 1253.34 1036.18 C 1240.69 1039.05 1227.48 1034.85 1218.82 1025.2 C 1210.16 1015.55 1207.41 1001.96 1211.62 989.701 C 1215.83 977.438 1226.36 968.418 1239.12 966.131 z"/>
<path transform="translate(0,0)" fill="rgb(21,58,46)" d="M 876.364 904.099 C 884.924 904.983 893.508 908.162 893.672 918.203 C 894.398 962.462 894.563 1007.03 893.531 1051.27 C 893.458 1054.4 892.104 1057.25 890.019 1059.53 C 886.909 1062.87 882.555 1064.77 877.993 1064.78 C 854.526 1064.69 861.821 1015.97 861.98 998.292 L 789.898 998.022 C 789.572 1014.86 791.921 1037.88 788.176 1053.79 C 786.825 1059.53 781.969 1062.37 776.98 1064.75 C 763.942 1065.03 758.026 1060.2 758.048 1046.48 C 758.117 1003.97 757.118 961.169 758.269 918.713 C 757.286 904.365 778.331 900.243 785.239 909.246 C 793.31 919.765 790.143 957.439 790.057 970.907 L 861.635 970.972 C 861.841 958.714 861.258 946.2 861.28 933.927 C 861.304 919.69 860.363 908.361 876.364 904.099 z"/>
<path transform="translate(0,0)" fill="rgb(21,58,46)" d="M 973.774 938.332 C 1009.08 934.225 1036.5 955.43 1040.72 990.805 C 1042 1001.52 1039.68 1011.21 1026.95 1011.71 C 1001.5 1012.7 975.949 1010.24 950.408 1011.61 C 956.638 1035.63 973.852 1042.43 997.419 1037.37 C 1006.36 1035.46 1010.86 1031.82 1018.81 1027.7 C 1023.32 1029.76 1029.76 1033.78 1030.83 1038.97 C 1033.69 1052.81 1012.83 1060.31 1002.47 1062.32 C 965.066 1069.58 926.957 1054.04 919.978 1013.14 C 916.847 995.653 920.893 977.639 931.204 963.169 C 941.997 948.334 955.999 941.142 973.774 938.332 z"/>
<path transform="translate(0,0)" fill="rgb(245,246,240)" d="M 973.448 964.178 C 997.06 962.055 1005.1 968.734 1011.95 990.914 L 991.25 990.972 L 950.521 990.808 C 954.279 975.492 958.577 969.323 973.448 964.178 z"/>
<path transform="translate(0,0)" fill="rgb(21,58,46)" d="M 1463.9 939.403 C 1482.58 938.932 1502.06 941.781 1513.85 958.13 C 1517.7 963.573 1520.26 969.829 1521.31 976.414 C 1524.54 995.361 1521.86 1029.88 1521.83 1050.16 C 1521.81 1061.26 1506.06 1072.2 1495.21 1051.86 L 1494.54 1050.59 C 1484.03 1057.41 1477.36 1062.2 1464.21 1062.91 C 1448.23 1063.77 1436.77 1059.74 1424.76 1049.4 C 1414.57 1037.15 1413.34 1022.48 1420.89 1008.49 C 1434.96 982.395 1472.29 996.011 1491.8 989.974 C 1493.58 986.589 1493.15 986.04 1492.22 982.285 C 1487.56 964.8 1470.98 961.943 1455.43 965.612 C 1450.04 966.252 1432.74 977.83 1428.25 972.052 C 1408.17 946.214 1453.69 940.363 1463.9 939.403 z"/>
<path transform="translate(0,0)" fill="rgb(245,246,240)" d="M 1461.79 1010.24 C 1471.73 1009.29 1482.79 1009.84 1492.81 1010.28 C 1492.75 1025.92 1491.1 1033.32 1476.38 1040.18 C 1444.37 1046.14 1431.28 1016.36 1461.79 1010.24 z"/>
<path transform="translate(0,0)" fill="rgb(21,58,46)" d="M 1073.9 894.047 C 1088.24 893.159 1094.47 898.403 1094.52 913.09 C 1094.54 953.318 1094 993.587 1093.97 1033.82 C 1093.96 1047.73 1096.34 1055.55 1083.44 1063.24 C 1067.86 1065.28 1063.28 1056.76 1063.29 1041.87 C 1063.32 996.056 1061.9 949.084 1063.82 903.36 C 1063.97 899.75 1071.01 895.609 1073.9 894.047 z"/>
<path transform="translate(0,0)" fill="rgb(21,58,46)" d="M 1625.18 893.209 C 1642.38 894.841 1641.68 903.886 1641.54 918.545 C 1641.12 962 1641.43 1005.49 1640.99 1048.93 C 1640.9 1057.5 1635.4 1061.93 1627.71 1064.03 C 1611.8 1062.61 1611.67 1051.54 1611.66 1038.32 C 1611.66 995.932 1611.06 953.486 1611.98 911.113 C 1612.22 900.318 1614.71 895.923 1625.18 893.209 z"/>
<path transform="translate(0,0)" fill="rgb(21,58,46)" d="M 1342.72 940.038 C 1358.69 938.394 1361.26 944.346 1362.58 958.47 C 1372.04 948.025 1402.2 923.612 1405.95 955.002 C 1407.85 970.843 1379.63 967.492 1372.62 976.009 C 1364.28 986.141 1364.89 1000.66 1365 1013.5 C 1364.89 1024.35 1366.27 1035.82 1365.03 1046.57 C 1364.41 1051.87 1362.44 1057.27 1357.94 1060.46 C 1354.52 1062.89 1351.06 1063.64 1346.93 1062.93 C 1342.74 1062.21 1338.34 1059.79 1336.01 1056.14 C 1332.04 1049.94 1331.55 959.843 1334.07 949.251 C 1335.18 944.569 1338.94 942.389 1342.72 940.038 z"/>
<path transform="translate(0,0)" fill="rgb(21,58,46)" d="M 1137.11 940.06 C 1138.91 939.997 1140.72 939.976 1142.53 939.998 C 1155.4 940.263 1156.75 948.147 1157 959.552 C 1157.34 985 1157.18 1010.5 1157.19 1035.95 C 1157.2 1049.57 1159.45 1056.33 1146.09 1062.99 C 1138.61 1063.34 1133.84 1063.11 1128.86 1057.15 C 1125.07 1044.31 1126.77 968.79 1127.05 950.233 C 1127.11 946.292 1133.88 942.107 1137.11 940.06 z"/>
<path transform="translate(0,0)" fill="rgb(21,58,46)" d="M 1560.85 940.068 C 1563.14 939.763 1565.41 939.629 1567.71 939.854 C 1572.1 940.284 1575.83 942.487 1578.42 946.049 C 1582.32 951.408 1582.13 1042.1 1579.94 1052.42 C 1578.89 1057.36 1575.05 1060.3 1571.13 1062.98 C 1558.09 1063.81 1552.71 1059.82 1552.04 1046.43 C 1551.37 1023.92 1551.12 1001.11 1551.45 978.569 C 1551.69 962.466 1547.69 950.686 1560.85 940.068 z"/>
<path transform="translate(0,0)" fill="rgb(21,58,46)" d="M 1099.18 1097.45 C 1099.66 1097.83 1120.67 1131.69 1122.61 1134.87 C 1128.02 1126.17 1140.65 1104.55 1148.12 1099.25 C 1152.37 1098.54 1150.47 1098.23 1154.08 1099.55 C 1155.32 1103.65 1155.52 1117.15 1155.17 1121.66 C 1154.67 1128.12 1156.49 1160.83 1153.25 1163.78 C 1149.88 1164.2 1150.07 1164.3 1146.86 1163.33 C 1145.79 1162.02 1144.62 1161.07 1144.63 1159.59 C 1144.67 1149.53 1144.9 1137.46 1144.88 1127.5 C 1144.98 1123.68 1144.93 1122.4 1144.54 1118.6 C 1136.29 1129.42 1131.74 1141.35 1123.01 1151.55 C 1115.5 1144.34 1106.72 1128.73 1101.13 1119.45 C 1101 1132.05 1101.3 1146.86 1101.18 1159.61 C 1101.15 1162.16 1099 1162.91 1097.2 1163.9 C 1092.76 1163.84 1094.54 1164.59 1091.42 1162.37 C 1090.33 1155.29 1089.98 1105.6 1090.98 1099.05 C 1093.26 1097.34 1096.17 1097.62 1099.18 1097.45 z"/>
<path transform="translate(0,0)" fill="rgb(21,58,46)" d="M 1295.37 1098.54 L 1306.71 1099.02 C 1316.82 1120.65 1327.12 1142.19 1337.6 1163.64 C 1333.44 1163.78 1330.05 1163.66 1325.88 1163.5 L 1318.54 1147.38 L 1309.64 1147.81 L 1283.61 1148 C 1277.19 1159.9 1281.8 1164.46 1265.49 1163.7 C 1275.61 1141.32 1286.25 1121.71 1295.37 1098.54 z"/>
<path transform="translate(0,0)" fill="rgb(245,246,240)" d="M 1300.91 1110.67 C 1304.85 1113.7 1312.09 1133.42 1314.43 1139.27 L 1304.32 1139.74 L 1288 1139.91 C 1292.39 1130.31 1296.65 1120.36 1300.91 1110.67 z"/>
<path transform="translate(0,0)" fill="rgb(21,58,46)" d="M 1378.08 1098.19 C 1387.48 1097.43 1403.37 1097.18 1407.11 1107.7 C 1406.36 1111.78 1407.25 1110.09 1404.49 1113.01 C 1398.39 1113.73 1386.3 1100.79 1369.39 1111.48 C 1364.71 1114.4 1361.41 1119.08 1360.24 1124.47 C 1356.82 1139.96 1365.26 1152.31 1381.08 1154.42 C 1401.38 1157.12 1399.51 1147.53 1399.32 1131.8 C 1399.45 1129.74 1399.35 1130.51 1400.47 1128.55 C 1409.81 1126.35 1410.14 1129.23 1410.28 1138.4 C 1410.37 1144.11 1410.13 1149.94 1410.11 1155.67 C 1396.83 1164.59 1381.16 1168.11 1366.35 1160.25 C 1357.95 1155.82 1351.77 1148.11 1349.27 1138.95 C 1343.48 1116.88 1357.76 1102.75 1378.08 1098.19 z"/>
<path transform="translate(0,0)" fill="rgb(21,58,46)" d="M 1022.9 1099.04 C 1031.16 1099 1064.65 1097.54 1069.65 1100.54 C 1069.73 1104.54 1070.4 1102.97 1068.23 1105.66 C 1061.35 1108.96 1042.21 1107.74 1033.1 1107.8 L 1033.14 1126.09 C 1039.67 1126.11 1060.17 1124.88 1064.9 1127.04 C 1065.51 1131.25 1065.86 1129.35 1064.09 1132.98 C 1058.12 1136.78 1041.54 1135.08 1033.46 1135.01 C 1033.07 1140.26 1033.31 1149.12 1033.29 1154.65 C 1041.46 1154.46 1065.08 1152.64 1070.31 1157 C 1070.83 1160.82 1071.33 1160.15 1069.98 1163.13 C 1059.86 1164.62 1033.94 1164.09 1022.71 1164.14 C 1022.51 1142.66 1022.83 1120.57 1022.9 1099.04 z"/>
<path transform="translate(0,0)" fill="rgb(21,58,46)" d="M 911.569 1098.32 C 923.716 1098.55 927.718 1099.46 939.496 1102.86 L 933.765 1111.59 C 926.8 1108.69 908.104 1102.5 902.32 1111.61 C 895.678 1122.07 912.94 1125.78 919.91 1127.42 C 927.391 1129.19 939.054 1132.9 940.048 1142.45 C 941.683 1159.54 929.574 1163.26 915.27 1164.71 C 902.886 1163.57 900.189 1162.48 888.932 1156.94 L 893.46 1147 C 901.837 1153.52 920.989 1159.08 929.312 1150.96 C 930.077 1148.11 929.319 1142.3 926.666 1140.87 C 914.984 1134.56 878.326 1130.34 891.842 1109.3 C 896.92 1101.39 902.915 1099.64 911.569 1098.32 z"/>
<path transform="translate(0,0)" fill="rgb(21,58,46)" d="M 1193.43 1098.27 C 1201.12 1097.66 1215.41 1097.52 1221.48 1102.64 C 1222.21 1105.68 1222.19 1104.14 1221.08 1107.4 C 1211.46 1114.23 1189.29 1097.6 1185.61 1116.01 C 1189.66 1129.93 1224.5 1125.87 1225.84 1142.65 C 1227.13 1158.92 1211.75 1163.57 1199.93 1164.48 C 1192.16 1164.09 1181.76 1162.6 1175.53 1157.69 C 1174.37 1154.23 1174.4 1155.99 1175.99 1152.22 C 1183.7 1146.68 1193.99 1158.69 1204.26 1155.19 C 1210.87 1152.94 1216.8 1150.77 1214.43 1142.29 C 1205.65 1132.64 1180.54 1136.98 1175.89 1121.82 C 1171.66 1108.03 1182.36 1101.31 1193.43 1098.27 z"/>
<path transform="translate(0,0)" fill="rgb(21,58,46)" d="M 779.631 1098.24 C 791.639 1097.44 798.005 1099.15 808.566 1104.06 L 804.38 1112.19 C 796.095 1107.97 777.69 1101.77 771.418 1113.43 C 770.046 1115.98 770.532 1117.01 771.209 1119.49 C 780.599 1130.1 820.097 1126.64 807.487 1154.94 C 804.885 1160.78 795.538 1163.02 789.885 1164.18 C 782.276 1164.26 763.922 1163.65 760.103 1156.48 C 760.094 1153.44 761.021 1152.53 762.642 1149.96 C 765.372 1149.22 794.697 1163.69 798.871 1149.06 C 803.969 1131.2 745.728 1140.26 763.254 1108.57 C 766.898 1101.98 772.928 1099.89 779.631 1098.24 z"/>
<path transform="translate(0,0)" fill="rgb(21,58,46)" d="M 949.763 1098.9 C 956.803 1098.85 1004.11 1097.21 1006.95 1100.77 C 1007 1104.62 1007.69 1104.41 1005.75 1106.53 C 1000.05 1107.96 991.079 1107.44 984.913 1107.36 L 984.82 1141.75 C 984.805 1148.87 987.29 1159.63 981.565 1163.92 C 978.133 1164.26 978.135 1164.41 974.665 1163.43 C 971.915 1158.8 973.553 1114.95 973.635 1107.59 C 965.299 1107.23 958.853 1109.23 951.593 1106.44 C 949.129 1103.64 949.976 1103.72 949.763 1098.9 z"/>
<path transform="translate(0,0)" fill="rgb(21,58,46)" d="M 848.099 1132.49 C 852.143 1125.75 864.718 1102.87 870.214 1099.22 C 873.187 1098.84 873.768 1098.55 876.686 1099.31 C 877.326 1104.46 867.059 1119.01 863.865 1124.1 L 853.074 1142.73 C 853.207 1149.4 854.676 1161.27 848.192 1165.32 L 846.28 1164.38 C 841.407 1156.93 842.715 1152.13 842.902 1142.84 C 834.937 1128.7 826.633 1115.38 818.077 1101.61 L 818.605 1100.27 L 822.609 1098.86 C 822.751 1098.89 825.355 1099.36 825.77 1099.57 C 832.825 1103.13 844.263 1125.75 848.099 1132.49 z"/>
<path transform="translate(0,0)" fill="rgb(21,58,46)" d="M 1135.02 894.171 C 1159.6 891.093 1169.31 915.055 1146.09 926.509 C 1124.2 929.933 1113.43 907.346 1135.02 894.171 z"/>
<path transform="translate(0,0)" fill="rgb(21,58,46)" d="M 1559.65 892.36 C 1568.57 889.421 1578.18 894.243 1581.15 903.145 C 1584.13 912.048 1579.34 921.678 1570.45 924.686 C 1561.51 927.709 1551.82 922.892 1548.83 913.942 C 1545.84 904.991 1550.69 895.316 1559.65 892.36 z"/>
<path transform="translate(0,0)" fill="rgb(38,45,40)" d="M 1296.97 1316.84 C 1302.24 1317.7 1307.88 1318.52 1313.1 1319.49 C 1307.02 1319.81 1301.32 1320.17 1295.23 1320.04 L 1296.97 1316.84 z"/>
</svg>