<svg version="1.1" xmlns="http://www.w3.org/2000/svg" style="display: block;" viewBox="0 0 1365 2048" width="1024" height="1536" preserveAspectRatio="none">
<path transform="translate(0,0)" fill="rgb(255,255,255)" d="M 0 0 L 1365 0 L 1365 2048 L 0 2048 L 0 0 z"/>
<path transform="translate(0,0)" fill="rgb(38,41,61)" d="M 489.551 775.395 C 519.667 772.749 582.228 799.28 612.447 808.653 C 620.456 810.404 629.319 809.333 637.442 810.168 C 672.09 813.726 704.818 831.173 733.757 849.554 C 749.691 859.675 762.412 871.339 780.361 878.392 C 793.35 883.496 801.557 878.743 814.335 881.22 C 819.443 882.591 837.38 892.137 843.705 895.172 C 868.949 907.285 895.728 919.055 920.014 932.915 C 926.829 936.804 929.149 947.327 930.572 954.562 C 938.369 953.777 945.146 952.18 952.779 950.531 C 973.835 962.088 1003.21 975.182 1025.05 985.458 C 1055.78 1000.19 1086.59 1014.77 1117.47 1029.18 C 1125.31 1032.77 1133.07 1036.29 1141.16 1039.84 C 1172.8 1053.84 1209.14 1065.77 1215.21 1105.16 C 1219.05 1130.03 1216.31 1152.33 1214.79 1177.12 C 1192.65 1191.08 1160.63 1205.34 1136.77 1218.45 C 1064.82 1257.99 990.929 1294.27 918.128 1332.29 C 808.194 1390.85 697.579 1448.13 586.307 1504.11 C 425.219 1584.27 264.695 1665.56 104.746 1747.97 C 100.357 1755.85 95.5084 1766.24 91.3804 1774.46 C 115.342 1760.92 143.672 1747.02 168.484 1734.12 L 329.066 1651.35 L 786.137 1414.75 L 928.565 1338.14 C 968.739 1316.93 1008.76 1295.43 1048.61 1273.63 C 1076.06 1258.8 1103.34 1243.68 1130.47 1228.27 C 1158.93 1211.84 1191.28 1192.19 1220.74 1177.96 C 1244.06 1166.69 1278.47 1154.71 1303.31 1145.28 C 1268.19 1180.19 1226.9 1217.34 1190.6 1251.85 C 1148.99 1289.48 1106.45 1330.95 1065.7 1369.67 L 930.161 1497.66 L 859.341 1564.75 C 851.08 1572.63 827.182 1596.38 818.974 1601.94 C 796.912 1598.28 771.88 1590.12 748.665 1586.03 C 738.19 1595.07 727.958 1604.39 717.979 1613.98 C 726.948 1616.1 756.404 1621.73 762.195 1627.06 C 764.072 1632.08 763.271 1645.37 763.176 1651.44 C 743.502 1670.5 724 1689.75 704.672 1709.16 C 694.344 1719.46 682.288 1732.13 671.41 1741.57 C 649.702 1736.56 625.081 1728.56 602.612 1722.98 C 586.995 1737.6 571.626 1753.2 556.496 1768.32 C 570.066 1772.23 583.563 1775.77 596.943 1780.31 L 603.978 1789.88 C 603.281 1798.81 603.148 1801.59 603.845 1810.44 C 591.968 1823.62 578.407 1835.93 566.131 1848.78 C 561.498 1853.63 556.283 1858.9 551.093 1863.1 C 529.892 1854.84 504.772 1846.91 482.991 1839.32 C 446.679 1873.44 410.149 1910.34 374.461 1945.36 C 349.286 1948.24 308.751 1957.11 282.435 1961.67 L 434.393 1816.97 C 356.922 1788.87 279.004 1762.02 200.669 1736.42 C 157.351 1757.63 106.252 1786.31 63.3752 1809.45 C 72.3462 1790.9 81.9468 1772.25 90.5344 1753.61 C 97.183 1739.17 104.636 1721.6 98.7542 1705.98 C 131.787 1690.52 165.068 1675.59 198.585 1661.21 C 205.945 1662.59 217.382 1666.03 225.153 1667.97 C 237.051 1662.19 249.014 1656.31 260.762 1650.24 C 339.338 1609.64 420.2 1572.77 498.522 1531.72 C 490.111 1528.75 472.608 1524.92 463.476 1522.75 L 401.615 1508.34 C 336.597 1493.37 266.731 1477.69 202.562 1461.07 C 192.3 1440.18 142.028 1339.25 141.897 1321.1 C 141.017 1198.93 173.218 1022.77 240.53 920.997 C 283.92 855.391 349.482 828.249 412.724 816.421 C 415.58 812.795 418.462 809.189 421.367 805.601 C 441.683 780.594 456.724 778.821 489.551 775.395 z"/>
<path transform="translate(0,0)" fill="rgb(255,255,255)" d="M 515.459 801.365 C 532.536 798.65 565.909 806.234 581.377 814.298 C 558.172 807.931 537.177 803.392 512.972 807.769 C 479.392 813.84 449.537 839.658 430.774 867.325 L 431.263 867.012 C 452.595 852.874 463.216 837.362 488.379 825.851 C 500.563 820.151 513.688 816.732 527.105 815.761 C 559.744 813.524 592.202 824.161 624.686 824.825 C 642.536 825.189 658.875 830.303 675.408 836.44 C 672.695 837.676 670.04 839.036 667.452 840.515 C 655.205 847.567 645.018 859.681 636.367 870.72 C 589.698 930.278 575.967 1013.13 560.637 1085.5 C 557.669 1099.5 555.894 1114.28 552.099 1128.03 C 546.179 1149.47 489.972 1210.61 472.161 1228.21 C 459.168 1241.05 445.169 1253.61 430.626 1264.7 C 409.426 1280.86 386.482 1293.28 363.554 1306.63 C 414.315 1308.71 479.428 1315.79 530.453 1320.76 C 546.655 1241.22 558.799 1160.09 576.253 1080.88 C 593.107 1004.4 610.378 907.846 668.327 851.193 C 822.396 915.855 974.206 985.316 1130.3 1045.22 C 1142.95 1050.07 1173.77 1062.61 1182.98 1069.79 C 1163.96 1063.63 1144.89 1057.65 1125.77 1051.83 C 1119.65 1050.04 1113.51 1048.32 1107.36 1046.62 C 1068.31 1035.79 1030.75 1020.44 992.435 1007.02 L 777.514 931.029 C 760.901 925.236 744.402 919.12 728.027 912.686 C 713.558 906.984 696.526 899.02 681.495 895.922 C 674.865 894.556 667.875 896.141 662.587 900.497 C 647.163 913.202 634.194 943.586 627.738 962.184 C 609.042 1016.04 597.587 1073.02 586.433 1128.81 C 571.534 1202.67 558.754 1276.93 548.108 1351.52 C 504.742 1350.45 459.042 1346.08 415.748 1342.17 C 329.207 1334.01 242.833 1324.16 156.675 1312.64 C 160.579 1214.51 174.033 1129.14 204.765 1035.64 C 242.206 921.714 291.148 859.404 409.881 830.052 C 406.217 837.949 402.694 847.416 399.442 855.617 C 410.94 863.169 421.58 869.727 418.521 885.892 C 416.094 898.721 399.939 911.729 386.864 908.711 C 388.693 906.872 390.992 904.729 392.762 902.796 C 410.685 883.226 389.129 827.144 362.706 858.826 C 356.366 866.291 353.353 876.022 354.366 885.763 C 356.641 909.452 379.191 920.344 401.17 918.359 C 420.456 916.617 444.423 894.249 434.465 873.687 C 432.651 869.94 430.183 866.741 429.645 862.54 C 431.115 856.243 434.747 851.786 438.666 846.789 C 459.085 820.756 481.698 805.218 515.459 801.365 z"/>
<path transform="translate(0,0)" fill="rgb(38,41,61)" d="M 405.102 925.5 C 409.22 925.266 413.342 925.108 417.466 925.026 C 445.257 924.511 554.957 930.244 571.741 947.788 C 577.056 953.344 580.009 962.345 579.767 969.956 C 579.191 988.107 570.986 1012.73 566.932 1030.98 C 561.727 1054.41 556.198 1090.26 548.199 1111.21 C 546.2 1116.45 543.003 1120.73 538.945 1124.57 C 534.316 1128.95 527.487 1134.08 521.01 1134.88 C 503.458 1137.04 470.823 1128.49 451.729 1125.62 C 425.836 1121.72 399.452 1118.5 373.25 1117.88 C 336.11 1116.58 298.93 1118.74 262.187 1124.31 C 247.666 1126.58 233.265 1130.69 218.829 1132.74 C 212.759 1133.6 206.807 1132.97 201.866 1128.97 C 196.789 1124.86 194.392 1118.4 193.932 1112.04 C 192.378 1090.6 218.562 1013.11 228.735 990.998 C 232.381 983.073 236.823 975.323 242.675 968.809 C 270.231 938.13 366.104 927.282 405.102 925.5 z"/>
<path transform="translate(0,0)" fill="rgb(255,255,255)" d="M 427.682 937.476 C 450.942 937.793 475.905 939.025 498.98 942.411 C 489.405 956.883 477.586 979.095 468.452 994.681 L 403.015 1106.18 C 373.573 1104.17 353.421 1103.45 323.751 1105.1 C 304.536 1106.32 276.892 1108.72 258.4 1112.52 C 264.161 1095.4 269.761 1074.05 274.99 1056.34 C 285.223 1022.18 295.217 987.953 304.972 953.654 C 351.209 942.515 379.767 938.652 427.682 937.476 z"/>
<path transform="translate(0,0)" fill="rgb(255,255,255)" d="M 553.407 952.517 C 564.669 957.316 568.202 965.55 565.296 977.421 C 554.873 1019.98 547.076 1063.3 536.09 1105.67 C 534.292 1110.18 529.254 1116.04 525.342 1118.53 C 513.075 1126.34 491.886 1118.83 478.247 1116.29 L 459.374 1113.2 C 468.992 1098.41 478.498 1080.41 487.613 1064.93 L 553.407 952.517 z"/>
<path transform="translate(0,0)" fill="rgb(255,255,255)" d="M 528.23 946.573 L 547.642 950.865 C 540.273 964.597 529.145 981.104 520.985 995.142 L 452.826 1111.95 C 446.786 1110.91 440.653 1110.31 434.558 1109.64 C 445.92 1092.55 458.294 1069.31 468.616 1051.3 C 488.874 1016.61 508.746 981.703 528.23 946.573 z"/>
<path transform="translate(0,0)" fill="rgb(255,255,255)" d="M 506.102 942.648 L 522.365 945.531 C 490.667 997.244 458.275 1056.19 427.905 1109.19 C 421.286 1107.84 416.617 1107.35 409.958 1106.69 C 442.602 1053.23 474.232 996.777 506.102 942.648 z"/>
<path transform="translate(0,0)" fill="rgb(255,255,255)" d="M 265.908 967.854 C 266.04 971.857 220.245 1116.66 217.482 1119.89 C 214.641 1120.94 213.604 1120.28 210.502 1119.41 C 205.515 1111.35 206.645 1101.58 209.382 1092.83 C 220.925 1055.91 230.26 1015.88 248.244 981.531 C 250.548 977.131 261.433 970.557 265.908 967.854 z"/>
<path transform="translate(0,0)" fill="rgb(255,255,255)" d="M 281.323 961.951 C 282.354 962.286 281.866 962.084 282.651 963.464 C 280.796 971.039 277.363 979.895 275.053 987.758 C 268.38 1010.98 261.425 1034.13 254.191 1057.19 C 249.004 1074.05 242.341 1100.81 236.57 1115.73 C 234.318 1117.76 230.803 1118 227.638 1118.61 C 227.081 1118.54 226.9 1118.11 226.319 1117.52 C 226.766 1113.16 271.397 970.035 273.986 965.516 C 275.089 963.589 279.309 962.626 281.323 961.951 z"/>
<path transform="translate(0,0)" fill="rgb(255,255,255)" d="M 296.076 956.651 L 297.28 957.339 C 297.997 966.144 276.225 1026.62 273.572 1039.28 C 269.989 1056.39 259.954 1081.93 256.026 1100.12 C 254.287 1108.18 253.432 1112.77 245.749 1115.24 C 244.579 1114.77 245.015 1114.85 244.05 1113.53 C 244.141 1112.71 244.351 1110.57 244.848 1109.01 C 260.615 1059.51 274.261 1008.64 290.953 959.59 C 293.056 958.384 294.763 957.404 296.076 956.651 z"/>
<path transform="translate(0,0)" fill="rgb(38,41,61)" d="M 306.361 1142.2 C 397.461 1136.51 410.163 1274.14 333.263 1303.46 C 331.693 1303.97 330.098 1304.41 328.485 1304.77 C 288.487 1313.48 267.052 1281.16 260.143 1246.2 C 252.535 1207.71 260.323 1150.41 306.361 1142.2 z"/>
<path transform="translate(0,0)" fill="rgb(255,255,255)" d="M 307.865 1152.34 C 345.993 1152.42 353.828 1185.37 358.683 1216.32 C 363.571 1195.75 362.052 1188.36 354.646 1168.93 C 377.447 1198.2 376.896 1230.59 360.568 1262.55 C 360.382 1257.62 360.866 1251.58 357.484 1248.26 C 354.608 1249.11 355.165 1249.47 352.907 1252.54 C 341.442 1271.1 318.009 1308.25 291.712 1288.64 C 256.199 1262.15 253.143 1160.78 307.865 1152.34 z"/>
<path transform="translate(0,0)" fill="rgb(38,41,61)" d="M 305.732 1158.06 C 356.764 1155.02 363.235 1268.52 311.681 1288.72 C 292.498 1289.45 279.723 1266 274.904 1250.41 C 266.963 1224.71 267.871 1191.04 286.368 1169.85 C 292.056 1163.33 297.655 1160.47 305.732 1158.06 z"/>
<path transform="translate(0,0)" fill="rgb(255,255,255)" d="M 307.646 1169.37 L 311.41 1171.07 C 315.246 1175.87 315.195 1251.57 316.153 1264.15 C 320.166 1232.52 324.953 1209.04 324.124 1176.68 C 340.281 1204.48 344.131 1265.96 309.26 1280.8 C 271.15 1270.44 275.901 1198.09 299.148 1172.55 C 295.471 1197.6 294.852 1231.7 296.585 1257.34 C 299.335 1240.03 303.356 1181.46 307.646 1169.37 z"/>
<path transform="translate(0,0)" fill="rgb(38,41,61)" d="M 181.341 1144.56 C 186.392 1148.89 203.259 1193.6 207.624 1203.35 C 211.745 1212.5 216.292 1221.45 221.252 1230.17 C 237.223 1258.12 252.541 1277.21 275.152 1299.55 C 240.992 1296.04 206.853 1292.31 172.739 1288.37 L 173.014 1275.1 C 183.788 1276.54 232.544 1282.95 241.405 1282.47 L 238.408 1278.22 L 233.228 1272.54 C 221.81 1271.73 184.286 1268.41 174.626 1265.16 C 173.282 1262.19 173.769 1259.53 173.913 1256.19 C 178.986 1253.71 217.128 1259.2 225.219 1260.23 L 218.769 1250.35 C 211.128 1249.32 178.466 1246.95 174.99 1243.31 C 174.885 1240.07 174.281 1236.55 175.939 1234.04 C 179.891 1233.7 205.586 1237.55 210.785 1238.23 L 204.823 1227.37 C 195.033 1226.98 185.268 1226.13 175.56 1224.82 L 176.508 1213.31 C 184.002 1214.4 191.674 1215.34 199.195 1216.33 L 195.004 1206.14 L 177.151 1204.87 C 177.494 1201.31 177.434 1198.1 179.192 1195.08 C 183.166 1193.57 185.318 1194.72 190.052 1195.46 C 182.743 1175.74 179.385 1165.74 181.341 1144.56 z"/>
<path transform="translate(0,0)" fill="rgb(255,255,255)" d="M 673.803 910.135 C 687.402 908.457 714.868 921.933 728.634 927.373 C 749.214 935.538 769.999 943.177 790.968 950.283 C 881.45 981.279 981.807 1012.59 1070.3 1047.08 C 1071.65 1062.76 1071.01 1086.69 1070.94 1102.91 L 1070.62 1198.95 C 1035.56 1206.48 996.943 1219.64 962.39 1229.87 C 900.926 1248.05 838.629 1268.86 776.934 1285.95 L 776.398 1059.25 C 776.206 1039.54 779.759 983.154 772.023 967.79 C 769.335 962.452 765.366 957.863 760.472 954.434 C 751.994 948.427 710.185 933.476 698.625 929.628 C 686.222 933.003 677.955 939.506 676.975 953.33 C 675.712 971.151 676.192 989.104 676.19 1006.98 L 676.208 1100.32 L 676.181 1234.17 C 676.161 1259.96 675.535 1289.18 676.661 1314.68 C 640.08 1326.05 602.354 1335.55 566.036 1346.94 C 575.095 1282.09 585.784 1217.48 598.093 1153.17 C 607.543 1101.93 635.907 939.426 673.803 910.135 z"/>
<path transform="translate(0,0)" fill="rgb(38,41,61)" d="M 825.869 991.201 C 835.061 989.903 859.349 998.321 869.772 1001.26 L 961.457 1027.59 C 981.228 1033.12 1000.96 1038.79 1020.65 1044.6 C 1058.91 1055.54 1067.3 1053.52 1065.06 1098.01 C 1064.4 1111.21 1065.95 1118.19 1052.53 1125.6 C 1001.81 1126.27 951.09 1126.39 900.369 1125.96 C 878.874 1125.9 856.981 1127.15 835.544 1126.02 C 822.886 1125.12 815.217 1112.85 814.492 1101.21 C 813.72 1088.81 813.998 1076.23 814.275 1063.85 C 814.67 1046.13 813.223 1028.53 814.113 1010.91 C 814.575 1001.76 819.14 996.393 825.869 991.201 z"/>
<path transform="translate(0,0)" fill="rgb(255,255,255)" d="M 878.88 1016.85 C 895.69 1022.24 919.504 1027.82 936.936 1032.43 L 937.194 1085.86 C 937.224 1092.97 937.625 1108.44 936.748 1114.88 L 878.035 1114.55 C 878.149 1081.98 878.431 1049.41 878.88 1016.85 z"/>
<path transform="translate(0,0)" fill="rgb(255,255,255)" d="M 971.946 1042.65 L 1011.07 1053.48 L 1011.07 1115.33 L 971.846 1115.04 L 971.946 1042.65 z"/>
<path transform="translate(0,0)" fill="rgb(255,255,255)" d="M 828.651 1003.47 C 832.149 1003.78 837.366 1004.95 840.942 1005.65 C 840.938 1036.06 841.385 1081.29 840.299 1113.08 C 839.614 1113.91 839.031 1114.62 838.55 1115.2 C 826.592 1111.53 825.28 1101.53 826.561 1090.72 C 828.442 1074.85 822.877 1015.22 828.651 1003.47 z"/>
<path transform="translate(0,0)" fill="rgb(255,255,255)" d="M 1020.68 1056.26 C 1026.15 1057.48 1032.63 1059.38 1038.14 1060.84 L 1037.89 1115.71 L 1020.46 1115.62 C 1020.3 1101.2 1019.27 1069.57 1020.68 1056.26 z"/>
<path transform="translate(0,0)" fill="rgb(255,255,255)" d="M 851.018 1008.49 C 853.409 1009.14 857.308 1009.74 859.096 1011.49 C 861.892 1014.21 860.548 1102.61 860.583 1114.47 C 857.389 1114.56 853.772 1114.83 851.235 1113.26 C 850.289 1103.47 850.798 1086.51 850.822 1076.09 L 851.018 1008.49 z"/>
<path transform="translate(0,0)" fill="rgb(255,255,255)" d="M 864.548 1012.42 L 874.899 1015.69 C 873.613 1047.87 874.073 1082.06 873.99 1114.4 C 870.816 1114.53 867.831 1115.1 865.208 1113.61 C 864.239 1106.87 864.779 1086.92 864.77 1079.29 L 864.548 1012.42 z"/>
<path transform="translate(0,0)" fill="rgb(255,255,255)" d="M 957.353 1038.46 L 967.626 1041.62 L 967.172 1114.95 C 963.681 1115.07 962.401 1115.01 958.941 1114.54 C 956.504 1111.12 957.353 1048.28 957.353 1038.46 z"/>
<path transform="translate(0,0)" fill="rgb(255,255,255)" d="M 946.984 1035.97 C 949.78 1036.54 950.82 1036.52 953.038 1038.17 C 955.301 1047.02 953.469 1101.34 953.412 1113.8 C 951.196 1115.21 949.636 1114.94 947.571 1113.83 C 945.054 1103.34 946.963 1049.78 946.984 1035.97 z"/>
<path transform="translate(0,0)" fill="rgb(255,255,255)" d="M 1047.07 1063.59 C 1049.56 1064.95 1052.19 1066.97 1053.36 1069.52 C 1057.02 1077.48 1056.19 1106.01 1053.66 1113.3 C 1051.07 1114.66 1050.77 1115.01 1047.97 1114.96 C 1045.83 1112.36 1047.01 1069.98 1047.07 1063.59 z"/>
<path transform="translate(0,0)" fill="rgb(255,255,255)" d="M 570.711 1361.04 C 589.243 1354.14 614.967 1347.36 634.678 1341.54 L 740.028 1309.97 C 850.818 1277.17 960.848 1241.86 1070.04 1204.08 L 1070.43 1219.86 C 1057.14 1223.18 1033.17 1232.88 1019.79 1237.89 C 986.421 1250.72 952.959 1263.32 919.411 1275.67 C 865.253 1295.42 810.587 1313.52 756.215 1332.63 C 738.652 1338.81 695.775 1352.01 681.555 1361.75 C 663.573 1374.06 635.522 1415.85 623.315 1435.54 C 617.473 1444.97 611.358 1460.22 602.425 1466.93 C 589.273 1476.81 517.12 1502.25 497.191 1509.33 C 472.146 1504.79 441.507 1497.06 415.927 1491.49 L 213.9 1446.6 C 193.64 1410.31 175.858 1368.24 162.037 1329.15 C 222.687 1337.66 285.439 1344.1 346.338 1350.89 C 412.769 1358.3 483.681 1366.84 550.417 1369.07 C 547.423 1391.8 544.778 1416.19 540.946 1438.61 C 531.447 1448.61 503.865 1467.58 489.732 1467.59 C 467.717 1467.6 442.013 1460.88 419.821 1457.87 C 360.672 1449.86 301.031 1438.05 241.716 1431.61 L 240.863 1433.95 C 275.817 1442.96 313.763 1450.53 349.179 1458.12 C 397.202 1468.41 446.171 1479.86 494.301 1489.22 C 519.191 1480.8 532.483 1475.71 554.199 1461.03 C 557.64 1450.35 559.364 1435.36 561.135 1424.09 C 564.425 1403.16 566.929 1381.88 570.711 1361.04 z"/>
<path transform="translate(0,0)" fill="rgb(56,56,67)" d="M 225.393 1429.16 C 230.481 1429.84 236.799 1430.51 241.716 1431.61 L 240.863 1433.95 C 234.173 1432.5 231.504 1432.04 225.393 1429.16 z"/>
<path transform="translate(0,0)" fill="rgb(255,255,255)" d="M 696.197 943.741 C 697.882 943.772 699.977 944.018 701.699 944.668 C 718.87 951.146 739.193 956.722 754.87 965.94 C 757.2 967.31 758.593 970.273 759.802 972.316 C 761.322 974.884 762.861 980.53 762.759 983.257 C 762.195 998.336 764.748 1109.29 762.215 1116.75 C 758.692 1118.66 756.756 1119.29 754.565 1122.63 C 752.307 1130.72 756.94 1132.38 763.083 1135.41 L 763.017 1271.47 C 758.802 1272.16 753.201 1273.58 748.916 1274.53 C 729.23 1280.41 709.341 1285.41 689.612 1291.47 C 689.822 1273.41 689.055 1254.86 689.112 1236.69 C 689.401 1145.52 688.707 1054.3 689.646 963.133 C 689.754 952.677 689.177 950.449 696.197 943.741 z"/>
<path transform="translate(0,0)" fill="rgb(255,255,255)" d="M 1270.83 1166.05 L 1271.23 1166.31 C 1269.09 1173.19 1089.51 1293.61 1069.28 1308.79 C 992.36 1366.5 912.748 1422.79 839.382 1485.24 C 770.204 1544.93 702.693 1606.51 636.926 1669.93 C 574.832 1728.2 513.224 1786.98 452.11 1846.28 C 420.485 1877.31 388.642 1908.12 356.583 1938.71 C 347.448 1940.82 336.299 1942.63 326.869 1944.55 L 326.248 1943.61 C 331.72 1937.53 342.011 1928.54 348.237 1922.58 L 387.384 1884.56 L 531.995 1747.3 C 590.97 1691.74 650.522 1636.8 710.639 1582.48 C 754.091 1543.05 802.886 1498.99 848.43 1462.2 C 894.213 1425.85 940.965 1390.75 988.636 1356.92 C 1081.24 1291.17 1175.33 1227.53 1270.83 1166.05 z"/>
<path transform="translate(0,0)" fill="rgb(255,255,255)" d="M 278.205 1695.23 C 348.178 1716.67 423.699 1742.66 493.536 1761.82 C 477.993 1775.39 461.724 1791.34 446.612 1805.61 L 432.264 1800.95 L 287.517 1755.49 C 265.345 1748.61 231.498 1737.05 209.557 1732.17 C 231.505 1721.22 256.235 1706.98 278.205 1695.23 z"/>
<path transform="translate(0,0)" fill="rgb(255,255,255)" d="M 365.998 1650.02 C 374.003 1653.87 417.463 1665.96 428.433 1669.21 L 552.918 1706.89 C 537.994 1721.45 521.745 1736.35 506.53 1750.68 L 491.385 1746.22 C 427.248 1725.6 362.376 1706.82 298.101 1686.03 C 317.949 1674.34 345.149 1660.99 365.998 1650.02 z"/>
<path transform="translate(0,0)" fill="rgb(255,255,255)" d="M 452.125 1604.13 C 507.199 1619.04 563.092 1631.88 618.237 1646.78 C 601.426 1660.24 579.415 1682.86 561.689 1698.46 C 557.903 1697.01 551.828 1695.37 547.785 1694.15 L 439.435 1662.8 C 420.81 1657.45 392.999 1648.72 374.773 1646.07 C 400.241 1631.37 426.494 1618.56 452.125 1604.13 z"/>
<path transform="translate(0,0)" fill="rgb(255,255,255)" d="M 1135.14 1290.53 L 1135.68 1290.86 C 1134.5 1293.46 1086.59 1336.48 1080.3 1342.35 L 923.795 1488.77 C 888.389 1521.82 850.487 1556.12 816.338 1590.18 L 757.24 1577.27 C 771.487 1564.09 786.439 1549.89 801.207 1537.46 L 823.591 1541.75 C 833.259 1543.63 845.366 1546.57 854.944 1547.57 C 856.582 1545.28 855.935 1541.3 855.816 1538.25 C 858.861 1535.82 863.94 1531.41 867.393 1529.76 C 868.754 1529.11 870.334 1530.62 872.17 1531.69 C 877.98 1528.4 873.256 1522.71 875.823 1517.57 C 877.252 1514.7 877.4 1513.57 875.785 1510.89 C 869.639 1506.81 847.46 1504.64 839.015 1503.45 L 874.46 1473.52 C 881.746 1474.79 917.784 1481.75 922.788 1479.37 L 924.017 1475.01 C 928.929 1470.36 941.29 1462.05 947.535 1459.67 C 948.346 1454.85 949.464 1449.76 950.434 1444.94 C 940.462 1442.58 927.658 1441.41 917.45 1440.64 C 927.989 1431.3 938.886 1422.38 950.118 1413.88 C 959.784 1415.63 979.554 1417.27 989.68 1418.08 C 998.5 1408.15 1043.39 1376.57 1035.11 1365.95 C 1030.44 1363.57 1023.49 1363.19 1018.13 1362.54 C 1030.95 1353.22 1045.03 1341.29 1057.52 1331.15 C 1067.23 1331.2 1073.3 1332.05 1082.99 1333.28 C 1092.06 1322.27 1106.43 1315.08 1116.82 1300.36 C 1113.26 1298.56 1110.46 1297.51 1107.85 1294.53 L 1108.26 1292.99 C 1115.23 1290.48 1125.79 1293.94 1135.14 1290.53 z"/>
<path transform="translate(0,0)" fill="rgb(255,255,255)" d="M 1104.08 1054.58 L 1159.02 1070.32 C 1171.36 1073.96 1195.97 1079.66 1202.68 1090.93 C 1197.22 1092.75 1127.52 1067.5 1117.76 1070.93 C 1108.44 1079.62 1107.26 1117.71 1114.9 1126.55 C 1120.4 1130.03 1145.69 1128.05 1153.52 1127.9 C 1171.28 1128.1 1188.83 1128.4 1206.59 1127.87 C 1206.86 1137.19 1206.12 1148.33 1205.71 1157.8 C 1172.02 1169.41 1138.09 1180.28 1103.92 1190.41 C 1104.02 1144.75 1103.31 1100.38 1104.08 1054.58 z"/>
<path transform="translate(0,0)" fill="rgb(255,255,255)" d="M 642.285 1504.82 C 646.087 1505.09 666.689 1509.96 671.172 1510.97 C 696.985 1516.85 722.758 1522.9 748.491 1529.12 C 734.547 1541.82 720.427 1554.32 706.135 1566.63 C 700.366 1565.02 694.201 1563.62 688.36 1562.18 C 652.389 1554.5 613.279 1544.95 577.511 1538.56 C 597.695 1528.96 621.641 1515.34 642.285 1504.82 z"/>
<path transform="translate(0,0)" fill="rgb(255,255,255)" d="M 567.526 1543.95 C 577.391 1547.3 604.275 1552.87 615.539 1555.4 C 642.493 1561.44 671.828 1568.98 698.785 1573.76 C 689.566 1583.01 677.474 1593.24 667.514 1601.88 L 657.733 1599.83 C 612.229 1588.83 566.642 1578.17 520.977 1567.86 C 535.505 1559.75 552.594 1551.46 567.526 1543.95 z"/>
<path transform="translate(0,0)" fill="rgb(255,255,255)" d="M 505.094 1576.81 C 512.454 1576.63 552.533 1587.69 562.027 1590.06 C 592.985 1597.79 625.088 1604.42 655.827 1612.68 C 647.826 1619.71 640.838 1627.9 632.186 1634.13 C 629.146 1636.31 627.542 1635.33 623.917 1634.68 C 572.212 1621.37 520.401 1608.48 468.489 1596.01 C 480.587 1589.99 493.091 1583.14 505.094 1576.81 z"/>
<path transform="translate(0,0)" fill="rgb(255,255,255)" d="M 547.645 1159.98 L 548.441 1160.9 C 538.524 1206.48 528.321 1260.15 521.264 1306.17 C 508.894 1305.94 490.962 1303.76 478.271 1302.67 C 454.979 1300.67 431.67 1298.88 408.347 1297.3 C 412.282 1294.33 416.514 1291.48 420.572 1288.66 C 450.198 1290.63 479.81 1292.81 509.406 1295.18 L 512.262 1281.37 L 459.848 1278.87 C 452.163 1278.02 443.104 1277.58 435.194 1276.88 L 448.359 1267.47 C 469.14 1269.53 493.143 1269.74 514.593 1271.13 C 515.119 1266.82 515.933 1262.13 516.592 1257.79 L 462.001 1255.91 L 472.123 1245.9 C 487.222 1246.38 503.219 1246.62 518.215 1247.81 L 520.71 1234.32 L 484.618 1233.97 L 493.568 1223.99 L 522.442 1223.79 L 525.91 1211.27 C 519.431 1211.14 512.371 1211.28 505.848 1211.28 C 509.436 1207.53 513.095 1203.38 516.62 1199.53 L 528.305 1199.73 C 528.81 1197.42 529.787 1184.32 528.847 1185.73 C 533.045 1179.42 543.427 1165.66 547.645 1159.98 z"/>
<path transform="translate(0,0)" fill="rgb(255,255,255)" d="M 672.099 1656.82 C 680.767 1657.93 710.397 1665.72 720.406 1668.09 C 720.474 1669.28 720.813 1676.79 720.612 1677.09 C 715.1 1685.32 672.293 1730.07 665.78 1729.21 C 646.995 1723.31 630.962 1719.16 611.927 1714.59 C 630.433 1696.36 652.809 1673.6 672.099 1656.82 z"/>
<path transform="translate(0,0)" fill="rgb(255,255,255)" d="M 748.411 1449.03 C 754.938 1450.5 764.262 1451.59 771.294 1452.86 C 789.533 1456.26 807.79 1459.57 826.063 1462.78 C 816.379 1472.12 799.893 1485.01 789.139 1494.32 L 778.266 1491.68 C 750.741 1486.4 723.085 1481.82 695.325 1477.95 L 748.411 1449.03 z"/>
<path transform="translate(0,0)" fill="rgb(255,255,255)" d="M 739.229 1347.75 C 740.06 1347.98 740.247 1348.31 741.006 1348.93 C 736.743 1372.39 736.649 1400.56 727.814 1420.53 C 718.196 1427.48 691.983 1440.3 680.692 1443.7 C 664.932 1431.4 662.905 1416.6 659.998 1398.04 C 665.355 1389.44 671.63 1382.8 678.653 1375.63 C 679.1 1386.72 678.966 1399.09 679.087 1410.28 C 679.162 1418 677.279 1429.36 685.296 1432.54 C 689.118 1432.53 691.629 1430.77 694.954 1428.94 C 695.667 1407.56 696.02 1386.17 696.012 1364.78 L 712.528 1358.46 L 712.559 1395.28 C 712.501 1402.62 709.543 1425.36 721.32 1423.05 C 727.774 1416.18 727.216 1364.7 732.895 1352.77 C 734.606 1349.17 735.414 1349.58 739.229 1347.75 z"/>
<path transform="translate(0,0)" fill="rgb(255,255,255)" d="M 1120.76 1078.61 C 1135.49 1080.5 1175.04 1091.69 1192.2 1095.71 C 1192.55 1103.7 1193.22 1112.96 1192.6 1120.84 C 1170.37 1119.29 1141.51 1118.87 1119.47 1119.05 C 1118.96 1108.88 1118.28 1088.22 1120.76 1078.61 z"/>
<path transform="translate(0,0)" fill="rgb(255,255,255)" d="M 678.148 1485.14 C 712.119 1491.02 744.176 1497.24 778.035 1503.62 C 770.309 1509.7 765.693 1517.41 755.752 1516.56 C 721.843 1511.61 686.595 1503.65 653.119 1499.32 C 661.369 1494.27 669.664 1489.78 678.148 1485.14 z"/>
<path transform="translate(0,0)" fill="rgb(255,255,255)" d="M 842.133 1397.81 C 850.561 1397.13 891.167 1403.99 901.693 1405.25 C 891.648 1412.43 878.118 1423.1 867.4 1429.87 C 865.961 1429.89 864.749 1429.92 863.763 1429.94 C 842.889 1426.79 821.987 1423.83 801.061 1421.06 C 811.669 1413.85 830.526 1404.14 842.133 1397.81 z"/>
<path transform="translate(0,0)" fill="rgb(255,255,255)" d="M 1080.44 1063.94 L 1094.71 1066.54 C 1094.8 1106.49 1095.5 1153.7 1093.76 1193.12 L 1080.23 1195.72 L 1080.44 1063.94 z"/>
<path transform="translate(0,0)" fill="rgb(255,255,255)" d="M 543.898 1779.63 C 549.347 1780.49 575.721 1789.64 582.59 1791.94 C 571.063 1803.36 559.41 1814.65 547.634 1825.82 C 544.896 1826.3 514.206 1816.15 508.882 1814.6 C 519.931 1802.58 532.108 1790.91 543.898 1779.63 z"/>
<path transform="translate(0,0)" fill="rgb(255,255,255)" d="M 852.972 1307.04 C 862.679 1315.48 843.952 1346.74 838.859 1355.34 C 829.68 1359.79 817.974 1364.18 808.364 1367.99 C 807.669 1362.46 806.895 1356.94 806.04 1351.42 C 804.622 1342.79 803.175 1335.13 795.911 1329.94 L 795.627 1329.56 L 795.985 1328.15 C 799.226 1325.85 805.417 1324.34 809.434 1323.14 C 809.48 1329.47 808.575 1337.09 812.584 1341.73 L 814.368 1341.64 C 819.107 1335.04 817.976 1328.14 817.876 1320.03 L 830.954 1315.27 C 830.956 1321.3 829.468 1330.59 834.218 1334.85 L 835.728 1334.13 C 840.226 1326.57 839.172 1321.02 838.961 1312.37 L 852.972 1307.04 z"/>
<path transform="translate(0,0)" fill="rgb(255,255,255)" d="M 923.919 1352.85 C 929.592 1352.84 958.915 1357.54 966.344 1358.46 C 955.162 1366.41 941.257 1375.81 931.051 1384.56 L 919.414 1383.38 C 910.415 1381.52 886.802 1380.14 876.797 1379.44 C 888.016 1371.84 911.43 1359.71 923.919 1352.85 z"/>
<path transform="translate(0,0)" fill="rgb(255,255,255)" d="M 482.929 791.315 C 484.112 791.147 485.957 791.258 487.213 791.28 C 486.987 791.748 465.232 805.446 461.848 808.545 C 446.09 822.978 427.525 838.966 425.185 861.194 L 413.267 856.458 C 409.384 855.12 406.076 855.077 401.992 854.736 C 416.884 840.651 427.054 820.864 441.702 806.365 C 452.887 795.293 468.148 794.035 482.929 791.315 z"/>
<path transform="translate(0,0)" fill="rgb(255,255,255)" d="M 787.146 1427.82 C 799.954 1428.45 841.937 1436.91 855.85 1439.63 C 850.94 1443.63 840.655 1453.49 834.881 1453.23 C 812.085 1449.52 785.052 1443.75 762.535 1441.41 L 787.146 1427.82 z"/>
<path transform="translate(0,0)" fill="rgb(255,255,255)" d="M 198.913 1670.11 C 201.035 1671.21 210.11 1673.25 212.971 1673.95 C 187.75 1686.15 157.929 1703.65 132.327 1714.01 L 114.936 1708.16 C 142.639 1694.84 170.638 1682.16 198.913 1670.11 z"/>
<path transform="translate(0,0)" fill="rgb(255,255,255)" d="M 1000.46 1310.92 C 1009.64 1312.98 1018.98 1314.48 1028.26 1316.08 C 1014.21 1323.87 1002.63 1334.7 988.428 1341.77 C 988.427 1341.77 985.097 1341.51 984.761 1341.48 L 952.717 1337.28 L 1000.46 1310.92 z"/>
<path transform="translate(0,0)" fill="rgb(56,56,67)" d="M 369.475 899.3 L 368.046 900.249 L 365.926 899.77 C 358.134 891.492 360.86 863.724 373.293 860.492 C 376.458 860.643 376.563 860.642 378.935 862.59 C 380.72 864.809 382.693 865.011 385.504 865.843 L 385.62 866.858 L 384.228 867.409 C 389.089 876.64 385.812 875.282 387.311 882.031 L 389.725 880.816 L 387.166 881.306 L 388.864 883.181 C 390.363 880.034 389.735 877.459 389.449 873.89 C 396.767 886.332 386.88 906.183 374.613 905.962 C 372.045 904.725 370.072 902.985 369.993 899.904 L 369.475 899.3 z"/>
<path transform="translate(0,0)" fill="rgb(255,255,255)" d="M 369.993 899.904 L 370.855 898.694 C 373.675 898.093 374.94 899.409 378.017 900.914 C 380.817 899.126 379.843 898.628 381.187 895.037 C 384.202 886.979 384.837 891.76 389.138 889.72 L 389.826 886.901 L 386.215 888.466 L 384.107 887.617 C 379.587 880.101 377.573 873.924 384.228 867.409 C 389.089 876.64 385.812 875.282 387.311 882.031 L 389.725 880.816 L 387.166 881.306 L 388.864 883.181 C 390.363 880.034 389.735 877.459 389.449 873.89 C 396.767 886.332 386.88 906.183 374.613 905.962 C 372.045 904.725 370.072 902.985 369.993 899.904 z"/>
<path transform="translate(0,0)" fill="rgb(255,255,255)" d="M 369.475 899.3 L 368.046 900.249 L 365.926 899.77 C 358.134 891.492 360.86 863.724 373.293 860.492 C 376.458 860.643 376.563 860.642 378.935 862.59 C 370.752 865.474 361.481 875.238 365.124 884.432 L 367.493 885.672 C 368.686 879.065 365.968 873.899 370.685 869.805 C 371.469 873.328 371.336 891.261 370.775 895.166 C 369.694 892.907 369.369 892.27 367.915 890.245 C 368.359 893.62 369.978 897.181 369.475 899.3 z"/>
<path transform="translate(0,0)" fill="rgb(255,255,255)" d="M 370.775 895.166 L 374.17 894.441 C 375.431 887.506 370.355 876.791 376.79 868.513 L 378.461 868.15 C 378.475 869.149 378.632 869.325 378.264 870.105 C 377.556 876.926 379.57 880.657 380.445 887.306 C 381.295 893.764 377.308 899.741 370.775 895.166 z"/>
<path transform="translate(0,0)" fill="rgb(255,255,255)" d="M 707.747 1624.02 C 718.958 1627.31 730.633 1630.04 742 1632.84 C 734.51 1640.45 726.943 1647.98 719.3 1655.43 C 707.478 1652.11 695.083 1649.26 683.121 1646.34 C 691.035 1638.81 699.2 1630.75 707.747 1624.02 z"/>
<path transform="translate(0,0)" fill="rgb(255,255,255)" d="M 1200.86 1165.22 C 1202.85 1164.84 1202.31 1164.97 1204.41 1165.24 L 1204.55 1167.31 C 1200.88 1172.55 1119.91 1201.13 1107.22 1206.17 C 1106.85 1206.33 1105.17 1206.54 1104.7 1206.62 L 1103.41 1204.61 C 1102.99 1197.96 1107.76 1194.12 1113.83 1192.38 C 1142.65 1184.15 1171.74 1172.08 1200.86 1165.22 z"/>
<path transform="translate(0,0)" fill="rgb(255,255,255)" d="M 833.036 902.751 C 860.211 914.614 888.865 929.037 915.339 942.442 C 917.436 943.505 917.801 949.265 918.1 951.586 C 891.334 941.044 861.443 926.588 834.103 915.245 C 833.397 911.202 833.277 906.871 833.036 902.751 z"/>
<path transform="translate(0,0)" fill="rgb(255,255,255)" d="M 680.651 839.918 C 688.677 838.869 754.554 878.625 765.778 886.45 C 762.882 886.871 760.49 885.279 757.373 884.028 C 740.598 877.491 724.011 870.484 707.63 863.015 C 697.086 858.308 678.6 849.386 667.827 847.009 L 680.651 839.918 z"/>
<path transform="translate(0,0)" fill="rgb(255,255,255)" d="M 500.465 1821.97 C 515.497 1827.23 532.201 1831.93 546.759 1837.68 C 547.006 1841.78 547.76 1847.18 546.34 1850.82 C 543.784 1852.12 544.472 1851.64 540.741 1850.54 C 523.556 1844.84 506.447 1838.91 489.419 1832.76 L 500.465 1821.97 z"/>
<path transform="translate(0,0)" fill="rgb(255,255,255)" d="M 760.096 1281.15 L 762.082 1280.93 L 762.932 1281.99 C 763.014 1286.8 763.994 1289.06 758.902 1290.74 C 737.056 1297.96 714.368 1304 692.221 1310.21 C 691.576 1310.16 690.259 1309.69 689.572 1309.49 C 688.799 1305.37 688.268 1306.12 689.709 1303.02 C 696.471 1297.89 749.196 1284.27 760.096 1281.15 z"/>
<path transform="translate(0,0)" fill="rgb(255,255,255)" d="M 1006.97 1370.78 C 1010.39 1371.18 1016.6 1372.69 1020.18 1373.45 C 1010.23 1381.19 987.772 1402.17 979.018 1407.47 C 973.613 1406.48 967.955 1405.64 962.512 1404.75 C 977.515 1393.7 991.459 1381.24 1006.97 1370.78 z"/>
<path transform="translate(0,0)" fill="rgb(255,255,255)" d="M 1057.61 1278.89 C 1063.25 1279.22 1071.09 1281.46 1076.76 1282.87 C 1066.77 1288.13 1048.89 1303.55 1040.13 1303.41 C 1033.53 1302.57 1025.73 1300.97 1019.09 1299.79 C 1031.86 1293.76 1045.39 1286 1057.61 1278.89 z"/>
<path transform="translate(0,0)" fill="rgb(255,255,255)" d="M 825.813 1513.89 C 835.677 1514.5 847.685 1516.93 857.43 1518.73 C 849.81 1525.56 847.784 1525.86 846.705 1535.02 L 845.453 1535.71 C 834.566 1533.66 822.321 1530.65 811.389 1528.24 L 825.813 1513.89 z"/>
<path transform="translate(0,0)" fill="rgb(255,255,255)" d="M 1249.4 1170.84 L 1250.63 1171.52 C 1247.27 1173.93 1243.35 1176.28 1239.75 1178.41 C 1212.77 1194.32 1186.82 1211.93 1159.94 1227.94 C 1156.67 1229.89 1151.78 1229.05 1147.97 1228.8 L 1146.82 1228.6 L 1147.16 1227.41 C 1180.86 1207.88 1214.95 1189.02 1249.4 1170.84 z"/>
<path transform="translate(0,0)" fill="rgb(255,255,255)" d="M 903.48 1448.74 C 912.964 1449.74 919.771 1451.57 930.221 1452.31 C 922.708 1457.35 917.745 1459.27 915.32 1467.67 L 915.096 1468.47 L 913.109 1469.51 C 903.461 1467.81 893.761 1466.41 884.024 1465.34 L 903.48 1448.74 z"/>
<path transform="translate(0,0)" fill="rgb(255,255,255)" d="M 1175.81 1246.19 C 1179.52 1246.11 1180.6 1246.21 1184.26 1246.85 C 1170.12 1259.08 1156.67 1270.68 1142.99 1283.42 L 1142.39 1283.11 C 1141.5 1277.53 1141.15 1277.94 1136.05 1276.34 L 1135.87 1275.1 C 1142.26 1269.05 1167.34 1252.14 1175.81 1246.19 z"/>
<path transform="translate(0,0)" fill="rgb(255,255,255)" d="M 865.605 1385.92 C 873.326 1385.32 909.034 1391.29 918.811 1392.81 L 909.839 1398.74 C 891.61 1396.14 872.836 1394.24 854.435 1391.74 L 865.605 1385.92 z"/>
<path transform="translate(0,0)" fill="rgb(255,255,255)" d="M 595.112 1797.81 C 596.652 1799.5 596.237 1799.79 596.724 1802.5 C 595.307 1808.1 562.102 1839.72 555.731 1846.11 L 554.317 1845.43 C 553.816 1841.7 553.252 1839.73 555.879 1836.83 C 568.198 1823.27 581.923 1810.55 595.112 1797.81 z"/>
<path transform="translate(0,0)" fill="rgb(255,255,255)" d="M 785.759 892.352 C 793.344 892.247 801.572 891.32 809.054 892.448 L 809.841 892.571 C 815.28 893.387 820.155 896.395 825.031 899.021 L 825.086 911.572 C 816.323 907.77 791.612 897.924 785.759 892.352 z"/>
<path transform="translate(0,0)" fill="rgb(255,255,255)" d="M 788.013 1330.61 L 788.981 1330.95 C 789.354 1332.35 783.207 1342.37 781.803 1345.57 C 774.316 1362.58 773.352 1381.27 768.816 1398.73 C 767.047 1398.02 767.664 1398.31 766.217 1396.9 C 763.746 1381.33 774.881 1339.96 788.013 1330.61 z"/>
<path transform="translate(0,0)" fill="rgb(255,255,255)" d="M 1096.9 1300.8 C 1099.81 1300.82 1104.55 1300.58 1106.42 1302.81 C 1097.79 1310.16 1089.3 1317.3 1081.06 1325.09 L 1068.52 1322.25 C 1078 1315.34 1087.54 1307.91 1096.9 1300.8 z"/>
<path transform="translate(0,0)" fill="rgb(255,255,255)" d="M 1101.12 1254.82 C 1106.28 1254.41 1114.03 1254.84 1119.39 1254.98 C 1112.38 1259.68 1105.26 1264.23 1098.05 1268.63 L 1077.74 1267.74 C 1085.41 1263.74 1093.5 1259.05 1101.12 1254.82 z"/>
<path transform="translate(0,0)" fill="rgb(255,255,255)" d="M 755.527 1638.78 C 756.35 1642.77 756.473 1645.06 753.782 1648.01 C 745.941 1656.6 737.067 1664.6 728.664 1672.65 C 727.981 1670.47 728.182 1668.79 728.222 1666.51 C 731.578 1658.74 748.419 1645.04 755.527 1638.78 z"/>
<path transform="translate(0,0)" fill="rgb(255,255,255)" d="M 843.23 1353.59 C 846.557 1353.9 854.411 1355.71 858.021 1356.45 C 849.403 1360.78 841.476 1364.74 832.639 1368.59 C 828.766 1369.23 822.544 1368.73 818.424 1368.55 C 829.305 1364.34 836.734 1363.05 843.23 1353.59 z"/>
<path transform="translate(0,0)" fill="rgb(255,255,255)" d="M 1201.07 1122.23 C 1200.04 1121.71 1198.95 1121 1197.95 1120.4 C 1196.56 1115.89 1195.06 1101.04 1198.11 1097.54 L 1200.7 1098.44 L 1203.53 1099.22 C 1205.88 1103.27 1205.94 1114.61 1205.8 1119.41 L 1204.89 1120.86 L 1201.07 1122.23 z"/>
<path transform="translate(0,0)" fill="rgb(255,255,255)" d="M 1203.53 1099.22 C 1205.88 1103.27 1205.94 1114.61 1205.8 1119.41 L 1204.89 1120.86 C 1202.64 1113.64 1202.76 1106.63 1203.53 1099.22 z"/>
<path transform="translate(0,0)" fill="rgb(119,119,130)" d="M 1200.7 1098.44 L 1203.53 1099.22 C 1202.76 1106.63 1202.64 1113.64 1204.89 1120.86 L 1201.07 1122.23 C 1202.6 1115.87 1201.14 1105.42 1200.7 1098.44 z"/>
<path transform="translate(0,0)" fill="rgb(119,119,130)" d="M 949.898 965.021 L 950.851 964.674 C 955.484 965.63 977.378 975.224 982.852 977.644 C 1005.68 987.737 1030.16 997.275 1052.51 1008.05 C 1046.13 1007.65 957.854 969.168 949.898 965.021 z"/>
<path transform="translate(0,0)" fill="rgb(255,255,255)" d="M 1092.95 1198.23 C 1094.29 1200.99 1093.77 1207.31 1093.7 1210.75 L 1082.03 1215.92 C 1080.33 1213.64 1080.92 1205.08 1080.96 1201.78 L 1092.95 1198.23 z"/>
<path transform="translate(0,0)" fill="rgb(255,255,255)" d="M 943.108 1342.27 C 949.285 1343.56 967.453 1346.96 972.281 1350 L 971.613 1350.95 L 967.285 1351.22 C 956.171 1350.28 945.081 1349.08 934.021 1347.64 C 937.02 1346.02 940.169 1344.04 943.108 1342.27 z"/>
<path transform="translate(0,0)" fill="rgb(255,255,255)" d="M 1137.28 1233.03 C 1141.91 1233.37 1147.34 1233.33 1152.05 1233.4 C 1147.24 1236.84 1140.64 1240.58 1135.47 1243.7 L 1119.6 1243.71 C 1124.64 1240.32 1131.92 1236.25 1137.28 1233.03 z"/>
<path transform="translate(0,0)" fill="rgb(255,255,255)" d="M 1024.58 1376.86 L 1025.53 1377.68 C 1023.25 1381.2 995.6 1404.33 990.665 1408.72 L 989.735 1407.68 C 990.923 1403.81 1019.58 1380.72 1024.58 1376.86 z"/>
<path transform="translate(0,0)" fill="rgb(255,255,255)" d="M 1009.94 1305.08 C 1015.17 1304.33 1025.23 1307.15 1030.68 1308.53 L 1031.11 1309.84 C 1025.5 1309.86 1014.09 1309.68 1009.41 1307.2 L 1009.94 1305.08 z"/>
<path transform="translate(0,0)" fill="rgb(255,255,255)" d="M 109.742 1716.63 C 112.81 1717.3 118.074 1717.97 119.581 1720.23 L 117.075 1721.8 C 114.519 1723.54 112.978 1725 109.947 1725.3 C 108.497 1722.19 109.341 1720.52 109.742 1716.63 z"/>
<path transform="translate(0,0)" fill="rgb(255,255,255)" d="M 1068.66 1272.31 C 1072.76 1272.78 1081.11 1273.24 1084.02 1275.41 L 1082.21 1277.1 C 1077.1 1276.98 1071.42 1276.87 1066.57 1275.36 L 1065.89 1274.01 L 1068.66 1272.31 z"/>
<path transform="translate(0,0)" fill="rgb(255,255,255)" d="M 939.467 1453.86 L 940.526 1455.04 C 938.217 1458.01 927.583 1464.9 923.906 1467.44 L 923.084 1466.85 C 924.179 1462.65 935.271 1456.52 939.467 1453.86 z"/>
<path transform="translate(0,0)" fill="rgb(255,255,255)" d="M 1109.29 1248.46 C 1113.83 1247.56 1122.38 1247.72 1127.06 1248.32 L 1127.34 1249.52 C 1121.9 1250.59 1115.16 1252.03 1109.77 1250.36 L 1109.29 1248.46 z"/>
<path transform="translate(0,0)" fill="rgb(255,255,255)" d="M 866.162 1520.72 C 866.988 1520.96 866.531 1520.73 867.329 1521.72 C 863.188 1525.26 859.024 1528.77 854.836 1532.25 L 853.69 1531.74 C 854.404 1527.68 862.832 1522.88 866.162 1520.72 z"/>
<path transform="translate(0,0)" fill="rgb(255,255,255)" d="M 1079.94 1052.2 C 1085.21 1051.52 1091.63 1051.25 1094.3 1056.26 C 1089.74 1056.6 1083.96 1054.23 1079.94 1052.2 z"/>
<path transform="translate(0,0)" fill="rgb(38,41,61)" d="M 957.345 91.4219 C 978.103 89.6895 995.973 94.5358 1014.67 102.713 C 1011.47 105.79 1006.24 109.639 1002.59 112.318 C 953.869 148.12 932.667 162.227 983.327 211.61 C 1036.02 262.971 1045.68 211.05 1079.94 174.308 C 1093.19 219.984 1078.18 257.35 1045.83 289.826 C 1021.81 313.937 1014.59 319.926 985.07 296.093 C 965.77 280.512 943.614 264.167 920.884 284.503 C 904.151 299.472 889.051 316.008 873.344 332.235 L 787.863 421.134 L 587.5 628.27 C 563.242 654.106 537.495 678.968 513.11 704.73 C 502.785 715.638 495.22 722.937 479.878 725.242 C 468.56 726.907 457.042 724.053 447.811 717.297 C 438.443 710.324 432.125 699.813 430.434 688.238 C 426.094 658.533 448.256 643.373 467.076 624.811 L 532.089 561.013 C 612.656 482.658 692.375 403.435 771.232 323.358 L 830.559 262.811 C 841.292 251.858 852.903 240.574 862.743 228.88 C 867.6 223.108 872.237 211.989 870.968 204.346 C 869.139 191.975 854.079 196.824 847.311 190.804 C 830.758 176.081 850.438 151.989 860.242 140.146 C 885.519 109.61 918.441 94.5848 957.345 91.4219 z"/>
<path transform="translate(0,0)" fill="rgb(255,255,255)" d="M 887.771 240.909 C 899.061 240.329 904.829 252.598 901.398 257.947 C 891.491 273.392 867.503 299.135 855.973 311.972 C 755.85 421.468 654.816 530.129 552.884 637.942 C 533.793 658.018 507.236 688.335 486.102 706.645 C 481.285 710.819 470.826 709.32 464.599 707.68 C 450.075 701.16 441.199 683.321 448.265 670.968 C 457.451 654.907 489.079 626.878 502.03 614.076 L 592.199 524.901 C 666.641 449.994 741.904 375.909 817.976 302.658 C 831.632 289.679 873.607 247.912 887.771 240.909 z"/>
<path transform="translate(0,0)" fill="rgb(38,41,61)" d="M 883.22 256.572 C 886.274 257.735 887.087 258.444 888.576 260.81 C 884.93 269.165 819.36 336.27 808.142 348.115 L 585.251 582.642 L 514.509 658.511 C 503.776 669.924 492.692 682.018 481.441 692.978 C 478.08 696.253 473.646 695.23 468.984 694.773 C 457.279 686.986 460.185 679.441 468.906 671.092 C 501.854 639.549 535.164 608.494 567.579 576.393 C 674.343 471.327 779.568 364.709 883.22 256.572 z"/>
<path transform="translate(0,0)" fill="rgb(38,41,61)" d="M 938.585 317.748 C 951.558 321.931 1001.57 348.782 1014.46 356.044 C 1030.58 347.142 1046.96 336.998 1062.8 327.458 L 1112.35 373.69 C 1105.28 387.108 1091.9 407.285 1083.55 420.344 C 1104.24 455.315 1112.59 474.023 1122.66 513.852 C 1141.01 514.287 1160.25 515.424 1178.68 516.208 C 1180.13 539.853 1183.09 565.706 1185.6 589.3 C 1167.8 593.919 1149.06 599.668 1131.14 604.62 C 1129.49 641.005 1121.48 668.508 1107.04 701.45 C 1120.57 715.408 1134.1 729.198 1147.1 743.658 C 1134.47 761.512 1121.36 779.65 1109.42 797.91 C 1092.05 791.725 1074.72 785.417 1057.45 778.986 C 1033.98 807.558 1005.71 826.029 974.219 844.201 C 974.803 850.526 975.355 856.854 975.875 863.186 C 976.243 871.801 977.766 888.346 979.102 896.56 C 953.841 903.074 927.884 911.894 902.292 918.792 C 895.089 901.964 884.831 881.697 876.934 864.897 C 861.497 864.62 825.201 863.689 810.342 860.278 C 887.87 843.694 958.4 811.953 1010.67 750.834 C 1074.81 675.838 1096.43 580.547 1066.15 486.288 C 1041.68 410.127 997.283 367.844 938.585 317.748 z"/>
<path transform="translate(0,0)" fill="rgb(38,41,61)" d="M 809.748 424.814 C 835.367 448.241 867.542 482.708 892.18 507.826 L 1030.31 648.912 C 1020.19 682.75 1007.45 700.365 981.204 722.984 L 974.735 716.7 C 899.577 641.311 824.758 564.267 748.922 489.738 C 769.044 467.953 789.32 446.311 809.748 424.814 z"/>
<path transform="translate(0,0)" fill="rgb(38,41,61)" d="M 690.029 90.4363 C 708.651 89.4813 792.543 94.3977 799.919 112.155 C 799.641 114.679 798.47 118.293 796.287 118.891 C 786.324 121.623 765.357 121.292 754.601 122.157 C 720.059 124.935 641.07 138.857 615.896 163.448 C 607.08 171.906 602.066 183.575 601.998 195.792 C 601.97 230.301 631.102 250.894 653.841 273.436 C 677.913 297.121 701.837 320.955 725.613 344.937 L 714.561 355.66 C 690.193 332.379 666.224 307.832 642.337 283.992 C 618.886 260.588 591.261 240.008 586.493 205.483 C 576.355 132.079 688.247 113.885 740.203 107.868 C 593.454 86.9742 449.418 191.86 402.029 327.614 C 399.249 335.578 385.456 373.966 387.582 380.054 L 389.43 377.002 C 415.65 326.889 465.352 263.179 528.249 263.367 C 538.089 263.396 561.366 267.385 569.192 273.74 C 580.168 282.652 591.782 295.803 601.9 306.094 L 681.506 387.127 L 670.529 397.516 C 663.505 391.426 653.553 380.88 646.777 374.104 C 631.393 358.828 616.159 343.403 601.077 327.83 C 589.301 315.676 577.048 302.702 565.02 290.93 C 551.179 277.384 518.002 276.764 501.112 283.452 C 444.824 305.738 408.482 366.129 387.906 420.274 C 383.612 431.574 380.346 450.657 375.913 462.491 C 353.772 487.309 363.959 420.811 364.761 413.982 C 373.59 335.631 406.629 261.982 459.279 203.289 C 518.17 136.539 601.183 95.9393 690.029 90.4363 z"/>
<path transform="translate(0,0)" fill="rgb(38,41,61)" d="M 586.808 262.857 C 597.444 267.38 700.563 361.95 701.258 368.124 L 698.147 371.497 C 696.304 373.369 693.99 375.272 691.984 377.01 C 664.371 348.302 636.224 320.087 609.516 290.522 C 601.531 281.683 593.282 272.901 586.808 262.857 z"/>
</svg>