<svg version="1.1" xmlns="http://www.w3.org/2000/svg" style="display: block;" viewBox="0 0 2048 1152" width="1820" height="1024" preserveAspectRatio="none">
<path transform="translate(0,0)" fill="rgb(255,255,255)" d="M 0 0 L 2048 0 L 2048 1152 L 0 1152 L 0 0 z"/>
<path transform="translate(0,0)" fill="rgb(30,62,75)" d="M 446.673 216.449 C 577.594 212.815 680.868 249.747 797.154 303.736 C 809.748 568.423 740.93 830.962 484.441 954.993 L 467.276 962.736 C 403.762 933.055 342.365 892.413 295.383 840.16 C 163.091 693.027 128.144 498.286 137.478 306.47 C 148.138 299.741 186.122 282.878 198.345 277.629 C 279.706 242.686 357.991 220.487 446.673 216.449 z"/>
<path transform="translate(0,0)" fill="rgb(255,255,255)" d="M 458.653 233.455 C 563.755 228.918 686.468 270.099 780.098 315.033 C 782.387 424.047 778.155 532.096 741.484 636.097 C 692.842 774.048 606.196 877.858 474.32 941.368 L 470.004 943.084 C 464.002 942.607 449.132 934.151 443.312 931.154 C 397.065 907.334 355.148 877.434 318.969 839.735 C 213.927 730.28 166.847 585.235 156.27 436.391 C 153.37 395.592 154.422 357.085 154.97 316.523 C 262.414 267.121 339.953 237.424 458.653 233.455 z"/>
<path transform="translate(0,0)" fill="rgb(30,62,75)" d="M 456.891 517.402 C 477.681 515.163 506.485 520.279 526.146 526.859 C 523.832 578.401 492.043 648.325 475.987 698.489 C 472.402 709.69 477.096 788.743 478.729 804.317 C 479.786 814.125 481.374 823.868 483.487 833.503 C 487.087 849.61 491.152 859.644 498.675 874.13 C 490.823 881.482 482.801 888.047 474.699 895.783 L 468.31 902.983 C 457.446 891.543 448.649 883.191 436.981 872.803 C 452.568 849.589 458.838 813.794 460.012 786.135 C 461.113 760.18 465.501 727.796 463.444 702.032 C 462.817 694.169 452.863 671.799 449.831 662.966 C 434.039 616.961 413.719 576.088 412.513 526.813 C 428.828 521.057 439.765 519.12 456.891 517.402 z"/>
<path transform="translate(0,0)" fill="rgb(30,62,75)" d="M 440.916 375.25 C 471.24 372.608 479.789 388.34 510.992 391.886 C 505.703 393.62 499.957 395.095 494.566 396.583 C 516.978 428.403 509.507 469.841 538.153 503.036 C 524.109 497.201 516.237 492.976 503.896 484.211 C 501.384 491.417 499.686 498.115 497.759 505.493 C 492.395 498.914 489.411 495.135 484.978 487.943 C 479.612 495.646 475.835 501.328 471.204 509.462 C 464.184 502.103 457.327 494.59 450.639 486.928 C 441.193 492.177 420.568 504.145 410.799 496.166 C 411.802 495.308 414.672 494.444 415.956 494.208 C 427.242 492.136 430.482 486.239 436.434 476.834 C 442.927 464.079 445.175 453.954 446.608 439.786 C 441.837 439.5 434.654 439.715 431.43 436.341 L 436.817 435.786 L 437.335 434.902 L 429.518 430.35 C 425.752 433.63 423.928 433.157 418.983 432.148 C 404.422 429.178 396.155 421.548 388.082 409.893 C 405.154 420.266 411.33 419.679 430.948 419.737 C 435.178 419.75 439.356 421.114 443.663 420.633 L 442.993 419.49 C 436.571 417.131 435.701 413.064 431.221 407.964 C 423.789 410.518 412.728 414.674 406.634 407.588 C 400.32 392.593 429.516 375.816 436.208 400.58 C 437.846 406.639 450.849 418.294 447.746 427.234 C 443.915 428.428 440.724 426.583 435.682 425.916 L 434.826 427.013 C 436.374 432.284 448.408 438.066 453.875 431.611 C 456.006 422.981 450.634 415.487 446.175 408.527 C 439.124 397.52 438.585 389.441 427.651 381.774 C 432.576 378.907 435.657 377.491 440.916 375.25 z"/>
<path transform="translate(0,0)" fill="rgb(255,255,255)" d="M 449.82 387.032 C 450.935 386.922 452.051 386.834 453.17 386.769 C 465.429 386.058 471.012 393.917 460.335 402.998 C 452.972 403.726 445.242 402.993 444.254 394.147 C 445.332 390.329 446.756 389.569 449.82 387.032 z"/>
<path transform="translate(0,0)" fill="rgb(30,62,75)" d="M 520.085 656.452 C 521.749 656.236 524.899 655.87 526.353 656.653 C 538.528 663.215 551.978 673.182 563.258 681.007 C 551.91 681.474 541.341 682.013 529.956 681.511 C 534.962 684.655 543.378 689.642 547.393 693.64 L 547.921 694.173 C 554.158 700.398 556.343 706.903 561.237 714.118 C 565.27 720.065 569.979 724.569 575.241 729.357 C 591.659 728.803 603.799 718.948 619.463 722.836 C 631.916 725.926 633.509 754.083 624.224 756.569 C 617.852 754.048 622.06 746.869 610.162 745.501 L 609.524 745.431 C 603.421 744.711 595.55 747.371 589.427 749.009 C 591.377 750.819 596.706 756.315 598.446 757.478 C 605.943 762.315 614.622 765.295 618.426 774.014 C 622.375 783.066 611.477 790.317 603.929 792.486 C 587.041 791.091 588.489 782.144 582.385 768.801 C 581.347 766.532 576.351 760.729 574.491 758.537 C 568.824 764.997 564.54 770.095 560.214 777.543 C 562.341 782.461 566.539 788.52 569.442 793.322 L 568.298 795.819 C 561.155 800.829 550.707 796.047 545.561 790.154 C 541.659 785.726 539.719 779.904 540.185 774.02 C 541.101 763.352 554.397 750.845 562.279 744.077 C 558.05 739.396 539.15 714.685 536.811 713.354 L 533.395 714.911 C 529.596 713.682 531.335 711.756 527.771 707.491 C 525.952 709.854 521.508 724.883 520.167 728.901 C 515.373 717.7 507.955 690.09 504.095 677.324 C 506.123 671.485 507.302 663.353 510.899 658.694 C 512.918 656.078 516.501 656.66 520.085 656.452 z"/>
<path transform="translate(0,0)" fill="rgb(255,255,255)" d="M 531.595 692.497 L 544.95 699.393 C 550.136 709.029 556.26 718.13 563.235 726.562 C 578.802 745.742 593.92 727.785 614.043 729.666 C 619.115 730.14 622.372 736.887 621.344 741.354 C 619.839 740.343 614.912 737.03 613.58 737.06 C 600.976 737.336 590.893 743.096 577.354 744.469 C 580.483 746.923 592.452 759.016 594.329 762.425 C 598.992 770.898 610.474 768.916 611.06 774.497 C 611.957 783.024 605.709 784.684 598.643 785.036 C 592.032 781.325 592.475 777.519 592.538 770.781 C 585.85 762.819 581.191 757.688 573.762 750.435 C 568.739 756.644 562.255 762.645 557.84 769.171 C 552.279 777.391 555.17 779.871 556.668 787.385 L 555.269 787.936 C 550.671 785.729 547.216 777.573 545.076 772.96 C 549.455 765.698 563.526 751.549 569.942 744.894 C 564.313 738.269 545.468 714.508 541.327 707.881 L 542.691 704.101 C 538.591 702.538 537.669 706.728 533.56 705.516 C 532.669 701.192 532.163 696.871 531.595 692.497 z"/>
<path transform="translate(0,0)" fill="rgb(30,62,75)" d="M 425.059 654.049 C 427.987 656.776 431.582 667.29 433.15 671.412 C 426.913 691.471 420.444 711.457 413.745 731.367 C 404.825 718.829 403.634 709.736 400.344 695.182 C 392.563 698.915 389.186 701.472 382.383 706.517 C 391.627 709.099 394.564 706.572 400.574 708.087 L 401.688 710.197 C 401.268 718.879 381.492 737 374.78 743.934 C 380.767 749.993 393.686 761.822 395.544 769.975 C 398.607 783.412 381.229 807.098 366.573 795.458 C 367.03 790.05 375.181 783.95 374.788 779.202 C 374.288 773.164 364.438 764.642 360.153 760.561 C 356.257 764.659 351.825 768.939 347.798 772.966 C 349.19 777.281 349.315 778.499 349.734 783.044 C 343.601 801.671 320.861 789.827 320.014 775.034 C 319.401 764.325 330.924 763.136 337.708 757.852 C 340.636 755.572 343.907 751.812 346.441 749.017 C 315.013 737.839 329.466 749.479 313.996 761.863 C 310.186 753.462 307.756 747.753 309.841 738.26 C 315.708 711.548 345.506 727.471 362.591 731.914 C 363.319 731.204 364.024 730.472 364.705 729.717 C 368.059 726.048 378.934 715.378 378.741 710.968 C 377.097 709.186 376.402 708.789 376.057 706.518 C 380.548 696.851 393.526 690.571 402.593 685.305 C 393.493 684.745 381.592 684.907 372.266 684.754 C 388.608 672.23 405.67 661.201 425.059 654.049 z"/>
<path transform="translate(0,0)" fill="rgb(255,255,255)" d="M 390.219 709.676 C 392.407 709.427 392.291 709.394 394.238 710.404 L 394.616 712.77 C 391.643 719.766 372.429 738.274 366.344 744.455 C 380.103 762.677 401.851 769.719 376.898 790.736 C 385.39 769.807 374.773 764.705 360.035 751.367 C 358.575 752.945 341.595 770.46 342.384 772.842 C 344.306 778.634 345.69 775.694 343.941 783.381 C 334.401 785.576 326.475 778.302 328.401 769.687 C 331.487 766.694 331.331 767.329 336.744 767.381 C 341.597 763.345 351.662 751.9 355.545 746.7 L 356.227 745.778 C 347.014 741.749 336.764 738.867 326.944 736.75 C 323.335 739.201 321.258 741.392 317.325 741.103 L 316.711 739.509 C 324.126 722.001 349.57 735.29 362.466 739.844 C 371.023 731.867 382.125 718.74 390.219 709.676 z"/>
<path transform="translate(0,0)" fill="rgb(30,62,75)" d="M 343.471 461.119 C 349.472 460.802 359.485 462.492 360.863 469.353 C 357.832 470.514 354.723 468.016 351.873 468.16 C 320.69 469.739 322.553 509.147 337.648 526.177 C 352.948 543.437 372.548 546.764 392.698 548.499 C 393.113 552.011 393.482 555.527 393.804 559.049 C 396.941 593.293 393.585 624.541 371.052 652.503 C 362.111 663.598 351.221 669.106 337.132 670.194 C 325.043 668.324 319.859 665.232 310.219 658.317 C 361.595 642.967 377.036 606.459 381.345 556.246 C 342.118 552.562 304.81 521.302 322.929 476.967 C 325.92 469.648 335.751 463.195 343.471 461.119 z"/>
<path transform="translate(0,0)" fill="rgb(30,62,75)" d="M 589.569 464.139 C 590.015 464.078 590.463 464.025 590.911 463.979 C 636.767 459.467 629.429 550.126 554.692 556.642 C 555.01 570.021 557.807 583.224 562.944 595.581 C 574.799 623.904 596.699 649.694 625.565 661.475 C 619.392 665.408 616.701 666.963 609.983 669.967 C 587.733 675.653 570.729 660.083 559.639 642.373 C 541.392 613.234 539.109 580.021 546.741 547.032 C 555.729 547.562 561.03 547.869 569.983 545.271 C 585.173 540.754 597.917 530.334 605.364 516.346 C 610.903 506.09 612.418 496.91 609.431 485.678 C 604.308 466.414 588.123 473.369 582.425 470.261 C 584.033 467.352 586.716 466.032 589.569 464.139 z"/>
<path transform="translate(0,0)" fill="rgb(30,62,75)" d="M 327.854 294.257 C 338.336 294.824 343.384 298.17 352.543 302.901 C 349.715 304.163 346.928 305.516 344.187 306.957 C 295.157 332.696 302.332 417.754 324.393 459.699 L 322.407 462.028 C 318.036 462.843 315.824 457.533 313.575 453.924 C 288.579 413.808 277.72 352.792 302.09 310.121 C 307.22 301.138 318.042 295.903 327.854 294.257 z"/>
<path transform="translate(0,0)" fill="rgb(30,62,75)" d="M 602.503 295.19 C 633.741 293.471 646.823 327.907 649.684 353.868 C 653.858 391.746 639.565 435.694 615.728 465.319 L 614.115 465.453 L 612.865 464 C 613.1 461.057 622.897 437.953 624.88 432.525 C 639.003 393.863 632.513 317.184 586.288 302.666 C 592.962 298.835 595.138 297.62 602.503 295.19 z"/>
<path transform="translate(0,0)" fill="rgb(30,62,75)" d="M 495.586 698.833 C 499.804 702.435 507.395 758.779 509.911 769.211 C 517.009 798.65 524.703 815.347 546.439 837.173 L 532.439 845.307 C 526.535 848.35 521.462 850.644 515.385 853.289 C 514.148 851.673 513.004 849.986 511.961 848.239 C 490.207 812.08 485.788 739.039 495.586 698.833 z"/>
<path transform="translate(0,0)" fill="rgb(30,62,75)" d="M 441.814 694.486 C 453.259 715.693 444.93 790.257 438.913 812.756 C 435.256 826.958 429.616 840.574 422.158 853.202 C 415.222 850.519 412.293 849.067 405.812 845.379 L 392.048 836.037 C 439.612 792.757 427.106 750.06 441.814 694.486 z"/>
<path transform="translate(0,0)" fill="rgb(30,62,75)" d="M 658.518 329.175 C 688.31 336.551 690.854 362.569 683.564 388 C 675.035 417.753 657.489 443.565 635.482 465.024 C 631.279 468.789 625.356 476.363 620.47 471.718 C 620.355 471.055 620.241 470.392 620.126 469.729 C 642.575 444.264 658.656 405.894 660.969 372.69 C 662.294 353.681 661.871 343.171 658.518 329.175 z"/>
<path transform="translate(0,0)" fill="rgb(30,62,75)" d="M 276.719 326.894 C 279.521 329.573 275.723 346.165 275.774 352.508 C 276.05 386.252 285.272 418.012 302.489 446.982 C 306.116 453.085 315.11 464.065 316.262 469.743 L 315.132 470.894 C 311.311 470.614 307.805 466.892 304.752 464.284 C 272.588 437.678 218.51 353.373 276.719 326.894 z"/>
<path transform="translate(0,0)" fill="rgb(30,62,75)" d="M 199.386 430.569 C 201.639 432.62 206.93 439.807 211.83 444.284 C 230.906 461.71 252.342 473.639 275.742 484.262 C 286.435 489.117 299.884 492.573 309.778 497.38 C 309.846 501.016 310.432 501.649 308.808 504.543 L 305.759 504.695 C 273.179 501.052 243.947 496.637 214.325 481.268 C 191.293 469.318 187.547 452.608 199.386 430.569 z"/>
<path transform="translate(0,0)" fill="rgb(30,62,75)" d="M 738.881 427.605 C 741.381 429.09 743.008 432.072 744.151 434.671 C 753.39 455.693 741.332 470.891 722.968 480.45 C 694.961 495.028 666.441 500.712 635.952 506.735 C 634.975 506.964 633.995 507.178 633.012 507.377 C 628.881 508.199 628.044 507.996 625.039 506.015 C 624.558 499.776 631.514 498.145 636.272 496.501 C 674.367 483.332 717.104 463.505 738.881 427.605 z"/>
<path transform="translate(0,0)" fill="rgb(30,62,75)" d="M 232.048 375.62 C 233.47 376.264 242.686 405.096 245.753 410.359 C 263.07 440.079 285.481 458.799 312.556 478.551 L 312.793 481.443 C 311.089 484.599 312.078 483.732 309.217 485.132 L 304.738 483.529 C 270.723 467.998 184.553 420.456 232.048 375.62 z"/>
<path transform="translate(0,0)" fill="rgb(30,62,75)" d="M 702.641 376.578 C 707.121 379.358 711.842 385.092 714.184 389.781 C 727.234 415.909 700.239 442.391 681.399 457.355 C 667.879 468.095 651.746 477.975 636.173 486.144 C 632.963 487.641 628.841 490.017 625.503 489.686 C 623.547 482.862 633.505 479.137 638.072 475.522 C 667.16 452.501 696.619 413.83 702.641 376.578 z"/>
<path transform="translate(0,0)" fill="rgb(30,62,75)" d="M 568.399 562.313 C 573.647 562.902 576.115 566.752 579.57 570.58 C 604.552 598.256 629.545 617.804 664.825 630.784 L 656.517 637.224 C 636.568 646.424 627.992 641.006 609.933 630.191 C 596.634 622.226 557.201 576.568 568.399 562.313 z"/>
<path transform="translate(0,0)" fill="rgb(30,62,75)" d="M 364.359 563.829 C 367.234 563.981 368.788 563.543 370.728 565.06 C 370.789 569 369.5 573.093 367.994 576.704 C 356.066 605.297 321.499 653.411 285.366 638.44 C 279.716 635.339 277.263 633.011 272.473 628.853 C 309.638 621.003 339.171 590.067 364.359 563.829 z"/>
<path transform="translate(0,0)" fill="rgb(30,62,75)" d="M 594.581 552.972 C 626.223 568.905 668.734 589.822 704.535 591.399 C 700.116 598.463 697.653 601.731 690.824 606.464 C 659.051 621.541 607.102 577.637 584.395 558.133 L 594.581 552.972 z"/>
<path transform="translate(0,0)" fill="rgb(30,62,75)" d="M 337.146 552.842 C 339.792 552.667 348.337 557.891 351.396 559.55 C 326.131 578.983 286.728 613.91 253.268 608.447 C 243.422 604.552 239.754 600.871 233.764 592.384 C 266.57 589.622 307.965 568.884 337.146 552.842 z"/>
<path transform="translate(0,0)" fill="rgb(30,62,75)" d="M 609.973 537.626 C 650.014 544.252 688.906 549.929 729.509 545.373 C 726.39 552.892 724.261 557.487 718.586 563.325 C 693.806 583.128 630.325 555.854 603.539 544.979 L 609.973 537.626 z"/>
<path transform="translate(0,0)" fill="rgb(30,62,75)" d="M 744.885 491.93 L 745.944 493.12 C 746.077 501.482 738.43 516.95 731.083 521.521 C 713.04 532.747 686.698 530.049 665.785 530.28 C 652.63 530.425 634.317 529.77 620.981 527.916 C 620.455 527.854 619.037 527.289 618.565 527.119 C 618.648 523.7 620.097 522.572 622.11 519.272 C 660.642 516.617 710.931 510.758 744.885 491.93 z"/>
<path transform="translate(0,0)" fill="rgb(30,62,75)" d="M 320.193 535.316 C 323.185 536.426 326.184 541.34 328.469 544.287 C 301.625 555.514 250.109 577.824 222.924 567.14 C 214.705 561.405 212.621 555.862 209.262 546.964 C 243.731 549.853 286.247 541.717 320.193 535.316 z"/>
<path transform="translate(0,0)" fill="rgb(30,62,75)" d="M 193.25 490.279 C 226.867 509.817 274.008 514.958 312.256 514.958 C 313.656 518.027 315.251 520.931 315.432 524.292 L 313.608 525.587 C 298.54 527.088 283.432 528.153 268.302 528.782 C 236.501 529.935 193.922 532.015 193.25 490.279 z"/>
<path transform="translate(0,0)" fill="rgb(30,62,75)" d="M 1642.72 177.429 C 1643.19 177.374 1643.66 177.326 1644.13 177.286 C 1654.87 176.344 1666.14 177.009 1677.04 177.777 C 1862.11 190.821 2002.37 400.941 1869.39 558.385 C 1824.27 611.801 1762.76 638.455 1692.75 644.404 C 1622.13 650.637 1550.42 628.5 1496.77 581.987 C 1449.66 541.14 1416.57 484.402 1411.45 421.627 C 1406.73 364.809 1425.04 308.478 1462.26 265.287 C 1509.17 210.058 1571.66 183.369 1642.72 177.429 z"/>
<path transform="translate(0,0)" fill="rgb(255,255,255)" d="M 1636.39 193.405 C 1642.75 192.361 1657.82 192.667 1664.39 192.858 C 1718.56 194.554 1770.83 213.2 1813.85 246.169 C 1859.13 281.115 1895.8 336.401 1903.13 393.843 C 1909.77 446.897 1894.95 500.405 1861.98 542.496 C 1820.69 595.84 1760.39 620.695 1695.23 628.901 C 1627.5 634.596 1562.58 616.318 1509.81 572.786 C 1463.2 534.886 1433.67 479.941 1427.76 420.162 C 1423.29 368.192 1439.81 316.596 1473.62 276.878 C 1514.68 228.595 1573.22 198.574 1636.39 193.405 z"/>
<path transform="translate(0,0)" fill="rgb(30,62,75)" d="M 1643.41 227.228 C 1668.07 225.575 1688.66 235.851 1690.52 262.732 C 1735.39 273.949 1767.92 292.723 1801.69 323.899 C 1807.29 321.286 1809.64 320.496 1816.04 319.183 C 1840.86 314.086 1871.64 343.656 1854.88 367.371 C 1849.49 374.996 1839.94 376.017 1830.91 377.031 C 1844.33 417.958 1838.45 443.713 1825.17 482.503 C 1833.26 487.668 1839.5 493.707 1841.79 503.439 C 1843.33 509.944 1842.2 516.796 1838.65 522.463 C 1827.19 540.574 1803.98 537.982 1788.13 527.394 C 1768.1 542.799 1754.88 548.93 1731.35 557.659 C 1739.97 583.15 1727.99 596.707 1702.13 598.628 C 1679.57 596.979 1669.69 584.065 1665.51 563.392 C 1622.29 557.708 1586.61 541.415 1553.1 514.068 C 1502.53 535.03 1473.91 481.768 1512.17 462.664 C 1509.39 455.881 1506.91 448.978 1504.75 441.975 C 1494.46 408.403 1497.12 374.101 1513.63 343.05 C 1511.63 341.98 1509.67 340.851 1507.74 339.663 C 1500.11 334.912 1493.69 327.291 1491.7 318.383 C 1490.2 311.862 1491.41 305.012 1495.05 299.397 C 1507.73 279.625 1532.52 284.419 1549.33 295.674 C 1568.74 278.569 1599.53 267.062 1624.24 260.869 C 1624.06 260.4 1623.88 259.926 1623.71 259.45 C 1618.17 243.449 1628.6 231.686 1643.41 227.228 z"/>
<path transform="translate(0,0)" fill="rgb(255,255,255)" d="M 1551.55 339.986 C 1555.46 339.766 1619.59 378.428 1627.7 383.588 C 1621.12 403.511 1622.76 412.639 1630.78 431.103 C 1614.27 438.214 1597.75 446.827 1581.72 454.978 L 1552.16 469.044 C 1541.39 462.25 1536.06 460.534 1523.56 459.625 C 1521.9 455.778 1520.31 451.898 1518.8 447.988 C 1505.22 411.772 1508.38 380.418 1524.19 346.039 C 1537.05 346.474 1540.52 346.411 1551.55 339.986 z"/>
<path transform="translate(0,0)" fill="rgb(255,255,255)" d="M 1636.79 439.978 C 1639.29 440.474 1651.46 451.418 1657.75 454.212 C 1669.56 459.464 1672.41 459.686 1684.94 461.262 C 1688.07 479.056 1690.2 518.727 1692.01 538.702 C 1680.53 542.612 1676.41 544.679 1669.18 554.275 C 1652.11 550.788 1638.94 547.846 1622.25 542.213 C 1596.36 532.352 1580.8 522.833 1559.57 505.478 C 1563.51 493.238 1563.96 490.108 1558.51 478.3 C 1582.87 465.361 1611.7 451.687 1636.79 439.978 z"/>
<path transform="translate(0,0)" fill="rgb(255,255,255)" d="M 1688.61 272.156 C 1727.55 281.923 1766.78 304.428 1794.87 333.061 C 1795.13 333.321 1793.82 347.889 1795.73 353.737 L 1796.09 354.83 L 1771.75 363.588 C 1759.47 368.277 1747.14 372.841 1734.76 377.28 C 1733.68 376.149 1732.59 375.031 1731.48 373.927 C 1716.2 358.678 1700.13 354.045 1679.35 354.07 C 1678.14 331.912 1674.69 305.969 1672.81 283.279 C 1680.1 280.043 1683.4 278.135 1688.61 272.156 z"/>
<path transform="translate(0,0)" fill="rgb(255,255,255)" d="M 1799.75 363.994 L 1801.1 364.244 C 1807.32 369.834 1812.3 373.076 1820.05 376.008 C 1831.59 411.827 1828.45 443.526 1815.26 478.129 C 1803.94 477.482 1798.14 477.457 1787.02 480.755 L 1770.35 469.294 C 1758.12 460.866 1745.79 452.56 1733.39 444.375 C 1749.7 427.075 1748.39 406.883 1740.94 386.029 C 1760.79 379.357 1780.41 372.008 1799.75 363.994 z"/>
<path transform="translate(0,0)" fill="rgb(255,255,255)" d="M 1628.44 271.232 C 1629.89 271.345 1636.59 276.638 1638.68 277.891 C 1646.65 282.666 1652.3 284.385 1661.53 285.425 C 1663.81 306.533 1665.63 335.004 1669.34 355.443 C 1652.08 359.69 1646.24 363.086 1633.99 375.228 L 1610.4 360.523 C 1592.91 350.117 1575.12 340.202 1557.07 330.791 C 1561.23 318.686 1559.89 315.342 1555.81 303.491 C 1575.37 289.184 1604.54 275.539 1628.44 271.232 z"/>
<path transform="translate(0,0)" fill="rgb(255,255,255)" d="M 1678.29 366.318 C 1734.58 362.961 1759.26 435.804 1695.1 449.18 C 1669.96 449.706 1641.92 438.378 1637.88 410.595 C 1636.37 400.77 1638.98 390.76 1645.09 382.917 C 1653.14 372.578 1665.68 367.902 1678.29 366.318 z"/>
<path transform="translate(0,0)" fill="rgb(255,255,255)" d="M 1725.28 452.124 C 1734.27 456.452 1770.64 482.077 1780.04 488.468 C 1773.95 501.023 1774.59 507.158 1781.38 519.346 C 1769.53 527.968 1760.44 533.116 1747.34 539.723 C 1741.27 543.167 1730.98 546.795 1724.36 548.929 C 1716.59 543.659 1711.48 541.81 1702.71 539.358 C 1701.12 514.21 1697.69 485.944 1696.97 461.346 C 1708.76 460.281 1715.12 457.257 1725.28 452.124 z"/>
<path transform="translate(0,0)" fill="rgb(255,255,255)" d="M 1519.39 296.265 C 1548.84 297.329 1561.4 327.383 1532.15 335.557 C 1503.34 336.881 1487.58 303.234 1519.39 296.265 z"/>
<path transform="translate(0,0)" fill="rgb(255,255,255)" d="M 1695.56 549.307 C 1725.23 549.874 1735.7 581.801 1705.45 588.885 C 1678.86 588.548 1664.3 555.672 1695.56 549.307 z"/>
<path transform="translate(0,0)" fill="rgb(255,255,255)" d="M 1518.96 471.178 C 1548.62 468.008 1565.11 497.946 1537.88 508.938 C 1514.11 513.809 1491.26 486.928 1518.96 471.178 z"/>
<path transform="translate(0,0)" fill="rgb(255,255,255)" d="M 1803.17 487.267 C 1829.72 486.668 1844.64 515.066 1815.99 525.37 C 1789.38 525.544 1772.23 496.144 1803.17 487.267 z"/>
<path transform="translate(0,0)" fill="rgb(255,255,255)" d="M 1649.57 237.178 C 1654.14 236.818 1658.72 237.55 1662.94 239.313 C 1679.88 246.549 1687.22 266.215 1664.43 274.202 C 1636.81 275.375 1619.36 245.052 1649.57 237.178 z"/>
<path transform="translate(0,0)" fill="rgb(255,255,255)" d="M 1818.14 329.122 C 1842.58 327.405 1862.74 356.614 1835.09 367.063 C 1811.06 369.652 1790.6 341.1 1818.14 329.122 z"/>
<path transform="translate(0,0)" fill="rgb(30,62,75)" d="M 1004.71 520.422 C 1124.7 509.702 1246.61 601.847 1256.31 724.171 C 1260.72 779.925 1243.15 836.74 1207.48 879.962 C 1164.09 932.545 1105.88 958.943 1038.81 964.743 C 974.331 967.083 916.138 951.498 865.91 909.687 C 819.973 871.447 791.026 819.703 785.763 759.907 C 781.148 703.009 799.373 646.614 836.412 603.177 C 879.781 551.753 938.544 526.077 1004.71 520.422 z"/>
<path transform="translate(0,0)" fill="rgb(255,255,255)" d="M 1004.07 536.412 C 1022.83 533.989 1052.72 536.949 1071 540.923 C 1105.39 548.719 1137.5 564.417 1164.78 586.775 C 1169.52 590.698 1177.22 597.312 1180.45 602.368 L 1174.52 617.151 C 1154.67 626.368 1128.6 635.226 1107.22 640.923 C 1084.22 625.528 1066.72 618.532 1039.23 614.229 C 996.47 609.197 970.184 618.271 934.63 640.262 C 912.49 632.834 893.625 627.528 870.97 621.758 L 861.812 598.708 C 905.461 561.637 945.887 541.173 1004.07 536.412 z"/>
<path transform="translate(0,0)" fill="rgb(255,255,255)" d="M 1105.94 845.11 C 1127.05 853.751 1148.72 858.748 1170.1 866.36 C 1173.36 872.907 1176.55 879.896 1179.71 886.532 C 1163.89 902.957 1136.66 921.031 1115.69 929.797 C 1054.37 955.436 992.981 954.909 931.749 930.512 C 902.343 918.213 886.645 906.187 863.564 885.671 C 866.57 879.806 869.388 872.794 872.02 866.677 C 893.61 860.94 914.999 854.471 936.15 847.281 C 950.756 858.421 975.485 867.807 993.566 870.544 C 1035.74 876.929 1071.46 869.79 1105.94 845.11 z"/>
<path transform="translate(0,0)" fill="rgb(255,255,255)" d="M 852.418 608.873 C 855.16 612.533 864.156 635.665 867.331 641.946 C 875.467 658.041 883.508 671.153 892.967 686.449 C 889.725 691.618 887.041 697.116 884.959 702.851 C 871.466 739.505 879.604 769.658 895.119 803.243 C 880.913 823.378 867.55 850.535 856.162 872.556 L 855.141 874.08 L 853.743 874.335 C 853.039 873.87 852.361 873.365 851.714 872.822 C 849.616 871.077 842.487 861.809 840.596 859.327 C 819.236 831.128 806.177 797.523 802.891 762.3 C 797.127 703.711 815.762 653.645 852.418 608.873 z"/>
<path transform="translate(0,0)" fill="rgb(255,255,255)" d="M 1189.08 611.594 C 1201 622.214 1219.9 655.354 1225.98 670.451 C 1245.41 719.948 1244.49 775.121 1223.4 823.937 C 1218.88 834.485 1197.55 872.848 1188.73 876.358 L 1187.05 874.273 C 1173.55 846.003 1161.99 827.759 1147.38 801.293 C 1168.99 766.789 1171.19 720.111 1147.71 685.948 C 1159.92 668.31 1181.04 630.796 1189.08 611.594 z"/>
<path transform="translate(0,0)" fill="rgb(255,255,255)" d="M 1020.59 692.873 C 1032.49 691.16 1077.86 733.103 1088.12 743.569 C 1067.97 763.991 1045.2 781.64 1020.39 796.053 C 1011.09 796.082 964.309 754.777 954.126 744.742 C 975.767 721.587 993.96 709.627 1020.59 692.873 z"/>
<path transform="translate(0,0)" fill="rgb(255,255,255)" d="M 1015.71 623.434 C 1042 620.947 1072.82 631.362 1095.02 645.263 C 1067.8 654.142 1048.9 663.742 1024.39 677.432 C 1022.55 678.68 1022.23 678.657 1020.02 679.17 C 995.856 664.641 972.38 656.454 947.44 645.108 C 968.48 631.005 990.765 625.219 1015.71 623.434 z"/>
<path transform="translate(0,0)" fill="rgb(255,255,255)" d="M 936.055 653.825 C 952.469 658.106 995.597 677.896 1010.49 685.914 C 994.108 696.144 978.555 707.64 963.97 720.297 C 957.503 725.989 953.233 730.148 947.323 736.423 C 930.052 719.193 919.999 705.952 905.522 686.591 C 914.914 672.131 922.154 663.787 936.055 653.825 z"/>
<path transform="translate(0,0)" fill="rgb(255,255,255)" d="M 945.602 752.539 C 948.932 754.954 960.779 766.555 965.113 770.312 C 978.966 782.384 993.927 793.122 1009.8 802.382 C 993.179 811.251 978.499 818.646 961.151 825.998 C 953.081 829.626 945.823 832.916 937.514 835.929 C 924.079 824.134 917.234 817.426 907.925 802.338 C 919.632 783.982 931.919 769.328 945.602 752.539 z"/>
<path transform="translate(0,0)" fill="rgb(255,255,255)" d="M 1095.51 751.031 C 1104.72 758.655 1128.26 793.401 1133.77 803.464 C 1123.57 816.824 1117.91 822.883 1105.53 834.309 C 1097.12 830.794 1088.52 827.418 1080.05 824.013 C 1063.93 818.053 1046.94 809.548 1031.42 802.047 C 1057.83 785.324 1073.28 773.498 1095.51 751.031 z"/>
<path transform="translate(0,0)" fill="rgb(255,255,255)" d="M 1102.63 653.939 C 1110.72 653.287 1130.45 679.233 1134.9 685.908 C 1121.28 704.135 1111.28 718.339 1096.08 735.811 L 1082.1 721.569 C 1067.77 707.941 1049.71 696.315 1033.12 685.594 C 1057.22 671.144 1076.78 663.682 1102.63 653.939 z"/>
<path transform="translate(0,0)" fill="rgb(255,255,255)" d="M 1021.19 808.263 C 1037.22 819.522 1075.36 834.221 1093.65 840.873 C 1068.17 856.468 1053.46 859.336 1024.43 861.975 C 995.606 862.595 974.246 856.513 949.325 842.454 C 977.202 830.94 994.676 822.65 1021.19 808.263 z"/>
<path transform="translate(0,0)" fill="rgb(255,255,255)" d="M 1140.93 695.664 C 1143.58 697.435 1144.72 701.664 1145.89 704.598 C 1157.51 733.939 1156.5 764.259 1140.88 792.063 L 1130.7 777.555 C 1121.93 765.142 1113.68 754.179 1103.46 742.905 C 1118.41 726.198 1128.19 713.739 1140.93 695.664 z"/>
<path transform="translate(0,0)" fill="rgb(255,255,255)" d="M 899.445 697.452 C 899.87 697.697 934.813 739.294 939.174 744.099 C 929.775 754.477 921.461 765.085 912.777 776.044 C 909.205 780.575 904.753 787.43 901.389 792.337 C 887.255 759.862 883.956 730.233 899.445 697.452 z"/>
<path transform="translate(0,0)" fill="rgb(255,255,255)" d="M 1164.89 633.188 L 1165.42 634.478 C 1158.14 648.709 1150.1 662.542 1141.34 675.917 L 1132.29 664.743 C 1126.58 658.188 1123.45 655.125 1116.86 649.521 C 1133.63 644.748 1148.79 639.877 1164.89 633.188 z"/>
<path transform="translate(0,0)" fill="rgb(255,255,255)" d="M 876.665 635.309 C 888.272 637.03 912.422 644.76 924.037 648.645 C 918.809 653.257 914.956 657.095 910.113 662.084 C 905.972 666.405 902.734 670.859 899.137 675.609 C 890.593 662.791 883.079 649.315 876.665 635.309 z"/>
<path transform="translate(0,0)" fill="rgb(255,255,255)" d="M 900.513 813.415 C 902.222 814.34 921.689 836.264 925.895 840.115 L 901.313 847.085 C 894.154 848.987 885.557 851.899 878.36 854.119 C 885.555 840.516 892.687 826.652 900.513 813.415 z"/>
<path transform="translate(0,0)" fill="rgb(255,255,255)" d="M 1140.28 812.779 C 1145.58 818.865 1159.64 845.832 1163.24 853.683 L 1145.93 847.67 C 1137.12 845.024 1126.17 840.863 1117.3 837.786 C 1126.18 829.678 1132.87 822.15 1140.28 812.779 z"/>
<path transform="translate(0,0)" fill="rgb(244,203,95)" d="M 1360.48 591.356 C 1363.8 592.272 1367.93 594.788 1371.12 596.394 C 1400.71 611.409 1430.88 627.488 1461.34 640.408 C 1595.95 697.515 1748.01 710.13 1884.24 650.759 C 1896.56 645.388 1908.67 638.908 1921.13 633.509 L 1892.65 661.921 C 1883.6 670.706 1816.89 728.115 1806.52 730.35 C 1696.6 754.029 1566.69 739.873 1459.52 706.391 C 1427.7 696.449 1409.23 690.827 1385.63 680.198 C 1380.43 661.738 1377.08 642.585 1371.06 624.281 C 1367.47 613.338 1363.97 602.333 1360.48 591.356 z"/>
<path transform="translate(0,0)" fill="rgb(179,39,54)" d="M 613.115 187.271 C 816.157 170.964 1014.21 216.123 1171.55 350.509 C 1277.45 440.957 1333.56 539.166 1367.77 672.47 C 1349.41 666.229 1332.64 657.741 1315.21 649.323 C 1247.1 329.46 925.793 181.37 622.543 189.219 C 619.166 189.001 615.939 189.119 613.115 187.271 z"/>
<path transform="translate(0,0)" fill="rgb(179,39,54)" d="M 1426.87 779.876 C 1448.67 784.508 1473.23 790.324 1495 793.952 C 1563.16 805.311 1629.67 806.509 1698.48 803.68 C 1684.85 810.244 1668.44 820.062 1654.82 827.441 C 1636.56 837.28 1618.03 846.626 1599.26 855.469 C 1537.6 884.503 1468.64 911.862 1402.73 929.929 C 1419.68 886.923 1426.12 825.641 1426.87 779.876 z"/>
<path transform="translate(0,0)" fill="rgb(30,62,75)" d="M 1318.12 668.871 C 1335.58 675.997 1353.64 684.226 1370.97 691.817 C 1376.1 709.849 1377.85 731.093 1379.01 749.792 C 1383.54 822.796 1371.47 879.258 1342.83 945.584 C 1326.67 950.512 1297.64 956.732 1281.23 960.081 C 1264.8 962.831 1248.4 965.703 1232.02 968.697 C 1235.61 964.319 1239.17 959.908 1242.68 955.464 C 1309.69 870.307 1330.88 775.005 1318.12 668.871 z"/>
<path transform="translate(0,0)" fill="rgb(230,125,111)" d="M 1388.33 698.025 C 1514.31 747.302 1650.41 769.628 1784.98 748.356 C 1768.39 760.61 1738.9 779.476 1720.02 789.196 C 1715.98 791.278 1694.21 791.834 1688.39 792.072 C 1628.76 794.523 1569.04 791.412 1509.99 782.779 C 1481.75 778.514 1440.4 770.446 1413.01 762.261 C 1410.62 761.866 1398.04 757.545 1395 756.55 C 1394.72 740.816 1391.69 713.78 1388.33 698.025 z"/>
<path transform="translate(0,0)" fill="rgb(244,203,95)" d="M 754.506 216.415 C 776.995 214.178 835.84 230.671 858.557 236.71 C 1060.79 290.47 1257.15 451.363 1281.32 669.983 C 1283.43 689.054 1286.37 714.91 1283.65 733.778 L 1283.58 733.841 C 1281.14 720.484 1280.13 706.994 1278.01 693.674 C 1277.29 689.137 1274.87 682.713 1273.89 677.3 C 1265.45 630.79 1247.52 580.726 1224.71 538.982 C 1146.99 396.751 1013.2 297.233 861.294 245.309 C 839.542 237.874 816.738 231.886 794.486 226.046 C 781.322 222.591 767.602 220.279 754.506 216.415 z"/>
<path transform="translate(0,0)" fill="rgb(30,62,75)" d="M 1003.99 200.407 C 1158.45 255.01 1274.75 353.553 1348.4 501.977 C 1354.25 513.769 1363.93 535.768 1368.31 548.097 C 1362.32 550.633 1356.41 553.72 1349.92 552.6 C 1347.54 550.829 1324.8 497.208 1320.46 489.222 C 1260.64 379.09 1173.29 289.607 1062.43 230.728 C 1043.06 220.443 1023.19 210.114 1002.66 202.33 L 1003.99 200.407 z"/>
<path transform="translate(0,0)" fill="rgb(30,62,75)" d="M 850.007 290.481 C 950.988 323.129 1029.82 368.425 1103.54 446.767 C 1118.12 462.26 1138.76 485.619 1150.49 502.854 C 1143.41 507.401 1138.25 509.848 1130.62 513.496 C 1069.93 416.356 955.716 332.56 849.42 292.778 L 850.007 290.481 z"/>
<path transform="translate(0,0)" fill="rgb(244,203,95)" d="M 1395 756.55 C 1398.04 757.545 1410.62 761.866 1413.01 762.261 C 1414.59 812.162 1405.59 888.314 1385.73 934.38 C 1377.7 937.038 1368.06 939.571 1359.83 941.954 C 1387.48 872.159 1395.29 831.724 1395 756.55 z"/>
<path transform="translate(0,0)" fill="rgb(179,39,54)" d="M 826.127 344.922 C 833.348 345.188 855.237 353.074 862.598 355.825 C 927.311 379.837 985.949 417.792 1034.35 466.998 L 1028.4 471.73 L 1018.31 479.27 C 953.722 415.362 908.895 383.768 826.127 344.922 z"/>
<path transform="translate(0,0)" fill="rgb(230,125,111)" d="M 622.543 189.219 C 617.322 190.209 574.264 192.789 569.602 192.193 C 583.386 190.866 600.02 187.424 613.115 187.271 C 615.939 189.119 619.166 189.001 622.543 189.219 z"/>
<path transform="translate(0,0)" fill="rgb(105,118,128)" d="M 1002.66 202.33 C 997.704 200.532 975.379 192.85 972.426 190.619 C 979.372 191.766 997.385 197.751 1003.99 200.407 L 1002.66 202.33 z"/>
<path transform="translate(0,0)" fill="rgb(105,118,128)" d="M 849.42 292.778 C 843.086 290.477 834.614 287.656 828.774 284.741 C 833.912 284.863 844.984 288.687 850.007 290.481 L 849.42 292.778 z"/>
</svg>