<svg version="1.1" xmlns="http://www.w3.org/2000/svg" style="display: block;" viewBox="0 0 2048 2048" width="1024" height="1024" preserveAspectRatio="none">
<path transform="translate(0,0)" fill="rgb(243,243,242)" d="M 0 0 L 2048 0 L 2048 2048 L 0 2048 L 0 0 z"/>
<path transform="translate(0,0)" fill="rgb(5,73,68)" d="M 1461.55 645.336 C 1467.95 646.569 1467.14 647.92 1469.31 653.624 C 1477.8 656.933 1489.15 654.756 1500.87 660.837 C 1517.26 669.334 1523.73 685.584 1540.94 691.06 C 1547.3 693.082 1556.57 684.579 1563.54 686.552 C 1567.95 696.51 1556.86 714.693 1546.97 720.811 C 1522.43 735.987 1490.68 684.537 1472.08 694.264 C 1467.55 700.664 1470.73 726.279 1471.05 735.617 C 1496.93 743.004 1509.29 753.889 1515.57 780.876 C 1512.74 790.782 1511.59 792.52 1504.69 800.114 C 1514.62 805.721 1526.34 810.073 1536.42 816.318 C 1563.05 832.826 1583.35 857.103 1594.55 886.394 C 1598.46 896.624 1599.68 912.413 1603.24 920.184 C 1607.01 928.413 1615.03 936.027 1619.65 946.335 C 1617.25 952.021 1613.14 959.937 1609.33 964.699 L 1609.7 980.608 C 1630.59 971.965 1654.05 960.622 1674.22 952.907 C 1694.78 961.607 1726.49 979.861 1747.67 990.445 L 1919.62 1075.86 C 1920.18 1084.08 1920.21 1091.09 1920.19 1099.35 C 1928.13 1101.93 1935.05 1103.06 1940.31 1109.28 C 1941.33 1116.74 1930.59 1117.53 1924.9 1118.86 C 1927.05 1137.82 1927.34 1169.93 1928.07 1189.79 C 1929.36 1224.64 1931.57 1262.21 1931.58 1296.94 C 1940.05 1301.5 1971.79 1315.57 1972.34 1324.64 C 1971.61 1325.77 1971.6 1325.92 1970.46 1326.93 C 1968.84 1328.37 1896.57 1347.29 1886.45 1350.08 C 1849.53 1360.21 1812.69 1370.62 1775.92 1381.29 C 1757.47 1386.74 1734.61 1394.38 1716.08 1398.4 C 1710.1 1399.7 1682.97 1396.18 1675.32 1395.37 C 1652.53 1392.87 1629.71 1390.62 1606.86 1388.61 L 1357.02 1366.89 C 1303.81 1362.15 1245.74 1355.96 1192.52 1353.73 C 1218.78 1342.31 1263.59 1327.4 1290.74 1319.22 C 1291.34 1288.08 1290.83 1255.28 1290.84 1224.01 L 1290.88 1113.76 C 1264.21 1114.62 1234.49 1114.04 1207.56 1114.07 L 1048.71 1114.1 L 599.488 1114.18 L 410.236 1114.02 C 387.961 1113.98 362.249 1114.8 339.87 1113.73 C 337.006 1113.59 336.949 1112.76 335.781 1111.04 C 335.563 1107.92 335.179 1107.67 336.727 1105.1 C 379.123 1103.4 429.665 1104.63 472.626 1104.62 L 696.739 1104.29 L 1291.11 1104.25 C 1300.51 1089.52 1316.04 1075.84 1328.8 1063.62 C 1327.77 1031.12 1329.93 996.654 1328.98 964.018 C 1328.79 957.409 1320.27 949.873 1320.22 940.987 C 1322.61 935.038 1331.07 930.766 1336.66 927.239 C 1340.46 900.16 1344.41 880.65 1360.61 857.671 C 1379.46 830.94 1401.15 813.717 1430.18 799.307 C 1426.07 792.116 1421.5 785.009 1418.68 777.248 C 1425.1 756.03 1440.6 741.519 1461.61 735.195 C 1461.06 716.766 1460.37 698.341 1459.54 679.922 C 1459.2 671.517 1456.95 651.54 1461.55 645.336 z"/>
<path transform="translate(0,0)" fill="rgb(243,243,242)" d="M 1700.9 1032.95 C 1750.51 1054.74 1800.26 1076.19 1850.15 1097.31 C 1869.54 1105.56 1889.31 1113.47 1908.83 1121.45 C 1911.51 1122.54 1913.41 1123.44 1914.13 1126.15 C 1915.47 1131.15 1915.44 1141.27 1913.56 1146.02 L 1912.92 1147.72 C 1916.54 1153.17 1916.18 1182.74 1916.38 1191.67 C 1917.05 1196.06 1917.93 1213.7 1918.2 1218.73 C 1919.53 1243.69 1921.08 1270.01 1921.04 1294.96 C 1850.23 1310.71 1777.35 1318.44 1706.93 1332.71 C 1706.38 1233.34 1701.21 1132.42 1700.9 1032.95 z"/>
<path transform="translate(0,0)" fill="rgb(5,73,68)" d="M 1881.15 1130.63 C 1889.58 1132.27 1900.7 1133.84 1908.22 1137.63 C 1912.04 1139.56 1912.56 1142.18 1913.56 1146.02 L 1912.92 1147.72 C 1916.54 1153.17 1916.18 1182.74 1916.38 1191.67 C 1913.77 1189.48 1914.39 1185.73 1913.29 1182.31 C 1913.15 1185.21 1913.06 1185.85 1912.44 1188.69 C 1907.46 1191.22 1887.4 1186.23 1881.39 1184.51 C 1881 1166.55 1880.92 1148.59 1881.15 1130.63 z"/>
<path transform="translate(0,0)" fill="rgb(219,230,234)" d="M 1912.92 1147.72 C 1916.54 1153.17 1916.18 1182.74 1916.38 1191.67 C 1913.77 1189.48 1914.39 1185.73 1913.29 1182.31 C 1912.58 1180.35 1912.39 1150.43 1912.92 1147.72 z"/>
<path transform="translate(0,0)" fill="rgb(243,243,242)" d="M 1892.48 1143.74 C 1893.5 1143.78 1894.53 1143.81 1895.56 1143.85 C 1906.03 1144.71 1904.17 1173.39 1902.34 1179.86 C 1899.09 1179.62 1894.79 1179.05 1893.22 1175.84 C 1889.02 1167.21 1890.78 1152.81 1892.48 1143.74 z"/>
<path transform="translate(0,0)" fill="rgb(5,73,68)" d="M 1743.55 1182.86 C 1763.49 1187.63 1785.09 1189.13 1803.9 1193.78 C 1804.98 1202.68 1807.12 1282.84 1805.3 1288.25 C 1801.99 1290.23 1797.46 1289.83 1794.1 1288.17 C 1790.83 1282.63 1790.83 1222.71 1790.63 1211.5 L 1790.3 1200.8 L 1777.14 1199.11 C 1776.72 1221.38 1778.33 1243.97 1778.77 1266.25 C 1778.9 1273.3 1779.37 1279.69 1777.94 1286.66 C 1773.47 1290.36 1751.5 1289.04 1744.39 1288.95 C 1743.05 1276.62 1741.38 1192.17 1743.55 1182.86 z"/>
<path transform="translate(0,0)" fill="rgb(243,243,242)" d="M 1753.15 1195.77 C 1757.13 1196.1 1762.16 1196.91 1766.2 1197.45 C 1767.16 1224.27 1767.2 1251.65 1767.82 1278.57 L 1754.91 1278 C 1753.18 1254.24 1753.88 1220.89 1753.15 1195.77 z"/>
<path transform="translate(0,0)" fill="rgb(5,73,68)" d="M 1742.97 1080.65 C 1756.05 1081.89 1792.8 1095.6 1804.08 1102.44 C 1804.26 1123.8 1804.7 1145.69 1804.11 1167 C 1798.84 1165.66 1793.83 1163.92 1788.68 1162.23 C 1787.75 1149.79 1788.22 1131.76 1788.2 1118.9 L 1788.14 1104.62 C 1784.24 1103.34 1780.1 1102.19 1776.15 1101.02 C 1776.52 1120.82 1776.61 1140.62 1776.41 1160.41 C 1767.14 1158.79 1749.73 1156.14 1741.51 1153.12 C 1741.65 1141.12 1740.33 1087.38 1742.97 1080.65 z"/>
<path transform="translate(0,0)" fill="rgb(243,243,242)" d="M 1752.17 1093.65 L 1765.11 1097.58 L 1765.07 1148.15 L 1752.38 1145.79 C 1751.77 1129.2 1752.18 1110.41 1752.17 1093.65 z"/>
<path transform="translate(0,0)" fill="rgb(5,73,68)" d="M 1826.71 1195.84 C 1835.86 1197.09 1857.04 1198.79 1863.26 1203.88 C 1865.01 1211.48 1866.06 1281.96 1863.76 1285.98 C 1859.65 1286.57 1827.48 1289.16 1827.22 1284.46 C 1826.41 1269.35 1821.82 1206.36 1826.71 1195.84 z"/>
<path transform="translate(0,0)" fill="rgb(243,243,242)" d="M 1835.62 1207.39 C 1839.52 1208.02 1843.84 1208.96 1847.77 1209.72 C 1848.45 1232.19 1848.99 1254.67 1849.4 1277.14 L 1836.95 1277.23 C 1836.66 1253.95 1836.22 1230.66 1835.62 1207.39 z"/>
<path transform="translate(0,0)" fill="rgb(5,73,68)" d="M 1884 1205.09 C 1893.87 1206.84 1903.78 1208.39 1913.71 1209.74 C 1914.6 1231.87 1916.18 1258.65 1915.77 1280.93 C 1915.72 1283.43 1914.63 1283.59 1912.89 1284.79 C 1903 1286.08 1893.05 1286.86 1883.08 1287.14 C 1882.85 1282.91 1882.17 1271 1882.5 1267.54 C 1883.65 1255.32 1877.92 1214.12 1884 1205.09 z"/>
<path transform="translate(0,0)" fill="rgb(243,243,242)" d="M 1892.58 1216.73 C 1896.08 1217.11 1900.24 1218.06 1903.75 1218.75 C 1904.57 1237.88 1905.14 1257.02 1905.48 1276.16 L 1893.4 1276.15 C 1892.9 1256.35 1892.63 1236.54 1892.58 1216.73 z"/>
<path transform="translate(0,0)" fill="rgb(5,73,68)" d="M 1824.49 1110.42 C 1836.82 1111.81 1852.6 1118.5 1863.55 1124.2 C 1863.53 1141.68 1865.51 1166.5 1864.25 1182.82 C 1854.51 1181.25 1834.36 1174.71 1824.67 1171.34 C 1824.17 1157.27 1823.24 1123.7 1824.49 1110.42 z"/>
<path transform="translate(0,0)" fill="rgb(243,243,242)" d="M 1834.74 1123.32 C 1839.43 1125.14 1844.17 1127.21 1848.82 1129.16 L 1848.51 1168.67 L 1835.04 1165.19 L 1834.74 1123.32 z"/>
<path transform="translate(0,0)" fill="rgb(243,243,242)" d="M 1654.17 1039.03 L 1654.74 1039.23 C 1657.24 1042.46 1655.99 1303.75 1656.15 1331.9 C 1624.92 1329.69 1593.68 1325.96 1562.48 1323.85 L 1551.25 1322.88 C 1550.51 1239.43 1551.26 1155.23 1551.54 1071.72 C 1585.35 1061.88 1620.59 1050 1654.17 1039.03 z"/>
<path transform="translate(0,0)" fill="rgb(5,73,68)" d="M 1616.86 1184.42 C 1619.68 1184.14 1620.73 1183.69 1623.19 1184.95 C 1626.14 1192.35 1625.01 1274.31 1625.03 1288.02 C 1615.28 1288.34 1605.51 1288.58 1595.75 1288.75 C 1592.63 1288.79 1588.66 1288.74 1588.23 1284.51 C 1587.35 1270.86 1587.47 1254.27 1588.02 1240.73 C 1588.42 1230.65 1585.85 1196.51 1589.82 1189.72 C 1596.52 1185.12 1608.35 1185.16 1616.86 1184.42 z"/>
<path transform="translate(0,0)" fill="rgb(243,243,242)" d="M 1599.34 1196.38 L 1613.95 1195.8 L 1614.15 1252.13 C 1614.16 1256.99 1614.53 1274.17 1613.7 1277.83 L 1611.83 1278.64 L 1598.51 1278.45 C 1598.49 1268.16 1597.16 1202.6 1599.34 1196.38 z"/>
<path transform="translate(0,0)" fill="rgb(5,73,68)" d="M 1607.66 1082.02 C 1632.41 1082.43 1625.05 1136.12 1625 1155.18 C 1617.56 1157.8 1610.94 1158.77 1603.17 1160.17 C 1598.05 1160.83 1592.35 1162.63 1588.46 1158.88 C 1586.62 1144.87 1587.26 1129.88 1587 1115.72 C 1586.68 1098.99 1590.96 1087.17 1607.66 1082.02 z"/>
<path transform="translate(0,0)" fill="rgb(243,243,242)" d="M 1605.46 1092.69 C 1611.99 1092.96 1613.69 1095.9 1614.19 1102.02 C 1615.36 1116.27 1614.78 1132.33 1614.37 1146.56 C 1612.72 1149.24 1612.7 1148.46 1608.65 1149.59 C 1605.12 1150.21 1601.44 1150.69 1597.88 1151.21 C 1597.65 1139.72 1597.29 1127.87 1597.31 1116.41 C 1597.33 1105.53 1598.01 1100.1 1605.46 1092.69 z"/>
<path transform="translate(0,0)" fill="rgb(243,243,242)" d="M 1927.04 1307.49 C 1933.66 1308.55 1948.3 1317.34 1954.8 1320.99 C 1874.8 1341.12 1795.04 1366.44 1715.37 1387.79 C 1709.63 1389.33 1681.88 1385.96 1674.38 1385.23 L 1602.63 1378.27 C 1496.55 1368.36 1390.42 1359.02 1284.24 1350.24 L 1237.86 1346.57 C 1246.7 1344.16 1282.14 1331.66 1288.22 1331.65 C 1349.02 1331.58 1412.08 1338.98 1473.04 1340.11 C 1494.47 1340.51 1518.45 1331.75 1537 1333.23 L 1652 1343.49 C 1660.15 1344.16 1694.43 1348.04 1700.98 1346.98 C 1775.98 1334.79 1851.48 1316.86 1927.04 1307.49 z"/>
<path transform="translate(0,0)" fill="rgb(243,243,242)" d="M 1461.49 1074.98 L 1463.68 1075.33 C 1464.43 1080.06 1464.32 1094.85 1464.38 1100.45 C 1464.56 1117.56 1464.64 1134.68 1464.64 1151.8 L 1464.34 1328.93 C 1450.26 1328.46 1436.18 1327.88 1422.11 1327.18 C 1421.83 1299.59 1425.81 1223.13 1417.46 1201.86 C 1412.47 1189.14 1403.19 1179.81 1395.5 1168.92 C 1389.41 1160.3 1402.23 1147.58 1403.71 1138.91 C 1404.89 1131.97 1403.34 1122.83 1399.08 1117.13 C 1396.99 1114.34 1394.15 1112.35 1390.64 1111.94 C 1386.59 1111.47 1381.94 1113.33 1378.86 1115.9 C 1372.93 1120.85 1373.18 1132.29 1373.09 1139.24 C 1373.32 1140.34 1373.55 1141.44 1373.78 1142.53 C 1373.8 1147.9 1384.88 1158.94 1382.64 1164.11 C 1376.53 1178.22 1364.73 1189.34 1361.38 1205.14 C 1358.78 1220 1359.39 1239.23 1359.39 1254.27 L 1359.41 1323.77 C 1351.61 1323.16 1342.92 1323.03 1335.04 1322.75 C 1335.03 1254.44 1335.79 1181.83 1334.19 1113.81 C 1376.73 1101.21 1419.16 1088.27 1461.49 1074.98 z"/>
<path transform="translate(0,0)" fill="rgb(243,243,242)" d="M 1504.08 1062.21 C 1511.4 1061.31 1513.99 1062.12 1521.07 1063.58 C 1522.52 1149.56 1522.78 1238.31 1522.67 1324.33 C 1513.17 1325.68 1502.82 1326.76 1493.23 1327.92 C 1486.96 1328.54 1481.24 1328.88 1474.94 1329.2 L 1474.57 1070.3 C 1484.79 1067.24 1493.67 1064.74 1504.08 1062.21 z"/>
<path transform="translate(0,0)" fill="rgb(243,243,242)" d="M 1440 929.084 C 1460.16 929.615 1487.3 930.459 1507.04 932.638 C 1508.15 963.947 1507.11 995.833 1507.66 1027.31 C 1504.6 1029.29 1502.02 1030.46 1500.26 1033.57 C 1502.06 1041.25 1505.47 1038.8 1510.3 1037.12 C 1530.67 1030.05 1664.17 964.491 1673.53 965.596 C 1677.58 967.843 1675.49 967.344 1679.99 967.321 C 1678.2 973.361 1679.17 978.65 1678.14 984.639 L 1673.79 984.602 C 1651.7 996.362 1616.76 1009.3 1592.41 1019.53 C 1572.17 1028.03 1529.59 1047.76 1510.22 1051.9 C 1496.16 1043.02 1456.52 1037.73 1438.17 1034.48 C 1440.04 1003.21 1439.73 960.685 1440 929.084 z"/>
<path transform="translate(0,0)" fill="rgb(11,67,67)" d="M 1673.53 965.596 C 1677.58 967.843 1675.49 967.344 1679.99 967.321 C 1678.2 973.361 1679.17 978.65 1678.14 984.639 L 1673.79 984.602 C 1674.05 977.619 1674.39 972.546 1673.53 965.596 z"/>
<path transform="translate(0,0)" fill="rgb(5,73,68)" d="M 1469.28 950.845 C 1494.17 951.388 1491.44 1002.71 1491.43 1018.97 L 1478.73 1018.82 C 1471.17 1018.2 1462.68 1017.97 1455.03 1017.59 C 1454.88 996.635 1450.44 963.992 1469.28 950.845 z"/>
<path transform="translate(0,0)" fill="rgb(243,243,242)" d="M 1683.09 1027.34 C 1684.84 1027.22 1689.06 1029.24 1691 1030.03 C 1692.25 1131.19 1696.25 1232.93 1697.03 1333.76 L 1681.24 1332.33 L 1666.18 1331.61 C 1664.57 1232.33 1665.26 1129.52 1665.23 1029.99 C 1672.16 1030.07 1676.66 1029.95 1683.09 1027.34 z"/>
<path transform="translate(0,0)" fill="rgb(243,243,242)" d="M 1482.03 888.521 C 1501.42 888.184 1520.7 886.76 1538.91 894.707 C 1558.82 903.393 1579.3 912.375 1596.13 926.326 C 1592.47 931.222 1589.08 936.274 1585.62 941.312 C 1570.24 934.962 1554.53 929.439 1538.55 924.767 C 1534.01 915.311 1527.79 902.826 1521.95 894.302 C 1514.95 902.611 1509.5 911.173 1503.54 920.203 C 1481.91 920.395 1458.99 919.557 1437.3 919.028 C 1436.52 912.202 1436.21 910.357 1434.14 903.783 C 1422.32 891.748 1413.17 889.539 1407.03 907.275 C 1404.73 913.896 1402.32 919.709 1400.74 926.676 L 1399.82 930.654 L 1399.47 932.212 L 1396.5 933.947 C 1381.47 941.664 1362.02 951.057 1348.28 960.462 C 1349.13 987.42 1349.07 1018.02 1348.54 1045.02 C 1345.29 1049.14 1342.76 1051.33 1338.96 1054.88 C 1338.92 1039 1339.01 1023.13 1339.24 1007.25 C 1339.52 991.696 1341.18 971.467 1338.18 956.58 C 1337.54 953.43 1333.49 947.69 1331.54 944.817 C 1348.52 929.568 1391.38 905.321 1411.3 892.204 C 1418.68 887.346 1469.38 888.58 1482.03 888.521 z"/>
<path transform="translate(0,0)" fill="rgb(243,243,242)" d="M 1323.04 1117.27 C 1324.54 1119.07 1324.22 1302.16 1324.32 1321.99 C 1317.35 1321.26 1310.12 1321.12 1303.1 1320.87 L 1301.74 1319.83 C 1300.37 1308.86 1301.2 1269.78 1301.2 1256.01 L 1301.4 1122.83 L 1323.04 1117.27 z"/>
<path transform="translate(0,0)" fill="rgb(243,243,242)" d="M 1449.1 805.033 C 1461.66 804.733 1471.81 804.673 1484.34 805.265 C 1492.83 830.967 1497.59 851.82 1502.63 878.219 L 1488.23 878.401 L 1434.28 878.888 C 1438.82 852.46 1443.02 831.076 1449.1 805.033 z"/>
<path transform="translate(0,0)" fill="rgb(243,243,242)" d="M 1679.99 967.321 C 1699.08 977.63 1718.08 986.555 1737.38 996.315 L 1846.6 1051.49 C 1864.93 1060.62 1883.65 1069.15 1901.77 1078.65 C 1904.1 1079.87 1908.87 1082.15 1909.41 1084.26 C 1910.23 1087.43 1909.99 1091.07 1909.93 1094.39 C 1897.42 1087.69 1884.25 1081.92 1871.27 1076.17 C 1822.55 1054.59 1774.42 1031.59 1726.58 1008.14 C 1715.98 1002.94 1685.65 990.9 1678.14 984.639 C 1679.17 978.65 1678.2 973.361 1679.99 967.321 z"/>
<path transform="translate(0,0)" fill="rgb(243,243,242)" d="M 1409.45 939.711 L 1412.01 940.031 C 1413.76 944.824 1412.59 1020.99 1412.37 1030.35 L 1400.03 1027.61 C 1399.53 1015.18 1400.33 975.614 1385.2 972.674 C 1367.95 979.313 1371.44 1027.13 1372.77 1042.85 C 1368.77 1046.83 1362.07 1052.07 1357.57 1055.79 C 1346.05 1065.47 1330.49 1079.26 1318.44 1087.46 C 1330.06 1073.46 1345.68 1062.85 1358.3 1050 C 1359.83 1025.72 1358.98 991.188 1359.08 966.158 C 1375.71 957.043 1392.51 948.225 1409.45 939.711 z"/>
<path transform="translate(0,0)" fill="rgb(243,243,242)" d="M 1531.7 1066.36 C 1534.73 1067.95 1538.25 1070.23 1541.23 1072.04 C 1542.18 1103.29 1541.68 1136.77 1541.74 1168.17 L 1541.88 1322.19 C 1538.72 1322.44 1537.18 1322.83 1534.2 1321.71 C 1531.69 1317.9 1532.62 1283.26 1532.56 1275.67 C 1531.92 1205.9 1531.63 1136.13 1531.7 1066.36 z"/>
<path transform="translate(0,0)" fill="rgb(243,243,242)" d="M 1436.68 808.904 L 1437.8 809.169 C 1439.14 811.682 1434.39 823.364 1433.49 827.234 C 1429.5 844.327 1426.5 861.609 1423.36 878.872 C 1405.14 879.039 1395.4 888.592 1380.59 899.008 L 1379.45 898.792 C 1378.8 895.567 1387.93 868.602 1390.03 863.634 C 1401.97 835.333 1408.5 821.406 1436.68 808.904 z"/>
<path transform="translate(0,0)" fill="rgb(243,243,242)" d="M 1394.27 1184.61 C 1395.35 1185.29 1395.6 1185.31 1396.34 1186.15 C 1414.64 1206.81 1411.92 1233.58 1411.95 1259.04 L 1411.97 1326.87 C 1406.48 1326.38 1400.42 1326.16 1394.87 1325.86 C 1394.04 1293.88 1395.14 1261.49 1394.4 1229.47 C 1394.06 1214.71 1393.93 1199.35 1394.27 1184.61 z"/>
<path transform="translate(0,0)" fill="rgb(243,243,242)" d="M 1496.31 808.566 C 1526.99 819.468 1553.34 858.203 1555.14 890.405 C 1537.9 882.895 1531.9 879.445 1513.36 877.894 C 1508.92 854.497 1503.23 831.354 1496.31 808.566 z"/>
<path transform="translate(0,0)" fill="rgb(243,243,242)" d="M 1422.62 1041.93 C 1439.05 1047.15 1469.76 1049.77 1489.25 1054.77 C 1469.67 1062.43 1443.43 1069.84 1423 1076.12 C 1404.99 1081.31 1387.54 1087.52 1369.31 1092.36 C 1387.91 1077.71 1409.33 1061.52 1422.62 1041.93 z"/>
<path transform="translate(0,0)" fill="rgb(243,243,242)" d="M 1383.18 1182.65 C 1385.11 1187.28 1384 1311.13 1383.99 1325.02 L 1371.24 1324.47 L 1370.19 1322.92 C 1367.65 1291.93 1371.19 1256.41 1370.12 1224.9 C 1369.57 1208.74 1374.33 1195.95 1383.18 1182.65 z"/>
<path transform="translate(0,0)" fill="rgb(243,243,242)" d="M 1536.72 936.451 C 1551.15 939.193 1567.27 945.038 1581.09 950.165 L 1581.3 991.507 C 1579.61 994.169 1580.71 993.18 1577.86 994.568 C 1570.4 989.909 1576.19 970.533 1563.1 960.017 C 1536.4 965.253 1553.4 1015.46 1537.83 1013.03 C 1535.82 1010.07 1536.74 945.582 1536.72 936.451 z"/>
<path transform="translate(0,0)" fill="rgb(243,243,242)" d="M 1694.51 1009.58 C 1701.11 1011.41 1715.15 1018.73 1721.82 1021.79 C 1741.04 1030.68 1760.31 1039.45 1779.63 1048.11 L 1864.2 1085.23 C 1881.53 1092.79 1899.24 1100.24 1916.25 1108.47 C 1920.41 1110.48 1921.78 1111.11 1923.78 1114.83 C 1917.31 1115.14 1888.84 1102.17 1880.6 1098.75 C 1850.57 1086.34 1820.66 1073.66 1790.86 1060.7 L 1729.74 1034.64 C 1720.77 1030.78 1710.53 1026.48 1701.78 1022.24 C 1695.78 1019.33 1702.56 1017.37 1694.51 1009.58 z"/>
<path transform="translate(0,0)" fill="rgb(243,243,242)" d="M 1397.11 1037.92 C 1400.96 1037.98 1408.68 1039.73 1412.78 1040.51 C 1404.9 1050.69 1362.34 1085.79 1350.42 1097.26 C 1348 1099.59 1322.35 1106.63 1317.03 1108.16 C 1311.28 1109.82 1305.84 1110.93 1299.99 1112.17 C 1335.55 1090.27 1364 1062.86 1397.11 1037.92 z"/>
<path transform="translate(0,0)" fill="rgb(243,243,242)" d="M 1469.1 663.922 C 1506.62 664.821 1502.98 679.811 1529.83 696.698 C 1535.97 700.562 1547.82 698.254 1550.56 700.637 C 1550.47 703.698 1548.4 705.791 1546.53 708.416 C 1525.93 723.319 1512.54 694.811 1493.48 688.229 C 1482.29 684.366 1480.96 684.557 1469.34 685.087 C 1469.14 678.126 1469.17 670.908 1469.1 663.922 z"/>
<path transform="translate(0,0)" fill="rgb(243,243,242)" d="M 1653.16 1019.04 C 1654.3 1018.77 1653.51 1018.89 1655.57 1019.16 C 1656.38 1021.72 1656.09 1023.43 1655.96 1026.08 C 1653.28 1029.46 1552.45 1062.43 1545.58 1061.5 C 1542.68 1060.5 1540.57 1060.44 1539.27 1058.43 C 1574.46 1044.34 1617.19 1030.41 1653.16 1019.04 z"/>
<path transform="translate(0,0)" fill="rgb(243,243,242)" d="M 1547.28 837.483 C 1566.9 846.915 1585.63 888.707 1590.74 908.654 C 1584.45 905.998 1571.99 898.865 1565.06 895.37 C 1565.06 871.73 1558.08 857.68 1547.28 837.483 z"/>
<path transform="translate(0,0)" fill="rgb(243,243,242)" d="M 1387.74 841.993 C 1387.34 844.729 1379.79 861.058 1378.11 865.346 C 1372.86 878.767 1369.23 892.771 1367.31 907.057 L 1348.53 919.948 C 1348.41 919.084 1348.25 918.3 1348.37 917.415 C 1352.05 889.363 1367 860.508 1387.74 841.993 z"/>
<path transform="translate(0,0)" fill="rgb(243,243,242)" d="M 1429.92 932.929 L 1430.62 933.528 C 1432.19 938.081 1432.61 1028.6 1431.03 1032.6 L 1426.23 1033.65 C 1421.99 1029.14 1422.74 949.363 1423.18 937.723 C 1424.41 935.247 1427.29 934.294 1429.92 932.929 z"/>
<path transform="translate(0,0)" fill="rgb(243,243,242)" d="M 1517.15 934.928 C 1519.81 935.197 1522.44 935.673 1525.08 936.105 C 1528.46 939.326 1526.21 1008.93 1526.41 1018.45 C 1525.94 1018.96 1525.46 1019.46 1524.99 1019.97 C 1521.95 1021.48 1520.98 1022.21 1517.55 1022.49 C 1516.82 1019.15 1517.15 1000.51 1517.15 995.931 L 1517.15 934.928 z"/>
<path transform="translate(0,0)" fill="rgb(243,243,242)" d="M 1458.33 747.158 C 1480.42 744.256 1492.82 752.716 1503.16 771.228 C 1495.25 767.99 1486.59 764.058 1478.31 762.335 C 1457.69 760.656 1451.76 763.964 1431.97 769.929 C 1440.44 756.925 1444.83 753.785 1458.33 747.158 z"/>
<path transform="translate(0,0)" fill="rgb(243,243,242)" d="M 1675.32 997.023 C 1680.33 999.356 1690.18 1006.09 1695.24 1009.36 C 1689.74 1007.99 1680.05 1005.18 1674.71 1005.6 C 1666.95 1006.25 1661.16 1012.18 1653.88 1014.18 C 1638.77 1018.33 1623.79 1022.72 1608.78 1027.23 C 1603.22 1028.62 1597.63 1029.84 1592 1030.89 C 1594.84 1028.69 1612.32 1022.33 1616.76 1020.53 C 1636.13 1012.64 1656.25 1005.63 1675.32 997.023 z"/>
<path transform="translate(0,0)" fill="rgb(243,243,242)" d="M 1420.16 904.48 C 1424.24 907.609 1426.31 918.483 1427.65 923.702 L 1417.34 927.995 C 1414.86 928.696 1415.75 928.614 1413.26 928.359 C 1411.22 922.978 1417.7 909.831 1420.16 904.48 z"/>
<path transform="translate(0,0)" fill="rgb(243,243,242)" d="M 1387.21 1121.3 L 1390.45 1123.02 C 1396.43 1130.99 1394.01 1139.48 1389.27 1147.4 C 1387.69 1147.64 1387.96 1147.44 1386.22 1146.91 C 1381.79 1140.74 1382.84 1127.6 1387.21 1121.3 z"/>
<path transform="translate(0,0)" fill="rgb(243,243,242)" d="M 1591.7 961.552 L 1597.44 963.332 C 1601.47 967.37 1601.36 980.133 1599.3 984.985 C 1597.97 985.747 1593.88 988.486 1592.9 986.5 C 1589.97 980.588 1591.56 968.076 1591.7 961.552 z"/>
<path transform="translate(0,0)" fill="rgb(243,243,242)" d="M 1459.27 772.311 L 1461.88 772.255 C 1464.54 776.67 1464.45 787.274 1461.99 791.838 C 1461.3 793.131 1459.05 792.962 1457.5 793.207 C 1454.69 787.145 1450.58 780.875 1451.98 774.684 C 1454.77 772.153 1454.69 772.935 1459.27 772.311 z"/>
<path transform="translate(0,0)" fill="rgb(243,243,242)" d="M 1472.42 771.315 C 1476.77 772.649 1481.13 774.37 1485.41 775.965 L 1478.76 789.602 C 1477.75 792.267 1477.79 792.079 1475.74 794.096 L 1474.15 794.037 C 1470.89 790.083 1472.23 776.685 1472.42 771.315 z"/>
<path transform="translate(0,0)" fill="rgb(243,243,242)" d="M 1495.19 777.659 C 1499.42 778.136 1501.81 778.059 1504.71 780.516 L 1504.92 783.104 C 1503.12 787.301 1499.55 790.874 1496.5 794.413 C 1494.33 795.744 1491.83 796.456 1489.58 795.158 C 1488.13 790.65 1493.02 782.219 1495.19 777.659 z"/>
<path transform="translate(0,0)" fill="rgb(243,243,242)" d="M 1440.19 776.162 C 1443.58 779.706 1446.39 787.419 1446.27 792.797 C 1444.1 795.39 1445.51 794.345 1441.17 794.963 C 1436.9 790.329 1431.7 785.999 1432.06 779.609 C 1434.76 776.805 1435.71 777.362 1440.19 776.162 z"/>
<path transform="translate(0,0)" fill="rgb(243,243,242)" d="M 1600.67 937.562 C 1604.86 940.659 1606.7 945.392 1605.85 950.465 C 1603.71 953.624 1604.57 952.605 1600.14 954.058 L 1594.83 953.483 L 1593.51 951.8 C 1593 946.618 1597.48 941.886 1600.67 937.562 z"/>
<path transform="translate(0,0)" fill="rgb(243,243,242)" d="M 1521.31 912.72 C 1523.04 915.207 1526.24 921.81 1526.55 924.853 L 1525.17 925.734 C 1520.56 925.249 1520.88 925.99 1517.69 923.64 C 1517.01 920.496 1519.82 915.911 1521.31 912.72 z"/>
<path transform="translate(0,0)" fill="rgb(11,67,67)" d="M 261.651 915.015 C 269.151 914.637 361.257 939.266 373.792 943.356 C 369.234 946.566 364.237 949.681 359.543 952.744 C 324.682 975.498 290.738 999.472 256.422 1023 C 259.67 1039.92 260.202 1047.06 260.154 1064.01 C 271.019 1054.94 350.664 991.398 359.806 988.05 C 361.923 987.274 362.225 987.418 364.138 988.342 C 364.932 990.463 365.254 994.898 363.23 996.386 C 354.105 1003.09 345.05 1009.85 336.032 1016.75 C 303.914 1041.03 271.98 1065.54 240.232 1090.3 C 239.266 1090.01 236.839 1089.29 236.034 1088.9 C 212.768 1077.69 189.627 1066.86 166.239 1055.84 C 152.397 1048.55 133.935 1042.89 120.896 1034.83 C 106.293 1025.82 105.356 982.214 121.919 973.948 C 137.115 966.363 153.468 959.999 168.918 953.586 L 261.651 915.015 z"/>
<path transform="translate(0,0)" fill="rgb(243,243,242)" d="M 130.96 977.916 C 146.305 977.31 196.148 1003.91 213.467 1008.83 C 219.8 1010.63 238.229 1019.22 244.917 1022.49 C 249.921 1034.36 252.93 1048.56 251.336 1061.49 C 250.127 1071.3 247.076 1074.83 239.564 1080.37 C 230.135 1076.93 213.041 1068.28 203.423 1063.77 C 177.767 1051.47 151.912 1039.59 125.868 1028.14 C 118.743 1013.45 114.592 987.852 130.96 977.916 z"/>
<path transform="translate(0,0)" fill="rgb(243,243,242)" d="M 217.407 967.864 C 223.808 967.896 263.822 984.065 272.316 987.338 C 265.618 992.184 261.566 994.834 254.393 998.926 C 249.028 999.28 207.76 981.094 200.058 977.827 L 217.407 967.864 z"/>
<path transform="translate(0,0)" fill="rgb(11,67,67)" d="M 362.994 1004.83 C 368.872 1008.61 371.981 1031.96 373.229 1039.48 C 360.567 1055.2 331.683 1085.84 318.421 1100.61 C 305.63 1114.85 259.02 1167.27 245.973 1175.86 C 234.831 1171.97 216.064 1162.25 205.035 1156.83 L 119.556 1113.94 C 116.553 1112.58 113.306 1110.87 110.333 1109.39 C 99.3848 1092.38 96.815 1055.4 113.359 1041.81 C 126.837 1039.67 215.142 1088.61 234.547 1094.13 C 244.588 1096.99 263.717 1079.29 271.9 1073.05 L 332.624 1026.38 C 341.993 1019.32 352.775 1010.39 362.994 1004.83 z"/>
<path transform="translate(0,0)" fill="rgb(243,243,242)" d="M 120.334 1048.71 C 133.878 1049.65 222.048 1102.13 240.6 1110.65 C 260.781 1119.91 257.723 1146.43 245.959 1164.48 C 232.901 1161.11 129.323 1109.24 115.181 1100.09 C 110.422 1083.58 106.965 1062.1 120.334 1048.71 z"/>
<path transform="translate(0,0)" fill="rgb(5,73,68)" d="M 798.145 932.739 C 802.287 932.611 805.171 932.114 808.884 933.719 C 812.325 941.247 819.654 969.381 822.029 978.766 C 825.764 969.58 833.109 935.323 840.623 932.487 C 845.81 934.859 856.376 970.963 859.14 978.866 C 863.71 963.422 866.161 948.685 871.415 932.723 C 874.968 932.703 877.415 932.343 880.628 933.814 C 881.916 936.663 880.344 940.909 879.548 944.23 C 874.952 960.963 870.725 978.01 866.197 994.825 L 853.719 997.376 C 849.561 983.315 845.301 969.284 840.939 955.285 C 836.429 967.741 831.969 983.721 827.999 996.602 L 816.05 996.399 C 810.195 977.085 802.733 952.145 798.145 932.739 z"/>
<path transform="translate(0,0)" fill="rgb(5,73,68)" d="M 1009 929.64 L 1009.44 930.114 C 1010.6 938.02 1010.28 985.858 1009.75 995.184 L 1008.54 996.085 C 1001.25 996.482 1001.09 997.367 998.352 991.184 C 985.831 991.795 990.022 1003.77 969.784 992.22 C 947.992 967.992 973.332 934.276 998.163 953.896 C 998.457 945.136 996.202 938.099 999.377 931.326 C 1003.18 928.747 1003.39 929.692 1009 929.64 z"/>
<path transform="translate(0,0)" fill="rgb(243,243,242)" d="M 984.393 957.938 C 1000.45 958.813 1003.79 978.229 987.804 987.113 C 969.696 985.67 968.345 963.984 984.393 957.938 z"/>
<path transform="translate(0,0)" fill="rgb(5,73,68)" d="M 680.102 948.403 C 688.809 946.591 697.818 949.605 703.682 956.292 C 709.546 962.978 711.359 972.303 708.427 980.7 C 705.495 989.096 698.272 995.266 689.52 996.849 C 676.232 999.252 663.48 990.529 660.903 977.274 C 658.326 964.018 666.881 951.153 680.102 948.403 z"/>
<path transform="translate(0,0)" fill="rgb(243,243,242)" d="M 683.071 958.035 C 689.24 958.462 693.693 959.916 696.66 965.807 C 698.431 969.282 698.671 973.338 697.321 976.996 C 695.358 982.483 692.882 983.88 687.859 986.121 C 669.842 985.908 666.134 966.21 683.071 958.035 z"/>
<path transform="translate(0,0)" fill="rgb(5,73,68)" d="M 453.1 934.631 L 466.054 934.957 L 466.063 967.941 C 472.437 959.003 487.591 942.488 495.629 935.081 C 499.566 934.775 504.758 934.954 508.801 934.974 L 484.143 962.828 L 496.756 977.954 L 511.035 996.069 L 494.689 996.175 C 488.977 987.805 483.184 979.491 477.312 971.233 L 466.732 980.811 C 466.28 985.815 466.032 991.184 465.708 996.233 L 453.08 996.336 C 453.218 975.768 453.224 955.199 453.1 934.631 z"/>
<path transform="translate(0,0)" fill="rgb(5,73,68)" d="M 902.779 948.329 C 932.856 949.167 926.551 972.874 926.63 995.759 C 922.326 995.951 919.536 995.994 915.243 995.737 L 914.815 993.891 L 914.405 992.027 C 903.297 991.83 903.039 1005.1 886.609 989.897 C 875.348 963.201 906.751 971.5 913.784 965.177 C 909.713 950.026 896.631 962.629 891.692 962.355 C 889.594 959.541 887.475 956.743 885.335 953.961 C 893.449 950.33 894.01 949.443 902.779 948.329 z"/>
<path transform="translate(0,0)" fill="rgb(243,243,242)" d="M 898.297 976.189 C 903.48 975.968 911.514 974.202 914.387 978.72 C 913.971 982.438 912.939 983.534 910.973 986.681 C 904.809 988.457 899.991 989.208 896.293 982.99 C 896.368 978.301 895.845 980.515 898.297 976.189 z"/>
<path transform="translate(0,0)" fill="rgb(5,73,68)" d="M 533.071 948.257 C 551.603 948.73 555.795 960.71 555.461 977.454 C 555.328 984.118 556.957 994.241 550.612 997.784 C 547.168 997.522 543.949 994.795 543.867 994.789 C 530.27 993.786 528.237 1003.37 515.608 990.756 C 506.257 964.518 532.514 972.02 542.473 966.614 L 542.929 964.641 C 533.41 949.097 525.967 967.2 515.815 960.691 C 513.364 951.662 527.308 949.298 533.071 948.257 z"/>
<path transform="translate(0,0)" fill="rgb(243,243,242)" d="M 528.89 976.23 C 534.222 975.936 542.803 974.121 543.286 981.178 C 541.798 984.857 541.167 985.16 538.215 988.013 C 532.126 988.447 526.976 988.323 524.903 981.599 C 525.976 978.165 525.982 978.436 528.89 976.23 z"/>
<path transform="translate(0,0)" fill="rgb(5,73,68)" d="M 1132.48 928.342 C 1134.09 928.389 1133.29 928.126 1134.72 929.536 C 1135.52 936.198 1134.99 949.049 1134.91 956.195 C 1135.43 955.642 1135.95 955.097 1136.49 954.562 C 1154.25 937.011 1173.09 957.24 1168.19 977.295 C 1167.71 979.276 1168.04 992.766 1168.01 995.73 L 1156.52 995.669 L 1156.54 971.2 C 1156.23 966.755 1155.94 964.772 1153.24 961.448 C 1131.51 948.941 1135.03 984.583 1135.21 995.553 L 1123.5 995.764 C 1123.45 981.692 1122.51 941.434 1124.07 930.168 C 1126.5 928.456 1129.16 928.701 1132.48 928.342 z"/>
<path transform="translate(0,0)" fill="rgb(5,73,68)" d="M 592.311 948.13 C 619.281 950.22 613.262 976.036 613.048 996.579 L 600.988 996.584 C 600.767 982.029 607.558 954.795 584.493 961.584 C 574.579 973.079 584.281 995.781 573.274 998.599 C 570.719 997.69 570.9 997.459 568.662 995.641 C 567.794 992.563 567.709 984.156 568.043 980.717 C 568.972 971.186 562.645 953.64 572.616 948.448 C 576.805 948.579 575.375 947.782 578.257 949.686 L 578.789 954.428 C 582.136 955.641 584.337 950.312 592.311 948.13 z"/>
<path transform="translate(0,0)" fill="rgb(5,73,68)" d="M 747.71 948.228 C 765.897 949.105 767.559 961.393 768.072 977.528 C 768.223 982.264 768.668 992.635 765.483 995.963 C 762.097 996.275 761.489 996.54 758.138 995.757 C 749.801 987.115 766.593 951.435 738.058 960.758 C 727.992 971.48 735.459 979.86 732.363 992.532 C 731.38 996.556 724.787 997.293 721.525 994.956 C 720.368 986.346 720.928 958.918 720.903 948.904 C 724.468 948.821 729.542 948.31 732.69 949.555 C 732.183 952.566 731.788 952.03 732.623 954.498 C 738.038 951.346 741.311 949.028 747.71 948.228 z"/>
<path transform="translate(0,0)" fill="rgb(5,73,68)" d="M 1089.07 949.232 C 1090.71 949.024 1092.37 948.876 1094.03 948.791 C 1105.14 948.268 1109.23 950.99 1116.94 958.205 C 1100 968.582 1099.74 953.678 1089.22 960.651 C 1086.31 962.581 1084.32 965.613 1083.7 969.044 C 1082.88 973.407 1083.99 977.914 1086.75 981.392 C 1092.8 989.05 1100.63 985.838 1106.57 980.234 L 1116.66 986.605 C 1109.04 993.74 1100.25 998.467 1089.52 995.761 C 1083.06 994.138 1077.58 989.888 1074.4 984.039 C 1071.14 978.06 1070.58 970.981 1072.84 964.56 C 1075.85 956.165 1081.43 952.64 1089.07 949.232 z"/>
<path transform="translate(0,0)" fill="rgb(5,73,68)" d="M 631.626 939.405 C 634.334 939.238 635.924 938.913 638.497 939.822 C 640.775 942.977 640.012 942.326 640.038 947.112 C 641.921 949.25 649.715 949.538 654.205 950.735 C 655.989 954.08 655.612 955.445 653.598 958.231 C 649.936 959.859 644.022 959.169 639.778 959.034 C 639.613 967.475 638.06 978.684 643.854 984.808 C 649.31 987.996 651.511 983.872 655.906 986.831 L 656.894 992.003 C 651.438 996.905 646.795 997.773 639.684 996.325 C 620.476 992.411 631.577 968.142 626.965 959.966 C 624.286 959.482 624.209 959.57 621.816 958.357 C 619.851 951.722 625.783 948.225 628.529 940.53 L 631.626 939.405 z"/>
<path transform="translate(0,0)" fill="rgb(5,73,68)" d="M 1192.46 937.341 C 1194.28 937.372 1193.44 937.064 1194.89 938.453 C 1194.81 942.1 1194.89 944.449 1195.14 948.091 C 1199.56 950.82 1202.1 947.439 1206.17 949.958 C 1207.12 953.619 1206.84 953.803 1206.12 957.424 C 1203.45 960.495 1199.78 959.733 1194.56 960.24 C 1194.18 967.21 1192.2 978.801 1197.58 984.158 C 1201.21 987.766 1204.57 984.065 1208.54 987.363 C 1209.28 990.894 1209.06 991.282 1208.69 994.794 C 1176.35 1004.83 1186.14 978.868 1182.07 960.806 C 1182.11 960.989 1178.22 959.689 1176.41 956.679 C 1176.54 953.819 1176.28 952.788 1177.72 950.356 C 1180.49 950.184 1181.05 950.503 1183.22 948.952 C 1185.54 943.925 1183.69 944.155 1183.94 939.202 C 1187.52 936.807 1187.4 937.61 1192.46 937.341 z"/>
<path transform="translate(0,0)" fill="rgb(5,73,68)" d="M 939.228 929.128 L 950.902 929.526 L 950.762 996.016 C 946.727 996.178 942.292 996.899 939.43 994.334 C 938.04 981.995 939.118 943.361 939.228 929.128 z"/>
<path transform="translate(0,0)" fill="rgb(5,73,68)" d="M 1023.84 929.769 C 1028.04 929.542 1030.01 929.139 1033.98 930.27 C 1036.43 934.272 1035.24 987.311 1035.2 996.095 C 1030.71 996.303 1029.76 996.427 1025.43 995.637 C 1022.58 992.334 1023.81 938.314 1023.84 929.769 z"/>
<path transform="translate(0,0)" fill="rgb(5,73,68)" d="M 1049.4 948.482 L 1061.18 948.594 C 1061.15 963.495 1061.57 981.977 1060.6 996.571 C 1056.97 996.605 1053 996.358 1049.33 996.212 L 1049.4 948.482 z"/>
<path transform="translate(0,0)" fill="rgb(5,73,68)" d="M 52.6035 1101.3 C 61.0462 1101.22 90.6051 1100.35 97.5956 1101.74 C 99.7982 1104.72 99.1937 1105.7 99.7198 1110.01 L 98.0444 1111.15 C 85.8717 1111.22 73.5201 1111.42 61.3544 1111.02 C 56.389 1110.85 52.3524 1110.83 49.7128 1106.45 C 50.3073 1102.57 49.5196 1104.3 52.6035 1101.3 z"/>
<path transform="translate(0,0)" fill="rgb(3,7,5)" d="M 771.181 1036.63 C 785.51 1036.42 800.108 1039.49 789.962 1057.58 C 785.68 1059.91 784.678 1059.97 779.857 1060.42 L 771.194 1061.24 L 771.181 1036.63 z"/>
<path transform="translate(0,0)" fill="rgb(243,243,242)" d="M 774.956 1039.87 C 786.956 1039.6 792.217 1042.36 788.041 1054.99 C 783.715 1057.07 779.674 1058.92 775.839 1055.5 C 774.023 1050.88 774.779 1045.03 774.956 1039.87 z"/>
<path transform="translate(0,0)" fill="rgb(3,7,5)" d="M 975.201 1036.22 C 990.193 1036.29 1003.43 1038.89 993.633 1057.35 C 987.739 1061.14 982.137 1060.23 975.046 1060.19 L 975.201 1036.22 z"/>
<path transform="translate(0,0)" fill="rgb(243,243,242)" d="M 978.869 1039.03 C 991.228 1039.35 996.177 1042.14 991.394 1055.18 C 987.043 1057.18 983.579 1058.76 979.712 1055.49 C 977.919 1050.82 978.699 1044.28 978.869 1039.03 z"/>
<path transform="translate(0,0)" fill="rgb(6,27,22)" d="M 707.008 1036.17 C 711.928 1036.05 721.173 1035.37 724.075 1039.47 C 722.139 1050.54 726.777 1048.05 726.253 1057.42 C 719.915 1061.04 714.324 1060.12 706.925 1060.07 L 707.008 1036.17 z"/>
<path transform="translate(0,0)" fill="rgb(243,243,242)" d="M 715.553 1048.8 C 719.571 1049.32 720.46 1049.45 722.65 1052.65 C 721.735 1056.05 722.568 1054.48 719.341 1057.07 C 717.376 1056.97 715.412 1056.84 713.451 1056.68 C 710.545 1054.42 711.409 1055.81 710.327 1052.7 C 712.465 1049.12 710.991 1050.61 715.553 1048.8 z"/>
<path transform="translate(0,0)" fill="rgb(243,243,242)" d="M 710.811 1039.38 C 714.556 1039.3 715.676 1039.11 719.371 1040.13 C 721.83 1043.03 720.875 1041.33 721.245 1045.98 C 717.595 1046.38 715.813 1046.8 712.165 1046.07 C 710.105 1043.17 710.799 1043.76 710.811 1039.38 z"/>
<path transform="translate(0,0)" fill="rgb(3,7,5)" d="M 655.837 1035.78 C 662.564 1035.63 673.77 1034.74 674.173 1043.79 C 672.633 1047.73 671.739 1047.92 668.035 1050.44 C 670.143 1052.99 673.426 1056.28 673.941 1059.3 L 671.844 1060.62 C 668.591 1056.33 666.893 1054.28 663.108 1050.47 L 661.032 1051.72 L 661.4 1050.08 C 660.063 1054.54 659.961 1055.45 657.493 1059.26 L 656.393 1058.13 C 655.34 1051.55 655.755 1042.67 655.837 1035.78 z"/>
<path transform="translate(0,0)" fill="rgb(243,243,242)" d="M 658.868 1038.9 C 663.167 1038.82 664.619 1038.49 668.529 1039.95 C 671.009 1043.08 670.259 1041.89 670.681 1046.44 C 667.179 1047.15 663.302 1048.43 660.338 1046.89 C 658.294 1043.43 659.002 1043.55 658.868 1038.9 z"/>
<path transform="translate(0,0)" fill="rgb(6,27,22)" d="M 461.259 1034.28 C 466.002 1036.22 473.187 1053.9 474.779 1059.09 L 473.993 1060.03 C 468.797 1058.52 472.533 1056.63 466.249 1055.01 L 459.508 1055.08 C 456.329 1057.02 455.248 1057.99 451.525 1058.58 L 450.682 1057.4 C 454.159 1049.01 457.194 1042.4 461.259 1034.28 z"/>
<path transform="translate(0,0)" fill="rgb(6,27,22)" d="M 492.909 1043.17 C 492.987 1047.18 493.421 1057.55 491.169 1060.34 C 488.965 1055.49 486.44 1038.35 491.181 1034.91 C 495.351 1036.89 501.025 1049.9 503.456 1054.74 C 506.457 1049.68 513.07 1036.56 517.942 1035.29 L 519.355 1036.21 L 519.789 1038.66 L 516.197 1040.25 C 516.085 1040.82 515.973 1041.4 515.862 1041.97 C 512.96 1044.95 506.151 1057.1 503.575 1061.4 C 499.894 1055.4 496.338 1049.32 492.909 1043.17 z"/>
<path transform="translate(0,0)" fill="rgb(6,27,22)" d="M 861.93 1035.98 C 866.119 1035.89 870.863 1036.27 873.65 1039.65 C 870.843 1043.75 863.325 1037.32 855.459 1043.77 C 851.91 1054.55 866.71 1063.64 871.504 1052.92 L 870.561 1050.87 L 867.085 1049.77 L 865.624 1049.56 L 865.573 1048.19 C 868.968 1046.49 872.15 1045.87 875.437 1047.75 C 877.508 1054.79 870.869 1063.03 863.324 1061.07 C 849.094 1057.36 848.98 1042.54 861.93 1035.98 z"/>
<path transform="translate(0,0)" fill="rgb(3,7,5)" d="M 821.392 1035.41 C 826.236 1038.94 834.189 1048.87 838.355 1053.86 C 838.245 1048.9 837.66 1042.28 839.645 1037.9 C 842.954 1042.65 841.756 1054.57 841.536 1060.56 C 838.475 1060.16 828.167 1046.75 824.416 1042.78 C 824.473 1047.39 824.465 1051 824.149 1055.59 L 824.05 1054.92 L 822.548 1058.26 L 823.517 1058.18 L 823.239 1058.8 L 822.317 1058.43 C 820.11 1049.23 820.89 1044.76 821.392 1035.41 z"/>
<path transform="translate(0,0)" fill="rgb(3,7,5)" d="M 1209.01 1035.62 C 1212.46 1039.7 1210.85 1056.32 1210.66 1062.76 C 1204.89 1055.9 1200.35 1050.03 1195.04 1042.79 C 1195.05 1049.06 1194.86 1054.7 1194.57 1060.97 L 1193.49 1060.63 C 1190.57 1056.97 1191.84 1039.66 1191.94 1033.89 C 1197.06 1040.61 1202.3 1047.24 1207.67 1053.76 C 1207.73 1047.94 1207.35 1041.04 1209.01 1035.62 z"/>
<path transform="translate(0,0)" fill="rgb(3,7,5)" d="M 943.108 1035.69 C 947.348 1037.7 956.426 1050.41 959.842 1054.86 C 959.878 1049.2 959.419 1043.81 961.128 1038.52 L 962.009 1039.32 C 963.687 1046 963.158 1052.86 963.037 1059.78 C 957.927 1059.44 949.584 1046.74 945.956 1042.14 C 946.049 1047.7 946.416 1052.07 944.971 1057.5 L 943.974 1057.68 C 941.834 1049.48 942.649 1044.1 943.108 1035.69 z"/>
<path transform="translate(0,0)" fill="rgb(3,7,5)" d="M 623.687 1035.22 C 631.136 1039.3 623.263 1048.59 629.315 1055.84 C 632.386 1057.21 632.182 1057.08 635.547 1056.6 C 640.305 1051.66 638.428 1043.09 640.171 1036.72 L 641.994 1036.28 L 643.041 1037.95 C 643.307 1046.67 644.658 1059.18 633.143 1061.38 C 620.986 1059.37 622.871 1044.01 623.687 1035.22 z"/>
<path transform="translate(0,0)" fill="rgb(3,7,5)" d="M 911.765 1035.49 C 917.363 1039.92 910.821 1050 917.536 1056.31 C 920.549 1057.27 920.37 1057.42 923.382 1056.63 C 928.451 1051.22 926.196 1043.76 928.169 1036.88 L 929.749 1036.42 L 930.962 1038.05 C 931.053 1041.03 931.248 1045.28 931.09 1048.18 C 930.912 1051.91 929.2 1055.39 926.361 1057.8 C 924.525 1059.35 921.716 1060.51 919.371 1059.93 C 908.241 1057.16 910.181 1043.24 911.765 1035.49 z"/>
<path transform="translate(0,0)" fill="rgb(3,7,5)" d="M 1098.16 1035.67 L 1099.34 1036.66 C 1101.02 1040.35 1100.79 1055.82 1099.84 1059.94 L 1098.58 1060.59 C 1096.53 1058.66 1097.2 1054.51 1096.87 1050.56 C 1093.89 1048.99 1089.27 1049.07 1086.16 1049.99 C 1084.28 1052.78 1084.88 1056.89 1084.95 1060.47 C 1083.41 1060.63 1084.31 1060.7 1082.35 1059.73 C 1081.7 1053.45 1082.05 1044.25 1082.71 1037.91 C 1086.37 1044.72 1087.4 1047.45 1095.69 1046.65 L 1096.95 1045.11 C 1097.04 1042.22 1097.06 1040.36 1097.72 1037.51 L 1098.16 1035.67 z"/>
<path transform="translate(0,0)" fill="rgb(3,7,5)" d="M 1031.42 1035.92 C 1035.04 1036.13 1039.62 1035.72 1041.03 1039.64 C 1036.53 1039.6 1032.12 1038.43 1029.97 1042.54 C 1032.53 1048.18 1044.31 1046.97 1043.07 1055.4 C 1040.35 1058.8 1039.8 1058.9 1035.87 1061.06 C 1031.34 1060.14 1029.92 1060.27 1026.63 1057.34 L 1026.94 1056.38 C 1031.14 1056.52 1037.62 1057.82 1039.79 1054.01 C 1037.12 1048.35 1027.59 1050.3 1026.59 1042.12 C 1027.96 1038.55 1028.55 1038.32 1031.42 1035.92 z"/>
<path transform="translate(0,0)" fill="rgb(3,7,5)" d="M 1113.04 1035.63 C 1118.12 1039.97 1111.71 1050.67 1118.21 1056.74 C 1121.88 1057.62 1120.19 1057.75 1123.5 1056.83 C 1128.88 1051.05 1127.39 1045.12 1128.87 1037.43 L 1130.26 1037.07 L 1130.96 1038.86 C 1131.15 1045.02 1132.08 1062.18 1119.52 1059.97 C 1109.93 1058.28 1111.2 1043.14 1113.04 1035.63 z"/>
<path transform="translate(0,0)" fill="rgb(3,7,5)" d="M 595.804 1035.02 C 599.081 1034.97 609.787 1034.75 612.321 1036.13 C 608.046 1037.36 603.804 1038.7 599.599 1040.15 C 598.573 1043.01 598.971 1042.16 599.331 1045.57 C 602.116 1047.79 606.352 1046.97 610.738 1047.04 L 610.67 1049.33 C 607.631 1051.19 604.977 1049.63 601.919 1049.88 C 597.408 1050.26 601.126 1055.58 597.56 1059.8 L 596.319 1059.06 C 595.161 1052.84 595.709 1041.72 595.804 1035.02 z"/>
<path transform="translate(0,0)" fill="rgb(5,73,68)" d="M 1052 928.809 C 1057.85 928.736 1061.06 929.678 1063.18 935.428 C 1062.86 939.226 1062.19 939.562 1059.65 942.361 C 1053.72 942.471 1049.84 942.657 1048.16 936.16 C 1048.92 932.187 1049.29 932.017 1052 928.809 z"/>
<path transform="translate(0,0)" fill="rgb(3,7,5)" d="M 1061.05 1035.94 C 1065.81 1036.47 1066.25 1036.39 1070.46 1038.44 L 1070.75 1040.14 C 1064.91 1041.94 1053.34 1033.64 1055.02 1050.59 C 1055.3 1053.33 1057.36 1054.79 1059.42 1056.28 C 1063.5 1057.39 1064.49 1056.91 1068.81 1056.16 L 1069.95 1055.07 L 1071.25 1055.48 C 1065.79 1071.82 1035.45 1047.35 1061.05 1035.94 z"/>
<path transform="translate(0,0)" fill="rgb(3,7,5)" d="M 534.658 1036.41 C 539.516 1036.01 548.86 1035.4 553.365 1036.51 L 554.127 1038.11 L 553.085 1039.42 C 551.143 1039.52 549.915 1039.65 547.988 1039.92 C 546.521 1043.3 547.188 1050.1 547.251 1054.25 C 547.233 1056.16 547.032 1057.39 546.806 1059.29 L 545.551 1060 C 543.444 1056.86 543.397 1046.41 543.481 1042.32 L 543.517 1041.01 L 542.062 1039.54 C 537.724 1039.53 536.473 1040.12 534.658 1036.41 z"/>
<path transform="translate(0,0)" fill="rgb(3,7,5)" d="M 1166.27 1037.05 C 1168.88 1041.21 1168.54 1041.75 1168.31 1046.79 C 1172.68 1046.81 1175.14 1047.04 1179.48 1047.6 C 1175.54 1048.92 1172.08 1049.73 1168.8 1052.22 L 1168.67 1054.04 C 1171.05 1057.47 1176.85 1058.13 1181.04 1059.08 C 1174.83 1060.84 1172.03 1060.63 1165.72 1060.67 C 1165.68 1052.72 1165.52 1044.98 1166.27 1037.05 z"/>
<path transform="translate(0,0)" fill="rgb(3,7,5)" d="M 750.965 1036.41 L 753.241 1038.42 C 754.306 1044.04 753.845 1050.97 753.741 1056.81 C 758.314 1056.74 762.097 1055.59 764.498 1059.57 C 760.372 1060.05 754.46 1059.99 750.175 1060.07 C 750.157 1053.27 749.68 1042.78 750.965 1036.41 z"/>
<path transform="translate(0,0)" fill="rgb(3,7,5)" d="M 1144.29 1035.81 C 1147.09 1039.47 1146.1 1052.34 1146.04 1057.76 C 1150.61 1057.7 1154.64 1056.66 1157.17 1060.54 L 1142.91 1060.73 C 1142.86 1054.55 1142.12 1040.94 1144.29 1035.81 z"/>
<path transform="translate(0,0)" fill="rgb(3,7,5)" d="M 807.115 1035.56 L 808.812 1037.15 C 810.054 1042.37 810.296 1049.64 808.703 1054.76 C 807.131 1059.81 806.014 1059.58 801.841 1061.84 C 799.896 1059.03 800.034 1060.39 800.215 1057.71 C 809.97 1055.25 804.953 1045.21 807.115 1035.56 z"/>
<path transform="translate(0,0)" fill="rgb(3,7,5)" d="M 736.782 1036.39 C 737.429 1036.86 738.36 1037.95 738.953 1038.58 C 739.962 1046.05 739.821 1053.64 738.535 1061.07 C 737.4 1060.06 737.232 1059.65 736.324 1058.42 C 735.482 1051.55 735.556 1043.19 736.782 1036.39 z"/>
<path transform="translate(0,0)" fill="rgb(6,27,22)" d="M 515.862 1041.97 C 515.973 1041.4 516.085 1040.82 516.197 1040.25 L 519.789 1038.66 C 519.752 1046.49 520.247 1052.72 517.784 1060.18 L 516.834 1058.67 L 518.108 1058.64 L 518.189 1058.1 L 516.541 1057.17 C 515.556 1051.03 515.719 1048.07 515.862 1041.97 z"/>
<path transform="translate(0,0)" fill="rgb(11,67,67)" d="M 1166.27 1037.05 C 1169.39 1035.65 1178.21 1035.74 1181.27 1037.42 L 1180.82 1038.81 C 1175.07 1040.89 1172.86 1038.11 1169.39 1040.56 L 1168.31 1046.79 C 1168.54 1041.75 1168.88 1041.21 1166.27 1037.05 z"/>
</svg>