<svg version="1.1" xmlns="http://www.w3.org/2000/svg" style="display: block;" viewBox="0 0 2048 2048" width="1024" height="1024" preserveAspectRatio="none">
<defs>
	<linearGradient id="Gradient1" gradientUnits="userSpaceOnUse" x1="472.148" y1="925.068" x2="-13.2038" y2="1181.47">
		<stop class="stop0" offset="0" stop-opacity="1" stop-color="rgb(15,13,14)"/>
		<stop class="stop1" offset="1" stop-opacity="1" stop-color="rgb(69,69,69)"/>
	</linearGradient>
</defs>
<path transform="translate(0,0)" fill="rgb(248,247,247)" d="M 0 0 L 2048 0 L 2048 2048 L 0 2048 L 0 0 z"/>
<path transform="translate(0,0)" fill="url(#Gradient1)" d="M 212.535 795.026 C 193.928 779.575 177.815 768.176 174.347 741.721 C 167.987 693.211 242.977 666.518 274.855 694.692 C 280.504 699.78 283.761 707.005 283.834 714.608 C 284.013 725.474 280.723 734.06 282.603 745.411 C 285.893 765.276 301.232 773.755 291.85 794.874 C 289.161 800.928 290.073 809.097 281.494 809.227 C 273.824 809.343 263.191 802.924 256.752 807.037 C 254.887 809.961 254.22 813.379 255.644 816.652 C 262.885 819.833 275.187 821.093 283.941 824.016 C 299.578 840.608 317.987 899.107 326.12 922.966 C 359.852 893.46 388.529 862.548 436.686 864.872 C 439.413 865.003 440.431 865.403 442.855 866.545 C 447.591 873.28 441.785 891.285 434.936 895.648 C 425.865 901.259 414.979 898.039 405.353 902.769 C 399.271 905.757 397.516 910.812 393.115 915.202 C 371.029 937.231 345.716 956.602 321.966 976.843 C 317.327 980.796 312.547 984.842 307.791 988.329 C 298.76 975.04 287.898 951.544 281.347 936.475 C 283.718 959.815 286.997 980.478 290.54 1003.59 C 294.808 1031.44 292.862 1064.52 293.619 1093.15 C 295.524 1166.06 296.664 1238.98 297.04 1311.92 C 315.756 1329.06 352.949 1323.79 379.987 1348.35 C 380.029 1349.52 379.76 1349.84 379.38 1351.04 C 375.83 1352.51 344.646 1353.17 339.304 1353.09 C 307.812 1352.65 132.645 1359.8 114.323 1348.31 L 114.512 1346.48 C 117.769 1342.9 118.18 1342.81 122.546 1340.48 C 139.745 1330.49 142.847 1329.64 135.886 1308.06 C 149.929 1310.73 161.662 1312.78 175.986 1313.11 L 176.18 1297.67 C 139.553 1287.49 102.75 1278.32 66.6638 1266.09 C 54.7649 1262.06 31.1736 1257.58 21.6578 1251.03 C 17.7623 1243.65 30.2486 1202.47 33.8472 1193.32 C 43.0831 1198.23 92.0007 1212.96 100.422 1208.87 C 99.3843 1206.38 100.012 1206.93 96.7002 1205.67 C 79.6514 1199.19 49.8821 1194.61 34.4231 1186.78 C 37.954 1173.15 42.1617 1154.65 46.312 1141.46 L 54.7754 1139.03 C 57.2818 1132.42 58.5164 1126.53 65.1898 1123.29 C 73.5399 1119.23 92.6555 1125.19 102.385 1127.4 C 106.353 1113.6 113.013 1107.44 124.973 1100.03 C 117.933 1078.75 118.892 1075.99 125.182 1054.79 C 124.327 1052.09 123.426 1049.28 123.227 1046.44 C 120.975 1014.31 147.94 875.236 163.351 845.871 C 176.503 820.812 199.792 825.397 216.264 809.076 C 215.101 804.871 213.342 799.185 212.535 795.026 z"/>
<path transform="translate(0,0)" fill="rgb(48,167,96)" d="M 348.265 1337.12 C 358.086 1340.51 362.724 1342.36 371.003 1348.73 C 376.5 1350.88 374.386 1350.78 379.987 1348.35 C 380.029 1349.52 379.76 1349.84 379.38 1351.04 C 375.83 1352.51 344.646 1353.17 339.304 1353.09 C 307.812 1352.65 132.645 1359.8 114.323 1348.31 L 114.512 1346.48 C 117.769 1342.9 118.18 1342.81 122.546 1340.48 C 122.714 1341.87 122.833 1343.22 122.918 1344.62 L 123.668 1345.55 C 126.09 1343.06 131.293 1341.65 134.758 1340.39 C 152.221 1342.86 170.359 1340.53 188.34 1341.04 C 201.089 1341.67 214.253 1339.46 227.091 1339.16 C 241.709 1338.83 253.962 1342.84 267.951 1337.86 C 285.425 1337.82 333.729 1339.19 348.265 1337.12 z"/>
<path transform="translate(0,0)" fill="rgb(14,14,14)" d="M 379.987 1348.35 C 380.029 1349.52 379.76 1349.84 379.38 1351.04 C 375.83 1352.51 344.646 1353.17 339.304 1353.09 C 307.812 1352.65 132.645 1359.8 114.323 1348.31 L 114.512 1346.48 C 117.769 1342.9 118.18 1342.81 122.546 1340.48 C 122.714 1341.87 122.833 1343.22 122.918 1344.62 L 123.668 1345.55 C 130.08 1347.18 138.525 1349.41 145.131 1349.54 C 214.205 1350.93 283.443 1352.35 352.497 1349.27 C 358.64 1349 364.85 1348.78 371.003 1348.73 C 376.5 1350.88 374.386 1350.78 379.987 1348.35 z"/>
<path transform="translate(0,0)" fill="rgb(49,120,78)" d="M 271.873 1321.58 C 274.967 1321.07 287.855 1318.83 289.882 1319.4 C 305.931 1323.9 333.431 1331.64 348.265 1337.12 C 333.729 1339.19 285.425 1337.82 267.951 1337.86 C 272.191 1331.98 271.733 1328.72 271.873 1321.58 z"/>
<path transform="translate(0,0)" fill="rgb(49,120,78)" d="M 146.294 1317.12 C 156.007 1318.32 172.395 1321.05 181.481 1321.55 C 183.258 1330.28 183.474 1333.53 188.34 1341.04 C 170.359 1340.53 152.221 1342.86 134.758 1340.39 C 144.462 1336.67 144.928 1326.11 146.294 1317.12 z"/>
<path transform="translate(0,0)" fill="rgb(80,80,80)" d="M 209.539 820.002 C 210.564 821.021 213.14 833.568 214.244 836.674 C 221.022 855.754 231.1 871.482 245.909 885.122 C 254.2 862.464 255.232 847.8 255.995 823.542 C 265.491 824.286 273.496 826.093 282.582 828.706 C 279.42 867.123 271.717 905.878 275.3 945.39 C 277.188 963.606 280.943 982.101 283.283 1000.24 C 284.189 1007.26 289.804 1028.98 282.937 1032.46 C 250.452 1048.9 197.707 1049.84 161.99 1046.15 C 162.651 1018.53 170.192 980.973 175.928 954.197 C 178.796 941.559 181.956 928.989 185.405 916.498 C 187.37 909.376 197.138 879.727 196.881 874.697 L 195.456 873.601 L 193.239 874.888 C 190.423 879.472 182.38 904.898 180.65 911.092 C 172.345 940.83 164.701 971.322 160.353 1001.92 C 157.701 1020.58 156.897 1039.32 154.197 1057.88 C 147.168 1057.91 138.797 1057 131.667 1056.4 C 124.534 1020.48 152.745 893.683 165.836 856.662 C 173.874 833.93 189.685 829.004 209.539 820.002 z"/>
<path transform="translate(0,0)" fill="rgb(248,247,247)" d="M 283.424 1039.93 C 284.461 1040.13 283.849 1039.91 285.046 1041.02 C 285.605 1055.44 285.585 1069.9 285.676 1084.33 C 286.144 1158.67 288.762 1233.27 288.899 1307.58 C 282.42 1309.53 276.221 1310.05 269.514 1310.87 C 268.941 1303.67 266.988 1294.21 265.697 1286.91 C 258.639 1241.56 248.291 1194.88 241.501 1149.29 C 240.325 1141.4 233.758 1117.51 234.261 1112.77 C 236.182 1094.63 244.325 1068.21 249.223 1050.49 C 263.122 1047.32 270.478 1045.66 283.424 1039.93 z"/>
<path transform="translate(0,0)" fill="rgb(248,247,247)" d="M 229.652 1134.82 C 231.752 1137.96 247.525 1231.68 249.389 1241.86 C 253.379 1262.95 257.203 1284.07 260.859 1305.22 C 262.121 1312.25 267.122 1327.85 263.664 1333.27 C 255.921 1337.05 237.379 1332.54 224.669 1333.43 L 190.09 1335.91 C 185.062 1322.94 185.378 1312.86 186.953 1299.16 C 187.607 1293.47 192.892 1289.94 194.022 1286.19 C 197.687 1273.99 200.888 1261.08 204.482 1248.88 C 215.659 1210.96 221.584 1173.22 229.652 1134.82 z"/>
<path transform="translate(0,0)" fill="rgb(248,247,247)" d="M 235.684 1052.46 C 238.014 1052 237.981 1052.19 240.422 1052.33 C 240.612 1053.79 240.789 1053.64 240.342 1054.85 C 225.669 1094.54 221.766 1135.86 212.517 1176.95 C 203.821 1173.56 192.607 1170.42 183.536 1167.62 C 187.171 1160.32 189.842 1153.62 188.591 1145.46 C 173.896 1138.07 168.587 1126.58 153.953 1114.92 C 164.271 1104.71 158.867 1106.5 163.073 1093.99 C 176.961 1085.64 165.354 1074.35 158.326 1065.2 C 158.501 1061.91 159.373 1057.36 159.907 1054.02 C 190.049 1054.88 205.398 1055.2 235.684 1052.46 z"/>
<path transform="translate(0,0)" fill="rgb(80,80,80)" d="M 238.219 689.416 C 278.675 685.302 297.921 724.701 254.566 740.367 C 235.951 747.093 231.265 745.264 230.39 765.633 C 223.998 762.324 216.698 756.623 210.377 761.494 C 208.238 765.267 208.706 767.682 208.665 772.207 C 210.526 777.144 213.689 783.58 215.966 788.528 C 199.096 778.013 181.616 761.325 180.186 740.275 C 179.484 728.673 183.466 717.274 191.24 708.633 C 203.664 694.731 220.389 690.336 238.219 689.416 z"/>
<path transform="translate(0,0)" fill="rgb(80,80,80)" d="M 288.227 839.678 C 297.665 851.809 314.115 914.808 323.281 932.676 C 329.194 929.062 339.977 919.42 345.79 914.525 C 356.166 905.777 366.657 897.168 377.261 888.698 C 382.424 894.467 387.517 900.298 392.539 906.189 C 386.477 912.733 381.943 917.399 375.362 923.377 C 356.181 941.695 329.383 961.581 308.762 980.443 C 299.162 961.468 290.624 941.604 280.841 922.9 C 281.015 903.139 284.177 857.849 288.227 839.678 z"/>
<path transform="translate(0,0)" fill="rgb(248,247,247)" d="M 275.047 735.122 C 275.278 739.086 275.538 744.732 276.405 748.545 C 277.691 754.207 282.979 764.855 283.225 770.185 C 279.387 771.618 278.29 767.933 272.146 768.137 C 270.871 770.374 271.238 769.101 272.052 772.352 C 276.218 776.937 283.2 777.182 289.314 778.087 C 286.734 786.264 284.405 794.518 282.331 802.838 C 278.266 801.55 274.932 800.767 270.769 799.797 C 236.261 795.983 235.373 782.344 237.366 752.524 C 257.895 744.785 254.839 747.942 275.047 735.122 z"/>
<path transform="translate(0,0)" fill="rgb(248,247,247)" d="M 214.382 765.359 C 219.844 766.986 223.524 769.462 228.439 772.31 C 231.496 789.701 236.038 795.211 251.126 803.761 C 250.323 814.49 250.668 870.447 242.246 872.805 C 226.836 856.243 220.316 841.26 216.615 819.293 C 220.455 813.604 221.227 812.42 223.273 805.825 C 222.153 801.461 220.826 797.187 220.524 792.715 C 230.121 784.476 214.553 781.673 214.382 765.359 z"/>
<path transform="translate(0,0)" fill="rgb(248,247,247)" d="M 178.375 1166.68 L 179.666 1167.16 L 179.681 1167.99 C 175.966 1168.11 167.95 1165.23 163.385 1164.28 C 140.667 1159.55 118.797 1154.23 96.0963 1148.99 C 85.9851 1146.66 73.2362 1145.34 63.5071 1142.79 C 62.1271 1142.43 62.3331 1141.61 61.9597 1139.99 C 63.7565 1134.02 64.0011 1130.16 69.2147 1127.09 C 70.906 1126.99 87.2768 1130.6 88.6779 1131.26 C 90.3053 1135.94 86.3396 1135.58 87.6844 1141.25 L 90.3987 1141.9 C 97.411 1138.37 92.6665 1136.99 98.4445 1133.33 C 104.281 1132.59 107.392 1133.67 112.428 1136.61 L 113.237 1140.86 L 116.038 1141.26 C 117.272 1140.23 119.846 1138.02 121.4 1138.2 C 130.624 1139.29 150.695 1144.8 156.949 1151.21 C 157.805 1154.9 157.915 1153.15 156.748 1156.64 C 158.703 1159.63 157.433 1158.69 160.289 1160 C 167.758 1156.87 163.518 1150.18 160.215 1145.51 L 161.678 1146.16 C 168.816 1149.26 171.342 1149.36 179.098 1150.15 C 181.892 1155.07 178.141 1161.53 178.375 1166.68 z"/>
<path transform="translate(0,0)" fill="rgb(14,14,14)" d="M 178.375 1166.68 L 179.666 1167.16 L 179.681 1167.99 C 175.966 1168.11 167.95 1165.23 163.385 1164.28 C 140.667 1159.55 118.797 1154.23 96.0963 1148.99 C 85.9851 1146.66 73.2362 1145.34 63.5071 1142.79 C 62.1271 1142.43 62.3331 1141.61 61.9597 1139.99 C 63.7565 1134.02 64.0011 1130.16 69.2147 1127.09 C 70.906 1126.99 87.2768 1130.6 88.6779 1131.26 C 90.3053 1135.94 86.3396 1135.58 87.6844 1141.25 L 90.3987 1141.9 C 97.411 1138.37 92.6665 1136.99 98.4445 1133.33 C 104.281 1132.59 107.392 1133.67 112.428 1136.61 L 113.237 1140.86 L 116.038 1141.26 C 117.272 1140.23 119.846 1138.02 121.4 1138.2 C 130.624 1139.29 150.695 1144.8 156.949 1151.21 C 157.805 1154.9 157.915 1153.15 156.748 1156.64 C 155.991 1153.49 156.173 1151.82 152.957 1149.94 C 143.614 1144.47 130.029 1141.75 119.513 1139.11 C 118.843 1142.7 118.56 1146.15 116.534 1149.11 C 113.471 1149.74 114.983 1149.79 111.851 1148.74 C 107.587 1141.35 115.761 1137.78 106.366 1136.08 C 103.138 1135.5 101.55 1134.2 97.8894 1134.57 C 95.7313 1139.29 96.4693 1140.44 93.0459 1143.18 C 89.7337 1143.82 89.3884 1144.21 86.2741 1142.89 C 83.7688 1139.05 86.0918 1136.68 88.2328 1132.91 C 80.9021 1131.11 75.1926 1129.64 67.7308 1128.66 C 66.0074 1133.24 64.7219 1136.61 63.42 1141.37 C 89.8237 1145.73 114.931 1151.34 140.916 1157.73 C 153.33 1160.78 166.187 1162.69 178.375 1166.68 z"/>
<path transform="translate(0,0)" fill="rgb(248,247,247)" d="M 129.63 1064 C 136.82 1064.42 143.997 1065.04 151.152 1065.86 C 154.599 1071.57 158.184 1077.22 161.56 1082.96 L 161.211 1083.94 C 157.97 1083.67 155.681 1083.02 153.042 1084.7 C 151.356 1089.44 155.68 1091.89 154.496 1103.57 C 151.887 1104.75 136.395 1109.59 134.507 1109.03 C 131.469 1102.99 127.655 1082.03 127.422 1074.78 C 127.358 1072.79 129.033 1066.28 129.63 1064 z"/>
<path transform="translate(0,0)" fill="rgb(248,247,247)" d="M 423.011 873.422 C 426.562 872.942 434.296 873.096 438.171 873.062 C 437.482 875.694 436.679 878.295 435.764 880.858 C 429.899 897.106 417.006 888.692 398.687 897.598 L 397.349 898.261 C 396.257 898.929 396.151 898.701 394.658 898.817 C 389.735 895.192 387.087 891.438 383.225 886.728 C 400.084 876.125 403.192 874.938 423.011 873.422 z"/>
<path transform="translate(0,0)" fill="rgb(248,247,247)" d="M 106.996 1209.13 C 131.921 1207.32 133.359 1228.9 116.329 1240 C 97.5988 1244.31 89.7813 1220.68 106.996 1209.13 z"/>
<path transform="translate(0,0)" fill="rgb(248,247,247)" d="M 122.955 1111.58 C 124.136 1111.94 124.701 1112.41 125.725 1113.15 C 132.804 1118.22 137.1 1117.36 144.998 1115.81 C 150.116 1120.54 163.812 1132.01 165.38 1137.87 L 164.043 1138.68 L 158.5 1137.22 C 150.662 1135.95 141.597 1132.59 133.535 1131.36 C 125.227 1130.09 118.25 1129.78 109.755 1128.42 C 114.039 1120.22 116.135 1117.49 122.955 1111.58 z"/>
<path transform="translate(0,0)" fill="rgb(248,247,247)" d="M 131.466 1214.89 L 175.23 1226.51 C 183.101 1228.6 194.698 1231.15 201.749 1234.27 C 202.718 1237.21 201.663 1238.85 200.838 1242.44 C 195.815 1242.92 139.252 1225.4 132.948 1222.94 C 130.977 1219.96 131.659 1219.13 131.466 1214.89 z"/>
<path transform="translate(0,0)" fill="rgb(14,14,14)" d="M 582.613 737.8 C 582.83 732.651 583.652 724.192 582.26 719.667 C 570.472 708.137 588.155 699.362 595.092 706.187 C 597.17 714.068 592.426 716.279 591.162 722.714 C 590.627 725.441 590.689 734.408 590.676 737.565 C 606.772 744.514 627.823 769.658 605.018 780.012 C 604.954 792.095 605.01 804.179 605.187 816.261 C 640.571 827.935 666.746 863.195 674.63 898.899 C 676.006 905.131 676.182 921.077 678.177 924.764 L 684.311 925.537 C 687.929 929.283 686.697 949.75 686.74 956.671 C 692.178 956.605 700.969 955.817 705.308 958.563 C 706.386 961.817 706.36 960.254 705.654 963.406 C 694.819 972.511 705.094 975.074 698.936 984.507 C 696.473 986.002 695.672 985.96 692.876 986.403 L 691.955 986.542 C 687.867 994.42 693.047 1083.66 689.072 1102.66 L 708.189 1102.87 C 708.361 1111.79 708.393 1118.86 707.875 1127.75 C 692.854 1128.53 674.02 1128 658.665 1127.96 L 571.545 1127.73 C 575.542 1137.43 579.821 1147.02 584.376 1156.47 L 588.386 1166.88 C 595.051 1183.11 644.001 1290.19 644.109 1297.57 C 637.923 1306.39 562.803 1326.72 547.908 1334.24 C 507.847 1353.59 467.92 1380.04 422.391 1359.73 C 399.527 1350.61 390.758 1332.53 381.684 1310.86 C 367.65 1277.34 351.177 1243 338.384 1208.83 C 371.014 1199.45 393.714 1193.5 425.639 1179.61 C 464.851 1162.55 501.397 1142.18 541.094 1127.06 C 517.014 1127.34 492.932 1127.43 468.85 1127.35 C 468.488 1118.85 467.214 1111.57 470.627 1103.96 C 473.732 1101.75 472.516 1102.38 477.23 1102.71 C 481.303 1097.79 478.276 1008.53 478.85 995.456 C 479.278 985.721 473.234 987.595 470.42 979.13 C 468.826 974.336 467.968 962.083 471.311 958.267 C 475.101 956.332 479.504 956.955 483.947 957.021 C 484.13 948.515 481.233 933.843 486.835 927.496 C 488.752 925.324 494.741 925.624 497.8 925.568 C 498.382 877.667 518.44 832.563 566.5 815.918 C 566.392 804.237 566.199 792.556 565.922 780.877 C 547.294 766.572 565.972 744.182 582.613 737.8 z"/>
<path transform="translate(0,0)" fill="rgb(248,247,247)" d="M 561.199 1127.97 L 562.172 1128.3 C 565.9 1133.42 588.501 1188.24 592.651 1197.92 C 605.996 1229.02 622.786 1263.64 635.036 1294.83 C 590.064 1312.98 545.345 1322.05 502.736 1347.2 C 482.319 1359.25 451.465 1361.67 428.48 1353.15 C 398.851 1340.08 393.487 1316.92 381.505 1289.5 C 370.614 1264.55 359.851 1239.55 349.217 1214.49 C 379.753 1206.21 409.649 1195.72 438.672 1183.12 C 483.271 1163.41 514.314 1145.12 561.199 1127.97 z"/>
<path transform="translate(0,0)" fill="rgb(14,14,14)" d="M 502.213 1208.98 L 505.897 1209.14 C 516.451 1217.34 524.362 1267.05 530.603 1281.5 C 535.768 1293.46 514.004 1310.75 503.775 1302.12 C 481.534 1283.34 495.462 1271.32 518.111 1266.07 C 519.073 1260.37 510.8 1240.4 508.401 1233.92 C 500.968 1236.91 452.132 1257.52 449.898 1260.99 L 451.061 1265.26 C 455.342 1275.68 458.622 1286.98 463.011 1297.5 C 464.789 1301.76 469.376 1309.17 470.222 1312.73 C 471.327 1317.22 470.595 1321.97 468.189 1325.92 C 462.074 1336.03 451.03 1339.72 441.075 1332.49 C 436.749 1329.4 433.871 1324.69 433.107 1319.43 C 431.319 1306.35 442.29 1300.21 453.691 1299.21 L 455.06 1299.1 C 450.075 1281.4 442.28 1265.5 436.232 1248.29 C 431.333 1234.34 451.106 1230.81 460.794 1226.78 C 474.632 1220.92 488.439 1214.99 502.213 1208.98 z"/>
<path transform="translate(0,0)" fill="rgb(127,127,128)" d="M 501.963 1215.92 L 502.779 1216.3 C 505.259 1219.16 506.017 1223.26 507.106 1226.99 C 488.806 1234.49 465.888 1245.58 446.834 1253.91 C 443.714 1251.86 442.641 1246.87 441.499 1243.26 C 457.972 1234.4 484.257 1223.73 501.963 1215.92 z"/>
<path transform="translate(0,0)" fill="rgb(14,14,14)" d="M 541.047 1159.74 C 545.588 1161.62 566.209 1213.31 569.842 1221.33 C 584.171 1229.75 587.068 1247.56 571.837 1254.95 C 547.461 1266.78 530.636 1233.76 560.448 1221.32 C 555.699 1207.57 548.719 1191.97 542.997 1178.4 C 541.748 1175.46 540.43 1172.52 539.144 1169.59 C 510.703 1184.39 484.476 1202.41 456.889 1218.55 C 455.792 1218.5 454.695 1218.46 453.598 1218.41 C 453.527 1209.76 476.557 1197.59 483.78 1193.13 C 502.399 1181.65 521.531 1169.6 541.047 1159.74 z"/>
<path transform="translate(0,0)" fill="rgb(14,14,14)" d="M 446.536 1215.94 C 447.779 1216.16 449.28 1217.05 450.521 1217.65 C 452.729 1223.28 438.642 1227.13 434.378 1228.79 C 432.524 1229.1 433.524 1229.22 431.517 1227.82 C 430.307 1224.37 430.223 1225.98 431.371 1222.83 C 435.023 1219.63 441.594 1217.85 446.536 1215.94 z"/>
<path transform="translate(0,0)" fill="rgb(248,247,247)" d="M 585.985 822.428 C 614.806 822.064 637.457 842.829 652.064 865.942 C 663.463 883.978 667.565 903.912 669.199 924.91 L 591.5 925.082 L 506.553 925.292 C 506.311 909.284 506.917 894.459 513.281 879.591 C 527.196 847.078 549.743 824.357 585.985 822.428 z"/>
<path transform="translate(0,0)" fill="rgb(14,14,14)" d="M 581.17 857.009 C 609.17 855.705 616.476 896.87 589.026 909.757 C 561.257 911.375 553.086 870.306 581.17 857.009 z"/>
<path transform="translate(0,0)" fill="rgb(248,247,247)" d="M 582.802 863.977 C 601.326 866.247 603.652 891.787 586.85 902.753 C 568.634 900.653 566.17 874.204 582.802 863.977 z"/>
<path transform="translate(0,0)" fill="rgb(14,14,14)" d="M 626.347 873.859 C 641.112 878.225 643.546 897.775 633.512 907.347 C 618.561 903.275 616.403 884.642 626.347 873.859 z"/>
<path transform="translate(0,0)" fill="rgb(14,14,14)" d="M 542.391 874.437 C 556.173 878.995 550.266 898.022 543.732 906.354 C 540.203 906.206 540.182 906.418 537.151 904.345 C 531.018 895.605 534.121 881.078 542.391 874.437 z"/>
<path transform="translate(0,0)" fill="rgb(248,247,247)" d="M 495.667 933.474 L 678.061 933.069 C 678.194 939.931 678.619 948.314 677.789 954.974 L 676.083 956.117 C 615.048 955.744 554.012 955.688 492.976 955.95 C 492.94 950.166 492.342 939.548 493.57 934.395 L 495.667 933.474 z"/>
<path transform="translate(0,0)" fill="rgb(248,247,247)" d="M 478.031 964.981 C 548.538 963.805 622.19 964.576 692.846 964.871 L 692.794 976.995 L 551.868 977.097 C 534.723 977.096 494.106 978.256 478.896 976.571 C 477.558 973.492 478.003 968.518 478.031 964.981 z"/>
<path transform="translate(0,0)" fill="rgb(80,80,80)" d="M 508.745 986.234 L 525.469 986.145 C 525.045 1025.33 525.184 1064.24 524.26 1103.45 L 508.253 1103.77 L 508.745 986.234 z"/>
<path transform="translate(0,0)" fill="rgb(80,80,80)" d="M 598.556 986.557 C 603.543 986.529 608.878 986.689 613.891 986.759 C 614.381 1025.24 613.806 1064.4 614.041 1103.01 L 598.018 1103.03 L 598.556 986.557 z"/>
<path transform="translate(0,0)" fill="rgb(80,80,80)" d="M 643.561 986.062 L 658.075 985.96 L 659.172 1102.95 L 643.065 1103.01 C 642.978 1065.66 642.231 1023.03 643.561 986.062 z"/>
<path transform="translate(0,0)" fill="rgb(248,247,247)" d="M 476.369 1110.99 L 619.566 1111.1 C 642.776 1111.08 675.894 1110.05 698.293 1111.41 C 700.404 1114.03 699.701 1114.72 699.985 1118.9 L 549.858 1118.58 C 527.326 1118.49 500.466 1119.59 478.369 1118.43 C 476.214 1116.08 476.829 1114.95 476.369 1110.99 z"/>
<path transform="translate(0,0)" fill="rgb(80,80,80)" d="M 554.909 986.132 L 569.074 986.354 L 569.082 1103.8 L 554.722 1103.94 L 554.909 986.132 z"/>
<path transform="translate(0,0)" fill="rgb(248,247,247)" d="M 666.975 986.096 L 681.131 986.084 L 681.464 1102.11 L 666.938 1102.21 L 666.975 986.096 z"/>
<path transform="translate(0,0)" fill="rgb(248,247,247)" d="M 487.452 986.884 L 501.782 986.871 C 501.995 1025.43 501.828 1063.99 501.281 1102.54 L 487.494 1102.4 L 487.452 986.884 z"/>
<path transform="translate(0,0)" fill="rgb(248,247,247)" d="M 533.106 986.933 L 546.465 986.905 L 546.456 1102.76 L 533.114 1102.85 L 533.106 986.933 z"/>
<path transform="translate(0,0)" fill="rgb(248,247,247)" d="M 577.085 986.893 L 590.48 986.937 C 590.892 1024.88 590.394 1063.95 590.443 1102.02 C 586.869 1102.5 580.94 1102.28 577.138 1102.27 C 576.494 1064.38 577.074 1024.9 577.085 986.893 z"/>
<path transform="translate(0,0)" fill="rgb(248,247,247)" d="M 622.271 987.015 L 635.129 986.988 L 635.137 1102.37 L 622.117 1102.41 L 622.271 987.015 z"/>
<path transform="translate(0,0)" fill="rgb(248,247,247)" d="M 583.027 747.072 C 595.517 746.671 612.611 760.261 604.066 771.235 C 600.957 772.559 595.81 772.233 592.25 772.276 C 584.171 772.505 570.791 775.11 566.821 767.641 C 566.966 758.464 575.23 750.799 583.027 747.072 z"/>
<path transform="translate(0,0)" fill="rgb(248,247,247)" d="M 577.284 780.385 L 596.432 780.225 C 596.701 789.584 596.787 799.384 596.71 808.749 C 596.676 812.88 596.998 812.85 594.891 814.784 L 575.005 814.661 C 574.928 804.743 574.551 793.127 575.208 783.246 C 575.343 781.212 575.504 781.67 577.284 780.385 z"/>
<path transform="translate(0,0)" fill="rgb(49,120,78)" d="M 584.376 1156.47 C 695.293 1154.99 808.539 1156.59 919.665 1156.69 L 1537.39 1156.7 L 1876.79 1156.64 L 1966.19 1157.02 C 1978.93 1157.01 2004.52 1156.26 2016.4 1157.57 C 2017.94 1159.81 2018.11 1164 2016.66 1166.31 C 2009.75 1167.41 1988.54 1166.91 1980.63 1166.89 L 1910.43 1166.67 L 1676.54 1166.15 L 834.744 1166.27 L 653.858 1166.06 C 644.689 1166.06 592.681 1165.7 588.386 1166.88 L 584.376 1156.47 z"/>
<path transform="translate(0,0)" fill="rgb(14,14,14)" d="M 1897.01 897.784 L 1913.93 897.708 C 1914.06 928.988 1913.95 960.268 1913.6 991.546 C 1908.68 991.673 1903.77 991.71 1898.86 991.659 C 1897.18 989.907 1897.79 987.491 1897.67 984.262 C 1885.36 985.772 1889.88 997.847 1864.65 990.516 C 1821.02 969 1858.39 897.442 1896.86 934.316 L 1897.01 897.784 z"/>
<path transform="translate(0,0)" fill="rgb(248,247,247)" d="M 1875.77 940.697 C 1885.6 938.715 1895.17 945.061 1897.17 954.882 C 1899.17 964.703 1892.85 974.29 1883.03 976.312 C 1873.19 978.34 1863.56 971.991 1861.56 962.141 C 1859.55 952.292 1865.92 942.684 1875.77 940.697 z"/>
<path transform="translate(0,0)" fill="rgb(14,14,14)" d="M 823.232 901.92 C 830.241 901.798 837.624 901.948 844.666 901.98 C 833.73 915.43 822.279 928.334 811.326 942.002 C 817.973 951.901 825.826 962.439 832.812 972.204 C 837.794 979.473 842.306 985.888 847.667 992.869 L 825.134 992.956 C 815.888 980.492 807.855 967.826 798.139 955.519 L 787.077 965.033 L 787.076 992.836 L 768.734 992.796 C 768.841 962.533 768.716 932.269 768.36 902.008 L 786.712 901.898 L 787.005 943.887 C 798.474 929.386 810.561 915.384 823.232 901.92 z"/>
<path transform="translate(0,0)" fill="rgb(14,14,14)" d="M 1084.33 925.48 C 1103 923.81 1119.5 937.573 1121.2 956.241 C 1122.91 974.909 1109.18 991.434 1090.51 993.176 C 1071.8 994.922 1055.22 981.145 1053.51 962.426 C 1051.8 943.707 1065.61 927.154 1084.33 925.48 z"/>
<path transform="translate(0,0)" fill="rgb(248,247,247)" d="M 1085.34 941.126 C 1094.01 941.783 1100.21 944.683 1103.34 953.365 C 1105.13 958.284 1104.77 963.726 1102.37 968.374 C 1099.45 973.936 1095.95 975.416 1090.29 976.992 C 1081.26 977.194 1075 974.211 1071.95 965.122 C 1070.32 960.114 1070.77 954.657 1073.21 949.986 C 1076.26 944.211 1079.46 942.849 1085.34 941.126 z"/>
<path transform="translate(0,0)" fill="rgb(14,14,14)" d="M 1241.31 906.777 C 1260.54 905.923 1283.53 906.558 1302.99 906.686 L 1303.01 922.694 L 1258.58 922.821 L 1258.47 941.748 L 1296.58 941.859 L 1296.55 956.829 L 1262.75 956.854 C 1260.32 957.006 1261.42 956.597 1259.48 958.101 C 1258.33 963.42 1258.91 970.119 1259.09 975.695 L 1303.13 975.658 L 1303.07 991.271 L 1241.32 991.465 L 1241.31 906.777 z"/>
<path transform="translate(0,0)" fill="rgb(14,14,14)" d="M 1675.42 926.026 L 1687.44 925.953 C 1691.91 940.833 1698.15 956.78 1702.98 972.226 C 1708.34 956.981 1713.47 941.656 1718.38 926.258 L 1734.89 926.42 L 1730.9 937.5 C 1723.97 954.257 1717.08 974.439 1710.7 991.619 L 1694.71 991.606 C 1690.32 977.244 1686.01 962.859 1681.77 948.451 L 1666.98 991.205 L 1650.57 991.16 L 1628.18 926.057 L 1645.29 925.994 C 1648.2 938.752 1656.02 960.008 1660.18 973.935 C 1664.85 957.485 1669.97 942.2 1675.42 926.026 z"/>
<path transform="translate(0,0)" fill="rgb(14,14,14)" d="M 1173.68 1035.34 C 1196.56 1035.05 1231.12 1032.05 1234.01 1064.29 C 1235.03 1075.73 1232.85 1081.26 1225.56 1090 C 1209.3 1102.05 1193.75 1099.11 1173.69 1098.8 L 1173.68 1035.34 z"/>
<path transform="translate(0,0)" fill="rgb(248,247,247)" d="M 1187.05 1046.43 C 1196.34 1046.22 1205.43 1046.03 1213.49 1051.38 C 1225.88 1059.61 1223.14 1072.52 1215.22 1082.82 C 1206.05 1089.27 1197.97 1088.15 1187.03 1088.06 C 1186.96 1074.18 1186.97 1060.3 1187.05 1046.43 z"/>
<path transform="translate(0,0)" fill="rgb(14,14,14)" d="M 876.251 925.268 C 878.24 925.164 880.232 925.103 882.224 925.084 C 919.663 924.895 911.166 966.579 911.089 992.777 C 906.21 992.843 900.771 993.199 896.062 992.254 L 894.953 987.225 C 883.773 987.453 881.184 1002.82 858.417 987.226 C 852.7 980.24 850.578 971.101 855.124 962.675 C 862.421 949.151 883.607 956.647 894.043 953.69 L 894.746 951.965 C 890.127 935.171 873.047 941.186 861.618 945.921 L 855.979 933.271 C 863.942 927.861 867.083 926.971 876.251 925.268 z"/>
<path transform="translate(0,0)" fill="rgb(248,247,247)" d="M 874.401 964.205 C 881.897 964.067 887.029 963.139 893.539 966.624 C 897.015 972.221 892.355 975.945 888.028 979.63 C 873.548 983.286 859.513 973.743 874.401 964.205 z"/>
<path transform="translate(0,0)" fill="rgb(14,14,14)" d="M 1512.7 925.141 C 1540.78 923.744 1549.4 937.698 1548.97 963.98 L 1501.39 964.089 C 1505.59 969.956 1506.65 971.927 1513.19 975.667 C 1521.87 980.625 1529.6 973.293 1535.92 973.86 C 1539.48 976.442 1542.18 979.265 1545.32 982.317 C 1533.25 992.064 1518.34 996.054 1503.82 988.875 C 1495.91 984.999 1490.02 977.95 1487.6 969.479 C 1481.38 948.169 1492.11 931.32 1512.7 925.141 z"/>
<path transform="translate(0,0)" fill="rgb(248,247,247)" d="M 1511.79 939.188 C 1519.66 938.28 1535.79 940.302 1533.09 951.522 C 1530.03 953.917 1530.97 953.162 1526.25 953.342 C 1518 953.536 1511.53 954.643 1504.2 951.386 C 1501.32 945.909 1507.59 942.087 1511.79 939.188 z"/>
<path transform="translate(0,0)" fill="rgb(14,14,14)" d="M 1414.5 902.025 L 1431.17 901.99 L 1431.41 932.685 C 1440.49 924.718 1459.03 920.378 1467.41 930.568 C 1478.06 943.528 1474.84 974.041 1474.7 991.148 L 1457.9 991.127 L 1457.91 962.193 C 1458 955.741 1458.57 949.807 1454.01 944.509 C 1450.2 938.958 1439.8 937.56 1435.75 943.71 C 1428.92 954.086 1431.6 979.393 1431.79 991.328 L 1414.71 991.273 C 1414.32 961.525 1414.25 931.774 1414.5 902.025 z"/>
<path transform="translate(0,0)" fill="rgb(14,14,14)" d="M 1757.57 925.216 C 1759.74 925.016 1761.92 924.866 1764.09 924.766 C 1806.84 922.53 1797.3 960.356 1797.11 991.546 C 1793.54 991.632 1788.8 991.876 1785.28 991.705 C 1779.81 991.439 1783.63 990.32 1780.64 986.791 C 1765.22 989.021 1766.77 1000.66 1746.29 987.339 C 1740.24 981.131 1736.2 972.596 1740.09 963.852 C 1747.14 948.018 1769.82 955.914 1780.54 951.198 C 1781.57 949.499 1782 949.81 1781.51 947.98 C 1777.41 932.503 1757.65 939.759 1748.34 942.85 C 1744.68 939.238 1741.77 937.452 1743.31 932.208 C 1746.72 928.869 1752.89 927.045 1757.57 925.216 z"/>
<path transform="translate(0,0)" fill="rgb(248,247,247)" d="M 1761.74 963.141 C 1768.83 962.86 1779.77 961.376 1782.19 969.821 C 1780.86 975.126 1777.87 976.743 1773.36 979.543 C 1756.12 981.876 1745.37 970.217 1761.74 963.141 z"/>
<path transform="translate(0,0)" fill="rgb(14,14,14)" d="M 890.69 1033.44 L 902.252 1033.96 C 902.529 1055.35 902.277 1077.4 902.259 1098.84 L 889.424 1098.96 L 889.193 1058.73 C 883.761 1068.05 879.204 1077.87 873.687 1086.99 C 872.188 1089.47 870.436 1089.47 868.264 1089.57 C 861.408 1085.98 852.057 1068.19 847.618 1060.89 L 846.612 1060.86 L 846.393 1064.75 L 846.348 1098.58 L 833.346 1098.51 C 833.958 1085.2 832.657 1044.43 834.375 1034.89 C 837.792 1033.32 841.456 1033.82 845.283 1033.91 C 853.135 1046.77 860.285 1058.25 868.806 1070.64 C 876.152 1059.32 883.848 1045.29 890.69 1033.44 z"/>
<path transform="translate(0,0)" fill="rgb(14,14,14)" d="M 962.712 925.15 C 964.101 925.088 965.492 925.059 966.882 925.064 C 999.549 924.91 991.243 969.751 991.033 992.433 L 973.527 992.437 C 973.195 974.149 981.929 931.73 952.101 943.57 C 948.325 947.302 947.667 948.925 945.064 953.526 L 945.003 992.937 L 928.644 992.924 C 928.443 970.584 928.397 948.243 928.507 925.902 C 952.905 925.605 939.298 927.011 944.891 933.618 C 952.588 929.948 954.134 927.585 962.712 925.15 z"/>
<path transform="translate(0,0)" fill="rgb(14,14,14)" d="M 1588.85 925.233 C 1590.73 925.069 1592.62 924.956 1594.51 924.896 C 1629.78 923.877 1621.11 966.594 1620.93 991.513 L 1603.83 991.57 C 1603.99 979.907 1604.77 966.807 1603.56 955.336 C 1602.27 943.197 1595.49 939.962 1584.53 942.385 C 1572.6 951.461 1576.9 977.093 1577.02 991.842 L 1559.48 991.822 L 1559.46 926.008 C 1565.45 925.813 1573.08 924.494 1577.23 929.512 L 1576.94 931.871 C 1579.61 931.379 1585.77 926.983 1588.85 925.233 z"/>
<path transform="translate(0,0)" fill="rgb(14,14,14)" d="M 1164.4 925.121 C 1166.1 924.98 1167.81 924.896 1169.51 924.868 C 1205.27 924.475 1197.18 967.35 1196.86 992.014 L 1179.89 992.144 C 1179.86 981.342 1180.44 970.223 1180.06 959.485 C 1179.57 945.44 1174.12 940.337 1160.79 941.583 C 1145.71 948.581 1150.61 976.721 1150.3 992.022 L 1133.97 992.029 L 1133.84 925.937 C 1140.02 925.758 1145.14 924.674 1149.74 928.752 L 1149.6 930.937 C 1153.58 930.481 1160.12 926.899 1164.4 925.121 z"/>
<path transform="translate(0,0)" fill="rgb(14,14,14)" d="M 1284.55 1051.13 C 1293.67 1050.66 1293.17 1052.51 1301.45 1055.95 L 1302.77 1052.91 C 1305.97 1051.28 1311.21 1051.96 1315.03 1052.08 C 1314.9 1067.02 1315.85 1081.64 1314.89 1096.59 C 1313.38 1119.86 1282.24 1123 1268.96 1108.97 C 1276.07 1100.3 1282.43 1107.06 1292.49 1106.82 C 1299.42 1106.66 1304.24 1099.4 1303.52 1093.21 C 1299.25 1092.32 1290.91 1100.87 1279.3 1095.38 C 1274.05 1093.22 1268.95 1088.76 1267.27 1082.93 C 1262.64 1066.82 1269.94 1055.75 1284.55 1051.13 z"/>
<path transform="translate(0,0)" fill="rgb(248,247,247)" d="M 1287.22 1062.54 C 1293.5 1060.98 1299.91 1064.56 1301.86 1070.72 C 1303.81 1076.89 1300.63 1083.5 1294.6 1085.83 C 1290.35 1087.48 1285.55 1086.62 1282.12 1083.62 C 1278.7 1080.62 1277.22 1075.96 1278.3 1071.54 C 1279.37 1067.11 1282.81 1063.65 1287.22 1062.54 z"/>
<path transform="translate(0,0)" fill="rgb(14,14,14)" d="M 1759.96 1052.24 C 1773.8 1051.03 1769.38 1053.62 1781.51 1056.54 L 1783.01 1053.08 C 1786.32 1051.84 1788.69 1052.41 1792.36 1052.56 C 1792.09 1077.04 1801.43 1120.96 1761.53 1114.71 C 1756.99 1113.99 1747.43 1112.46 1744.76 1108.85 L 1750.19 1101.11 C 1760.02 1105.23 1772.2 1108.29 1780.05 1098.98 C 1780.4 1095.2 1780.8 1096.87 1779.16 1093.72 C 1773.16 1095.1 1765.96 1097.53 1760.19 1095.88 C 1753.56 1093.91 1748.06 1089.25 1745.03 1083.03 C 1738.23 1068.9 1747.3 1057.88 1759.96 1052.24 z"/>
<path transform="translate(0,0)" fill="rgb(248,247,247)" d="M 1762.98 1063.77 C 1766.91 1061.97 1771.5 1062.43 1774.99 1064.97 C 1778.49 1067.5 1780.34 1071.72 1779.85 1076.01 C 1779.36 1080.3 1776.6 1083.99 1772.62 1085.67 C 1766.59 1088.22 1759.64 1085.46 1757 1079.47 C 1754.37 1073.48 1757.03 1066.49 1762.98 1063.77 z"/>
<path transform="translate(0,0)" fill="rgb(14,14,14)" d="M 785.663 1033.36 L 797.655 1033.31 C 807.096 1054.84 816.213 1076.52 825.005 1098.33 L 811.203 1098.87 C 807.048 1088.56 810.296 1085.14 798.163 1085.09 C 791.614 1085.66 784.561 1085.65 777.945 1085.77 L 771.808 1099.93 L 758.745 1099.77 C 765.394 1081.29 777.692 1051.16 785.663 1033.36 z"/>
<path transform="translate(0,0)" fill="rgb(248,247,247)" d="M 791.531 1049.78 C 794.009 1053.29 799.269 1069.55 800.088 1073.97 C 798.333 1075.43 797.152 1074.91 794.25 1075.03 C 790.928 1075.17 787.676 1075.79 784.942 1074.23 C 782.436 1068.66 788.817 1057.14 791.531 1049.78 z"/>
<path transform="translate(0,0)" fill="rgb(14,14,14)" d="M 1372.65 925.113 C 1374.84 924.971 1377.04 924.871 1379.23 924.812 C 1391.57 924.528 1397.95 930.573 1406.22 938.438 C 1400.01 941.808 1397.11 943.676 1392.21 948.673 C 1385.88 940.745 1375.29 937.185 1368.26 944.331 C 1353.51 959.318 1372.72 991.415 1393.42 968.943 C 1398.3 973.636 1399.75 975.21 1405.61 978.693 C 1394.82 990.811 1382.93 996.464 1366.98 989.727 C 1358.11 985.971 1351.23 978.652 1348.04 969.566 C 1340.37 947.876 1351.95 931.597 1372.65 925.113 z"/>
<path transform="translate(0,0)" fill="rgb(14,14,14)" d="M 1011.55 912.067 L 1029.02 912.11 L 1028.97 926.762 L 1044.85 926.531 L 1044.85 940.759 L 1028.08 940.866 C 1027.94 948.8 1025.82 969.681 1031.99 974.53 C 1043.94 977.329 1044.66 976.274 1050.05 986.988 C 1042.34 993.58 1028.43 995.663 1019.93 990.076 C 1005.64 980.699 1013.36 956.722 1010.11 941.841 C 1008.17 940.937 1007.67 940.793 1005.64 940.337 L 1003.81 939.935 C 1000.7 936.499 999.397 929.724 1002.63 926.445 C 1006.6 927.088 1007.36 927.478 1010.42 925.163 C 1012.51 921.176 1011.73 916.774 1011.55 912.067 z"/>
<path transform="translate(0,0)" fill="rgb(14,14,14)" d="M 1405.24 1051.26 C 1434.15 1050.74 1428.96 1077.85 1428.7 1098.62 C 1424.58 1098.78 1421.96 1099.13 1417.98 1098.25 L 1416.56 1095.52 C 1403.91 1097.03 1405.22 1104.69 1390.43 1096.02 C 1386.26 1091.61 1383.31 1087.8 1385.29 1081.31 C 1389.52 1067.51 1407.17 1073.1 1415.01 1068.75 L 1415.15 1067.01 C 1408.07 1058.49 1403.18 1061.49 1393.78 1064.43 C 1390.85 1063.4 1392.09 1064.25 1390.17 1061.48 C 1389.74 1052.5 1398.8 1052.3 1405.24 1051.26 z"/>
<path transform="translate(0,0)" fill="rgb(248,247,247)" d="M 1399.52 1079.03 C 1404.73 1078.84 1413.46 1077.04 1415.29 1082.67 C 1414.48 1086.07 1413.33 1087.02 1411.12 1089.7 C 1405.27 1091.4 1401.22 1091.69 1397.68 1086.08 C 1397.2 1082.65 1397.86 1082.06 1399.52 1079.03 z"/>
<path transform="translate(0,0)" fill="rgb(14,14,14)" d="M 1814.47 898.226 L 1831.01 898.205 L 1830.77 991.612 L 1814.56 991.732 C 1814.39 960.89 1813.83 928.976 1814.47 898.226 z"/>
<path transform="translate(0,0)" fill="rgb(14,14,14)" d="M 1569.42 1052.2 C 1590.45 1050.56 1596.27 1061.09 1596.32 1080.06 C 1590.6 1080.15 1566.37 1078.59 1563.63 1081.69 C 1567.43 1093.31 1579.77 1089.87 1588.05 1086.07 C 1590.46 1087.84 1591.48 1090.17 1591.73 1093 C 1587.03 1101.13 1571.34 1101.54 1563.6 1097.57 C 1557.98 1094.65 1553.78 1089.6 1551.92 1083.55 C 1547.21 1068.57 1554.68 1056.41 1569.42 1052.2 z"/>
<path transform="translate(0,0)" fill="rgb(248,247,247)" d="M 1569.58 1061.98 C 1576.5 1061.31 1583.28 1062.73 1585.02 1070.4 L 1583.99 1071.9 L 1580.25 1072.38 C 1575.26 1072.48 1568.52 1073.23 1564.33 1071.02 L 1563.83 1068.93 C 1565.44 1065.4 1566.75 1064.58 1569.58 1061.98 z"/>
<path transform="translate(0,0)" fill="rgb(14,14,14)" d="M 999.01 1034.99 C 1009.41 1035.03 1034.44 1033.87 1043.26 1035.91 C 1045.25 1039.27 1044.49 1041.01 1042.86 1044.04 C 1037.1 1047.92 1020.54 1046.05 1012.56 1045.92 L 1012.24 1062.94 C 1020.1 1062.9 1031.45 1062.5 1038.98 1063.4 L 1040.2 1064.98 C 1040.29 1068.1 1040.81 1070.48 1039.13 1072.97 C 1033.3 1076.49 1020.15 1074.71 1012.02 1074.75 L 1012.06 1099.25 L 999.04 1099.28 L 999.01 1034.99 z"/>
<path transform="translate(0,0)" fill="rgb(14,14,14)" d="M 1086.71 1050.59 L 1099.74 1050.71 L 1099.79 1068.06 L 1099.8 1098.76 C 1091.69 1099.11 1092.37 1100.13 1087.33 1094.5 C 1049.43 1115.66 1052.64 1074.59 1053.01 1050.83 L 1065.68 1050.86 C 1065.89 1061.17 1060.58 1097.09 1081.33 1085.94 C 1089.25 1081.68 1086.82 1058.49 1086.71 1050.59 z"/>
<path transform="translate(0,0)" fill="rgb(14,14,14)" d="M 910.934 1034.01 L 963.34 1033.99 L 963.22 1046.18 L 943.102 1046.01 L 943.093 1078.5 L 943.103 1099.15 L 929.9 1099.15 L 929.612 1045.58 C 923.259 1045.29 916.606 1047.13 911.93 1043.89 C 910.03 1040.83 910.734 1037.78 910.934 1034.01 z"/>
<path transform="translate(0,0)" fill="rgb(14,14,14)" d="M 1637.69 1052.04 C 1642.2 1051.9 1644.02 1051.82 1648.44 1052.38 C 1652.32 1061.14 1644.14 1085.21 1656.76 1090.34 C 1680.26 1088.37 1661.91 1055.93 1675.76 1050.27 C 1678.7 1050.92 1678.31 1051.08 1680.97 1052.89 C 1682.35 1055.72 1681.81 1063.89 1681.78 1067.5 C 1681.83 1074.22 1682.55 1092.4 1681.16 1097.66 C 1678 1099.32 1674.61 1099.81 1671.45 1097.92 L 1670.91 1094.81 C 1668.9 1094.15 1662.62 1099.82 1657.11 1100.05 C 1632.2 1101.1 1637.47 1069.72 1637.69 1052.04 z"/>
<path transform="translate(0,0)" fill="rgb(14,14,14)" d="M 1692.51 1052.3 C 1694.27 1052.28 1702.6 1051.78 1703.9 1052.91 C 1706.48 1055.14 1701.42 1053.58 1705.21 1057.2 C 1707.49 1056 1714.14 1052.11 1716.17 1051.97 C 1741.51 1050.15 1736.79 1081.48 1736.43 1098.41 L 1724.53 1098.51 L 1724.62 1078.97 C 1724.63 1076.92 1724.78 1070.94 1723.49 1069 C 1716.96 1059.1 1705.8 1061.19 1704.56 1073.79 C 1703.81 1081.43 1704.15 1090.8 1704.21 1098.98 C 1700.74 1099.03 1695.32 1099.62 1693.09 1097.5 C 1691.93 1085.15 1692.5 1065.25 1692.51 1052.3 z"/>
<path transform="translate(0,0)" fill="rgb(14,14,14)" d="M 1500.84 1051.12 C 1508.46 1051.07 1512.25 1052.28 1519.66 1054.08 C 1519.3 1057.92 1518.98 1061.77 1518.67 1065.62 C 1511.9 1062.54 1502.34 1057.04 1496.78 1064.52 L 1497.23 1066.29 C 1504.06 1072.32 1520.72 1072.15 1522.73 1083.34 C 1525.02 1096.06 1512.95 1098.8 1503.79 1100.04 C 1494.17 1098.94 1491.89 1098.29 1483.82 1093.7 C 1485.47 1089.98 1485.79 1088.53 1488.59 1085.74 C 1495.31 1088.29 1503.2 1092.51 1509.81 1089.01 C 1511.59 1085.43 1511.48 1087.16 1510.86 1083.73 C 1504.8 1078.63 1486.93 1079.44 1485.02 1070.03 C 1482.57 1057.97 1491.87 1053.36 1500.84 1051.12 z"/>
<path transform="translate(0,0)" fill="rgb(14,14,14)" d="M 1316.14 926.028 L 1332.74 925.984 L 1332.97 991.198 L 1316.17 991.21 L 1316.14 926.028 z"/>
<path transform="translate(0,0)" fill="rgb(14,14,14)" d="M 1355.26 1042.37 C 1372.7 1041.37 1362.63 1044.09 1367.43 1051.09 C 1372.46 1054.24 1374.3 1051.2 1378.82 1053.88 C 1379.86 1056.96 1379.3 1058.38 1378.73 1061.57 C 1376.42 1063.88 1371.87 1062.98 1367.63 1063.01 C 1367.53 1073.39 1364.56 1086.04 1376.85 1088.62 L 1378.6 1088.98 C 1380.78 1092.61 1379.95 1092.96 1379.92 1097.99 C 1353.4 1107.4 1355.57 1081.5 1354.72 1064.51 C 1354.53 1060.79 1351.37 1063.12 1347.7 1060.3 C 1346.73 1056.6 1346.88 1056.68 1347.48 1053.09 C 1349.5 1052.44 1351.54 1051.83 1353.59 1051.28 C 1355.92 1048.18 1355.08 1047.2 1355.26 1042.37 z"/>
<path transform="translate(0,0)" fill="rgb(14,14,14)" d="M 1111.88 1050.29 C 1122.25 1049.93 1119.27 1049.34 1126.54 1054.71 C 1131.9 1050.66 1136.69 1046.95 1142.49 1052.61 C 1143.79 1056.5 1143.57 1056.8 1142.7 1060.97 C 1138.57 1065.5 1129.29 1057.75 1124.81 1071.75 L 1124.81 1099.13 L 1112.04 1099.01 L 1111.88 1050.29 z"/>
<path transform="translate(0,0)" fill="rgb(14,14,14)" d="M 1439.44 1032.71 L 1451.3 1032.66 C 1451.58 1054.57 1451.66 1076.49 1451.55 1098.41 L 1439.91 1098.49 C 1439.6 1076.57 1439.44 1054.64 1439.44 1032.71 z"/>
<path transform="translate(0,0)" fill="rgb(14,14,14)" d="M 1604.04 1052.09 C 1607.81 1051.91 1611.54 1051.23 1614.65 1053.11 C 1615.71 1055.19 1615.86 1056.1 1616.15 1058.42 C 1618.24 1058.58 1623.08 1047.01 1630.61 1053.32 C 1632.07 1072.12 1617.79 1058.66 1616.54 1076.75 L 1616.67 1098.55 L 1604.14 1098.64 L 1604.04 1052.09 z"/>
<path transform="translate(0,0)" fill="rgb(14,14,14)" d="M 1245.24 1051.24 L 1256.89 1051.46 L 1256.85 1099.02 C 1253.59 1099.07 1247.93 1099.58 1245.5 1097.74 C 1244.3 1088.92 1245.15 1061.46 1245.24 1051.24 z"/>
<path transform="translate(0,0)" fill="rgb(14,14,14)" d="M 1530.64 1052.02 C 1534.69 1051.98 1537.62 1051.63 1541.4 1052.93 C 1542.73 1059.17 1542.17 1091.31 1542.16 1099.08 C 1537.72 1099.21 1536.23 1099.2 1531.86 1098.64 C 1529.53 1095.06 1530.59 1059.05 1530.64 1052.02 z"/>
<path transform="translate(0,0)" fill="rgb(14,14,14)" d="M 1327.09 1051.95 L 1339.05 1051.93 L 1339.06 1098.06 C 1335.77 1098.13 1330.01 1098.7 1327.61 1096.68 C 1326.37 1088.61 1327.05 1061.48 1327.09 1051.95 z"/>
<path transform="translate(0,0)" fill="rgb(14,14,14)" d="M 1463.14 1052.22 L 1474.65 1052.22 L 1474.68 1098.63 L 1463.08 1098.61 L 1463.14 1052.22 z"/>
<path transform="translate(0,0)" fill="rgb(14,14,14)" d="M 1322.29 896.089 C 1327.82 894.733 1333.42 898.064 1334.87 903.575 C 1336.32 909.086 1333.08 914.739 1327.59 916.277 C 1323.96 917.295 1320.06 916.276 1317.4 913.612 C 1314.73 910.948 1313.71 907.052 1314.72 903.421 C 1315.73 899.789 1318.63 896.987 1322.29 896.089 z"/>
<path transform="translate(0,0)" fill="rgb(14,14,14)" d="M 1248.85 1033.23 C 1252.31 1031.75 1256.33 1033.29 1257.9 1036.72 C 1259.47 1040.14 1258.03 1044.19 1254.65 1045.86 C 1252.38 1046.97 1249.69 1046.76 1247.62 1045.32 C 1245.55 1043.88 1244.42 1041.43 1244.67 1038.92 C 1244.93 1036.4 1246.53 1034.23 1248.85 1033.23 z"/>
<path transform="translate(0,0)" fill="rgb(14,14,14)" d="M 1330.13 1034.32 C 1333.58 1032.83 1337.59 1034.4 1339.11 1037.84 C 1340.64 1041.27 1339.11 1045.3 1335.69 1046.86 C 1333.44 1047.89 1330.82 1047.63 1328.82 1046.18 C 1326.82 1044.73 1325.75 1042.32 1326.02 1039.87 C 1326.29 1037.41 1327.86 1035.29 1330.13 1034.32 z"/>
<path transform="translate(0,0)" fill="rgb(14,14,14)" d="M 1535.14 1034.2 C 1538.73 1033.41 1542.31 1035.6 1543.23 1039.16 C 1544.16 1042.72 1542.1 1046.37 1538.58 1047.43 C 1536.18 1048.15 1533.58 1047.5 1531.8 1045.74 C 1530.02 1043.98 1529.35 1041.39 1530.04 1038.98 C 1530.74 1036.58 1532.69 1034.74 1535.14 1034.2 z"/>
<path transform="translate(0,0)" fill="rgb(14,14,14)" d="M 1466.37 1034.42 C 1468.56 1033.57 1471.04 1033.98 1472.83 1035.5 C 1474.62 1037.01 1475.44 1039.39 1474.97 1041.69 C 1474.49 1043.99 1472.8 1045.84 1470.55 1046.52 C 1467.26 1047.51 1463.77 1045.73 1462.65 1042.48 C 1461.52 1039.23 1463.17 1035.67 1466.37 1034.42 z"/>
</svg>