<svg version="1.1" xmlns="http://www.w3.org/2000/svg" style="display: block;" viewBox="0 0 2048 2048" width="1024" height="1024" preserveAspectRatio="none">
<path transform="translate(0,0)" fill="rgb(255,255,255)" d="M 0 0 L 2048 0 L 2048 2048 L 0 2048 L 0 1116.86 L 0 1095.03 L 0 809.021 L 0 788.347 L 0 0 z"/>
<path transform="translate(0,0)" fill="rgb(88,88,88)" d="M 1650.71 457.379 C 1641.68 449.858 1634.54 437.986 1644.54 427.963 C 1648.46 424.041 1653.78 421.851 1659.32 421.886 C 1668.71 421.971 1678.44 428.143 1677.71 438.459 C 1677.17 446.277 1673.28 450.827 1668.87 456.793 C 1669.1 464.292 1669.16 473.227 1670.01 480.547 C 1683.05 493.927 1684.05 498.165 1685.3 516.897 C 1724.4 537.032 1725.17 550.326 1722.78 590.584 C 1732.8 597.426 1742.97 604.062 1753.26 610.488 C 1746.32 623.258 1736.02 639.351 1726.03 649.783 C 1726 666.783 1725.78 684.125 1725.97 701.093 C 1732.71 705.624 1740.23 710.951 1747.02 715.228 L 1745.83 745.852 C 1773.65 761.016 1801.21 771.564 1826.09 792.353 C 1838.88 803.041 1836.99 813.411 1844.23 822.052 C 1871.86 855.028 1889.05 887.438 1901.02 929.04 C 1912.95 970.512 1915.81 1015.78 1920.54 1058.69 C 1921.91 1070.79 1921.43 1084.5 1923.14 1096.22 L 1909.49 1099.96 C 1909.33 1131.8 1908.09 1172.82 1909.73 1203.87 C 1930.53 1212.87 1951.42 1221.7 1972.38 1230.33 C 1980.66 1233.82 2008.12 1243.88 2010.97 1250.85 C 2008.5 1257.17 1985.5 1276.01 1978.91 1282.15 C 1978.19 1357.71 1977.86 1433.27 1977.93 1508.83 C 1977.93 1543 1978.04 1577.16 1978.07 1611.32 C 1978.07 1616.74 1978.83 1630.45 1976.21 1634.43 C 1972.83 1636.44 1834.27 1635.61 1821.49 1635.63 L 1277.27 1635.8 L 1128.74 1636.07 C 1120.1 1636.07 1083.37 1637.44 1078.11 1634.08 C 1076.22 1630.45 1076.66 1632.35 1077 1628.09 C 1082.3 1620.66 1095.9 1624.22 1104.84 1624.01 C 1104.75 1611.38 1103.06 1602.86 1110.71 1592.72 C 1110.86 1555.21 1111.05 1517.63 1111 1480.12 C 1111 1475.08 1107.7 1473.91 1107.42 1470.22 C 1106.83 1462.33 1107.24 1453 1107.42 1445.07 C 1085.75 1437.28 1061.62 1430.86 1039.34 1423.49 C 1066.71 1369.25 1093.61 1314.78 1120.03 1260.08 C 1128.89 1241.89 1138.17 1220.57 1147.16 1203.14 C 1188.36 1217.26 1230.01 1230.07 1271.3 1243.99 C 1290.8 1250.57 1309.71 1255.9 1329.01 1263.59 C 1357.82 1249.37 1387 1235.9 1416.51 1223.22 L 1416.93 1161.62 C 1417.06 1137.93 1417.45 1118.03 1408.68 1095.19 C 1405.01 1085.63 1399.92 1077.84 1396.17 1067.78 L 1402.88 1058.61 C 1408.01 967.699 1419.35 881.35 1481.96 809.192 C 1484.92 807.013 1498.53 791.98 1501.93 788.294 C 1524.6 767.727 1549.13 756.015 1576.84 744.118 L 1576.98 717.238 C 1583.12 712.95 1589.29 708.703 1595.49 704.498 C 1595.45 685.854 1595.8 665.549 1595.09 647.039 C 1586.31 638.844 1576.87 631.555 1567.48 624.063 C 1577.21 615.061 1589.72 602.857 1599.79 594.733 C 1596.56 559.322 1600.4 536.976 1634.88 519.257 C 1634.44 502.57 1635.14 496.394 1645.08 482.522 C 1651.04 474.198 1650.57 467.099 1650.71 457.379 z"/>
<path transform="translate(0,0)" fill="rgb(255,255,255)" d="M 1635.94 1167.1 C 1637.82 1169.54 1636.73 1514.79 1636.28 1554.67 C 1607.84 1566.89 1566.23 1580.29 1535.94 1591.45 C 1534.88 1542.55 1536.08 1463.43 1536.48 1411.49 C 1536.87 1410.87 1537.27 1410.24 1537.66 1409.61 C 1548.7 1399.44 1559.19 1388.69 1569.1 1377.42 C 1548.74 1357.57 1520.76 1333.85 1499.42 1314.52 C 1495.92 1311.35 1459.28 1302.52 1450.7 1300.29 C 1427.47 1294.27 1404.27 1288.32 1380.98 1281.02 C 1398.95 1271.73 1429.98 1259.87 1449.57 1250.92 C 1511.16 1222.81 1575.13 1196.71 1635.94 1167.1 z"/>
<path transform="translate(0,0)" fill="rgb(88,88,88)" d="M 1590.18 1418.79 C 1594.15 1419.09 1597.31 1419.46 1600.07 1422.57 C 1607.44 1431 1607.43 1443.22 1607.41 1453.77 C 1607.38 1472.59 1607.36 1491.39 1607.53 1510.2 L 1591.48 1515.61 L 1577.14 1521.05 C 1577.19 1496.13 1576.86 1469.85 1577.7 1444.97 C 1578.06 1434.36 1581.89 1425.57 1590.18 1418.79 z"/>
<path transform="translate(0,0)" fill="rgb(88,88,88)" d="M 1594.92 1222.52 C 1612.4 1230.72 1607.95 1257.8 1608.42 1273.86 C 1608.74 1284.9 1608.37 1296.74 1608.33 1307.85 L 1587.25 1317.55 L 1577.79 1321.72 C 1577.92 1297.49 1576.55 1272.01 1578.1 1247.83 C 1578.84 1236.4 1585.17 1228.19 1594.92 1222.52 z"/>
<path transform="translate(0,0)" fill="rgb(255,255,255)" d="M 1775.15 1189.62 C 1817.07 1210.29 1855.9 1225.32 1898.05 1244.42 L 1898.3 1604.03 C 1857.12 1591.38 1815.43 1581.79 1774.59 1569.08 L 1774.95 1339.06 C 1774.83 1290.1 1773.79 1238.34 1775.15 1189.62 z"/>
<path transform="translate(0,0)" fill="rgb(88,88,88)" d="M 1830.81 1431.81 C 1854.33 1432.1 1850.45 1472.18 1850.54 1487.97 C 1850.63 1501.35 1850.41 1514.92 1850.34 1528.32 L 1842.76 1525.49 C 1834.69 1522.16 1827.32 1519.15 1819.49 1515.21 C 1818.79 1496.81 1818.84 1474.98 1819.3 1456.48 C 1819.53 1446.91 1823.24 1438.08 1830.81 1431.81 z"/>
<path transform="translate(0,0)" fill="rgb(88,88,88)" d="M 1832.48 1234.66 C 1856.86 1236.56 1850.04 1310.66 1850 1327.26 L 1839.38 1323.09 C 1831.99 1320.05 1826.08 1317.34 1818.91 1313.8 C 1818.74 1295.98 1818.07 1275.93 1819.07 1258.23 C 1819.66 1247.85 1824.47 1240.84 1832.48 1234.66 z"/>
<path transform="translate(0,0)" fill="rgb(255,255,255)" d="M 1665 738.276 C 1700.66 737.56 1710.82 767.505 1720.69 796.02 C 1740.27 852.538 1745.84 909.888 1744.63 969.366 C 1725.38 968.892 1705.9 967.508 1686.54 966.921 C 1659.04 965.605 1631.28 965.018 1603.83 963.336 C 1600.99 900.46 1605.45 805.11 1643.12 751.447 C 1648.99 743.084 1655.17 739.536 1665 738.276 z"/>
<path transform="translate(0,0)" fill="rgb(255,255,255)" d="M 1379.86 1383.42 C 1416.43 1389.29 1448.19 1397.59 1484.09 1405.65 L 1484.42 1552.19 C 1484.45 1560.48 1485.13 1606.59 1484 1612.43 L 1482.16 1613.14 L 1388.75 1614.08 C 1385.23 1599.9 1385.62 1594.25 1384.6 1579.76 C 1384.18 1573.7 1381.51 1571.26 1376.95 1567.87 C 1375.03 1517.53 1376.03 1463.2 1376.11 1412.59 L 1380.02 1406.29 L 1379.86 1383.42 z"/>
<path transform="translate(0,0)" fill="rgb(88,88,88)" d="M 1413.01 1403.57 C 1423.52 1405.05 1434.73 1407.79 1445.03 1410.38 L 1445.02 1581.53 C 1434.32 1579.87 1423.65 1577.93 1413.05 1575.71 C 1413.35 1518.33 1413.34 1460.95 1413.01 1403.57 z"/>
<path transform="translate(0,0)" fill="rgb(255,255,255)" d="M 1613.4 743.172 C 1613.43 745.693 1599.94 770.069 1597.84 774.325 C 1567.53 835.637 1569.36 898.04 1573.21 965.348 C 1537.69 982.419 1501.69 998.469 1465.25 1013.48 C 1463.76 991.774 1464.03 979.544 1465.09 957.751 C 1468.21 900.124 1470.87 860.758 1507.09 811.697 C 1510.87 823.794 1516.37 834.747 1529.36 839.108 C 1536.63 841.511 1544.56 840.793 1551.28 837.127 C 1558.29 833.425 1563.54 827.094 1565.89 819.523 C 1568.14 811.926 1567.29 803.746 1563.53 796.772 C 1557.43 785.657 1547.56 782.431 1536.38 779.127 C 1554.41 766.057 1592.57 751.13 1613.4 743.172 z"/>
<path transform="translate(0,0)" fill="rgb(88,88,88)" d="M 1510.71 888.027 C 1521.91 886.41 1533.12 890.972 1540.01 899.958 C 1546.9 908.944 1548.4 920.951 1543.94 931.356 C 1539.47 941.761 1529.73 948.941 1518.46 950.131 C 1501.51 951.922 1486.23 939.807 1484.12 922.886 C 1482 905.964 1493.83 890.464 1510.71 888.027 z"/>
<path transform="translate(0,0)" fill="rgb(255,255,255)" d="M 1682.92 1151.1 C 1694.79 1155.4 1716.91 1166.02 1729.99 1171.46 L 1729.49 1555.38 C 1723.22 1555.31 1691.25 1545.57 1683.29 1543.46 C 1682.12 1497.89 1683.07 1448.3 1683.1 1402.4 L 1682.92 1151.1 z"/>
<path transform="translate(0,0)" fill="rgb(255,255,255)" d="M 1730.32 752.45 C 1743.25 756.029 1789.58 780.89 1801.95 788.878 C 1788.84 795.891 1779.03 804.812 1779.68 820.933 C 1780.1 829.536 1784 837.597 1790.5 843.251 C 1807.84 858.441 1825.42 850.403 1838.13 834.61 C 1842.4 841.424 1847.46 852.815 1851.08 860.279 C 1872.83 905.198 1879.11 944.722 1879.66 993.781 C 1879.31 1006.37 1878.99 1018.47 1878.09 1031.03 C 1845.03 1011.32 1812.76 990.537 1779.18 971.301 C 1779.17 951.023 1779.43 927.169 1778.54 907.175 C 1776.38 858.277 1758.3 792.568 1730.32 752.45 z"/>
<path transform="translate(0,0)" fill="rgb(88,88,88)" d="M 1823.33 896.716 C 1840.68 894.758 1856.33 907.232 1858.29 924.581 C 1860.26 941.93 1847.79 957.586 1830.44 959.554 C 1813.08 961.521 1797.42 949.046 1795.46 931.691 C 1793.49 914.336 1805.97 898.676 1823.33 896.716 z"/>
<path transform="translate(0,0)" fill="rgb(255,255,255)" d="M 1319.62 1384.1 L 1320.75 1385.52 C 1320.46 1401.66 1324.98 1412.38 1325.09 1425.27 C 1325.46 1473.12 1325.18 1521.27 1325.06 1569.12 C 1322.8 1570.86 1320.78 1572.63 1318.62 1574.48 L 1318.68 1600.32 C 1313.47 1604.72 1301.27 1612.13 1295.1 1616.12 C 1294.14 1559.57 1294.82 1500.59 1295.03 1443.87 C 1275.3 1452.14 1254.56 1458.64 1235.22 1467.32 C 1234.35 1467.71 1234.65 1470.79 1234.62 1471.75 L 1234.65 1624.03 L 1209.18 1624.05 L 1209.31 1425.98 C 1220.39 1421.11 1235.38 1416.04 1247.04 1411.62 L 1319.62 1384.1 z"/>
<path transform="translate(0,0)" fill="rgb(255,255,255)" d="M 1564.37 1009.9 C 1565.91 1010.24 1565.03 1009.89 1566.71 1011.49 C 1569.24 1034.3 1568.72 1054.35 1568.69 1077.19 L 1568.63 1153.84 C 1533.36 1168.17 1503.13 1183.43 1469.18 1198.11 L 1469.07 1125.75 C 1468.95 1102.68 1469.02 1079.6 1469.27 1056.53 C 1485.53 1039.46 1557.33 1041.7 1563.11 1031.3 C 1563.18 1027.6 1563.69 1028.82 1562.08 1025.96 C 1552.71 1022.46 1508.09 1035.32 1494.72 1038.05 C 1517.81 1027.52 1540.64 1018.87 1564.37 1009.9 z"/>
<path transform="translate(0,0)" fill="rgb(88,88,88)" d="M 1548.28 1093.09 C 1551.93 1092.74 1554.18 1092.17 1557.6 1093.49 C 1559.45 1096.78 1559.29 1139.35 1558.29 1144.94 C 1554.91 1147.79 1553.4 1147.3 1548.65 1148.19 C 1545.22 1150.81 1545.94 1153.65 1544.06 1156.84 C 1541.34 1161.45 1531.98 1164.05 1527.11 1165.67 C 1508.59 1159.69 1517.02 1157.29 1509.68 1145.15 C 1509.62 1137.27 1508.01 1113.88 1511.41 1109.24 C 1514.78 1108.52 1515.94 1107.9 1519.01 1109.4 C 1523.2 1114.43 1521.29 1129.51 1521.21 1137.19 C 1529.71 1136.68 1539.18 1135.62 1547.77 1134.89 C 1547.83 1121.11 1547.71 1106.81 1548.28 1093.09 z"/>
<path transform="translate(0,0)" fill="rgb(255,255,255)" d="M 1532.68 1148.53 C 1534.38 1148.12 1533.45 1148.13 1535.46 1148.74 C 1532.91 1152.79 1528.75 1153.47 1524.36 1153.46 C 1521.43 1151.8 1521.05 1152.26 1519.89 1149.77 C 1522.83 1148.19 1529.03 1148.58 1532.68 1148.53 z"/>
<path transform="translate(0,0)" fill="rgb(88,88,88)" d="M 1560.3 1061.17 C 1563.67 1061.28 1562.27 1060.72 1564.77 1062.54 C 1565.93 1066.07 1565.98 1065.81 1565.32 1069.45 C 1561 1076.13 1530.97 1080.86 1521.78 1083.73 C 1510.6 1087.23 1498.87 1088.91 1487.56 1093.58 L 1486.29 1094.11 C 1479.66 1093.98 1479.01 1086.89 1481.08 1082.03 C 1487.54 1079.22 1501.07 1076.68 1508.45 1074.72 C 1525.68 1070.15 1542.99 1065.38 1560.3 1061.17 z"/>
<path transform="translate(0,0)" fill="rgb(88,88,88)" d="M 1497.08 1099.28 C 1499.44 1100.07 1498.72 1099.75 1500.76 1101.13 C 1506.3 1111.64 1503.32 1155.45 1503.78 1169.51 C 1503.86 1172.06 1501.3 1172.82 1498.95 1174.2 C 1496.01 1174.1 1496.15 1174.2 1493.47 1173.06 C 1490.8 1166.81 1492.04 1115.19 1492.66 1105.04 C 1492.85 1101.82 1494.85 1100.95 1497.08 1099.28 z"/>
<path transform="translate(0,0)" fill="rgb(255,255,255)" d="M 1177.16 1225.91 C 1182.49 1227.04 1196.18 1231.91 1201.96 1233.82 L 1260.33 1253.56 C 1339.71 1279.71 1410.18 1305.52 1492.63 1323.92 C 1504.49 1336.36 1519.67 1348.72 1532.28 1360.62 C 1537.44 1365.48 1546.35 1372.54 1550.3 1377.91 C 1529.01 1378.71 1340.43 1326.99 1308.35 1317.78 C 1305.27 1316.89 1258.6 1283.64 1251.46 1278.25 C 1228.78 1261.13 1199.72 1243.18 1177.16 1225.91 z"/>
<path transform="translate(0,0)" fill="rgb(255,255,255)" d="M 1677.8 1116.01 C 1708.29 1130.23 1737.8 1142.49 1768.47 1155.87 L 1895.72 1211.32 C 1928.39 1225.19 1961.26 1238.44 1993.58 1253.16 C 1988.37 1258.01 1984.45 1260 1978.78 1265.87 C 1962.91 1257.28 1934.72 1246.37 1917.48 1239.15 L 1822.73 1199.34 C 1806.69 1192.73 1791.36 1184.95 1775.52 1177.92 L 1676.6 1135.03 C 1671.62 1137.95 1665.68 1140.6 1660.42 1143.11 L 1466.71 1230.01 C 1433.52 1244.67 1397.13 1262.2 1363.34 1275.1 L 1344.36 1268.82 C 1369.4 1257.03 1393.88 1246.97 1418.8 1235.6 C 1505.46 1196.45 1591.8 1156.59 1677.8 1116.01 z"/>
<path transform="translate(0,0)" fill="rgb(255,255,255)" d="M 1151.06 1221.34 C 1160.97 1227.57 1174.33 1237.63 1184.17 1244.62 L 1261.34 1300.33 C 1291.83 1322.24 1296.57 1329.42 1334.19 1338.36 C 1402.3 1354.53 1470.92 1376.54 1539.74 1389.5 C 1536.28 1393.54 1532.32 1397.63 1528.68 1401.55 C 1508.41 1395.24 1469.85 1388.69 1447.31 1384.11 C 1403.51 1375.33 1359.87 1365.76 1316.41 1355.41 C 1303.46 1348.21 1279.54 1330.32 1266.68 1321.53 C 1230.21 1296.59 1193.55 1268.57 1156.44 1244.79 C 1127.7 1303.08 1099.92 1361.84 1073.12 1421.05 L 1057.21 1415.57 C 1089.46 1351.35 1119.44 1285.57 1151.06 1221.34 z"/>
<path transform="translate(0,0)" fill="rgb(255,255,255)" d="M 1939.25 1261.36 C 1948.6 1264.93 1957.85 1268.72 1967.01 1272.74 L 1966.75 1621.93 L 1939.04 1615.5 L 1939.25 1261.36 z"/>
<path transform="translate(0,0)" fill="rgb(255,255,255)" d="M 1669.72 1151.95 L 1671.36 1152.68 C 1672.32 1163.54 1671.62 1185.14 1671.6 1196.69 L 1671.75 1275.33 L 1671.85 1542.76 C 1664.58 1544.96 1656.51 1548 1649.28 1550.53 C 1648.85 1549.86 1648.43 1549.18 1648 1548.5 C 1647.12 1519.35 1647.43 1478.46 1647.5 1450.4 L 1647.97 1161.79 L 1669.72 1151.95 z"/>
<path transform="translate(0,0)" fill="rgb(255,255,255)" d="M 1794.99 1022.96 C 1813.09 1034.73 1834.37 1046.78 1853.07 1057.89 C 1863.83 1096.07 1860.63 1128.85 1860.84 1168.25 C 1860.86 1172.07 1861.11 1178.55 1859.88 1181.81 L 1857.77 1181.41 C 1834.4 1171.74 1812.32 1161.54 1789.36 1151.86 C 1789.08 1111.31 1789.94 1070.19 1790.13 1029.61 C 1790.13 1028.02 1793.82 1024.22 1794.99 1022.96 z"/>
<path transform="translate(0,0)" fill="rgb(88,88,88)" d="M 1800.96 1087.54 C 1803.25 1087.75 1803.72 1087.9 1805.97 1088.41 C 1807.14 1090.21 1807.98 1091.81 1808.8 1093.79 C 1817.42 1094.42 1817.54 1091.98 1823 1091.85 C 1827.01 1091.75 1837.24 1104.79 1839.92 1108.2 C 1840.09 1119.57 1841.49 1152.21 1838.42 1160.69 C 1833.95 1162.86 1806.75 1153.91 1797.17 1152.31 C 1797.08 1136.43 1795.33 1100.57 1800.96 1087.54 z"/>
<path transform="translate(0,0)" fill="rgb(255,255,255)" d="M 1812.9 1102.63 C 1820.42 1103.38 1822.63 1104.8 1828.93 1109.11 C 1829.11 1113.98 1830.29 1129.7 1827.79 1133.1 L 1809.95 1128.48 C 1809.99 1119.37 1810.56 1111.44 1812.9 1102.63 z"/>
<path transform="translate(0,0)" fill="rgb(255,255,255)" d="M 1810.33 1143.33 C 1816.96 1142.27 1826.22 1142.83 1829.95 1148.97 C 1824.59 1149.3 1815 1146.23 1810.33 1143.33 z"/>
<path transform="translate(0,0)" fill="rgb(88,88,88)" d="M 1794.98 1058.29 C 1806.61 1062.98 1845.94 1081.86 1855.31 1088.71 C 1857.08 1092.15 1856.44 1091.33 1855.67 1096.07 C 1850.11 1098.18 1848.26 1097.68 1843.07 1094.76 C 1828.04 1086.27 1810.18 1078.91 1795.96 1069.33 C 1794.35 1066.15 1794.89 1062.01 1794.98 1058.29 z"/>
<path transform="translate(0,0)" fill="rgb(255,255,255)" d="M 1613.98 1009.24 C 1627.45 1009.54 1716.16 1010.33 1719.99 1013.39 C 1723.78 1024.59 1722.16 1104.04 1722.11 1122.48 C 1716.81 1120.19 1692.45 1110.42 1690.12 1107.03 L 1691.17 1106.38 C 1693.48 1107.56 1694.82 1108.53 1697.4 1108.52 C 1712.66 1099.24 1706.6 1068.79 1695.33 1060.82 C 1691.22 1059.93 1683.87 1062.41 1679.22 1063.53 C 1634.91 1077.39 1660.46 1105.54 1653.42 1113.69 C 1652.46 1114.81 1649.73 1115.81 1648.3 1115.84 C 1646.47 1115.88 1646.76 1111.67 1646.77 1110.21 C 1646.86 1099.11 1650.55 1072.73 1643.77 1064.53 C 1640.51 1063.56 1641.99 1063.38 1639.15 1064.82 C 1633.72 1072.72 1635.84 1110.42 1635.91 1122.5 L 1613.61 1132.08 C 1613.34 1108.6 1613.24 1085.12 1613.31 1061.63 C 1613.29 1044.93 1612.81 1025.71 1613.98 1009.24 z"/>
<path transform="translate(0,0)" fill="rgb(88,88,88)" d="M 1621.6 1037.93 C 1650.49 1036.41 1683.26 1040.6 1712.54 1040.37 C 1717.74 1040.32 1716.23 1048.91 1714.72 1052.05 C 1694.43 1051.12 1674.14 1050.33 1653.84 1049.68 C 1647.8 1049.53 1623.07 1049.41 1619.2 1048.6 L 1618.37 1046.1 C 1619.08 1041.5 1618.94 1041.7 1621.6 1037.93 z"/>
<path transform="translate(0,0)" fill="rgb(255,255,255)" d="M 1741.23 1176.55 C 1748.56 1179.36 1756.03 1182.45 1763.34 1185.37 C 1762.26 1249.17 1763.48 1314.39 1763.79 1378.25 C 1763.93 1440.64 1763.68 1503.03 1763.03 1565.41 L 1741.13 1559.27 L 1741.23 1176.55 z"/>
<path transform="translate(0,0)" fill="rgb(255,255,255)" d="M 1195.79 1431.11 L 1196.32 1431.62 C 1197.46 1435.51 1196.97 1476.96 1196.97 1484.33 L 1196.9 1624.06 C 1188.28 1624.09 1171.06 1624.63 1163.11 1623.67 C 1163.43 1607.2 1162.23 1608.33 1159.6 1593.06 C 1158.98 1582.91 1158.7 1571.24 1158.95 1561.15 C 1159.74 1529.59 1156.85 1497.48 1161.3 1466.2 C 1162.35 1458.81 1162.25 1451.48 1162.07 1444.03 C 1171.61 1439.81 1185.73 1434.92 1195.79 1431.11 z"/>
<path transform="translate(0,0)" fill="rgb(255,255,255)" d="M 1910.12 1249.7 C 1915.61 1251.51 1922.62 1254.66 1928.08 1256.94 L 1927.94 1612.67 C 1922.28 1610.86 1915.76 1609.16 1909.97 1607.52 L 1910.12 1249.7 z"/>
<path transform="translate(0,0)" fill="rgb(255,255,255)" d="M 1496.92 1407 L 1523.76 1412.69 C 1524.63 1471.87 1524.18 1535.96 1523.44 1595.11 L 1516.74 1598.44 L 1497.01 1608.38 L 1496.92 1407 z"/>
<path transform="translate(0,0)" fill="rgb(255,255,255)" d="M 1337.72 1415.16 L 1363.68 1415.24 L 1363.87 1567.31 L 1337.72 1567.66 C 1336.33 1518.66 1337.78 1464.66 1337.72 1415.16 z"/>
<path transform="translate(0,0)" fill="rgb(255,255,255)" d="M 1582.42 975.202 C 1599.62 974.051 1647.5 977.356 1666.82 978.126 L 1734.47 980.715 C 1746.27 981.254 1760.35 981.541 1771.89 983.213 L 1771.89 996.315 C 1759.85 993.989 1734.66 993.372 1721.74 992.754 C 1688.29 991.392 1654.85 989.862 1621.42 988.163 C 1601.58 987.956 1598.64 984.16 1578.68 990.346 C 1563.25 995.132 1477.02 1034.88 1469.36 1033.09 C 1468.87 1029.28 1468.66 1029.14 1469.55 1025.27 C 1473.17 1022.79 1478.11 1020.94 1482.25 1019.26 C 1516.09 1005.51 1549.18 990.345 1582.42 975.202 z"/>
<path transform="translate(0,0)" fill="rgb(255,255,255)" d="M 1472.87 841.876 C 1472.39 845.825 1469.28 853.494 1467.87 857.551 C 1452.85 900.978 1453.53 947.1 1450.85 992.624 C 1436.11 1006.96 1427.96 1022.93 1416.08 1039.92 C 1414.54 1033.57 1417.74 1013.31 1418.54 1005.49 C 1424.39 949.032 1440.32 888.907 1472.87 841.876 z"/>
<path transform="translate(0,0)" fill="rgb(255,255,255)" d="M 1653.26 696.35 C 1680.39 691.798 1713.69 705.931 1734.87 721.938 C 1734.22 726.683 1734.17 735.107 1734.02 740.149 C 1708.84 726.804 1700.68 721.286 1672.26 718.101 C 1639.2 716.992 1619.55 729.36 1588.07 739.142 L 1588.09 724.13 C 1606.41 710.135 1630.36 699.642 1653.26 696.35 z"/>
<path transform="translate(0,0)" fill="rgb(255,255,255)" d="M 1122.72 1479.94 L 1146.46 1480.05 C 1147.42 1516.35 1146.72 1557.73 1146.34 1594.09 L 1122.64 1594.19 C 1122.48 1556.11 1122.5 1518.02 1122.72 1479.94 z"/>
<path transform="translate(0,0)" fill="rgb(255,255,255)" d="M 1593.9 1019.44 C 1596.91 1019.19 1598.75 1018.73 1601.48 1019.97 C 1602.69 1024.99 1602.2 1050.36 1602.2 1057.35 C 1602.08 1084.16 1602.15 1110.97 1602.4 1137.77 L 1588.66 1144.01 C 1585.96 1145.3 1584.42 1146.31 1581.42 1146.48 C 1580.35 1137 1580.84 1114.28 1580.82 1104.06 L 1580.74 1020.03 L 1593.9 1019.44 z"/>
<path transform="translate(0,0)" fill="rgb(255,255,255)" d="M 1661.75 583.373 C 1688.47 579.006 1717.64 599.107 1736.85 615.293 C 1733.45 620.334 1729.26 625.785 1725.63 630.742 C 1722.89 626.058 1719.48 621.799 1715.51 618.099 C 1699.75 603.18 1682.01 597.655 1660.76 598.133 C 1636.09 600.833 1612.36 612.132 1602.95 636.496 C 1598.13 632.493 1592.92 627.227 1588.34 622.801 C 1610.1 600.618 1630.87 587.523 1661.75 583.373 z"/>
<path transform="translate(0,0)" fill="rgb(255,255,255)" d="M 1733.34 1024.85 C 1741.71 1024.9 1746.79 1025.03 1755.05 1026.04 L 1754.95 1136.3 L 1733.23 1127.11 L 1733.34 1024.85 z"/>
<path transform="translate(0,0)" fill="rgb(255,255,255)" d="M 1710.66 748.818 C 1720.38 756.043 1732.15 777.563 1737.37 788.425 C 1763.76 843.277 1770.15 909.758 1767.27 969.929 C 1763.3 970.147 1761.89 970.395 1758.07 969.628 C 1755 965.938 1756.75 936.776 1756.42 929.465 C 1755.44 907.521 1753.31 885.644 1750.04 863.922 C 1743.93 823.501 1730.59 784.511 1710.66 748.818 z"/>
<path transform="translate(0,0)" fill="rgb(255,255,255)" d="M 1653.72 527.295 C 1661.68 535.55 1660.49 557.383 1659.49 568.217 C 1641.63 571.443 1631.54 575.552 1615.5 584.084 C 1612.86 585.589 1614.19 585.466 1611.54 585.249 C 1611.13 584.527 1610.53 583.599 1610.5 582.769 C 1609.72 553.07 1625 533.409 1653.72 527.295 z"/>
<path transform="translate(0,0)" fill="rgb(255,255,255)" d="M 1627.71 747.836 C 1627.84 749.408 1608.45 795.949 1605.67 805.837 C 1596.21 839.397 1592.9 867.072 1591.33 901.99 C 1590.91 911.309 1591.88 958.818 1590.03 961.8 L 1585.28 962.422 C 1581.27 887.201 1579.55 811.886 1627.71 747.836 z"/>
<path transform="translate(0,0)" fill="rgb(255,255,255)" d="M 1666.97 526.474 C 1679.77 527.571 1694.44 533.957 1702.83 543.8 C 1712.7 555.372 1711.67 567.818 1710.49 581.773 C 1695 575.567 1691.16 569.617 1672.34 567.83 C 1673.89 549.989 1673.01 542.941 1666.97 526.474 z"/>
<path transform="translate(0,0)" fill="rgb(255,255,255)" d="M 1779.13 985.555 C 1783.72 987.81 1788.82 991.324 1793.18 994.138 C 1821.08 1012.16 1850.49 1027.84 1877.86 1046.68 C 1878.41 1052.72 1878.71 1054.32 1880.45 1060.13 C 1871.83 1053.11 1851.89 1042.28 1841.37 1036.07 C 1820.21 1023.57 1799.2 1010.84 1778.34 997.86 C 1778.86 994.042 1778.94 989.468 1779.13 985.555 z"/>
<path transform="translate(0,0)" fill="rgb(255,255,255)" d="M 1767.13 1027.48 C 1770.66 1028.01 1774.27 1027.97 1776.7 1030.3 C 1777.77 1038.81 1777.19 1062.09 1777.2 1071.61 L 1777.62 1145.61 C 1774.38 1144.89 1770.01 1142.84 1766.8 1141.51 L 1767.13 1027.48 z"/>
<path transform="translate(0,0)" fill="rgb(255,255,255)" d="M 1456.67 1069.87 C 1457.67 1073.63 1457.35 1109.62 1457.3 1117.12 C 1457.08 1145.66 1457.9 1174.76 1457.46 1203.23 C 1454.96 1206.59 1454.63 1205.93 1450.23 1207.95 L 1449.67 1207.39 C 1447.49 1199.82 1448.59 1090.03 1449.19 1075.06 C 1451.17 1072.23 1453.35 1071.67 1456.67 1069.87 z"/>
<path transform="translate(0,0)" fill="rgb(255,255,255)" d="M 1879.69 906.753 L 1880.87 903.379 C 1894.34 947.795 1902.33 986.556 1905.58 1032.93 C 1906.05 1039.68 1907 1048.49 1908.07 1055.13 C 1901.64 1049.51 1895.48 1045.1 1889.11 1039.82 C 1892.68 999.593 1895.25 965.592 1885.36 925.386 C 1884.36 921.318 1881.46 910.163 1879.69 906.753 z"/>
<path transform="translate(0,0)" fill="rgb(255,255,255)" d="M 1333.91 1373.35 C 1344.93 1375.67 1355.92 1378.09 1366.89 1380.64 C 1367.08 1387.59 1367 1394.94 1367.04 1401.93 C 1356.33 1402.17 1344.8 1401.97 1334.01 1401.97 L 1333.91 1373.35 z"/>
<path transform="translate(0,0)" fill="rgb(255,255,255)" d="M 1334.59 1579.49 C 1347.1 1579.25 1359.61 1579.3 1372.12 1579.64 C 1372.26 1585.91 1372.72 1592.84 1371.83 1598.97 L 1370.09 1600.05 L 1331.85 1600 C 1331.72 1594.72 1331.06 1584.96 1332.45 1580.33 L 1334.59 1579.49 z"/>
<path transform="translate(0,0)" fill="rgb(255,255,255)" d="M 1872.35 1097.26 C 1875.53 1097.46 1877.77 1097.31 1880.58 1098.78 C 1881.45 1107.76 1881.04 1122.43 1881.04 1131.85 L 1881 1191.2 C 1877.59 1189.73 1876.69 1189.5 1873.74 1187.08 C 1871.38 1179.69 1871.96 1108.81 1872.35 1097.26 z"/>
<path transform="translate(0,0)" fill="rgb(255,255,255)" d="M 1669.82 609.387 C 1673.63 610.051 1676.86 610.199 1679.62 612.756 C 1681.07 626.227 1680.01 667.522 1679.97 683.039 C 1675.6 682.714 1674.4 682.837 1670.42 681.281 C 1668.87 674.588 1669.77 619.396 1669.82 609.387 z"/>
<path transform="translate(0,0)" fill="rgb(255,255,255)" d="M 1703.74 622.736 C 1715.69 635.162 1715.53 646.664 1715.18 662.958 C 1714.98 672.831 1715.79 684.13 1714.5 693.826 C 1711.2 692.831 1707 691.131 1703.68 689.902 C 1703.39 668.885 1702.91 643.571 1703.74 622.736 z"/>
<path transform="translate(0,0)" fill="rgb(255,255,255)" d="M 1445.16 1021.64 C 1451.65 1023.72 1459.44 1026.19 1458.44 1034.5 C 1453.85 1038.51 1450.45 1033.05 1444.18 1040.49 C 1435.29 1051.04 1427.27 1062.05 1418.96 1073.08 C 1417.17 1075.92 1416.82 1076.72 1414.24 1079.02 C 1411.78 1077.35 1411.44 1073.77 1410.38 1070.29 C 1420.98 1054.25 1433.6 1037.1 1445.16 1021.64 z"/>
<path transform="translate(0,0)" fill="rgb(255,255,255)" d="M 1643.72 613.936 C 1644.75 617.291 1643.67 675.44 1643.02 681.413 C 1640.84 683.755 1637.67 683.723 1634.29 684.279 C 1633.02 677.672 1633.34 628.771 1633.29 619.317 C 1636.64 617.432 1640.28 615.676 1643.72 613.936 z"/>
<path transform="translate(0,0)" fill="rgb(255,255,255)" d="M 1617.47 631.607 C 1619.55 636.813 1618.79 683.505 1618.81 691.943 L 1608.41 697.42 C 1606.06 694.716 1606.7 684.806 1606.63 680.981 C 1606.28 660.501 1606.48 649.398 1617.47 631.607 z"/>
<path transform="translate(0,0)" fill="rgb(255,255,255)" d="M 1119.94 1606.48 C 1130.26 1606.34 1140.58 1606.37 1150.89 1606.55 C 1151.03 1611.98 1151.43 1617.6 1150.6 1622.92 L 1148.98 1623.86 L 1116.96 1623.65 C 1116.92 1617.86 1115.07 1609.67 1119.94 1606.48 z"/>
<path transform="translate(0,0)" fill="rgb(255,255,255)" d="M 1146.55 1445.9 C 1148.4 1445.86 1147.47 1445.6 1149.19 1447.1 C 1150.18 1453.43 1149.69 1460.98 1149.51 1467.5 C 1140.75 1467.58 1131.55 1467.36 1122.75 1467.28 L 1120.09 1466.82 C 1117.94 1462.76 1118.83 1454.76 1119.02 1449.81 C 1131.29 1452.2 1135.01 1450.15 1146.55 1445.9 z"/>
<path transform="translate(0,0)" fill="rgb(255,255,255)" d="M 1893.03 1098.27 C 1894.11 1098.55 1896.48 1099.12 1896.55 1099.93 C 1898.16 1118.57 1898.14 1182.81 1897.28 1197.76 L 1894.19 1197.7 C 1890.5 1192.3 1892.6 1111.03 1893.03 1098.27 z"/>
<path transform="translate(0,0)" fill="rgb(255,255,255)" d="M 1430.96 1122.19 L 1432.83 1123.06 C 1436.03 1128.59 1433.06 1201.41 1433.94 1212.76 C 1434.08 1214.56 1433.18 1216.16 1432.2 1217.63 C 1431.57 1217.27 1429.93 1216.61 1429.94 1215.85 C 1430.15 1200.01 1426.1 1133.38 1430.96 1122.19 z"/>
<path transform="translate(0,0)" fill="rgb(255,255,255)" d="M 1660.35 489.705 C 1670.64 494.561 1670.96 503.346 1673.65 513.704 L 1662.17 513.15 L 1647.24 514.343 C 1649.6 500.292 1649.4 498.19 1660.35 489.705 z"/>
<path transform="translate(0,0)" fill="rgb(255,255,255)" d="M 1675.37 1077.83 C 1682.21 1079.42 1697.27 1079.55 1695.22 1090.38 C 1692.92 1093.52 1693.04 1093.35 1689.5 1095.08 C 1687.35 1094.39 1685.8 1089.74 1684.06 1086.72 C 1674.9 1089.83 1675.61 1096.48 1665.51 1095.62 C 1660.58 1090.71 1671.71 1080.7 1675.37 1077.83 z"/>
<path transform="translate(0,0)" fill="rgb(255,255,255)" d="M 1432.87 1078.03 L 1433.53 1079.08 C 1433.69 1085.17 1434.8 1106.67 1432.87 1110.28 C 1429.65 1111.62 1428.05 1111.04 1424.59 1110.55 C 1423.55 1103.13 1422.51 1096.76 1421.05 1089.41 L 1432.87 1078.03 z"/>
<path transform="translate(0,0)" fill="rgb(255,255,255)" d="M 1891.04 1057.33 C 1897.66 1061.05 1904.58 1066.83 1910.66 1071.6 C 1910.91 1076.02 1910.88 1081.05 1910.96 1085.52 C 1905.22 1081.43 1896.66 1073.73 1891.05 1068.98 L 1891.04 1057.33 z"/>
<path transform="translate(0,0)" fill="rgb(255,255,255)" d="M 1866.43 1066.53 C 1869.29 1067.7 1888.62 1084.69 1893.12 1088.05 C 1887.87 1086.72 1877.38 1085.43 1871.66 1084.57 C 1870.95 1076.49 1870.44 1073.55 1866.43 1066.53 z"/>
<path transform="translate(0,0)" fill="rgb(255,255,255)" d="M 1732.65 1006.42 C 1738.84 1006.6 1750.69 1005.47 1756.07 1008.31 C 1757.12 1008.86 1756.78 1012.45 1756.82 1013.87 C 1749.17 1013.14 1742.11 1014.62 1735.23 1012.68 C 1732.45 1010.32 1733.33 1011.13 1732.65 1006.42 z"/>
<path transform="translate(0,0)" fill="rgb(255,255,255)" d="M 1656.03 434.449 C 1658.1 433.397 1660.58 433.555 1662.5 434.862 C 1664.42 436.169 1665.48 438.417 1665.26 440.728 C 1665.04 443.04 1663.57 445.048 1661.44 445.969 C 1658.29 447.332 1654.62 445.942 1653.16 442.83 C 1651.69 439.718 1652.97 436.007 1656.03 434.449 z"/>
<path transform="translate(0,0)" fill="rgb(255,255,255)" d="M 1589.82 1002.2 C 1593.93 1002.03 1600.81 1000.87 1603.13 1004.85 L 1602.47 1006.71 C 1599.98 1007.88 1599.18 1007.53 1596.25 1007.58 C 1588.72 1007.78 1582.49 1007.98 1575 1007.47 C 1580.93 1004.91 1583.57 1003.91 1589.82 1002.2 z"/>
<path transform="translate(0,0)" fill="rgb(255,255,255)" d="M 1451.22 1050.6 C 1454.45 1050.83 1457.45 1050.56 1459.84 1052.47 C 1458.79 1055.47 1457.57 1055.75 1454.86 1058.2 C 1451.23 1059.06 1449.67 1059.88 1446.97 1058.49 C 1447.04 1055.47 1449.32 1053.2 1451.22 1050.6 z"/>
<path transform="translate(0,0)" fill="rgb(255,255,255)" d="M 1771.07 1009.17 C 1774.97 1010.5 1782.15 1013.23 1783.29 1017.3 C 1778.29 1017.15 1771.98 1018.23 1769.39 1013.69 L 1771.07 1009.17 z"/>
<path transform="translate(0,0)" fill="rgb(157,157,161)" d="M 1879.69 906.753 C 1877.9 901.224 1876.73 898.071 1876 892.209 L 1876.25 892.824 L 1877.33 893.335 C 1878.63 896.118 1879.88 900.37 1880.87 903.379 L 1879.69 906.753 z"/>
<path transform="translate(0,0)" fill="rgb(214,169,38)" d="M 0 788.347 L 1095.23 788.673 L 1392.72 788.757 C 1427.68 788.812 1467.69 787.433 1501.93 788.294 C 1498.53 791.98 1484.92 807.013 1481.96 809.192 C 1466.14 808.488 1444.48 809.202 1428.31 809.235 L 1328.63 809.222 L 998.205 808.935 L 0 809.021 L 0 788.347 z"/>
<path transform="translate(0,0)" fill="rgb(214,169,38)" d="M 0 1095.03 L 1301.57 1095.01 L 1301.53 1117.14 L 0 1116.86 L 0 1095.03 z"/>
<path transform="translate(0,0)" fill="rgb(214,169,38)" d="M 89.6379 859.389 C 110.173 860.202 128.55 865.962 144.439 879.395 C 162.653 894.652 174.03 916.544 176.048 940.218 C 177.97 964.166 170.152 987.877 154.364 1005.99 C 136.74 1026.12 117.168 1034.22 91.0715 1035.98 C -27.9297 1031.74 -22.7327 868.14 89.6379 859.389 z"/>
<path transform="translate(0,0)" fill="rgb(255,255,255)" d="M 83.3561 871.896 C 125.337 868.201 162.408 899.135 166.289 941.099 C 170.171 983.063 139.403 1020.27 97.4568 1024.34 C 55.2449 1028.43 17.7494 997.429 13.8433 955.199 C 9.93714 912.97 41.1094 875.613 83.3561 871.896 z"/>
<path transform="translate(0,0)" fill="rgb(214,169,38)" d="M 82.4434 877.868 C 121.166 873.636 156.027 901.498 160.434 940.201 C 164.841 978.904 137.137 1013.89 98.4541 1018.47 C 59.5231 1023.08 24.2634 995.163 19.828 956.212 C 15.3926 917.261 43.4723 882.127 82.4434 877.868 z"/>
<path transform="translate(0,0)" fill="rgb(255,255,255)" d="M 78.3218 889.446 C 88.2493 889.254 98.18 889.305 108.105 889.599 L 108.131 922.966 C 120.372 922.685 133.528 922.977 145.847 923.049 L 145.817 955.015 L 108.088 954.982 C 108.114 962.833 109.294 994.633 106.745 998.821 L 103.25 999.33 L 76.3226 999.495 L 76.0655 955.394 C 62.8373 955.306 49.6086 955.372 36.382 955.592 L 36.348 921.874 L 76.6201 921.998 C 76.6065 916.153 75.5775 892.619 78.3218 889.446 z"/>
<path transform="translate(0,0)" fill="rgb(0,0,0)" d="M 549.408 871.973 C 570.668 869.572 589.933 884.646 592.715 905.859 C 595.497 927.073 580.77 946.604 559.61 949.766 C 545.58 951.862 531.512 946.223 522.815 935.016 C 514.118 923.809 512.147 908.781 517.661 895.711 C 523.174 882.641 535.313 873.565 549.408 871.973 z"/>
<path transform="translate(0,0)" fill="rgb(255,255,255)" d="M 551.563 885.27 C 556.007 885.365 559.732 885.602 563.871 887.451 C 570.109 890.175 574.925 895.381 577.155 901.811 C 579.49 908.477 579.061 915.8 575.964 922.147 C 571.815 930.603 566.359 933.268 558.165 936.308 C 524.918 939.94 517.341 893.043 551.563 885.27 z"/>
<path transform="translate(0,0)" fill="rgb(0,0,0)" d="M 664.745 872.224 L 679.047 872.473 C 679.464 897.549 678.989 923.937 678.928 949.114 L 663.448 949.042 C 649.767 930.108 638.612 914.617 623.359 897.152 C 623.387 905.354 624.029 942.653 622.76 948.334 L 621.14 949.049 C 616.442 949.101 615.322 949.225 610.831 948.222 C 608.405 944.286 609.431 882.121 609.446 873.091 L 622.593 873.042 C 635.993 891.645 651.083 909.622 664.701 928.574 L 664.745 872.224 z"/>
<path transform="translate(0,0)" fill="rgb(0,0,0)" d="M 376.686 872.247 C 380.851 872.203 385.161 872.379 389.338 872.482 C 401.713 889.967 416.499 908.268 429.765 925.232 C 430.378 908.594 429.884 889.257 429.857 872.418 L 444.257 872.451 C 444.373 897.924 444.339 923.398 444.155 948.871 L 431.433 948.909 C 417.852 931.834 404.327 913.756 390.999 896.423 L 390.861 948.722 L 376.535 948.693 C 376.554 923.622 375.86 897.177 376.686 872.247 z"/>
<path transform="translate(0,0)" fill="rgb(0,0,0)" d="M 1001.06 873.025 L 1013.83 872.931 C 1027.56 890.232 1041.03 907.037 1053.77 925.08 C 1054.32 908.577 1053.93 890.01 1053.94 873.35 L 1068.02 873.471 C 1068.01 883.309 1069.71 944.472 1066.71 948.855 L 1055.38 948.79 L 1014.35 893.421 L 1014.28 948.258 L 1000.6 948.089 C 1000.42 923.339 1000.9 897.833 1001.06 873.025 z"/>
<path transform="translate(0,0)" fill="rgb(0,0,0)" d="M 801.659 873.226 C 805.744 873.175 813.257 873.425 817.488 873.097 C 837.326 871.555 857.132 881.554 847.774 904.129 C 845.142 910.475 840.155 912.761 833.633 914.907 C 841.493 922.883 853.407 939.104 859.209 948.764 L 842.801 948.867 C 836.853 939.992 824.605 921.775 816.639 915.614 L 816.589 948.891 L 802.45 948.848 C 801.135 926.538 801.665 896.083 801.659 873.226 z"/>
<path transform="translate(0,0)" fill="rgb(255,255,255)" d="M 816.36 885.059 C 829.545 884.923 842.063 887.436 831.951 903.847 C 827.25 906.515 822.521 908.665 817.733 905.676 C 814.91 900.116 816.125 891.654 816.36 885.059 z"/>
<path transform="translate(0,0)" fill="rgb(0,0,0)" d="M 320.392 873.259 L 335.791 873.309 C 345.165 898.285 355.318 923.544 365.041 948.428 C 360.159 948.669 354.933 948.693 350.016 948.807 L 344.537 932.716 L 333.264 932.771 L 310.681 932.852 L 304.858 948.793 L 289.539 948.673 C 297.777 925.503 310.466 896.053 320.392 873.259 z"/>
<path transform="translate(0,0)" fill="rgb(255,255,255)" d="M 327.561 888.706 C 330.867 892.499 337.942 915.524 339.963 921.585 L 329.087 921.78 L 314.705 921.768 C 318.728 910.486 323.069 899.802 327.561 888.706 z"/>
<path transform="translate(0,0)" fill="rgb(0,0,0)" d="M 746.128 872.735 L 760.182 872.705 L 789.869 948.429 L 775.927 948.544 C 772.13 939.236 773.268 932.988 762.25 932.556 L 737.8 932.459 C 735.571 937.839 733.259 943.184 730.867 948.494 L 716.73 948.412 L 746.128 872.735 z"/>
<path transform="translate(0,0)" fill="rgb(255,255,255)" d="M 751.696 889.749 C 754.494 892.564 762.351 915.145 763.74 920.096 L 763.146 920.886 L 756.673 921.133 L 741.386 921.056 L 751.696 889.749 z"/>
<path transform="translate(0,0)" fill="rgb(0,0,0)" d="M 223.205 872.279 L 237.873 872.379 L 237.991 905.919 C 247.67 894.923 257.8 883.021 267.997 872.637 L 285.581 872.818 C 274.908 884.223 263.545 896.063 253.929 908.3 C 261.025 915.728 266.921 923.022 273.242 931.038 C 278.007 936.984 282.043 942.444 286.489 948.641 L 268.161 948.791 C 261.129 937.795 253.408 928.197 245.015 918.293 L 237.53 924.315 C 237.61 932.443 237.55 940.573 237.349 948.699 L 223.249 948.531 C 223.077 923.114 223.062 897.696 223.205 872.279 z"/>
<path transform="translate(0,0)" fill="rgb(0,0,0)" d="M 940.647 873.072 L 983.899 873.276 L 984.035 885.996 L 954.465 885.892 L 954.289 903.943 L 980.45 903.873 L 980.406 915.461 C 975.005 915.382 958.984 914.597 954.555 916.536 L 954.07 918.75 L 954.051 935.758 L 985.01 935.733 L 984.968 948.434 L 940.597 948.686 L 940.647 873.072 z"/>
<path transform="translate(0,0)" fill="rgb(0,0,0)" d="M 857.959 872.903 L 875.02 872.882 C 880.12 892.313 887.274 912.085 893.23 931.46 C 899.066 912.298 906.612 891.975 913.292 872.971 L 927.772 873.116 L 923.424 886.244 C 916.642 906.332 907.483 929.36 899.458 948.876 L 887.157 948.865 C 878.14 930.17 865.951 894.018 857.959 872.903 z"/>
<path transform="translate(0,0)" fill="rgb(0,0,0)" d="M 1145.76 873.401 L 1188.65 873.345 L 1188.5 885.429 L 1159.25 885.444 L 1159.2 904.016 L 1184.78 904.011 L 1184.61 916.009 C 1177.63 915.942 1166.65 915.498 1160.07 916.421 L 1159.01 917.998 L 1159.02 936.044 L 1187.24 935.979 L 1187.23 947.912 C 1173.48 947.794 1159.58 947.95 1145.82 948.006 C 1145.69 923.445 1145.22 897.858 1145.76 873.401 z"/>
<path transform="translate(0,0)" fill="rgb(0,0,0)" d="M 1276.64 872.198 C 1286.64 871.523 1292.82 873.534 1301.28 878.139 C 1300.32 880.771 1296.89 889.444 1295.72 889.713 C 1291.49 890.246 1277.29 878.619 1272.81 887.444 C 1263.69 905.408 1299.47 903.357 1302.2 919.589 C 1305.39 938.604 1296.9 945.451 1281.11 948.941 C 1272.61 949.17 1261.57 948.151 1256.03 940.935 C 1255.22 937.461 1255.66 937.019 1256.61 933.596 C 1262.24 928.003 1270 939.714 1280.16 935.821 C 1293.35 932.53 1287.03 920.88 1278.18 917.529 C 1253 907.99 1244.41 880.969 1276.64 872.198 z"/>
<path transform="translate(0,0)" fill="rgb(0,0,0)" d="M 1088.63 873.285 C 1103.13 873.268 1117.63 873.329 1132.13 873.469 L 1132.14 885.774 L 1102.14 885.855 L 1102.08 904.095 L 1126.87 904.061 C 1126.92 907.709 1127.55 913.48 1125.81 916.327 L 1102.02 916.705 C 1102.08 927.394 1102.02 938.084 1101.82 948.772 L 1088.74 948.785 C 1088.25 924.048 1088.52 898.069 1088.63 873.285 z"/>
<path transform="translate(0,0)" fill="rgb(0,0,0)" d="M 457.133 872.579 L 506.963 872.859 L 506.951 885.827 L 489.104 885.862 L 489.048 930.5 L 488.989 948.959 L 474.057 948.953 L 474.081 885.255 L 457.181 885.184 L 457.133 872.579 z"/>
<path transform="translate(0,0)" fill="rgb(0,0,0)" d="M 1204.18 873.183 L 1218.31 873.164 L 1218.64 936.192 C 1227.98 936.354 1239 933.905 1245.57 937.653 C 1247.82 941.696 1247 942.94 1246.94 948.004 L 1204.59 948.169 C 1204.26 923.175 1204.12 898.179 1204.18 873.183 z"/>
<path transform="translate(0,0)" fill="rgb(0,0,0)" d="M 946.047 988.319 C 948.996 988.66 949.744 988.495 952.297 990.011 C 953.041 996.091 953.218 1035.41 951.111 1039.05 C 946.762 1039.02 946.265 1035.36 945.302 1035.65 C 936.174 1038.43 936.784 1040.01 927.127 1037.56 C 919.078 1030.69 916.254 1019.5 922.897 1010.65 C 925.192 1007.53 928.66 1005.48 932.501 1004.97 C 938.107 1004.27 941.645 1006.79 945.891 1009.92 L 946.047 988.319 z"/>
<path transform="translate(0,0)" fill="rgb(255,255,255)" d="M 932.012 1010.05 C 947.755 1009.1 950.312 1024.62 940.11 1032.94 C 923.347 1034.52 922.721 1019.36 932.012 1010.05 z"/>
<path transform="translate(0,0)" fill="rgb(0,0,0)" d="M 1120.75 989.182 C 1124.66 989.589 1125.1 988.928 1127.46 991.045 C 1127.62 1006.39 1127.8 1021.73 1127.59 1037.07 C 1127.13 1037.58 1126.66 1038.09 1126.2 1038.61 C 1122.79 1037.8 1123.74 1037.85 1120.91 1034.62 C 1113.88 1035.9 1116.95 1039.71 1105.61 1038.6 C 1101.59 1036.08 1099.29 1034.52 1097.13 1030.08 C 1094.85 1025.42 1094.57 1020.04 1096.37 1015.17 C 1097.95 1010.93 1101.2 1007.53 1105.36 1005.76 C 1111.26 1003.26 1115.3 1004.73 1120.76 1007.12 L 1120.75 989.182 z"/>
<path transform="translate(0,0)" fill="rgb(255,255,255)" d="M 1109.99 1009.8 C 1124.47 1010.13 1125.04 1024.53 1114.2 1032.41 C 1099.38 1031.81 1098.69 1017.05 1109.99 1009.8 z"/>
<path transform="translate(0,0)" fill="rgb(0,0,0)" d="M 1016.55 1022.55 C 1019.27 1015.69 1026.4 993.828 1032.22 992.233 C 1038.98 997.911 1040.25 1037.25 1032.82 1039.12 L 1031.23 1037.9 C 1029.59 1033.47 1030.14 1016.79 1030.1 1010.75 C 1030.01 1009.78 1029.66 1008.79 1029.39 1007.82 C 1024.76 1012.65 1023.76 1028.16 1014.69 1030.33 C 1009.62 1027.64 1004.34 1010.78 1001.42 1004.05 C 1001.14 1014.53 1001.42 1025.15 1001.25 1035.63 C 1001.21 1038.09 999.194 1039.42 997.604 1040.64 L 995.916 1040.21 C 992.474 1035.88 993.462 995.905 997.933 991.551 C 998.666 991.649 1001.06 991.928 1001.55 992.197 C 1006.62 995.009 1014.16 1016.61 1016.55 1022.55 z"/>
<path transform="translate(0,0)" fill="rgb(0,0,0)" d="M 235.987 992.167 L 241.059 992.212 C 245.15 994.898 260.015 1030.49 262.725 1037.49 L 261.483 1038.87 L 259.151 1038.78 C 250.996 1033.23 254.315 1029.78 244.52 1029.5 L 227.415 1029.45 C 226.287 1032.15 225.13 1034.83 223.943 1037.5 C 221.139 1039.41 222.046 1038.81 217.638 1038.25 L 216.786 1036.8 C 218.524 1029.67 232.173 1001.52 235.987 992.167 z"/>
<path transform="translate(0,0)" fill="rgb(255,255,255)" d="M 239.034 1000.49 C 241.337 1005.29 249.64 1019.33 246.662 1023.76 L 242.25 1023.96 L 229.355 1023.91 C 232.178 1016.16 235.784 1008.11 239.034 1000.49 z"/>
<path transform="translate(0,0)" fill="rgb(0,0,0)" d="M 292.355 1003.96 C 302.935 1003.79 300.433 1007.86 306.441 1009.86 C 309.807 1010.97 314.825 1002.02 324.092 1005.32 C 329.629 1011.14 331.966 1033.3 328.361 1038.97 L 325.504 1039.38 C 318.87 1033.73 329.38 1004.49 312.212 1011.12 C 307.264 1016.36 307.518 1019.95 307.62 1026.75 C 307.691 1033.35 309.937 1038.96 303.389 1039.91 C 298.308 1036.14 303.938 1018.04 298.941 1012.22 C 295.923 1010.32 296.177 1010.28 292.651 1010.36 C 281.273 1016.17 289.958 1031.94 283.247 1039.54 L 280.937 1039.56 L 280.063 1038.43 C 279.272 1032.46 276.346 1005.47 282.461 1003.96 C 283.755 1006.6 283.661 1006.47 285.774 1008.53 C 289.31 1008.2 289.042 1007.25 292.355 1003.96 z"/>
<path transform="translate(0,0)" fill="rgb(0,0,0)" d="M 556.384 990.229 C 557.949 990.24 561.94 990.078 562.666 991.343 C 565.558 996.382 564.056 1007.21 564.027 1013.13 C 568.795 1006.94 573.837 1000.11 579.108 994.379 C 582.786 990.38 584.09 991.072 588.773 991.001 L 589.453 991.915 C 586.112 997.53 577.166 1007.55 572.315 1014.49 L 585.801 1030.61 C 588.418 1033.34 589.383 1034.12 591.238 1037.52 L 590.274 1038.73 C 580.033 1039.37 571.752 1024.58 564.33 1017.28 C 563.906 1024.43 564.675 1030.68 563.517 1037.84 C 560.6 1039.35 561.977 1038.72 557.842 1038.28 C 555.75 1033.47 556.391 997.933 556.384 990.229 z"/>
<path transform="translate(0,0)" fill="rgb(0,0,0)" d="M 1180.92 1005.03 C 1183.25 1004.93 1186 1004.77 1188.28 1005.11 C 1194.26 1006.02 1200.88 1013.94 1199.82 1019.95 C 1194.35 1026.39 1179.68 1020.35 1175.82 1026.36 C 1178.71 1035.22 1187.31 1033.19 1193.98 1031.22 L 1194.77 1030.49 L 1196.46 1030.93 L 1197.2 1032.89 C 1196.54 1034.26 1196.28 1035.56 1194.87 1036.26 C 1171.89 1047.88 1157.09 1016.43 1180.92 1005.03 z"/>
<path transform="translate(0,0)" fill="rgb(255,255,255)" d="M 1181.95 1009.83 C 1186.7 1009.85 1190.72 1010.88 1192.12 1015.99 L 1190.94 1017.99 L 1186.75 1018.6 C 1182.75 1018.69 1177.45 1019.79 1175.67 1015.79 C 1177 1012.71 1179.13 1011.76 1181.95 1009.83 z"/>
<path transform="translate(0,0)" fill="rgb(0,0,0)" d="M 1065.1 1004.98 C 1074.54 1004.37 1084.26 1010.9 1082.61 1020.37 C 1076.16 1027.3 1064.66 1020.71 1059.88 1026.39 C 1061.65 1035.82 1070.56 1033.39 1076.74 1031.14 L 1077.74 1030.58 L 1078.93 1031.86 C 1077.22 1038.47 1068.88 1040.6 1063.56 1038.63 C 1045.45 1031.94 1051.13 1012.43 1065.1 1004.98 z"/>
<path transform="translate(0,0)" fill="rgb(255,255,255)" d="M 1068.02 1009.75 C 1072.17 1011.29 1074.78 1012.53 1075.43 1017.3 C 1073.18 1019.84 1074.62 1018.81 1070.16 1019.34 C 1065.86 1019.34 1063.86 1019.94 1060.88 1017.49 L 1060.87 1015.42 C 1063.53 1011.96 1064.06 1011.89 1068.02 1009.75 z"/>
<path transform="translate(0,0)" fill="rgb(0,0,0)" d="M 410.196 991.132 C 420.36 990.897 425.796 990.11 435.399 993.28 L 435.431 995.586 C 428.775 997.944 425.01 997.564 417.958 997.544 L 417.95 1012.08 C 423.391 1012.12 429.416 1010.56 431.479 1016.6 C 428.938 1018.88 430.485 1018.01 426.077 1018.11 C 424.153 1018.26 422.231 1018.43 420.312 1018.63 C 414.051 1025.21 420.321 1028.7 417.644 1037.45 C 414.908 1040.25 415.504 1039.33 410.272 1039.66 C 410.043 1023.58 410.193 1007.23 410.196 991.132 z"/>
<path transform="translate(0,0)" fill="rgb(0,0,0)" d="M 718.483 1003.73 L 722.672 1004.09 C 729.075 1010.9 717.797 1041.4 737.867 1031.47 C 745.436 1022.78 738.905 1008.61 745.204 1003.7 L 747.495 1004.46 C 749.101 1007.55 748.561 1010.98 748.544 1014.75 C 748.687 1021.21 750.171 1036.25 746.643 1040.35 C 743.305 1039.44 744.604 1038.63 741.652 1034.64 C 715.666 1053.02 717.894 1019.59 718.483 1003.73 z"/>
<path transform="translate(0,0)" fill="rgb(0,0,0)" d="M 632.425 1002.66 C 634.958 1003.05 634.902 1002.9 637.013 1004.28 C 639.387 1009.47 640.298 1035.81 637.214 1039.68 L 635.123 1038.84 L 633.562 1034.74 C 627.977 1031.64 610.98 1052.17 607.37 1024.62 C 607.324 1019.08 605.744 1006.56 610.095 1003.66 L 611.827 1004.13 C 616.616 1012.29 609.964 1029.7 620.422 1033.78 C 636.099 1031.62 631.566 1015.16 632.425 1002.66 z"/>
<path transform="translate(0,0)" fill="rgb(0,0,0)" d="M 1230.96 1004.13 C 1233.09 1004.05 1236.1 1003.91 1238.07 1004.67 C 1248.26 1008.6 1248.9 1029.72 1245.91 1037.84 C 1242.35 1039.22 1244.24 1038.83 1239.85 1038.16 C 1235.94 1030.73 1247.46 1011.66 1229.84 1009.71 C 1219.26 1016.75 1224.04 1025.77 1222.9 1037.01 C 1220.6 1038.99 1221.87 1038.18 1218.62 1038.81 C 1214.82 1036.06 1215.35 1008.75 1217.47 1006.16 C 1226.92 1007.09 1222.52 1009.26 1230.96 1004.13 z"/>
<path transform="translate(0,0)" fill="rgb(0,0,0)" d="M 470.991 1002.33 C 472.321 1002.89 472.536 1003.22 473.71 1004.12 C 475.024 1009.59 476.939 1036.49 472.196 1039.21 C 474.068 1040.06 464.479 1035.46 468.284 1036.9 C 462.672 1034.77 457.702 1041.32 449.771 1036.95 C 445.517 1032.28 444.945 1027.4 444.839 1021.25 C 444.839 1016.85 444.157 1007.19 446.14 1004.19 L 448.577 1004.11 C 454.299 1008.66 448.915 1020.49 452.351 1027.61 C 452.495 1029.42 458.272 1033.3 459.957 1033.12 C 473.57 1031.7 464.091 1008.89 470.991 1002.33 z"/>
<path transform="translate(0,0)" fill="rgb(0,0,0)" d="M 826.404 1003.32 L 830.671 1003.81 C 836.825 1009.92 828.637 1031.96 838.207 1033.22 C 856.23 1035.61 847.231 1013.64 850.205 1004.55 C 853.108 1003.6 851.616 1003.86 854.852 1004.51 C 856.756 1007.46 856.023 1009.66 855.984 1013.71 C 856.108 1020.25 857.509 1035.03 854.042 1039.16 C 850.634 1038.82 852.215 1038.64 848.613 1035.04 C 822.35 1050.34 826.015 1019.31 826.404 1003.32 z"/>
<path transform="translate(0,0)" fill="rgb(0,0,0)" d="M 874.577 1003.25 C 878.476 1004.63 877.961 1004.7 879.566 1007.92 C 884.207 1008.11 885.564 1004.55 888.79 1003.85 C 908.01 999.668 906.169 1030.88 900.933 1040.02 L 898.418 1039.37 C 897.445 1032.86 897.5 1025.41 897.353 1018.75 C 896.938 1015.13 896.91 1013.75 894.533 1011.02 C 876.46 1001.74 883.013 1033.57 877.636 1039.39 L 875.431 1038.33 C 873.606 1034.09 874.043 1008.9 874.577 1003.25 z"/>
<path transform="translate(0,0)" fill="rgb(0,0,0)" d="M 686.537 993.546 L 691.145 993.97 C 693.826 996.301 692.622 998.34 693.355 1003.52 C 696.123 1005.97 697.331 1005.03 702.05 1005.97 L 703.031 1008.04 C 701.578 1010.45 699.214 1009.82 694.942 1010.99 C 690.858 1017.74 691.401 1027.44 697.016 1033.11 C 699.734 1034.1 700.809 1034.64 703.215 1036.24 C 700.466 1039.38 700.227 1039.37 696.127 1040.7 C 685.827 1038.97 688.181 1021.97 687.318 1014.21 C 686.572 1007.51 685.409 1012.42 681.103 1008.49 L 681.668 1006.08 L 685.291 1004.49 C 687.204 1001.82 686.576 997.084 686.537 993.546 z"/>
<path transform="translate(0,0)" fill="rgb(0,0,0)" d="M 351.621 995.105 C 355.77 995.511 355.337 994.775 357.651 997.049 C 357.8 999.225 357.637 1001.18 357.379 1003.35 C 361.456 1007.22 362.761 1003.38 369.238 1006.46 L 369.511 1007.98 C 366.486 1009.68 361.864 1009.51 358.239 1009.72 C 358.09 1016.91 358.283 1024.43 358.363 1031.65 C 363.429 1032.47 364.64 1032.52 369.267 1034.46 C 366.444 1038.89 363.548 1039.87 358.444 1038.29 C 347.062 1034.78 355.24 1017.07 351.026 1010.25 C 348.345 1009.87 347.086 1009.95 344.792 1008.56 L 345.068 1006.62 C 347.058 1005.62 348.882 1004.78 350.908 1003.86 C 352.761 999.983 351.99 1000.11 351.621 995.105 z"/>
<path transform="translate(0,0)" fill="rgb(0,0,0)" d="M 658.602 988.637 C 661.497 988.839 661.843 988.939 664.657 989.713 C 666.077 994.545 665.204 1032.48 665.113 1040.25 C 661.379 1039.8 661.794 1040.44 659.415 1038.41 C 658.253 1030.33 658.693 997.946 658.602 988.637 z"/>
<path transform="translate(0,0)" fill="rgb(0,0,0)" d="M 514.534 1002.89 C 515.846 1004.22 515.531 1004.18 516.297 1006.09 C 514.656 1010.34 505.216 1012.46 503.23 1016.42 C 500.71 1021.46 503.344 1032.8 500.84 1038.38 C 498.06 1038.68 498.161 1038.87 495.702 1037.64 L 495.38 1035.25 C 495.302 1027.99 492.339 1005.92 499.788 1003.72 L 501.248 1004.81 L 501.506 1010.16 L 503.277 1009.88 C 507.683 1006.12 508.929 1004.52 514.534 1002.89 z"/>
<path transform="translate(0,0)" fill="rgb(0,0,0)" d="M 768.114 1003.69 C 773.741 1004.4 771.808 1003.37 775.453 1007.36 C 780.113 1006.23 782.439 1002.56 788.201 1004.8 L 788.781 1006.19 C 782.674 1012.82 776.588 1008.62 774.362 1019.84 C 774.385 1024.64 774.875 1035.28 773.146 1039.28 L 770.775 1039.26 C 766.32 1034.23 767.987 1011.62 768.114 1003.69 z"/>
<path transform="translate(0,0)" fill="rgb(0,0,0)" d="M 1144.94 1004.92 C 1147.98 1004.9 1148.69 1004.64 1151.5 1005.83 C 1152.57 1013.86 1151.99 1030.11 1151.93 1038.8 C 1149.06 1038.84 1148.69 1039.16 1146.24 1037.86 C 1143.4 1031.87 1144.84 1013.11 1144.94 1004.92 z"/>
<path transform="translate(0,0)" fill="rgb(0,0,0)" d="M 1150.6 987.883 C 1153.62 987.758 1156.02 987.702 1158.38 989.591 L 1158.44 990.812 C 1156.15 994.405 1153.89 994.021 1150.51 997.779 L 1148.52 999.537 L 1146.56 999.332 C 1142.96 993.972 1146.45 990.966 1150.6 987.883 z"/>
</svg>