<svg version="1.1" xmlns="http://www.w3.org/2000/svg" style="display: block;" viewBox="0 0 2048 1152" width="1820" height="1024" preserveAspectRatio="none">
<path transform="translate(0,0)" fill="rgb(248,248,247)" d="M 0 0 L 2048 0 L 2048 1152 L 0 1152 L 0 0 z"/>
<path transform="translate(0,0)" fill="rgb(42,42,42)" d="M 1351.58 40.2375 C 1354.13 40.5211 1354.25 40.5871 1356.58 41.7118 C 1358.72 46.332 1357.69 114.805 1357.65 125.532 C 1377.95 129.861 1405.93 152.47 1388.45 173.322 C 1388.87 179.715 1388.88 187.012 1389.03 193.499 C 1398.82 196.709 1403.43 198.26 1411.75 204.87 C 1412.26 209.318 1412.42 211.7 1411.92 216.033 L 1411.82 216.814 C 1414.94 222.876 1438.36 229.574 1446.45 235.144 C 1505.03 275.465 1526.67 335.82 1526.85 405.108 C 1539.49 411.216 1552.42 417.424 1564.43 424.679 C 1560.49 431.154 1553.75 441.179 1552.31 448.355 C 1547.11 474.21 1549.56 501.362 1549.77 527.72 C 1550.23 576.68 1551.08 625.636 1552.32 674.583 C 1560.86 677.985 1609.54 694.571 1611.86 697.381 C 1611.6 699.518 1611.37 700.732 1610.89 702.827 C 1618.22 711.857 1877.59 791.082 1880.55 800.886 C 1878.27 805.867 1874.7 804.262 1872.25 808.761 C 1869.53 813.752 1866.34 813.998 1861.1 814.877 C 1858.89 818.633 1859.81 988.827 1859.81 1005.09 C 1893.22 1005.01 1926.62 1005.78 1959.98 1007.4 C 1970.37 1007.88 1981.72 1008.35 1992.15 1009.03 C 1994.4 1009.18 1996.35 1011.15 1997.57 1013.02 L 1997.14 1014.88 C 1991.94 1017.85 1952.15 1013.3 1943.31 1013.43 C 1890.46 1014.2 1832.05 1008.86 1779.6 1013.33 L 1776.79 1016.67 C 1760.15 1020.17 1731.99 1022.91 1714.23 1025.47 L 1562.01 1046.97 C 1452.02 1063.38 1341.78 1078.06 1231.33 1090.98 C 1083.17 1107.28 935.892 1119.71 787.724 1095.05 C 719.176 1083.65 644.862 1062.07 578.399 1041.55 C 515.194 1022.05 472.86 1002.22 404.5 999.801 C 365.738 997.992 327.168 1002.22 288.831 1006.1 C 224.11 1012.38 160.485 1024.41 97.8611 1041.84 C 90.0101 1044.02 54.8822 1059.98 51.2108 1054.38 C 51.434 1053.69 51.4535 1053.48 51.9505 1052.83 C 63.8807 1037.13 187.368 1013.42 212.419 1008.65 C 211.67 977.506 216.42 986.095 243.417 983.075 C 244.257 971.053 244.002 955.565 244.106 943.328 L 244.355 863.124 C 244.495 818.101 245.044 772.762 244.905 727.705 C 244.891 722.917 243.209 721.318 242.311 716.867 C 241.701 713.841 245.04 711.118 245.069 710.277 C 245.364 701.728 246.381 689.646 245.13 681.636 C 243.144 678.979 239.867 679.259 239.138 676.518 C 236.099 665.097 239 659.639 248.026 654.496 C 248.739 643.526 249.227 641.026 244.762 630.653 C 245.316 629.452 246.969 625.842 247.681 625.172 C 256.879 616.519 254.628 586.084 262.838 579.333 L 264.638 580.094 C 268.393 586.112 268.743 599.046 269.347 606.487 L 305.924 583.53 C 308.744 572.943 311.132 545.626 315.768 540.486 L 317.696 540.423 C 322.796 545.503 325.985 570.287 324.401 577.146 C 328.898 582.708 389.839 596.157 400.687 593.58 C 411.383 591.038 416.338 583.563 423.878 578.976 C 428.799 575.982 442.255 577.495 447.974 571.606 C 452.077 568.31 453.529 564.706 457.044 562.377 C 461.219 561.925 459.545 561.579 463.323 563.865 C 467.03 563.876 483.134 556.201 484.483 554.229 C 490.117 545.987 469.784 539.522 469.379 528.751 C 470.754 523.209 481.921 518.608 487.964 514.323 C 488.067 511.505 488.439 501.38 487.807 499.243 C 484.56 488.264 483.284 487.558 482.448 475.902 L 490.072 469.288 C 491.821 454.751 495.246 440.423 496.883 425.837 C 497.398 421.25 498.341 416.391 502.651 414.051 L 504.745 415.315 C 510.92 426.246 508.265 449.157 514.923 454.144 C 521.656 452.027 577.499 418.117 586.135 412.702 C 585.863 408.755 587.911 387.247 589.717 385.851 C 599.268 378.47 590.296 357.887 601.73 353.869 C 608.658 357.555 608.26 376.909 610.411 384.768 C 612.996 394.214 615.918 400.385 614.343 410.217 C 651.567 422.697 689.345 434.583 726.614 447.069 C 734.866 449.834 745.52 450.874 753.937 453.397 C 767.586 457.487 781.326 461.98 794.897 466.349 L 909.711 503.57 C 926.955 509.04 944.461 515.219 961.897 519.77 C 997.213 508.82 1032.76 494.767 1068.42 483.836 C 1102.77 499.783 1141.15 514.085 1176.07 529.061 C 1175.62 504.62 1177.03 477.791 1174.96 453.461 C 1174.21 444.635 1160.33 430.267 1161.65 422.602 C 1166.07 419.324 1183.78 411.907 1189.87 409.13 C 1189.61 399.319 1194.68 366.022 1196.31 354.476 C 1204.64 295.404 1246.75 252.324 1298.39 226.258 C 1301.11 205.677 1294.88 206.611 1317.33 196.952 C 1317.58 192.829 1317.95 185.795 1317.5 181.937 C 1316.09 169.713 1312.24 160.171 1318.55 148.375 C 1325.53 135.324 1337.67 129.963 1350.81 125.607 C 1351.14 103.371 1350.89 81.1208 1351.01 58.8824 C 1351.04 52.6567 1350.89 46.4342 1351.58 40.2375 z"/>
<path transform="translate(0,0)" fill="rgb(248,248,247)" d="M 1071.97 545.443 C 1104.72 558.819 1139.71 571.274 1172.95 583.538 L 1337.61 643.987 C 1368.53 655.359 1403.48 667.297 1433.54 679.987 L 1433.12 847.585 L 1414.04 844.056 L 1414.19 773.322 C 1403.24 770.131 1392.2 767.286 1381.07 764.791 L 1380.52 837.604 C 1367.69 835.725 1355.07 833.159 1342.34 830.677 L 1342.09 767.5 L 1342.04 756.698 C 1330.55 753.31 1318.29 750.514 1306.61 747.661 C 1305.48 771.854 1305.99 799.197 1305.9 823.62 C 1293 821.597 1277.48 818.11 1264.52 815.485 C 1264.85 789.472 1264.68 763.158 1264.69 737.118 L 1226.8 727.221 C 1226.96 754.363 1226.97 781.505 1226.86 808.648 C 1210.22 805.491 1193.62 802.112 1177.07 798.51 L 1176.53 712.137 C 1163.75 708.462 1150.88 705.083 1137.95 702.004 L 1137.94 790.988 C 1115.86 786.702 1094.58 782.584 1072.73 777.185 L 1071.97 545.443 z"/>
<path transform="translate(0,0)" fill="rgb(42,42,42)" d="M 1138.6 612.479 C 1151.33 615.351 1164.35 620.291 1176.65 624.776 C 1176.69 642.713 1176.64 660.651 1176.49 678.588 C 1171.59 678.357 1144.66 670.061 1138.65 668.278 C 1138.37 649.882 1138.61 630.92 1138.6 612.479 z"/>
<path transform="translate(0,0)" fill="rgb(248,248,247)" d="M 1159.57 626.136 L 1170.1 630.064 L 1169.95 670.831 L 1159.19 667.347 C 1159.08 653.609 1159.21 639.87 1159.57 626.136 z"/>
<path transform="translate(0,0)" fill="rgb(248,248,247)" d="M 1145.04 621.366 C 1148.28 622.182 1149.58 622.364 1152.46 624.246 C 1153.83 628.629 1152.97 658.195 1152.88 664.819 C 1149.77 664.108 1148.04 664.007 1145.57 661.993 C 1144.12 655.103 1144.93 629.75 1145.04 621.366 z"/>
<path transform="translate(0,0)" fill="rgb(42,42,42)" d="M 1226.87 642.09 L 1264.07 655.22 L 1263.92 703.746 C 1252.87 701.549 1238.04 696.618 1226.96 693.275 L 1226.87 642.09 z"/>
<path transform="translate(0,0)" fill="rgb(248,248,247)" d="M 1233.91 651.766 L 1242.92 654.73 L 1242.78 691.264 C 1239.59 690.521 1237.8 690.388 1235.43 688.038 C 1232.08 680.763 1233.79 660.903 1233.91 651.766 z"/>
<path transform="translate(0,0)" fill="rgb(248,248,247)" d="M 1249.22 657.281 C 1252.29 657.911 1253.82 657.998 1256.3 660.033 C 1259.77 666.938 1257.81 686.15 1257.62 695.032 C 1256.02 694.787 1251.94 694.338 1251.17 693.26 C 1247.28 687.767 1249.2 664.414 1249.22 657.281 z"/>
<path transform="translate(0,0)" fill="rgb(42,42,42)" d="M 1306.97 668.617 C 1318.14 671.971 1330.09 676.348 1341.18 680.173 L 1341.15 726.355 L 1306.89 716.426 L 1306.97 668.617 z"/>
<path transform="translate(0,0)" fill="rgb(248,248,247)" d="M 1327.01 682.444 C 1329.88 683.358 1330.7 683.548 1333.19 685.217 C 1336.55 691.174 1334.46 708.907 1334.18 716.825 C 1331.27 716.873 1330.89 716.876 1328.41 715.399 C 1325.49 710.479 1326.93 689.426 1327.01 682.444 z"/>
<path transform="translate(0,0)" fill="rgb(248,248,247)" d="M 1313.5 677.933 C 1316.32 678.747 1317.09 678.856 1319.39 680.632 C 1322.72 686.781 1320.58 705.699 1320.23 713.465 C 1317.9 712.905 1317.08 712.464 1314.88 711.445 C 1311.44 705.931 1313.25 685.468 1313.5 677.933 z"/>
<path transform="translate(0,0)" fill="rgb(42,42,42)" d="M 1381.35 691.847 L 1413.71 702.458 L 1413.59 745.72 C 1405.16 744.559 1389.9 739.032 1381.28 736.146 C 1381.05 721.38 1381.08 706.612 1381.35 691.847 z"/>
<path transform="translate(0,0)" fill="rgb(248,248,247)" d="M 1387.85 701.188 C 1390.48 701.771 1390.9 701.982 1393.25 703.302 C 1396.54 708.568 1394.93 726.214 1394.84 733.554 C 1392.28 733.184 1391.99 733.054 1389.59 732.045 C 1386.19 727.003 1387.76 708.216 1387.85 701.188 z"/>
<path transform="translate(0,0)" fill="rgb(248,248,247)" d="M 1401.38 705.271 L 1405.09 706.741 C 1408.95 711.278 1407.11 731.866 1406.91 738.543 L 1403.04 736.438 C 1399.43 731.375 1401.16 712.09 1401.38 705.271 z"/>
<path transform="translate(0,0)" fill="rgb(248,248,247)" d="M 1063.19 545.039 L 1064.37 545.383 C 1067.12 551.958 1065.45 754.131 1065.34 777.324 C 1040.26 781.472 1015.23 785.873 990.241 790.528 L 990.042 701.371 C 975.661 704.915 960.663 707.864 945.99 711.449 L 945.942 798.424 C 927.65 801.254 908.51 803.946 890.382 807.344 L 890.019 726.306 C 876.951 728.88 863.923 731.655 850.94 734.631 L 850.94 814.388 L 827.344 818.293 L 805.41 821.943 C 804.545 796.831 803.991 771.71 803.748 746.584 C 792.388 749.447 780.806 751.541 769.256 754.479 C 769.207 778.852 769.299 803.226 769.533 827.598 C 760.519 828.869 751.147 830.509 742.123 831.949 L 741.995 646.719 C 748.9 643.79 762.401 639.875 769.89 637.442 L 823.578 620 C 902.924 594.28 984.39 571.314 1063.19 545.039 z"/>
<path transform="translate(0,0)" fill="rgb(42,42,42)" d="M 986.606 607.06 L 988.272 607.284 C 990.547 610.124 989.095 658.283 989.007 665.672 C 975.406 669.205 963.051 671.906 949.281 674.743 L 947.757 674.626 C 945.286 670.318 946.282 626.989 946.327 618.662 C 958.6 614.566 973.944 610.627 986.606 607.06 z"/>
<path transform="translate(0,0)" fill="rgb(248,248,247)" d="M 981.976 615.323 C 983.708 618.113 982.393 654.738 982.251 660.425 L 971.325 662.946 C 969.069 659.921 970.086 624.779 970.154 618.633 L 981.976 615.323 z"/>
<path transform="translate(0,0)" fill="rgb(248,248,247)" d="M 961.161 621.265 L 962.07 621.316 L 963.174 622.582 C 964.036 630.384 964.055 655.978 963.242 663.699 C 960.727 666.247 959.215 665.895 955.236 666.864 L 953.621 666.474 C 951.725 661.561 952.011 629.811 952.952 624.059 C 955.567 621.727 957.277 622.056 961.161 621.265 z"/>
<path transform="translate(0,0)" fill="rgb(42,42,42)" d="M 887.747 638.237 C 890.195 640.93 889.728 683.498 889.804 690.563 L 853.069 698.388 C 849.709 697.157 851.132 654.423 851.162 648.091 C 863.313 644.645 875.509 641.36 887.747 638.237 z"/>
<path transform="translate(0,0)" fill="rgb(248,248,247)" d="M 879.491 646.922 L 881.306 647.174 C 883.724 650.77 883.148 678.51 882.654 683.973 C 880.603 686.375 879.095 686.099 875.523 687.079 L 873.186 686.763 C 870.73 682.91 871.574 655.491 872.216 650.068 C 874.165 648.005 876.418 647.876 879.491 646.922 z"/>
<path transform="translate(0,0)" fill="rgb(248,248,247)" d="M 859.392 651.601 C 862.119 651.757 862.348 651.701 864.805 652.777 L 864.914 653.665 C 865.549 659.11 866.352 687.157 863.333 690.985 L 858.866 690.515 L 857.914 689.055 C 857.379 683.235 856.333 655.723 859.392 651.601 z"/>
<path transform="translate(0,0)" fill="rgb(42,42,42)" d="M 801.977 662.257 C 803.873 665.104 803.002 705.011 802.956 711.734 L 769.95 719.751 C 767.784 716.35 768.7 678.372 768.727 671.31 C 779.54 667.985 791.001 665.145 801.977 662.257 z"/>
<path transform="translate(0,0)" fill="rgb(248,248,247)" d="M 795.043 670.772 C 796.155 671.441 795.977 671.642 796.757 672.991 C 797.106 682.141 798.002 695.205 796.048 704.482 C 795.623 706.501 793.213 707.084 791.154 708.041 C 786.976 705.926 788.414 679.065 789.634 674.112 C 790.133 672.085 793.205 671.479 795.043 670.772 z"/>
<path transform="translate(0,0)" fill="rgb(248,248,247)" d="M 776.408 674.656 C 779.234 674.898 779.879 674.484 781.898 676.016 C 782.019 677.245 782.12 678.477 782.199 679.709 C 782.543 685.092 783.464 707.824 780.32 711.412 C 778.628 711.252 778.103 710.965 776.519 710.393 C 774.5 705.628 774.198 679.456 776.408 674.656 z"/>
<path transform="translate(0,0)" fill="rgb(248,248,247)" d="M 468.605 966.508 L 469.631 966.387 C 472.717 969.281 469.186 972.021 472.911 975.942 C 477.541 979.407 598.738 998.17 613.936 1000.69 L 776.995 1027.64 C 859.598 1041.54 938.401 1054.93 1022.86 1056.93 C 1074.67 1058.15 1120.97 1052.39 1172.4 1046.97 L 1304.86 1033.68 C 1420.61 1022.2 1536.62 1013.57 1652.79 1007.77 C 1681.89 1006.06 1737.09 1003.44 1768.67 1002.87 C 1769.38 1003.5 1769.99 1004.04 1770.51 1004.5 C 1770.73 1007.82 1770.98 1006.48 1769.26 1009.61 C 1767.95 1010.8 1766.63 1011.57 1764.88 1011.8 C 1738.61 1015.22 1712.12 1018.81 1685.91 1022.5 L 1507.23 1047.93 C 1472.91 1051.07 1428.17 1059.73 1392.66 1064.18 C 1221.43 1085.67 1050.39 1111.29 877.356 1098.7 C 775.383 1091.27 689.393 1068.38 592.038 1038.24 C 537.482 1021.34 478.425 997.785 421.58 993.459 C 361.163 988.861 280.051 998.166 220.028 1008.08 L 219.994 992.279 C 302.594 987.236 386.44 974.342 468.605 966.508 z"/>
<path transform="translate(0,0)" fill="rgb(248,248,247)" d="M 1072.08 805.868 C 1127.64 817.913 1186.89 827.664 1242.99 837.731 L 1433.07 872.043 L 1433.25 950.228 C 1422.16 949.512 1410.27 948.754 1399.26 947.526 C 1291.62 935.526 1179.62 932.819 1072.54 917.926 C 1071.77 881.021 1072.01 842.83 1072.08 805.868 z"/>
<path transform="translate(0,0)" fill="rgb(42,42,42)" d="M 1138.44 840.566 L 1176.08 846.717 L 1176.04 903.384 C 1164.82 901.048 1149.77 899.702 1138.19 898.559 L 1138.44 840.566 z"/>
<path transform="translate(0,0)" fill="rgb(248,248,247)" d="M 1160.1 850.816 C 1163.14 851.35 1165.53 851.93 1168.49 852.685 C 1170.67 856.182 1169.74 888.598 1169.7 895.259 C 1165.75 895.019 1163.36 895.133 1160.53 892.826 C 1159.37 884.324 1160.03 860.566 1160.1 850.816 z"/>
<path transform="translate(0,0)" fill="rgb(248,248,247)" d="M 1144.61 848.602 C 1147.95 849.114 1151.27 849.515 1153.53 851.71 C 1154.65 860.014 1153.93 883.677 1153.83 893.106 C 1150.72 893.094 1147.71 893.503 1145.22 891.905 C 1144.11 884.018 1144.62 857.867 1144.61 848.602 z"/>
<path transform="translate(0,0)" fill="rgb(42,42,42)" d="M 1226.78 853.646 C 1239.31 855.876 1252 857.804 1264.43 860.501 L 1264.6 912.381 C 1252.06 911.045 1239.54 909.542 1227.04 907.872 L 1226.78 853.646 z"/>
<path transform="translate(0,0)" fill="rgb(248,248,247)" d="M 1233.74 861.546 C 1237.3 862.145 1239.01 862.234 1242.18 864.133 C 1243.51 868.606 1242.84 896.862 1242.79 903.461 C 1238.11 902.89 1238.41 903.642 1235.22 901.1 C 1231.22 893.785 1233.37 871.33 1233.74 861.546 z"/>
<path transform="translate(0,0)" fill="rgb(248,248,247)" d="M 1249.23 864.546 C 1252.51 865.168 1253.79 865.541 1256.92 866.606 C 1259.37 870.096 1258.24 899.288 1258.18 905.403 C 1254.79 905.082 1253.62 904.769 1250.42 903.889 C 1247.72 900.588 1249.14 870.823 1249.23 864.546 z"/>
<path transform="translate(0,0)" fill="rgb(42,42,42)" d="M 1308 866.729 L 1342.86 872.382 L 1342.76 920.274 C 1332.63 919.636 1318.53 917.438 1308.17 916.145 L 1308 866.729 z"/>
<path transform="translate(0,0)" fill="rgb(248,248,247)" d="M 1328.24 876.638 C 1331.25 877.173 1333.4 877.231 1335.81 879.05 C 1336.83 886.626 1336.28 905.222 1336.24 913.627 C 1333.09 913.106 1331.54 913.052 1328.81 911.245 C 1327.49 906.271 1328.15 883.3 1328.24 876.638 z"/>
<path transform="translate(0,0)" fill="rgb(248,248,247)" d="M 1314.57 874.584 C 1317.75 874.957 1318.47 874.777 1320.78 876.732 C 1323.52 882.922 1322.1 903.184 1322.06 911.259 C 1319.37 911.171 1317.95 911.445 1315.98 909.806 C 1313.07 903.498 1314.5 882.706 1314.57 874.584 z"/>
<path transform="translate(0,0)" fill="rgb(42,42,42)" d="M 1380.97 878.836 C 1389.7 881.077 1405.11 883.353 1413.88 884.241 L 1413.67 927.899 C 1402.06 926.688 1392.75 925.501 1381.16 923.543 C 1380.72 909.193 1381.01 893.306 1380.97 878.836 z"/>
<path transform="translate(0,0)" fill="rgb(248,248,247)" d="M 1387.65 886.713 C 1390.03 887.292 1390.86 887.626 1393.13 888.574 C 1396.49 893.691 1394.83 911.934 1394.71 919.022 C 1392.08 918.92 1391.74 918.873 1389.36 917.76 C 1386.22 912.445 1387.6 893.953 1387.65 886.713 z"/>
<path transform="translate(0,0)" fill="rgb(248,248,247)" d="M 1401.03 889.556 C 1402.86 889.812 1403.8 890.134 1405.53 890.664 C 1408.58 895.272 1407.16 914.356 1407.08 920.921 L 1402.66 919.733 C 1399.62 914.788 1400.97 896.395 1401.03 889.556 z"/>
<path transform="translate(0,0)" fill="rgb(248,248,247)" d="M 1072.15 924.845 C 1148.17 932.382 1224.25 939.281 1300.38 945.539 C 1344.39 949.405 1389.96 954.229 1433.88 957.126 L 1433.64 1015.63 C 1423.94 1016.13 1413.95 1017.01 1404.25 1017.75 C 1330.28 1023.2 1254.9 1032.8 1180.95 1039.56 C 1144.83 1042.86 1108.99 1047.32 1072.68 1049.32 L 1072.15 924.845 z"/>
<path transform="translate(0,0)" fill="rgb(248,248,247)" d="M 1061.32 925.463 C 1062.24 925.296 1063.73 925.392 1064.73 925.407 C 1066.76 928.561 1065.64 1038.05 1065.48 1049.99 C 958.043 1051.41 882.911 1038.67 777.772 1021.04 L 741.231 1015.14 C 741.681 994.165 741.832 973.19 741.684 952.216 C 773.932 947.979 811.696 946.373 844.558 943.595 L 1061.32 925.463 z"/>
<path transform="translate(0,0)" fill="rgb(248,248,247)" d="M 1060.74 807.35 C 1062.03 807.053 1063.08 807.18 1064.41 807.202 C 1066.24 810.641 1065.64 904.527 1065.62 918.151 C 1048.71 920.002 1030.67 920.572 1013.65 922.418 C 925.786 931.947 835.94 935.686 748.239 944.804 C 745.572 945.193 745.192 945.119 742.554 944.526 C 740.368 936.871 741.938 870.892 741.921 859.366 C 788.62 850.363 840.749 842.712 887.984 835.413 L 1060.74 807.35 z"/>
<path transform="translate(0,0)" fill="rgb(42,42,42)" d="M 983.201 840.402 C 985.676 839.897 985.904 839.995 988.449 840.348 C 990.764 843.939 989.966 890.867 990.026 898.756 C 980.12 899.129 963.603 901.448 953.24 902.611 C 951.089 902.963 949.581 902.846 947.397 902.799 C 944.569 899.854 945.74 852.962 945.76 845.277 L 983.201 840.402 z"/>
<path transform="translate(0,0)" fill="rgb(248,248,247)" d="M 972.175 848.524 C 975.428 848.157 979.545 847.286 982.445 848.333 C 983.469 853.196 983.713 887.384 982.219 892.393 L 979.76 893.251 C 974.992 893.747 974.606 894.562 970.904 892.805 C 966.006 884.589 971.35 866.511 969.337 856.508 C 968.672 853.2 969.471 850.493 972.175 848.524 z"/>
<path transform="translate(0,0)" fill="rgb(248,248,247)" d="M 953.794 850.425 C 957.485 850.068 958.379 850.054 962.071 850.349 L 962.798 851.477 C 963.3 858.019 964.206 891.928 961.321 895.631 C 957.841 895.747 954.934 896.48 952.366 894.973 C 951.584 888.506 950.691 853.73 953.794 850.425 z"/>
<path transform="translate(0,0)" fill="rgb(42,42,42)" d="M 885.512 854.423 C 886.977 854.012 887.406 854.311 888.889 854.722 C 891.005 859.864 890.093 900.914 890.048 909.46 C 878.172 910.942 866.281 912.304 854.378 913.547 C 853.97 913.612 852.467 913.296 851.98 913.213 C 849.572 907.862 850.241 868.203 850.224 859.449 C 861.495 857.199 874.046 855.753 885.512 854.423 z"/>
<path transform="translate(0,0)" fill="rgb(248,248,247)" d="M 880.797 861.466 L 882.604 861.506 C 884.795 864.899 884.174 897.156 883.351 902.626 C 881.269 904.647 877.219 904.723 874.071 905.181 C 872.611 904.812 873.076 904.882 871.799 903.758 C 870.88 897.506 870.793 870.072 871.58 863.69 C 874.706 861.44 876.4 861.976 880.797 861.466 z"/>
<path transform="translate(0,0)" fill="rgb(248,248,247)" d="M 856.392 864.131 C 859.312 863.985 862.207 863.399 864.477 864.905 C 865.622 873.053 864.88 897.422 864.734 906.428 C 864.204 906.471 863.673 906.502 863.142 906.521 C 860.179 906.643 858.957 907.137 857.22 905.522 C 856.095 896.141 856.456 874.4 856.392 864.131 z"/>
<path transform="translate(0,0)" fill="rgb(42,42,42)" d="M 797.558 867.388 C 800.332 866.849 800.721 866.86 803.516 867.298 C 806.163 871.161 805.096 909.886 805.067 917.542 C 795.537 918.32 785.764 919.403 776.242 920.39 C 772.498 920.718 772.366 921.374 769.603 919.664 C 768.579 912.94 769.237 878.98 769.249 870.547 C 778.588 869.651 788.208 868.44 797.558 867.388 z"/>
<path transform="translate(0,0)" fill="rgb(248,248,247)" d="M 796.295 873.825 C 801.099 876.363 799.436 904.316 797.953 910.197 C 797.526 911.891 794.1 912.788 792.495 913.431 L 790.648 912.394 C 788.128 909.192 789.03 881.904 789.508 876.681 C 791.831 874.281 792.604 874.74 796.295 873.825 z"/>
<path transform="translate(0,0)" fill="rgb(248,248,247)" d="M 775.715 876.765 C 778.616 876.583 779.782 876.232 782.27 877.589 C 783.321 881.988 782.87 907.044 782.826 913.452 C 780.469 913.647 778.15 914.211 776.274 912.958 C 775.126 904.873 775.688 885.686 775.715 876.765 z"/>
<path transform="translate(0,0)" fill="rgb(248,248,247)" d="M 601.277 562.851 C 632.651 571.23 667.701 576.937 699.283 585.472 C 708.66 588.006 726.067 591.263 734.53 594.586 L 735.339 597.605 C 732.016 602.597 716.071 603.575 713.093 611.64 C 714.153 617.586 729.081 626.464 735.146 631.01 L 735.097 832.653 L 700.061 829.326 L 700.384 796.25 C 700.733 782.162 704.6 749.369 694.303 738.769 C 683.113 727.25 666.185 735.717 665.077 751.649 C 663.374 776.138 664.097 801.498 664.095 826.177 L 598.204 820.76 C 597.724 736.289 600.733 647.795 601.277 562.851 z"/>
<path transform="translate(0,0)" fill="rgb(42,42,42)" d="M 671.115 617.395 C 678.856 617.969 692.858 621.157 700.917 622.751 C 700.911 643.755 700.067 665.96 699.612 687.048 C 693.536 687.186 677.534 683.777 670.751 682.453 C 670.706 660.767 670.827 639.08 671.115 617.395 z"/>
<path transform="translate(0,0)" fill="rgb(248,248,247)" d="M 677.1 624.637 L 694.066 628.293 C 694.082 645.46 693.744 662.625 693.054 679.778 C 688.934 680.138 681.457 678.349 677.174 677.461 C 676.972 659.959 677.12 642.165 677.1 624.637 z"/>
<path transform="translate(0,0)" fill="rgb(248,248,247)" d="M 1585.04 734.471 C 1627.96 747.689 1670.72 761.445 1713.3 775.736 C 1760.16 790.702 1806.91 806.01 1853.55 821.659 L 1852.72 924.627 L 1831.67 920.508 C 1832.16 906.796 1831.97 891.884 1832.03 878.07 C 1825.51 875.913 1821.72 875.251 1815.03 874.059 C 1814.96 886.835 1814.54 905.276 1816.01 917.651 L 1800.03 914.476 C 1799.94 899.375 1799.53 884.277 1798.8 869.193 C 1793.54 867.795 1788.36 867.071 1783 866.222 C 1783.77 881.27 1783.94 896.343 1783.51 911.404 L 1768.06 909.151 C 1766.86 899.086 1767.18 884.224 1767.11 873.75 L 1766.92 861.152 C 1761.22 859.749 1754.34 858.49 1748.51 857.274 C 1748 872.167 1748.67 890.736 1748.8 905.902 L 1731.02 902.994 C 1731.11 886.207 1731.16 869.98 1729.91 853.224 C 1725.45 851.977 1716.02 848.532 1712.28 850.542 C 1711.06 862.624 1711.94 887.059 1712.06 900.091 L 1689.59 896.148 L 1688.83 842.799 L 1668.92 838.917 C 1668.72 856.288 1668.62 875.61 1670.29 892.838 L 1646.98 888.456 L 1646.77 833.774 L 1624.01 828.163 C 1623.78 846.364 1624.41 866.08 1624.64 884.392 C 1617.1 883.945 1607.37 882.535 1599.71 881.639 C 1599.52 862.274 1599.08 842.911 1598.39 823.558 L 1587.13 820.724 L 1586.65 799.593 L 1598.27 802.271 C 1598.71 789.783 1598.37 777.139 1598.18 764.635 L 1585.52 761.371 C 1585.19 752.569 1585.18 743.315 1585.04 734.471 z"/>
<path transform="translate(0,0)" fill="rgb(42,42,42)" d="M 1623.69 772.065 C 1630.44 773.992 1638.44 776.914 1645.49 779.057 C 1646.07 789.975 1645.92 802.548 1646.04 813.591 C 1639.64 812.62 1630.69 810.492 1624.01 809.225 L 1623.69 772.065 z"/>
<path transform="translate(0,0)" fill="rgb(248,248,247)" d="M 1630.27 797.653 C 1635.2 799.037 1637.56 800.547 1639.98 805.088 C 1637.87 804.954 1635.47 804.356 1633.37 803.911 C 1630.4 801.204 1631.27 802.12 1630.27 797.653 z"/>
<path transform="translate(0,0)" fill="rgb(248,248,247)" d="M 1629.48 781.861 C 1635.61 782.004 1638.2 783.507 1639.87 789.241 C 1634.86 787.71 1632.31 786.26 1629.48 781.861 z"/>
<path transform="translate(0,0)" fill="rgb(42,42,42)" d="M 1668.71 785.443 C 1675.26 787.413 1681.91 789.591 1688.45 791.648 L 1688.93 825.296 C 1683.79 824.309 1674.33 821.317 1668.95 819.775 L 1668.71 785.443 z"/>
<path transform="translate(0,0)" fill="rgb(42,42,42)" d="M 1710.89 796.442 C 1714.39 797.01 1725.95 800.918 1729.89 802.169 L 1730.16 834.433 C 1723.95 832.749 1717.24 831.211 1710.96 829.65 L 1710.89 796.442 z"/>
<path transform="translate(0,0)" fill="rgb(42,42,42)" d="M 1748.84 807.719 C 1754.49 809.2 1760.65 811.162 1766.3 812.838 C 1767.13 822.291 1766.88 833.475 1766.9 843.091 C 1760.95 841.979 1754.86 840.099 1749.01 838.438 L 1748.84 807.719 z"/>
<path transform="translate(0,0)" fill="rgb(42,42,42)" d="M 1784.49 819.458 C 1788.44 819.637 1796.04 822.505 1800.13 823.858 L 1800.42 852.575 L 1785.04 848.681 C 1784.5 839.246 1784.58 828.974 1784.49 819.458 z"/>
<path transform="translate(0,0)" fill="rgb(42,42,42)" d="M 1817.3 828.6 C 1822.84 829.821 1828.35 832.069 1833.68 834.062 C 1832.8 840.585 1833.09 853.328 1833.06 860.371 C 1828.92 860.171 1821.88 858.008 1817.65 856.87 C 1817.09 849.295 1816.76 835.837 1817.3 828.6 z"/>
<path transform="translate(0,0)" fill="rgb(248,248,247)" d="M 593.653 566.068 C 596.394 569.281 592.102 794.94 591.496 820.341 C 582.028 823.208 568.652 825.795 558.756 828.005 C 558.93 813.887 557.119 731.767 560.367 725.816 C 561.053 724.559 561.38 723.334 561.736 721.959 C 559.41 718.148 537.366 708.234 532.039 705.643 C 527.585 709.868 511.784 729.394 509.474 734.928 C 510.379 737.61 513.02 738.884 515.514 740.604 L 516.602 741.205 C 516.824 743.761 517.234 745.868 518.35 748.196 C 525.342 762.783 521.333 817.606 521.122 836.285 C 511.035 838.199 500.983 840.286 490.968 842.544 L 492.23 610.606 C 526.141 596.252 559.661 580.336 593.653 566.068 z"/>
<path transform="translate(0,0)" fill="rgb(42,42,42)" d="M 547.067 625.009 C 547.572 625.095 548.76 625.71 549.292 625.955 C 550.932 630.335 550.011 677.175 549.975 685.758 C 542.273 688.592 537.192 690.19 529.244 692.221 L 527.056 691.74 C 524.879 687.702 526.015 640.128 526.077 632.139 L 547.067 625.009 z"/>
<path transform="translate(0,0)" fill="rgb(248,248,247)" d="M 542.978 633.193 C 544.584 636.378 543.626 675.525 543.545 681.223 L 534.323 684.699 C 531.879 681.192 532.97 643.203 533.025 636.73 L 542.978 633.193 z"/>
<path transform="translate(0,0)" fill="rgb(248,248,247)" d="M 1461.9 684.168 C 1494.64 695.925 1527.57 707.134 1560.68 717.79 C 1561.87 801.691 1565.57 885.403 1567.1 969.28 L 1539.93 966.889 C 1539.8 934.903 1539.46 899.045 1538.25 867.24 C 1533.32 845.507 1514.73 821.536 1491.11 841.069 C 1476.81 852.895 1480.21 883.061 1480.59 900.746 L 1481.91 962.406 L 1466.52 961.543 C 1465.03 933.039 1465.62 898.805 1464.98 869.458 C 1463.27 807.708 1462.25 745.941 1461.9 684.168 z"/>
<path transform="translate(0,0)" fill="rgb(42,42,42)" d="M 1500.01 714.488 C 1508.12 716.696 1517.21 720.028 1525.26 722.781 L 1525.05 773.226 C 1516.58 770.938 1508.18 768.116 1499.83 765.399 L 1500.01 714.488 z"/>
<path transform="translate(0,0)" fill="rgb(248,248,247)" d="M 1507.02 723.226 L 1519.59 727.339 L 1519.05 763.761 C 1515.86 764.051 1510.21 761.94 1506.86 760.906 L 1507.02 723.226 z"/>
<path transform="translate(0,0)" fill="rgb(248,248,247)" d="M 1589.11 899.831 C 1653.55 911.834 1719.99 920.135 1784.67 931.251 C 1806.68 935.032 1831.14 939.595 1853.24 941.365 L 1853.13 983.601 L 1838.75 982.822 C 1757.71 974.901 1672.6 970.582 1590.71 963.769 C 1590.34 958.283 1588.79 949.507 1591.55 945.394 C 1594.25 943.359 1598.06 944.101 1601.57 944.31 C 1600.69 935.171 1600.86 922.855 1600.74 913.455 C 1597.28 912.996 1593.22 912.812 1590.38 910.931 C 1588.33 907.97 1588.99 903.654 1589.11 899.831 z"/>
<path transform="translate(0,0)" fill="rgb(42,42,42)" d="M 1627.09 916.649 C 1632.24 917.185 1640.49 918.803 1645.78 919.692 C 1645.78 929.971 1646.14 940.246 1646.85 950.5 C 1639.93 950.243 1633.54 949.461 1626.66 948.678 C 1626.72 939.682 1625.66 924.927 1627.09 916.649 z"/>
<path transform="translate(0,0)" fill="rgb(248,248,247)" d="M 1634.02 924.072 L 1637.63 925.497 C 1640.07 929.71 1639.1 939.183 1638.9 944.376 C 1636.96 943.983 1636.85 943.817 1635.17 942.884 C 1633.34 938.562 1633.95 929.211 1634.02 924.072 z"/>
<path transform="translate(0,0)" fill="rgb(42,42,42)" d="M 1711.91 928.969 C 1716.83 929.724 1722.55 930.238 1727.56 930.814 C 1727.68 940.293 1727.95 949.77 1728.38 959.239 C 1721.52 959.052 1718.78 958.817 1711.97 957.68 C 1711.87 948.11 1711.85 938.54 1711.91 928.969 z"/>
<path transform="translate(0,0)" fill="rgb(248,248,247)" d="M 1719.16 936.557 L 1720.62 937.851 C 1721.7 942.685 1721.06 948.27 1720.77 953.279 C 1717.88 950.006 1719.01 941.336 1719.16 936.557 z"/>
<path transform="translate(0,0)" fill="rgb(42,42,42)" d="M 1671.46 924.739 C 1676.38 924.843 1683.16 926.086 1688.17 926.847 L 1688.5 954.802 C 1683.29 954.444 1676.78 953.347 1671.52 952.612 L 1671.46 924.739 z"/>
<path transform="translate(0,0)" fill="rgb(248,248,247)" d="M 1678.7 931.464 C 1679.3 931.928 1680.19 932.998 1680.74 933.601 C 1681.62 939.626 1681.05 943.675 1680.53 949.657 C 1677.84 944.712 1678.31 936.982 1678.7 931.464 z"/>
<path transform="translate(0,0)" fill="rgb(42,42,42)" d="M 1749.85 936.115 L 1764.93 937.438 L 1765.9 964.346 C 1760.62 963.577 1755.18 963.065 1749.87 962.499 C 1749.58 953.125 1749.48 945.47 1749.85 936.115 z"/>
<path transform="translate(0,0)" fill="rgb(176,176,177)" d="M 1757.14 942.694 C 1760.12 945.986 1759.02 952.711 1758.8 957.438 L 1757.18 955.852 C 1756.18 950.819 1756.68 947.828 1757.14 942.694 z"/>
<path transform="translate(0,0)" fill="rgb(42,42,42)" d="M 1783.42 940.624 C 1787.79 940.824 1794.11 941.922 1798.6 942.57 C 1799.15 950.673 1798.99 960.301 1799.05 968.536 L 1783.52 967.375 C 1783.33 958.34 1783.1 949.671 1783.42 940.624 z"/>
<path transform="translate(0,0)" fill="rgb(248,248,247)" d="M 1790.35 946.783 C 1793.29 950.07 1791.98 958.448 1791.71 963.256 L 1790.36 961.837 C 1789.43 957.272 1790.06 951.529 1790.35 946.783 z"/>
<path transform="translate(0,0)" fill="rgb(42,42,42)" d="M 1815.87 944.847 C 1820.55 945.249 1826.03 946.087 1830.75 946.683 L 1830.96 970.894 L 1816.04 969.518 L 1815.87 944.847 z"/>
<path transform="translate(0,0)" fill="rgb(176,176,177)" d="M 1822.02 951.495 L 1823.6 952.851 C 1824.65 956.609 1823.97 961.253 1823.66 965.215 L 1822.71 964.261 C 1821.59 960.967 1821.98 955.216 1822.02 951.495 z"/>
<path transform="translate(0,0)" fill="rgb(248,248,247)" d="M 598.876 848.418 C 632.066 850.3 665.494 854.067 698.725 856.059 C 710.655 856.775 723.017 857.772 734.887 859.049 L 734.713 945.761 C 690.401 944.055 641.96 941.078 597.972 940.909 L 598.876 848.418 z"/>
<path transform="translate(0,0)" fill="rgb(42,42,42)" d="M 664.881 869.128 C 669.531 870.264 692.958 871.718 699.041 872.17 C 699.008 891.107 698.872 910.045 698.632 928.981 C 687.817 928.692 675.724 927.633 664.838 926.916 L 664.881 869.128 z"/>
<path transform="translate(0,0)" fill="rgb(248,248,247)" d="M 670.96 875.971 C 676.666 876.862 686.399 877.132 692.455 877.448 C 692.54 892.256 692.223 907.454 692.081 922.292 C 684.883 922.109 678.145 921.569 670.976 921.002 L 670.96 875.971 z"/>
<path transform="translate(0,0)" fill="rgb(248,248,247)" d="M 742.933 472.646 C 755.525 477.793 771.705 482.087 784.823 486.797 C 830.493 503.196 881.882 515.979 926.749 533.339 C 864.915 553.61 803.379 574.78 742.162 596.844 L 742.357 577.75 C 742.684 572.607 742.14 557.929 742.115 552.045 C 741.885 532.171 741.992 512.295 742.437 492.425 L 834.945 521.999 C 843.771 524.843 875.093 534.746 881.231 537.727 C 883.498 541.268 884.553 544.077 889.131 543.66 L 890.439 541.322 C 890.696 537.898 889.778 532.84 886.021 531.561 C 871.398 526.582 856.699 521.725 842.005 516.941 C 809.06 506.156 776.031 495.629 742.922 485.361 L 742.933 472.646 z"/>
<path transform="translate(0,0)" fill="rgb(248,248,247)" d="M 1370.46 354.467 C 1377.88 354.394 1401.82 354.883 1407.64 357.697 C 1407.25 359.084 1407.17 359.412 1406.45 360.617 L 1405.92 361.47 C 1407.04 364.326 1407.67 366.097 1408.5 369.101 L 1407.39 370.832 C 1401.69 372.063 1390.59 369.753 1384.28 369.985 C 1374.02 370.363 1338.83 369.98 1333 378.139 L 1333.81 380.314 C 1337.12 381.9 1339 380.903 1342.67 380.11 C 1365.07 375.269 1385.2 374.71 1407.95 378.158 L 1407.99 395.03 C 1385.34 390.776 1364.59 390.526 1342.03 394.901 C 1338.26 395.632 1333.83 395.995 1331.51 399.256 L 1331.85 401.042 C 1334.23 402.665 1336.79 402.295 1339.59 401.672 C 1362.85 396.506 1384.39 397.219 1407.99 401.495 L 1407.99 473.291 C 1379.77 469.513 1359.1 471.215 1331.74 477.459 C 1331.32 463.444 1331.05 449.424 1330.92 435.403 C 1330.26 414.153 1329.94 392.893 1329.99 371.633 C 1335.88 369.572 1341.45 368.376 1345.25 363.415 L 1344.81 362.035 C 1334.48 360.477 1302.39 376.505 1291.75 381.022 C 1263.47 392.973 1235.26 405.099 1207.13 417.4 C 1199.01 421.006 1180.25 430.997 1172.98 431.864 C 1170.8 430.513 1170.6 429.387 1169.45 426.947 C 1169.65 426.703 1169.83 426.452 1170.03 426.214 C 1174.56 420.884 1284.3 376.046 1301.31 368.826 C 1308.5 365.774 1315.58 361.394 1323.08 359.218 C 1337.92 354.912 1355.06 355.157 1370.46 354.467 z"/>
<path transform="translate(0,0)" fill="rgb(42,42,42)" d="M 1361.98 411.214 C 1386.17 408.607 1394.54 418.225 1393.37 442.073 C 1393.09 447.86 1395.2 455.484 1391.63 460.374 L 1389.74 460.162 C 1380.98 451.917 1400.82 424.037 1372.56 416.063 C 1338.57 415.546 1353.98 454.694 1347.85 462.325 L 1346.27 462.235 C 1340.82 456.952 1343.88 434.012 1346.46 427.046 C 1349.68 418.379 1353.78 414.886 1361.98 411.214 z"/>
<path transform="translate(0,0)" fill="rgb(42,42,42)" d="M 1366.03 425.947 C 1383.39 425.429 1382.09 442.915 1379 455.2 C 1378.75 456.222 1376.23 456.004 1375.25 456.065 L 1359.72 456.177 C 1358.93 444.885 1355.42 432.593 1366.03 425.947 z"/>
<path transform="translate(0,0)" fill="rgb(248,248,247)" d="M 1364.88 431.759 C 1378.8 430.62 1375.54 440.64 1374.83 451.23 C 1360.67 452.299 1361.83 443.604 1364.88 431.759 z"/>
<path transform="translate(0,0)" fill="rgb(248,248,247)" d="M 589.58 849.285 L 591.752 849.587 C 592.779 854.894 592.353 875.088 592.268 881.165 L 591.19 940.755 C 560.243 945.723 525.322 948.175 493.802 952.447 C 492.406 952.011 492.779 952.046 491.574 950.986 C 490.627 944.373 490.938 930.237 490.902 922.725 L 490.731 869.592 C 519.294 865.368 559.546 854.85 589.58 849.285 z"/>
<path transform="translate(0,0)" fill="rgb(42,42,42)" d="M 543.936 877.323 C 548.016 876.548 549.928 875.991 553.011 877.993 C 554.363 884.678 553.277 918.298 553.126 927.428 C 547.64 928.642 541.105 929.423 535.474 930.238 C 532.067 931.073 528.169 932.478 524.945 931.417 C 522.667 927.998 523.994 888.118 524.097 880.971 C 530.102 879.596 537.76 878.425 543.936 877.323 z"/>
<path transform="translate(0,0)" fill="rgb(248,248,247)" d="M 530.535 885.402 C 532.203 885.596 533.182 885.945 534.761 886.423 C 537.546 892.081 535.979 917.123 535.717 924.718 C 533.276 924.527 532.096 924.732 530.329 923.245 C 529.507 915.02 529.838 893.86 530.535 885.402 z"/>
<path transform="translate(0,0)" fill="rgb(248,248,247)" d="M 543.476 883.161 L 545.947 884.424 C 548.162 889.272 547.266 917.674 545.815 923.572 L 543.829 922.646 C 541.53 918.246 542.276 888.759 543.476 883.161 z"/>
<path transform="translate(0,0)" fill="rgb(248,248,247)" d="M 1437.06 532.258 C 1464 541.013 1499.04 555.802 1525.96 566.253 L 1526.18 665.436 C 1498.87 653.977 1470.32 645.468 1442.72 634.92 C 1440.61 634.111 1442.2 628.922 1441.38 625.892 C 1439.26 624.729 1439.01 624.615 1437.29 622.946 C 1435.59 599.465 1437 557.129 1437.06 532.258 z"/>
<path transform="translate(0,0)" fill="rgb(42,42,42)" d="M 1475.14 571.165 C 1501.32 568.69 1515.78 603.213 1490.27 614.137 C 1468.32 617.729 1449.45 585.737 1475.14 571.165 z"/>
<path transform="translate(0,0)" fill="rgb(248,248,247)" d="M 1477.89 577.027 C 1478.49 577.094 1479.09 577.173 1479.68 577.264 C 1494.04 579.392 1504.26 596.715 1489.28 607.248 C 1471.45 607.673 1461.52 587.412 1477.89 577.027 z"/>
<path transform="translate(0,0)" fill="rgb(248,248,247)" d="M 313.855 702.096 C 316.272 705.903 314.233 870.952 314.134 889.588 C 307.787 891.554 299.004 893.501 292.395 895.164 C 292.616 875.621 292.596 838.639 293.756 817.859 C 293.807 816.944 296.245 817.586 297.36 813.55 C 295.549 810.928 294.851 811.295 291.511 809.963 C 277.804 791.616 270.444 805.171 260.014 817.911 C 258.51 819.952 258.453 820.251 257.577 822.667 C 258.255 826.093 261.066 827.737 263.918 830.139 C 265.415 850.177 263.225 871.469 264.179 891.691 C 264.388 896.108 262.322 901.117 258.998 904.106 C 255.982 905.038 257.185 905.148 254.57 903.902 C 252.086 900.765 251.494 897.54 251.551 893.627 C 251.792 877.357 251.764 861.083 251.821 844.81 L 252.474 729.207 C 272.667 719.89 294.084 712.079 313.855 702.096 z"/>
<path transform="translate(0,0)" fill="rgb(42,42,42)" d="M 279.27 732.372 C 292.581 736.615 286.933 765.206 286.503 776.218 C 286.312 781.115 282.898 783.699 279.225 786.291 C 275.374 786.565 276.643 786.981 273.87 785.266 C 269.961 777.564 272.316 758.079 272.615 749.113 C 272.857 741.843 274.414 737.641 279.27 732.372 z"/>
<path transform="translate(0,0)" fill="rgb(248,248,247)" d="M 280.33 742.698 C 281.948 748.139 281.286 772.54 279.707 778.448 C 277.293 773.868 278.404 747.594 280.33 742.698 z"/>
<path transform="translate(0,0)" fill="rgb(248,248,247)" d="M 1356.81 219.858 C 1362.69 219.757 1369.44 219.996 1375.4 220.078 C 1409.43 247.582 1421.98 286.444 1429.75 327.89 C 1413.46 323.861 1403.4 321.918 1386.76 320.728 C 1363.81 318.127 1333.42 323.203 1310.86 327.771 C 1317.23 289.61 1325.9 246.332 1356.81 219.858 z"/>
<path transform="translate(0,0)" fill="rgb(248,248,247)" d="M 1333.54 222.155 L 1336.1 222.263 C 1336.08 223.262 1327.09 235.658 1325.61 238.085 C 1321.42 245.057 1317.78 252.347 1314.73 259.887 C 1305.95 281.162 1300.19 308.653 1298.62 331.604 C 1268.46 341.986 1244.03 354.694 1217.52 371.844 L 1216.55 372.433 L 1215.56 371.209 C 1220.54 290.051 1251.12 241.374 1333.54 222.155 z"/>
<path transform="translate(0,0)" fill="rgb(42,42,42)" d="M 1248.92 290.012 C 1252.39 289.67 1255.59 289.418 1259 290.363 C 1263.74 291.645 1267.73 294.826 1270.04 299.153 C 1277.21 312.595 1268.93 327.843 1256.25 334.422 C 1228.89 339.279 1226.1 303.229 1248.92 290.012 z"/>
<path transform="translate(0,0)" fill="rgb(248,248,247)" d="M 1252.01 295.897 C 1272.06 296.435 1268.46 319.957 1254.38 328.277 C 1232.46 327.899 1238.44 305.269 1252.01 295.897 z"/>
<path transform="translate(0,0)" fill="rgb(248,248,247)" d="M 597.94 947.874 C 642.027 947.774 689.796 951.007 734.2 952.23 L 734.196 1014.31 C 718.399 1010.69 699.278 1008.01 682.995 1005.25 C 654.675 1000.32 626.321 995.598 597.935 991.075 L 597.94 947.874 z"/>
<path transform="translate(0,0)" fill="rgb(248,248,247)" d="M 482.521 618.879 L 484.186 618.96 C 486.375 622.801 485.107 657.534 485.007 663.878 C 468.782 671.268 443.009 680.12 425.994 686.443 C 392.158 698.954 358.456 711.824 324.893 725.049 L 323.312 725.126 C 320.878 721.47 321.999 695.686 322.069 689.575 C 340.993 678.598 363.885 669.136 384.181 660.349 L 482.521 618.879 z"/>
<path transform="translate(0,0)" fill="rgb(248,248,247)" d="M 1354.51 520.391 C 1368.75 518.23 1394.22 520.264 1408.34 522.348 C 1408.41 536.536 1411.43 617.411 1403.28 622.241 L 1395.75 619.551 C 1376.08 612.659 1353.61 602.868 1334.14 594.91 C 1334.16 571.113 1333.82 547.318 1333.12 523.531 C 1340.59 522.134 1346.95 521.286 1354.51 520.391 z"/>
<path transform="translate(0,0)" fill="rgb(248,248,247)" d="M 1397.42 223.667 C 1414.83 225.169 1441.47 238.247 1455.14 249.571 C 1497.14 284.379 1503.31 316.006 1508.72 367.612 C 1504.34 365.782 1490.76 358.2 1486.08 355.782 C 1470.5 347.698 1454.83 339.785 1439.07 332.044 C 1437.8 293.916 1424.3 251.667 1397.42 223.667 z"/>
<path transform="translate(0,0)" fill="rgb(42,42,42)" d="M 1471.46 292.807 C 1492.06 295.763 1502.68 329.229 1479.81 337.802 C 1471.11 336.957 1465.13 333.786 1460.91 325.725 C 1457.81 319.672 1457.2 312.649 1459.2 306.152 C 1461.59 298.59 1464.91 296.316 1471.46 292.807 z"/>
<path transform="translate(0,0)" fill="rgb(248,248,247)" d="M 1470.32 300.666 C 1484.54 301.363 1491.18 320.343 1480.85 330.82 C 1464.79 332.004 1459.51 312.187 1470.32 300.666 z"/>
<path transform="translate(0,0)" fill="rgb(248,248,247)" d="M 1440.96 677.32 C 1444.84 678.371 1450.59 680.558 1454.55 681.918 C 1455.82 775.08 1458.66 867.656 1459.19 960.958 L 1440.7 952.878 C 1439.26 862.145 1440.89 768.452 1440.96 677.32 z"/>
<path transform="translate(0,0)" fill="rgb(248,248,247)" d="M 1063.51 784.43 L 1064.63 784.512 C 1066.19 787.755 1065.61 795.41 1065.56 799.411 C 959.111 818.109 850.975 833.817 744.254 851.682 L 742.683 851.587 C 741.191 848.568 741.754 842.665 741.832 838.996 L 938.891 806.251 C 979.232 799.317 1023.86 790.012 1063.51 784.43 z"/>
<path transform="translate(0,0)" fill="rgb(248,248,247)" d="M 1072.07 784.636 C 1095.19 788.197 1128.28 795.961 1151.96 800.635 L 1335.48 836.406 C 1345.26 838.237 1428.07 852.779 1431.83 855.283 C 1433.96 858.158 1433.31 861.224 1433.18 865.019 C 1363.73 854.405 1292.04 839.574 1222.64 827.107 C 1174.13 818.394 1119.38 810.145 1072.2 798.514 L 1072.07 784.636 z"/>
<path transform="translate(0,0)" fill="rgb(248,248,247)" d="M 477.199 692.908 C 477.009 689.279 476.314 684.429 478.069 681.429 C 480.724 680.345 481.318 678.832 483.487 678.554 L 484.626 680.672 C 484.821 687.231 485.047 700.036 484.16 706.422 L 483.873 837.352 C 484.138 870.249 483.991 903.149 483.431 936.042 C 477.765 936.639 472.113 937.365 466.481 938.222 C 466.52 886.174 466.929 834.127 467.71 782.085 L 468.105 731.264 C 468.178 722.499 468.052 713.251 468.704 704.51 C 469.01 700.39 473.124 701.197 475.826 698.912 C 477.361 697.613 477.032 695.25 477.199 692.908 z"/>
<path transform="translate(0,0)" fill="rgb(79,79,80)" d="M 477.199 692.908 C 477.009 689.279 476.314 684.429 478.069 681.429 C 480.724 680.345 481.318 678.832 483.487 678.554 L 484.626 680.672 C 482.052 684.748 482.136 687.414 483.192 692.051 L 477.199 692.908 z"/>
<path transform="translate(0,0)" fill="rgb(176,176,177)" d="M 483.192 692.051 C 482.136 687.414 482.052 684.748 484.626 680.672 C 484.821 687.231 485.047 700.036 484.16 706.422 C 483.752 701.758 484.576 696.385 483.192 692.051 z"/>
<path transform="translate(0,0)" fill="rgb(248,248,247)" d="M 310.356 915.353 L 312.805 915.416 C 315.166 919.93 313.884 968.227 313.801 976.864 C 297.087 977.229 271.748 980.536 254.763 982.344 L 252.215 981.989 C 249.762 977.529 251.1 935.788 251.2 927.693 C 269.259 923.832 292.499 917.782 310.356 915.353 z"/>
<path transform="translate(0,0)" fill="rgb(42,42,42)" d="M 275.009 933.043 C 278.29 932.805 281.53 932.177 284.312 933.842 C 287.52 937.578 286.243 967.136 282.7 972 C 279.276 972.095 275.88 972.653 273.26 970.562 C 270.56 964.588 270.551 938.191 275.009 933.043 z"/>
<path transform="translate(0,0)" fill="rgb(176,176,177)" d="M 278.078 938.572 L 279.632 940.135 C 280.621 946.927 279.942 959.194 279.528 966.253 C 276.757 962.691 277.969 944.542 278.078 938.572 z"/>
<path transform="translate(0,0)" fill="rgb(248,248,247)" d="M 439.936 696.085 C 444.714 698.291 447.068 696.465 450.49 698.976 C 451.154 702.635 447.602 703.503 447.737 704.753 C 448.736 714.001 448.905 730.393 448.911 739.16 L 447.813 901.846 C 447.778 908.656 448.631 935.908 446.7 940.291 L 444.784 940.951 L 432.095 942.87 L 433.703 775.971 C 433.901 756.525 433.451 734.157 434.37 714.515 C 434.426 713.315 436.854 711.248 438.08 710.099 C 441.057 707.31 440.142 700.355 439.936 696.085 z"/>
<path transform="translate(0,0)" fill="rgb(248,248,247)" d="M 1064.19 525.17 L 1065.14 526.518 C 1065.36 529.877 1065.84 533.111 1064.69 536.268 C 1061.93 539.092 969.639 566.809 960.099 569.775 C 887.639 592.121 815.369 615.079 743.298 638.647 C 741.475 636.144 741.881 633.486 741.996 630.49 C 742.331 629.945 742.667 629.399 743.002 628.853 C 756.736 624.394 775.94 618.224 789.245 613.876 L 1064.19 525.17 z"/>
<path transform="translate(0,0)" fill="rgb(248,248,247)" d="M 1071.79 525.439 C 1124.43 544.476 1178.92 568.6 1232.03 588.538 C 1278.52 605.727 1324.86 623.337 1371.04 641.364 C 1389.93 648.662 1413.37 656.381 1431.37 664.584 C 1433.6 667.542 1432.88 667.868 1433.13 672.31 C 1408.33 661.356 1373.43 649.821 1347.11 639.977 L 1145.65 565.644 C 1119.78 555.886 1097.6 548.178 1071.73 537.425 L 1071.79 525.439 z"/>
<path transform="translate(0,0)" fill="rgb(248,248,247)" d="M 1616.94 973.237 C 1626.74 972.046 1672.31 977.395 1685.19 978.214 C 1740.9 981.756 1797.41 985.221 1852.96 990.814 C 1853.11 995.687 1853.99 1001.78 1851 1005.22 C 1836 1005.15 1796.53 1006.53 1779.94 1005.22 C 1779.17 1005.16 1778.57 999.413 1777.94 997.182 C 1770.25 991.841 1708.18 1000.96 1696.7 997.401 C 1672.86 990.005 1639.38 981.962 1616.94 973.237 z"/>
<path transform="translate(0,0)" fill="rgb(248,248,247)" d="M 1063.12 506.097 L 1065.01 506.143 L 1066.09 507.82 C 1066.68 512.972 1065.63 516.754 1060.28 518.608 C 1021.64 532.002 982.361 543.476 943.56 556.361 L 809.316 600.121 C 785.929 607.685 759.528 617.092 736.089 623.551 C 733.899 621.822 733.588 621.701 732.166 619.369 L 732.992 617.711 C 735.737 615.668 829.637 584.612 839.113 581.493 C 913.763 556.931 988.083 529.185 1063.12 506.097 z"/>
<path transform="translate(0,0)" fill="rgb(248,248,247)" d="M 1071.47 505.27 C 1087.93 511.495 1105.37 518.822 1121.55 525.804 C 1223.83 569.939 1327.8 608.922 1431.32 649.826 C 1433.43 652.881 1432.73 652.574 1432.68 657.002 C 1394.67 644.292 1352 626.085 1314.24 611.8 C 1232.87 581.366 1151.91 549.828 1071.39 517.195 L 1071.47 505.27 z"/>
<path transform="translate(0,0)" fill="rgb(248,248,247)" d="M 604.093 429.345 C 645.019 442.919 695.774 458.999 735.719 473.967 L 735.704 496.396 C 692.152 480.816 646.446 469.548 603.084 453.859 C 603.083 444.756 603.181 438.365 604.093 429.345 z"/>
<path transform="translate(0,0)" fill="rgb(248,248,247)" d="M 410.961 707.467 C 415.359 712.899 412.242 921.676 412.175 945.721 L 398.095 947.183 C 397.921 873.374 400.489 797.052 401.028 722.898 C 414.816 716.625 398.897 715.823 410.961 707.467 z"/>
<path transform="translate(0,0)" fill="rgb(248,248,247)" d="M 589.197 948.478 C 590.251 948.477 589.735 948.432 590.873 949.494 C 591.758 956.281 591.172 982.011 591.142 990.16 C 560.368 983.927 527.586 979.203 496.29 973.266 C 490.578 972.42 478.67 971.996 477.482 965.291 C 482.533 958.371 513.365 956.599 522.599 955.544 C 544.78 953.014 566.979 950.659 589.197 948.478 z"/>
<path transform="translate(0,0)" fill="rgb(248,248,247)" d="M 1322.81 375.112 C 1324.32 377.631 1323.54 390.839 1323.45 394.633 C 1304.77 401.548 1188.09 454.172 1181.95 453.113 C 1180.37 448.22 1178.08 442.896 1176.13 438.083 C 1224.8 418.147 1273.76 395.278 1322.81 375.112 z"/>
<path transform="translate(0,0)" fill="rgb(248,248,247)" d="M 1440.92 960.468 C 1452.11 965.658 1543.99 1006.66 1544.12 1006.86 L 1540.75 1007.61 C 1509.68 1008.33 1472.69 1012.28 1440.85 1014.22 L 1440.92 960.468 z"/>
<path transform="translate(0,0)" fill="rgb(248,248,247)" d="M 602.086 485.317 C 620.536 490.673 638.936 496.203 657.282 501.907 C 658.02 516.56 657.671 533.523 657.665 548.376 C 640.041 545.899 619.306 539.822 601.988 535.15 L 602.086 485.317 z"/>
<path transform="translate(0,0)" fill="rgb(248,248,247)" d="M 345.817 730.761 C 347.396 730.778 348.878 731.002 350.45 731.182 L 350.832 732.404 L 350.384 732.775 C 349.861 733.217 347.065 735.795 347.175 736.444 C 349.253 748.717 348.858 761.045 348.833 773.449 L 348.629 888.583 C 348.637 906.791 349.511 936.452 348.138 953.318 C 346.308 955.739 344.625 955.55 341.161 956.613 C 339.458 956.776 338.374 956.635 336.697 956.497 C 335.213 953.252 336.436 759.091 337.954 742.787 C 340.071 741.037 342.071 739.687 344.316 738.13 C 345.742 735.47 345.7 734.56 345.793 731.644 L 345.817 730.761 z"/>
<path transform="translate(0,0)" fill="rgb(248,248,247)" d="M 1354.63 327.4 C 1377.27 323.83 1408.85 329.346 1431.08 334.584 C 1432.12 342.223 1432.09 351.404 1432.26 359.24 C 1414.2 349.162 1407.35 349.762 1387.25 348.048 C 1363.65 347.162 1326.73 347.621 1305.9 359.332 C 1305.99 351.661 1306.48 343.923 1306.87 336.257 C 1322.12 331.358 1338.77 329.114 1354.63 327.4 z"/>
<path transform="translate(0,0)" fill="rgb(248,248,247)" d="M 370.543 721.595 C 374.581 725.07 375.41 721.941 379.837 725.196 C 381.017 735.056 380.644 942.601 378.906 949.905 L 376.916 950.664 C 373.518 951.28 370.917 952.111 367.664 951.167 C 365.743 944.748 368.235 871.247 368.407 859.609 C 368.804 824.537 368.98 789.462 368.936 754.388 C 368.988 743.022 371.085 732.251 370.543 721.595 z"/>
<path transform="translate(0,0)" fill="rgb(248,248,247)" d="M 1567.21 720.397 C 1571.29 722.099 1574.3 723.715 1578.2 725.817 C 1579.6 749.603 1579.39 777.694 1580.07 801.842 C 1581.89 858.219 1583.19 914.611 1583.98 971.012 C 1580.7 970.637 1576.84 970.663 1574.43 968.754 C 1572.79 957.453 1572.95 917.226 1572.59 903.959 C 1571.34 869.24 1570.34 834.513 1569.6 799.78 C 1569.01 774.408 1568.93 745.447 1567.21 720.397 z"/>
<path transform="translate(0,0)" fill="rgb(248,248,247)" d="M 1415.31 374.332 C 1429.35 380.152 1448.31 389.996 1462.3 396.823 L 1548.12 438.937 C 1546.07 445.448 1545.62 448.362 1544.69 454.966 L 1543.89 456.455 C 1537.41 455.071 1423.35 396.255 1415.24 390.933 L 1415.31 374.332 z"/>
<path transform="translate(0,0)" fill="rgb(248,248,247)" d="M 594.898 432.877 C 595.376 433.027 596.125 433.673 596.586 434.014 C 597.304 439.871 596.693 448.895 596.477 455.018 C 566.213 473.905 528.187 491.569 496.564 509.874 L 495.486 509.566 C 494.432 506.142 494.888 494.258 494.935 489.933 C 523.602 471.998 565.093 448.837 594.898 432.877 z"/>
<path transform="translate(0,0)" fill="rgb(248,248,247)" d="M 1297.27 338.998 L 1298.64 339.642 C 1299.53 344.031 1298.94 356.822 1298.82 361.956 C 1269.31 376.612 1230.1 390.885 1198.54 405.515 C 1197.64 405.559 1198 405.486 1196.93 404.564 C 1196.67 400.52 1196.14 396.405 1199.34 393.586 C 1224.96 371.026 1266.55 350.731 1297.27 338.998 z"/>
<path transform="translate(0,0)" fill="rgb(248,248,247)" d="M 1517.49 879.583 L 1531.91 878.758 L 1532.5 937.7 C 1532.56 943.301 1533.16 960.952 1532.12 965.159 C 1529.06 966.429 1525.69 965.633 1522.24 965.257 L 1508.02 964.088 L 1508.08 880.244 L 1517.49 879.583 z"/>
<path transform="translate(0,0)" fill="rgb(248,248,247)" d="M 603.04 461.169 C 647.071 476.153 691.68 488.245 735.161 503.393 L 735.147 516.595 C 693.34 505.92 644.361 490.988 602.831 478.203 L 603.04 461.169 z"/>
<path transform="translate(0,0)" fill="rgb(248,248,247)" d="M 599.444 827.329 C 644.452 830.691 689.407 834.738 734.293 839.468 L 734.333 852.297 C 694.008 845.818 641.92 846.372 599.043 840.728 C 598.914 835.514 598.945 832.502 599.444 827.329 z"/>
<path transform="translate(0,0)" fill="rgb(248,248,247)" d="M 331.223 737.354 L 331.736 737.834 C 329.025 741.298 330.27 750.937 330.268 755.624 L 330.125 792.122 L 329.088 912.584 C 329.022 926.293 329.185 942.594 328.488 956.476 C 328.383 958.561 324.05 960.582 322.002 961.845 L 321.74 961.606 C 320.141 957.964 322.27 760.584 322.372 740.608 L 331.223 737.354 z"/>
<path transform="translate(0,0)" fill="rgb(248,248,247)" d="M 743.054 456.805 C 765.713 465.257 947.241 522.228 949.285 524.326 L 946.791 525.792 L 936.697 529.358 C 927.095 524.696 903.546 517.661 892.673 514.15 L 790.725 481.111 C 779.449 477.426 753.19 469.779 743.882 465.459 C 742.404 463.178 742.962 459.746 743.054 456.805 z"/>
<path transform="translate(0,0)" fill="rgb(248,248,247)" d="M 484.061 582.962 L 485.518 584.41 L 485.456 586.379 C 477.314 590.79 477.585 595.879 466.852 600.842 C 448.129 609.497 429.308 617.806 410.523 626.309 C 374.671 642.706 338.91 659.303 303.242 676.099 C 300.879 674.798 300.765 671.907 301.015 669.554 C 307.073 662.77 463.392 593.588 484.061 582.962 z"/>
<path transform="translate(0,0)" fill="rgb(248,248,247)" d="M 1415.57 503.653 C 1420.32 504.028 1425.32 505.343 1429.99 506.416 C 1430.35 544.572 1430.32 582.731 1429.93 620.886 C 1425.52 618.853 1420.52 617.174 1415.92 615.515 C 1416.04 578.164 1415.09 541.133 1415.57 503.653 z"/>
<path transform="translate(0,0)" fill="rgb(248,248,247)" d="M 595.782 462.893 C 596.392 465.925 596.048 476.198 596.011 479.822 C 573.421 490.607 551.083 503.052 528.704 514.311 C 512.987 522.219 496.743 531.452 479.89 536.467 C 478.753 533.827 477.744 532.336 478.266 529.569 C 482.666 525.676 496.119 518.573 502.17 514.984 C 532.592 496.944 565.491 481.083 595.782 462.893 z"/>
<path transform="translate(0,0)" fill="rgb(248,248,247)" d="M 699.265 513.95 C 710.92 517.692 723.243 520.803 735.098 523.98 C 735.188 538.915 735.189 553.851 735.1 568.787 L 698.885 559.276 C 698.891 544.167 699.018 529.058 699.265 513.95 z"/>
<path transform="translate(0,0)" fill="rgb(248,248,247)" d="M 1350.06 152.318 C 1364.69 151.235 1370.66 151.526 1381.98 160.955 L 1382.02 192.465 L 1368.94 190.334 C 1369.02 181.822 1369.07 173.314 1369.04 164.803 C 1369.03 160.729 1367.86 158.164 1363.51 157.805 C 1358.76 162.581 1364.11 183.039 1360.59 189.481 L 1358.25 189.89 L 1345.03 190.48 C 1345.14 183.098 1346.4 164.298 1342.17 158.627 L 1340.7 159.342 C 1336.92 168.049 1337.97 181.617 1338.11 191.413 L 1324.81 194.68 C 1324.17 185.248 1324.23 173.878 1324.04 164.297 C 1333.14 155.759 1338.12 154.635 1350.06 152.318 z"/>
<path transform="translate(0,0)" fill="rgb(248,248,247)" d="M 602.173 542.279 C 630.681 550.639 661.532 556.995 690.371 564.516 C 701.952 567.536 723.546 571.697 734.117 576.092 C 735.678 579.37 735.18 583.402 735.097 587.181 C 719.811 582.735 701.403 578.887 685.686 575.233 L 601.778 555.69 L 602.173 542.279 z"/>
<path transform="translate(0,0)" fill="rgb(248,248,247)" d="M 1439.03 339.373 C 1462.7 351.303 1486.23 363.509 1509.62 375.989 C 1509.8 382.951 1510.2 390.118 1510.52 397.094 C 1490.83 389.067 1459.28 372.115 1439.55 362.293 C 1439.75 355.783 1439.2 346.112 1439.03 339.373 z"/>
<path transform="translate(0,0)" fill="rgb(248,248,247)" d="M 1588.02 886.388 C 1596.83 888.285 1608.36 889.611 1617.48 891.113 L 1674.7 900.663 C 1721.49 908.127 1768.39 916.919 1815.23 924.427 C 1826.88 926.297 1841.25 928.567 1852.5 931.679 L 1854.11 935.537 C 1840.9 934.624 1811.46 928.921 1796.84 926.565 L 1687.89 909.177 L 1621.62 898.567 C 1614.62 897.463 1596.41 895.206 1590.49 893.471 C 1587.79 890.644 1588.59 891.047 1588.02 886.388 z"/>
<path transform="translate(0,0)" fill="rgb(248,248,247)" d="M 1299.54 493.981 L 1301.24 494.51 C 1302.44 498.112 1302.06 504.458 1302.05 508.493 C 1271.88 518.077 1236.4 531.003 1206.62 541.978 L 1196.57 538.006 L 1188.61 534.723 L 1299.54 493.981 z"/>
<path transform="translate(0,0)" fill="rgb(248,248,247)" d="M 1346.59 197.323 C 1359.53 196.139 1397.91 197.329 1404.72 210.123 C 1405.09 213.056 1405.53 214.344 1404.39 217.059 C 1395.06 217.323 1376.47 213.088 1361.49 212.996 C 1341.26 212.732 1324.44 216.163 1305.74 223.369 L 1305.86 209.493 C 1318.7 203.288 1332.45 199.18 1346.59 197.323 z"/>
<path transform="translate(0,0)" fill="rgb(248,248,247)" d="M 420.022 715.851 C 422.818 715.919 423.531 715.896 426.191 716.709 C 427.722 719.673 424.916 926.014 424.664 946.976 C 422.545 947.444 421.687 947.823 419.564 947.279 C 418.011 941.854 419.069 898.949 419.11 890.04 L 420.022 715.851 z"/>
<path transform="translate(0,0)" fill="rgb(248,248,247)" d="M 1062.64 493.06 C 1063.73 492.83 1064.09 493.026 1065.28 493.183 L 1066.56 495.137 L 1066.1 496.309 C 1063.88 498.262 753.61 603.278 725.892 613.001 C 723.799 613.227 723.949 613.246 722.112 612.212 C 725.331 607.949 900.838 549.383 922.139 541.816 C 963.213 527.225 1020.75 506.01 1062.64 493.06 z"/>
<path transform="translate(0,0)" fill="rgb(248,248,247)" d="M 1301.91 537.288 C 1303.91 540.081 1303.06 575.525 1303.04 581.764 C 1289.18 576.3 1274.67 569.816 1260.78 564.061 C 1252.86 561.159 1246.42 558.515 1238.7 555.086 C 1259.64 549.292 1281.04 542.712 1301.91 537.288 z"/>
<path transform="translate(0,0)" fill="rgb(248,248,247)" d="M 594.198 488.978 L 594.889 489.394 C 596.259 492.161 595.716 529.7 595.716 535.156 C 586.474 539.821 575.992 544.414 566.527 548.797 L 565.698 548.662 C 564.431 546.144 564.797 509.73 564.702 503.422 C 574.487 498.513 584.32 493.698 594.198 488.978 z"/>
<path transform="translate(0,0)" fill="rgb(248,248,247)" d="M 1314.09 504.199 C 1319.06 504.173 1321.5 503.709 1325.19 506.74 C 1326.34 511.819 1327.94 586.667 1326.47 590.564 L 1324.69 590.722 L 1309.79 584.77 C 1309.72 563.963 1308.53 527.382 1310.98 505.798 C 1311.05 505.153 1313.15 504.576 1314.09 504.199 z"/>
<path transform="translate(0,0)" fill="rgb(248,248,247)" d="M 360.209 733.479 C 360.66 733.784 360.845 733.866 361.211 734.347 C 362.636 736.222 362.634 927.852 360.454 948.545 C 360.099 951.911 359.409 952.466 356.9 954.545 L 355.684 953.436 C 352.954 943.845 356.483 762.543 356.016 737.868 C 355.981 735.989 358.474 734.73 360.209 733.479 z"/>
<path transform="translate(0,0)" fill="rgb(248,248,247)" d="M 588.064 828.223 C 589.857 827.689 589.726 827.719 591.497 828.348 C 592.971 831.528 592.205 837.589 591.991 841.353 C 561.771 846.473 524.256 854.714 494.285 861.817 C 493.28 861.989 492.547 861.705 491.464 861.495 C 490.04 858.086 490.636 852.965 490.782 849.075 L 588.064 828.223 z"/>
<path transform="translate(0,0)" fill="rgb(248,248,247)" d="M 1069.94 493.9 C 1075.97 493.877 1144.61 523.455 1153.83 527.253 C 1220.54 554.22 1287.03 581.706 1353.31 609.71 C 1364.7 614.406 1426.46 637.049 1432.59 641.906 C 1426.66 641.506 1408.12 633.5 1401.83 631.037 L 1355.74 613.385 C 1279.61 583.592 1203.87 552.814 1128.55 521.06 C 1111.94 514.141 1088.81 504.733 1071.93 497.026 C 1071.15 495.791 1070.48 494.75 1069.94 493.9 z"/>
<path transform="translate(0,0)" fill="rgb(248,248,247)" d="M 592.912 543.935 L 594.413 544.246 C 595.78 547.462 595.195 553.215 595.077 556.975 C 564.341 571.737 518.042 591.854 486.619 603.934 C 485.989 603.716 485.702 603.156 485.128 602.507 C 484.932 600.706 484.451 598.319 484.987 596.569 C 486.057 593.073 580.625 549.837 592.912 543.935 z"/>
<path transform="translate(0,0)" fill="rgb(248,248,247)" d="M 1532.34 550.868 L 1543.09 555.058 C 1543.25 593.384 1545.03 633.343 1545.61 672.021 L 1533.09 668.131 L 1533.09 594.744 C 1533.08 581.632 1533.58 563.337 1532.34 550.868 z"/>
<path transform="translate(0,0)" fill="rgb(248,248,247)" d="M 456.681 703.341 C 459.255 703.696 459.44 703.642 461.507 705.098 C 462.334 708.994 461.459 741.149 461.364 746.468 L 460.002 839.665 L 459.794 909.268 C 459.779 916.122 460.128 936.505 459.15 942.155 L 456.455 942.571 L 455.089 941.053 C 454.399 938.163 454.243 872.848 454.704 868.875 C 457.286 846.609 451.588 713.152 456.681 703.341 z"/>
<path transform="translate(0,0)" fill="rgb(248,248,247)" d="M 1437.82 491.878 C 1453.74 496.964 1470.58 506.071 1486.49 511.906 C 1499.27 516.592 1512.73 522.53 1525.24 528.035 L 1525.37 541.997 L 1437.62 507.753 C 1437.55 502.583 1437.74 497.075 1437.82 491.878 z"/>
<path transform="translate(0,0)" fill="rgb(248,248,247)" d="M 521.877 525.887 C 522.756 529.624 522.424 563.466 522.4 569.257 C 512.652 574.258 502.382 578.875 492.423 583.497 C 491.691 578.033 492.381 548.051 492.43 540.895 C 501.402 535.732 512.475 530.503 521.877 525.887 z"/>
<path transform="translate(0,0)" fill="rgb(248,248,247)" d="M 670.924 771.763 C 677.058 772.02 687.68 773.819 694.096 774.734 L 693.778 828.536 L 670.391 826.422 L 670.924 771.763 z"/>
<path transform="translate(0,0)" fill="rgb(248,248,247)" d="M 1266.78 425.99 C 1267.78 426.138 1267.88 426.369 1268.84 426.918 L 1268.95 498.213 L 1253.26 504.084 C 1250.69 501.372 1251.45 441.344 1251.41 432.902 L 1266.78 425.99 z"/>
<path transform="translate(0,0)" fill="rgb(248,248,247)" d="M 388.118 726.632 L 392.991 726.845 C 395.836 731.21 390.911 927.775 390.785 950.718 L 388.415 951.365 L 387.055 950.434 C 385.744 945.657 387.099 729.787 388.118 726.632 z"/>
<path transform="translate(0,0)" fill="rgb(248,248,247)" d="M 1321.68 401.987 L 1323.13 402.455 C 1325.26 409.998 1324.61 465.7 1324.9 477.173 C 1320.07 478.351 1314.68 480.316 1309.91 481.915 C 1309.79 481.852 1309.64 481.826 1309.55 481.726 C 1306.75 478.711 1307.12 418.06 1307.07 408.748 C 1311.55 406.468 1317.04 404.118 1321.68 401.987 z"/>
<path transform="translate(0,0)" fill="rgb(248,248,247)" d="M 477.839 603.28 C 478.234 603.865 480.386 609.288 480.69 610.08 C 479.007 612.942 332.47 674.138 314.974 684.551 C 312.812 682.957 311.413 682.542 310.746 680.376 C 322.88 673.144 345.579 663.911 359.006 657.448 C 398.007 638.676 438.92 622.075 477.839 603.28 z"/>
<path transform="translate(0,0)" fill="rgb(248,248,247)" d="M 1503.2 841.114 C 1518.21 840.116 1526.76 850.548 1531.69 864.261 C 1532.74 867.188 1531.57 868.926 1530.1 871.299 C 1526.79 872.576 1514.94 872.961 1510.75 873.215 C 1502.69 873.826 1494.74 874.869 1486.71 875.857 C 1486.95 859.662 1488.01 849.566 1503.2 841.114 z"/>
<path transform="translate(0,0)" fill="rgb(248,248,247)" d="M 602.856 413.156 C 631.328 423.536 661.289 432.641 690.006 442.406 C 704.032 447.175 721.596 451.867 735.076 457.349 C 736.43 459.798 736.038 463.512 736.042 466.499 C 706.221 455.557 675.5 446.332 645.406 436.154 C 632.329 431.731 617.482 427.445 604.77 422.388 C 602.758 419.672 603.052 416.684 602.856 413.156 z"/>
<path transform="translate(0,0)" fill="rgb(248,248,247)" d="M 1415.31 357.774 C 1429.44 363.762 1460.98 380.487 1475.84 387.898 C 1496.3 398.098 1535.66 415.304 1553.33 426.46 C 1554.41 429.418 1553.85 429.152 1552.76 432.625 C 1547.53 431.413 1513.92 414.465 1507.08 411.097 C 1476.77 396.529 1446.58 381.712 1416.51 366.646 C 1414.61 363.299 1415.32 362.211 1415.31 357.774 z"/>
<path transform="translate(0,0)" fill="rgb(248,248,247)" d="M 1369.57 497.42 C 1383.82 496.503 1393.87 497.762 1408.01 499.34 L 1408.03 514.941 C 1395.09 512.764 1385.12 512.185 1372.03 512.174 C 1357.89 512.916 1346.84 513.855 1332.98 516.724 L 1332.83 504.237 C 1346.73 499.675 1355.1 498.46 1369.57 497.42 z"/>
<path transform="translate(0,0)" fill="rgb(248,248,247)" d="M 1415.12 400.362 C 1419.46 402.077 1425.21 405.145 1429.52 407.283 C 1429.72 431.357 1429.76 455.432 1429.66 479.507 L 1415.09 473.836 L 1415.12 400.362 z"/>
<path transform="translate(0,0)" fill="rgb(248,248,247)" d="M 1593.21 711.343 C 1595.94 711.812 1608.36 716.683 1611.71 717.915 C 1623.18 722.071 1634.68 726.148 1646.2 730.144 C 1665.3 736.781 1860.44 802.176 1864.5 807.321 L 1862.8 807.947 C 1796.01 784.579 1729.01 761.807 1661.82 739.633 C 1639.68 732.209 1617.38 724.556 1595.05 717.724 C 1592.36 716.901 1591.39 716.304 1590.11 714.204 L 1593.21 711.343 z"/>
<path transform="translate(0,0)" fill="rgb(248,248,247)" d="M 1494.41 881.192 C 1497.33 880.966 1498.23 880.646 1500.81 881.775 C 1501.55 889.771 1501.91 957.986 1500.44 962.73 L 1496.74 963.704 C 1493.71 963.359 1491.62 963.493 1489.32 961.613 C 1487.86 942.262 1487.62 903.435 1488.14 883.729 C 1490.26 881.459 1490.93 881.935 1494.41 881.192 z"/>
<path transform="translate(0,0)" fill="rgb(248,248,247)" d="M 1583.39 721.66 C 1588.63 721.915 1601.46 726.86 1606.93 728.705 L 1653.54 744.375 L 1770.71 783.356 C 1782.02 787.125 1850.92 809.007 1854.36 813.424 C 1849.51 814.237 1809.15 799.485 1801.28 796.847 L 1650.47 747.372 C 1636.05 742.708 1621.61 738.122 1607.14 733.615 C 1600.54 731.544 1593.68 729.405 1587.07 727.283 C 1584.55 726.472 1584.37 724.293 1583.39 721.66 z"/>
<path transform="translate(0,0)" fill="rgb(248,248,247)" d="M 311.73 598.838 L 312.844 599.683 C 313.956 603.519 313.366 613.985 313.278 618.469 C 295.562 627.265 274.418 639.113 257.278 649.109 C 255.066 647.161 255.93 638.207 255.977 635.05 C 262.354 629.261 301.087 605.824 311.73 598.838 z"/>
<path transform="translate(0,0)" fill="rgb(248,248,247)" d="M 1241.89 436.996 C 1243.24 437.112 1242.72 437.031 1243.96 437.915 C 1244.16 461.041 1244.22 484.168 1244.16 507.295 L 1232.52 511.674 C 1231.56 511.629 1231.85 511.501 1230.79 510.552 C 1230.16 488.557 1230.67 463.929 1230.67 441.729 L 1241.89 436.996 z"/>
<path transform="translate(0,0)" fill="rgb(248,248,247)" d="M 1371.73 478.438 C 1382.46 477.555 1397.37 478.983 1407.98 480.399 L 1407.98 492.454 C 1392.21 490.774 1380.56 490.421 1364.75 491.029 C 1352.31 492.346 1344.93 493.715 1332.98 497.3 L 1332.71 484.721 C 1347.38 480.257 1356.48 479.285 1371.73 478.438 z"/>
<path transform="translate(0,0)" fill="rgb(248,248,247)" d="M 1301.09 516.055 L 1302.05 516.448 C 1303.46 519.49 1302.94 526.019 1302.89 529.717 C 1284.14 534.681 1248.29 545.972 1228.17 550.411 C 1226.36 549.734 1224.84 549.165 1223.6 548.703 C 1221.07 547.664 1220.09 547.509 1218.31 545.543 C 1221.63 543.754 1237.79 538.657 1242.6 536.958 L 1301.09 516.055 z"/>
<path transform="translate(0,0)" fill="rgb(248,248,247)" d="M 1193.4 457.043 L 1193.98 457.155 C 1194.41 457.584 1194.84 458.014 1195.27 458.443 C 1195.67 477.476 1195.79 506.925 1195.92 524.797 L 1185.24 528.245 L 1183.91 528.632 L 1182.79 527.533 L 1182.68 460.802 L 1193.4 457.043 z"/>
<path transform="translate(0,0)" fill="rgb(248,248,247)" d="M 596.027 414.879 L 596.696 415.089 C 598.268 417.33 597.56 420.451 597.503 423.769 C 562.844 442.874 524.324 463.803 490.773 484.621 L 489.882 484.323 C 488.698 481.262 488.846 482.607 489.687 479.065 C 492.61 475.225 587.302 420.099 596.027 414.879 z"/>
<path transform="translate(0,0)" fill="rgb(248,248,247)" d="M 1531.35 993.319 C 1562.58 995.558 1594.65 994.556 1625.98 995.804 C 1636.53 996.224 1661.73 993.748 1669.88 998.147 L 1668.18 998.85 C 1643.9 1000.49 1619.59 1001.85 1595.27 1002.94 C 1564.77 1004.28 1559.56 1006.3 1531.35 993.319 z"/>
<path transform="translate(0,0)" fill="rgb(248,248,247)" d="M 1438.76 648.462 C 1442.84 649.413 1454.96 654.103 1459.6 655.767 L 1502.31 671.125 L 1559.45 691.765 C 1569.68 695.504 1580.72 699.281 1590.58 703.843 C 1592.77 704.856 1592.07 704.383 1592.87 706.859 C 1591.91 706.974 1589.35 707.363 1588.05 706.893 C 1538.87 689.083 1488.67 673.363 1440.01 654.245 C 1438.65 653.711 1438.85 650.183 1438.76 648.462 z"/>
<path transform="translate(0,0)" fill="rgb(248,248,247)" d="M 980.586 732.331 L 982.209 732.367 C 984.313 735.888 983.662 783.642 983.673 791.394 L 973.089 793.43 L 970.564 793.152 C 969.241 789.632 969.81 741.424 970.419 735.216 C 973.213 733.06 976.944 732.918 980.586 732.331 z"/>
<path transform="translate(0,0)" fill="rgb(248,248,247)" d="M 1465.31 425.649 L 1476.97 431.468 C 1477.03 454.709 1477.26 477.949 1477.66 501.187 C 1473.91 499.67 1469.79 497.749 1466.04 496.104 L 1465.31 425.649 z"/>
<path transform="translate(0,0)" fill="rgb(248,248,247)" d="M 320.527 596.878 C 335.293 600.366 350.43 604.396 365.265 607.848 C 366.401 608.112 365.98 608.023 366.732 609.381 C 364.515 612.375 360.974 613.803 357.583 615.628 C 356.275 616.391 349.628 620.278 348.616 620.52 C 342.737 621.929 342.318 619.784 337.297 624.324 C 331.765 622.422 325.914 621.128 320.219 619.746 L 320.527 596.878 z"/>
<path transform="translate(0,0)" fill="rgb(248,248,247)" d="M 1437.56 515.001 C 1461.33 525.291 1503.28 539.071 1524.29 550.014 C 1526.21 552.911 1525.55 553.797 1525.63 557.769 C 1522.11 557.544 1444.69 527.434 1439.02 524.563 C 1437.08 521.723 1437.56 518.619 1437.56 515.001 z"/>
<path transform="translate(0,0)" fill="rgb(248,248,247)" d="M 1297.46 412.698 L 1298.8 412.64 L 1300.08 413.922 C 1299.97 432.778 1302.79 467.661 1300.86 485.234 C 1299.4 487.504 1296.49 488.133 1293.77 489.159 L 1291.93 489.203 C 1290.18 486.947 1290.28 425.042 1290.4 417.461 C 1292.31 414.459 1293.82 414.487 1297.46 412.698 z"/>
<path transform="translate(0,0)" fill="rgb(248,248,247)" d="M 1502.95 980.863 C 1507.45 980.726 1537.69 982.999 1542.77 983.52 C 1567.47 986.052 1627.2 984.263 1648.18 991.619 C 1639.24 992.185 1629.67 991.887 1620.71 991.551 C 1588.28 990.336 1555.34 991.871 1523.1 988.308 C 1516.15 987.54 1509.02 983.943 1502.95 980.863 z"/>
<path transform="translate(0,0)" fill="rgb(248,248,247)" d="M 1484.09 435.233 L 1494.89 439.977 L 1495.15 507.786 L 1484.82 503.683 L 1484.09 435.233 z"/>
<path transform="translate(0,0)" fill="rgb(248,248,247)" d="M 956.603 736.024 C 959.743 735.857 960.223 735.701 963.171 736.569 C 964.687 743.627 963.832 783.566 962.914 793.694 C 962.828 794.649 961.055 795.319 959.891 796.005 C 956.578 796.263 955.278 797.021 953.125 795.458 C 952.108 781.027 950.988 753.55 952.861 738.553 C 953.042 737.097 954.914 736.757 956.603 736.024 z"/>
<path transform="translate(0,0)" fill="rgb(248,248,247)" d="M 1531.19 458.809 C 1534.37 460.222 1538.7 462.657 1541.88 464.325 C 1542.01 485.002 1542.28 505.678 1542.7 526.352 L 1531.65 520.335 C 1531.35 499.828 1531.2 479.319 1531.19 458.809 z"/>
<path transform="translate(0,0)" fill="rgb(248,248,247)" d="M 882.31 754.479 C 882.968 754.758 883.153 755.263 883.721 755.992 C 883.77 764.756 884.593 800.72 883.144 807.753 C 880.225 809.963 876.789 809.944 873.016 810.435 L 872.195 809.712 C 870.787 805.894 871.424 762.651 872.238 756.85 C 874.785 755.055 879.019 754.919 882.31 754.479 z"/>
<path transform="translate(0,0)" fill="rgb(248,248,247)" d="M 1449.4 417.647 L 1458.65 422.228 L 1458.83 492.855 L 1449.82 488.826 C 1449.56 465.1 1449.42 441.373 1449.4 417.647 z"/>
<path transform="translate(0,0)" fill="rgb(248,248,247)" d="M 1210 449.976 L 1211.14 450.67 C 1212.26 454.658 1212.05 512.211 1211.46 518.337 C 1209.32 521.116 1208.69 520.695 1205.04 522.151 L 1204.06 521.873 C 1201.71 519.024 1202.21 462.446 1202.78 454.174 C 1204.8 451.459 1206.46 451.463 1210 449.976 z"/>
<path transform="translate(0,0)" fill="rgb(248,248,247)" d="M 1476.6 969.036 C 1479.92 968.867 1483.61 969.321 1486.93 969.659 C 1527.39 973.768 1568.08 975.329 1608.53 979.439 C 1613.22 979.916 1618.39 980.773 1622.72 982.599 C 1614.08 983.251 1602.45 982.137 1593.51 981.681 C 1559.93 979.968 1526.27 978.585 1492.73 976.319 C 1490.17 976.146 1479.41 970.455 1476.6 969.036 z"/>
<path transform="translate(0,0)" fill="rgb(248,248,247)" d="M 1461.29 670.581 C 1465.69 671.19 1470.01 672.839 1474.18 674.399 C 1502.22 684.891 1530.79 693.847 1558.88 704.142 C 1561.39 705.062 1561.52 708.005 1562.2 710.416 C 1547.29 708.487 1482.1 682.438 1463.67 676.906 C 1461.94 676.386 1461.68 672.616 1461.29 670.581 z"/>
<path transform="translate(0,0)" fill="rgb(248,248,247)" d="M 1514.04 449.674 C 1517.34 451.198 1520.88 453.077 1524.15 454.729 L 1524.08 520.554 C 1521.13 519.284 1518.12 517.654 1515.24 516.178 C 1515.1 494.006 1514.7 471.836 1514.04 449.674 z"/>
<path transform="translate(0,0)" fill="rgb(248,248,247)" d="M 1159.93 735.4 C 1163.61 736.121 1166.82 736.283 1169.5 738.699 C 1170.86 744.969 1170.16 787.805 1170.12 797.034 C 1166.66 796.305 1163.2 795.543 1159.75 794.75 L 1159.93 735.4 z"/>
<path transform="translate(0,0)" fill="rgb(248,248,247)" d="M 529.695 771.164 C 532.728 771.04 535.315 770.625 537.513 772.195 C 539.14 786.849 536.968 813.669 537.912 829.402 C 538.051 831.725 537.275 831.951 535.872 833.021 C 533 833.568 531.275 834.202 528.52 833.302 C 527.631 825.989 527.244 774.822 529.695 771.164 z"/>
<path transform="translate(0,0)" fill="rgb(248,248,247)" d="M 1280.91 419.284 L 1282.43 419.854 C 1285.3 423.332 1283.24 480.594 1283.6 488.959 C 1283.76 492.763 1282.53 493.572 1279.9 495.732 C 1278.55 495.419 1277.7 495.02 1276.42 494.514 C 1273.97 473.652 1277.11 446.806 1275.96 425.427 C 1275.8 422.438 1278.7 421.049 1280.91 419.284 z"/>
<path transform="translate(0,0)" fill="rgb(248,248,247)" d="M 1348.48 133.199 C 1368.69 131.031 1378.33 140.181 1387.62 157.347 C 1377.82 148.739 1374.95 147.02 1362.39 145.023 C 1345.99 144.568 1335.99 147.851 1322.07 155.466 C 1329.93 142.046 1334.75 139.643 1348.48 133.199 z"/>
<path transform="translate(0,0)" fill="rgb(248,248,247)" d="M 1144.34 731.994 C 1146.4 732.35 1153.02 733.28 1153.1 734.982 C 1153.91 750.645 1153.28 778.623 1153.22 793.5 C 1149.75 793.08 1148.82 792.95 1145.4 791.8 C 1142.75 788.442 1144.26 739.992 1144.34 731.994 z"/>
<path transform="translate(0,0)" fill="rgb(248,248,247)" d="M 678.916 739.797 C 694.194 739.803 698.828 760.662 692.412 767.589 L 688.261 767.395 C 682.723 766.53 676.721 766.032 671.114 765.459 C 671.056 753.629 668.929 748.037 678.916 739.797 z"/>
<path transform="translate(0,0)" fill="rgb(248,248,247)" d="M 311.6 898.198 C 313.009 898.185 312.395 898.186 313.873 898.982 C 314.169 902.364 314.446 903.471 313.077 906.696 C 307.91 908.707 263.254 917.825 254.354 919.789 C 252.975 919.829 253.455 919.801 252.054 919.057 C 251.74 915.887 251.396 915.223 252.921 912.648 C 262.402 908.836 300.471 900.77 311.6 898.198 z"/>
<path transform="translate(0,0)" fill="rgb(248,248,247)" d="M 1233.14 756.487 C 1236.5 757.095 1239.73 757.334 1242.29 759.568 C 1243.66 764.693 1242.87 803.067 1242.8 811.23 C 1240.12 811.005 1237.96 810.431 1235.36 809.834 C 1231.65 806.024 1233.14 764.145 1233.14 756.487 z"/>
<path transform="translate(0,0)" fill="rgb(248,248,247)" d="M 310.86 627.912 L 311.726 627.962 C 313.744 629.527 313.094 629.033 313.55 632.508 C 313.287 633.128 312.971 633.873 312.601 634.745 C 292.897 645.45 265.411 659.611 246.735 670.197 C 246.265 670.283 245.868 669.869 245.245 669.503 L 245.49 666.839 C 249.119 659.996 300.944 632.853 310.86 627.912 z"/>
<path transform="translate(0,0)" fill="rgb(248,248,247)" d="M 681.481 509.234 L 692.162 512.017 L 691.839 556.399 L 681.126 553.515 C 681.128 539.854 680.614 522.582 681.481 509.234 z"/>
<path transform="translate(0,0)" fill="rgb(248,248,247)" d="M 792.728 772.205 L 797.406 773.399 C 799.145 779.49 798.275 808.899 798.791 817.074 C 799.045 821.105 798.339 822.057 795.919 824.337 C 793.038 824.226 792.385 824.177 789.624 823.377 C 787.838 814.425 789.059 787.9 788.958 777.63 C 788.925 774.316 790.432 773.911 792.728 772.205 z"/>
<path transform="translate(0,0)" fill="rgb(248,248,247)" d="M 663.953 504.354 C 666.038 504.774 672.856 506.302 673.248 507.501 C 675.829 515.401 674.352 544.014 674.24 551.773 C 670.294 551.493 669.643 551.36 665.897 550.086 C 662.519 546.42 663.906 512.052 663.953 504.354 z"/>
<path transform="translate(0,0)" fill="rgb(248,248,247)" d="M 1249.13 760.512 C 1252.03 761.026 1253.7 761.699 1256.42 762.689 C 1259.59 766.894 1257.95 805.995 1257.85 814.247 C 1256.04 813.947 1249.64 813.108 1249.51 811.478 C 1248.24 796.659 1249.02 774.581 1249.13 760.512 z"/>
<path transform="translate(0,0)" fill="rgb(248,248,247)" d="M 311.87 690.39 C 313.778 691.485 313.003 690.687 313.785 693.254 C 310.406 697.604 261.788 717.056 252.317 721.048 C 250.183 719.081 250.818 720.267 250.409 717.34 C 254.573 711.502 303.104 690.744 311.87 690.39 z"/>
<path transform="translate(0,0)" fill="rgb(248,248,247)" d="M 313.072 642.936 L 314.162 643.651 C 319.318 655.566 301.431 660.527 292.215 665.209 C 293.643 671.258 298.94 683.647 298.725 685.353 L 293.101 688.059 L 291.414 688.598 C 287.194 684.805 292.259 666.521 288.461 659.222 L 284.337 658.041 L 284.402 657.036 C 293.987 652.393 303.543 647.693 313.072 642.936 z"/>
<path transform="translate(0,0)" fill="rgb(248,248,247)" d="M 265.174 667.904 L 265.937 668.268 C 267.383 671.262 266.227 695.301 266.117 700.269 L 254.561 705.72 L 253.257 704.994 C 252.266 699.262 252.822 681.638 252.883 674.976 L 265.174 667.904 z"/>
<path transform="translate(0,0)" fill="rgb(248,248,247)" d="M 1327.07 778.611 C 1329.33 779.289 1331.57 779.999 1333.81 780.74 C 1338.2 785.854 1335.79 820.46 1335.59 829.279 C 1332.39 828.843 1329.62 828.889 1327.3 826.864 C 1326.13 816.889 1326.98 789.872 1327.07 778.611 z"/>
<path transform="translate(0,0)" fill="rgb(248,248,247)" d="M 859.217 757.423 L 864.072 758.276 L 864.821 759.468 C 865.613 772.027 865.092 797.305 864.418 810.747 C 863.655 811.659 863.004 812.437 862.466 813.081 L 858.152 812.526 L 857.199 810.976 C 856.429 797.215 856.847 774.364 857.499 760.015 C 858.179 758.988 858.752 758.124 859.217 757.423 z"/>
<path transform="translate(0,0)" fill="rgb(248,248,247)" d="M 1312.55 775.529 C 1315.85 776.145 1317.58 776.25 1320.39 778.197 C 1322.05 784.791 1320.98 817.72 1320.85 826.566 C 1319.09 826.229 1313.5 825.2 1313.32 824.293 C 1311.42 814.792 1312.47 784.128 1312.55 775.529 z"/>
<path transform="translate(0,0)" fill="rgb(248,248,247)" d="M 545.142 767.807 C 547.626 767.778 548.548 767.898 551.003 768.31 C 553.199 771.252 551.211 822.353 551.016 830.179 C 548.418 830.528 547.84 830.833 545.6 829.749 C 544.152 824.613 544.551 775.273 545.142 767.807 z"/>
<path transform="translate(0,0)" fill="rgb(248,248,247)" d="M 548.07 744.154 C 550.658 743.623 549.512 743.393 551.652 744.674 C 552.865 748.787 552.148 756.277 551.953 760.826 C 545.597 762.329 538.654 763.664 532.219 765.032 C 531.1 765.212 530.264 765.063 529.124 764.98 C 527.107 762.19 527.767 753.478 527.806 749.817 L 548.07 744.154 z"/>
<path transform="translate(0,0)" fill="rgb(248,248,247)" d="M 1436.79 411.087 C 1438.16 411.631 1439.8 412.148 1440.83 413.231 C 1443.92 416.464 1442.69 476.063 1442.8 486.109 C 1441.38 485.735 1439.5 485.418 1438.36 484.465 C 1435.62 482.171 1436.81 420.017 1436.79 411.087 z"/>
<path transform="translate(0,0)" fill="rgb(248,248,247)" d="M 1222.46 444.734 C 1225.7 449.348 1223.71 505.707 1222.89 514.364 C 1222.89 514.364 1220.52 516.862 1220.2 517.202 C 1216.1 511.382 1218.5 460.408 1218.36 450.192 C 1218.32 447.175 1220.34 446.296 1222.46 444.734 z"/>
<path transform="translate(0,0)" fill="rgb(248,248,247)" d="M 1502.14 443.671 L 1505.33 445.331 C 1508.82 450.211 1507.63 503.062 1507.62 513.033 C 1505.99 512.734 1505.7 512.439 1504.21 511.702 C 1500.94 505.659 1502.11 454.77 1502.14 443.671 z"/>
<path transform="translate(0,0)" fill="rgb(248,248,247)" d="M 273.659 841.256 C 276.273 842.199 275.46 841.532 277.139 843.611 C 277.846 850.809 278.227 896.692 275.142 900.67 L 272.087 899.66 C 269.751 894.499 270.335 845.395 273.659 841.256 z"/>
<path transform="translate(0,0)" fill="rgb(248,248,247)" d="M 1387.26 794.183 C 1390.14 794.699 1390.85 794.902 1393.56 796.031 C 1396.02 799.827 1394.59 833.521 1394.46 840.461 C 1391.41 840.015 1389.96 840.022 1387.44 838.137 C 1386.27 829.49 1386.98 803.843 1387.26 794.183 z"/>
<path transform="translate(0,0)" fill="rgb(248,248,247)" d="M 1213.67 319.018 L 1215.69 321.207 C 1210.84 340.057 1209.74 357.328 1207.64 376.465 C 1207.37 378.907 1202.88 381.491 1200.71 382.965 C 1202.79 358.048 1203.47 341.93 1213.67 319.018 z"/>
<path transform="translate(0,0)" fill="rgb(248,248,247)" d="M 777.883 775.307 C 780.554 775.94 779.697 775.389 781.632 777.186 C 782.74 783.152 783.794 821.732 781.492 826.165 L 776.944 825.68 L 776.01 824.454 C 775.445 817.206 774.423 779.634 777.883 775.307 z"/>
<path transform="translate(0,0)" fill="rgb(176,176,177)" d="M 483.698 671.061 L 484.78 672.502 L 483.906 673.629 C 476.344 674.823 447.29 687.095 438.443 690.443 L 323.339 733.9 L 322.594 732.909 C 324.34 730.894 467.531 676.99 483.698 671.061 z"/>
<path transform="translate(0,0)" fill="rgb(120,120,121)" d="M 1435.98 640.175 C 1440.58 640.011 1597.68 696.316 1602.89 700.066 C 1599.78 700.894 1587.8 695.821 1584.07 694.457 L 1542.93 679.33 C 1511.22 667.66 1465.27 652.828 1435.98 640.175 z"/>
<path transform="translate(0,0)" fill="rgb(248,248,247)" d="M 1400.97 797.009 C 1404.56 797.886 1406.77 797.804 1406.99 801.919 C 1407.73 815.662 1407.24 829.572 1407.13 843.362 C 1404.91 842.847 1403.71 842.31 1401.59 841.45 C 1400.39 837.771 1400.94 802.859 1400.97 797.009 z"/>
<path transform="translate(0,0)" fill="rgb(248,248,247)" d="M 320.721 585.805 C 326.568 586.128 378.215 599.279 383.323 601.57 L 383.567 603.4 C 375.68 605.563 331.993 592.846 321.732 589.189 C 321.129 588.974 320.878 586.575 320.721 585.805 z"/>
<path transform="translate(0,0)" fill="rgb(248,248,247)" d="M 556.582 507.791 C 559.599 512.195 557.866 542.462 557.648 549.026 C 557.525 552.715 556.015 553.246 553.523 555.259 C 550.809 551.766 552.236 519.285 552.368 513.19 C 552.435 510.105 554.256 509.479 556.582 507.791 z"/>
<path transform="translate(0,0)" fill="rgb(248,248,247)" d="M 542.103 514.195 L 544.447 515.111 C 544.76 515.665 545.452 516.839 545.444 517.472 C 545.339 526.823 547.843 553.599 543.449 560.684 L 540.887 560.432 C 538.663 556.038 538.914 518.12 542.103 514.195 z"/>
<path transform="translate(0,0)" fill="rgb(79,79,80)" d="M 1729.13 751.876 C 1737.98 751.949 1862.24 796.55 1866.96 800.817 C 1860.08 799.284 1828.64 787.32 1819.79 784 C 1790.8 773.116 1757.53 763.319 1729.13 751.876 z"/>
<path transform="translate(0,0)" fill="rgb(248,248,247)" d="M 451.388 952.481 C 453.015 952.342 452.183 952.217 453.809 953.491 L 454.106 958.29 C 450.239 962.666 432.274 962.847 425.463 963.434 L 424.296 963.38 L 423.185 961.575 C 423.3 957.789 422.72 958.743 424.653 956.182 C 431.922 954.019 443.504 953.259 451.388 952.481 z"/>
<path transform="translate(0,0)" fill="rgb(248,248,247)" d="M 550.86 729.2 C 552.812 730.731 552.259 732.555 552.049 734.606 C 548.585 738.617 528.772 743.198 522.437 744.931 C 521.509 742.276 521.38 741.915 521.806 739.151 C 525.45 734.816 544.436 730.94 550.86 729.2 z"/>
<path transform="translate(0,0)" fill="rgb(248,248,247)" d="M 595.885 386.616 C 596.974 386.684 601.332 386.994 601.895 387.409 C 606.499 390.8 611.179 400.843 607.701 406.055 C 604.849 406.195 605.088 405.61 602.362 403.52 C 599.116 401.248 596.394 404.983 593.824 407.108 L 592.848 406.673 C 592.996 398.904 595.175 395.428 595.801 387.721 L 595.885 386.616 z"/>
<path transform="translate(0,0)" fill="rgb(248,248,247)" d="M 376.519 962.391 L 380.004 962.204 C 382.191 964.349 381.525 963.284 382.34 966.484 L 381.268 968.237 C 376.493 970.535 365.702 971.309 359.721 972.115 L 355.37 972.335 L 354.236 970.487 C 354.259 968.721 353.89 967.627 354.956 966.599 C 358.379 963.297 371.668 962.867 376.519 962.391 z"/>
<path transform="translate(0,0)" fill="rgb(79,79,80)" d="M 1601.01 707.5 C 1603.38 707.018 1707.11 742.435 1714.82 745.978 C 1708.58 745.7 1606.01 711.16 1601.01 707.5 z"/>
<path transform="translate(0,0)" fill="rgb(248,248,247)" d="M 1415.15 481.372 C 1427.47 486.008 1431.06 484.906 1430.36 499.153 C 1424.39 497.581 1421.16 497.66 1415.09 497.492 L 1415.15 481.372 z"/>
<path transform="translate(0,0)" fill="rgb(248,248,247)" d="M 312.616 586.88 C 312.965 587.208 313.583 588.487 313.852 588.982 C 312.672 591.08 262.154 622.584 255.633 626.62 L 254.635 625.583 C 256.972 621.603 304.458 592.175 312.616 586.88 z"/>
<path transform="translate(0,0)" fill="rgb(248,248,247)" d="M 412.585 957.413 L 414.444 957.266 L 415.661 958.886 C 415.859 962.612 416.222 961.292 414.685 964.28 C 410.442 965.959 398.395 966.916 393.235 967.474 L 391.464 967.752 L 390.079 966.546 C 389.518 962.762 389.281 964.224 390.758 960.925 C 395.06 959.185 407.294 958.053 412.585 957.413 z"/>
<path transform="translate(0,0)" fill="rgb(248,248,247)" d="M 1324.81 484.199 C 1326.53 486.695 1325.94 494.751 1325.9 498.157 C 1321.07 497.888 1315.84 497.93 1310.97 497.876 L 1310.19 497.375 C 1308.81 495.168 1308.74 494.878 1308.94 492.287 C 1312.12 486.865 1318.59 485.973 1324.81 484.199 z"/>
<path transform="translate(0,0)" fill="rgb(248,248,247)" d="M 979.922 711.389 C 981.482 711.169 981.067 711.285 982.715 711.715 C 987.62 721.831 980.42 725.174 972.324 726.853 L 970.742 726.47 C 966.644 715.936 970.179 712.656 979.922 711.389 z"/>
<path transform="translate(0,0)" fill="rgb(140,141,142)" d="M 1345.6 220.851 L 1345.93 221.117 C 1345.4 218.961 1321.22 259.863 1318.71 269.176 C 1312.97 290.47 1307.82 307.02 1305.68 329.329 C 1304.75 328.442 1304.44 328.514 1304.58 327.101 C 1308.25 288.947 1319.56 249.396 1345.6 220.851 z"/>
<path transform="translate(0,0)" fill="rgb(248,248,247)" d="M 530.531 520.501 C 531.449 521.039 532.903 521.818 532.942 523.041 C 533.188 530.613 534.636 561.26 531.45 566.237 C 527.645 563.161 528.466 525.46 530.531 520.501 z"/>
<path transform="translate(0,0)" fill="rgb(248,248,247)" d="M 342.743 967.414 C 345.151 966.911 343.996 966.834 346.326 967.679 C 347.52 971.006 347.513 969.634 346.492 972.856 C 343.477 974.791 332.049 975.689 327.506 976.293 C 322.42 975.885 323.479 976.764 320.633 973.743 C 325.408 968.218 335.286 968.192 342.743 967.414 z"/>
<path transform="translate(0,0)" fill="rgb(248,248,247)" d="M 284.787 838.445 C 287.429 842.429 286.896 893.071 284.476 898.166 C 281.724 893.612 283.147 844.095 284.787 838.445 z"/>
<path transform="translate(0,0)" fill="rgb(248,248,247)" d="M 958.896 714.998 C 960.641 714.82 960.901 715.042 962.551 715.564 C 966.875 723.945 963.415 728.581 955.355 730.649 L 953.65 730.532 L 952.282 728.711 C 951.126 720.944 950.846 717.031 958.896 714.998 z"/>
<path transform="translate(0,0)" fill="rgb(248,248,247)" d="M 1532.01 528.793 L 1543.05 533.625 L 1543.08 547.709 L 1531.96 542.848 L 1532.01 528.793 z"/>
<path transform="translate(0,0)" fill="rgb(248,248,247)" d="M 881.446 735.275 L 882.522 735.376 L 883.876 737.283 C 884.935 746.572 883.151 747.268 875.228 748.738 C 874.063 748.863 873.609 748.685 872.42 748.515 C 866.702 739.799 874.79 736.566 881.446 735.275 z"/>
<path transform="translate(0,0)" fill="rgb(248,248,247)" d="M 478.336 949.411 L 481.824 948.988 L 482.916 949.881 L 482.268 951.581 C 477.611 954.146 471.133 959.2 467.923 960.041 C 465.205 960.114 464.153 960.456 462.071 958.98 C 461.418 956.037 461.415 955.685 462.604 952.922 C 465.668 949.664 473.463 949.818 478.336 949.411 z"/>
<path transform="translate(0,0)" fill="rgb(248,248,247)" d="M 1144.35 710.184 L 1154.09 712.735 L 1153.82 726.994 C 1150.52 726.388 1147.23 726.214 1145.03 723.737 C 1143.05 720.193 1144.04 714.458 1144.35 710.184 z"/>
<path transform="translate(0,0)" fill="rgb(248,248,247)" d="M 1233.54 735.7 C 1236.77 736.412 1239.29 736.672 1241.76 738.925 C 1243.85 742.378 1243.03 748.396 1242.86 752.675 C 1239.52 751.89 1236.98 751.668 1234.47 749.423 C 1232.33 746.109 1233.31 739.915 1233.54 735.7 z"/>
<path transform="translate(0,0)" fill="rgb(248,248,247)" d="M 1160.14 714.516 C 1163.4 715.364 1166.35 715.82 1168.84 718.125 C 1170.74 721.324 1170.06 726.43 1169.92 730.333 C 1166.45 729.821 1163.98 729.831 1161.25 727.709 C 1159.28 724.706 1160.01 718.394 1160.14 714.516 z"/>
<path transform="translate(0,0)" fill="rgb(248,248,247)" d="M 449.801 576.946 L 451.643 577.275 L 452.158 580.126 C 449.784 585.226 439.332 588.539 433.696 590.965 C 432.29 590.035 432.63 589.853 431.948 587.835 C 433.943 583.106 444.608 579.348 449.801 576.946 z"/>
<path transform="translate(0,0)" fill="rgb(120,120,121)" d="M 1386.67 221.809 C 1403.06 228.787 1422.79 271.741 1426.25 288.396 C 1424.15 284.902 1419.09 271.935 1417.16 267.434 C 1408.51 247.253 1401.11 237.652 1386.67 221.809 z"/>
<path transform="translate(0,0)" fill="rgb(248,248,247)" d="M 483.234 561.884 C 484.697 562.201 483.992 561.967 485.265 563.574 L 484.583 566.139 C 480.734 569.213 470.671 573.978 465.798 576.439 L 464.568 576.077 C 463.808 573.234 463.884 574.385 464.688 571.451 C 468.474 568.07 478.07 564.259 483.234 561.884 z"/>
<path transform="translate(0,0)" fill="rgb(248,248,247)" d="M 1249.13 739.956 C 1252.41 740.571 1254.52 740.576 1256.9 742.824 C 1258.78 745.825 1257.94 752.203 1257.75 756.044 C 1254.41 755.405 1252.85 755.346 1250.15 753.145 C 1248.21 750.165 1248.98 743.811 1249.13 739.956 z"/>
<path transform="translate(0,0)" fill="rgb(248,248,247)" d="M 283.794 826.23 L 286.042 826.587 C 287.061 830.029 287.403 829.236 286.434 832.012 C 283.738 834.317 277.932 835.205 274.239 836.038 C 272.687 836.014 272.379 835.836 270.894 835.467 C 269.981 832.254 269.925 833.558 270.983 830.524 C 273.807 827.809 279.72 827.098 283.794 826.23 z"/>
<path transform="translate(0,0)" fill="rgb(248,248,247)" d="M 1439.6 662.179 C 1449.13 665.04 1454.27 664.495 1456.41 674.864 C 1445.71 672.531 1440.64 673.815 1439.6 662.179 z"/>
<path transform="translate(0,0)" fill="rgb(248,248,247)" d="M 1312.84 755.63 C 1315.79 756.382 1317.7 756.622 1320.04 758.648 C 1322.02 761.869 1321.18 767.448 1320.97 771.466 C 1317.88 770.847 1316.71 770.771 1314.04 768.929 C 1311.89 765.629 1312.69 759.819 1312.84 755.63 z"/>
<path transform="translate(0,0)" fill="rgb(248,248,247)" d="M 1327.14 759.531 C 1330.3 759.92 1332.19 759.859 1334.68 761.932 C 1336.38 765.184 1335.7 769.952 1335.54 773.814 C 1332.53 773.612 1330.87 773.733 1328.26 772.105 C 1326.18 769.181 1326.97 763.366 1327.14 759.531 z"/>
<path transform="translate(0,0)" fill="rgb(248,248,247)" d="M 418.806 591.96 L 419.517 592.552 C 420.683 595.649 420.709 594.41 419.637 597.237 C 416.238 600.117 408.516 603.055 404.152 604.944 C 403.343 604.223 403.29 603.613 402.83 602.473 C 404.683 597.667 413.805 594.361 418.806 591.96 z"/>
<path transform="translate(0,0)" fill="rgb(248,248,247)" d="M 1387.37 772.772 C 1389.01 773.302 1390.81 774.07 1392.42 774.715 C 1395.4 778.684 1394.33 784.474 1394.12 789.707 C 1391.06 788.85 1390.43 788.87 1388.07 786.898 C 1386.02 783.068 1387.03 777.296 1387.37 772.772 z"/>
<path transform="translate(0,0)" fill="rgb(248,248,247)" d="M 502.312 445.739 C 504.722 448.158 506.965 453.06 506.458 456.577 C 505.914 460.343 503.464 460.963 500.488 462.795 L 499.723 463.331 L 498.623 462.12 C 498.628 455.005 497.895 450.823 502.312 445.739 z"/>
<path transform="translate(0,0)" fill="rgb(248,248,247)" d="M 1412.12 621.988 C 1418.45 622.589 1432.99 627.067 1436.04 633.024 C 1430.99 633.041 1420.24 629.268 1415.68 626.977 C 1412.56 625.411 1413.05 625.052 1412.12 621.988 z"/>
<path transform="translate(0,0)" fill="rgb(248,248,247)" d="M 860.946 738.199 C 862.952 738.68 862.939 738.771 864.594 739.84 C 866.99 746.018 866.473 749.476 860.476 752.594 L 858.475 751.792 C 854.677 746.936 856.52 741.624 860.946 738.199 z"/>
<path transform="translate(0,0)" fill="rgb(248,248,247)" d="M 1510.25 331.78 C 1515.2 346.568 1518.13 361.957 1518.96 377.529 L 1517.06 376.468 C 1515.76 373.94 1511.02 337.151 1510.25 331.78 z"/>
<path transform="translate(0,0)" fill="rgb(248,248,247)" d="M 795.18 754.679 L 796.75 755.644 C 799.164 762.03 798.353 764.741 792.678 767.588 C 791.311 767.371 790.642 766.895 789.41 766.252 C 786.896 759.169 789.038 757.231 795.18 754.679 z"/>
<path transform="translate(0,0)" fill="rgb(248,248,247)" d="M 1400.62 776.216 C 1402.65 776.703 1403.6 777.122 1405.53 777.921 C 1408.32 781.565 1407.26 787.699 1407.06 792.506 L 1402.51 790.982 C 1399.39 787.362 1400.44 781.251 1400.62 776.216 z"/>
<path transform="translate(0,0)" fill="rgb(248,248,247)" d="M 390.087 605.889 C 391.081 606.553 391.342 607.368 391.995 608.49 L 391.299 610.869 C 387.939 613.793 381.837 615.905 377.556 617.669 C 376.667 617.566 376.758 617.313 375.815 616.457 L 376.268 614.583 C 379.178 611.587 386.193 608.066 390.087 605.889 z"/>
<path transform="translate(0,0)" fill="rgb(248,248,247)" d="M 1566.89 706.399 C 1576.02 709.465 1580.04 708.665 1579.33 718.502 C 1571.08 714.947 1567.55 715.538 1566.89 706.399 z"/>
<path transform="translate(0,0)" fill="rgb(248,248,247)" d="M 532.647 713.526 L 543.979 718.746 L 533.856 721.352 L 524.24 724.129 L 532.647 713.526 z"/>
<path transform="translate(0,0)" fill="rgb(248,248,247)" d="M 362.409 619.972 L 363.34 620.134 C 364.338 622.712 364.189 621.392 363.6 624.247 C 360.569 627.098 353.7 629.63 349.639 631.386 L 347.949 630.977 L 348.421 628.476 C 352.296 625.132 357.831 622.445 362.409 619.972 z"/>
<path transform="translate(0,0)" fill="rgb(248,248,247)" d="M 470.565 683.875 L 471.463 685.11 C 471.49 692.104 471.528 696.136 463.487 696.78 L 460.518 692.868 C 465.435 689.901 460.402 690.932 464.954 686.489 L 466.289 686.741 L 466.529 691.348 L 467.311 691.73 C 468.427 689.125 469.512 686.507 470.565 683.875 z"/>
<path transform="translate(0,0)" fill="rgb(248,248,247)" d="M 1590.64 918.243 C 1595.91 920.897 1593.83 934.662 1593.54 940.162 C 1588.78 936.893 1590.48 923.764 1590.64 918.243 z"/>
<path transform="translate(0,0)" fill="rgb(248,248,247)" d="M 776.309 758.399 C 777.891 758.621 779.31 758.933 780.87 759.25 C 783.459 763.519 782.536 764.715 781.343 770.041 C 778.89 770.046 778.993 770.098 776.736 769.188 C 774.831 766.141 775.858 762.098 776.309 758.399 z"/>
<path transform="translate(0,0)" fill="rgb(248,248,247)" d="M 277.871 806.582 C 281.034 808.388 281.727 808.131 283.406 811.023 C 281.429 813.464 277.565 813.94 274.271 814.814 C 272.432 815.716 272.555 815.634 270.496 815.475 C 271.293 812.821 275.706 808.815 277.871 806.582 z"/>
<path transform="translate(0,0)" fill="rgb(248,248,247)" d="M 281.498 666.626 L 282.66 667.616 C 284.1 671.991 283.329 687.473 283.189 692.692 L 282.043 692.793 C 279.796 689.935 281.282 671.676 281.498 666.626 z"/>
<path transform="translate(0,0)" fill="rgb(248,248,247)" d="M 1588.18 851.792 C 1593.66 856.83 1592.21 864.428 1591.95 871.282 C 1587.11 866.646 1588.2 858.173 1588.18 851.792 z"/>
<path transform="translate(0,0)" fill="rgb(248,248,247)" d="M 482.727 573.989 C 483.394 574.534 483.158 574.491 483.523 575.567 C 480.151 578.449 470.679 582.539 466.276 584.627 C 465.187 583.257 465.47 584.05 465.67 582.097 C 470.082 578.975 477.565 576.165 482.727 573.989 z"/>
<path transform="translate(0,0)" fill="rgb(248,248,247)" d="M 451.166 587.91 L 452.03 588.229 L 452.325 589.723 C 448.833 592.354 438.233 596.69 433.703 598.681 L 432.558 597.836 C 434.254 595.277 447.348 589.719 451.166 587.91 z"/>
<path transform="translate(0,0)" fill="rgb(248,248,247)" d="M 1516 385.12 C 1517.48 385.584 1517.87 385.998 1519.13 386.894 C 1520.62 391.134 1519.97 397.025 1519.78 401.656 L 1517.33 400.279 C 1515.72 396.279 1516.06 389.64 1516 385.12 z"/>
<path transform="translate(0,0)" fill="rgb(248,248,247)" d="M 316.488 556.871 C 319.515 559.778 318.059 574.627 317.238 578.758 L 315.515 578.202 C 313.941 575.927 316.104 560.752 316.488 556.871 z"/>
<path transform="translate(0,0)" fill="rgb(248,248,247)" d="M 273.4 670.791 L 274.796 672.52 C 275.642 680.02 275.009 688.611 274.018 696.082 L 273.436 696.028 C 272.1 692.633 272.899 675.328 273.4 670.791 z"/>
<path transform="translate(0,0)" fill="rgb(248,248,247)" d="M 1630.91 857.678 C 1635.2 860.388 1639.54 865.235 1640.64 870.271 C 1633.45 867.91 1631.39 864.76 1630.91 857.678 z"/>
<path transform="translate(0,0)" fill="rgb(248,248,247)" d="M 1631.11 845.591 C 1636.07 848.634 1639.17 853.693 1640.16 859.335 C 1634.1 857.188 1632.25 851.17 1631.11 845.591 z"/>
<path transform="translate(0,0)" fill="rgb(248,248,247)" d="M 479.707 941.438 L 482.111 941.27 L 481.978 942.636 C 477.123 944.41 472.364 944.828 467.26 945.505 C 466.546 945.612 465.459 945.443 464.68 945.374 L 465.334 944.137 C 470.8 942.166 474.017 942.022 479.707 941.438 z"/>
<path transform="translate(0,0)" fill="rgb(248,248,247)" d="M 336.06 633.115 C 337.212 634.609 336.847 634.314 337.048 636.534 C 335 639.184 330.722 640.56 327.469 641.954 C 326.848 641.388 326.886 640.972 326.556 640.006 C 328.402 637.101 332.938 634.916 336.06 633.115 z"/>
<path transform="translate(0,0)" fill="rgb(248,248,247)" d="M 1630.81 836.62 C 1634.04 837.518 1634.92 837.81 1637.88 839.356 C 1639.91 842.097 1639.33 844.829 1639.22 848.424 C 1635.63 845.558 1633.14 840.643 1630.81 836.62 z"/>
<path transform="translate(0,0)" fill="rgb(248,248,247)" d="M 319.235 626.793 C 322.362 627.383 326.345 627.596 328.417 629.406 L 326.676 630.876 C 324.283 632.431 323.362 633.277 320.501 633.787 C 318.6 631.361 319.274 630.511 319.235 626.793 z"/>
<path transform="translate(0,0)" fill="rgb(140,141,142)" d="M 287.969 817.196 C 287.918 818.12 287.536 818.435 286.991 819.385 C 279.564 821.793 271.417 823.435 263.753 825.151 L 264.249 823.533 C 272.043 821.777 280.229 819.352 287.969 817.196 z"/>
<path transform="translate(0,0)" fill="rgb(140,141,142)" d="M 377.746 955.366 L 380.292 954.81 L 380.984 955.492 C 377.902 957.465 368.099 958.596 364.203 959.063 L 360.753 959.182 L 361.287 958.267 C 366.901 956.637 371.988 956.119 377.746 955.366 z"/>
<path transform="translate(0,0)" fill="rgb(176,176,177)" d="M 411.15 950.498 L 413.272 950.06 L 414.062 950.738 C 409.134 952.532 402.524 953.624 397.274 954.672 L 394.661 954.305 L 395.336 953.189 C 401.381 951.423 404.976 951.15 411.15 950.498 z"/>
<path transform="translate(0,0)" fill="rgb(248,248,247)" d="M 419.195 602.973 L 420.022 604.045 C 418.163 606.732 408.107 610.616 404.479 612.247 L 403.637 611.233 C 405.826 608.672 415.567 604.662 419.195 602.973 z"/>
<path transform="translate(0,0)" fill="rgb(248,248,247)" d="M 1821.2 901.839 C 1826.03 907.603 1825.31 912.334 1824.85 919.305 C 1822.06 916.746 1821.71 906.276 1821.2 901.839 z"/>
<path transform="translate(0,0)" fill="rgb(140,141,142)" d="M 442.908 946.442 C 446.436 945.76 447.323 946.543 450.1 945.998 C 447.023 947.805 443.474 947.877 439.783 948.652 C 437.437 948.878 432.742 949.677 430.861 948.794 C 435.04 946.792 438.27 946.829 442.908 946.442 z"/>
<path transform="translate(0,0)" fill="rgb(248,248,247)" d="M 1630.24 870.701 C 1635.93 871.889 1639.63 875.292 1640.29 881.044 C 1636.15 878.309 1632.47 875.149 1630.24 870.701 z"/>
<path transform="translate(0,0)" fill="rgb(248,248,247)" d="M 1790.19 873.552 L 1792.44 875.387 C 1792.54 879.867 1792.7 884.345 1792.9 888.822 L 1792.36 888.877 C 1789.54 884.383 1789.93 878.653 1790.19 873.552 z"/>
<path transform="translate(0,0)" fill="rgb(248,248,247)" d="M 1675.57 872.738 C 1681.15 875.774 1682.39 878.069 1682.93 884.077 C 1679.48 881.622 1676.93 876.692 1675.57 872.738 z"/>
<path transform="translate(0,0)" fill="rgb(176,176,177)" d="M 389.922 617.028 L 390.656 617.883 C 389.184 620.389 381.077 623.493 377.913 624.947 L 377.235 623.963 C 380.048 621.282 386.2 618.776 389.922 617.028 z"/>
<path transform="translate(0,0)" fill="rgb(248,248,247)" d="M 1675.57 883.688 C 1680.37 885.899 1681.62 889.578 1683.15 894.278 C 1679.1 892.135 1676.24 888.193 1675.57 883.688 z"/>
<path transform="translate(0,0)" fill="rgb(176,176,177)" d="M 361.7 631.041 L 362.462 631.856 C 360.772 634.298 353.11 637.125 349.928 638.534 L 349.321 637.65 C 351.785 635.138 358.214 632.632 361.7 631.041 z"/>
<path transform="translate(0,0)" fill="rgb(79,79,80)" d="M 368.634 614.326 C 372.016 618.447 370.822 623.798 370.385 629.075 L 369.54 628.303 C 368.237 624.717 368.622 618.359 368.634 614.326 z"/>
<path transform="translate(0,0)" fill="rgb(79,79,80)" d="M 425.571 584.45 C 428.401 589.138 428.034 595.04 427.725 600.301 C 425.293 598.289 425.814 588.151 425.571 584.45 z"/>
<path transform="translate(0,0)" fill="rgb(248,248,247)" d="M 1219.41 308.026 L 1215.69 321.207 L 1213.67 319.018 C 1215.5 315.257 1217.19 311.579 1219.41 308.026 z"/>
<path transform="translate(0,0)" fill="rgb(176,176,177)" d="M 1820.73 890.736 C 1824.89 893.944 1825.17 897.712 1825.7 902.552 C 1823.26 899.535 1821.98 894.544 1820.73 890.736 z"/>
<path transform="translate(0,0)" fill="rgb(176,176,177)" d="M 1755.04 885.561 C 1759.03 888.77 1759.9 892.436 1760.98 897.173 C 1758.54 895.026 1756.03 888.736 1755.04 885.561 z"/>
<path transform="translate(0,0)" fill="rgb(120,120,121)" d="M 458.101 570.582 C 460.085 574.951 459.124 581.334 458.834 586.31 C 457.671 581.949 457.958 575.177 458.101 570.582 z"/>
<path transform="translate(0,0)" fill="rgb(248,248,247)" d="M 502.241 426.361 L 503.165 426.14 C 504.622 428.181 503.88 430.135 503.691 433.231 C 500.937 431.492 501.814 428.951 502.241 426.361 z"/>
<path transform="translate(0,0)" fill="rgb(176,176,177)" d="M 1789.92 903.747 C 1792.76 906.42 1792.72 908.588 1793.23 912.319 C 1790.16 910.707 1790.22 906.756 1789.92 903.747 z"/>
<path transform="translate(0,0)" fill="rgb(79,79,80)" d="M 320.914 641.532 C 322.46 644.63 322.438 645.672 321.483 648.861 C 319.785 647.457 320.729 643.592 320.914 641.532 z"/>
</svg>