<svg version="1.1" xmlns="http://www.w3.org/2000/svg" style="display: block;" viewBox="0 0 1152 2048" width="1024" height="1820" preserveAspectRatio="none">
<path transform="translate(0,0)" fill="rgb(255,255,255)" d="M 0 0 L 1152 0 L 1152 2048 L 0 2048 L 0 0 z"/>
<path transform="translate(0,0)" fill="rgb(41,41,41)" d="M 731.234 389.21 C 771.555 382.029 778.773 422.506 791.92 426.049 C 793.671 426.521 795.133 427.168 796.74 427.989 L 796.794 429.822 C 783.068 456.02 735.406 416.546 719.802 428.539 C 717.93 432.452 717.896 433.305 720.24 437.304 C 735.222 462.865 745.556 488.696 724.71 515.081 C 734.667 526.602 741.047 531.285 750.481 540.889 C 758.486 550.345 765.967 563.676 773.793 573.009 C 809.957 616.137 832.312 664.964 844.329 720.041 C 850.655 749.039 852.937 789.658 836.008 816.186 C 817.367 845.398 792.46 835.648 769.12 819.566 C 769.005 827.35 768.505 842.899 769.965 850.53 C 773.665 869.864 782.46 890.445 788.372 909.437 C 792.683 917.324 795.787 940.725 799.345 947.038 C 810.125 966.16 805.483 964.383 806.13 983.89 C 806.528 995.893 809.546 1009.36 809.766 1022.9 C 867.468 1023.92 936.527 1033.82 994.068 1041.56 C 1020.08 1045.06 1061.45 1051.06 1086.05 1058.31 C 1072.66 1057.56 1057.3 1055.13 1043.75 1053.46 C 1021.87 1050.8 999.971 1048.29 978.053 1045.93 C 915.491 1039.38 852.763 1034.52 789.937 1031.36 C 626.995 1023.08 463.672 1026.22 301.168 1040.75 C 253.809 1045.07 206.558 1050.5 159.453 1057.03 C 125.422 1061.71 93.3926 1067.11 58.8651 1071.51 C 68.5074 1067.45 77.7976 1065.03 87.8234 1062.21 C 88.0505 1045.3 90.476 1024.15 92.0124 1007.13 C 94.2815 981.945 96.3406 956.741 98.1894 931.522 C 92.1807 927.219 80.6956 919.869 77.0931 913.833 C 75.712 908.062 81.9322 903.323 84.4688 898.662 C 112.421 847.298 153.504 816.164 205.674 792.011 C 228.11 782.307 249.252 776.198 272.954 770.671 C 272.941 758.077 273.082 745.405 273.136 732.81 C 273.186 720.913 271.868 716.95 266.333 707.007 C 281.154 681.647 301.905 651.492 317.929 626.159 C 299.667 621.953 284.679 614.994 271.408 601.527 C 266.741 596.791 255.236 586.1 258.233 578.828 C 264.057 577.888 308.919 595.869 316.606 599.136 C 321.765 589.483 327.116 580.106 334.897 572.292 C 338.358 568.817 352.881 555.38 357.447 560.604 C 358.056 569.242 347.747 588.619 343.619 597.44 C 347.733 599 354.976 601.227 357.624 604.248 L 356.877 605.749 C 344.801 610.611 338.404 618.758 327.106 625.813 C 333.407 642.082 365.818 687.612 371.858 706.734 C 372.52 708.827 367.985 715.983 367.823 719.158 C 367.158 732.179 366.791 745.756 366.389 758.761 C 385.112 753.706 395.442 750.383 414.74 751.228 C 418.465 753.303 421.867 755.694 424.894 758.779 C 467.834 802.527 496.682 859.125 519.584 915.447 C 521.436 920.004 524.396 926.508 523.522 931.334 C 520.024 934.835 502.974 937.862 497.098 939.159 C 495.84 960.378 493.582 997.856 490.947 1017.84 C 501.949 1017.52 574.34 1016.56 580.465 1014.16 C 580.432 1012.66 580.318 1005.32 580.628 1004.39 C 583.906 994.623 601.316 991.418 610.741 985.285 C 612.072 958.619 617.825 963.701 623.096 943.618 C 629.588 915.095 632.143 886.281 638.456 857.713 C 642.056 841.426 674.494 782.332 668.142 770.841 C 665.628 769.602 664.975 769.288 662.841 767.491 C 661.942 764.409 663.845 760.444 664.986 757.142 C 655.922 760.038 646.894 760.05 639.118 762.544 C 617.962 769.33 596.639 778.632 574.902 767.041 C 563.639 761.035 561.907 749.927 554.21 740.767 C 539.059 722.764 521.228 705.35 506.972 686.628 C 507.718 676.375 507.988 626.751 510.87 621.53 C 514.717 621.387 520.746 623.756 524.651 625.024 L 526.362 611.297 C 538.328 615.106 554.068 618.812 566.45 622.044 C 575.099 615.408 582.066 607.279 591.645 600.54 C 594.773 604.545 598.655 608.17 602.285 611.753 C 608.189 607.487 614.461 602.481 620.313 598.026 C 631.673 609.956 664.138 655.007 674.511 670.128 C 676.599 639.344 679.407 604.61 693.609 577.104 C 699.198 566.28 697.115 563.598 692.775 553.103 C 670.265 577.643 658.79 571.965 638.472 549.82 C 633.886 549.955 629.279 550.748 625.519 548.437 C 622.213 542.465 627.34 536.404 623.903 529.964 C 616.554 515.925 595.806 500.411 597.025 483.332 C 598.921 456.772 624.685 437.018 647.401 427.438 C 664.307 420.308 676.536 420.603 694.042 421.172 C 701.59 402.566 710.424 392.081 731.234 389.21 z"/>
<path transform="translate(0,0)" fill="rgb(255,255,255)" d="M 390.55 795.025 C 390.688 795.037 390.827 795.043 390.964 795.062 C 395.903 795.748 400.542 802.789 403.483 806.537 C 421.58 829.603 451.001 869.711 457.386 897.919 C 460.565 911.963 453.209 999.529 450.9 1018.98 L 423.281 1020.59 C 424.064 997.826 430.072 970.161 420.786 949.071 C 409.125 922.589 382.767 913.872 357.067 924.868 C 334.395 938.052 331.804 957.615 329.534 981.429 C 328.075 996.73 326.698 1012.59 324.524 1027.77 C 314.243 1028.17 298.734 1029.93 288.611 1031.25 C 291.161 1016.09 292.992 987.355 294.525 970.87 L 306.355 843.318 C 335.709 820.887 354.619 805.788 390.55 795.025 z"/>
<path transform="translate(0,0)" fill="rgb(41,41,41)" d="M 381.652 833.134 C 400.482 830.345 417.992 843.398 420.697 862.241 C 423.402 881.084 410.271 898.535 391.416 901.155 C 372.68 903.759 355.363 890.729 352.675 872.005 C 349.987 853.281 362.94 835.906 381.652 833.134 z"/>
<path transform="translate(0,0)" fill="rgb(255,255,255)" d="M 383.586 840.105 C 412.908 840.112 426.739 885.083 391.267 893.257 C 369.708 893.04 361.992 880.897 360.331 861.109 C 365.953 847.54 369.313 843.947 383.586 840.105 z"/>
<path transform="translate(0,0)" fill="rgb(41,41,41)" d="M 379.993 843.103 C 404.359 840.556 419.849 872.354 397.92 884.594 C 373.232 889.65 358.356 857.75 379.993 843.103 z"/>
<path transform="translate(0,0)" fill="rgb(255,255,255)" d="M 383.726 850.252 C 396.725 852.715 406.55 866.976 394.399 877.941 C 378.315 875.705 371.444 855.452 383.726 850.252 z"/>
<path transform="translate(0,0)" fill="rgb(255,255,255)" d="M 240.894 886.172 C 241.249 886.775 241.603 887.379 241.958 887.983 C 238.835 930.968 233.084 997.597 229.071 1037.9 C 206.052 1038.55 154.754 1048.51 132.238 1053.03 C 131.877 1052.53 131.516 1052.02 131.155 1051.51 C 133.484 1014.8 139.72 952.297 142.778 917.932 C 175.615 907.756 208.323 897.168 240.894 886.172 z"/>
<path transform="translate(0,0)" fill="rgb(41,41,41)" d="M 191.799 928.129 C 229.202 926.02 220.893 963.787 218.833 988.241 C 218.217 995.562 217.415 1002.99 216.151 1010.22 C 205.187 1014.09 193.659 1016.26 182.267 1018.83 C 174.074 1020.77 165.859 1022.62 157.624 1024.38 C 157.573 1018.83 157.14 1012.98 159.001 1007.68 C 168.296 981.232 156.003 936.981 191.799 928.129 z"/>
<path transform="translate(0,0)" fill="rgb(255,255,255)" d="M 190.017 937 C 191.314 936.904 192.613 936.84 193.914 936.807 C 200.238 936.671 209.517 940.889 209.65 948.069 C 202.95 959.036 186.753 933.418 178.161 989.765 C 177.853 993.491 177.883 996.589 176.163 999.904 C 173.999 1001.44 173.697 1001.34 170.964 1001.64 C 169.479 999.168 169.665 992.564 170.127 989.75 C 173.006 972.203 171.838 946.369 190.017 937 z"/>
<path transform="translate(0,0)" fill="rgb(255,255,255)" d="M 198.598 957.725 C 201.626 957.844 202.454 957.575 204.618 959.4 C 207.152 965.593 203.556 985.837 202.675 993.877 L 192.693 996.814 C 189.064 997.505 189.731 997.957 186.911 996.75 C 183.053 987.215 191.359 965.188 198.598 957.725 z"/>
<path transform="translate(0,0)" fill="rgb(255,255,255)" d="M 205.873 1002.25 C 207.69 1002.26 206.782 1002.13 208.558 1003.3 L 207.824 1004.68 C 195.427 1008.24 181.872 1011.01 169.222 1013.84 L 166.838 1013.96 L 166.706 1012.47 C 172.96 1009.47 198.012 1004 205.873 1002.25 z"/>
<path transform="translate(0,0)" fill="rgb(186,186,188)" d="M 212.309 965.698 C 213.636 971.967 212.117 987.998 211.469 995.13 C 208.537 990.202 210.934 971.471 212.309 965.698 z"/>
<path transform="translate(0,0)" fill="rgb(255,255,255)" d="M 678.505 767.345 C 692.507 766.251 703.143 765.516 717.19 765.993 C 721.672 770.885 728.05 774.42 731.422 778.548 L 730.315 780.916 L 730.872 781.447 C 733.539 778.958 736.163 780.509 739.156 781.427 C 742.481 782.073 753.256 783.252 754.912 784.226 C 735.953 810.143 714.259 837.187 698.774 865.503 C 691.302 879.165 667.176 959.154 660.003 963.907 C 655.813 964.493 653.058 963.809 648.902 963.119 L 646.107 962.121 C 639.33 960.189 634.928 958.558 628.393 955.975 C 638.027 922.43 639.576 888.667 648.07 856.17 C 656.264 824.821 676.914 803.138 678.505 767.345 z"/>
<path transform="translate(0,0)" fill="rgb(255,255,255)" d="M 730.872 781.447 C 733.539 778.958 736.163 780.509 739.156 781.427 C 742.481 782.073 753.256 783.252 754.912 784.226 C 735.953 810.143 714.259 837.187 698.774 865.503 C 691.302 879.165 667.176 959.154 660.003 963.907 C 655.813 964.493 653.058 963.809 648.902 963.119 C 661.654 931.545 667.578 899.088 678.791 868.883 C 687.983 844.121 716.258 804.211 730.872 781.447 z"/>
<path transform="translate(0,0)" fill="rgb(41,41,41)" d="M 730.315 780.916 L 730.872 781.447 C 716.258 804.211 687.983 844.121 678.791 868.883 C 667.578 899.088 661.654 931.545 648.902 963.119 L 646.107 962.121 C 656.308 944.615 665.937 899.349 672.817 878.752 C 680.976 854.322 695.164 832.593 709.121 811.116 C 714.421 802.96 723.613 787.323 730.315 780.916 z"/>
<path transform="translate(0,0)" fill="rgb(255,255,255)" d="M 341.566 767.384 C 343.778 766.913 348.491 766.723 350.738 767.587 C 348.094 770.266 334.173 776.886 329.733 779.441 C 322.609 783.627 315.716 788.194 309.082 793.12 C 290.194 807.362 274.568 824.554 258.656 841.417 C 256.299 843.916 229.511 852.01 223.905 853.826 L 152.57 876.763 C 136.45 881.981 120.464 888.287 104.276 892.976 L 95.1574 896.257 C 149.149 807.518 244.637 779.277 341.566 767.384 z"/>
<path transform="translate(0,0)" fill="rgb(255,255,255)" d="M 741.818 586.064 C 775.602 584.329 772.695 627.207 772.304 650.329 C 771.757 682.664 773.231 716.266 770.925 748.396 C 759.12 732.156 749.883 712.286 746.76 691.88 C 744.645 678.066 766.671 611.923 751.479 607.591 C 750.158 610.896 750.011 614.62 749.506 618.148 C 746.395 639.911 743.088 662.173 737.525 683.448 C 728.043 719.347 728.889 724.917 691.05 737.617 C 672.577 743.818 657.538 753.023 636.894 753.65 C 630.693 746.958 628.77 744.027 626.033 735.332 C 644.601 722.804 686.85 707.592 700.483 695.027 C 702.122 669.376 708.285 626.772 720.45 602.896 C 725.136 593.698 731.981 588.716 741.818 586.064 z"/>
<path transform="translate(0,0)" fill="rgb(255,255,255)" d="M 619.229 611.626 C 623.438 612.916 667.728 674.673 673.448 683.088 L 673.008 701.268 C 656.049 710.703 636.669 719.609 618.605 729.623 C 607.608 727.264 600.956 726.238 589.793 726.205 C 586.6 726.294 580.855 727.553 577.579 728.198 C 572.657 725.524 541.011 684.714 534.682 676.934 C 560.931 654.959 593.778 633.561 619.229 611.626 z"/>
<path transform="translate(0,0)" fill="rgb(41,41,41)" d="M 619.055 652.881 C 622.368 654.626 630.971 666.98 633.537 670.516 C 624.015 679.605 610.713 688.284 599.714 695.854 C 596.596 695.133 587.411 682.252 585.216 679.135 C 596.617 670.541 607.898 661.789 619.055 652.881 z"/>
<path transform="translate(0,0)" fill="rgb(255,255,255)" d="M 704.282 874.44 C 707.834 876.926 745.322 954.351 746.055 964.447 C 746.724 973.659 746.542 979.002 751.356 991.496 C 734.137 995.206 725.467 996.304 723.865 1015.43 C 721.381 1017.89 720.735 1017.04 716.25 1017.1 L 665.96 1017.01 C 666.135 1010.09 665.758 1002.38 665.555 995.379 L 670.883 986.639 C 671.187 982.583 670.591 967.033 671.343 965.011 C 682.49 935.058 693.23 904.394 704.282 874.44 z"/>
<path transform="translate(0,0)" fill="rgb(255,255,255)" d="M 758.658 792.853 C 763.748 816.739 756.854 834.162 762.251 858.179 C 766.346 876.4 790.843 937.282 790.948 951.907 C 788.645 954.211 786.237 954.638 783.087 955.654 L 780.628 956.141 C 775.488 958.176 762.203 961.33 756.482 962.816 C 744.025 929.862 724.804 895.587 709.843 862.94 C 718.331 848.793 725.216 838.881 735.291 825.942 L 736.385 824.376 C 743.977 813.925 751.548 803.646 758.658 792.853 z"/>
<path transform="translate(0,0)" fill="rgb(255,255,255)" d="M 758.658 792.853 C 763.748 816.739 756.854 834.162 762.251 858.179 C 766.346 876.4 790.843 937.282 790.948 951.907 C 788.645 954.211 786.237 954.638 783.087 955.654 L 780.628 956.141 C 772.044 926.417 753.93 893.92 743.718 864.471 C 739.52 852.364 737.263 838.611 735.291 825.942 L 736.385 824.376 C 743.977 813.925 751.548 803.646 758.658 792.853 z"/>
<path transform="translate(0,0)" fill="rgb(62,61,62)" d="M 735.291 825.942 L 736.385 824.376 C 739.621 836.457 742.146 855.334 746.414 865.932 C 758.676 896.381 772.485 924.254 783.087 955.654 L 780.628 956.141 C 772.044 926.417 753.93 893.92 743.718 864.471 C 739.52 852.364 737.263 838.611 735.291 825.942 z"/>
<path transform="translate(0,0)" fill="rgb(255,255,255)" d="M 646.31 478.107 C 649.013 479.416 656.292 494.83 665.162 496.386 C 683.324 499.573 681.109 493.534 692.729 484.348 C 693.889 483.431 696.814 483.611 698.526 484.519 C 712.727 492.048 696.185 514.906 699.119 522.603 C 701.296 522.871 712.395 518.841 716.054 517.853 C 724.095 526.691 732.26 535.415 740.548 544.022 C 734.304 551.868 716.014 573.068 705.506 570.608 C 706.14 563.679 704.118 556.253 699.322 551.056 C 694.916 546.283 703.048 544.5 698.276 539.189 C 691.085 538.437 683.104 552.859 675.167 558.056 C 658.889 568.716 653.436 550.787 641.501 543.427 C 640.079 542.55 637.014 543.988 633.518 543.395 C 632.994 539.016 632.377 528.965 630.32 525.669 C 623.685 515.038 615.817 506.666 609.605 495.568 C 622.635 489.94 633.811 484.807 646.31 478.107 z"/>
<path transform="translate(0,0)" fill="rgb(41,41,41)" d="M 636.621 512.627 C 641.749 512.337 650.402 514.329 653.449 518.786 C 653.268 522.304 653.025 521.501 650.056 524.737 C 640.644 529.325 632.187 523.68 636.621 512.627 z"/>
<path transform="translate(0,0)" fill="rgb(41,41,41)" d="M 637.163 493.96 C 639.817 494.112 642.994 494.93 645.642 495.502 L 644.147 495.326 L 646.953 496.557 C 644.064 498.14 638.775 497.932 635.062 498.488 C 632.863 500.623 632.124 501.632 629.253 502.8 L 628.399 501.841 C 630.377 496.749 632.381 495.814 637.163 493.96 z"/>
<path transform="translate(0,0)" fill="rgb(41,41,41)" d="M 659.17 537.659 L 661.2 538.874 C 663.868 545.085 659.901 547.596 654.751 550.242 L 652.391 548.101 C 652.915 544.399 656.469 541.159 659.17 537.659 z"/>
<path transform="translate(0,0)" fill="rgb(41,41,41)" d="M 693.143 490.907 C 695.15 489.649 697.792 490.213 699.111 492.18 C 700.429 494.147 699.946 496.806 698.021 498.184 C 696.721 499.114 695.019 499.263 693.578 498.573 C 692.137 497.883 691.185 496.463 691.095 494.868 C 691.005 493.273 691.79 491.755 693.143 490.907 z"/>
<path transform="translate(0,0)" fill="rgb(255,255,255)" d="M 322.328 689.036 C 326.939 690.646 362.423 703.724 361.876 708.366 C 359.925 724.923 359.077 741.766 358.034 758.342 C 342.376 759.127 329.229 760.691 313.783 762.699 L 281.008 767.947 C 280.661 747.762 283.404 725.55 276.453 707.217 C 290.052 700.948 308.221 693.81 322.328 689.036 z"/>
<path transform="translate(0,0)" fill="rgb(41,41,41)" d="M 324.616 701.85 C 344.543 701.874 356.178 704.594 354.118 727.864 C 353.633 733.337 355.124 741.33 352.289 746.075 C 337.538 745.353 320.257 748.038 321.763 727.383 C 322.439 718.116 321.03 710.931 324.616 701.85 z"/>
<path transform="translate(0,0)" fill="rgb(41,41,41)" d="M 303.799 704.2 L 307.979 705.251 C 313.199 711.078 312.502 734.707 309.26 741.991 C 308.002 744.817 296.526 746.317 293.23 746.918 C 289.062 747.033 290.298 747.521 287.241 745.807 C 284.207 740.257 285.672 719.317 285.76 711.848 C 292.381 707.741 296.126 705.604 303.799 704.2 z"/>
<path transform="translate(0,0)" fill="rgb(255,255,255)" d="M 402.56 759.309 C 416.948 757.319 426.132 771.421 434.371 781.321 C 468.64 822.498 492.002 871.178 512.821 920.154 C 513.781 922.413 512.628 924.797 511.54 926.739 C 508.729 928.594 509.926 928.362 506.871 928.213 C 502.445 925.238 485.115 885.547 480.86 875.949 C 474.039 860.558 420.472 768.907 406.342 769.75 C 364.15 772.268 313.728 812.774 284.266 841.337 C 282.924 842.673 273.29 852.535 272.289 852.959 C 235.916 868.358 196.11 878.082 158.63 891.066 C 146.08 895.413 96.4371 913.761 86.4771 912.319 L 86.0593 911.019 C 90.2516 905.855 125.154 895.612 133.685 892.774 L 220.87 864.003 C 234.479 859.598 251.322 854.783 264.191 848.69 C 267.892 846.938 274.251 837.417 277.207 833.871 C 303.802 801.969 361.756 764.294 402.56 759.309 z"/>
<path transform="translate(0,0)" fill="rgb(255,255,255)" d="M 377.778 943.237 C 408.849 943.363 398.487 1001.14 397.656 1021.91 C 389.446 1022.48 381.244 1023.13 373.049 1023.88 L 350.502 1025.24 C 354.366 1000.95 350.522 947.432 377.778 943.237 z"/>
<path transform="translate(0,0)" fill="rgb(255,255,255)" d="M 275.826 874.452 C 280.217 874.661 290.13 876.543 294.963 877.362 C 290.511 927.101 286.375 982.087 280.535 1031.47 L 261.614 1033.1 C 261.969 1026.28 262.611 1019.13 263.283 1012.32 C 267.795 966.559 270.404 920.06 275.826 874.452 z"/>
<path transform="translate(0,0)" fill="rgb(255,255,255)" d="M 265.326 877.072 L 266.085 877.217 C 267.575 880.527 254.502 1018.93 253.204 1034.7 L 239.106 1036.23 L 237.727 1034.87 C 237.272 1028.04 240.699 995.927 241.431 987.703 L 250.7 882.741 C 254.305 880.848 261.273 878.546 265.326 877.072 z"/>
<path transform="translate(0,0)" fill="rgb(255,255,255)" d="M 399.255 780.239 L 407.81 779.922 C 440.612 814.77 472.867 874.124 490.699 918.182 C 485.966 918.286 480.715 917.95 475.945 917.751 C 466.944 904.62 466.04 893.181 459.626 879.065 C 452.059 862.413 441.966 846.857 432.039 831.551 C 427.086 823.845 405.758 792.359 399.238 789.17 C 381.328 780.411 334.669 811.767 320.289 822.302 C 316.561 825.034 305.851 834.257 303.403 834.722 C 305.663 831.588 312.495 825.834 315.606 823.17 C 339.692 802.431 368.364 787.717 399.255 780.239 z"/>
<path transform="translate(0,0)" fill="rgb(255,255,255)" d="M 674.946 428.665 C 677.884 428.105 676.828 428.175 680.168 430.355 C 686.774 428.199 688.999 426.771 695.111 430.598 C 694.678 431.726 694.468 432.81 693.644 433.5 C 680.766 446.505 647.806 469.637 631.279 476.6 C 628.444 479.325 629.341 479.362 626.391 479.44 L 624.325 476.673 C 620.504 479.281 610.076 487.272 605.996 486.754 L 605.485 485.668 C 605.315 482.6 604.867 480.333 606.138 477.599 C 607.91 474.518 610.883 472.568 613.708 470.35 L 610.984 469.321 L 610.623 467.565 C 610.874 467.078 611.137 466.597 611.411 466.122 C 619.468 451.977 639.83 437.653 655.536 433.483 L 657.01 431.939 C 658.777 432.885 658.829 432.805 660.142 434.445 C 664.117 431.645 670.081 429.39 674.946 428.665 z"/>
<path transform="translate(0,0)" fill="rgb(255,255,255)" d="M 674.946 428.665 C 663.89 436.916 615.168 476.34 607.163 478.194 L 606.138 477.599 C 607.91 474.518 610.883 472.568 613.708 470.35 L 610.984 469.321 L 610.623 467.565 C 610.874 467.078 611.137 466.597 611.411 466.122 C 619.468 451.977 639.83 437.653 655.536 433.483 L 657.01 431.939 C 658.777 432.885 658.829 432.805 660.142 434.445 C 664.117 431.645 670.081 429.39 674.946 428.665 z"/>
<path transform="translate(0,0)" fill="rgb(255,255,255)" d="M 610.623 467.565 C 610.874 467.078 611.137 466.597 611.411 466.122 C 619.468 451.977 639.83 437.653 655.536 433.483 C 649.451 438.134 614.343 466.843 610.623 467.565 z"/>
<path transform="translate(0,0)" fill="rgb(62,61,62)" d="M 655.536 433.483 L 657.01 431.939 C 658.777 432.885 658.829 432.805 660.142 434.445 L 613.708 470.35 L 610.984 469.321 L 610.623 467.565 C 614.343 466.843 649.451 438.134 655.536 433.483 z"/>
<path transform="translate(0,0)" fill="rgb(62,61,62)" d="M 695.111 430.598 C 694.678 431.726 694.468 432.81 693.644 433.5 C 680.766 446.505 647.806 469.637 631.279 476.6 C 628.444 479.325 629.341 479.362 626.391 479.44 L 624.325 476.673 C 638.203 465.465 679.173 431.729 695.111 430.598 z"/>
<path transform="translate(0,0)" fill="rgb(255,255,255)" d="M 631.279 476.6 C 636.407 470.131 685.143 435.816 693.644 433.5 C 680.766 446.505 647.806 469.637 631.279 476.6 z"/>
<path transform="translate(0,0)" fill="rgb(62,61,62)" d="M 674.946 428.665 C 677.884 428.105 676.828 428.175 680.168 430.355 C 662.817 440.956 648.354 454.032 632.331 466.42 C 623.815 473.003 614.336 479.439 605.485 485.668 C 605.315 482.6 604.867 480.333 606.138 477.599 L 607.163 478.194 C 615.168 476.34 663.89 436.916 674.946 428.665 z"/>
<path transform="translate(0,0)" fill="rgb(255,255,255)" d="M 377.317 928.357 C 393.677 925.853 407.831 939.483 413.598 953.581 C 415.698 958.773 417.052 964.236 417.622 969.807 C 418.467 977.958 416.936 1013.44 414.067 1020.19 C 411.329 1021.51 409.369 1021.04 406.29 1020.82 C 399.592 1011.46 428.093 934.006 373.63 935.996 C 345.763 943.47 349.316 972.184 345.855 995.102 C 344.792 1002.14 344.608 1021.86 340.996 1026.11 C 337.672 1026.62 337.35 1027.22 334.589 1026 C 332.748 1022.29 333.635 1016.67 334.443 1012.68 C 341.131 979.737 330.865 932.292 377.317 928.357 z"/>
<path transform="translate(0,0)" fill="rgb(255,255,255)" d="M 132.279 921.136 L 133.616 921.665 C 135.223 927.579 123.607 1041.92 121.873 1054.81 L 111.066 1057.64 L 109.815 1056.67 C 109.227 1052.58 112.273 1024.7 112.828 1018.77 L 121.717 924.262 L 132.279 921.136 z"/>
<path transform="translate(0,0)" fill="rgb(255,255,255)" d="M 702.564 436.466 C 705.118 437.198 704.21 436.728 706.076 439.085 L 709.276 440.212 L 713.147 443.598 C 715.753 452.867 682.088 482.59 674.307 488.708 C 673.446 489.384 667.528 488.026 666.175 487.742 L 662.915 485.016 C 660.31 483.358 658.472 481.05 656.37 478.756 L 655.012 477.675 C 654.941 476.961 655.206 474.583 655.727 474.187 C 671.858 461.91 687.528 450.164 702.564 436.466 z"/>
<path transform="translate(0,0)" fill="rgb(62,61,62)" d="M 702.564 436.466 C 705.118 437.198 704.21 436.728 706.076 439.085 C 697.138 451.401 671.284 475.434 656.37 478.756 L 655.012 477.675 C 654.941 476.961 655.206 474.583 655.727 474.187 C 671.858 461.91 687.528 450.164 702.564 436.466 z"/>
<path transform="translate(0,0)" fill="rgb(255,255,255)" d="M 702.564 436.466 C 700.579 445.441 669.063 468.878 661.04 473.98 C 659.05 475.243 657.04 476.475 655.012 477.675 C 654.941 476.961 655.206 474.583 655.727 474.187 C 671.858 461.91 687.528 450.164 702.564 436.466 z"/>
<path transform="translate(0,0)" fill="rgb(255,255,255)" d="M 713.147 443.598 C 715.753 452.867 682.088 482.59 674.307 488.708 C 673.446 489.384 667.528 488.026 666.175 487.742 C 667.067 485.586 674.647 480.427 676.981 479.4 C 688.729 474.231 705.16 448.325 713.147 443.598 z"/>
<path transform="translate(0,0)" fill="rgb(62,61,62)" d="M 709.276 440.212 L 713.147 443.598 C 705.16 448.325 688.729 474.231 676.981 479.4 C 674.647 480.427 667.067 485.586 666.175 487.742 L 662.915 485.016 C 682.439 471.694 696.511 460.012 709.276 440.212 z"/>
<path transform="translate(0,0)" fill="rgb(255,255,255)" d="M 466.263 919.544 C 469.431 921.727 476.391 934.858 478.55 938.694 C 476.963 963.938 475.385 992.755 472.715 1017.74 C 468.475 1018.55 463.703 1018.75 459.356 1019.05 L 466.263 919.544 z"/>
<path transform="translate(0,0)" fill="rgb(255,255,255)" d="M 730.732 727.97 C 739.361 740.358 742.632 750.083 753.348 763.895 C 731.245 759.355 721.245 756.531 698.981 757.085 C 689.598 757.711 681.554 758.627 672.215 759.842 L 676.825 751.923 C 692.835 746.471 717.996 738.114 730.732 727.97 z"/>
<path transform="translate(0,0)" fill="rgb(255,255,255)" d="M 776.677 992.97 C 782.388 992.009 794.981 988.617 798.475 990.965 C 798.157 995.725 798.081 996.515 799.337 1001.08 L 800.035 1001.85 C 800.062 1005.42 800.674 1007.55 799.161 1010.34 C 789.943 1013.47 742.924 1015.94 734.99 1013.05 L 733.908 1011.09 C 734.149 1010.27 734.524 1008.78 734.875 1008.07 L 734.684 1006.17 C 740.04 1001.53 754.83 998.89 762.052 997.814 C 764.881 994.736 770.229 993.516 774.265 993.046 L 776.677 992.97 z"/>
<path transform="translate(0,0)" fill="rgb(132,131,131)" d="M 776.677 992.97 C 782.388 992.009 794.981 988.617 798.475 990.965 C 798.157 995.725 798.081 996.515 799.337 1001.08 L 800.035 1001.85 C 788.204 1003.02 775.685 1005.75 765.563 1000.25 C 756.182 1002.37 743.319 1006.42 734.875 1008.07 L 734.684 1006.17 C 740.04 1001.53 754.83 998.89 762.052 997.814 C 764.881 994.736 770.229 993.516 774.265 993.046 L 776.677 992.97 z"/>
<path transform="translate(0,0)" fill="rgb(255,255,255)" d="M 762.052 997.814 C 764.881 994.736 770.229 993.516 774.265 993.046 C 777.918 996.586 779.282 997.301 783.758 999.841 L 778.576 1001.92 C 772.813 1001.48 770.855 1001.48 766.291 998.094 L 765.484 997.486 L 762.673 999.541 L 762.052 997.814 z"/>
<path transform="translate(0,0)" fill="rgb(255,255,255)" d="M 776.677 992.97 C 782.388 992.009 794.981 988.617 798.475 990.965 C 792.951 997.462 783.447 997.733 776.677 992.97 z"/>
<path transform="translate(0,0)" fill="rgb(255,255,255)" d="M 783.758 999.841 C 787.432 999.35 793.065 998.247 796.406 999.222 C 792.585 1002.13 783.534 1001.84 778.576 1001.92 L 783.758 999.841 z"/>
<path transform="translate(0,0)" fill="rgb(255,255,255)" d="M 583.107 735.404 C 594.125 734.302 607.754 736.33 619.13 737.276 C 621.597 745.905 623.512 749.807 628.735 757.06 C 614.217 763.045 601.882 765.183 586.228 763.472 L 585.085 762.949 L 584.782 761.934 L 589.981 759.57 C 585.201 759.386 582.374 759.322 577.715 758.386 L 577.585 757.052 C 581.201 754.482 585.655 754.249 590.072 753.619 C 583.533 753.402 578.737 752.917 572.277 752.153 L 571.656 750.645 L 571.584 750.637 C 577.928 748.995 594.182 746.878 596.968 742.819 C 592.944 739.23 587.728 739.363 583.107 735.404 z"/>
<path transform="translate(0,0)" fill="rgb(255,255,255)" d="M 296.812 840.733 C 297.927 844.51 295.975 863.058 295.588 868.253 C 290.223 867.45 280.841 865.692 275.906 866.678 C 257.927 870.27 240.205 878.058 222.721 883.708 L 102.153 922.236 C 101.732 921.94 100.873 920.91 100.483 920.478 C 103.828 916.688 212.888 882.491 226.398 878.304 C 241 873.778 258.276 870.842 271.709 863.562 C 281.2 858.418 289.287 848.421 296.812 840.733 z"/>
<path transform="translate(0,0)" fill="rgb(255,255,255)" d="M 591.226 1004.48 C 595.715 1001.42 617.245 990.077 621.628 992.44 C 628.063 994.965 646.051 998.072 654.796 997.657 C 655.029 997.646 655.7 998.673 655.929 999.851 L 656.395 1001.38 C 657.049 1004.52 657.842 1006.91 656.959 1010.02 C 652.054 1013.19 607.45 1011.35 598.836 1011.55 C 595.424 1011.63 592.083 1010.53 590.245 1007.38 L 591.226 1004.48 z"/>
<path transform="translate(0,0)" fill="rgb(132,131,131)" d="M 591.226 1004.48 C 595.715 1001.42 617.245 990.077 621.628 992.44 C 628.063 994.965 646.051 998.072 654.796 997.657 C 655.029 997.646 655.7 998.673 655.929 999.851 L 656.395 1001.38 C 639 1002.29 632.56 1001.72 615.662 996.714 C 608.679 999.138 598.074 1003.29 591.226 1004.48 z"/>
<path transform="translate(0,0)" fill="rgb(255,255,255)" d="M 621.628 992.44 C 628.063 994.965 646.051 998.072 654.796 997.657 C 655.029 997.646 655.7 998.673 655.929 999.851 C 647.378 1000.47 627.471 1000.23 620.727 994.421 L 621.628 992.44 z"/>
<path transform="translate(0,0)" fill="rgb(255,255,255)" d="M 702.145 622.408 L 702.5 622.661 C 702.618 622.97 693.084 682.004 692.202 691.448 C 688.463 694.339 686.155 695.538 681.96 697.79 C 682.033 687.634 683.949 626.698 688.561 623.156 C 695.034 626.613 695.632 625.729 702.145 622.408 z"/>
<path transform="translate(0,0)" fill="rgb(255,255,255)" d="M 793.485 960.977 C 799.199 961.83 798.634 974.148 798.907 978.868 C 787.949 984.813 775.762 986.405 763.622 987.833 C 755.596 984.25 756.164 979.514 754.704 971.602 C 769.873 968.429 778.767 966.085 793.485 960.977 z"/>
<path transform="translate(0,0)" fill="rgb(255,255,255)" d="M 623.77 964.161 C 631.523 966.849 638.743 968.803 646.74 970.669 C 656.137 972.86 669.262 977.071 658.904 988.457 C 642.155 991.995 607.983 990.595 623.77 964.161 z"/>
<path transform="translate(0,0)" fill="rgb(255,255,255)" d="M 111.576 926.739 C 114.24 929.566 111.084 949.117 110.613 953.99 C 109.235 969.924 107.767 985.85 106.209 1001.77 C 104.495 1019.57 103.129 1037.98 101.378 1055.81 C 101.055 1059.1 100.489 1059.1 98.3843 1061.25 L 96.9247 1059.56 C 95.5791 1054.79 105.649 945.928 106.554 930.102 C 106.643 928.555 109.785 927.563 111.576 926.739 z"/>
<path transform="translate(0,0)" fill="rgb(255,255,255)" d="M 524.766 679.751 C 530.279 685.223 573.957 737.683 574.185 740.604 L 568.911 742.088 C 562.215 740.261 524.381 694.012 517.286 686.015 L 524.766 679.751 z"/>
<path transform="translate(0,0)" fill="rgb(255,255,255)" d="M 316.461 643.64 C 317.991 647.62 317.835 675.508 317.883 681.495 L 287.514 693.117 L 286.705 692.525 C 289.171 686.268 311.387 651.716 316.461 643.64 z"/>
<path transform="translate(0,0)" fill="rgb(41,41,41)" d="M 721.071 412.949 C 740.165 403.902 764.14 414.396 778.707 427.562 L 778.209 428.167 L 777.631 428.16 C 776.125 429.33 775.152 430.341 773.991 431.85 C 772.532 431.468 771.8 431.477 770.813 430.387 C 745.257 425.841 741.001 410.278 710.437 424.88 C 711.366 424.265 712.466 422.542 715.883 420.217 C 715.549 418.604 715.872 419.391 714.261 418.082 L 714.28 415.833 C 716.09 413.778 718.292 413.635 721.071 412.949 z"/>
<path transform="translate(0,0)" fill="rgb(255,255,255)" d="M 721.071 412.949 C 740.165 403.902 764.14 414.396 778.707 427.562 L 778.209 428.167 L 777.631 428.16 C 754.365 418.778 748.935 410.037 721.071 412.949 z"/>
<path transform="translate(0,0)" fill="rgb(255,255,255)" d="M 715.883 420.217 C 734.047 412.632 755.507 419.067 770.813 430.387 C 745.257 425.841 741.001 410.278 710.437 424.88 C 711.366 424.265 712.466 422.542 715.883 420.217 z"/>
<path transform="translate(0,0)" fill="rgb(255,255,255)" d="M 325.911 641.807 C 334.672 654.545 347.649 679.192 355.503 693.103 C 345.035 688.701 337.174 684.955 326.102 680.691 C 325.925 667.816 325.588 654.659 325.911 641.807 z"/>
<path transform="translate(0,0)" fill="rgb(255,255,255)" d="M 711.837 488.236 L 710.401 486.428 C 710.279 483.022 720.742 472.378 722.495 460.451 C 723.683 462.005 723.626 464.294 723.934 466.51 L 727.242 467.684 L 727.795 470.146 C 728.031 474.772 728.294 477.982 727.758 482.577 C 728.841 487.018 729.586 487.132 728.519 490.984 C 726.407 498.287 720.197 511.591 711.595 512.018 C 711.231 509.592 711.099 510.782 712.329 508.386 C 712.222 506.013 712.43 504.693 712.711 502.323 L 713.42 495.001 C 711.602 491.673 714.639 493.512 711.837 488.236 z"/>
<path transform="translate(0,0)" fill="rgb(255,255,255)" d="M 727.758 482.577 C 728.841 487.018 729.586 487.132 728.519 490.984 C 726.407 498.287 720.197 511.591 711.595 512.018 C 711.231 509.592 711.099 510.782 712.329 508.386 C 712.222 506.013 712.43 504.693 712.711 502.323 C 720.453 495.75 722.92 491.192 727.758 482.577 z"/>
<path transform="translate(0,0)" fill="rgb(62,61,62)" d="M 727.758 482.577 C 728.841 487.018 729.586 487.132 728.519 490.984 L 727.404 489.769 C 723.036 495.419 717.31 503.814 712.329 508.386 C 712.222 506.013 712.43 504.693 712.711 502.323 C 720.453 495.75 722.92 491.192 727.758 482.577 z"/>
<path transform="translate(0,0)" fill="rgb(255,255,255)" d="M 711.837 488.236 L 710.401 486.428 C 710.279 483.022 720.742 472.378 722.495 460.451 C 723.683 462.005 723.626 464.294 723.934 466.51 C 722.183 474.271 719.198 483.943 711.837 488.236 z"/>
<path transform="translate(0,0)" fill="rgb(62,61,62)" d="M 723.934 466.51 L 727.242 467.684 L 727.795 470.146 C 725.612 472.023 724.598 475.615 723.637 478.515 C 722.23 482.759 713.217 491.923 713.42 495.001 C 711.602 491.673 714.639 493.512 711.837 488.236 C 719.198 483.943 722.183 474.271 723.934 466.51 z"/>
<path transform="translate(0,0)" fill="rgb(255,255,255)" d="M 534.367 621.427 C 539.511 623.639 553.489 627.396 559.457 629.162 C 552.919 635.454 546.508 641.876 540.229 648.426 C 535.567 653.8 532.936 656.819 527.553 661.537 C 530.069 649.534 533.812 633.36 534.367 621.427 z"/>
<path transform="translate(0,0)" fill="rgb(255,255,255)" d="M 713.065 582.89 L 714.829 583.47 C 708.883 591.788 699.782 613.634 695.089 615.76 C 692.68 614.195 692.431 613.961 691.147 611.397 C 690.463 603.412 693.952 597.313 697.086 589.903 C 702.146 587.864 708.005 585.12 713.065 582.89 z"/>
<path transform="translate(0,0)" fill="rgb(255,255,255)" d="M 719.854 766.531 C 724.736 767.118 753.442 771.584 756.479 773.088 C 757.813 775.551 758.173 778.308 757.157 780.978 L 754.912 784.226 C 753.256 783.252 742.481 782.073 739.156 781.427 L 739.213 779.893 C 732.308 773.507 728.474 774.588 719.854 766.531 z"/>
<path transform="translate(0,0)" fill="rgb(132,131,131)" d="M 739.213 779.893 C 746.475 780.76 749.844 782.178 757.157 780.978 L 754.912 784.226 C 753.256 783.252 742.481 782.073 739.156 781.427 L 739.213 779.893 z"/>
<path transform="translate(0,0)" fill="rgb(255,255,255)" d="M 741.12 400.419 C 758.566 401.887 761.722 403.895 772.993 415.86 C 755.97 406.678 746.223 401.034 726.193 405.658 C 713.329 410.778 709.194 415.609 700.664 425.883 C 708.331 405.617 720.809 401.05 741.12 400.419 z"/>
<path transform="translate(0,0)" fill="rgb(255,255,255)" d="M 589.466 611.705 C 592.23 613.169 592.641 613.361 594.376 615.939 C 593.045 619.215 559.28 644.768 554.587 648.415 L 552.503 649.621 L 552.257 648.533 C 560.907 637.877 579.218 621.294 589.466 611.705 z"/>
<path transform="translate(0,0)" fill="rgb(186,186,188)" d="M 487.546 939.859 C 489.8 942.743 483.459 1010.69 482.758 1018.28 L 481.597 1016.81 C 481.636 1002.82 484.942 953.513 487.546 939.859 z"/>
<path transform="translate(0,0)" fill="rgb(255,255,255)" d="M 746.878 553.679 C 749.64 555.185 755.406 562.052 756.225 565.193 L 755.377 566.341 L 750.847 565.247 C 745.848 564.545 740.706 564.835 735.649 564.952 L 746.878 553.679 z"/>
<path transform="translate(0,0)" fill="rgb(255,255,255)" d="M 519.492 632.222 C 520.953 632.67 521.585 633.027 522.944 633.67 C 524.812 639.426 520.836 653.921 519.349 660.56 L 518.528 661.623 C 517.732 653.679 518.901 640.589 519.492 632.222 z"/>
<path transform="translate(0,0)" fill="rgb(255,255,255)" d="M 717.619 461.987 C 717.51 469.468 710.766 478.832 704.245 482.382 L 703.715 480.703 C 704.262 478.105 714.708 465.997 717.619 461.987 z"/>
<path transform="translate(0,0)" fill="rgb(255,255,255)" d="M 714.567 454.005 C 714.284 461.795 702.22 471.78 696.695 476.735 C 696.03 473.379 711.116 458.137 714.567 454.005 z"/>
<path transform="translate(0,0)" fill="rgb(255,255,255)" d="M 481.071 925.894 C 488.596 925.5 493.072 923.383 496.008 930.673 C 487.658 931.403 486.471 932.437 481.071 925.894 z"/>
<path transform="translate(0,0)" fill="rgb(41,41,41)" d="M 759.75 1075.01 C 802.066 1070.13 840.349 1100.42 845.323 1142.73 C 850.298 1185.03 820.088 1223.38 777.794 1228.45 C 735.369 1233.53 696.877 1203.21 691.887 1160.77 C 686.897 1118.34 717.304 1079.91 759.75 1075.01 z"/>
<path transform="translate(0,0)" fill="rgb(255,255,255)" d="M 762.798 1111.56 C 777.204 1109.45 791.63 1115.25 800.556 1126.76 C 809.482 1138.26 811.524 1153.68 805.902 1167.11 C 800.28 1180.54 787.863 1189.9 773.405 1191.61 C 751.472 1194.21 731.519 1178.71 728.618 1156.82 C 725.717 1134.92 740.945 1114.76 762.798 1111.56 z"/>
<path transform="translate(0,0)" fill="rgb(41,41,41)" d="M 895.672 1082.5 L 898.464 1082.64 C 901.126 1085.01 903.267 1087.81 905.434 1090.63 C 922.634 1112.99 940.866 1134.67 957.035 1157.8 L 956.809 1082.58 L 995.093 1082.57 L 994.931 1222.53 C 985.812 1222.83 975.855 1222.68 966.667 1222.72 C 959.464 1215.24 951.076 1204.25 944.432 1196.01 C 931 1179.54 917.922 1162.79 905.21 1145.77 C 905.389 1171.4 905.42 1197.04 905.301 1222.67 L 867.298 1222.66 C 866.993 1175.98 866.941 1129.29 867.143 1082.61 L 895.672 1082.5 z"/>
<path transform="translate(0,0)" fill="rgb(41,41,41)" d="M 525.901 1080.85 L 563.699 1080.83 C 562.646 1126.7 563.33 1175.47 563.34 1221.52 C 552.478 1221.71 542.074 1221.43 531.234 1221.13 C 512.231 1197.6 490.539 1168.16 472.345 1143.75 C 471.964 1169.3 472.302 1195.74 472.327 1221.35 L 435.886 1221.36 L 435.757 1080.93 L 467.865 1080.9 C 487.272 1105.5 506.295 1132.96 525.935 1158.27 C 525.601 1132.72 525.906 1106.45 525.901 1080.85 z"/>
<path transform="translate(0,0)" fill="rgb(41,41,41)" d="M 322.664 1080.41 L 360.922 1080.19 C 371.041 1108.7 385.717 1137.73 396.69 1166.14 C 403.902 1184.81 412.753 1202.86 419.879 1221.78 C 406.283 1221.78 392.687 1221.69 379.092 1221.51 C 376.95 1214.51 373.036 1205.71 370.16 1198.77 L 360.25 1198.92 L 311.449 1198.89 C 308.029 1205.9 304.581 1214.58 301.482 1221.87 L 261.149 1221.78 C 282.549 1175.29 301.449 1126.09 322.664 1080.41 z"/>
<path transform="translate(0,0)" fill="rgb(255,255,255)" d="M 341.084 1121.65 C 344.463 1126.62 356.774 1160.59 360.188 1169.43 C 354.433 1169.76 347.759 1169.79 341.926 1169.95 L 321.847 1169.8 C 328.881 1154.83 335.19 1137.21 341.084 1121.65 z"/>
<path transform="translate(0,0)" fill="rgb(41,41,41)" d="M 219.009 1080.04 L 262.996 1080 C 245.18 1100.45 226.939 1128.33 209.029 1149.76 C 225.23 1174.37 242.387 1198.34 260.459 1221.61 C 245.729 1222.13 228.528 1221.75 213.6 1221.8 C 206.54 1207.76 190.756 1182.93 182.196 1168.46 C 181.869 1167.87 181.44 1167.73 180.767 1167.27 C 179.615 1170.51 180.257 1214.53 180.236 1221.77 L 142.965 1221.71 L 142.924 1080.57 L 180.565 1080.55 C 180.215 1097.66 180.513 1115.57 180.558 1132.74 C 193.459 1115.75 206.113 1097.34 219.009 1080.04 z"/>
<path transform="translate(0,0)" fill="rgb(41,41,41)" d="M 479.364 1247.99 C 505.507 1247.7 533.924 1244.18 554.294 1264.1 C 577.088 1286.39 577.508 1330.5 555.183 1353.15 C 533.166 1373.13 507.33 1370.01 479.294 1369.91 L 479.364 1247.99 z"/>
<path transform="translate(0,0)" fill="rgb(255,255,255)" d="M 500.516 1265.88 C 503.804 1265.8 506.99 1265.95 510.255 1266.04 C 550.115 1267.1 561.299 1312.27 539.166 1340.54 C 526.288 1351.56 516.431 1350.86 500.266 1350.88 C 500.117 1322.54 500.2 1294.21 500.516 1265.88 z"/>
<path transform="translate(0,0)" fill="rgb(41,41,41)" d="M 222.043 1240.58 C 226.368 1246.12 247.302 1309.82 251.948 1321.7 C 258.228 1296.98 265.833 1271.54 272.833 1246.94 L 293.865 1247.01 C 280.025 1287.2 270.01 1333.02 256.047 1374.78 C 243.236 1346.78 233.427 1318.92 221.227 1292.07 C 217.674 1298.25 211.078 1316.63 208.32 1323.91 L 188.363 1375.95 C 174.663 1333.5 162.414 1289.83 148.78 1247.03 L 171.173 1247.13 C 176.582 1270.03 184.725 1297.5 190.906 1320.49 C 201.595 1293.98 211.975 1267.33 222.043 1240.58 z"/>
<path transform="translate(0,0)" fill="rgb(41,41,41)" d="M 579.02 1080.86 L 678.912 1080.84 L 678.765 1112.79 L 648.187 1112.75 C 647.544 1137.54 647.993 1164.55 647.959 1189.5 L 647.94 1221.42 L 610.796 1221.21 L 610.509 1112.61 L 579.055 1112.79 L 579.02 1080.86 z"/>
<path transform="translate(0,0)" fill="rgb(41,41,41)" d="M 814.077 1247.44 L 834.985 1247.35 C 834.409 1262.87 834.686 1280.04 834.637 1295.68 L 880.969 1295.51 L 880.845 1247.79 L 901.224 1247.77 C 901.258 1287.83 901.726 1327.9 901.543 1367.96 C 901.155 1368.48 900.766 1369 900.378 1369.52 L 896.249 1369.63 L 880.945 1369.96 L 880.867 1315.06 L 834.28 1315.22 L 834.376 1369.78 L 813.974 1369.45 C 814.197 1331.79 812.304 1284.18 814.077 1247.44 z"/>
<path transform="translate(0,0)" fill="rgb(41,41,41)" d="M 338.45 1241.79 C 340.521 1244.08 348.472 1264.1 350.449 1268.37 C 366.041 1302.1 380.943 1336.56 397.65 1369.73 L 375.232 1369.72 C 371.998 1361.47 366.757 1348.21 362.285 1340.96 L 340.25 1340.95 L 315.091 1341.02 L 301.97 1369.47 C 294.761 1369.79 285.889 1369.54 278.549 1369.53 C 299.789 1327.56 319.765 1284.96 338.45 1241.79 z"/>
<path transform="translate(0,0)" fill="rgb(255,255,255)" d="M 338.512 1288.64 C 342.384 1292 353.169 1318.71 355.427 1324.68 L 342.167 1324.14 L 321.705 1324.08 L 338.512 1288.64 z"/>
<path transform="translate(0,0)" fill="rgb(41,41,41)" d="M 756.846 1245.25 C 770.065 1243.5 785.51 1249.04 796.6 1256.14 L 792.198 1275.82 C 764.399 1249.67 723.893 1269.67 721.155 1305.05 C 720.253 1317.32 724.38 1329.43 732.589 1338.59 C 748.2 1356.38 771.703 1357.43 789.384 1342.02 C 790.205 1341.18 789.76 1341.55 791.467 1341.46 C 793.476 1344.72 796.134 1356.71 797.233 1361.08 C 759.709 1385.77 709.895 1365.21 700.308 1322.04 C 696.693 1305.86 699.724 1288.92 708.721 1275 C 720.788 1256.31 736.225 1249.57 756.846 1245.25 z"/>
<path transform="translate(0,0)" fill="rgb(41,41,41)" d="M 915.093 1247.93 L 990.279 1247.92 L 990.229 1266.13 L 962.933 1266.18 C 962.748 1292.2 962.76 1318.23 962.968 1344.25 L 963.037 1369.48 C 956.433 1369.24 948.973 1369.41 942.299 1369.43 L 942.221 1266.1 L 915.135 1266.06 L 915.093 1247.93 z"/>
<path transform="translate(0,0)" fill="rgb(41,41,41)" d="M 586.993 1248.05 L 607.836 1248.06 C 607.144 1280.9 607.831 1316.03 607.898 1349.05 L 645.062 1349.14 L 645.062 1369.11 L 587.025 1369.11 L 586.993 1248.05 z"/>
<path transform="translate(0,0)" fill="rgb(41,41,41)" d="M 406.988 1248.03 L 427.847 1247.92 C 426.12 1275.59 427.107 1321.6 427.616 1349.88 C 439.725 1349.34 453.746 1349.58 466.02 1349.53 L 465.883 1369.74 C 447.189 1369.04 425.924 1369.55 407.042 1369.57 L 406.988 1248.03 z"/>
<path transform="translate(0,0)" fill="rgb(41,41,41)" d="M 660.102 1247.96 L 680.141 1247.98 C 681.028 1288.73 680.722 1328.39 680.586 1369.15 L 660.478 1369.11 L 660.102 1247.96 z"/>
<path transform="translate(0,0)" fill="rgb(41,41,41)" d="M 761.081 1389.09 C 770.642 1388.93 778.04 1388.73 786.159 1394.51 C 790.958 1397.87 794.198 1403.02 795.142 1408.8 C 796.447 1416.79 792.864 1424.45 788.256 1430.7 C 779.088 1437.92 772.183 1437.02 760.943 1436.96 L 761.081 1389.09 z"/>
<path transform="translate(0,0)" fill="rgb(255,255,255)" d="M 767.598 1396.09 C 788.675 1395.01 794.401 1411.88 782.503 1427.44 C 778.601 1429.71 771.222 1432.43 767.304 1429.43 C 766.626 1423.51 766.652 1401.86 767.598 1396.09 z"/>
<path transform="translate(0,0)" fill="rgb(41,41,41)" d="M 505.895 1389 C 515.081 1389.1 522.26 1389.4 529.828 1395.07 C 534.492 1398.53 537.57 1403.72 538.371 1409.48 C 539.45 1417.46 536.219 1424.45 531.635 1430.68 C 523.411 1436.74 515.604 1436.47 505.815 1436.88 L 505.895 1389 z"/>
<path transform="translate(0,0)" fill="rgb(255,255,255)" d="M 512.136 1395.62 C 526.28 1396.36 530.427 1401.88 532.82 1415.12 C 531.203 1419.19 529.999 1421.32 527.803 1425.14 C 523.806 1428.55 519.03 1432.03 514.05 1428.99 C 510.259 1422.84 512.022 1403.73 512.136 1395.62 z"/>
<path transform="translate(0,0)" fill="rgb(41,41,41)" d="M 431.047 1389.08 C 439.403 1388.99 454.581 1389.14 456.417 1400.28 C 457.128 1404.59 456.456 1406.71 453.932 1410.28 L 453.316 1411.13 C 454.877 1419.73 463.182 1415.21 456.633 1430.76 C 448.481 1437.6 441.073 1436.9 430.825 1436.96 C 431.486 1422.14 431.038 1404.14 431.047 1389.08 z"/>
<path transform="translate(0,0)" fill="rgb(255,255,255)" d="M 437.667 1414.8 C 443.114 1415.49 448.225 1415.36 451.653 1419.63 C 452.941 1423.12 452.309 1424.25 451.213 1427.7 C 447.049 1429.72 442.587 1431.5 438.789 1428.48 C 436.93 1425.01 437.58 1418.96 437.667 1414.8 z"/>
<path transform="translate(0,0)" fill="rgb(255,255,255)" d="M 437.704 1395.55 C 441.748 1395.9 445.344 1396.45 448.229 1399.38 C 449.876 1402.49 449.223 1404 448.498 1407.39 C 444.767 1408.55 442.296 1409.33 438.878 1408.01 C 436.963 1404.87 437.615 1399.49 437.704 1395.55 z"/>
<path transform="translate(0,0)" fill="rgb(41,41,41)" d="M 375.98 1389.25 C 385.544 1389.01 403.783 1386.99 405.645 1402.4 C 406.622 1410.49 396.235 1412.6 392.55 1416.32 C 394.585 1422.94 407.731 1431.68 403.704 1436.73 L 398.521 1437.11 C 393.476 1429.18 387.798 1421.67 381.543 1414.66 C 381.655 1420.74 382.566 1430.67 381.326 1436.16 C 379.116 1437.34 380 1437.05 376.987 1436.44 C 374.484 1432.89 375.866 1396.28 375.98 1389.25 z"/>
<path transform="translate(0,0)" fill="rgb(255,255,255)" d="M 382.068 1395.81 C 387.381 1395.62 394.002 1395.55 397.152 1400.45 C 398.035 1403.54 397.417 1404.52 396.264 1407.51 C 391.598 1409.16 387.723 1410.97 383.331 1408.38 C 381.259 1405.18 381.953 1399.83 382.068 1395.81 z"/>
<path transform="translate(0,0)" fill="rgb(41,41,41)" d="M 157.295 1386.68 C 160.116 1389.35 180.167 1432.03 180.355 1436.08 C 178.512 1437.19 177.299 1436.77 175.127 1436.52 C 172.315 1434.34 171.472 1430.88 170.111 1427.4 L 157.75 1427.37 L 145.539 1427.33 C 143.863 1431.08 143.044 1432.89 140.832 1436.36 C 138.391 1436.93 138.174 1436.75 135.67 1436.09 C 134.471 1431.61 153.971 1393.48 157.295 1386.68 z"/>
<path transform="translate(0,0)" fill="rgb(255,255,255)" d="M 157.141 1402.55 C 160.359 1405.84 166.57 1415.74 164.507 1420.56 L 160.249 1420.88 C 155.893 1421.17 153.057 1422.26 149.998 1419.11 C 149.442 1415.4 155.041 1406.52 157.141 1402.55 z"/>
<path transform="translate(0,0)" fill="rgb(41,41,41)" d="M 234.089 1387.48 C 233.841 1396.29 235.611 1434.2 228.907 1437.07 C 225.559 1433.08 226.533 1422.29 226.606 1416.75 L 226.816 1404.82 C 220.362 1411.32 215.852 1416.3 209.967 1423.33 C 203.845 1417.33 198.509 1410.52 191.894 1404.89 C 191.911 1413.49 193.813 1427.01 191.146 1434.43 C 188.725 1436.91 189.921 1436.39 186.719 1436.56 C 183.792 1432.14 184.859 1395.36 185.769 1388.79 C 187.904 1390.46 206.121 1409.82 209.373 1413.17 C 217.789 1404.78 226.029 1396.21 234.089 1387.48 z"/>
<path transform="translate(0,0)" fill="rgb(41,41,41)" d="M 912.363 1388.29 L 915.671 1388.94 C 922.495 1395.57 912.494 1422.92 922.554 1429.61 C 940.147 1433.09 934.712 1404.59 935.912 1394.57 C 936.458 1390.01 935.748 1389.92 939.48 1388.07 L 937.454 1388.54 L 940.331 1388.86 C 943.501 1392.86 942.489 1414.89 942.592 1421.75 C 942.174 1436.64 952.392 1426.74 959.485 1431.87 C 959.806 1434.77 960.224 1434.29 959.015 1436.26 C 955.057 1437.3 940.424 1437.77 937.281 1436.01 L 936.53 1430.67 C 932.731 1433.24 926.21 1438.61 921.701 1436.96 C 907.977 1431.96 912.082 1400.03 912.363 1388.29 z"/>
<path transform="translate(0,0)" fill="rgb(41,41,41)" d="M 721.28 1388.57 C 724.632 1390.25 745.314 1417.24 748.884 1421.76 C 748.954 1414.04 746.596 1393.46 751.492 1388.89 L 753.36 1388.99 C 756.512 1393.15 754.765 1429.92 754.641 1437.44 C 751.454 1436.67 731.292 1410.06 726.964 1405.22 C 727.092 1413.98 727.446 1425.15 727.017 1434.02 C 726.934 1435.74 725.583 1436.31 724.333 1437.18 L 722.252 1436.64 C 719.925 1430.81 721.149 1397.34 721.28 1388.57 z"/>
<path transform="translate(0,0)" fill="rgb(41,41,41)" d="M 637.425 1387.97 C 642.084 1388.1 653.33 1391.16 653.459 1396.67 C 648.376 1401.25 647.491 1396.32 643.108 1395.13 C 634.99 1393.62 629.63 1400.45 626.934 1406.95 C 621.752 1419.46 633.158 1436.77 647.112 1428.6 C 649.494 1427.2 650.774 1425.59 651.377 1422.81 C 650.263 1420.18 651.168 1421.12 648.56 1419.91 C 643.951 1420.91 643.026 1421.33 640.066 1418.08 L 642.442 1414.79 C 646.614 1413.24 652.255 1413.89 656.83 1414.07 C 656.932 1417.39 657.246 1422.27 656.36 1425.42 C 651.321 1443.5 628.374 1439.02 621.992 1424.64 C 617.603 1414.75 618.249 1404.63 625.102 1396.24 C 628.795 1391.72 632.207 1390.39 637.425 1387.97 z"/>
<path transform="translate(0,0)" fill="rgb(41,41,41)" d="M 900.326 1409.06 C 900.096 1402.7 898.557 1393.66 902.466 1389.41 C 905.322 1389.31 904.173 1388.85 906.151 1390.47 C 907.563 1399.15 908.785 1431.55 904.741 1438.25 C 902.961 1437.58 902.786 1437.32 901.311 1436.19 C 899.538 1431.28 900.318 1420.87 900.472 1415.18 L 881.992 1415.16 L 882.006 1417.98 C 882.02 1422.42 882.696 1434.11 879.689 1437.14 L 877.87 1436.16 C 874.468 1429.17 875.787 1397.59 876.329 1388.41 C 878.912 1388.75 879.033 1388.72 881.09 1390.22 C 882.851 1395.49 882.002 1403.13 881.867 1409.05 L 900.326 1409.06 z"/>
<path transform="translate(0,0)" fill="rgb(41,41,41)" d="M 1014.26 1388.32 L 1018.5 1389.26 C 1021.26 1392.52 1020.02 1431.49 1020.03 1439.01 C 1012.81 1430.22 1003.81 1415.45 996.019 1405.19 L 996.016 1436.96 L 991.578 1436.52 C 988.668 1433.46 990.222 1394.68 990.288 1387.87 C 998.414 1398.13 1005.48 1409.3 1014.1 1419.72 C 1013.92 1409.25 1013.98 1398.78 1014.26 1388.32 z"/>
<path transform="translate(0,0)" fill="rgb(41,41,41)" d="M 608.186 1421.48 C 608.072 1411.83 607.744 1401.35 608.063 1391.77 C 609.749 1388.89 608.768 1389.71 611.661 1388.52 L 613.358 1389.8 C 614.862 1399.27 614.058 1424.07 613.962 1434.79 C 613.439 1435.4 613.211 1435.27 612.194 1435.61 C 606.224 1431.43 594.633 1412.48 590.051 1405.48 C 590.087 1413.88 590.101 1422.28 590.133 1430.68 C 590.147 1434.1 589.668 1435.78 586.444 1437.05 C 583.76 1433.63 585 1395.42 585.115 1388.75 C 588.212 1391.22 604.597 1416.43 608.186 1421.48 z"/>
<path transform="translate(0,0)" fill="rgb(41,41,41)" d="M 543.858 1388.67 L 547.635 1389.14 C 555.897 1396.59 539.976 1435.67 562.929 1430.23 C 576.512 1427 566.067 1397.68 571.133 1389.28 C 573.962 1388.58 572.776 1388.53 575.781 1390.06 L 576.151 1392.75 C 576.176 1399.78 578.339 1428.25 571.976 1432.74 C 553.469 1445.82 540.43 1429.42 543.672 1409.88 C 544.115 1407.21 543.846 1392.69 543.858 1388.67 z"/>
<path transform="translate(0,0)" fill="rgb(41,41,41)" d="M 332.182 1388.75 C 335.214 1388.98 335.756 1388.88 338.455 1390.12 C 339.804 1399.59 336.882 1410.22 338.548 1420.02 C 339.75 1427.09 344.887 1432.68 352.515 1430.2 C 369.679 1424.62 356.782 1399.97 362.958 1389.06 L 364.802 1388.67 L 366.834 1390.07 L 367.208 1392.75 C 367.039 1401.82 370.209 1423.63 362.67 1431.51 C 353.97 1440.61 336.485 1438.08 333.174 1424.95 C 330.937 1416.07 332.006 1399.2 332.182 1388.75 z"/>
<path transform="translate(0,0)" fill="rgb(41,41,41)" d="M 682.239 1388.29 L 686.087 1389.18 C 691.322 1395.01 683.532 1425.28 692.932 1429.12 C 717.528 1439.17 705.485 1395.92 710.57 1388.91 C 713.114 1388.78 712.213 1388.71 714.752 1390.53 L 715.011 1393.75 L 715.064 1398.18 C 715.171 1407.86 716.142 1428.78 708.839 1433.21 C 686.869 1446.54 679.818 1422.93 681.768 1405.43 C 682.361 1400.11 682.116 1392.24 682.239 1388.29 z"/>
<path transform="translate(0,0)" fill="rgb(41,41,41)" d="M 962.332 1389.22 C 971.17 1389.01 977.712 1388.14 985.808 1391.86 L 985.333 1394.04 C 979.973 1396.15 974.472 1395.59 968.703 1395.46 L 968.601 1409.97 C 972.551 1409.87 978.711 1409.39 982.314 1410.44 C 983.52 1413.23 983.329 1412.02 982.764 1415.08 C 980.445 1416.68 974.331 1415.33 969.489 1416.2 C 967.894 1418.4 968.412 1421.79 968.31 1425.04 L 968.531 1427.91 C 972.491 1433.02 977.827 1428.35 984.847 1430.34 C 986.658 1433.2 986.209 1431.89 985.896 1435.98 C 983.162 1437.63 966.878 1436.92 962.359 1436.89 L 962.332 1389.22 z"/>
<path transform="translate(0,0)" fill="rgb(41,41,41)" d="M 301.991 1389.13 C 306.665 1389.14 323.713 1387.97 326.707 1390.31 L 326.919 1393.6 L 325.573 1395.13 C 321.154 1396.63 313.38 1395.95 308.447 1395.8 L 308.335 1407.67 C 313.681 1407.5 325.339 1405.64 327.153 1410.97 C 325.91 1413.96 326.757 1413.17 324.211 1414.3 L 308.003 1414.35 C 308.048 1418.85 308.302 1432.52 307.144 1436.27 L 305.147 1436.91 L 303.664 1435.84 C 300.394 1428.96 301.856 1398.88 301.991 1389.13 z"/>
<path transform="translate(0,0)" fill="rgb(41,41,41)" d="M 857.102 1389.11 C 861.008 1388.99 864.479 1388.55 868.042 1390.1 C 870.385 1392.65 869.785 1391.37 870.151 1395.02 C 867.702 1397.61 862.124 1394.11 858.807 1395.62 C 848.623 1400.27 844.227 1411.83 849.066 1421.94 C 850.941 1425.94 854.435 1428.95 858.668 1430.21 C 864.195 1431.91 866.936 1430.46 871.57 1427.99 C 873.478 1432.33 873.44 1432.62 870.323 1435.81 C 866.565 1437.29 864.073 1437.53 860.087 1436.63 C 852.833 1435.04 846.572 1430.49 842.809 1424.09 C 834.045 1409.35 844.253 1396.51 857.102 1389.11 z"/>
<path transform="translate(0,0)" fill="rgb(41,41,41)" d="M 825.624 1387.69 C 829.841 1388.5 833.677 1390.6 834.96 1394.95 C 832.457 1398.15 827.628 1393.99 823.534 1397.47 C 821.701 1405.18 836.968 1417.35 837.198 1426.58 C 837.401 1434.76 829.327 1437.39 822.375 1437.57 C 818.278 1435.32 815.511 1434.6 815.549 1429.53 C 821.869 1427.4 824.084 1433.99 830.373 1427.8 C 831.53 1415.84 801.119 1401.67 825.624 1387.69 z"/>
<path transform="translate(0,0)" fill="rgb(41,41,41)" d="M 239.011 1389.09 C 246.038 1389.03 263.063 1386.59 267.589 1391.87 L 267.078 1394.33 C 264.813 1396.07 260.351 1395.6 257.167 1395.64 L 257.167 1423.98 C 257.291 1427.77 258.016 1433.19 256.1 1436.11 C 252.993 1437.03 254.254 1437.11 251.355 1435.89 C 250.118 1429.87 250.726 1403.78 250.78 1395.98 C 247.333 1395.93 244.39 1396 240.987 1395.38 C 238.611 1392.8 239.332 1393.35 239.011 1389.09 z"/>
<path transform="translate(0,0)" fill="rgb(41,41,41)" d="M 478.249 1388.28 C 480.732 1388.59 481.396 1388.78 483.76 1389.62 C 485.212 1394.21 484.548 1423.31 484.495 1430.04 C 491.181 1430.17 498.122 1427.99 502.75 1431.99 L 503 1436.72 L 478.037 1436.86 C 478.026 1420.66 478.096 1404.47 478.249 1388.28 z"/>
<path transform="translate(0,0)" fill="rgb(41,41,41)" d="M 464.647 1388.15 L 469.472 1389.5 C 471.633 1393.09 470.645 1430.26 470.59 1437.33 C 468.952 1437.1 467.193 1436.76 465.55 1436.48 C 463.635 1433.55 464.612 1394.16 464.647 1388.15 z"/>
</svg>