<svg version="1.1" xmlns="http://www.w3.org/2000/svg" style="display: block;" viewBox="0 0 2048 2048" width="1024" height="1024" preserveAspectRatio="none">
<defs>
	<linearGradient id="Gradient1" gradientUnits="userSpaceOnUse" x1="849.721" y1="596.528" x2="848.727" y2="577.192">
		<stop class="stop0" offset="0" stop-opacity="1" stop-color="rgb(62,40,30)"/>
		<stop class="stop1" offset="1" stop-opacity="1" stop-color="rgb(92,54,40)"/>
	</linearGradient>
</defs>
<path transform="translate(0,0)" fill="rgb(255,255,255)" d="M 0 0 L 2048 0 L 2048 2048 L 0 2048 L 0 0 z"/>
<path transform="translate(0,0)" fill="rgb(77,41,31)" d="M 833 581.631 C 833.324 580.205 833.51 579.95 834.082 578.6 L 838.069 578.521 C 847.061 585.461 848.162 582.526 856.398 584.523 C 859.378 585.06 861.325 585.394 864.398 585.633 L 864.648 586.81 L 863.219 588.563 C 868.273 590.446 872.766 589.933 874.543 594.915 L 878.057 593.869 C 882.083 598.666 891.582 612.421 889.843 616.321 C 880.805 636.591 883.086 637.42 887.347 657.761 L 886.039 657.996 L 886.326 657.516 L 885.239 657.322 C 884.329 659.937 885.154 658.948 883.197 660.664 C 880.087 704.584 880.399 707.279 891.445 749.532 L 909.996 819.988 C 933.843 817.093 964.933 817.701 989.272 816.25 C 989.114 811.682 987.988 798.778 989.379 794.183 C 989.56 793.585 993.927 792.68 993.77 790.309 C 992.618 772.989 994.71 750.344 991.881 733.934 C 991.399 731.138 982.699 730.659 979.83 730.39 C 996.687 677.018 1036.99 637.707 1091.52 624.242 C 1130.45 614.628 1171.6 620.842 1205.95 641.524 C 1239.05 661.703 1260.35 691.362 1269.33 728.875 C 1265.7 730.235 1261.7 731.456 1257.99 732.671 C 1257.64 760.139 1259.66 797.61 1257.86 823.927 C 1321.64 824.75 1384.94 838.194 1447.87 841.95 C 1483.67 844.088 1528.44 842.921 1564.78 842.956 L 1761.7 842.915 C 1772.05 865.71 1790.32 897.943 1802.53 920.313 L 1847.23 1004.19 C 1856 1020.55 1866.4 1038.76 1874.05 1055.49 L 1764.02 1263.56 C 1720.06 1261.73 1665.62 1263.09 1620.87 1263.03 L 1323.67 1263.11 L 279.247 1264.19 C 272.603 1254.11 262.856 1234.86 256.854 1223.82 C 242.688 1197.86 228.66 1171.82 214.771 1145.7 C 201.348 1120.55 176.093 1077.9 165.459 1053.34 C 198.745 985.31 241.617 914.779 276.415 846.234 C 288.345 847.546 319.802 846.735 333.417 846.732 L 455.623 846.19 C 486.406 846.043 517.189 846.119 547.971 846.418 C 572.999 846.719 598.211 848.883 622.599 843.602 C 628.981 842.22 636.3 841.132 642.819 840.486 C 692.239 835.589 742.33 829.711 791.886 826.837 C 792.185 781.737 791.361 734.137 791.227 688.859 C 787.871 685.163 772.523 674.414 772.675 671.046 C 773.809 645.984 785.578 589.472 811.964 580.984 C 817.547 580.719 823.126 580.37 828.699 579.936 L 830.614 581.378 L 833 581.631 z"/>
<path transform="translate(0,0)" fill="rgb(255,255,255)" d="M 833 581.631 C 833.324 580.205 833.51 579.95 834.082 578.6 L 838.069 578.521 C 847.061 585.461 848.162 582.526 856.398 584.523 C 859.378 585.06 861.325 585.394 864.398 585.633 L 864.648 586.81 L 863.219 588.563 C 868.273 590.446 872.766 589.933 874.543 594.915 C 875.174 603.169 874.764 612.674 874.611 621.046 C 865.283 621.271 861.998 623.411 858.682 614.316 C 857.563 623.122 858.334 622.384 852.4 629.468 C 838.604 612.658 832.522 597.077 815.189 584.306 L 811.964 580.984 C 817.547 580.719 823.126 580.37 828.699 579.936 L 830.614 581.378 L 833 581.631 z"/>
<path transform="translate(0,0)" fill="url(#Gradient1)" d="M 833 581.631 C 833.324 580.205 833.51 579.95 834.082 578.6 L 838.069 578.521 C 847.061 585.461 848.162 582.526 856.398 584.523 C 859.378 585.06 861.325 585.394 864.398 585.633 L 864.648 586.81 L 863.219 588.563 C 864.435 593.15 861.766 597.004 859.644 601.244 C 858.218 597.993 856.332 594.334 854.765 591.092 C 852.014 593.251 849.504 595.849 846.35 596.411 C 844.358 585.47 842.513 585.483 833 581.631 z"/>
<path transform="translate(0,0)" fill="rgb(105,65,46)" d="M 811.964 580.984 C 817.547 580.719 823.126 580.37 828.699 579.936 L 830.614 581.378 C 826.324 582.276 818.89 583.375 815.189 584.306 L 811.964 580.984 z"/>
<path transform="translate(0,0)" fill="rgb(255,255,255)" d="M 1696.25 854.488 L 1755.73 854.256 C 1765.95 870.176 1778.79 897.139 1788.23 914.576 C 1813.48 961.002 1838.1 1007.77 1862.08 1054.87 C 1853.19 1075.62 1834.76 1108.69 1823.88 1129.14 C 1801.71 1170.28 1779.82 1211.57 1758.21 1253.01 L 344.83 1253.79 L 284.373 1253.89 C 269.592 1223.81 250.813 1190.8 234.596 1161.1 L 176.79 1053.9 C 184.504 1036.79 198.935 1011.94 208.283 994.422 L 282.846 856.067 C 429.67 857.004 576.499 857.049 723.324 856.201 L 1696.25 854.488 z"/>
<path transform="translate(0,0)" fill="rgb(77,41,31)" d="M 291.631 873.021 C 390.685 874.055 491.243 872.844 590.531 873.136 L 1748.95 873.484 C 1753.4 880.753 1757.71 888.414 1761.58 896.009 C 1788.86 949.644 1819.3 1001.97 1845.56 1056.11 C 1830.9 1080.24 1817 1110.08 1803.38 1135.35 C 1785.25 1169.01 1767.02 1203.1 1749.8 1237.21 L 293.036 1237.52 C 283.987 1220.34 275.361 1203.34 265.545 1186.54 C 240.201 1143.17 218.72 1097.44 193.955 1053.81 C 201.904 1035.74 217.915 1009.19 227.774 991.121 L 291.631 873.021 z"/>
<path transform="translate(0,0)" fill="rgb(255,255,255)" d="M 297.069 883.186 L 1743.73 883.305 C 1747.6 890.232 1751.29 897.447 1754.91 904.512 C 1780.88 955.223 1809.31 1004.88 1834.18 1056.14 L 1767.89 1180.21 C 1764.24 1187 1746.51 1221.95 1743.02 1226.36 L 298.456 1226.95 C 281.131 1191.31 259.571 1153.93 240.618 1119.02 C 228.851 1097.36 217.057 1074.81 204.699 1053.59 C 235.178 996.567 266.981 940.986 297.069 883.186 z"/>
<path transform="translate(0,0)" fill="rgb(77,41,31)" d="M 1213.43 949.406 C 1234.43 950.184 1253.53 960.406 1262.04 980.423 C 1273.86 1008.24 1264.01 1041.06 1235.54 1053.76 C 1231.92 1055.38 1227.28 1055.32 1223.06 1056.96 L 1223.66 1058.56 C 1235.65 1068.82 1243.39 1066.58 1255.48 1058.25 L 1269.51 1068.39 C 1265.84 1072.47 1263.86 1073.83 1259.57 1077.12 C 1236.22 1091.72 1204.56 1079.86 1193.69 1055.19 C 1174.63 1047.33 1161.27 1032.17 1159.29 1011.04 C 1157.93 995.106 1163.08 979.3 1173.57 967.22 C 1185.44 953.593 1196.54 950.8 1213.43 949.406 z"/>
<path transform="translate(0,0)" fill="rgb(255,255,255)" d="M 1208.56 971.217 C 1250.24 969.635 1253.68 1026.85 1218.4 1037.09 C 1188.25 1037.68 1176.28 1012.97 1188.46 985.812 C 1192 977.925 1200.41 973.505 1208.56 971.217 z"/>
<path transform="translate(0,0)" fill="rgb(77,41,31)" d="M 699.87 950.505 C 726.505 950.334 769.777 949.219 758.087 995.037 C 755.887 1003.66 748.145 1008.76 740.186 1012.13 L 771.556 1057.9 C 762.346 1057.67 752.102 1059.29 743.333 1057.25 C 740.726 1056.64 740.365 1054.39 738.954 1051.61 C 730.671 1037.59 722.289 1023.64 713.809 1009.74 C 713.127 1024.72 713.772 1042.55 713.969 1057.75 L 689.858 1057.71 L 689.844 950.998 L 699.87 950.505 z"/>
<path transform="translate(0,0)" fill="rgb(255,255,255)" d="M 713.943 971.15 C 730.111 971.295 744.498 978.066 731.852 995.51 C 725.001 999.797 721.933 999.169 713.848 999.258 C 713.757 989.889 713.789 980.519 713.943 971.15 z"/>
<path transform="translate(0,0)" fill="rgb(77,41,31)" d="M 1058.03 947.114 C 1059.36 947.506 1061.01 947.985 1062.04 948.97 C 1081.25 967.328 1100.34 990.415 1121.08 1006.95 L 1120.64 950.981 L 1144.96 950.909 L 1144.04 1059.76 C 1142.09 1060.87 1142.88 1060.53 1140.53 1060.77 C 1134.21 1054.58 1128.49 1047.68 1122.19 1041.38 C 1108.84 1028.07 1095.36 1014.88 1081.88 1001.7 L 1082.07 1057.8 L 1057.7 1057.86 L 1058.03 947.114 z"/>
<path transform="translate(0,0)" fill="rgb(77,41,31)" d="M 933.367 950.44 L 957.366 950.392 C 957.262 986.13 957.448 1021.87 957.923 1057.6 C 949.909 1057.75 941.485 1057.62 933.433 1057.62 C 933.079 1042.69 933.332 1026.69 933.294 1011.67 C 922.683 1011.09 910.732 1011.31 900.014 1011.27 L 899.935 1052.25 L 899.766 1056.02 C 895.883 1059.69 882.118 1058.15 875.961 1058.05 L 875.609 950.922 L 900.091 950.93 L 900.096 990.827 L 933.298 990.915 C 933.219 977.423 933.242 963.932 933.367 950.44 z"/>
<path transform="translate(0,0)" fill="rgb(221,173,105)" d="M 1722.5 1005.2 C 1721.49 992.065 1729.01 968.026 1742.36 963.471 L 1744.7 965.165 C 1751.76 984.349 1753.18 1003.21 1736.01 1017.92 C 1734.25 1017.34 1732.55 1016.85 1730.71 1016.58 C 1728.78 1020.48 1726.88 1029.95 1726.52 1034.3 C 1729.18 1036.78 1727.67 1036.25 1730.81 1036.84 L 1728.49 1037.93 C 1725.44 1042.84 1716.83 1060.1 1717.91 1065.37 L 1719.19 1065.7 C 1727.3 1058.75 1753.35 1043.05 1763.17 1052.24 C 1768.84 1066.95 1740.3 1085.66 1723.65 1077.61 C 1720.58 1076.01 1716.92 1074.22 1713.98 1072.53 C 1710.06 1081.4 1706.16 1092.32 1702.31 1100.58 C 1706.42 1098 1712.02 1093.74 1716.07 1091.62 C 1723.08 1087.96 1745.21 1083.85 1750.95 1090.26 C 1751.07 1094.2 1750.52 1093.64 1748.12 1097.7 C 1737.22 1111.39 1727.17 1121.1 1709.05 1112.55 L 1707.14 1111.67 L 1699.78 1107.15 C 1694.34 1114.65 1684.62 1127.05 1682.96 1135.86 L 1682.19 1136.36 C 1680.52 1133.33 1679.91 1132.97 1680.26 1129.56 L 1681.09 1129.48 C 1685.32 1120.14 1690.01 1112.87 1695.03 1104.01 C 1697.22 1102.3 1697.99 1103.36 1699.14 1101.17 L 1696.53 1099.84 C 1699.02 1096.78 1709.63 1074.65 1708.77 1071.05 C 1687.55 1074.98 1672.68 1035.07 1683.68 1025.08 C 1697.15 1023.02 1710.35 1051.85 1714.23 1062.16 C 1716.12 1055.48 1722.44 1041.29 1722.78 1036.16 L 1720.89 1036.86 L 1714.82 1035.36 C 1700.04 1029.82 1695.96 1022.59 1694.69 1007.36 C 1694.78 1003.36 1694.32 999.502 1696.64 996.413 C 1705.38 992.554 1714.12 1003.68 1718.71 1010.18 C 1721.86 1008.33 1722.14 1008.45 1722.5 1005.2 z"/>
<path transform="translate(0,0)" fill="rgb(221,173,105)" d="M 1694.69 1007.36 C 1694.78 1003.36 1694.32 999.502 1696.64 996.413 C 1705.38 992.554 1714.12 1003.68 1718.71 1010.18 C 1721.86 1008.33 1722.14 1008.45 1722.5 1005.2 L 1726.16 1016.29 C 1727.47 1027.96 1720.65 1030.15 1722.78 1036.16 L 1720.89 1036.86 L 1714.82 1035.36 C 1700.04 1029.82 1695.96 1022.59 1694.69 1007.36 z"/>
<path transform="translate(0,0)" fill="rgb(218,168,79)" d="M 1694.69 1007.36 L 1698.76 1008 C 1700.1 1008.53 1700.75 1009.01 1702.02 1008.99 C 1706.67 1016.17 1710.83 1023.6 1715.46 1030.66 C 1713.98 1031.14 1714.4 1031.11 1713.85 1031.08 L 1712.46 1032.55 L 1714.82 1035.36 C 1700.04 1029.82 1695.96 1022.59 1694.69 1007.36 z"/>
<path transform="translate(0,0)" fill="rgb(243,223,176)" d="M 1713.85 1031.08 C 1708.05 1024.48 1702.05 1023.23 1701.52 1014.26 L 1702.53 1016.38 L 1702.91 1015.33 C 1702.36 1012.74 1702.24 1011.63 1702.02 1008.99 C 1706.67 1016.17 1710.83 1023.6 1715.46 1030.66 C 1713.98 1031.14 1714.4 1031.11 1713.85 1031.08 z"/>
<path transform="translate(0,0)" fill="rgb(219,164,67)" d="M 1699.74 1005.84 L 1700.34 1002.8 C 1704.57 1003.46 1711.92 1011.91 1714.31 1015.58 C 1720.53 1025.16 1722.64 1025.7 1720.89 1036.86 L 1714.82 1035.36 L 1712.46 1032.55 L 1713.85 1031.08 C 1714.4 1031.11 1713.98 1031.14 1715.46 1030.66 C 1710.83 1023.6 1706.67 1016.17 1702.02 1008.99 C 1700.75 1009.01 1700.1 1008.53 1698.76 1008 L 1699.74 1005.84 z"/>
<path transform="translate(0,0)" fill="rgb(249,240,208)" d="M 1699.74 1005.84 C 1699.13 1005.17 1698.52 1004.51 1697.9 1003.84 C 1698.6 1000.92 1697.91 1001.21 1699.53 1000.03 C 1715.31 1004.2 1717.2 1021.44 1722.85 1025.34 C 1724.31 1020.98 1719.16 1013.23 1718.71 1010.18 C 1721.86 1008.33 1722.14 1008.45 1722.5 1005.2 L 1726.16 1016.29 C 1727.47 1027.96 1720.65 1030.15 1722.78 1036.16 L 1720.89 1036.86 C 1722.64 1025.7 1720.53 1025.16 1714.31 1015.58 C 1711.92 1011.91 1704.57 1003.46 1700.34 1002.8 L 1699.74 1005.84 z"/>
<path transform="translate(0,0)" fill="rgb(218,168,79)" d="M 1719.19 1065.7 C 1727.3 1058.75 1753.35 1043.05 1763.17 1052.24 C 1768.84 1066.95 1740.3 1085.66 1723.65 1077.61 C 1725.79 1076.29 1725.6 1076.61 1728.19 1075.98 C 1729.98 1074.68 1731.93 1073.85 1733.93 1072.85 C 1729.4 1072.5 1729.53 1071.52 1727.94 1067.79 C 1724.09 1069.58 1723.68 1070.65 1720.46 1069.89 L 1718.82 1067.8 L 1719.19 1065.7 z"/>
<path transform="translate(0,0)" fill="rgb(249,240,208)" d="M 1720.46 1069.89 C 1736.89 1058.29 1740.72 1056.37 1760.84 1055.79 C 1750.91 1065.65 1742.78 1074.2 1728.19 1075.98 C 1729.98 1074.68 1731.93 1073.85 1733.93 1072.85 C 1729.4 1072.5 1729.53 1071.52 1727.94 1067.79 C 1724.09 1069.58 1723.68 1070.65 1720.46 1069.89 z"/>
<path transform="translate(0,0)" fill="rgb(219,164,67)" d="M 1727.94 1067.79 C 1733.89 1063.46 1741.48 1058.36 1749.2 1060.57 L 1749.86 1062.2 C 1747.32 1067.14 1739.08 1070.53 1733.93 1072.85 C 1729.4 1072.5 1729.53 1071.52 1727.94 1067.79 z"/>
<path transform="translate(0,0)" fill="rgb(219,164,67)" d="M 1722.5 1005.2 C 1721.49 992.065 1729.01 968.026 1742.36 963.471 L 1744.7 965.165 C 1743.38 967.771 1743.29 968.63 1741.24 970.571 C 1743.74 976.036 1745 981.666 1746.54 987.475 C 1743.82 997.375 1742.52 1001.1 1736.97 1010.03 L 1736.71 1009.27 C 1735.12 1010.54 1734.56 1010.85 1732.78 1011.86 L 1731.26 1010.75 C 1730.82 1007 1730.87 1004.25 1730.87 1000.46 C 1730.14 1004.9 1729.58 1008.5 1729.18 1013.02 C 1728.34 1013.94 1727.03 1015.49 1726.16 1016.29 L 1722.5 1005.2 z"/>
<path transform="translate(0,0)" fill="rgb(218,168,79)" d="M 1722.5 1005.2 C 1721.49 992.065 1729.01 968.026 1742.36 963.471 L 1744.7 965.165 C 1743.38 967.771 1743.29 968.63 1741.24 970.571 C 1727.94 981.954 1726 996.581 1729.18 1013.02 C 1728.34 1013.94 1727.03 1015.49 1726.16 1016.29 L 1722.5 1005.2 z"/>
<path transform="translate(0,0)" fill="rgb(249,240,208)" d="M 1741.24 970.571 C 1743.74 976.036 1745 981.666 1746.54 987.475 C 1743.82 997.375 1742.52 1001.1 1736.97 1010.03 L 1736.71 1009.27 C 1737.91 1002.36 1741.68 996.766 1742.23 989.056 C 1742.72 982.238 1741.37 977.838 1739.97 971.228 C 1735.07 980.735 1731.4 989.703 1730.87 1000.46 C 1730.14 1004.9 1729.58 1008.5 1729.18 1013.02 C 1726 996.581 1727.94 981.954 1741.24 970.571 z"/>
<path transform="translate(0,0)" fill="rgb(249,240,208)" d="M 1709.27 1107.28 L 1706.74 1104.97 C 1709.62 1095.51 1734.88 1090.6 1744 1092.57 L 1744.3 1094.07 L 1748.12 1097.7 C 1737.22 1111.39 1727.17 1121.1 1709.05 1112.55 L 1707.14 1111.67 C 1707.57 1108.91 1707.45 1109.84 1709.27 1107.28 z"/>
<path transform="translate(0,0)" fill="rgb(219,164,67)" d="M 1744.3 1094.07 L 1748.12 1097.7 C 1737.22 1111.39 1727.17 1121.1 1709.05 1112.55 L 1707.14 1111.67 C 1707.57 1108.91 1707.45 1109.84 1709.27 1107.28 C 1723.6 1113.88 1734.73 1103.76 1744.3 1094.07 z"/>
<path transform="translate(0,0)" fill="rgb(219,164,67)" d="M 1737.59 1094.42 L 1739.1 1094.32 L 1739.73 1095.19 C 1731.69 1104.34 1725.09 1105.33 1713.84 1107.93 L 1711.14 1105.29 L 1711.43 1103.15 C 1717.12 1096.79 1729.36 1095.43 1737.59 1094.42 z"/>
<path transform="translate(0,0)" fill="rgb(218,168,79)" d="M 1708.77 1071.05 C 1687.55 1074.98 1672.68 1035.07 1683.68 1025.08 C 1697.15 1023.02 1710.35 1051.85 1714.23 1062.16 C 1714.4 1065.08 1714.91 1067.16 1713.47 1069.63 C 1711.57 1068.67 1712.12 1069.38 1711.49 1067.56 C 1707.19 1055.2 1697.02 1037.64 1687.44 1028.76 L 1685.54 1028.58 C 1683.4 1032.48 1685.65 1041.04 1686.87 1045.26 C 1689.87 1055.55 1696.79 1063.15 1706.29 1068.03 C 1706.97 1068.38 1707.66 1068.71 1708.35 1069.04 L 1708.77 1071.05 z"/>
<path transform="translate(0,0)" fill="rgb(219,164,67)" d="M 1688.25 1034.74 C 1693.82 1038.75 1705.19 1054.36 1704.1 1062.15 L 1702.75 1062.33 C 1692.72 1056.18 1688.23 1046.55 1688.25 1034.74 z"/>
<path transform="translate(0,0)" fill="rgb(77,41,31)" d="M 1281.76 951.04 L 1305.96 951.081 L 1305.79 994.063 C 1305.71 1007.65 1302.45 1034.48 1321.4 1037.29 C 1335.03 1039.44 1342.82 1027.7 1343.06 1015.29 C 1343.46 993.976 1343.14 972.429 1343.03 951.102 L 1366.99 951.111 L 1366.94 972.5 C 1367.04 990.258 1367.97 1008.51 1365.55 1026.06 C 1361.01 1059.05 1315.29 1069.29 1293.3 1047.96 C 1289.45 1044.2 1286.6 1039.53 1285.02 1034.38 C 1280.31 1019.33 1281.81 969.538 1281.76 951.04 z"/>
<path transform="translate(0,0)" fill="rgb(77,41,31)" d="M 548.99 948.483 C 555.161 955.457 593.623 1045.36 599.091 1057.94 L 573.868 1057.88 C 571.484 1051.46 568.699 1045.79 565.768 1039.61 L 548.5 1039.67 L 530.48 1039.72 L 522.648 1058 L 497.395 1057.99 C 515.912 1022.79 530.063 984.132 548.99 948.483 z"/>
<path transform="translate(0,0)" fill="rgb(255,255,255)" d="M 548.216 991.641 C 549.401 993.665 558.525 1018.45 560.034 1022.26 L 547.929 1022.58 L 535.909 1022.53 C 540.337 1012.37 544.442 1002.07 548.216 991.641 z"/>
<path transform="translate(0,0)" fill="rgb(77,41,31)" d="M 821.291 949.259 C 822.338 949.187 823.385 949.126 824.433 949.077 C 840.3 948.362 851.289 952.659 862.827 963.193 C 859.426 970.07 854.979 975.333 849.866 980.927 C 811.088 952.155 784.79 997.536 807.785 1028.07 C 819.58 1043.73 837.26 1037.92 849.529 1027.01 L 854.184 1032.54 C 857.917 1037.65 860.688 1040.19 865.207 1044.61 C 856.606 1051.19 848.647 1057.1 837.59 1059.11 C 785.511 1068.61 757.085 1011.21 784.009 970.649 C 792.826 957.368 806.199 951.819 821.291 949.259 z"/>
<path transform="translate(0,0)" fill="rgb(77,41,31)" d="M 611.163 950.662 C 631.525 950.483 651.888 950.486 672.249 950.67 L 672.221 971.274 L 634.968 971.242 L 634.981 992.898 L 667.071 992.902 L 667.039 1013.19 L 634.957 1013.21 L 634.933 1026.66 C 634.942 1029.86 634.4 1034.17 636.218 1036.47 C 643.95 1037.48 664.011 1036.84 672.719 1036.74 L 672.736 1057.51 C 652.12 1057.7 631.504 1057.78 610.887 1057.75 L 611.163 950.662 z"/>
<path transform="translate(0,0)" fill="rgb(77,41,31)" d="M 978.979 950.376 C 998.719 950.344 1018.46 950.47 1038.2 950.756 C 1038.37 957.784 1038.26 965.174 1038.27 972.236 L 1001.95 972.199 L 1001.96 994.064 C 1012.76 994.047 1023.55 993.953 1034.35 993.781 C 1034.3 1000.39 1034.65 1006.85 1034.95 1013.45 L 1002.48 1013.39 L 1002.34 1030.25 C 1002.32 1034.04 1001.75 1033.59 1003.42 1036.32 C 1010.28 1037.38 1032.85 1036.63 1041.2 1036.53 L 1041.16 1058.02 L 979.116 1058.01 C 979.349 1022.17 978.57 986.229 978.979 950.376 z"/>
<path transform="translate(0,0)" fill="rgb(77,41,31)" d="M 1387.81 950.948 L 1446.89 950.966 L 1446.81 971.133 L 1411.02 971.17 L 1410.98 993.259 C 1420.27 993.025 1432.41 994.102 1442.01 994.54 L 1442.04 1013.86 L 1411.34 1013.94 L 1411.22 1027.51 C 1411.17 1031.02 1410.74 1034.1 1412.63 1036.61 C 1419.77 1037.59 1440.02 1037.08 1448.35 1037.03 L 1448.32 1057.59 C 1428.94 1058.1 1407.47 1057.71 1387.94 1057.74 L 1387.81 950.948 z"/>
<path transform="translate(0,0)" fill="rgb(77,41,31)" d="M 428.423 926.406 L 453.972 926.375 L 453.998 1034.07 L 493.034 1033.94 L 493.023 1058.15 L 428.836 1058.12 C 428.471 1014.22 428.334 970.311 428.423 926.406 z"/>
<path transform="translate(0,0)" fill="rgb(77,41,31)" d="M 1541.44 951.386 L 1565.11 951.452 L 1565.35 1037.11 L 1603.18 1036.99 C 1603.25 1043.99 1603.49 1051.07 1602.8 1058.03 L 1541.39 1058.07 C 1541.7 1022.53 1540.98 986.854 1541.44 951.386 z"/>
<path transform="translate(0,0)" fill="rgb(77,41,31)" d="M 1465.54 951.122 L 1488.66 951.221 L 1488.72 1036.75 L 1526.83 1036.64 L 1526.76 1057.72 L 1465.85 1057.96 L 1465.54 951.122 z"/>
<path transform="translate(0,0)" fill="rgb(77,41,31)" d="M 899.126 1123.96 C 915.884 1120.4 932.366 1131.06 935.995 1147.8 C 939.623 1164.55 929.031 1181.07 912.303 1184.77 C 895.478 1188.49 878.835 1177.82 875.186 1160.98 C 871.536 1144.14 882.271 1127.54 899.126 1123.96 z"/>
<path transform="translate(0,0)" fill="rgb(255,255,255)" d="M 904.211 1135.63 C 910.963 1135.13 917.46 1138.3 921.219 1143.93 C 924.977 1149.56 925.416 1156.78 922.367 1162.82 C 919.318 1168.87 913.253 1172.8 906.491 1173.13 C 896.221 1173.62 887.464 1165.76 886.84 1155.5 C 886.216 1145.24 893.957 1136.38 904.211 1135.63 z"/>
<path transform="translate(0,0)" fill="rgb(77,41,31)" d="M 821.126 1124.06 C 837.899 1120.31 854.536 1130.88 858.251 1147.66 C 861.966 1164.45 851.347 1181.06 834.555 1184.73 C 817.825 1188.38 801.29 1177.81 797.589 1161.09 C 793.887 1144.37 804.415 1127.81 821.126 1124.06 z"/>
<path transform="translate(0,0)" fill="rgb(255,255,255)" d="M 823.133 1135.17 C 832.686 1134.43 839.703 1135.76 844.317 1145.34 C 846.798 1150.47 847.038 1156.41 844.98 1161.73 C 842.458 1168.19 838.694 1170.62 832.64 1173.11 C 829.289 1173.56 827.077 1173.84 823.731 1173.08 C 819.174 1172.07 815.208 1169.29 812.709 1165.35 C 805.219 1153.28 812.034 1141.56 823.133 1135.17 z"/>
<path transform="translate(0,0)" fill="rgb(77,41,31)" d="M 955.269 1124.44 C 969.361 1124.37 985.742 1122.35 997.181 1131.5 C 1002.7 1135.93 1006.2 1142.4 1006.87 1149.45 C 1007.95 1159.94 1004.06 1167.8 997.514 1175.52 C 985.075 1186.54 970.897 1184.41 955.001 1184.2 C 955.661 1164.44 955.389 1144.24 955.269 1124.44 z"/>
<path transform="translate(0,0)" fill="rgb(255,255,255)" d="M 968.285 1135.07 C 989.156 1135.7 1002.88 1148 988.791 1167.67 C 982.778 1171.46 976.402 1175.38 969.995 1171.2 C 966.314 1164.67 968.168 1144.26 968.285 1135.07 z"/>
<path transform="translate(0,0)" fill="rgb(221,173,105)" d="M 341.214 1136.93 C 342.894 1134.71 343.009 1134.92 345.657 1133.85 C 349.157 1140.2 353.053 1148.26 357.006 1154.03 L 591.675 1153.77 L 668.83 1153.78 C 680.478 1153.77 701.593 1153.12 712.673 1154.08 C 714.78 1156.45 714.364 1155.13 714.234 1158.07 C 709.57 1161.06 627.625 1159.72 614.286 1159.71 L 436.507 1160 C 414.2 1160.06 382.533 1159.14 361.028 1160.34 C 363.539 1163.89 366.42 1166.95 365.328 1171.31 L 363.051 1172.04 C 359.068 1169.34 345.022 1143.2 341.214 1136.93 z"/>
<path transform="translate(0,0)" fill="rgb(221,173,105)" d="M 305.279 1033.96 C 303.923 1029.03 304.544 1025.37 303.365 1020 L 302.464 1020.36 L 301.819 1025.34 C 290.657 1011.59 278.055 998.735 283.778 980.342 C 285.235 975.658 286.014 969.288 290.422 966.484 L 292.419 968.066 C 304.357 982.035 311.095 995.222 305.712 1014.07 C 303.732 1019.13 307.972 1029.62 309.289 1036.24 C 310.053 1039.58 309.972 1040.93 311.762 1043.71 L 312.123 1045.52 C 312.973 1054 320.238 1074.41 325.099 1081.21 C 326.071 1092.98 336.856 1118.09 343.443 1127.73 C 340.095 1129.63 341.478 1128.36 339.42 1131.95 L 338.584 1130.57 C 336.485 1124.21 330.483 1110.58 326.039 1105.68 L 325.979 1102.78 C 325.989 1099.93 325.255 1099.31 323.798 1096.81 C 323.436 1089.57 317.129 1073.91 314.457 1066.62 C 311.29 1069.93 310.365 1070.77 306.601 1073.37 C 291.228 1085.98 270.914 1072.46 264.828 1056.42 C 282.629 1046.7 297.101 1054.21 312.412 1063.51 C 310.659 1055.61 307.2 1046.24 306.306 1038.61 C 306.844 1036.07 306.579 1037.13 305.279 1033.96 z"/>
<path transform="translate(0,0)" fill="rgb(218,168,79)" d="M 264.828 1056.42 L 269.104 1057.62 C 274.012 1061.98 272.799 1062.84 278.826 1059.79 C 288.229 1060.64 298.732 1064.89 305.239 1065.37 C 296.968 1075.66 288.83 1070.85 279.771 1064.34 L 277.065 1064.27 L 276.616 1065.38 C 280.53 1069.82 285.749 1069.97 290.895 1073.41 C 294.12 1075.56 302.965 1071.5 306.601 1073.37 C 291.228 1085.98 270.914 1072.46 264.828 1056.42 z"/>
<path transform="translate(0,0)" fill="rgb(218,168,79)" d="M 292.419 968.066 C 304.357 982.035 311.095 995.222 305.712 1014.07 C 302.979 1011.21 303.524 1013.75 301.384 1009.51 L 302.378 1007.24 C 300.227 998.525 297.583 991.603 295.628 982.257 L 292.45 980.09 L 291.845 973.634 L 289.868 970.333 L 292.419 968.066 z"/>
<path transform="translate(0,0)" fill="rgb(249,240,208)" d="M 295.628 982.257 C 301.508 985.991 303.466 1000.65 302.378 1007.24 C 300.227 998.525 297.583 991.603 295.628 982.257 z"/>
<path transform="translate(0,0)" fill="rgb(219,164,67)" d="M 292.45 980.09 L 295.628 982.257 C 297.583 991.603 300.227 998.525 302.378 1007.24 L 301.384 1009.51 L 299.474 1012.69 C 292.492 998.769 290.527 996.128 292.45 980.09 z"/>
<path transform="translate(0,0)" fill="rgb(249,240,208)" d="M 299.474 1012.69 L 298.48 1013.09 C 289.642 1007.18 285.645 982.281 291.845 973.634 L 292.45 980.09 C 290.527 996.128 292.492 998.769 299.474 1012.69 z"/>
<path transform="translate(0,0)" fill="rgb(249,240,208)" d="M 269.104 1057.62 C 280.11 1056.39 297.037 1057.92 305.92 1065.21 L 305.239 1065.37 C 298.732 1064.89 288.229 1060.64 278.826 1059.79 C 272.799 1062.84 274.012 1061.98 269.104 1057.62 z"/>
<path transform="translate(0,0)" fill="rgb(221,173,105)" d="M 1675.38 1139.03 C 1678.79 1140.52 1678.79 1140.34 1682.35 1140.21 L 1682.64 1140.64 C 1673.34 1141.03 1663.95 1160.15 1650.74 1162.41 C 1640.69 1163.94 1615.92 1164.91 1606.5 1163.77 C 1569.91 1159.31 1360.64 1170.07 1344.1 1161.64 L 1344.05 1160.09 C 1350.38 1154.7 1366.31 1156.96 1374.89 1156.98 L 1427.31 1156.93 C 1485.26 1157.22 1543.22 1157.07 1601.17 1156.47 C 1613.35 1156.38 1626.36 1156.74 1638.53 1156.98 C 1655.83 1157.33 1663.31 1149.34 1675.38 1139.03 z"/>
<path transform="translate(0,0)" fill="rgb(77,41,31)" d="M 1204.65 1123.15 C 1219.57 1121.55 1227.39 1123.25 1237.11 1134.85 L 1227.29 1142.48 C 1209.56 1118.1 1172.26 1155.36 1204.47 1172.21 C 1210.47 1175.34 1224.9 1174.21 1227.49 1167.17 L 1226.48 1165.53 C 1220.92 1162.58 1216.06 1163.76 1209.62 1164.2 C 1209.33 1160.45 1209.34 1156.19 1209.25 1152.4 C 1212.89 1151.81 1234.92 1151.22 1240.64 1150.74 C 1240.58 1156.62 1241.06 1165.93 1238.48 1171 C 1220.91 1205.52 1164.41 1174.43 1181.27 1139.75 C 1185.73 1130.58 1195.28 1126.12 1204.65 1123.15 z"/>
<path transform="translate(0,0)" fill="rgb(243,223,176)" d="M 1650.01 1086.4 C 1668.26 1097.6 1679.42 1106.46 1680.26 1129.56 C 1679.91 1132.97 1680.52 1133.33 1682.19 1136.36 L 1682.96 1135.86 L 1683.71 1135.79 C 1698.85 1119.02 1716.54 1119.53 1736.74 1123.29 C 1728.55 1145.39 1702.92 1156.96 1682.64 1140.64 L 1682.35 1140.21 C 1678.79 1140.34 1678.79 1140.52 1675.38 1139.03 C 1662.98 1132.13 1653.36 1124 1650.89 1109.29 C 1649.59 1102.93 1649.98 1093.18 1650.01 1086.4 z"/>
<path transform="translate(0,0)" fill="rgb(249,240,208)" d="M 1683.71 1135.79 C 1698.85 1119.02 1716.54 1119.53 1736.74 1123.29 C 1732.02 1124.2 1733.54 1123.3 1730.04 1126.28 C 1718.45 1138.55 1708.48 1145.32 1690.72 1142.24 C 1684.86 1140.99 1685.42 1140.73 1683.71 1135.79 z"/>
<path transform="translate(0,0)" fill="rgb(221,173,105)" d="M 1683.71 1135.79 C 1698.85 1119.02 1716.54 1119.53 1736.74 1123.29 C 1732.02 1124.2 1733.54 1123.3 1730.04 1126.28 C 1721.19 1125.1 1691.39 1127.99 1689.1 1137.98 L 1689.08 1139.33 L 1689.41 1139.52 L 1690.72 1142.24 C 1684.86 1140.99 1685.42 1140.73 1683.71 1135.79 z"/>
<path transform="translate(0,0)" fill="rgb(219,164,67)" d="M 1689.1 1137.98 C 1703.12 1132.55 1709.09 1129.71 1724.15 1128.36 C 1711.43 1141.31 1707.32 1141.51 1689.41 1139.52 L 1689.08 1139.33 L 1689.1 1137.98 z"/>
<path transform="translate(0,0)" fill="rgb(218,168,79)" d="M 1650.01 1086.4 C 1668.26 1097.6 1679.42 1106.46 1680.26 1129.56 C 1679.91 1132.97 1680.52 1133.33 1682.19 1136.36 L 1682.96 1135.86 L 1683.71 1135.79 C 1685.42 1140.73 1684.86 1140.99 1690.72 1142.24 C 1708.48 1145.32 1718.45 1138.55 1730.04 1126.28 C 1733.54 1123.3 1732.02 1124.2 1736.74 1123.29 C 1728.55 1145.39 1702.92 1156.96 1682.64 1140.64 L 1682.35 1140.21 L 1682.46 1137.82 L 1677.9 1136.56 C 1676.62 1132.97 1676.16 1128.41 1675.51 1124.59 C 1674.13 1116.51 1662.75 1094.63 1653.84 1095.9 C 1650.5 1100.55 1651.45 1102.76 1650.89 1109.29 C 1649.59 1102.93 1649.98 1093.18 1650.01 1086.4 z"/>
<path transform="translate(0,0)" fill="rgb(219,164,67)" d="M 1653.84 1095.9 C 1656.43 1111.2 1661.5 1130.39 1677.9 1136.56 L 1682.46 1137.82 L 1682.35 1140.21 C 1678.79 1140.34 1678.79 1140.52 1675.38 1139.03 C 1662.98 1132.13 1653.36 1124 1650.89 1109.29 C 1651.45 1102.76 1650.5 1100.55 1653.84 1095.9 z"/>
<path transform="translate(0,0)" fill="rgb(219,164,67)" d="M 1657.24 1099.76 C 1668.02 1107.43 1672.23 1120.81 1676.01 1132.62 C 1662.57 1125.53 1659.64 1113.55 1657.24 1099.76 z"/>
<path transform="translate(0,0)" fill="rgb(218,168,79)" d="M 343.868 1123.74 C 336.39 1106.86 355.098 1085.97 368.227 1077.27 C 369.041 1082.91 369.782 1088.55 370.448 1094.21 C 375.184 1116.76 347.667 1127.12 345.345 1132.75 L 345.657 1133.85 C 343.009 1134.92 342.894 1134.71 341.214 1136.93 C 337.535 1137.53 323.537 1145.43 314.02 1144.61 C 302.336 1143.59 295.536 1137.07 287.998 1129.09 L 286.399 1126.36 C 288.172 1123.18 289.12 1123.75 293.535 1121.97 C 310.031 1117.56 324.939 1119.8 338.584 1130.57 L 339.42 1131.95 C 341.478 1128.36 340.095 1129.63 343.443 1127.73 L 343.868 1123.74 z"/>
<path transform="translate(0,0)" fill="rgb(219,164,67)" d="M 343.868 1123.74 C 336.39 1106.86 355.098 1085.97 368.227 1077.27 C 369.041 1082.91 369.782 1088.55 370.448 1094.21 C 369.987 1095.34 370.348 1094.7 369.087 1095.96 L 366.782 1092.87 L 364.473 1092.81 L 365.1 1099.25 C 360.639 1106.4 355.038 1116.48 348.474 1121.47 L 347.692 1123.91 L 343.868 1123.74 z"/>
<path transform="translate(0,0)" fill="rgb(249,240,208)" d="M 347.667 1120 C 347.002 1111.17 356.131 1089.28 364.997 1086.63 C 366.857 1088.82 366.333 1089.45 366.782 1092.87 L 364.473 1092.81 L 362.445 1092.77 C 354.278 1101.17 351.33 1109.15 347.667 1120 z"/>
<path transform="translate(0,0)" fill="rgb(219,164,67)" d="M 298.27 1128.44 C 306.907 1127.77 312.135 1127.45 320.766 1129.82 C 324.059 1132.49 323.895 1131.49 324.554 1134.74 C 321.992 1137.14 319.171 1136.93 315.507 1137.28 C 310.001 1135.11 306.307 1133.35 300.403 1132.5 L 298.27 1128.44 z"/>
<path transform="translate(0,0)" fill="rgb(249,240,208)" d="M 296.805 1125.49 C 314.311 1124.16 321.957 1125.5 337.036 1134.96 L 320.766 1129.82 C 312.135 1127.45 306.907 1127.77 298.27 1128.44 C 296.37 1128.69 294.095 1127.86 292.072 1127.36 C 293.579 1126.08 294.672 1126.1 296.805 1125.49 z"/>
<path transform="translate(0,0)" fill="rgb(243,223,176)" d="M 365.1 1099.25 C 367.535 1104.96 353.739 1120.14 349.27 1123.98 L 347.692 1123.91 L 348.474 1121.47 C 355.038 1116.48 360.639 1106.4 365.1 1099.25 z"/>
<path transform="translate(0,0)" fill="rgb(249,240,208)" d="M 300.403 1132.5 C 306.307 1133.35 310.001 1135.11 315.507 1137.28 L 321.115 1138.54 L 320.593 1139.09 C 313.848 1139.08 305.172 1137.69 300.403 1132.5 z"/>
<path transform="translate(0,0)" fill="rgb(221,173,105)" d="M 287.998 1129.09 L 286.399 1126.36 C 288.172 1123.18 289.12 1123.75 293.535 1121.97 C 294.938 1123.32 295.778 1123.89 296.805 1125.49 C 294.672 1126.1 293.579 1126.08 292.072 1127.36 L 287.998 1129.09 z"/>
<path transform="translate(0,0)" fill="rgb(77,41,31)" d="M 1137.27 1121.65 C 1142.09 1127.04 1166.74 1175.68 1170.33 1184.01 L 1156.56 1183.99 L 1151.25 1172.7 L 1141.09 1172.67 L 1124.63 1172.79 L 1119.53 1184.36 L 1105.72 1184.05 C 1110.97 1172.71 1117.45 1161.43 1123.12 1150.2 C 1127.92 1140.67 1132.23 1131.03 1137.27 1121.65 z"/>
<path transform="translate(0,0)" fill="rgb(255,255,255)" d="M 1137.5 1146.51 C 1140.83 1149.19 1145.79 1157.44 1143.93 1161.92 L 1140.25 1162.45 C 1136.08 1162.64 1133.11 1163.67 1130.78 1160.04 C 1130.95 1156.11 1135.25 1150.2 1137.5 1146.51 z"/>
<path transform="translate(0,0)" fill="rgb(77,41,31)" d="M 1035.24 1123.07 C 1042.31 1122.68 1053.87 1123.65 1056.35 1131.44 C 1055.7 1134.98 1054.91 1135.53 1052.66 1138.28 C 1046.86 1139.19 1044.76 1131.35 1035.53 1134.36 C 1032.9 1137.11 1033.62 1135.52 1033.3 1139.3 C 1036.21 1145.78 1049.03 1151.27 1055.85 1154.93 C 1057.62 1158.05 1059.47 1162.65 1060.95 1166.03 C 1057.73 1179.23 1054.86 1181.84 1041.98 1185.32 C 1030.98 1184.78 1026.67 1182.07 1018.09 1176.18 L 1025.6 1166.06 C 1031.54 1172.68 1039.29 1178.29 1047.67 1171.04 C 1049.8 1161.73 1026.69 1156.09 1021.75 1145.45 C 1016.24 1133.56 1024.08 1127.56 1035.24 1123.07 z"/>
<path transform="translate(0,0)" fill="rgb(77,41,31)" d="M 746.912 1124.61 C 754.367 1124.72 775.086 1123.36 780.438 1125.8 C 781.477 1129.9 781.336 1131.95 778.645 1135.11 C 773.808 1137.15 765.074 1136.1 759.289 1135.95 L 759.415 1149.77 C 765.33 1149.72 773.607 1148.72 778.44 1150.73 C 780.536 1153.95 779.704 1154.31 779.591 1159.05 C 773.263 1159.24 766.235 1159.09 759.846 1159.1 L 759.903 1184.18 L 746.965 1184.18 L 746.912 1124.61 z"/>
<path transform="translate(0,0)" fill="rgb(249,240,208)" d="M 352.184 1033.66 C 354.127 1045.71 355.844 1051.77 353.638 1063.68 C 349.674 1072.79 340.085 1087.47 328.332 1085.12 C 326.545 1083.26 326.638 1083.4 325.694 1080.99 L 325.099 1081.21 C 320.45 1056.54 335.432 1047.68 352.184 1033.66 z"/>
<path transform="translate(0,0)" fill="rgb(218,168,79)" d="M 352.184 1033.66 C 354.127 1045.71 355.844 1051.77 353.638 1063.68 L 351.034 1062.09 C 350.812 1059.19 350.964 1059.33 349.341 1056.96 C 350.45 1053.68 350.714 1055.01 349.777 1052.52 L 347.25 1048.04 L 349.569 1044.48 L 348.805 1043.11 C 340.251 1045.37 330.957 1062.52 327.999 1070.35 C 328.651 1072.93 329.738 1076.76 330.101 1079.27 C 326.964 1079.83 327.898 1079.2 325.694 1080.99 L 325.099 1081.21 C 320.45 1056.54 335.432 1047.68 352.184 1033.66 z"/>
<path transform="translate(0,0)" fill="rgb(219,164,67)" d="M 349.341 1056.96 C 350.964 1059.33 350.812 1059.19 351.034 1062.09 L 353.638 1063.68 C 349.674 1072.79 340.085 1087.47 328.332 1085.12 C 326.545 1083.26 326.638 1083.4 325.694 1080.99 C 327.898 1079.2 326.964 1079.83 330.101 1079.27 C 341.683 1078.61 346.439 1065.76 349.341 1056.96 z"/>
<path transform="translate(0,0)" fill="rgb(219,164,67)" d="M 349.777 1052.52 C 344.26 1058.55 340.708 1074.42 332.558 1075 C 328.739 1067.95 340.919 1051.39 347.25 1048.04 L 349.777 1052.52 z"/>
<path transform="translate(0,0)" fill="rgb(218,168,79)" d="M 1662.12 1054.52 C 1668.92 1054.98 1677.85 1060.71 1682.24 1065.75 C 1688.22 1072.6 1692.31 1080.9 1694.07 1089.82 C 1694.67 1092.88 1695.07 1097.33 1696.53 1099.84 L 1699.14 1101.17 C 1697.99 1103.36 1697.22 1102.3 1695.03 1104.01 L 1688.74 1101.86 C 1664.56 1095.21 1662.22 1076.7 1662.12 1054.52 z"/>
<path transform="translate(0,0)" fill="rgb(219,164,67)" d="M 1662.12 1054.52 C 1668.92 1054.98 1677.85 1060.71 1682.24 1065.75 C 1688.22 1072.6 1692.31 1080.9 1694.07 1089.82 C 1694.67 1092.88 1695.07 1097.33 1696.53 1099.84 L 1699.14 1101.17 C 1697.99 1103.36 1697.22 1102.3 1695.03 1104.01 L 1688.74 1101.86 C 1689.19 1099.89 1689.3 1098.32 1689.53 1096.33 C 1687.64 1094.08 1685.89 1091.81 1685.96 1088.81 C 1686.29 1075.75 1665.52 1068.49 1664.17 1058.59 L 1662.12 1054.52 z"/>
<path transform="translate(0,0)" fill="rgb(249,240,208)" d="M 1664.17 1058.59 C 1676.84 1068.03 1689.27 1078.94 1689.53 1096.33 C 1687.64 1094.08 1685.89 1091.81 1685.96 1088.81 C 1686.29 1075.75 1665.52 1068.49 1664.17 1058.59 z"/>
<path transform="translate(0,0)" fill="rgb(218,168,79)" d="M 310.767 1037.42 C 311.072 1013.29 321.34 1006.54 339.936 993.699 C 341.032 1007.69 342.823 1022.13 333.23 1034.01 C 329.125 1039.09 318.587 1044.81 312.123 1045.52 L 311.762 1043.71 C 309.972 1040.93 310.053 1039.58 309.289 1036.24 L 310.767 1037.42 z"/>
<path transform="translate(0,0)" fill="rgb(249,240,208)" d="M 310.767 1037.42 C 311.717 1038.8 311.087 1038.09 312.831 1039.37 C 317.311 1035.65 325.056 999.756 336.159 1004.09 C 337.962 1010.93 331.937 1031.57 324.258 1034.26 C 321.395 1034.5 321.795 1035.74 318.35 1034.89 C 316.664 1039.39 315.3 1040.2 311.762 1043.71 C 309.972 1040.93 310.053 1039.58 309.289 1036.24 L 310.767 1037.42 z"/>
<path transform="translate(0,0)" fill="rgb(219,164,67)" d="M 318.35 1034.89 C 322.08 1021.64 324.846 1015.84 334.951 1005.9 C 332.711 1017.96 331.133 1023.64 324.258 1034.26 C 321.395 1034.5 321.795 1035.74 318.35 1034.89 z"/>
<path transform="translate(0,0)" fill="rgb(219,164,67)" d="M 1729.03 1032.58 C 1744.87 1015.97 1746.37 1012.67 1770.04 1013.97 L 1774.64 1015.42 C 1779 1024.86 1755.81 1050.77 1734.22 1040.89 C 1733.08 1040.37 1731.95 1039.83 1730.82 1039.28 L 1728.49 1037.93 L 1730.81 1036.84 C 1727.67 1036.25 1729.18 1036.78 1726.52 1034.3 L 1729.03 1032.58 z"/>
<path transform="translate(0,0)" fill="rgb(219,164,67)" d="M 1770.04 1013.97 L 1774.64 1015.42 C 1779 1024.86 1755.81 1050.77 1734.22 1040.89 C 1733.08 1040.37 1731.95 1039.83 1730.82 1039.28 C 1733.71 1037.69 1740.13 1038.69 1743.93 1037.89 C 1750.55 1036.49 1772.95 1027.39 1768.16 1018.77 C 1768.33 1015.28 1767.79 1016.85 1770.04 1013.97 z"/>
<path transform="translate(0,0)" fill="rgb(221,173,105)" d="M 1729.03 1032.58 C 1744.87 1015.97 1746.37 1012.67 1770.04 1013.97 C 1767.79 1016.85 1768.33 1015.28 1768.16 1018.77 C 1756.81 1016.47 1742.6 1021.92 1735.55 1031.03 L 1735.41 1032.31 C 1732.4 1033.74 1733.01 1033.19 1729.03 1032.58 z"/>
<path transform="translate(0,0)" fill="rgb(249,240,208)" d="M 1735.41 1032.31 L 1735.55 1031.03 C 1742.6 1021.92 1756.81 1016.47 1768.16 1018.77 C 1772.95 1027.39 1750.55 1036.49 1743.93 1037.89 C 1740.13 1038.69 1733.71 1037.69 1730.82 1039.28 L 1728.49 1037.93 L 1730.81 1036.84 C 1734.44 1036.25 1738.08 1036.19 1741.73 1035.87 C 1747.51 1035.37 1764.5 1029.26 1763.77 1022.17 C 1756.64 1018.2 1741.76 1028.37 1735.41 1032.31 z"/>
<path transform="translate(0,0)" fill="rgb(218,168,79)" d="M 257.016 1015.17 C 268.975 1014.99 274.099 1015.04 285.542 1018.22 C 294.91 1022.84 298.386 1026.35 305.279 1033.96 C 306.579 1037.13 306.844 1036.07 306.306 1038.61 C 300.296 1036.81 294.701 1041.09 288.585 1044.17 C 285.095 1043.91 281.433 1043.19 278.004 1042.61 C 268.832 1041.03 254.54 1024.08 257.016 1015.17 z"/>
<path transform="translate(0,0)" fill="rgb(221,173,105)" d="M 257.016 1015.17 C 268.975 1014.99 274.099 1015.04 285.542 1018.22 L 282.668 1022.53 C 278.279 1021.33 268.374 1019.15 264.085 1020.06 C 261.505 1016.65 261.201 1016.68 257.016 1015.17 z"/>
<path transform="translate(0,0)" fill="rgb(249,240,208)" d="M 264.085 1020.06 C 268.374 1019.15 278.279 1021.33 282.668 1022.53 C 287.422 1025.22 288.355 1025.74 292.188 1029.58 L 290.391 1030.29 C 285.115 1029.49 272.223 1023.01 265.724 1022.39 C 265.178 1021.61 264.631 1020.84 264.085 1020.06 z"/>
<path transform="translate(0,0)" fill="rgb(243,223,176)" d="M 292.188 1029.58 C 295.364 1033.04 296.191 1032.84 297.11 1036.75 C 292.203 1040.95 271.374 1033.42 268.296 1029.1 C 272.915 1028.12 287.503 1038.05 293.376 1035.16 C 292.497 1031.66 293.219 1033.33 290.391 1030.29 L 292.188 1029.58 z"/>
<path transform="translate(0,0)" fill="rgb(218,168,79)" d="M 276.729 1089.33 C 280.806 1088.45 284.914 1087.72 289.044 1087.13 C 303.082 1085.26 312.899 1088.35 323.798 1096.81 C 325.255 1099.31 325.989 1099.93 325.979 1102.78 L 326.039 1105.68 L 325.239 1105.79 C 301.369 1119.79 288.99 1110.2 276.729 1089.33 z"/>
<path transform="translate(0,0)" fill="rgb(249,240,208)" d="M 283.044 1092.17 C 302.524 1089.58 310.608 1091.52 325.979 1102.78 L 326.039 1105.68 L 325.239 1105.79 C 323.459 1103.76 320.621 1102.05 318.346 1100.48 L 319.063 1103.88 L 319.336 1104.33 C 306.294 1111.69 291.939 1100.46 283.044 1092.17 z"/>
<path transform="translate(0,0)" fill="rgb(219,164,67)" d="M 319.063 1103.88 C 312.559 1104.85 292.288 1103.31 291.269 1095.25 L 293.001 1094.15 C 300.659 1093.48 311.728 1096.33 318.346 1100.48 L 319.063 1103.88 z"/>
<path transform="translate(0,0)" fill="rgb(255,255,255)" d="M 1121.07 632.419 C 1140.85 631.069 1164.41 636.35 1182.71 643.735 C 1219.04 658.4 1241.44 686.643 1256.22 722.017 C 1215.76 723.228 1171.25 722.38 1130.5 722.3 L 995.045 722.305 C 1000.77 706.876 1009.26 692.618 1020.09 680.23 C 1046.48 649.727 1081.46 635.39 1121.07 632.419 z"/>
<path transform="translate(0,0)" fill="rgb(77,41,31)" d="M 1125.13 641.175 C 1133.21 639.089 1141.45 643.972 1143.5 652.064 C 1145.55 660.156 1140.63 668.371 1132.53 670.384 C 1124.48 672.384 1116.33 667.501 1114.29 659.461 C 1112.25 651.421 1117.1 643.247 1125.13 641.175 z"/>
<path transform="translate(0,0)" fill="rgb(77,41,31)" d="M 1056.49 660.691 C 1064.09 658.145 1072.32 662.248 1074.85 669.851 C 1077.39 677.455 1073.28 685.674 1065.67 688.203 C 1058.08 690.729 1049.88 686.625 1047.34 679.033 C 1044.81 671.441 1048.9 663.232 1056.49 660.691 z"/>
<path transform="translate(0,0)" fill="rgb(77,41,31)" d="M 1125.79 672.039 C 1144.49 671.038 1147.69 691.465 1131.21 699.135 C 1112.79 699.194 1109.28 680.65 1125.79 672.039 z"/>
<path transform="translate(0,0)" fill="rgb(77,41,31)" d="M 1186.92 660.725 C 1202.47 660.965 1203.59 674.92 1192.17 683.668 C 1177.07 682.968 1176.26 669.305 1186.92 660.725 z"/>
<path transform="translate(0,0)" fill="rgb(255,255,255)" d="M 1242.62 761.458 C 1244.08 761.103 1243.16 761.186 1245.36 761.799 C 1246.98 766.885 1246.44 785.509 1246.44 791.906 C 1212.95 792.835 1025.03 820.083 1008.75 812.437 C 1004.62 811.075 999.221 809.465 1001.02 804.208 C 1005.6 800.562 1026.81 795.762 1033.51 794.445 C 1052.46 790.719 1074.65 783.055 1093.09 779.679 C 1119.66 774.818 1150.01 773.056 1176.88 770.218 C 1199.07 767.873 1220.55 764.217 1242.62 761.458 z"/>
<path transform="translate(0,0)" fill="rgb(255,255,255)" d="M 1003.96 735.232 C 1070.26 735.154 1139.21 733.552 1205.32 735.269 C 1192.66 739.995 1173.79 745.08 1160.51 748.846 C 1135.74 755.915 1110.84 762.509 1085.81 768.627 C 1059.37 776.069 1032.61 782.39 1005.99 789.296 L 1005.38 767.994 C 1028.62 758.815 1064.87 747.873 1089.04 741.125 C 1053.97 740.765 1036.9 745.121 1003.86 754.562 C 1003.82 748.157 1003.92 741.647 1003.96 735.232 z"/>
<path transform="translate(0,0)" fill="rgb(255,255,255)" d="M 808.159 586.615 C 813.198 587.631 817.27 594.576 819.082 599.051 C 828.374 622.002 826.891 622.684 807.213 631.583 C 802.446 648.667 797.452 665.395 792.914 682.585 C 787.927 679.629 779.682 673.739 775.441 669.902 C 780.098 644.574 787.748 602.467 808.159 586.615 z"/>
<path transform="translate(0,0)" fill="rgb(255,255,255)" d="M 1138 815.273 C 1173.95 810.614 1209.96 806.451 1246.03 802.784 L 1246.01 822.584 C 1212.23 821.161 1173.08 818.097 1139.87 818.028 L 1138 815.273 z"/>
<path transform="translate(0,0)" fill="rgb(255,255,255)" d="M 1223.06 735.015 C 1229.32 734.621 1239.41 734.908 1245.98 734.873 L 1245.92 749.479 C 1227.71 751.592 1208.99 754.757 1190.76 757.436 C 1181.45 758.462 1172.16 759.608 1162.88 760.873 C 1183.35 751.525 1203.51 746.73 1223.06 735.015 z"/>
<path transform="translate(0,0)" fill="rgb(255,255,255)" d="M 842.064 777.778 C 844.732 781.34 859.456 816.869 860.182 821.562 L 858.043 822.459 L 837.993 823.092 C 839.108 809.571 838.83 790.491 842.064 777.778 z"/>
<path transform="translate(0,0)" fill="rgb(255,255,255)" d="M 1139.87 818.028 C 1134.8 818.05 1130.49 817.926 1125.46 817.679 L 1125.8 816.507 L 1124.39 817.5 L 1123.58 817.183 L 1125.97 817.599 L 1127.09 816.207 L 1125.85 816.363 L 1138 815.273 L 1139.87 818.028 z"/>
<path transform="translate(0,0)" fill="rgb(221,173,105)" d="M 1432.32 1291.63 L 1433.83 1292.61 L 1433.75 1293.57 C 1384.78 1302.68 1333.31 1315.09 1284.2 1325.29 L 1047.69 1372.39 C 1040.8 1373.75 1026.82 1376.77 1020.88 1375.79 C 989.855 1370.66 602.178 1293.83 600.188 1292.5 C 607.452 1292.18 637.385 1295.01 647.019 1295.71 C 738.971 1302.42 830.178 1318.11 920.656 1334.96 L 985.205 1346.99 C 996.882 1349.16 1018.04 1354.24 1028.9 1352.8 C 1049.5 1350.07 1071.93 1345.15 1092.38 1341.18 C 1127.76 1334.42 1163.2 1327.97 1198.7 1321.81 C 1218.81 1318.35 1239.15 1315.89 1259.2 1312.38 C 1316.72 1302.34 1374.29 1297.53 1432.32 1291.63 z"/>
<path transform="translate(0,0)" fill="rgb(221,173,105)" d="M 1446.91 697.121 L 1448.75 697.489 C 1424.78 715.27 1380.33 738.248 1352.88 754.348 C 1425.71 756.1 1507.95 763.701 1580.82 769.644 L 1644.26 774.573 C 1653.65 775.394 1669.22 776.493 1678.09 778.591 C 1657.9 780.351 1638.67 780.028 1618.48 779.96 L 1291.38 778.793 C 1293.5 769.856 1296.21 760.681 1298.69 751.807 C 1343.85 732.649 1400.38 712.776 1446.91 697.121 z"/>
<path transform="translate(0,0)" fill="rgb(221,173,105)" d="M 591.691 689.826 C 602.153 693.337 612.048 697.487 622.233 701.643 C 664.492 718.884 706.596 736.173 747.683 756.11 C 753.245 758.809 758.896 761.091 764.177 764.355 L 763.906 778.003 C 694.799 778.14 625.693 777.832 556.59 777.078 C 504.019 776.878 451.644 777.371 399.089 775.878 C 394.374 776.19 375.663 776.767 372.264 774.767 C 376.88 773.698 377.742 773.779 382.501 774.116 C 414.948 770.182 449.88 768.989 482.611 766.374 C 554.972 760.595 624.69 759.079 697.201 758.779 C 662.384 736.757 625.094 713.876 591.691 689.826 z"/>
<path transform="translate(0,0)" fill="rgb(249,240,208)" d="M 399.089 775.878 C 394.374 776.19 375.663 776.767 372.264 774.767 C 376.88 773.698 377.742 773.779 382.501 774.116 L 399.089 775.878 z"/>
<path transform="translate(0,0)" fill="rgb(77,41,31)" d="M 827.83 524.682 C 827.715 521.778 827.239 516.68 828.747 514.206 C 835.316 503.598 852.736 503.302 863.392 506.317 C 871.767 508.686 876.345 511.817 878.622 520.172 C 887.109 521.585 908.081 524.166 912.816 532.42 C 911.158 543.967 883.528 542.39 878.31 546.907 C 877.827 558.266 878.594 575.337 869.727 583.319 L 869.662 585.464 C 884.208 590.536 891.813 590.4 899.566 606.437 C 907.537 622.924 918.964 653.035 930.774 666.136 C 927.727 666.92 928.712 666.294 926.488 668.269 C 925.536 664.919 914.104 647.127 911.474 642.346 C 908.92 648.92 904.701 659.564 897.01 661.509 C 896.833 659.784 907.666 643.451 909.624 638.625 C 903.486 624.438 895.194 595.562 878.057 593.869 L 874.543 594.915 C 872.766 589.933 868.273 590.446 863.219 588.563 L 864.648 586.81 L 864.398 585.633 C 861.325 585.394 859.378 585.06 856.398 584.523 C 848.162 582.526 847.061 585.461 838.069 578.521 L 834.082 578.6 C 833.51 579.95 833.324 580.205 833 581.631 L 830.614 581.378 L 828.699 579.936 C 829.431 577.9 828.706 562.226 828.88 557.697 C 828.906 548.999 829.948 549.272 821.512 546.377 C 816.337 544.601 809.547 542.192 805.723 538.228 C 803.913 529.473 821.393 526.337 827.83 524.682 z"/>
<path transform="translate(0,0)" fill="rgb(255,255,255)" d="M 831.142 558.484 C 834.232 558.395 834.908 558.654 837.62 557.176 C 838.256 551.553 832.173 550.75 834.035 542.662 C 840.54 535.616 868.312 527.071 875.526 537.637 C 875.936 549.486 863.908 545.963 861.304 550.587 C 866.664 553.844 868.13 552.62 875.173 551.724 C 876.588 550.44 877.328 548.662 878.31 546.907 C 877.827 558.266 878.594 575.337 869.727 583.319 L 869.662 585.464 C 884.208 590.536 891.813 590.4 899.566 606.437 C 907.537 622.924 918.964 653.035 930.774 666.136 C 927.727 666.92 928.712 666.294 926.488 668.269 C 925.536 664.919 914.104 647.127 911.474 642.346 C 908.92 648.92 904.701 659.564 897.01 661.509 C 896.833 659.784 907.666 643.451 909.624 638.625 C 903.486 624.438 895.194 595.562 878.057 593.869 L 874.543 594.915 C 872.766 589.933 868.273 590.446 863.219 588.563 L 864.648 586.81 L 864.398 585.633 C 861.325 585.394 859.378 585.06 856.398 584.523 C 848.162 582.526 847.061 585.461 838.069 578.521 L 834.082 578.6 C 833.51 579.95 833.324 580.205 833 581.631 L 830.614 581.378 L 828.699 579.936 C 829.431 577.9 828.706 562.226 828.88 557.697 L 831.142 558.484 z"/>
<path transform="translate(0,0)" fill="rgb(77,41,31)" d="M 875.173 551.724 C 876.588 550.44 877.328 548.662 878.31 546.907 C 877.827 558.266 878.594 575.337 869.727 583.319 L 869.662 585.464 C 884.208 590.536 891.813 590.4 899.566 606.437 C 907.537 622.924 918.964 653.035 930.774 666.136 C 927.727 666.92 928.712 666.294 926.488 668.269 C 925.536 664.919 914.104 647.127 911.474 642.346 C 908.92 648.92 904.701 659.564 897.01 661.509 C 896.833 659.784 907.666 643.451 909.624 638.625 C 903.486 624.438 895.194 595.562 878.057 593.869 L 874.543 594.915 C 872.766 589.933 868.273 590.446 863.219 588.563 L 864.648 586.81 L 864.398 585.633 C 861.325 585.394 859.378 585.06 856.398 584.523 C 865.971 584.417 865.386 583.067 870.622 575.345 C 872.189 573.033 871.736 571.868 871.098 569.461 C 864.776 569.519 851.601 570.748 847.374 565.975 C 856.903 558.885 874.881 578.025 875.173 551.724 z"/>
<path transform="translate(0,0)" fill="rgb(105,65,46)" d="M 828.88 557.697 L 831.142 558.484 C 832.316 567.615 832.728 570.641 838.069 578.521 L 834.082 578.6 C 833.51 579.95 833.324 580.205 833 581.631 L 830.614 581.378 L 828.699 579.936 C 829.431 577.9 828.706 562.226 828.88 557.697 z"/>
<path transform="translate(0,0)" fill="rgb(105,65,46)" d="M 848.964 537.216 C 852.05 538.836 850.757 537.719 852.684 540.992 C 852.829 544.928 851.905 546.041 850.157 549.542 C 848.399 549.667 849.347 549.794 847.376 548.834 C 846.622 545.428 848.142 540.785 848.964 537.216 z"/>
<path transform="translate(0,0)" fill="rgb(77,41,31)" d="M 930.774 666.136 C 937.791 659.493 932.648 652.627 938.425 647.874 C 942.009 644.924 973.904 644.143 974.848 649.813 C 978.246 670.215 976.995 694.064 977.063 715.033 C 968.363 715.073 931.45 715.765 925.621 714.47 C 924.874 711.798 925.154 712.641 925.614 709.607 C 923.849 706.182 921.888 702.664 920.58 699.06 C 923.014 690.52 925.506 687.716 929.957 680.111 C 927.727 675.584 926.007 673.356 926.488 668.269 C 928.712 666.294 927.727 666.92 930.774 666.136 z"/>
<path transform="translate(0,0)" fill="rgb(255,255,255)" d="M 938.88 658.375 C 944.638 658.272 962.891 657.231 966.762 660.1 L 966.78 663.016 C 960.831 662.971 942.201 663.89 938.505 660.737 L 938.88 658.375 z"/>
<path transform="translate(0,0)" fill="rgb(105,65,46)" d="M 883.197 660.664 C 885.154 658.948 884.329 659.937 885.239 657.322 L 886.326 657.516 L 886.039 657.996 L 887.347 657.761 C 890.096 664.892 891.959 672.502 894.702 679.284 C 904.934 684.185 907.873 685.16 916.14 693.034 L 916.166 694.195 C 910.396 693.077 898.517 686.394 892.798 683.353 C 887.505 675.482 886.939 666.337 883.197 660.664 z"/>
<path transform="translate(0,0)" fill="rgb(249,240,208)" d="M 1432.32 1291.63 C 1436.32 1290.47 1442.83 1289.5 1447.03 1289.1 L 1448.38 1291.14 L 1451.07 1289.99 C 1445.86 1291.85 1439.26 1292.7 1433.75 1293.57 L 1433.83 1292.61 L 1432.32 1291.63 z"/>
</svg>