<svg version="1.1" xmlns="http://www.w3.org/2000/svg" style="display: block;" viewBox="0 0 1365 2048" width="1024" height="1536" preserveAspectRatio="none">
<path transform="translate(0,0)" fill="rgb(255,255,255)" d="M 0 0 L 1365 0 L 1365 2048 L 0 2048 L 0 0 z"/>
<path transform="translate(0,0)" fill="rgb(35,52,78)" d="M 438.728 79.434 C 544.636 68.8205 696.531 172.83 773.193 239.827 C 793.398 257.484 932.813 390.701 935.265 407.458 C 934.94 411.002 932.964 412.786 930.701 415.684 C 952.36 443.314 994.564 480.307 999.315 516.268 C 1000.16 522.64 997.415 535.241 996.789 542.224 C 996.239 548.352 996.615 554.203 996.921 560.363 C 1008 575.259 1052.98 601.806 1069.72 613.019 C 1078.87 619.15 1089.35 623.533 1097.43 632.358 C 1103.34 654.126 1067.42 678.689 1070.79 684.155 C 1075.79 692.251 1089.23 703.346 1094.48 716.375 C 1091.53 724.703 1087.23 731.724 1082.48 739.057 C 1102.74 764.602 1100.05 759.569 1088.14 789.435 C 1091.75 813.856 1099.02 819.593 1107.12 841.592 C 1111.29 852.924 1110.08 868.078 1104.2 879.04 C 1082.7 918.204 1029.96 907.215 993.247 919.789 C 960.394 931.041 937.416 958.446 936.415 993.773 C 935.625 1021.65 919.925 1038.11 904.928 1059.84 C 898.097 1069.73 892.821 1079.68 887.431 1090.31 C 897.632 1105.44 913.658 1113.35 922.922 1128.57 C 924.273 1156.06 909.239 1195.33 908.834 1218.52 C 908.78 1221.63 945.385 1279.8 950.376 1288.34 C 968.705 1319.9 986.584 1351.72 1004.01 1383.8 C 1015.62 1405.27 1026.31 1428.08 1036.73 1450.16 C 1061.28 1501.33 1082.81 1553.88 1101.23 1607.57 C 1118.06 1657.02 1131.38 1708.32 1143.99 1758.98 C 1149.59 1781.47 1152.99 1804.81 1158.25 1827.42 C 1164.73 1854.92 1170.62 1882.55 1175.91 1910.3 C 1178.03 1920.8 1183 1942.6 1183.31 1952.61 C 1192.71 1956.63 1212.32 1959.8 1219.52 1963.79 L 1219.46 1964.85 C 1215.51 1966.07 1210.6 1966.04 1206.41 1966.26 C 1100.68 1971.85 993.568 1959.99 889.888 1939.66 C 849.157 1931.68 808.314 1924.11 768.25 1913.81 C 758.539 1913.11 706.233 1897.07 694.924 1893.82 C 546.745 1851.08 403.602 1792.5 267.972 1719.1 C 229.005 1697.9 185.104 1673.23 149.604 1646.52 C 180.227 1657.35 195.916 1662.63 225.194 1676.97 C 240.112 1620.27 257.865 1564.02 274.602 1507.83 C 298.422 1427.85 321.212 1344.91 358.565 1270.05 C 363.82 1259.51 369.578 1248.73 376.272 1239.04 C 383.721 1228.25 392.704 1218.16 401 1208 C 431.545 1170.62 465.002 1135.31 497.871 1099.96 C 511.272 1085.54 532.153 1066.52 541.815 1050.28 C 550.177 1036.23 572.09 952.71 573.417 935.08 C 568.919 932.062 551.948 932.231 546.571 927.116 C 547.925 924.561 562.17 928.321 571.074 921.394 C 566.053 919.664 564.638 921.575 560.754 921.778 C 549.593 922.361 531.99 911.078 523.501 905.718 C 542.936 906.012 556.752 905.737 562.077 884.698 C 564.981 873.227 567.464 842.86 561.473 831.945 C 555.081 820.301 537.606 807.156 528.98 796.421 C 508.276 772.821 476.293 740.001 460.848 713.26 L 462.831 700.576 C 450.554 669.165 423.112 669.754 393.913 665.756 C 367.872 662.429 341.871 660.332 316.201 654.576 C 287.049 648.039 276.943 632.809 262.768 608.958 C 170.225 612.203 144.212 529.613 185.64 459.411 C 192.901 447.106 200.641 438.019 210.196 427.443 C 210.084 426.664 209.989 425.884 209.911 425.101 C 204.348 365.003 214.252 335.79 259.441 294.271 C 266.981 287.343 280.836 275.852 287.319 268.358 C 301.428 252.05 283.318 235.512 281.262 213.385 C 278.304 181.551 297.36 157.362 323.221 141.214 C 328.536 137.513 347.785 131.987 351.312 127.635 C 376.042 97.1122 396.855 83.6065 438.728 79.434 z"/>
<path transform="translate(0,0)" fill="rgb(255,255,255)" d="M 558.548 1063.92 C 561.801 1065.78 565.037 1068.31 567.947 1070.67 C 587.184 1086.33 607.79 1100.05 627.553 1114.94 C 621.957 1119.24 609.445 1134.26 604.46 1140.15 C 582.802 1165.77 561.687 1192.43 542.313 1219.83 C 533.992 1231.6 527.322 1243.85 519.254 1255.46 C 497.959 1254.56 465.857 1266.32 447.543 1276.3 C 406.265 1298.8 372.319 1343.48 360.328 1388.75 C 395.651 1333.64 450.038 1272.8 521.821 1271.59 C 591.606 1270.41 641.354 1330.59 672.611 1386.41 C 716.323 1464.47 731.102 1556.11 733.662 1644.75 C 734.11 1659.87 729.824 1778.63 722.889 1785.75 C 722.853 1785.71 719.025 1713.82 717.503 1700.39 C 705.913 1598.18 676.214 1502.95 615.794 1418.62 C 597.093 1392.52 575.565 1366.82 550.343 1346.77 C 561.912 1367.7 579.725 1390.53 592.549 1413.81 C 641.384 1503.83 672.421 1602.42 683.963 1704.18 C 688.35 1741.43 691.017 1780.59 691.397 1818.11 C 691.459 1824.19 690.551 1830.18 692.03 1836.15 C 692.145 1846.82 691.091 1861.96 690.671 1872.99 C 654.749 1863.99 610.888 1846.67 575.281 1835.47 C 565.924 1832.52 529.571 1819.45 523.054 1815.79 C 521.469 1812.5 520.142 1808.73 519.026 1805.26 C 490.059 1715.61 433.689 1638.44 389.496 1556.12 C 369.873 1519.56 357.698 1486.25 343.331 1447.9 C 333.491 1463.53 326.902 1491.21 326.476 1509.67 C 325.984 1531.05 329.006 1545.7 338.001 1564.89 C 363.712 1619.76 406.497 1666.72 438.401 1717.68 C 447.555 1732.27 456.357 1747.07 464.8 1762.09 C 470.023 1771.52 474.398 1780.88 478.673 1790.76 C 480.591 1795.19 483.001 1794.16 483.099 1798.97 C 476.003 1799.69 446.596 1783.93 438.446 1780.76 C 433.37 1778.78 426.611 1766.03 423.381 1760.64 C 393.503 1710.73 360.645 1662.39 335.153 1610 C 329.554 1598.47 324.814 1584.92 320.215 1572.9 C 318.725 1591.83 320.374 1599 321.784 1617.03 C 325.576 1665.53 339.953 1702.18 357.858 1746.43 C 343.438 1739.43 335.345 1735.92 322.759 1726.44 C 310.926 1676.43 290.708 1585.48 299.747 1534.94 C 315.244 1448.3 346.889 1317.65 397.116 1244.91 C 439.852 1183.02 510.914 1123.31 558.548 1063.92 z"/>
<path transform="translate(0,0)" fill="rgb(255,255,255)" d="M 915.661 423.515 L 918.897 424.123 C 933.665 434.872 973.858 486.476 983.364 503.971 C 990.612 517.311 986.775 539.48 982.319 553.818 C 983.388 556.529 987.819 568.138 989.302 569.514 C 1015.96 594.26 1056.34 616.836 1085.81 636.439 C 1092.35 654.179 1063.55 666.715 1059.22 677.185 C 1054.85 687.754 1077.27 705.346 1081.37 713.254 C 1082.7 715.834 1080.72 720.008 1079.64 722.938 C 1074.4 725.251 1070.94 726.786 1066.25 729.999 C 1056.35 736.788 1029.89 761.252 1018.55 761.802 L 1017.64 760.695 L 1019.35 755.008 L 1018.52 754.094 C 1003.7 756.048 1003.66 777.588 1010.74 775.556 C 1031.31 769.651 1055.76 762.851 1072.48 748.954 C 1099.73 765.529 1073.24 776.447 1058.38 786.088 C 1065.46 785.802 1071.3 783.717 1077.71 786.042 C 1080.69 790.52 1078.18 799.651 1080.42 804.35 C 1115.54 877.784 1091.7 890.929 1018.41 897.281 C 979.094 900.689 949.14 901.09 906.903 896.389 C 833.842 888.257 830.354 866.771 788.095 812.415 C 797.24 887 857.256 925.322 917.698 958.211 C 918.025 960.014 918.296 961.826 918.512 963.646 C 919.46 971.813 918.505 979.076 918.523 986.558 C 918.598 1018.47 906.012 1030.85 889.042 1055.41 C 880.64 1067.58 874.158 1077.86 864.705 1089.96 C 800.537 1062.23 766.2 1044.04 707.571 1005.07 C 697.368 998.428 685.224 989.016 675.227 981.699 C 660.862 971.184 642.23 958.267 629.364 946.257 C 669.985 927.945 691.065 887.508 701.529 846.431 C 725.815 851.798 771.935 860.757 780.281 827.135 C 783.945 812.374 781.968 806.437 774.53 793.562 C 772.488 821.6 763.814 837.742 733.117 835.654 C 701.998 833.538 667.013 822.618 645.521 798.916 C 630.824 782.953 623.065 761.696 623.515 739.96 C 623.963 718.27 648.631 695.82 670.208 697.316 C 680.701 698.044 698.962 703.937 705.398 712.681 C 714.732 725.364 722.919 727.086 738.207 728.768 C 755.613 731.141 769.946 749.251 780.98 761.862 C 795.953 758.575 808.679 752.932 823.089 747.549 C 820.138 740.421 813.726 729.895 809.986 722.721 C 797.01 697.831 784.253 675.919 777.837 648.461 C 780.638 640.02 789.934 623.311 794.972 614.969 C 816.365 579.543 832.38 541.478 824.715 498.957 C 815.67 527.444 781.129 592.345 761.537 613.698 C 768.521 597.939 800.294 543.858 799.606 528.373 L 798.525 527.625 C 790.796 532.674 775.312 565.139 765.136 575.922 L 764.475 576.612 C 768.157 568.487 784.654 529.408 787.832 525.928 C 822.06 488.458 871.816 448.117 915.661 423.515 z"/>
<path transform="translate(0,0)" fill="rgb(35,52,78)" d="M 669.96 709.974 C 691.054 709.643 698.648 712.477 702.499 734.585 C 698.703 740.691 686.519 769.294 684.469 776.03 C 679.541 792.218 718.254 788.655 725.43 782.501 C 723.463 778.802 710.521 772.347 707.73 768.169 C 702.915 760.96 710.23 739.258 716.031 734.711 C 722.428 738.57 716.369 766.888 730.598 770.152 C 732.287 770.54 739.982 774.544 742.032 775.526 C 746.531 785.75 746.125 787.017 745.849 798.045 C 743.155 797.132 732.914 793.518 730.693 793.729 C 713.051 795.425 694.88 802.298 677.881 793.325 C 665.17 786.617 670.481 775.441 675.885 766.423 C 682.067 756.849 696.469 734.467 691.206 723.608 C 678.485 713.006 649.26 746.568 649.213 760.245 C 649.118 787.633 676.382 804.245 698.541 814.182 C 700.791 815.191 706.538 817.202 707.8 818.698 C 704.267 819.472 702.124 818.095 698.763 817.627 C 666.873 813.188 630.471 778.183 641.685 743.296 C 646.321 728.88 656.491 716.895 669.96 709.974 z"/>
<path transform="translate(0,0)" fill="rgb(35,52,78)" d="M 958.913 508.371 C 966.895 508.967 973.565 514.525 972.626 522.731 C 970.033 545.4 951.249 540.9 939.239 545.187 C 924.774 550.35 904.075 571.26 893.103 581.719 C 890.822 583.849 886.229 588.347 883.308 588.433 C 886.612 557.403 928.503 515.488 958.913 508.371 z"/>
<path transform="translate(0,0)" fill="rgb(35,52,78)" d="M 954.915 557.234 L 957.284 555.495 L 958.968 555.994 C 960.903 560.135 959.523 566.051 958.711 570.597 C 965.356 566.878 970.776 563.247 977.097 559.548 C 973.049 567.257 969.19 576.873 961.041 580.012 C 957.418 590.762 968.64 605.617 968.252 609.06 C 953.712 622.746 947.81 600.404 943.36 598.017 C 939.075 607.63 933.055 623.544 919.941 621.679 L 918.679 620.118 C 920.219 606.732 941.665 580.12 952.6 571.266 L 955.001 561.09 L 954.915 557.234 z"/>
<path transform="translate(0,0)" fill="rgb(35,52,78)" d="M 1073.79 650.809 C 1074.66 657.897 1070.32 660.782 1065.64 665.122 C 1054.62 675.353 1032.85 699.929 1020.32 677.646 C 1018.95 674.196 1018.23 672.885 1019.39 670.001 C 1025.64 671.602 1024.65 675.232 1036.55 677.168 L 1037.15 677.261 C 1045.49 673.719 1062.22 658.245 1073.79 650.809 z"/>
<path transform="translate(0,0)" fill="rgb(35,52,78)" d="M 970.603 608.647 C 973.199 609.864 973.101 609.741 974.55 612.193 C 972.782 620.409 955.073 625.371 947.606 624.085 C 944.755 623.591 944.071 623.592 941.522 622.333 C 945.088 618.636 960.84 620.188 970.603 608.647 z"/>
<path transform="translate(0,0)" fill="rgb(61,80,103)" d="M 929.094 580.199 C 936.454 571.576 944.236 560.204 954.915 557.234 L 955.001 561.09 L 953.635 561.392 C 949.705 565.53 934.24 576.74 929.094 580.199 z"/>
<path transform="translate(0,0)" fill="rgb(255,255,255)" d="M 639.547 1122.55 C 708.335 1165.94 792.78 1216.55 872.652 1234.76 C 884.974 1252.16 893.508 1266.75 907.744 1283.34 C 864.365 1296.19 823.941 1310.53 778.575 1316.11 C 773.833 1316.69 771.565 1317.18 768.341 1320.8 C 765.584 1328.55 781.655 1358.16 785.461 1366.42 C 794.99 1387.26 804.32 1408.2 813.449 1429.23 C 881.006 1587.94 931.726 1753.3 964.777 1922.59 L 966.524 1933.99 C 887.306 1923.58 808.742 1903.61 731.593 1883.97 C 732.641 1867.03 737.016 1847.43 739.603 1830.42 C 764.647 1665.98 763.444 1482.65 666.062 1340.15 C 633.284 1292.19 593.289 1264.61 536.48 1254.74 C 556.34 1224.34 577.895 1195.08 601.041 1167.11 C 612.321 1153.51 629.823 1135.44 639.547 1122.55 z"/>
<path transform="translate(0,0)" fill="rgb(255,255,255)" d="M 928.305 1287.85 L 929.286 1288.16 C 932.874 1291.83 936.763 1298.48 939.436 1302.97 C 1027.43 1450.66 1092.07 1610.44 1129.48 1778.29 C 1142.3 1835.82 1150.9 1893.79 1163.2 1951.18 C 1144.93 1951.79 1116.27 1949.41 1097.34 1948.14 C 1079.05 1946.92 1045.37 1945.39 1027.89 1941.88 C 1017.82 1941.65 989.205 1938.15 979.87 1935.45 C 976.644 1922.93 974.603 1907.06 971.949 1894 C 965.841 1864.44 959.4 1834.96 952.628 1805.55 C 932.615 1724.17 908.715 1643.8 881.011 1564.72 C 861.715 1509.89 840.314 1455.82 816.857 1402.64 C 807.313 1380.89 789.666 1348.86 782.441 1328.3 C 828.76 1322.03 886.668 1309.4 928.305 1287.85 z"/>
<path transform="translate(0,0)" fill="rgb(35,52,78)" d="M 1083.5 1716.91 C 1103.62 1722.03 1111.23 1760.16 1090.41 1769.68 C 1087.65 1768.81 1082.12 1766.12 1079.23 1764.8 C 1070.76 1750.63 1059.13 1722.29 1083.5 1716.91 z"/>
<path transform="translate(0,0)" fill="rgb(255,255,255)" d="M 1083.88 1728.45 C 1090.46 1733.07 1094.34 1750.1 1089.84 1756.23 C 1082.21 1753.65 1076.86 1736.09 1083.88 1728.45 z"/>
<path transform="translate(0,0)" fill="rgb(35,52,78)" d="M 998.877 1478.03 C 1003.42 1477.76 1007.12 1477.1 1011.16 1479.6 C 1026.03 1488.81 1030.86 1513.74 1016.67 1525.68 C 994.592 1530.58 990.764 1503.06 991.005 1487.38 C 994.079 1482.77 994.837 1481.82 998.877 1478.03 z"/>
<path transform="translate(0,0)" fill="rgb(255,255,255)" d="M 1004.68 1487.34 C 1013.75 1491.55 1015.09 1506.23 1011.22 1514.59 C 1006.23 1512.48 1002.58 1504.38 1001.68 1499.17 C 1000.63 1493.06 1001.23 1492.18 1004.68 1487.34 z"/>
<path transform="translate(0,0)" fill="rgb(35,52,78)" d="M 988.373 1761.76 C 1010.41 1763.99 1018.43 1802.2 1000.34 1812.7 C 981.886 1815.32 974.047 1785.73 978.425 1772.11 C 980.402 1765.96 983.137 1764.47 988.373 1761.76 z"/>
<path transform="translate(0,0)" fill="rgb(255,255,255)" d="M 990.835 1772.51 C 997.858 1777.96 1002.55 1794.64 996.755 1801.6 C 989.815 1795.87 985.466 1780.76 990.835 1772.51 z"/>
<path transform="translate(0,0)" fill="rgb(35,52,78)" d="M 922.573 1524.1 C 942.424 1531.19 950.825 1568.19 929.739 1574.51 C 919.341 1573.9 912.981 1565.87 910.248 1556.53 C 906.232 1542.82 906.96 1528.42 922.573 1524.1 z"/>
<path transform="translate(0,0)" fill="rgb(255,255,255)" d="M 922.179 1535.61 C 928.799 1540.98 933.736 1555.68 928.85 1563.1 L 926.871 1562.17 C 920.32 1554.06 916.965 1545.29 922.179 1535.61 z"/>
<path transform="translate(0,0)" fill="rgb(255,255,255)" d="M 386.577 143.254 C 390.708 143.031 397.748 142.895 401.959 143.069 C 504.176 147.299 602.737 194.552 680.742 259.011 C 695.527 271.229 712.314 287.824 725.444 301.272 C 735.8 311.879 745.152 324.123 755.673 334.854 C 752.667 337.673 748.933 340.393 745.595 342.853 C 687.688 385.533 640.194 435.397 594.138 490.339 C 581.927 476.438 578.909 465.868 562.348 449.182 C 491.314 377.616 396.221 347.909 296.779 348.156 C 269.546 349.457 259.53 351.251 233.416 356.857 C 243.045 340.08 250.875 330.604 264.446 316.611 C 284.205 296.238 311.273 281.422 316.622 251.787 C 322.69 247.44 356.655 254.892 365.273 256.498 C 435.711 269.628 501.478 297.719 561.95 335.77 C 581.516 348.081 600.425 362.196 620.583 373.515 C 549.098 285.973 414.293 208.308 299.643 209.984 C 301.53 177.682 333.103 151.559 363.435 146.781 C 371.21 145.556 378.858 144.807 386.577 143.254 z"/>
<path transform="translate(0,0)" fill="rgb(255,255,255)" d="M 824.84 308.854 C 852.774 333.682 893.499 375.628 916.602 404.939 C 837.82 450.107 772.447 512.899 715.13 582.464 C 658.215 651.542 602.971 722.195 563.909 803.281 L 562.748 805.441 L 561.121 805.865 C 556.911 802.793 546.982 791.501 542.466 787.05 C 517.18 762.128 496.888 736.252 475.013 708.517 C 504.055 646.283 532.85 592.19 575.494 537.805 C 645.979 447.913 725.377 366.449 824.84 308.854 z"/>
<path transform="translate(0,0)" fill="rgb(124,156,170)" d="M 592.666 943.416 C 634.91 981.325 684.656 1015.36 732.341 1045.92 C 779.232 1075.97 831.128 1097.96 882.163 1119.71 C 882.044 1122.25 881.546 1129.3 881.976 1131.49 C 881.885 1142.55 881.41 1160.93 879.494 1171.74 C 877.885 1178.53 877.48 1185.28 876.869 1192.22 C 875.968 1201.51 874.892 1210.78 873.643 1220.02 C 858.031 1217.52 837.277 1210.15 822.371 1204.5 C 746.364 1175.65 673.296 1130.93 607.629 1083.38 C 596.097 1075.03 575.059 1060.44 565.266 1051.12 C 568.072 1041.52 570.745 1031.89 573.282 1022.21 L 580.17 999.059 C 581.36 991.235 585.709 975.201 587.684 966.892 C 589.764 958.534 591.205 951.896 592.666 943.416 z"/>
<path transform="translate(0,0)" fill="rgb(129,112,106)" d="M 592.666 943.416 C 634.91 981.325 684.656 1015.36 732.341 1045.92 C 779.232 1075.97 831.128 1097.96 882.163 1119.71 C 882.044 1122.25 881.546 1129.3 881.976 1131.49 C 881.885 1142.55 881.41 1160.93 879.494 1171.74 C 869.187 1169.09 842.304 1158.41 831.804 1154.02 C 740.596 1115.88 656.337 1061.68 580.17 999.059 C 581.36 991.235 585.709 975.201 587.684 966.892 C 589.764 958.534 591.205 951.896 592.666 943.416 z"/>
<path transform="translate(0,0)" fill="rgb(255,255,255)" d="M 592.666 943.416 C 634.91 981.325 684.656 1015.36 732.341 1045.92 C 779.232 1075.97 831.128 1097.96 882.163 1119.71 C 882.044 1122.25 881.546 1129.3 881.976 1131.49 C 881.322 1134.64 881.656 1136.08 879.586 1137.71 C 780.959 1108.33 666.53 1031.63 587.684 966.892 C 589.764 958.534 591.205 951.896 592.666 943.416 z"/>
<path transform="translate(0,0)" fill="rgb(255,255,255)" d="M 580.17 999.059 C 656.337 1061.68 740.596 1115.88 831.804 1154.02 C 842.304 1158.41 869.187 1169.09 879.494 1171.74 C 877.885 1178.53 877.48 1185.28 876.869 1192.22 C 871.117 1195.31 840.857 1181.33 833.861 1178.46 C 760.653 1148.94 691.336 1110.56 627.459 1064.19 C 610.851 1052.29 588.454 1035.93 573.282 1022.21 L 580.17 999.059 z"/>
<path transform="translate(0,0)" fill="rgb(255,255,255)" d="M 362.514 408.575 C 366.432 408.18 386.393 411.397 391.779 412.12 C 441.465 418.786 490.421 436.455 534.61 459.844 C 553.765 469.982 570.115 481.243 588.076 492.931 L 591.104 492.224 L 591.842 492.896 C 589.161 496.258 576.87 511.767 574.75 512.778 C 557.905 520.815 502.237 497.245 487.539 492.209 C 475.653 488.233 463.669 484.551 451.601 481.166 C 396.443 465.59 337.419 458.87 281.691 476.331 C 249.245 486.498 195.402 518.678 226.458 557.738 C 261.229 591.711 341.98 555.724 381.434 544.757 C 387.109 543.18 401.778 536.905 406.05 537.411 L 405.578 538.83 C 375.718 555.289 360.696 568.074 327.698 579.865 C 216.757 620.9 135.107 552.692 219.795 448.081 C 243.936 418.26 326.793 409.658 362.514 408.575 z"/>
<path transform="translate(0,0)" fill="rgb(255,255,255)" d="M 436.837 99.2876 C 560.959 93.0566 725.065 213.585 808.713 301.321 C 793.267 309.602 779.72 320.937 765.051 328.529 L 757.309 317.914 C 676.727 218.616 548.272 145.626 421.579 129.377 C 406.822 127.484 391.16 127.495 376.261 127.292 C 391.373 109.118 414.852 103.395 436.837 99.2876 z"/>
<path transform="translate(0,0)" fill="rgb(255,255,255)" d="M 490.022 513.453 C 507.471 510.474 544.378 519.146 563.099 522.738 L 563.708 524.029 C 558.647 527.748 557.473 529.86 551.051 527.09 C 544.085 524.084 533.938 526.58 526.377 526.694 C 469.705 527.543 425.634 564.303 375.57 585.471 C 345.813 598.16 332.636 602.905 300.993 610.11 C 345.092 638.579 400.203 634.479 441.959 603.795 C 459.178 591.141 466.647 581.391 487.114 572.758 C 501.288 568.218 511.086 568.931 525.71 569.588 C 487.424 581.925 473.348 595.029 442.933 619.854 C 415.694 642.086 375.543 647.733 341.803 641.448 C 313.813 636.235 296.313 631.811 278.539 607.24 C 310.026 600.682 341.094 589.329 369.66 574.443 C 407.263 554.846 447.15 517.838 490.022 513.453 z"/>
<path transform="translate(0,0)" fill="rgb(255,255,255)" d="M 895.288 1121.22 C 901.901 1122.93 904.927 1127.39 909.401 1132.45 C 909.393 1132.57 909.384 1132.69 909.376 1132.81 C 911.05 1139.54 909.324 1145.22 907.849 1151.92 C 904.403 1167.59 901.196 1183.51 898.385 1199.33 C 896.683 1208.91 894.817 1218.53 893.756 1228.23 L 892.183 1240.47 C 891.138 1238.71 885.603 1229.73 885.721 1228.13 C 887.668 1201.88 892.014 1175.71 893.545 1149.41 C 894.085 1140.12 894.158 1130.42 895.288 1121.22 z"/>
<path transform="translate(0,0)" fill="rgb(255,255,255)" d="M 431.627 644.606 C 448.356 644.404 460.153 648.611 470.763 662.398 C 473.369 665.785 476.685 672.186 471.97 674.838 C 468.443 673.949 467.072 671.255 464.745 668.196 C 453.866 659.821 439.555 656.312 426.354 653.04 C 422.626 652.116 415.757 652.386 413.943 651.058 C 417.105 648.016 427.055 645.562 431.627 644.606 z"/>
<path transform="translate(0,0)" fill="rgb(255,255,255)" d="M 1072.83 732.903 L 1073.31 733.371 C 1075.3 742.629 1053.23 750.878 1046.48 754.074 L 1045.84 753.023 C 1051.52 748.176 1066.61 735.897 1072.83 732.903 z"/>
<path transform="translate(0,0)" fill="rgb(255,255,255)" d="M 906.491 1245.57 C 910.028 1248.63 923.673 1272.3 923.781 1276.41 C 917.617 1275.51 911.129 1260.87 908.026 1255.52 C 905.906 1251.86 905.667 1249.73 906.491 1245.57 z"/>
</svg>