<svg version="1.1" xmlns="http://www.w3.org/2000/svg" style="display: block;" viewBox="0 0 2048 2048" width="1024" height="1024" preserveAspectRatio="none">
<path transform="translate(0,0)" fill="rgb(248,249,250)" d="M 0 0 L 2048 0 L 2048 2048 L 0 2048 L 0 0 z"/>
<path transform="translate(0,0)" fill="rgb(71,73,73)" d="M 372.507 859.62 C 364.761 863.423 359.635 867.396 351.567 866.678 L 349.644 865.461 C 351.583 855.825 388.656 838.97 398.307 834.565 C 412.783 827.957 444.752 807.084 459.226 807.416 L 460.174 808.459 C 457.022 815.282 442.249 822.221 435.624 826.646 C 438.646 830.374 441.457 833.563 443.879 837.718 C 443.932 844.506 442.716 861.241 447.025 864.934 C 455.137 871.888 469.661 876.701 476.673 886.408 C 504.631 925.11 517.107 974.519 525.77 1020.88 C 527.684 1031.13 530.727 1044.67 531.398 1054.24 C 525.475 1055.2 518.829 1056.14 513.015 1057.34 C 510.219 1084.5 524.355 1116.88 536.876 1140.34 C 546.698 1158.74 554.711 1177.5 563.083 1196.61 L 559.472 1201.21 C 560.333 1202.84 559.866 1202.55 561.358 1203.29 C 569.041 1207.12 576.92 1217.64 581.667 1225.01 C 576.813 1229.51 572.472 1233.85 566.016 1235.9 C 564.395 1235.37 562.769 1234.85 561.139 1234.34 C 552.591 1241.38 528.724 1263.72 518.045 1250.97 C 517.242 1240.13 544.96 1229.34 534.947 1217.33 C 532.353 1217.04 529.829 1217.31 528.344 1214.77 C 518.025 1197.13 513.727 1183.65 502.957 1165.19 C 493.113 1148.33 473.995 1135.1 468.345 1117.24 C 465.341 1107.75 472.363 1070.71 469.31 1059.22 C 468.453 1058.76 467.595 1058.29 466.738 1057.83 C 464.193 1059.01 463.985 1058.5 463.035 1060.22 C 457.863 1061.29 430.793 1059.8 424.914 1058.62 L 421.214 1056.96 C 416.441 1056.87 411.492 1056.84 406.74 1056.67 C 417.675 1035.53 420.825 1017.89 424.046 994.425 C 415.432 998.189 407.025 1001.92 398.237 1005.28 C 406.243 1027.27 390.086 1045.66 368.568 1042.1 C 354.385 1068.38 340.768 1094.96 327.727 1121.82 L 332.714 1134.83 C 342.561 1142.14 349.497 1147.37 355.996 1158.06 C 369.073 1179.57 367.652 1207.65 352.578 1227.87 C 342.378 1241.31 327.237 1250.11 310.516 1252.33 C 299.485 1253.81 246.729 1253.1 233.782 1252.9 C 215.642 1252.62 161.075 1254.46 146.653 1251.85 C 136.098 1249.89 126.151 1245.48 117.616 1238.96 C 104.489 1228.71 96.1269 1213.54 94.4729 1196.96 C 90.8325 1163.74 108.975 1142.45 137.805 1129.52 C 146.831 1104.71 165.5 1084.59 189.573 1073.74 C 215.518 1062.13 245.042 1061.44 271.505 1071.82 C 294.28 1080.54 306.832 1091.37 321.346 1110.27 C 335.377 1087.15 346.223 1060.47 360.935 1037.5 C 347.013 1020.85 357.567 1004.4 376.677 999.776 C 384.832 979.955 391.694 962.961 401.821 944.183 C 420.018 953.062 422.633 954.984 425.575 974.99 C 429.408 956.865 428.486 950.597 410.268 942.609 C 419.228 923.668 428.03 911.643 418.775 890.849 C 414.618 899.312 406.799 907.742 395.812 902.762 C 383.429 897.149 394.625 884.86 377.879 884.215 L 376.33 882.746 C 376.719 880.335 376.968 879.386 377.669 877.039 C 375.519 870.834 373.733 866.088 372.507 859.62 z"/>
<path transform="translate(0,0)" fill="rgb(171,174,176)" d="M 421.214 1056.96 C 431.975 1057.39 457.348 1058.9 466.738 1057.83 C 464.193 1059.01 463.985 1058.5 463.035 1060.22 C 457.863 1061.29 430.793 1059.8 424.914 1058.62 L 421.214 1056.96 z"/>
<path transform="translate(0,0)" fill="rgb(248,249,250)" d="M 233.722 1087.44 C 277.275 1088.35 302.121 1114.45 314.461 1154.14 C 320.028 1156.69 324.31 1158.92 329.081 1162.83 C 345.069 1175.93 344.511 1203.04 330.403 1217.56 C 324.999 1223.07 318.115 1226.91 310.582 1228.59 C 301.354 1230.65 282.956 1229.57 272.933 1229.44 L 226.336 1229.2 L 177.495 1229.34 C 170.242 1229.35 156.856 1229.71 150.152 1228.51 C 144.896 1227.56 139.876 1225.59 135.375 1222.71 C 126.39 1217.04 120.178 1207.88 118.233 1197.43 C 116.286 1186.79 118.702 1175.81 124.936 1166.97 C 132.517 1156.41 142.855 1152.25 155.213 1150.41 C 168.743 1109.07 189.391 1090.43 233.722 1087.44 z"/>
<path transform="translate(0,0)" fill="rgb(71,73,73)" d="M 226.97 1099.27 C 233.201 1098.77 238.517 1102.14 237.061 1108.9 C 230.938 1116.17 220.944 1113.82 211.97 1117.32 C 189.412 1126.13 189.967 1139.94 182.198 1155.61 L 181.715 1156.57 C 162.206 1159.94 172.993 1136.21 178.424 1128.07 C 190.509 1109.96 206.369 1103.24 226.97 1099.27 z"/>
<path transform="translate(0,0)" fill="rgb(71,73,73)" d="M 293.481 1181.79 C 298.526 1180.69 303.539 1183.76 304.867 1188.74 C 306.196 1193.73 303.37 1198.88 298.449 1200.44 C 295.055 1201.52 291.345 1200.64 288.793 1198.16 C 286.24 1195.68 285.259 1191.99 286.239 1188.57 C 287.219 1185.15 290.002 1182.54 293.481 1181.79 z"/>
<path transform="translate(0,0)" fill="rgb(71,73,73)" d="M 971.235 879.509 C 1000.43 879.041 1040.31 881.961 1037.72 923.73 C 1036.99 935.352 1026.68 943.273 1017.99 949.789 C 1029.58 955.617 1038.89 960.097 1042.99 973.807 C 1045.65 983.061 1044.47 992.998 1039.71 1001.37 C 1032.31 1014.23 1020.52 1018.08 1007.35 1021.74 C 997.286 1023.59 981.782 1023.1 971.075 1023.1 L 918.286 1023.05 L 918.173 879.524 L 971.235 879.509 z"/>
<path transform="translate(0,0)" fill="rgb(248,249,250)" d="M 953.874 963.395 C 969.529 963.118 1026.35 959.213 1003.77 991.443 C 993.925 997.475 966.857 995.423 954.029 995.26 C 953.743 984.269 953.537 974.418 953.874 963.395 z"/>
<path transform="translate(0,0)" fill="rgb(248,249,250)" d="M 953.791 907.668 C 969.106 907.42 1016.2 903.119 998.401 932.805 C 988.583 939.323 966.197 937.273 953.732 937.071 C 953.566 927.43 953.756 917.345 953.791 907.668 z"/>
<path transform="translate(0,0)" fill="rgb(71,73,73)" d="M 722.926 879.297 L 757.373 879.156 L 757.72 973.419 C 757.796 988.188 757.95 1003.16 757.844 1017.94 C 757.816 1021.77 758.1 1021.61 756.095 1023.41 L 728.625 1023.3 C 708.803 998.548 680.141 962.921 662.012 937.59 C 662.587 966.041 662.779 994.498 662.59 1022.95 L 628.058 1022.96 C 628.334 975.028 628.304 927.1 627.968 879.173 L 659.259 879.192 C 680.222 906.83 702.182 933.609 723.093 961.137 L 722.926 879.297 z"/>
<path transform="translate(0,0)" fill="rgb(71,73,73)" d="M 1853.17 877.344 L 1887.03 877.57 L 1887.06 1024.62 L 1858.78 1024.76 C 1852.41 1017.8 1838.73 998.04 1832.55 989.699 C 1819.68 972.555 1806.5 955.65 1793.01 938.992 C 1792.82 963.762 1794.14 999.689 1792.53 1023.05 L 1791.07 1024.3 C 1780.76 1024.09 1769.85 1024.24 1759.49 1024.23 L 1759.54 878.006 L 1787.31 878.048 C 1793.53 888.016 1804.66 901.157 1812.28 910.97 C 1826.34 928.979 1840.14 947.185 1853.68 965.582 C 1851.91 941.716 1853.1 902.041 1853.17 877.344 z"/>
<path transform="translate(0,0)" fill="rgb(71,73,73)" d="M 1634.75 878.497 L 1667.45 878.483 L 1667.44 907.395 L 1597.01 907.417 L 1597.01 935.983 L 1659.23 936.151 L 1658.87 964.464 C 1638.32 964.195 1617.76 964.054 1597.21 964.043 L 1597.19 994.025 L 1638.04 994.098 L 1671.16 994.246 L 1671.16 1023.89 L 1562.73 1024 L 1562.32 878.794 L 1634.75 878.497 z"/>
<path transform="translate(0,0)" fill="rgb(71,73,73)" d="M 1065.51 879.438 L 1169.69 879.441 L 1169.22 907.929 L 1100.08 907.97 L 1100.11 936.135 C 1120.6 936.356 1141.52 936.156 1162.04 936.164 L 1161.96 963.77 C 1153.27 963.903 1105.05 962.572 1100.99 965.157 L 1101.01 994.545 L 1172.76 994.675 L 1172.67 1022.92 L 1064.73 1022.96 C 1064.69 1005.66 1062.39 883.924 1065.51 879.438 z"/>
<path transform="translate(0,0)" fill="rgb(71,73,73)" d="M 829.745 879.498 L 893.811 879.66 L 893.771 908.621 C 869.855 908.377 845.937 908.396 822.021 908.678 L 822.067 936.725 L 884.895 936.862 L 884.892 963.927 L 822.042 964.108 C 821.952 970.214 820.494 990.606 823.643 994.626 L 827.75 994.997 L 896.825 994.976 L 896.654 1023.01 L 787.127 1022.99 L 787.601 879.86 C 800.924 879.302 816.27 879.573 829.745 879.498 z"/>
<path transform="translate(0,0)" fill="rgb(71,73,73)" d="M 1355.64 877.402 C 1374.88 876.929 1393.82 882.243 1410 892.657 C 1406.91 901.151 1401.64 909.232 1397.88 919.897 C 1385.46 913.093 1358.02 901.768 1343.77 910.789 C 1341.58 912.178 1338.54 917.404 1339.09 919.592 C 1343.09 935.418 1374.39 934.872 1386.94 942.252 C 1395.35 945.582 1401.14 949.15 1407.78 955.682 C 1422.85 970.506 1417.73 997.649 1403.39 1011.37 C 1390.19 1024.01 1370.5 1025.48 1352.66 1025.12 C 1332.21 1024.18 1315.7 1016.17 1298.99 1005.18 C 1303.72 996.216 1307.09 988.703 1311.13 979.48 C 1327.49 988.994 1342.05 995.404 1361.25 995.755 C 1368.13 995.881 1383.2 989.212 1379.27 982.158 C 1369.28 964.239 1332.38 966.313 1316.58 951.948 C 1308.53 944.616 1304.44 939.699 1303.3 928.523 C 1301.04 892.421 1325.1 879.67 1355.64 877.402 z"/>
<path transform="translate(0,0)" fill="rgb(71,73,73)" d="M 424.914 1058.62 C 430.793 1059.8 457.863 1061.29 463.035 1060.22 C 467.644 1067.21 461.551 1092.8 461.383 1102.75 C 461.262 1109.96 464.909 1121.46 464.718 1125.97 C 463.62 1151.78 452.659 1181.37 444.344 1205.8 C 442.504 1211.21 438.978 1223.96 435.998 1227.31 L 430.608 1227.54 C 430.529 1227.67 428.202 1253.4 426.542 1259.73 C 413.458 1257.14 415.866 1255.02 407.224 1251.71 C 397.589 1248.02 383.994 1248.32 374.037 1241.5 C 369.958 1238.71 362.932 1234.62 368.525 1228.3 C 376.427 1221.74 398.53 1229.07 404.759 1222.68 C 405.173 1218.96 404.991 1220.09 402.224 1216.08 C 402.166 1211.03 403.422 1205.91 404.523 1200.96 C 411.122 1171.34 411.206 1140.37 415.181 1110.31 C 417.478 1092.95 421.134 1075.72 424.914 1058.62 z"/>
<path transform="translate(0,0)" fill="rgb(71,73,73)" d="M 1881.99 1171.55 L 1883.5 1173.61 L 1882.68 1176.23 C 1877.89 1178.56 1747.04 1178.05 1730.66 1178.06 L 1453.4 1178.01 L 616.126 1177.92 L 615.195 1177.17 C 614.567 1174.45 614.298 1175.69 615.623 1173.34 C 622.038 1170.72 705.956 1172.05 718.022 1172.05 L 917.766 1172.03 L 1881.99 1171.55 z"/>
<path transform="translate(0,0)" fill="rgb(71,73,73)" d="M 1425.03 879.238 L 1545.07 878.99 L 1545.07 907.483 C 1530.56 907.16 1515.57 907.355 1501.02 907.373 L 1501.09 979.5 L 1501.09 1023.05 L 1466.86 1023.03 L 1466.95 907.889 L 1425.27 907.829 C 1424.8 898.951 1425.05 888.253 1425.03 879.238 z"/>
<path transform="translate(0,0)" fill="rgb(71,73,73)" d="M 1195.78 879.234 L 1229.57 879.31 L 1229.63 994.681 L 1292.96 994.943 L 1293 1023.05 L 1195.73 1022.96 L 1195.78 879.234 z"/>
<path transform="translate(0,0)" fill="rgb(71,73,73)" d="M 1727.97 878.57 C 1729.72 881.508 1728.91 1009.41 1728.89 1024.11 L 1696.2 1024.08 L 1695.58 1023.47 C 1694.52 1019.6 1694.97 986.94 1694.96 981.222 L 1694.74 878.666 L 1727.97 878.57 z"/>
<path transform="translate(0,0)" fill="rgb(71,73,73)" d="M 786.617 1055.03 C 807.744 1050.94 828.153 1064.86 832.056 1086.02 C 835.958 1107.19 821.857 1127.47 800.66 1131.18 C 779.73 1134.85 759.756 1120.96 755.902 1100.07 C 752.048 1079.17 765.756 1059.07 786.617 1055.03 z"/>
<path transform="translate(0,0)" fill="rgb(248,249,250)" d="M 787.637 1064.28 C 797.997 1061.98 808.792 1065.44 815.883 1073.34 C 822.973 1081.24 825.258 1092.34 821.862 1102.39 C 818.466 1112.45 809.916 1119.89 799.49 1121.87 C 783.709 1124.87 768.445 1114.64 765.207 1098.91 C 761.969 1083.18 771.956 1067.76 787.637 1064.28 z"/>
<path transform="translate(0,0)" fill="rgb(71,73,73)" d="M 931.066 1056.07 C 948.209 1055.95 974.719 1053.33 987.878 1065.3 C 1004.46 1080.38 1003.19 1103.73 989.344 1119.85 C 972.828 1134.27 952.073 1131.37 931.112 1131.2 L 931.066 1056.07 z"/>
<path transform="translate(0,0)" fill="rgb(248,249,250)" d="M 940.976 1064.33 C 954.039 1064.12 970.469 1062.96 980.744 1071.87 C 986.426 1076.84 989.795 1083.95 990.05 1091.5 C 990.444 1101.02 987.377 1107.57 981.138 1114.4 C 967.8 1124.08 956.708 1122.83 940.986 1122.37 C 940.836 1103.02 940.833 1083.68 940.976 1064.33 z"/>
<path transform="translate(0,0)" fill="rgb(71,73,73)" d="M 1181 1055.74 C 1204.81 1055.39 1250.17 1049.88 1237.14 1092.87 C 1235.33 1098.84 1228.5 1102.62 1223.02 1104.85 C 1227.96 1110.89 1238.71 1123.51 1241.58 1130.02 C 1239.93 1131.43 1234.32 1131 1231.52 1131.06 C 1225.6 1122.59 1219.57 1114.2 1213.43 1105.89 L 1190.77 1105.74 C 1190.88 1111.23 1192.01 1127.19 1189.08 1130.79 C 1186.01 1130.89 1184.51 1131.25 1181.83 1129.77 C 1180.08 1123.49 1180.95 1066.5 1181 1055.74 z"/>
<path transform="translate(0,0)" fill="rgb(248,249,250)" d="M 1190.83 1064.09 C 1201.71 1063.99 1213.48 1063.02 1223.37 1068.43 C 1233.94 1074.21 1231.92 1084.89 1225.73 1093.44 C 1217.08 1099.25 1201.54 1097.61 1190.78 1097.46 L 1190.83 1064.09 z"/>
<path transform="translate(0,0)" fill="rgb(71,73,73)" d="M 1637.92 1055.82 C 1641.53 1055.62 1644.63 1054.96 1647.71 1056.58 C 1651.64 1063 1682.34 1126.24 1681.71 1130.49 C 1677.7 1131.13 1677.43 1131.3 1673.65 1130.2 C 1670.85 1128.13 1665.12 1114.37 1662.97 1110.05 L 1645.75 1110.05 L 1622.65 1109.93 C 1617.45 1119.11 1616.6 1131.63 1604.33 1130.87 L 1603.56 1129.61 C 1608.09 1116.25 1630.87 1069.31 1637.92 1055.82 z"/>
<path transform="translate(0,0)" fill="rgb(248,249,250)" d="M 1642.28 1067.62 C 1646.33 1071.69 1656.17 1095.65 1658.88 1102.02 L 1643.41 1102.09 L 1626.03 1101.96 C 1631.09 1090.52 1636.39 1078.62 1642.28 1067.62 z"/>
<path transform="translate(0,0)" fill="rgb(71,73,73)" d="M 1729.07 1054.43 C 1737.14 1054.64 1752.09 1056.4 1756.94 1063.8 C 1751.3 1074.07 1746.28 1064.78 1735.19 1063.55 C 1715.43 1061.36 1700.13 1071.19 1699.27 1091.82 C 1698.99 1099.91 1701.97 1107.76 1707.55 1113.62 C 1717.19 1123.9 1738.24 1128.22 1748.89 1117.44 C 1753.35 1112.92 1752.07 1103.71 1751.97 1097.7 C 1743.63 1097.83 1735.28 1097.77 1726.94 1097.52 C 1727.03 1094.39 1726.69 1092.22 1728.45 1089.71 C 1733.33 1088.58 1755.02 1089.17 1761.52 1089.23 C 1761.52 1099.84 1761.59 1109.59 1760.8 1120.2 C 1745.15 1133.98 1720.99 1136.91 1704.08 1123.76 C 1695.66 1117.18 1690.26 1107.48 1689.1 1096.86 C 1686.2 1070.93 1705.02 1056.26 1729.07 1054.43 z"/>
<path transform="translate(0,0)" fill="rgb(71,73,73)" d="M 409.904 794.18 C 423.579 793.706 428.996 802.984 434.157 813.822 C 413.783 822.633 400.473 829.414 380.821 840.132 L 366.303 848.472 C 364.038 838.2 361.854 828.135 366.877 818.238 C 372.439 807.281 398.254 797.041 409.904 794.18 z"/>
<path transform="translate(0,0)" fill="rgb(71,73,73)" d="M 1440.38 1055.06 C 1448.24 1055.09 1489.8 1053.68 1492.75 1056.74 C 1492.81 1059.45 1493.16 1061.36 1491.87 1063.69 C 1484.22 1064.76 1459.81 1064.07 1450.82 1064 L 1450.65 1088.72 C 1458.27 1088.75 1484.63 1086.54 1489.01 1091.26 C 1489.08 1095.12 1489.79 1093.66 1487.83 1096.2 C 1478.51 1097.48 1460.66 1096.81 1450.33 1096.79 C 1449.71 1101.75 1450.1 1116.65 1450.1 1122.33 C 1459.9 1122.46 1485.29 1120.36 1494.06 1124.34 C 1495.36 1124.93 1494.87 1126.85 1494.9 1128.93 C 1490.92 1132.6 1448.32 1131 1440.72 1130.98 L 1440.38 1055.06 z"/>
<path transform="translate(0,0)" fill="rgb(71,73,73)" d="M 1111.32 1055.34 C 1120.81 1055.45 1158.34 1054.36 1163.81 1057.22 C 1163.86 1060.81 1164.33 1059.25 1162.6 1062.17 C 1155.41 1066.2 1130.95 1064.4 1120.93 1064.3 L 1120.94 1088.44 C 1129.23 1088.79 1153.24 1087.27 1158.83 1090.1 C 1159.03 1093.68 1159.51 1092.14 1157.56 1094.95 C 1151.05 1098.35 1131.03 1096.8 1122.1 1096.74 C 1119.89 1099.48 1120.83 1117.49 1120.88 1122.18 C 1132.05 1122.42 1153.77 1120.55 1162.95 1123.68 C 1165.68 1126.35 1164.92 1124.73 1164.96 1128.85 C 1160.99 1132.35 1118.73 1130.82 1111.27 1130.79 L 1111.32 1055.34 z"/>
<path transform="translate(0,0)" fill="rgb(71,73,73)" d="M 1534.53 1054.34 C 1542.38 1054.02 1558.89 1055.96 1560.42 1065.57 L 1558.69 1067.49 C 1554.04 1068.19 1546.47 1064.11 1540.38 1062.55 C 1533.54 1059.84 1514.26 1066.71 1517.01 1075.91 C 1522.07 1092.84 1563.3 1086.32 1564.17 1108.88 C 1564.91 1128.23 1548.14 1131.4 1532.3 1131.94 C 1524.17 1130.79 1514.12 1128.79 1507.28 1122.74 C 1506.42 1121.98 1506.94 1120.22 1507.07 1118.65 C 1512.7 1114.86 1529.83 1124.64 1538.28 1123.65 C 1546.26 1122.71 1555.73 1118.96 1554.53 1109.15 C 1548.52 1097.17 1525.55 1098.43 1516.68 1090.82 C 1494.78 1072.04 1513.4 1056.59 1534.53 1054.34 z"/>
<path transform="translate(0,0)" fill="rgb(71,73,73)" d="M 1060.78 1055.12 C 1069.7 1054.45 1092.38 1054.28 1092.3 1066.48 C 1086.59 1071.22 1059.06 1055.16 1052.71 1068.92 C 1040.44 1095.48 1094.62 1083.63 1095.75 1106.99 C 1096.74 1127.3 1085.36 1130.3 1068.2 1131.79 C 1066.87 1131.7 1065.55 1131.58 1064.23 1131.43 C 1055.29 1130.52 1037.98 1128.27 1040.28 1116.16 C 1050.5 1115.39 1075.91 1133.94 1085.72 1115.35 C 1090.99 1105.35 1078.54 1100.72 1071.12 1098.99 C 1053.55 1094.89 1033.13 1088.67 1043.69 1066.08 C 1046.77 1059.5 1054.42 1056.92 1060.78 1055.12 z"/>
<path transform="translate(0,0)" fill="rgb(71,73,73)" d="M 848.753 1055.07 C 851.248 1055.05 854.605 1054.62 856.891 1055.67 C 859.199 1056.73 857.715 1093.91 858.2 1098.95 C 858.581 1102.92 859.409 1106.88 860.969 1110.56 C 863.03 1115.42 866.346 1120.34 871.521 1122.22 C 877.514 1124.39 884.599 1122.07 890.004 1119.32 C 911.711 1108.24 895.752 1075.41 902.431 1057.38 C 903.065 1055.67 903.428 1055.88 904.942 1055.11 C 911.144 1056.6 910.426 1057.53 910.713 1062.75 C 910.64 1079.08 913.741 1113.19 902.899 1121.51 C 868.066 1148.22 842.584 1118.3 848.711 1081.42 C 849.292 1077.92 848.748 1057.21 848.753 1055.07 z"/>
<path transform="translate(0,0)" fill="rgb(71,73,73)" d="M 1391.08 1054.15 C 1406.73 1052.95 1413.5 1055.51 1425.78 1064.54 C 1423.8 1066.27 1421.43 1068.66 1419.49 1070.52 C 1410.42 1065.31 1401.27 1061.43 1390.53 1063.74 C 1382.97 1065.41 1376.43 1070.13 1372.48 1076.79 C 1367.97 1084.17 1366.72 1093.08 1369.03 1101.42 C 1374.19 1120.27 1390.36 1126.5 1408.25 1121.65 L 1412.93 1118.71 C 1416.53 1116.41 1419.02 1114.74 1423.38 1116.88 C 1425.09 1123.19 1415.31 1128.19 1410.45 1129.91 C 1399.95 1133.63 1387.28 1132.54 1377.49 1127.29 C 1368.24 1122.31 1361.5 1113.67 1358.94 1103.48 C 1352.6 1078.82 1367.36 1059.8 1391.08 1054.15 z"/>
<path transform="translate(0,0)" fill="rgb(71,73,73)" d="M 650.085 1055.11 C 652.134 1054.99 654.185 1054.91 656.237 1054.87 C 661.923 1054.79 683.083 1058.37 681.896 1065.96 C 681.007 1066.79 679.969 1067.76 678.783 1068.87 C 666.953 1067.22 664.625 1060.89 651.484 1063.57 C 643.159 1065.19 635.863 1070.15 631.297 1077.3 C 627.064 1083.91 625.775 1091.98 627.738 1099.57 C 632.757 1119.48 648.278 1126.27 667.094 1120.4 C 671.112 1117.94 677.625 1112.86 681.285 1118.15 C 678.819 1134.01 649.275 1133.3 637.467 1127.31 C 628.156 1122.59 621.274 1114.15 618.521 1104.09 C 615.58 1093.87 616.904 1082.9 622.191 1073.68 C 628.853 1062.29 638.103 1058.25 650.085 1055.11 z"/>
<path transform="translate(0,0)" fill="rgb(71,73,73)" d="M 1252.6 1054.96 L 1255.33 1055.79 C 1258.73 1059.58 1278.82 1108.06 1282.19 1115.95 C 1285.87 1107.79 1305.41 1058.1 1309.66 1055.87 C 1313.99 1056.08 1313.14 1055.39 1315.98 1057.6 C 1316.51 1061.6 1313.32 1067.26 1311.55 1071.25 C 1307.83 1080.75 1302.41 1091.51 1298.25 1101.02 C 1294.23 1110.23 1289.84 1121.76 1285.14 1130.4 C 1282.85 1131.41 1281.34 1130.74 1278.85 1130.19 C 1274.8 1126.96 1249.4 1065.63 1246.69 1057.38 C 1248.48 1055.04 1248.79 1055.71 1252.6 1054.96 z"/>
<path transform="translate(0,0)" fill="rgb(71,73,73)" d="M 698.496 1055.74 C 701.949 1055.64 705.016 1055.13 707.661 1056.74 C 708.921 1069.3 707.877 1107.94 707.794 1122.27 C 719.224 1122.23 737.069 1121.71 747.943 1122.68 C 749.638 1125.21 749.097 1127.67 748.986 1130.84 C 732.145 1130.69 715.302 1130.72 698.46 1130.92 L 698.496 1055.74 z"/>
<path transform="translate(0,0)" fill="rgb(71,73,73)" d="M 1332.19 1055.44 C 1336.72 1055.4 1337.26 1054.66 1340.62 1056.55 C 1341.43 1064.16 1341.33 1127.9 1339.72 1131.2 C 1335.74 1131.24 1333.23 1132.07 1330.68 1128.93 C 1330.79 1120.39 1330.27 1058.62 1332.19 1055.44 z"/>
</svg>