<svg version="1.1" xmlns="http://www.w3.org/2000/svg" style="display: block;" viewBox="0 0 2048 1462" width="1434" height="1024" preserveAspectRatio="none">
<path transform="translate(0,0)" fill="rgb(255,255,255)" d="M 0 0 L 2048 0 L 2048 1462 L 0 1462 L 0 0 z"/>
<path transform="translate(0,0)" fill="rgb(23,43,62)" d="M 1059.19 66.4237 C 1168.05 62.5336 1274.39 99.796 1357.02 170.789 C 1433.28 237.163 1487.03 328.305 1494.05 430.347 C 1508.1 430.568 1521.49 430.849 1535.46 432.591 C 1595.38 440.458 1649.88 471.376 1687.37 518.778 C 1728.62 571.819 1743.27 626.842 1734.88 693.121 C 1784.34 697.325 1826.25 706.976 1867.95 736.445 C 1922.47 774.393 1959.51 832.613 1970.78 898.08 C 1981.65 961.95 1962.95 1029.39 1925.6 1081.67 C 1896.59 1121.92 1855.95 1152.31 1809.14 1168.76 C 1784.55 1177.53 1742.52 1182.81 1715.35 1186.99 L 1564.34 1209.5 L 1135.87 1273.29 C 1081.09 1281 1026.35 1289 971.663 1297.3 C 952.482 1300.14 932.821 1302.3 913.765 1305.49 C 882.046 1309.43 848.625 1315.4 816.705 1319.89 L 636.235 1344.63 C 579.116 1352.85 521.526 1363.31 464.374 1371.13 C 445.083 1373.77 417.814 1370.99 398.099 1371.32 C 336.257 1372.36 275.899 1373.86 219.483 1343.86 C 154.017 1311.15 108.393 1259.06 84.5306 1190.21 C 63.2375 1126.72 68.0209 1057.38 97.8296 997.422 C 126.948 937.486 184.752 885.984 248.214 864.716 C 259.586 860.905 271.356 858.113 282.736 854.183 C 277.368 835.276 271.924 814.728 270.636 795.025 C 265.351 714.186 303.927 632.275 370.206 585.479 C 402.964 562.35 446.416 544.524 486.852 541.695 C 494.082 499.125 499.515 475.221 523.423 437.876 C 553.32 391.825 598.235 357.542 650.54 340.85 C 661.015 337.441 672.956 334.985 683.795 332.599 C 688.662 321.779 692.311 311.901 697.604 300.959 C 712.769 269.629 732.178 240.539 755.284 214.508 C 836.047 123.313 937.71 73.804 1059.19 66.4237 z"/>
<path transform="translate(0,0)" fill="rgb(255,255,255)" d="M 1141.93 101.455 C 1158.6 101.212 1195.76 102.552 1211.51 107.703 C 1344.79 151.292 1470.9 287.06 1476.16 430.901 C 1464.38 431.651 1452.61 432.656 1440.87 433.914 C 1404.74 438.119 1366.24 446.999 1331.33 457.139 C 1169.48 504.374 1026.1 600.32 920.713 731.927 C 816.106 863.887 750.512 1007.98 726.218 1175.47 C 720.452 1215.23 715.356 1274.66 719.989 1314.74 C 702.068 1315.34 664.347 1321.45 645.452 1324.19 C 601.729 1330.54 558.051 1337.2 514.422 1344.17 C 494.252 1347.68 474.79 1351.65 454.366 1353.09 C 389.205 1357.68 323.085 1327.34 275.517 1283.9 C 231.135 1242.99 208.803 1187.59 205.05 1128.4 C 197.222 1004.94 298.737 883.444 425.348 878.954 C 412.853 849.463 406.348 829.016 404.733 797.091 C 398.907 681.91 489.371 573.955 607.202 570.839 C 612.062 509.043 633.177 460.747 679.93 418.504 C 721.041 381.359 762.446 367.146 816.58 359.339 C 817.695 350.444 821.752 338.553 824.697 329.956 C 871.697 192.737 998.263 106.137 1141.93 101.455 z"/>
<path transform="translate(0,0)" fill="rgb(23,43,62)" d="M 1179.23 140.153 C 1188 140.481 1198.89 143.09 1207.44 145.453 C 1283.38 166.902 1347.88 217.304 1387.04 285.817 C 1393.7 297.562 1415.32 340.262 1411.94 352.446 C 1406.54 350.388 1399.83 335.97 1396.54 330.271 C 1390.17 319.453 1383.54 308.793 1376.65 298.299 C 1370.36 288.891 1360.9 277.256 1353.43 268.742 C 1317.28 226.719 1273.64 191.766 1224.74 165.658 C 1218.24 162.127 1211.56 158.508 1204.99 155.206 C 1200.04 152.72 1182.34 146.347 1179.14 143.411 L 1179.23 140.153 z"/>
<path transform="translate(0,0)" fill="rgb(23,43,62)" d="M 782.827 395.34 L 783.403 395.975 C 782.886 397.812 761.864 411.433 758.587 413.751 C 707.435 449.919 671.862 495.524 650.364 554.836 C 647.785 562.168 645.704 569.666 644.134 577.278 C 643.127 582.313 640.278 603.398 637.995 605.888 L 634.814 605.742 C 633.37 603.344 632.198 600.643 631.891 597.834 C 622.344 510.44 695.978 409.89 782.827 395.34 z"/>
<path transform="translate(0,0)" fill="rgb(255,255,255)" d="M 1516.37 448.954 C 1553.41 448.905 1601.06 466.941 1631.43 488.663 C 1683.91 526.189 1717.6 589.077 1720.19 653.694 C 1720.48 660.863 1719.87 669.664 1719.29 677.005 C 1718.48 686.773 1715.16 699.675 1716.44 709.257 C 1716.68 711.076 1753.47 711.668 1757.8 712.233 C 1794.41 717.219 1829.3 730.891 1859.55 752.106 C 1909.51 787.465 1943.37 841.219 1953.7 901.546 C 1963.56 961.978 1945.95 1022 1910.47 1071.19 C 1885.22 1106.45 1850.09 1133.43 1809.51 1148.72 C 1779.76 1159.84 1747.76 1162.68 1716.46 1167.25 L 1620.71 1181.67 C 1501.64 1200.13 1382.46 1217.95 1263.2 1235.14 C 1203.44 1243.38 1143.75 1252.05 1084.12 1261.15 C 1062.93 1263.23 1032.84 1268.75 1010.76 1271.81 C 946.148 1281.05 881.59 1290.65 817.089 1300.63 C 830.684 1289.05 852.765 1272.9 867.793 1262.77 C 1069.69 1128.82 1316.18 1079.64 1554.02 1125.86 C 1407.1 963.549 1395.36 689.38 1488.84 498.982 C 1495.85 484.698 1506.88 460.849 1516.37 448.954 z"/>
<path transform="translate(0,0)" fill="rgb(23,43,62)" d="M 1906.23 894.424 C 1910.14 896.141 1912.3 897.093 1913.02 901.785 C 1927.87 997.907 1881.87 1085.28 1786.84 1112.78 C 1783.61 1113.25 1782.03 1113.32 1779.53 1111.4 C 1779.81 1109.27 1780.83 1107.71 1782.85 1106.75 C 1849.53 1075.16 1895.88 1004.61 1902.8 931.64 C 1903.57 923.574 1902.68 900.039 1906.23 894.424 z"/>
<path transform="translate(0,0)" fill="rgb(23,43,62)" d="M 1536.39 487.267 C 1579.7 489.428 1631.51 528.764 1654.58 564.021 C 1676.11 596.914 1690.47 644.02 1682.78 683.197 C 1679.6 682.989 1679.47 682.967 1676.59 681.672 C 1674.43 678.766 1673.36 661.381 1672.51 656.184 C 1661.33 588.271 1611 526.65 1549.21 497.689 C 1544.57 495.511 1540.04 495.415 1535.81 492.396 C 1534.84 489.284 1534.81 490.636 1536.39 487.267 z"/>
<path transform="translate(0,0)" fill="rgb(238,176,89)" d="M 782.327 1210.02 C 785.458 1197.93 812.703 1144.34 819.696 1130.41 C 921.396 927.949 1100.49 757.198 1301.44 654.537 C 1342.49 633.568 1387.93 612.183 1431.9 597.742 C 1415.6 663.655 1406.1 717.758 1408.78 785.964 C 1409.69 805.881 1410.92 834.112 1415.17 853.287 C 1272.43 882.309 1098.12 970.628 982.5 1058.76 C 931.267 1098.58 883.425 1142.59 839.463 1190.32 C 810.205 1222.33 784.07 1258.16 758.77 1293.37 C 755.76 1297.55 753.114 1301.75 749.944 1305.86 C 758.745 1273.27 769.561 1241.26 782.327 1210.02 z"/>
<path transform="translate(0,0)" fill="rgb(255,255,255)" d="M 782.327 1210.02 C 785.49 1207.28 799.858 1184.55 804.325 1178.57 C 821.174 1156.21 838.828 1134.48 857.253 1113.4 C 942.936 1017.02 1058.4 936.495 1171.71 874.93 C 1235.26 840.405 1305.45 814.047 1374.91 794.274 C 1381 792.54 1404.7 784.883 1408.78 785.964 C 1409.69 805.881 1410.92 834.112 1415.17 853.287 C 1272.43 882.309 1098.12 970.628 982.5 1058.76 C 931.267 1098.58 883.425 1142.59 839.463 1190.32 C 810.205 1222.33 784.07 1258.16 758.77 1293.37 C 755.76 1297.55 753.114 1301.75 749.944 1305.86 C 758.745 1273.27 769.561 1241.26 782.327 1210.02 z"/>
<path transform="translate(0,0)" fill="rgb(206,74,69)" d="M 744.848 1174.34 C 744.974 1164.45 758.887 1101.41 761.815 1090.06 C 797.841 945.946 869.322 813.121 969.756 703.667 C 1102.14 558.677 1296.56 457.107 1494.3 447.865 C 1491 455.333 1484.5 466.17 1480.52 473.834 C 1472.67 489.102 1465.32 504.624 1458.5 520.377 C 1450.52 539.663 1443.29 557.314 1437.69 577.536 C 1394.54 589.415 1334.71 617.213 1294.55 637.765 C 1095.66 737.874 930.935 894.733 821.219 1088.49 C 788.622 1145.87 749.893 1243.38 736.194 1308.14 C 734.515 1276.05 736.414 1206.14 744.848 1174.34 z"/>
<path transform="translate(0,0)" fill="rgb(255,255,255)" d="M 744.848 1174.34 C 761.609 1138.04 775.435 1102.03 793.407 1065.02 C 827.931 995.414 870.255 929.961 919.563 869.918 C 934.171 852.295 950.596 834.892 966.279 818.188 C 1082.55 694.349 1225.42 594.733 1386.77 539.545 C 1409.45 531.791 1434.56 522.611 1458.5 520.377 C 1450.52 539.663 1443.29 557.314 1437.69 577.536 C 1394.54 589.415 1334.71 617.213 1294.55 637.765 C 1095.66 737.874 930.935 894.733 821.219 1088.49 C 788.622 1145.87 749.893 1243.38 736.194 1308.14 C 734.515 1276.05 736.414 1206.14 744.848 1174.34 z"/>
<path transform="translate(0,0)" fill="rgb(206,74,69)" d="M 819.17 1238.86 C 822.37 1233.57 831.849 1223.85 836.209 1218.86 C 852.797 1199.86 870.567 1183.25 888.383 1165.63 C 1014.23 1042.3 1166.79 949.613 1334.23 894.749 C 1361.17 885.726 1390.41 877.951 1417.8 870.482 C 1428.73 935.083 1448.4 990.933 1478.22 1049.1 C 1487.81 1069.31 1499.57 1083.08 1508.24 1100 C 1330.97 1075.26 1150.32 1101.15 987.131 1174.69 C 933.657 1198.86 878.755 1230.34 831.939 1265.76 C 821.249 1273.85 793.407 1297.06 784.54 1306.58 C 775.201 1308.91 766.061 1309.87 756.528 1311.08 C 772.259 1289.33 789.612 1268.8 808.438 1249.66 C 809.742 1248.33 818.079 1239.66 819.17 1238.86 z"/>
<path transform="translate(0,0)" fill="rgb(255,255,255)" d="M 819.17 1238.86 C 822.652 1237.79 833.892 1229.26 836.807 1226.6 C 878.632 1188.4 929.627 1156.5 981.278 1133.1 C 1121.56 1069.52 1278.34 1036.4 1432.51 1045.42 C 1447.77 1046.31 1462.85 1048.48 1478.22 1049.1 C 1487.81 1069.31 1499.57 1083.08 1508.24 1100 C 1330.97 1075.26 1150.32 1101.15 987.131 1174.69 C 933.657 1198.86 878.755 1230.34 831.939 1265.76 C 821.249 1273.85 793.407 1297.06 784.54 1306.58 C 775.201 1308.91 766.061 1309.87 756.528 1311.08 C 772.259 1289.33 789.612 1268.8 808.438 1249.66 C 809.742 1248.33 818.079 1239.66 819.17 1238.86 z"/>
<path transform="translate(0,0)" fill="rgb(255,255,255)" d="M 314.206 868.403 C 328.31 866.032 353.809 868.674 367.945 871.879 C 362.175 873.869 356.434 875.942 350.724 878.1 C 286.239 902.535 237.312 952.144 209.285 1014.74 C 182.496 1075.51 180.567 1144.36 203.912 1206.54 C 233.091 1282.5 284.436 1322.71 356.668 1354.86 C 342.447 1354.88 325.896 1355 311.755 1353.51 C 264.76 1347.9 216.465 1328.2 179.646 1298.37 C 129.288 1258.17 97.1286 1199.48 90.35 1135.4 C 76.2286 997.191 177.959 882.313 314.206 868.403 z"/>
<path transform="translate(0,0)" fill="rgb(255,255,255)" d="M 505.685 556.446 C 521.997 555.553 542.544 557.962 558.857 559.743 C 435.272 597.474 365.137 714.545 393.943 842.102 C 395.278 848.013 396.863 853.894 398.373 859.766 C 387.075 856.528 369.767 853.971 358.146 852.286 C 338.032 849.626 319.636 850.302 299.454 851.561 C 290.328 822.059 285.536 796.347 288.039 765.364 C 297.513 648.051 388.469 563.4 505.685 556.446 z"/>
<path transform="translate(0,0)" fill="rgb(255,255,255)" d="M 1068.64 83.4036 C 1084.83 82.6968 1101.06 83.6356 1117.07 86.2055 C 1039.34 91.5673 974.898 118.316 914.778 167.935 C 854.017 218.084 825.529 269.318 801.079 342.653 C 788.602 337.28 771.657 334.425 758.314 332.327 C 740.256 329.373 721.8 329.567 703.579 330.11 C 720.524 292.959 742.526 257.079 769.535 226.315 C 849 135.799 949.243 90.9465 1068.64 83.4036 z"/>
<path transform="translate(0,0)" fill="rgb(255,255,255)" d="M 705.029 347.393 C 726.063 345.264 746.872 347.243 767.559 351.112 C 668.567 381.233 608.037 448.535 591.623 550.716 L 571.63 545.676 C 550.154 539.787 527.773 538.978 505.66 539.03 C 518.808 433.506 600.021 358.374 705.029 347.393 z"/>
</svg>