<svg version="1.1" xmlns="http://www.w3.org/2000/svg" style="display: block;" viewBox="0 0 2048 2048" width="1024" height="1024" preserveAspectRatio="none">
<path transform="translate(0,0)" fill="rgb(250,250,249)" d="M 0 0 L 2048 0 L 2048 2048 L 0 2048 L 0 0 z"/>
<path transform="translate(0,0)" fill="rgb(55,54,53)" d="M 1552.06 1177.38 C 1562.27 1177.83 1572.12 1181.26 1580.38 1187.26 C 1595.04 1197.91 1602.52 1216.25 1602.56 1234.01 C 1602.57 1243.24 1601.4 1251.17 1603.38 1260.36 C 1595.19 1257.38 1588.46 1255.15 1580.1 1252.74 C 1574.25 1264.57 1575.18 1258.35 1568.6 1264.45 C 1561.74 1270.83 1558.61 1286.19 1544.01 1279.47 C 1540.43 1277.82 1540.76 1272.9 1539.4 1269.1 L 1537.79 1268.52 C 1532.67 1274.73 1531.91 1273.59 1523.15 1275.22 C 1525.63 1287.68 1533.23 1297.18 1534.44 1304.96 C 1538.24 1329.53 1526.8 1362.69 1523.5 1388.45 C 1528.8 1399.48 1535.11 1407.54 1534.74 1420.58 L 1534.45 1431.76 C 1540.72 1436.94 1542.78 1438 1545.15 1445.92 C 1549.29 1459.78 1550.17 1464.63 1542.17 1475.82 C 1570.17 1525.85 1596.56 1579.78 1624.75 1629.14 C 1644.14 1627.73 1682.45 1623.96 1699.41 1622.83 C 1732.78 1620.61 1907.55 1612 1927.95 1624.36 C 1927.59 1624.51 1836.33 1627.92 1828.54 1628.29 C 1733.48 1632.8 1641.21 1639.69 1546.77 1652.1 C 1481.81 1660.61 1416.36 1673.54 1353 1690.07 C 1346.2 1691.85 1338.47 1693.67 1331.57 1695.07 C 1284.92 1704.54 1240.11 1720.37 1194.41 1732.95 C 1232.94 1713.42 1280.28 1697.53 1321.95 1685.97 C 1320.72 1678.21 1321.67 1669.18 1319.82 1661.77 C 1319.55 1660.68 1316.74 1660.42 1315.17 1660.03 C 1306.99 1647.14 1350.8 1513.36 1351.21 1491.95 C 1351.55 1474.24 1339.44 1442.64 1335.22 1423.95 C 1329.32 1397.84 1320.99 1389.33 1323.82 1360.4 C 1321.31 1359.21 1318.85 1357.93 1316.43 1356.56 C 1304.07 1349.45 1301.21 1335.45 1309.94 1323.98 C 1323.64 1305.97 1333.19 1316.52 1345.36 1328.38 L 1353.14 1318.53 C 1350.2 1307.08 1353.23 1276.24 1363.44 1270.15 C 1393.6 1252.15 1458.33 1240.03 1492.2 1243.12 C 1499.5 1234.35 1506 1228.77 1513.24 1219.01 L 1502.13 1211.68 C 1519.8 1191.58 1521.27 1181.95 1552.06 1177.38 z"/>
<path transform="translate(0,0)" fill="rgb(250,250,249)" d="M 1442.81 1393.85 C 1449.33 1397.8 1482.94 1432.24 1490.35 1439.81 C 1484.11 1443.94 1477.27 1451.7 1482.56 1459.35 C 1489.71 1469.71 1507.32 1472.53 1518.77 1475.04 C 1521.83 1478.49 1528.12 1481.73 1529.58 1484.21 C 1539.3 1500.67 1548.32 1517.72 1557.33 1534.58 C 1574.53 1566.17 1591.42 1597.92 1607.99 1629.83 C 1605.54 1631.55 1604.29 1631.02 1600.76 1631.28 C 1569.3 1634.24 1541.17 1637.98 1509.99 1642.62 C 1514.1 1621.51 1505.19 1624.55 1489.6 1626.57 C 1489.02 1626.64 1485.02 1620.87 1484.38 1620.45 C 1479.71 1617.41 1474.21 1620.73 1469.5 1617.7 C 1461.53 1607.82 1468.47 1519.09 1468.24 1501.31 C 1467.88 1472.19 1455.39 1446.77 1449.01 1418.55 C 1447.19 1410.49 1443.91 1401.95 1442.81 1393.85 z"/>
<path transform="translate(0,0)" fill="rgb(250,250,249)" d="M 1408.71 1513.43 C 1409.27 1513.72 1410.26 1514.56 1410.8 1514.98 C 1418.18 1542.74 1413.41 1586.08 1418.47 1615.64 C 1421.12 1631.15 1426.37 1644.55 1426.94 1659.83 C 1419.94 1661.29 1395.92 1666.64 1390.01 1666.78 C 1385.82 1644.97 1372.18 1652.55 1370.02 1647.38 C 1365.63 1636.85 1402.09 1528.64 1408.71 1513.43 z"/>
<path transform="translate(0,0)" fill="rgb(250,250,249)" d="M 1547.85 1189.15 C 1579.54 1187.56 1594.65 1216.3 1590.72 1244.82 L 1571.34 1235.72 C 1560.2 1231.02 1527.63 1216.74 1518.5 1210.06 C 1526.36 1198.13 1534.3 1192.73 1547.85 1189.15 z"/>
<path transform="translate(0,0)" fill="rgb(250,250,249)" d="M 1482.99 1351.12 C 1485.15 1355.21 1484.73 1378.33 1485.66 1385.41 C 1488.02 1403.5 1495.64 1417.85 1500.36 1434.18 C 1493.84 1428.69 1485.41 1420.24 1479.03 1414.22 C 1471.31 1406.16 1443.93 1379.96 1440.06 1373.69 C 1454.26 1365.96 1468.57 1358.43 1482.99 1351.12 z"/>
<path transform="translate(0,0)" fill="rgb(250,250,249)" d="M 1328.06 1326.5 L 1329.32 1327.11 C 1331.43 1330.13 1327.32 1340.98 1327.29 1346.23 L 1325.34 1346.73 C 1314.14 1337.56 1317.24 1333.49 1328.06 1326.5 z"/>
<path transform="translate(0,0)" fill="rgb(250,250,249)" d="M 1553.5 1259.4 L 1556.39 1260.42 C 1560.84 1265.46 1558 1268.9 1554.3 1273.38 C 1552.68 1273.2 1551.16 1272.9 1549.55 1272.63 C 1545.3 1267.37 1549.65 1263.5 1553.5 1259.4 z"/>
<path transform="translate(0,0)" fill="rgb(250,250,249)" d="M 1552.03 1245.42 L 1555.64 1246.14 L 1556.45 1247.39 C 1555.42 1250.36 1551.37 1252.56 1548.57 1254.52 C 1547.33 1254.81 1547.06 1254.63 1545.72 1254.52 L 1545.85 1252.51 C 1548.23 1248.52 1548.37 1248.38 1552.03 1245.42 z"/>
<path transform="translate(0,0)" fill="rgb(55,54,53)" d="M 362.402 594.371 C 366.752 593.91 373.077 594.461 377.267 595.042 C 396.116 597.654 404.605 610.579 417.627 622.172 C 420.637 624.687 429.794 628.888 431.229 632.034 C 434.04 638.197 414.427 649.085 410.837 651.302 C 410.955 660.903 411.13 670.502 411.362 680.1 C 405.485 685.007 398.37 689.716 391.964 695.001 C 401.797 727.808 409.285 720.7 431.719 738.231 C 437.984 743.126 443.45 755.522 446.882 762.948 C 452.225 753.07 459.324 742.65 464.348 733.175 C 477.921 707.572 474.933 695.144 508.376 693.876 C 513.49 689.154 531.265 659.288 536.687 676.012 C 535.252 684.597 525.874 693.7 520.527 702.278 L 519.811 703.445 C 521.709 714.504 518.787 719.488 519.121 730.214 C 512.34 742.602 498.05 746.596 495.394 755.745 C 487.762 782.031 483.072 809.718 469.685 834.239 C 457.161 857.18 436.048 840.839 421.163 830.886 C 418.74 897.72 425.268 961.563 430.503 1028.11 C 431.759 1044.09 435.087 1062.87 435.64 1078.51 C 436.375 1106.01 433.917 1133.5 435.442 1161.06 C 435.98 1170.79 426.958 1170.68 433.056 1181.89 C 440.108 1186.33 457.806 1187.96 466.754 1189.29 C 493.474 1193.83 469.746 1219.71 456.531 1221.8 C 440.253 1224.37 422.345 1229.78 406.173 1231.36 C 362.172 1235.64 398.435 1174.16 379.88 1164.95 C 378.924 1165.8 370.692 1173.03 370.354 1173.26 C 361.904 1178.85 325.917 1189.41 316.699 1190.94 C 312.427 1191.67 308.071 1191.76 303.772 1191.22 C 269.162 1187.17 292.533 1161.81 295.865 1143.48 C 296.786 1134.26 293.792 1125.24 294.869 1115.98 C 298.586 1084 311.221 1050.4 314.995 1018.98 C 304.263 995.081 293.829 937.605 297.643 911.22 C 299.653 897.314 302.657 887.539 307.044 874.321 C 303.32 871.996 295.121 866.893 292.354 864.267 C 281.951 854.397 247.756 821.937 245.24 809.228 C 244.819 784.765 275.977 755.545 287.128 736.648 C 301.578 712.161 294.73 707.761 323.808 702 C 327.368 692.659 326.524 692.71 335.978 688.073 C 333.036 680.453 329.98 672.878 326.812 665.35 C 321.34 664.717 316.417 664.538 311.952 661.453 C 311.076 660.2 309.733 658.262 309.914 656.63 C 313.703 622.416 324.941 598.532 362.402 594.371 z"/>
<path transform="translate(0,0)" fill="rgb(250,250,249)" d="M 328.196 871.804 C 332.136 872.441 336.143 873.661 340.01 874.72 L 340.858 879.552 C 345.43 905.755 387.269 905.621 407.721 905.659 C 409.305 948.299 411.842 990.899 415.33 1033.43 C 415.804 1039.35 416.217 1045.77 417.069 1051.64 C 422.285 1087.57 421.125 1123.01 421.117 1159.28 C 406.08 1158.59 396.376 1156.32 382.698 1150.19 C 382.67 1137.14 382.827 1124.09 383.169 1111.05 C 383.454 1102.05 384.487 1084.07 383.254 1075.73 C 376.572 1030.57 351.922 986.892 338.66 942.954 C 336.871 936.476 335.249 919.999 332.113 916.667 C 331.561 917.108 330.836 917.601 330.612 918.286 C 321.404 946.404 339.361 981.43 348.342 1007.46 C 353.72 1023.04 357.471 1032.44 361.677 1046.2 C 354.414 1068 349.361 1091.94 342.119 1114.22 C 330.363 1115.4 321.729 1114.72 310.036 1113.31 C 312.993 1093.01 322.451 1058.59 326.948 1036.38 C 330.055 1041.33 334.086 1053.19 338.677 1054.77 L 339.931 1053.5 C 340.86 1045.84 325.072 1004.36 321.806 992.617 C 311.601 955.912 302.374 904.626 328.196 871.804 z"/>
<path transform="translate(0,0)" fill="rgb(250,250,249)" d="M 333.648 713.374 C 339.723 712.137 351.695 721.024 357.362 722.813 C 392.827 734.009 421.651 737.728 438.357 775.551 C 440.241 779.817 450.086 796.483 453.559 801.231 L 455.12 801.313 C 457.824 796.303 456.088 784.745 456.977 778.709 C 458.196 770.443 463.281 751.125 470.534 746.662 C 472.497 745.455 475.084 745.211 477.218 746.145 C 478.639 746.767 479.612 747.669 480.089 749.125 C 482.989 757.968 467.381 806.801 462.705 816.793 C 460.644 821.196 456.905 828.161 451.708 829.378 C 445.098 830.926 437.446 824.289 432.47 820.706 C 422.051 812.756 398.77 783.221 386.119 787.521 L 385.341 789.516 C 389.008 799.694 401.983 812.687 409.101 822.682 C 409.297 833.359 409.273 848.395 397.736 852.76 C 378.903 859.884 346.945 847.83 329.284 842.205 C 328.771 826.821 328.78 812.127 323.448 797.459 C 314.323 772.358 297.534 747.14 310.893 720.276 C 319.751 714.962 323.671 714.74 333.648 713.374 z"/>
<path transform="translate(0,0)" fill="rgb(55,54,53)" d="M 350.121 779.752 C 357.687 791.283 362.621 829.424 359.42 843.269 C 357.761 844.075 357.273 844.194 355.521 844.773 L 354.141 843.379 C 353.704 834.046 353.452 825.117 352.838 815.773 C 352.106 804.643 349.654 790.455 350.121 779.752 z"/>
<path transform="translate(0,0)" fill="rgb(250,250,249)" d="M 363.832 608.385 C 364.628 608.368 365.424 608.363 366.221 608.369 C 385.844 608.565 395.424 620.293 408.001 633.16 C 392.913 640.243 383.722 643.547 367.998 648.147 C 350.394 651.7 343.297 651.755 325.568 650.935 C 329.397 625.454 335.891 611.842 363.832 608.385 z"/>
<path transform="translate(0,0)" fill="rgb(250,250,249)" d="M 295.054 750.631 L 296.147 751.165 C 299.643 757.427 301.975 775.79 303.199 783.636 C 287.688 807.692 282.69 798.086 267.98 805.914 L 268.596 807.536 C 273.492 811.499 281.152 811.092 287.471 811.346 C 291.972 816.124 303.466 827.452 304.736 832.998 L 303.543 834.144 C 298.499 836.376 293.229 838.949 288.209 841.303 C 251.674 803.294 255.526 802.064 287.36 760.538 C 289.802 757.353 292.548 753.81 295.054 750.631 z"/>
<path transform="translate(0,0)" fill="rgb(250,250,249)" d="M 396.679 1168.62 C 420.808 1170.79 413.713 1172.81 421.017 1191.83 C 426.841 1194.38 458.945 1203.12 459.188 1203.31 C 456.683 1209.66 421.158 1214.45 413.45 1215.84 C 407.498 1216.91 396.02 1218.25 393.196 1211.57 C 394.117 1207.12 393.116 1208.9 395.791 1205.77 C 400.608 1203.94 406.575 1206.01 412.006 1207.12 L 412.38 1205.8 C 407.74 1204.56 402.983 1203.43 398.519 1201.7 C 397.094 1193.91 396.976 1177.14 396.679 1168.62 z"/>
<path transform="translate(0,0)" fill="rgb(203,203,203)" d="M 412.38 1205.8 C 416.262 1205.72 419.942 1205.27 423.452 1206.8 C 420.543 1208.57 415.472 1207.58 412.006 1207.12 L 412.38 1205.8 z"/>
<path transform="translate(0,0)" fill="rgb(250,250,249)" d="M 311.215 1125.75 C 319.632 1126.1 323.415 1126.36 331.607 1127.98 C 317.267 1165.95 335.911 1157.1 363.723 1158.59 L 364.689 1159.76 C 361.407 1165.24 342.929 1168.87 335.642 1170.92 C 326.807 1173.94 303.998 1182.12 296.907 1174.43 C 296.89 1171.38 297.999 1170.42 299.795 1167.92 C 302.487 1166.63 314.023 1170.13 318.104 1171.06 C 315.665 1169.68 310.384 1166.86 309.141 1164.66 C 304.636 1156.7 309.721 1135.56 311.215 1125.75 z"/>
<path transform="translate(0,0)" fill="rgb(250,250,249)" d="M 396.266 656.244 L 397.576 657.219 C 398.658 661.806 398.221 667.137 398.122 671.939 C 388.823 678.321 383.728 680.673 379.332 691.099 C 369.985 687.968 359.514 686.216 349.784 684.301 C 345.082 678.958 343.068 672.562 340.761 665.978 C 363.392 663.111 373.905 661.425 396.266 656.244 z"/>
<path transform="translate(0,0)" fill="rgb(250,250,249)" d="M 366.425 1078.81 C 369.312 1081.72 367.964 1137.04 367.916 1144.89 L 343.249 1145.21 C 337.218 1137.7 353.309 1124.53 355.889 1116.4 C 359.867 1103.86 362.803 1091.43 366.425 1078.81 z"/>
<path transform="translate(0,0)" fill="rgb(250,250,249)" d="M 503.46 706.546 C 507.038 709.326 505.129 717.147 504.964 721.875 C 499.712 729.019 492.625 738.223 485.95 744.04 C 484.907 744.949 484.98 744.507 482.899 744.278 C 481.032 741.493 479.447 738.292 477.873 735.313 C 480.364 728.602 484.437 713.074 493.194 710.834 C 498.972 709.356 497.859 710.304 503.46 706.546 z"/>
<path transform="translate(0,0)" fill="rgb(250,250,249)" d="M 351.283 702.075 L 353.233 702.002 C 364.54 701.66 386.066 708.627 385.902 721.846 C 383.24 723.945 382.633 723.028 378.045 722.738 C 369.338 720.886 348.074 713.282 340.519 708.69 L 341.033 707.193 C 345.187 704.245 346.416 703.948 351.283 702.075 z"/>
<path transform="translate(0,0)" fill="rgb(250,250,249)" d="M 373.794 876.469 C 381.375 878.169 402.193 880.016 406.239 885.723 C 406.522 889.666 406.577 888.268 404.457 892.21 C 393.933 893.922 380.06 893.052 369.568 891.37 C 370.8 886.275 372.285 881.479 373.794 876.469 z"/>
<path transform="translate(0,0)" fill="rgb(250,250,249)" d="M 353.613 858.517 L 365.669 861.352 L 359.818 889.593 C 344.569 890.178 351.119 867.11 353.613 858.517 z"/>
<path transform="translate(0,0)" fill="rgb(250,250,249)" d="M 374.274 862.876 C 385.484 864.882 395.882 864.834 407.221 865.511 C 408.783 868.32 408.278 870.974 408.178 874.287 C 400.37 873.856 380.796 872.709 374.86 867.82 C 373.79 866.939 374.249 864.644 374.274 862.876 z"/>
<path transform="translate(0,0)" fill="rgb(250,250,249)" d="M 306.744 842.731 C 309.289 842.819 309.115 842.835 311.394 844.017 C 314.45 848.756 315.231 860.079 310.096 863.477 L 307.11 861.852 C 302.383 858.029 296.588 855.082 297.781 848.759 C 300.596 845.369 302.681 844.765 306.744 842.731 z"/>
<path transform="translate(0,0)" fill="rgb(250,250,249)" d="M 310.485 797.779 C 312.727 801.986 315.982 815.76 314.178 820.096 L 312.207 818.335 L 303.223 806.436 C 305.614 803.525 308.035 800.64 310.485 797.779 z"/>
<path transform="translate(0,0)" fill="rgb(250,250,249)" d="M 329.023 849.916 C 333.969 851.325 342.266 853.228 345.91 856.627 C 347.254 857.882 346.672 858.351 346.609 860.894 C 336.584 859.861 331.606 861.11 329.023 849.916 z"/>
<path transform="translate(0,0)" fill="rgb(251,186,32)" d="M 1043.03 653.904 L 1043.52 654.373 C 1044.46 660.307 1001.48 726.842 995.628 735.615 C 1033.33 740.938 1071.08 745.959 1108.86 750.677 C 1073.91 789.318 1040.22 822.328 997.253 851.905 C 992.86 854.929 980.905 863.766 976.516 865.342 L 976.907 863.3 C 994.678 834.85 1024.66 799.281 1046.15 772.112 C 1007.96 771.314 962.534 767.74 923.659 765.725 C 945.185 742.549 974.572 716.384 997.611 694.458 C 1008.97 683.649 1031.07 662.978 1043.03 653.904 z"/>
<path transform="translate(0,0)" fill="rgb(55,54,53)" d="M 513.175 896.026 C 536.591 896.022 577.614 890.507 589.715 915.083 C 601.271 938.552 592.354 968.183 568.886 980.077 C 578.204 996.109 591.692 1025.55 599.399 1042.75 C 591.828 1042.82 582.265 1043.73 574.734 1042.37 C 572.232 1041.92 572.318 1040.72 571.043 1038.27 C 564.61 1023.29 556.16 1000.83 548.432 985.961 C 547.479 984.128 541.535 984.522 538.771 984.421 C 535.538 987.956 537.24 1034.22 537.335 1042.97 L 513.622 1042.99 L 513.175 896.026 z"/>
<path transform="translate(0,0)" fill="rgb(250,250,249)" d="M 537.086 916.126 C 546.38 915.801 554.901 915.432 562.466 921.688 C 574.95 932.012 572.381 947.791 563.29 959.023 C 553.916 966.187 548.372 965.955 536.984 966.054 C 536.934 949.412 536.968 932.769 537.086 916.126 z"/>
<path transform="translate(0,0)" fill="rgb(55,54,53)" d="M 886.031 895.752 C 893.833 895.433 902.787 895.591 910.684 895.539 C 912.442 899.719 914.55 904.102 916.535 908.184 C 930.899 937.726 942.911 968.993 957.079 998.552 C 956.526 964.779 956.627 930.597 956.471 896.792 L 979.114 896.81 L 979.043 994.093 C 979.035 1006.46 979.739 1031.55 978.611 1042.81 L 956.213 1042.71 C 945.185 1021.98 934.722 996.743 924.446 975.319 C 919.07 964.112 913.94 948.175 907.596 937.963 C 908.055 972.967 908.218 1007.98 908.086 1042.98 L 886.25 1042.96 L 886.031 895.752 z"/>
<path transform="translate(0,0)" fill="rgb(55,54,53)" d="M 684.79 895.846 L 707.842 895.831 C 707.806 910.287 708.599 1039.82 706.996 1042.69 L 703.25 1042.95 L 684.801 1042.93 C 684.399 1020.91 684.69 997.874 684.64 975.778 L 642.015 975.867 L 641.827 1042.8 L 618.091 1042.77 L 617.759 896.06 L 641.442 896.071 L 641.505 954.98 L 684.725 954.982 L 684.79 895.846 z"/>
<path transform="translate(0,0)" fill="rgb(55,54,53)" d="M 1106.99 895.907 C 1141.13 895.721 1184.53 888.415 1186.19 936.394 C 1187.05 961.242 1175.34 981.014 1149.17 984.103 C 1143.46 984.777 1137.71 984.047 1131.99 984.067 L 1130.79 985.906 C 1131.11 1004.78 1130.93 1024.16 1130.97 1043.08 L 1106.64 1043.09 L 1106.99 895.907 z"/>
<path transform="translate(0,0)" fill="rgb(250,250,249)" d="M 1130.94 916.145 C 1138.78 916.236 1146.04 915.703 1152.8 920.332 C 1166.28 929.557 1162.97 946.239 1155.54 958.192 C 1147.39 964.615 1141.3 963.545 1130.89 963.758 C 1130.82 947.887 1130.84 932.016 1130.94 916.145 z"/>
<path transform="translate(0,0)" fill="rgb(55,54,53)" d="M 1450.07 895.793 L 1519.13 895.501 L 1519.02 917.909 L 1474.73 918.004 C 1474.54 930.257 1474.66 942.821 1474.64 955.102 L 1513.99 955.041 L 1514.1 976.813 L 1474.49 976.787 L 1474.33 1003.75 L 1474.3 1020.67 C 1489.54 1020.65 1504.78 1020.5 1520.01 1020.21 L 1520.05 1042.61 C 1497.02 1042.54 1473.98 1042.59 1450.95 1042.75 L 1450.07 895.793 z"/>
<path transform="translate(0,0)" fill="rgb(251,186,32)" d="M 1519.41 1086.52 L 1543.11 1086.16 L 1543.05 1116.97 C 1480.39 1116.06 1415.72 1116.87 1352.89 1116.85 L 1331.2 1116.83 L 1331.3 1086.91 L 1519.41 1086.52 z"/>
<path transform="translate(0,0)" fill="rgb(55,54,53)" d="M 1041.63 893.321 C 1057.71 892.348 1065.55 895.85 1079.23 903.634 C 1075.08 911.105 1073.48 915.498 1071.06 923.55 C 1062.11 918.834 1042.64 910.764 1034.22 920.765 C 1014.67 943.995 1056.99 956.107 1069.55 968.947 C 1081.68 980.117 1085.9 994.833 1082.5 1011.07 C 1077.27 1036.02 1059.24 1044.81 1035.76 1044.85 C 1019.93 1042.57 1013.53 1040.66 999.935 1032.43 C 1002.76 1024.19 1004.98 1017.79 1006.94 1009.36 L 1007.65 1009.85 C 1019.43 1017.95 1044.62 1030.14 1055.74 1013.59 C 1068.69 992.001 1037.6 979.545 1024.53 969.884 C 1004.17 954.823 998.14 931.538 1012.02 909.987 C 1018.71 899.586 1030.09 895.457 1041.63 893.321 z"/>
<path transform="translate(0,0)" fill="rgb(55,54,53)" d="M 738.121 895.968 L 806.867 895.982 L 806.846 917.107 L 761.053 917.216 L 761.046 956.26 L 799.304 956.031 L 799.135 976.156 L 761.087 976.103 L 761.101 1008.25 L 761.17 1019.6 L 807.127 1019.49 L 807.088 1042.8 L 738.378 1042.77 L 738.121 895.968 z"/>
<path transform="translate(0,0)" fill="rgb(55,54,53)" d="M 1350.08 895.195 L 1425.78 895.357 C 1426.5 916.582 1420.67 924.047 1412.09 942.43 L 1390.48 988.72 C 1385.93 998.342 1379.3 1011.37 1375.9 1021 C 1392.39 1021.36 1409.81 1021.09 1426.37 1021.1 L 1426.25 1041.89 C 1420.57 1042.51 1407.94 1042.23 1401.58 1042.29 L 1348.47 1042.6 C 1348.5 1016.27 1353.43 1013.24 1363.41 990.083 C 1373.95 965.606 1385.4 942.029 1396.65 917.92 C 1381.59 917.51 1365.24 917.845 1350.08 917.873 L 1350.08 895.195 z"/>
<path transform="translate(0,0)" fill="rgb(251,186,32)" d="M 507.866 1088.94 L 700 1088.96 L 700.09 1114.95 C 638.334 1114.14 569.61 1113.83 507.809 1114.84 C 507.7 1106.29 507.835 1097.51 507.866 1088.94 z"/>
<path transform="translate(0,0)" fill="rgb(55,54,53)" d="M 1251.04 895.642 C 1278.07 895.771 1305.1 895.731 1332.12 895.523 L 1332.08 917.669 L 1304.77 917.745 C 1303.92 949.004 1304.42 981.636 1304.54 1012.99 C 1304.13 1022.85 1304.17 1032.98 1304.09 1042.87 L 1280.1 1042.83 L 1279.91 917.945 L 1251.02 917.986 L 1251.04 895.642 z"/>
<path transform="translate(0,0)" fill="rgb(55,54,53)" d="M 1206.82 895.382 L 1230.19 895.416 L 1230.41 998.403 C 1230.42 1005.62 1230.93 1037.38 1229.85 1042.94 L 1206.71 1042.89 L 1206.33 947.65 C 1206.33 931.43 1205.84 911.269 1206.82 895.382 z"/>
<path transform="translate(0,0)" fill="rgb(55,54,53)" d="M 832.886 896.048 L 856.026 895.889 L 856.295 1043.02 L 832.917 1042.93 L 832.886 896.048 z"/>
<path transform="translate(0,0)" fill="rgb(55,54,53)" d="M 1002.79 1073.1 C 1017.16 1073 1047.71 1069.5 1053.84 1085.15 C 1059.82 1100.4 1052.2 1107.76 1039.86 1113.22 C 1046.56 1121.79 1055.13 1131.56 1062.54 1139.47 C 1060.92 1140.86 1056.96 1140.29 1054.25 1140.28 C 1052.96 1140.29 1046.03 1140.24 1045.01 1139.67 C 1039.07 1136.38 1027.59 1111.5 1019.96 1116.06 C 1015.82 1123.18 1016.97 1132.56 1017.13 1140.91 L 1002.87 1140.79 L 1002.79 1073.1 z"/>
<path transform="translate(0,0)" fill="rgb(250,250,249)" d="M 1017.14 1085.01 C 1029.16 1084.71 1047.91 1085.64 1038.12 1103.47 C 1031.59 1105.98 1024.08 1105.68 1017.18 1105.58 L 1017.14 1085.01 z"/>
<path transform="translate(0,0)" fill="rgb(55,54,53)" d="M 826.174 1072.96 L 837.65 1072.92 C 850.65 1087.58 862.58 1102.74 874.947 1117.92 L 874.839 1072.9 L 889.114 1072.91 C 889.16 1088.49 890.159 1127.06 888.498 1140.75 C 887.402 1140.76 879.191 1140.74 878.867 1140.4 C 864.946 1126.05 852.545 1109.81 839.359 1094.62 C 838.997 1109.75 839.255 1125.76 839.261 1140.95 L 826.062 1140.88 L 826.174 1072.96 z"/>
<path transform="translate(0,0)" fill="rgb(55,54,53)" d="M 1117.43 1072.25 C 1131.84 1070.58 1141.09 1072.95 1153.27 1080.37 C 1149.97 1085.04 1147.81 1087.41 1144.01 1091.53 C 1106.09 1062.98 1083.5 1126.34 1124.53 1129.17 C 1130.78 1129.6 1134.78 1129.5 1140.4 1126.52 C 1142.28 1123.41 1142.98 1122.79 1142.86 1119.14 C 1139.29 1114.38 1134.43 1117.28 1127.87 1115.14 C 1126.59 1112.13 1127.12 1107.62 1127.23 1104.16 C 1135.22 1103.7 1146.59 1104.09 1154.83 1104.12 L 1154.96 1134.82 C 1154.02 1135.2 1153.07 1135.58 1152.13 1135.94 C 1129.93 1144.46 1098.49 1146.25 1088.79 1119.06 C 1085.79 1110.68 1086.26 1101.46 1090.09 1093.43 C 1095.85 1081.57 1105.71 1076.36 1117.43 1072.25 z"/>
<path transform="translate(0,0)" fill="rgb(55,54,53)" d="M 1241.3 1072.96 L 1287.86 1072.91 L 1287.66 1084.98 L 1256.22 1084.91 L 1256.18 1101.05 C 1261.87 1100.98 1282.89 1099.81 1285.9 1102.71 C 1286.2 1106.21 1286.5 1106.69 1285.38 1110.07 C 1279.22 1115.9 1261.63 1108.82 1255.9 1113.26 L 1255.94 1128.21 L 1290.59 1128.12 L 1290.54 1140.89 L 1241.47 1140.78 C 1240.64 1120.07 1241.31 1094.07 1241.3 1072.96 z"/>
<path transform="translate(0,0)" fill="rgb(55,54,53)" d="M 923.669 1072.99 L 970.893 1073.04 L 970.823 1085.09 L 939.008 1085.17 L 938.899 1101.92 C 945.389 1101.79 962.408 1100.62 967.219 1103.59 C 967.304 1107.22 967.51 1107.27 965.932 1110.69 C 960.809 1115.71 947.037 1111.61 938.426 1113.41 L 938.616 1128.78 L 972.907 1128.97 L 972.777 1141.07 C 956.528 1141.11 940.278 1141.06 924.028 1140.92 C 923.463 1118.85 923.766 1095.18 923.669 1072.99 z"/>
<path transform="translate(0,0)" fill="rgb(55,54,53)" d="M 747.15 1072.97 C 753.928 1072.91 789.317 1071.91 792.68 1074 C 794.026 1077.59 793.344 1081.15 793.027 1085.02 L 761.544 1085.03 L 761.792 1101.36 C 769.212 1101.33 776.771 1100.14 784.163 1100.68 C 789.678 1101.07 792.377 1107.93 789.349 1112.01 C 781.107 1114.15 770.937 1111.95 761.829 1113.08 L 761.808 1128.46 L 794.97 1128.29 L 794.98 1140.84 L 746.764 1140.74 C 747.488 1118.72 747.112 1095.1 747.15 1072.97 z"/>
<path transform="translate(0,0)" fill="rgb(55,54,53)" d="M 1189.92 1073.08 L 1204.4 1073.11 C 1204.34 1095.69 1204.42 1118.27 1204.62 1140.84 L 1190.05 1140.92 L 1189.92 1073.08 z"/>
</svg>