<svg version="1.1" xmlns="http://www.w3.org/2000/svg" style="display: block;" viewBox="0 0 1229 2048" width="1024" height="1707" preserveAspectRatio="none">
<path transform="translate(0,0)" fill="rgb(255,255,255)" d="M 0 0 L 1229 0 L 1229 2048 L 0 2048 L 0 0 z"/>
<path transform="translate(0,0)" fill="rgb(30,36,55)" d="M 204.348 66.6375 C 270.797 87.1066 342.568 103.491 410.033 122.419 L 550.654 163.346 C 568.401 168.464 586.666 174.267 604.5 178.787 C 611.055 164.948 640.457 95.9226 648.355 90.4659 L 649.937 90.8369 C 652.82 93.9577 655.454 98.0401 657.177 101.923 C 675.237 142.618 694.48 182.759 712.56 223.446 C 715.276 229.558 718.019 235.923 722.242 241.166 C 733.611 255.283 745.834 268.81 757.734 282.498 L 834.623 370.746 C 876.903 420.25 915.481 472.475 957.292 522.319 C 970.738 538.349 1022.54 595.204 1027.34 608.153 C 1028.51 611.3 1028.27 613.108 1026.92 616.055 C 1024.05 618.042 1020.11 619.695 1016.89 618.012 C 996.653 607.457 976.181 593.097 956.637 581.545 C 919.113 559.56 881.733 537.331 844.498 514.86 C 813.841 495.947 780.32 473.702 749.465 455.911 C 749.346 484.743 753.148 519.258 754.086 549.108 C 761.081 558.914 788.94 588.025 798.194 597.964 L 868.971 675.137 C 934.642 746.726 994.787 821.994 1066.92 887.611 C 1081.98 901.316 1096.25 915.9 1111.39 929.728 C 1116.6 934.402 1128.4 945.846 1123.84 953.695 C 1116.81 965.813 1086 944.178 1078.27 939.843 C 1064.9 932.466 1051.41 925.328 1037.79 918.432 C 951.252 875.289 865.411 830.766 780.298 784.88 C 786.427 818.04 794.071 850.347 801.593 883.195 L 845.648 1068.89 L 906.924 1330.97 C 925.558 1406.95 945.035 1482.72 965.351 1558.26 L 1051.26 1904.3 C 1057.99 1930.82 1063.72 1957.02 1070.89 1983.5 C 1043.32 1967.63 1004.98 1948.62 976.145 1933.7 L 812.232 1848.87 C 805.948 1857.54 794.997 1869.73 787.79 1878.15 L 743.03 1930.35 C 731.991 1943.26 719.886 1957.84 708.492 1970.66 C 707.04 1972.29 706.213 1971.73 704.129 1971.48 C 703.639 1970.9 703.05 1970.2 702.361 1969.38 C 700.782 1909.59 699.079 1819.41 697.711 1762.52 L 678.963 1069.3 C 678.248 1046.44 676.958 898.008 672.439 885.753 L 671.109 885.231 C 669.627 888.88 679.054 1199.8 679.741 1228.85 L 691.031 1786.29 L 693.182 1918.96 C 693.362 1929.85 697.662 1967.15 689.101 1972.23 L 687.101 1971.61 C 685.208 1968.76 684.535 1965.44 684.478 1962.06 C 684.011 1934.43 683.819 1906.76 683.341 1879.13 L 679.76 1676.46 C 677.184 1462.69 672.776 1248.95 666.537 1035.25 C 665.222 989.122 658.62 633.401 653.234 624.952 L 651.614 624.771 C 649.135 628.449 650.814 661.967 650.924 669.171 C 651.081 689.657 651.133 710.145 651.081 730.632 C 650.576 808.76 650.775 886.892 651.678 965.016 L 656.815 1581.49 C 656.674 1658.07 656.13 1734.66 655.184 1811.24 L 654.697 1912.61 C 654.607 1924.51 655.859 1965.68 650.991 1972.82 L 648.683 1973.14 C 642.344 1967.17 644.989 1913.91 645.036 1903.01 L 645.994 1770.09 C 646.957 1638.67 646.974 1507.24 646.044 1375.82 C 646.035 1363.52 646.024 1251.38 644.231 1247.5 C 642.373 1249.73 642.281 1251.24 642.248 1254.35 L 636.474 1762.34 L 634.937 1904.1 C 634.717 1923.85 635.166 1943.66 634.813 1963.37 C 634.738 1967.56 634.538 1969.89 631.888 1972.74 C 627.995 1973.27 624.132 1973.46 621.315 1970.4 C 593.346 1940.07 566.254 1908.89 538.463 1878.37 C 527.793 1866.65 516.543 1854.7 506.44 1842.53 C 410.082 1885.61 315.06 1934.3 218.937 1978.18 C 335.123 1548.64 448.066 1118.24 557.755 686.996 L 312.406 516.389 C 276.952 491.187 241.358 466.183 205.626 441.378 C 180.136 423.45 154.012 403.85 127.16 388.176 L 125.933 388.905 C 127.687 394.901 143.866 396.99 138.331 413.306 C 123.861 455.914 108.642 498.448 92.9663 540.631 C 89.5485 549.829 75.8827 549.595 67.2756 550.797 C 65.9844 554.356 63.9337 561.434 61.4094 563.643 C 58.0171 562.864 56.3073 562.728 53.6246 560.395 C 53.3592 556.002 56.0466 555.274 57.1769 552.187 C 59.1276 546.861 50.4798 536.297 47.2439 528.129 L 82.4569 425.986 C 85.7575 416.326 89.565 401.967 93.567 393.161 C 96.9228 385.778 109.72 386.555 116.875 385.417 L 117.817 384.019 C 114.906 379.107 91.4013 363.877 84.9681 359.175 L 93.3323 338.304 C 162.66 357.702 243.277 375.775 313.663 391.909 C 395.336 410.631 481.672 431.61 563.625 447.771 C 564.418 445.838 567.655 438.508 567.797 437.064 C 570.089 413.761 569.921 387.441 570.517 364.014 C 565.738 359.479 545.048 344.357 538.442 339.218 C 456.517 275.153 373.581 212.393 289.663 150.962 C 283.884 146.743 255.414 124.774 250.543 123.54 C 255.97 133.089 244.598 153.424 240.858 163.625 C 231.521 187.165 224.337 211.927 214.429 235.206 C 207.631 251.175 202.604 247.273 191.21 246.117 C 188.897 247.888 187.27 253.207 185.721 256.417 C 182.147 256.961 179.674 255.828 177.589 252.876 C 177.894 249.833 178.138 250.511 180.743 247.679 C 181.844 239.689 174.53 236.541 171.979 226.003 C 172.177 224.934 172.488 223.101 172.856 222.073 C 184.97 188.23 197.514 154.336 210.867 120.977 C 216.804 106.145 226.518 110.106 238.723 113.718 C 225.106 104.098 210.252 95.6111 196.773 85.5821 C 199.163 79.0691 201.673 73.0286 204.348 66.6375 z"/>
<path transform="translate(0,0)" fill="rgb(255,255,255)" d="M 782.231 1524.08 C 788.307 1526.57 815.08 1545.74 822.039 1550.26 C 870.927 1582.04 923.874 1615.82 970.388 1650.68 C 960.784 1656.04 942.128 1663.66 931.482 1668.27 L 861.249 1698.62 C 841.376 1707.75 817.31 1718.16 797.08 1726.3 C 786.081 1717.58 776.998 1706.99 766.904 1697.41 C 745.506 1677.1 724.711 1655.08 703.13 1635.1 L 702.944 1621.3 C 729.719 1589.21 755.225 1555.87 782.231 1524.08 z"/>
<path transform="translate(0,0)" fill="rgb(255,255,255)" d="M 972.193 1667.67 C 975.985 1670.08 984.605 1709.3 986.223 1715.68 C 993.766 1744.92 1001.08 1774.22 1008.17 1803.57 C 1019.82 1852.13 1032.74 1900.92 1044.04 1949.44 C 1014.33 1938.81 1001.18 1926.8 979.184 1906.28 C 965.806 1893 951.614 1881 938.109 1868.04 C 912.598 1843.54 886.125 1818.32 861.853 1792.65 C 887.247 1762.71 913.069 1733.13 939.311 1703.92 C 946.761 1695.56 964.935 1673.76 972.193 1667.67 z"/>
<path transform="translate(0,0)" fill="rgb(255,255,255)" d="M 527.995 1516.82 L 529.102 1516.94 C 534.36 1520.76 582.978 1585.27 588.749 1593.22 C 579.578 1601.67 570.041 1612.45 561.059 1621.37 C 536.845 1645.42 513.369 1670.13 489.017 1694.05 C 472.93 1687.33 449.457 1674.9 433.439 1666.8 C 404.871 1652.32 372.561 1637.08 344.957 1621.56 C 363.912 1612.09 390.837 1595.7 409.661 1585.02 C 449.312 1562.65 488.759 1539.91 527.995 1516.82 z"/>
<path transform="translate(0,0)" fill="rgb(255,255,255)" d="M 327.232 1642.45 C 330.956 1644.81 355.306 1672.82 360.188 1678.32 C 382.928 1704.23 405.901 1729.94 429.103 1755.43 C 386.624 1797.95 341.646 1842.57 300.2 1885.94 C 282.513 1903.6 265.081 1921.51 247.911 1939.67 L 327.232 1642.45 z"/>
<path transform="translate(0,0)" fill="rgb(255,255,255)" d="M 594.262 1600.79 C 606.046 1614.17 615.167 1629.06 627.859 1642.87 C 626.218 1682.57 626.556 1725.11 625.605 1765.17 C 612.245 1759.55 579.585 1741.31 566.139 1734.09 C 543.635 1722.36 521.016 1710.84 498.286 1699.55 C 509.21 1687.02 522.262 1674.7 534.084 1662.78 C 554.518 1642.48 574.581 1621.82 594.262 1600.79 z"/>
<path transform="translate(0,0)" fill="rgb(255,255,255)" d="M 435.208 1762.95 C 439.519 1766.46 453.206 1782.2 457.291 1786.89 C 469.402 1800.79 482.884 1815.04 494.584 1829.17 C 470.738 1839.25 443.469 1852.89 419.704 1864.06 L 307.726 1916.52 C 293.034 1923.4 278.469 1930.55 264.039 1937.97 C 275.19 1924.6 288.901 1911.75 301.101 1899.23 L 366.032 1833.2 C 388.487 1810.77 412.074 1784.25 435.208 1762.95 z"/>
<path transform="translate(0,0)" fill="rgb(255,255,255)" d="M 403.547 1351.52 C 409.184 1355.24 460.979 1424.96 469.805 1435.99 C 438.769 1474.19 404.598 1513.75 372.794 1551.54 C 361.908 1564.26 351.088 1577.03 340.334 1589.85 C 348.189 1563.36 355.406 1533.94 362.504 1507.1 L 403.547 1351.52 z"/>
<path transform="translate(0,0)" fill="rgb(255,255,255)" d="M 900.496 1376.71 C 903.426 1380.23 954.05 1587.62 961.164 1611.76 C 950.501 1599.34 940.019 1586.76 929.722 1574.04 C 897.975 1535.61 866.436 1497.02 835.107 1458.25 C 855.532 1431.44 879.154 1403.02 900.496 1376.71 z"/>
<path transform="translate(0,0)" fill="rgb(255,255,255)" d="M 761.746 1273.47 C 768.163 1275.77 800.393 1296.44 808.164 1301.28 L 887.102 1349.71 C 868.297 1357.28 845.289 1368.31 826.255 1376.69 L 782.621 1396.37 C 775.288 1388.32 766.795 1376.74 759.85 1368.04 L 720.947 1319.88 C 733.706 1306.15 750.519 1288.37 761.746 1273.47 z"/>
<path transform="translate(0,0)" fill="rgb(255,255,255)" d="M 624.884 1787.06 C 626.917 1789.77 624.444 1945.93 623.92 1960.59 C 607.936 1943.9 588.823 1921.98 573.727 1904.41 C 554.245 1882.38 534.599 1860.5 514.791 1838.76 C 546.17 1821.56 591.048 1803.9 624.884 1787.06 z"/>
<path transform="translate(0,0)" fill="rgb(255,255,255)" d="M 484.9 1712.05 C 495.718 1715.96 514.815 1727.05 526.161 1732.68 C 554.065 1746.52 581.657 1761.14 608.982 1776.09 C 587.793 1786.64 565.642 1796.33 544.013 1806.04 C 530.308 1812.61 516.557 1819.09 502.76 1825.47 C 482.832 1802.27 460.796 1779.14 441.622 1756.09 C 456.503 1741.44 470.327 1726.89 484.9 1712.05 z"/>
<path transform="translate(0,0)" fill="rgb(255,255,255)" d="M 551.502 1260.94 C 557.164 1266.02 580.222 1294.99 586.029 1302.05 C 565.582 1327.04 539.298 1355.41 517.756 1380.27 C 505.927 1374.55 491.68 1366.44 479.884 1360.14 C 461.28 1350.57 442.282 1340.16 423.657 1330.38 C 437.123 1322.05 456.204 1312.4 470.338 1304.81 L 551.502 1260.94 z"/>
<path transform="translate(0,0)" fill="rgb(255,255,255)" d="M 707.688 1795.45 L 804.146 1845.02 C 787.951 1863.99 771.258 1882.53 755.001 1901.64 C 740.127 1918.97 725.676 1936.64 710.56 1953.74 C 710.291 1948.26 710.288 1942.72 710.183 1937.22 C 709.283 1889.93 707.752 1842.76 707.688 1795.45 z"/>
<path transform="translate(0,0)" fill="rgb(255,255,255)" d="M 474.738 1445.62 C 480.495 1449.52 513.446 1494.07 520.44 1502.82 C 505.197 1510.42 489.427 1520.59 474.392 1528.98 C 440.124 1548.1 406.336 1568.72 372.159 1587.9 C 360.982 1594.37 349.761 1600.76 338.497 1607.08 C 355.448 1586.16 373.479 1565.95 390.925 1545.44 L 474.738 1445.62 z"/>
<path transform="translate(0,0)" fill="rgb(255,255,255)" d="M 592.354 1310.59 C 601.968 1318.95 621.478 1346.85 632.584 1358.38 L 631.6 1438.59 L 590.5 1416.94 C 569.606 1406.09 548.37 1396.09 527.406 1384.93 C 546.92 1360.89 571.602 1334.17 592.354 1310.59 z"/>
<path transform="translate(0,0)" fill="rgb(255,255,255)" d="M 516.168 1397.17 C 523.503 1400.09 537.965 1408.1 545.495 1411.9 C 569.228 1423.87 591.94 1436.32 616.115 1447.55 C 600.828 1457.36 579.419 1468.74 563.264 1477.95 C 551.603 1484.4 540.205 1492.58 528.293 1498.35 C 513.564 1480.78 495.327 1455.97 481.431 1437.44 C 488.899 1427.24 507.013 1407.87 516.168 1397.17 z"/>
<path transform="translate(0,0)" fill="rgb(255,255,255)" d="M 630.675 1456.87 C 631.637 1461.27 630.915 1486.47 630.746 1492.24 L 629.142 1550.22 C 617.692 1562.44 606.339 1574.75 595.082 1587.14 C 587.877 1576.29 577.985 1564.11 569.909 1553.66 L 537.44 1511.91 C 554.578 1501.63 571.808 1491.5 589.128 1481.53 C 601.831 1474.29 619.071 1465.11 630.675 1456.87 z"/>
<path transform="translate(0,0)" fill="rgb(255,255,255)" d="M 441.413 430.819 C 450.15 431.401 560.885 455.244 567.251 458.45 C 568.158 465.501 567.008 486.747 566.701 495.188 C 566.127 510.974 566.172 528.498 565.036 544.089 C 564.636 545.563 564.973 544.856 563.524 545.978 C 557.794 544.42 539.785 525.528 534.67 520.657 L 493.348 481.645 C 481.14 470.021 451.391 442.961 441.413 430.819 z"/>
<path transform="translate(0,0)" fill="rgb(255,255,255)" d="M 798.445 1742.96 C 800.615 1743.67 843.695 1788.24 848.888 1793.55 C 837.117 1806.12 826.086 1819.07 814.851 1832.11 C 804.985 1826.76 793.357 1821.18 783.25 1816.06 C 761.109 1804.76 736.238 1791.44 713.699 1781.3 C 735.427 1769.78 774.654 1753.71 798.445 1742.96 z"/>
<path transform="translate(0,0)" fill="rgb(255,255,255)" d="M 742.052 1082.08 L 833.79 1137.55 C 818.078 1144.85 801.408 1151.95 785.517 1159.01 C 773.955 1163.72 762.504 1168.7 751.175 1173.95 C 739.301 1159.95 719.292 1138.51 706.207 1125.69 C 717.349 1111.08 730.184 1096.24 742.052 1082.08 z"/>
<path transform="translate(0,0)" fill="rgb(255,255,255)" d="M 783.371 1413.86 L 784.707 1413.88 C 790.899 1418.29 815.804 1449.89 822.603 1457.47 C 810.754 1470.81 794.89 1491.9 783.2 1506.41 L 756.569 1489.06 C 737.686 1476.75 718.251 1464.79 699.599 1452.21 C 726.808 1438.9 755.743 1426.87 783.371 1413.86 z"/>
<path transform="translate(0,0)" fill="rgb(255,255,255)" d="M 828.94 1465.88 C 840.548 1478.73 855.884 1498.84 867.469 1512.98 C 896.281 1548.8 925.465 1584.32 955.015 1619.53 L 931.644 1604.08 C 885.747 1572.44 839.347 1541.54 792.462 1511.39 C 804.519 1496.14 816.679 1480.97 828.94 1465.88 z"/>
<path transform="translate(0,0)" fill="rgb(255,255,255)" d="M 457.475 1146.53 C 463.538 1150.26 500.873 1198.01 507.834 1206.81 L 439.054 1282.43 C 430.411 1291.37 421.942 1300.48 413.652 1309.75 C 414.7 1305.43 415.918 1301.1 417.116 1296.81 C 431.042 1246.94 443.084 1196.27 457.475 1146.53 z"/>
<path transform="translate(0,0)" fill="rgb(255,255,255)" d="M 572.039 1072.96 C 576.11 1075.63 594.381 1100.98 597.993 1106.21 C 585.332 1122.07 564.606 1143.94 550.677 1158.88 L 516.711 1142.96 C 502.703 1136.4 488.657 1129.92 474.574 1123.52 C 496.048 1114.32 517.465 1101.33 538.555 1091.04 C 549.534 1085.69 561.61 1079.24 572.039 1072.96 z"/>
<path transform="translate(0,0)" fill="rgb(255,255,255)" d="M 699.066 1470.43 C 706.208 1473.99 723.088 1485.92 730.22 1490.77 C 744.487 1500.49 758.934 1509.94 773.551 1519.12 C 760.372 1534.39 747.007 1551.64 734.308 1567.45 C 723.288 1580.63 713.68 1593.77 701.938 1606.55 C 701.292 1561.15 699.254 1515.85 699.066 1470.43 z"/>
<path transform="translate(0,0)" fill="rgb(255,255,255)" d="M 851.027 1165.75 C 853.723 1168.06 883.779 1303.83 887.157 1319.16 L 863.698 1293.31 C 843.175 1271.91 821.002 1248.71 801.415 1226.59 C 816.505 1206.68 834.985 1185.15 851.027 1165.75 z"/>
<path transform="translate(0,0)" fill="rgb(255,255,255)" d="M 703.945 1649.6 C 707.289 1652.2 722.826 1667.84 726.823 1671.68 C 747.12 1691.3 767.29 1711.04 787.334 1730.92 C 779.048 1734.25 770.484 1738.1 762.248 1741.64 C 746.778 1749.48 723.385 1758.99 706.976 1766.29 C 704.31 1731.87 704.212 1684.84 703.945 1649.6 z"/>
<path transform="translate(0,0)" fill="rgb(255,255,255)" d="M 948.101 1677.96 L 949.596 1678.52 C 947.463 1682.05 936.361 1693 932.949 1696.8 C 906.557 1726.18 881.259 1756.42 854.992 1785.93 C 847.846 1778.4 840.046 1770.81 832.682 1763.44 C 824.49 1755.42 816.246 1747.46 807.951 1739.55 C 854.771 1719.25 901.488 1698.72 948.101 1677.96 z"/>
<path transform="translate(0,0)" fill="rgb(255,255,255)" d="M 713.838 1327.58 C 716.264 1328.5 768.517 1393.5 774.366 1400.23 L 737.85 1416.05 L 698.073 1434.33 C 697.911 1405.81 696.037 1376.85 695.825 1348.05 C 701.615 1340.9 707.641 1334.38 713.838 1327.58 z"/>
<path transform="translate(0,0)" fill="rgb(255,255,255)" d="M 337.441 1638.72 C 345.6 1640.32 370.014 1653.22 378.724 1657.55 L 476.681 1707.45 C 470.02 1713.35 462.93 1720.8 456.579 1727.18 C 449.699 1734.3 442.546 1741.37 435.564 1748.4 C 417.303 1729.58 399.812 1709.16 382.396 1689.46 C 367.521 1672.63 352.012 1655.7 337.441 1638.72 z"/>
<path transform="translate(0,0)" fill="rgb(255,255,255)" d="M 104.248 394.796 C 111.263 395.551 126.465 399.27 130.05 405.732 C 128.292 415.209 84.9576 536.13 82.6783 538.486 C 77.3865 539.247 71.784 540.301 66.4826 541.198 C 63.697 536.98 60.424 532.538 57.4877 528.374 L 88.8346 436.282 C 91.8512 427.564 100.48 401.225 104.248 394.796 z"/>
<path transform="translate(0,0)" fill="rgb(255,255,255)" d="M 486.732 153.294 C 524.659 164.791 562.741 175.772 600.966 186.233 L 582.35 226.745 C 580.026 231.117 576.861 239.305 574.83 244.107 C 571.614 242.137 559.377 236.411 557.801 234.758 C 538.68 214.693 501.164 175.256 486.732 153.294 z"/>
<path transform="translate(0,0)" fill="rgb(255,255,255)" d="M 854.935 1800.49 C 857.975 1801.85 885.642 1830.12 890.578 1835.14 C 918.51 1863.59 947.918 1889.53 977.214 1916.51 C 970.546 1913.52 961.38 1908.23 954.746 1904.63 C 923.142 1888.68 891.675 1872.45 860.351 1855.95 C 849.609 1850.3 833.581 1843.11 823.786 1836.97 C 832.545 1825.28 845.104 1811.56 854.935 1800.49 z"/>
<path transform="translate(0,0)" fill="rgb(255,255,255)" d="M 678.003 757.783 C 686.378 762.434 703.788 774.568 712.154 780.275 C 732.467 794.132 754.927 808.808 774.55 823.465 L 757.201 831.929 L 720.488 850.239 C 713.243 838.858 688.094 811.095 678.189 798.495 C 678.528 784.999 678.194 771.296 678.003 757.783 z"/>
<path transform="translate(0,0)" fill="rgb(255,255,255)" d="M 726.076 920.599 L 803.318 967.889 L 764.778 985.5 C 755.744 989.878 746.586 993.998 737.317 997.854 C 724.474 983.852 711.911 969.595 699.636 955.093 C 706.624 948.338 719.878 929.163 726.076 920.599 z"/>
<path transform="translate(0,0)" fill="rgb(255,255,255)" d="M 595.653 909.862 C 600.176 911.527 614.499 933.458 618.301 938.866 C 612.932 947.516 583.804 978.539 574.805 988.956 L 552.45 976.68 C 540.955 970.076 529.461 964.302 517.657 958.296 L 595.653 909.862 z"/>
<path transform="translate(0,0)" fill="rgb(255,255,255)" d="M 518.118 560.834 C 520.54 562.788 525.994 584.402 527.512 589.681 C 534.303 614.06 541.575 638.302 549.324 662.393 C 539.369 656.063 526.993 646.919 517.101 640.033 C 498.794 627.839 478.418 614.199 461.015 600.974 C 480.127 587.704 499.161 574.324 518.118 560.834 z"/>
<path transform="translate(0,0)" fill="rgb(255,255,255)" d="M 445.778 512.023 C 449.749 513.286 465.551 520.432 469.938 522.456 C 486.343 530.022 507.049 538.374 522.423 547.595 C 516.549 553.013 499.755 564.284 492.557 569.391 C 485.855 573.854 456.721 596.327 452.279 596.013 C 445.246 588.979 445.9 525.257 445.778 512.023 z"/>
<path transform="translate(0,0)" fill="rgb(255,255,255)" d="M 549.74 1175.62 C 553.082 1176.56 567.494 1183.38 571.44 1185.24 C 587.046 1192.63 602.577 1200.18 618.029 1207.9 C 605.029 1215.28 589.871 1222.87 576.528 1229.95 L 549.467 1244.43 C 539.78 1232.98 529.537 1219.48 520.118 1207.63 C 530.462 1196.55 538.717 1186.62 549.74 1175.62 z"/>
<path transform="translate(0,0)" fill="rgb(255,255,255)" d="M 631.636 757.805 C 634.381 761.338 633.032 793.194 632.965 799.896 C 620.075 814.336 607.109 828.709 594.068 843.013 L 569.142 826.121 C 562.413 821.903 555.741 817.595 549.127 813.198 C 576.952 795.218 604.459 776.751 631.636 757.805 z"/>
<path transform="translate(0,0)" fill="rgb(255,255,255)" d="M 641.766 206.62 C 646.294 210.071 660.524 231.594 665.051 237.974 C 687.761 269.973 710.941 301.711 734.419 333.15 C 730.207 331.659 715.613 323.501 710.969 321.036 L 650.171 288.023 C 646.319 269.21 644.277 228.086 641.766 206.62 z"/>
<path transform="translate(0,0)" fill="rgb(255,255,255)" d="M 501.624 978.611 C 506.208 981.694 534.836 1021.68 539.137 1028.27 C 523.571 1045.79 504.519 1065.12 488.243 1082.72 C 481.526 1090.11 474.759 1097.46 467.941 1104.76 C 478.929 1064.49 489.574 1017.78 501.624 978.611 z"/>
<path transform="translate(0,0)" fill="rgb(255,255,255)" d="M 754.775 563.395 C 761.733 567.423 814.266 626.384 821.622 635.468 C 816.668 638.223 809.811 640.988 804.5 643.305 C 797.092 646.586 768.834 660.369 763.583 658.722 C 757.328 652.247 757.762 628.517 757.321 619.472 L 754.775 563.395 z"/>
<path transform="translate(0,0)" fill="rgb(255,255,255)" d="M 603.555 1114.71 C 611.521 1123.29 626.436 1145.39 633.458 1155.36 C 633.736 1169.58 633.701 1184.1 633.809 1198.35 L 606.942 1185.06 C 592.147 1177.55 575.825 1170.17 560.692 1163.32 C 574.662 1146.9 589.526 1131.42 603.555 1114.71 z"/>
<path transform="translate(0,0)" fill="rgb(255,255,255)" d="M 893.049 1364.92 L 895.392 1365.32 L 895.695 1366.88 C 890.718 1373.55 883.578 1381.16 878.13 1387.98 C 861.788 1408.84 845.149 1429.46 828.217 1449.84 L 813.517 1432.87 C 806.652 1425.06 799.722 1417.41 793.596 1409 C 826.628 1394.95 859.939 1379.33 893.049 1364.92 z"/>
<path transform="translate(0,0)" fill="rgb(255,255,255)" d="M 723.91 256.705 C 732.233 261.954 800.963 343.827 812.105 358.023 C 794.754 354.718 773.438 353.303 754.811 350.248 C 751.133 346.654 747.202 343.324 743.318 339.953 C 741.628 320.763 728.992 278.055 723.91 256.705 z"/>
<path transform="translate(0,0)" fill="rgb(255,255,255)" d="M 221.856 118.728 C 230.034 119.476 237.554 124.556 243.999 129.197 C 233.977 153.355 225.45 179.615 216.021 204.041 C 213.251 211.216 206.471 232.284 202.789 237.867 C 192.95 238.899 188.352 233.823 181.526 227.379 C 189.744 199.227 202.211 171.007 212.032 143.29 C 214.836 135.376 218.292 126.199 221.856 118.728 z"/>
<path transform="translate(0,0)" fill="rgb(255,255,255)" d="M 753.332 1190.86 C 756.883 1191.69 783.936 1221.32 788.295 1225.93 C 780.143 1235.76 772.085 1245.67 764.123 1255.65 L 745.967 1244.86 C 730.963 1235.75 713.609 1225.96 699.512 1215.95 C 717.397 1207.47 735.337 1199.11 753.332 1190.86 z"/>
<path transform="translate(0,0)" fill="rgb(255,255,255)" d="M 513.886 1214.7 C 519.164 1218.18 536.876 1242.85 540.444 1249.76 C 508.564 1267.42 476.003 1283.52 444.352 1301.61 C 437.94 1305.09 431.15 1308.51 424.658 1311.9 C 453.815 1279.47 484.416 1247.47 513.886 1214.7 z"/>
<path transform="translate(0,0)" fill="rgb(255,255,255)" d="M 811.578 997.64 C 815.079 1000.6 821.438 1034.04 823.143 1041.42 L 841.137 1117.28 C 835.098 1110.43 829.128 1103.51 823.229 1096.54 C 806.974 1076.92 792.918 1060.6 775.648 1041.96 C 788.022 1027.52 800.003 1012.74 811.578 997.64 z"/>
<path transform="translate(0,0)" fill="rgb(255,255,255)" d="M 436.135 512.012 L 436.919 512.295 C 439.087 515.815 440.785 579.206 441.011 587.834 C 428.01 579.089 415.121 570.178 402.348 561.101 C 390.403 552.945 378.636 544.533 367.054 535.869 C 390.293 528.543 413.328 520.588 436.135 512.012 z"/>
<path transform="translate(0,0)" fill="rgb(255,255,255)" d="M 630.844 1217.85 L 632.173 1218.13 C 634.98 1221.49 634.186 1239.92 634.194 1245.46 C 620.342 1260.07 604.756 1279.44 591.558 1295.09 L 578.798 1279.58 C 572.439 1271.98 566.247 1264.24 560.227 1256.37 C 578.817 1244.69 610.056 1229.6 630.844 1217.85 z"/>
<path transform="translate(0,0)" fill="rgb(255,255,255)" d="M 409.602 1342.6 C 416.902 1343.5 496.06 1386.7 507.332 1392.63 C 501.977 1398.41 496.497 1404.97 491.307 1410.97 L 475.572 1429.16 C 454.882 1403.4 429.227 1369.39 409.602 1342.6 z"/>
<path transform="translate(0,0)" fill="rgb(255,255,255)" d="M 692.219 1230.52 C 702.381 1235.42 743.883 1261.32 753.619 1268.57 L 732.233 1292.4 L 714.792 1311.69 C 707.803 1304.2 700.052 1294.21 694.256 1285.79 C 693.686 1267.36 693.007 1248.94 692.219 1230.52 z"/>
<path transform="translate(0,0)" fill="rgb(255,255,255)" d="M 652.339 115.686 C 656.488 119.158 698.441 211.111 703.553 223.803 L 702.641 224.761 L 699.424 223.028 L 642.95 188.641 L 652.339 115.686 z"/>
<path transform="translate(0,0)" fill="rgb(255,255,255)" d="M 795.169 1233.86 C 800.09 1237.96 820.211 1260.34 825.919 1266.53 C 844.911 1287.14 866.704 1308.29 884.796 1329.24 C 880.055 1327.13 874.621 1323.78 870.053 1321.14 L 772.483 1261.34 C 780.058 1251.82 787.105 1243.02 795.169 1233.86 z"/>
<path transform="translate(0,0)" fill="rgb(255,255,255)" d="M 632.604 202.755 C 635.994 206.003 640.907 275.097 641.655 283.604 C 631.253 278.459 619.824 271.538 609.659 265.684 C 600.901 260.709 592.198 255.636 583.552 250.468 C 600.353 235.034 616.71 219.123 632.604 202.755 z"/>
<path transform="translate(0,0)" fill="rgb(255,255,255)" d="M 353.907 470.737 C 379.544 482.518 405.663 493.187 431.165 505.262 C 425.87 507.612 419.006 509.971 413.482 512.041 C 397.622 517.602 374.186 525.796 358.34 529.916 C 358.036 512.567 355.361 488.5 353.907 470.737 z"/>
<path transform="translate(0,0)" fill="rgb(255,255,255)" d="M 438.044 440.599 C 442.619 442.95 526.417 523.772 534.122 531.335 C 527.426 529.509 510.853 521.569 503.929 518.438 C 483.906 509.569 464.054 500.315 444.386 490.683 C 441.908 474.83 440.248 456.865 438.044 440.599 z"/>
<path transform="translate(0,0)" fill="rgb(255,255,255)" d="M 529.363 552.203 C 535.175 553.638 557.713 566.194 564.962 569.459 C 564.841 591.325 562.973 613.7 562.655 635.611 C 562.505 645.924 562.053 657.113 560.919 667.349 L 559.986 667.456 C 556.557 664.278 528.348 564.686 526.614 556.307 L 529.363 552.203 z"/>
<path transform="translate(0,0)" fill="rgb(255,255,255)" d="M 663.779 661.423 C 669.682 665.612 708.926 719.178 715.014 727.952 L 703.642 736.083 L 689.461 746.6 C 681.277 740.291 674.803 735.904 666.1 730.286 C 665.923 707.381 663.597 684.584 663.779 661.423 z"/>
<path transform="translate(0,0)" fill="rgb(255,255,255)" d="M 137.95 375.83 C 144.473 376.332 250.015 424.461 262.262 430.633 C 263.384 441.948 264.668 453.246 266.113 464.524 C 260.595 461.824 231.588 440.815 225.025 436.232 L 137.95 375.83 z"/>
<path transform="translate(0,0)" fill="rgb(255,255,255)" d="M 542.838 260.13 C 544.601 262.491 552.315 325.19 553.526 333.023 L 523.987 309.96 C 512.446 301.305 500.298 292.528 489.482 283.041 C 505.115 275.632 526.926 266.502 542.838 260.13 z"/>
<path transform="translate(0,0)" fill="rgb(255,255,255)" d="M 648.294 201.722 C 654.506 203.784 703.03 235.307 712.396 240.979 C 718.115 260.987 726.688 294.02 731.056 314.209 C 724.192 309.172 657.4 215.296 648.294 201.722 z"/>
<path transform="translate(0,0)" fill="rgb(255,255,255)" d="M 844.569 1149.93 L 846.478 1150.72 L 846.983 1153 C 842.652 1160.41 832.664 1171.94 826.922 1178.9 L 793.618 1219.31 C 789.527 1214.79 785.41 1210.29 781.266 1205.81 L 762.499 1186.77 C 789.501 1174.25 817.331 1162.44 844.569 1149.93 z"/>
<path transform="translate(0,0)" fill="rgb(255,255,255)" d="M 582.963 268.122 C 600.331 276.673 619.689 287.901 636.436 297.684 C 627.373 305.338 618.186 312.845 608.878 320.201 L 580.23 343.825 L 582.963 268.122 z"/>
<path transform="translate(0,0)" fill="rgb(255,255,255)" d="M 539.125 832.333 C 544.384 835.567 564.544 864.904 569.159 871.344 C 555.615 885.723 542.331 900.346 529.316 915.206 C 523.734 921.455 518.253 927.138 512.403 933.139 C 521.593 901.855 531.431 863.976 539.125 832.333 z"/>
<path transform="translate(0,0)" fill="rgb(255,255,255)" d="M 700.399 1132.7 C 714.942 1147.29 729.898 1162.62 743.242 1178.28 L 721.562 1187.88 C 711.582 1192.38 701.664 1197.01 691.811 1201.79 C 689.962 1185.65 690.049 1161.19 689.999 1144.8 C 692.536 1140.86 697.114 1136.25 700.399 1132.7 z"/>
<path transform="translate(0,0)" fill="rgb(255,255,255)" d="M 623.752 948.623 C 627 949.383 631.568 956.872 633.654 959.88 C 633.75 980.466 633.635 1001.05 633.31 1021.64 L 609.505 1008.19 L 583.209 993.567 C 596.801 979.3 609.984 963.251 623.752 948.623 z"/>
<path transform="translate(0,0)" fill="rgb(255,255,255)" d="M 814.244 724.969 L 816.806 725.285 C 819.256 730.51 817.107 777.718 816.889 787.287 C 807.905 783.098 799.101 777.867 790.475 772.932 L 776.339 764.915 C 773.956 756.262 772.92 749.439 771.515 740.545 L 814.244 724.969 z"/>
<path transform="translate(0,0)" fill="rgb(255,255,255)" d="M 671.728 659.639 C 679.985 661.593 747.183 690.631 754.366 695.161 L 754.647 696.514 C 751.589 700.452 745.524 704.549 741.377 707.648 L 720.469 723.441 C 706.557 703.159 686.91 680.395 671.728 659.639 z"/>
<path transform="translate(0,0)" fill="rgb(255,255,255)" d="M 361.551 412.933 C 374.356 413.991 415.849 424.436 429.759 427.624 L 434.929 481.317 C 429.006 478.287 371.258 422.106 361.551 412.933 z"/>
<path transform="translate(0,0)" fill="rgb(255,255,255)" d="M 738.03 1013.87 C 741.419 1014.65 759.149 1036.44 762.698 1040.61 C 756.223 1048.73 749.633 1056.76 742.929 1064.7 L 727.18 1055.9 C 716.524 1049.8 703.957 1041.42 693.396 1034.74 C 708.34 1027.92 723.218 1020.96 738.03 1013.87 z"/>
<path transform="translate(0,0)" fill="rgb(255,255,255)" d="M 343.875 466.252 C 344.036 466.352 344.216 466.427 344.359 466.551 C 348.559 470.19 349.891 516.009 350.338 524.973 C 339.551 516.845 327.74 508.774 316.669 500.942 L 285.26 478.694 C 306.697 474.971 322.656 471.377 343.875 466.252 z"/>
<path transform="translate(0,0)" fill="rgb(255,255,255)" d="M 642.525 660.734 C 644.777 663.09 643.873 718.005 643.871 726.418 C 638.743 730.312 631.884 734.583 626.402 738.205 C 621.897 735.407 617.047 731.886 612.645 728.835 L 601.135 720.026 C 610.976 704.312 631.281 675.036 642.525 660.734 z"/>
<path transform="translate(0,0)" fill="rgb(255,255,255)" d="M 825.927 728.731 C 844.85 742.685 862.916 757.364 882.22 770.917 L 866.533 776.324 C 855.849 779.3 836.726 786.926 824.947 790.836 C 824.878 770.13 825.204 749.425 825.927 728.731 z"/>
<path transform="translate(0,0)" fill="rgb(255,255,255)" d="M 756.626 704.818 C 758.805 708.198 773.04 787.835 775.334 799.338 L 761.871 780.15 L 724.734 728.768 C 735.211 720.582 745.843 712.597 756.626 704.818 z"/>
<path transform="translate(0,0)" fill="rgb(255,255,255)" d="M 662.386 627.534 C 673.643 631.95 685.54 638.158 696.621 643.25 C 715.279 651.825 734.177 660.296 752.44 669.659 L 754.519 686.608 C 724.256 673.807 693.755 661.576 663.032 649.922 C 662.191 641.242 662.082 636.208 662.386 627.534 z"/>
<path transform="translate(0,0)" fill="rgb(255,255,255)" d="M 572.887 1005.45 C 577.828 1006.66 612.354 1026.34 619.583 1030.37 C 609.791 1034.99 599.139 1040.95 589.497 1046.08 C 583.664 1049 577.464 1052.44 571.663 1055.52 L 551.411 1029 C 558.497 1021.66 566.811 1013.49 572.887 1005.45 z"/>
<path transform="translate(0,0)" fill="rgb(255,255,255)" d="M 482.796 219.132 C 486.551 220.404 499.401 227.249 503.739 229.427 C 517.478 236.212 531.167 243.098 544.805 250.086 C 539.268 253.125 531.287 256.259 525.328 258.798 C 512.646 264.594 500.276 270.437 487.179 275.259 C 485.07 258.8 484.119 236.262 482.796 219.132 z"/>
<path transform="translate(0,0)" fill="rgb(255,255,255)" d="M 686.858 1049.4 C 695.984 1053.26 723.863 1071.19 732.345 1077.12 C 726.199 1083.8 720.819 1090.8 715.2 1097.93 C 709.983 1104.57 704.334 1111.25 698.937 1117.78 C 695.769 1114.95 692.302 1111.4 689.221 1108.38 C 688.484 1088.6 686.961 1069.3 686.858 1049.4 z"/>
<path transform="translate(0,0)" fill="rgb(255,255,255)" d="M 778.316 847.655 C 781.4 852.954 796.503 928.536 799.244 940.877 C 794.736 935.344 789.718 929.671 785.047 924.234 C 773.94 910.919 762.662 897.747 751.216 884.721 C 759.564 872.626 769.467 859.425 778.316 847.655 z"/>
<path transform="translate(0,0)" fill="rgb(255,255,255)" d="M 822.832 642.997 L 824.329 643.999 C 825.853 650.26 825.933 693.845 825.938 703.441 L 796.079 681.806 L 772.152 664.861 C 781.953 659.561 811.883 647.339 822.832 642.997 z"/>
<path transform="translate(0,0)" fill="rgb(255,255,255)" d="M 463.472 1136.58 C 473.642 1138.52 527.957 1165.41 539.736 1171.45 C 535.347 1175.9 531.154 1180.69 526.97 1185.35 L 513.851 1199.36 C 501.326 1185.62 474.24 1151.66 463.472 1136.58 z"/>
<path transform="translate(0,0)" fill="rgb(255,255,255)" d="M 562.671 701.685 C 571.696 706.852 583.167 715.692 591.751 722.02 C 580.379 740.148 566.299 759.279 553.841 776.891 C 549.472 782.327 544.974 788.711 540.799 794.394 C 548.262 764.624 556.371 731.524 562.671 701.685 z"/>
<path transform="translate(0,0)" fill="rgb(255,255,255)" d="M 631.785 1040.9 L 633.527 1041.68 C 634.493 1046.67 634.169 1060.49 634.162 1066.26 L 633.713 1066.69 C 622.956 1077.19 613.758 1088.53 604.03 1099.99 L 596.136 1089.33 L 580.798 1068.85 C 597.738 1059.43 614.734 1050.12 631.785 1040.9 z"/>
<path transform="translate(0,0)" fill="rgb(255,255,255)" d="M 633.038 661.143 L 633.852 662.081 C 624.439 676.888 606.69 702.938 595.927 715.893 L 580.435 704.926 C 576.247 702.241 566.961 697.074 565.625 692.825 C 569.844 683.795 622.055 665.427 633.038 661.143 z"/>
<path transform="translate(0,0)" fill="rgb(255,255,255)" d="M 632.906 1262.77 C 635.327 1266.34 633.274 1335.08 633.135 1344.93 L 619.211 1328.13 C 612.245 1319.7 605.185 1311.34 598.033 1303.06 C 609.385 1289.49 621.429 1276.68 632.906 1262.77 z"/>
<path transform="translate(0,0)" fill="rgb(255,255,255)" d="M 833.012 647.594 C 838.073 651.696 879.575 696.293 880.515 700.474 L 878.765 701.372 C 863.33 703.173 848.992 704.107 833.492 704.994 C 832.113 690.636 832.946 662.997 833.012 647.594 z"/>
<path transform="translate(0,0)" fill="rgb(255,255,255)" d="M 884.742 778.056 C 888.18 777.725 886.896 777.364 889.585 779.32 C 892.474 785.614 890.271 816.76 890.058 825.629 C 879.787 821.192 867.35 814.559 857.164 809.476 L 832.221 796.083 C 847.246 792.479 869.949 783.499 884.742 778.056 z"/>
<path transform="translate(0,0)" fill="rgb(255,255,255)" d="M 796.937 418.174 L 798.334 418.542 C 799.937 423.213 799.322 461.402 799.482 469.865 L 770.32 450.528 C 762.292 445.44 752.826 439.786 745.647 433.764 C 756.401 429.121 784.898 421.517 796.937 418.174 z"/>
<path transform="translate(0,0)" fill="rgb(255,255,255)" d="M 641.605 626.861 C 643.675 629.637 643.277 644.856 643.342 649.254 C 629.771 657.623 587.063 674.274 570.403 681.336 C 568.992 678.507 570.788 669.247 571.273 665.66 C 588.823 657.61 624.414 637.109 641.605 626.861 z"/>
<path transform="translate(0,0)" fill="rgb(255,255,255)" d="M 694.171 962.656 C 702.926 970.52 721.179 992.777 728.851 1002.25 L 710.901 1009.99 L 686.034 1020.76 C 685.099 1005.51 684.99 991.271 684.869 975.992 L 694.171 962.656 z"/>
<path transform="translate(0,0)" fill="rgb(255,255,255)" d="M 544.792 1035.62 C 547.941 1037.46 560.887 1056.39 563.451 1060.08 C 543.394 1072.05 518.134 1084.1 497.042 1095.87 L 480.172 1105.39 C 501.097 1083.85 525.178 1058.41 544.792 1035.62 z"/>
<path transform="translate(0,0)" fill="rgb(255,255,255)" d="M 746.365 366.575 C 750.875 368.776 788.123 403.914 794.715 409.888 L 782.481 413.935 C 770.084 417.975 760.404 420.942 747.852 424.313 C 747.399 405.251 747.366 385.555 746.365 366.575 z"/>
<path transform="translate(0,0)" fill="rgb(255,255,255)" d="M 473.641 219.949 C 474.411 219.874 474.783 220.175 475.638 220.507 C 477.284 226.158 478.883 266.514 479.287 275.484 C 471.415 269.397 463.464 263.412 455.436 257.532 C 446.119 250.592 436.961 243.443 427.966 236.091 C 443.271 230.937 458.497 225.556 473.641 219.949 z"/>
<path transform="translate(0,0)" fill="rgb(255,255,255)" d="M 550.218 251.63 C 558.073 254.944 565.651 259.015 573.238 262.922 C 572.929 289.904 571.218 317.248 570.786 344.424 C 568.15 344.416 564.126 341.143 561.499 339.429 C 559.36 312.299 552.685 280.414 550.218 251.63 z"/>
<path transform="translate(0,0)" fill="rgb(255,255,255)" d="M 769.748 1048.67 C 775.787 1053.34 825.212 1111.33 829.805 1118.24 L 817.973 1110.85 C 796.114 1097.33 774.148 1083.98 752.08 1070.8 C 757.882 1063.35 763.772 1055.98 769.748 1048.67 z"/>
<path transform="translate(0,0)" fill="rgb(255,255,255)" d="M 349.855 413.664 C 352.618 415.271 354.874 417.545 357.227 419.687 C 379.76 440.194 401.688 461.347 423.856 482.245 C 417.738 481.201 361.155 452.931 353.155 448.959 C 351.933 437.206 350.833 425.44 349.855 413.664 z"/>
<path transform="translate(0,0)" fill="rgb(255,255,255)" d="M 761.668 678.944 C 766.038 681.179 805.074 711.529 812.087 716.739 L 798.247 722.493 C 789.212 726.389 779.254 729.997 770.007 733.529 C 767.942 725.166 761.151 686.775 761.668 678.944 z"/>
<path transform="translate(0,0)" fill="rgb(255,255,255)" d="M 806.085 422.367 C 810.374 424.741 846.902 459.489 852.547 465.095 C 850.934 466.916 850.782 466.403 847.775 467.037 C 834.158 469.702 820.52 472.257 806.862 474.703 C 805.394 462.835 806.064 435.538 806.085 422.367 z"/>
<path transform="translate(0,0)" fill="rgb(255,255,255)" d="M 275.972 393.752 C 283.677 393.993 330.957 406.036 341.19 408.521 L 344.832 445.73 C 340.01 444.196 283.121 400.059 275.972 393.752 z"/>
<path transform="translate(0,0)" fill="rgb(255,255,255)" d="M 138.209 359.835 C 143.697 360.338 166.248 366.194 172.547 367.716 C 201.449 374.583 230.23 381.954 258.875 389.826 L 260.319 410.012 C 238.271 401.397 215.353 390.584 192.852 381.825 C 177.416 375.817 152.278 366.828 138.209 359.835 z"/>
<path transform="translate(0,0)" fill="rgb(255,255,255)" d="M 967.375 838.467 C 971.886 840.354 985.919 852.502 990.799 856.461 C 1013.37 874.725 1035.69 893.307 1057.74 912.202 C 1051.24 910.897 983.615 873.732 974.776 868.956 C 972.327 860.853 968.616 846.504 967.375 838.467 z"/>
<path transform="translate(0,0)" fill="rgb(255,255,255)" d="M 718.276 732.902 C 720.802 734.225 763.847 793.41 769.359 800.584 L 756.117 791.519 C 736.056 778.056 716.205 763.754 695.978 750.156 C 703.555 744.005 710.346 738.569 718.276 732.902 z"/>
<path transform="translate(0,0)" fill="rgb(255,255,255)" d="M 882.659 708.448 C 884.011 708.308 884.648 708.598 886.006 708.9 C 889.544 713.875 891.867 749.277 892.311 757.146 L 871.011 739.3 C 860.419 730.386 849.909 721.374 839.485 712.265 C 853.388 710.686 868.624 709.653 882.659 708.448 z"/>
<path transform="translate(0,0)" fill="rgb(255,255,255)" d="M 898.276 784.395 C 905.424 787.416 938.06 813.674 945.721 819.951 L 935.24 822.948 C 927.374 824.624 905.644 832.384 899.531 829.462 C 898.572 828.347 897.289 826.547 897.314 825.092 C 897.544 811.85 898.036 797.569 898.276 784.395 z"/>
<path transform="translate(0,0)" fill="rgb(255,255,255)" d="M 596.769 725.588 C 604.961 731.009 613.03 736.614 620.97 742.398 C 602.84 755.868 584.77 767.666 565.97 780.206 C 560.134 784.263 555.95 786.944 549.784 790.464 C 561.505 777.876 585.945 741.059 596.769 725.588 z"/>
<path transform="translate(0,0)" fill="rgb(255,255,255)" d="M 415.86 185.724 C 434.351 194.487 452.702 203.541 470.907 212.885 L 457.158 217.657 C 444.917 222.117 432.602 226.369 420.217 230.41 C 418.277 218.869 416.993 198.034 415.86 185.724 z"/>
<path transform="translate(0,0)" fill="rgb(255,255,255)" d="M 270.593 433.346 C 291.442 442.751 312.304 451.624 333.145 461.197 L 324.788 463.077 C 308.178 466.082 291.597 469.249 275.048 472.577 C 273.207 462.691 271.228 443.253 270.593 433.346 z"/>
<path transform="translate(0,0)" fill="rgb(255,255,255)" d="M 477.895 157.684 C 480.105 159.775 482.61 162.706 484.655 164.993 C 502.705 185.175 519.715 206.227 538.168 226.054 C 525.072 220.831 495.546 205.4 481.154 198.523 C 479.563 188.323 478.385 168.185 477.895 157.684 z"/>
<path transform="translate(0,0)" fill="rgb(255,255,255)" d="M 261.894 112.732 C 269.743 113.46 337.236 147.329 348.39 152.8 C 348.223 160.632 348.458 168.586 348.598 176.427 C 345.287 174.824 335.079 166.844 331.535 164.064 C 309.301 146.624 283.456 130.731 261.894 112.732 z"/>
<path transform="translate(0,0)" fill="rgb(255,255,255)" d="M 807.342 981.91 L 808.889 982.951 C 807.742 986.622 772.565 1028.38 768.304 1033.49 L 761.122 1025.31 L 747.943 1010.03 C 767.823 1000.83 787.623 991.454 807.342 981.91 z"/>
<path transform="translate(0,0)" fill="rgb(255,255,255)" d="M 255.612 90.8713 C 259.89 91.3243 277.192 95.9244 281.985 97.1462 C 304.296 102.942 326.529 109.032 348.679 115.415 C 349.265 121.963 349.887 128.508 350.543 135.049 C 339.325 131.157 314.575 119.079 303.065 113.778 C 291.299 108.359 265.577 97.0609 255.612 90.8713 z"/>
<path transform="translate(0,0)" fill="rgb(255,255,255)" d="M 681.911 894.256 C 689.969 898.151 707.712 909.767 715.94 914.836 C 711.563 921.167 706.531 927.808 701.969 934.072 L 692.103 947.11 L 683.7 938.215 C 683.192 923.558 682.595 908.905 681.911 894.256 z"/>
<path transform="translate(0,0)" fill="rgb(255,255,255)" d="M 401.806 179.099 C 404.258 179.702 404.429 179.937 406.536 181.426 C 409.83 187.41 410.982 214.856 412.542 224.483 L 392.52 209.517 C 383.611 202.99 375.372 196.953 366.836 189.894 C 378.55 186.485 390.209 182.886 401.806 179.099 z"/>
<path transform="translate(0,0)" fill="rgb(255,255,255)" d="M 816.96 364.508 C 821.369 367.604 855.365 405.813 858.649 411.197 C 845.434 410.825 829.607 408.637 816.286 407.139 C 816.793 393.226 816.786 378.47 816.96 364.508 z"/>
<path transform="translate(0,0)" fill="rgb(255,255,255)" d="M 722.502 864.178 C 725.129 866.39 735.717 880.001 738.195 883.148 C 733.33 889.312 728.576 896.194 723.98 902.618 C 720.091 900.56 715.67 897.552 711.9 895.128 C 703.993 890.125 696.255 885.681 688.131 881.034 L 722.502 864.178 z"/>
<path transform="translate(0,0)" fill="rgb(255,255,255)" d="M 950.508 827.135 C 951.975 826.721 952.76 827.117 954.271 827.499 C 958.262 831.475 963.984 858.726 965.721 865.503 C 956.967 861.099 948.182 856.423 939.48 851.89 L 911.149 837.526 C 923.467 833.612 937.85 830.322 950.508 827.135 z"/>
<path transform="translate(0,0)" fill="rgb(255,255,255)" d="M 574.522 879.619 C 576.525 880.822 586.14 893.868 588.242 896.629 C 569.468 909.443 550.463 920.988 531.158 932.967 C 526.914 935.455 522.403 937.851 518.079 940.228 C 535.657 923.531 557.777 897.976 574.522 879.619 z"/>
<path transform="translate(0,0)" fill="rgb(255,255,255)" d="M 679.874 814.652 C 684.371 818.452 707.59 846.712 713.753 853.612 L 704.934 857.938 C 697.183 861.989 689.14 865.459 680.874 868.319 C 680.201 850.438 679.867 832.545 679.874 814.652 z"/>
<path transform="translate(0,0)" fill="rgb(255,255,255)" d="M 507.736 971.656 C 513.933 972.361 556.287 995.798 564.853 1000.39 L 555.744 1010.6 L 545.756 1021.71 C 533.283 1004.88 520.609 988.19 507.736 971.656 z"/>
<path transform="translate(0,0)" fill="rgb(255,255,255)" d="M 635.585 526.643 C 636.513 527.496 639.457 530.985 639.62 532.25 C 641.961 550.418 641.042 570.029 641.006 588.455 L 629.573 581.552 L 614.618 572.404 L 635.585 526.643 z"/>
<path transform="translate(0,0)" fill="rgb(255,255,255)" d="M 361.107 118.668 C 365.196 119.049 403.124 129.439 410.884 131.327 L 413.343 165.439 C 402.862 160.284 370.476 128.071 361.107 118.668 z"/>
<path transform="translate(0,0)" fill="rgb(255,255,255)" d="M 764.009 358.349 C 778.628 359.771 794.833 362.545 809.741 364.336 C 809.689 376.737 809.561 389.137 809.357 401.536 C 805.142 398.572 766.278 362.448 764.009 358.349 z"/>
<path transform="translate(0,0)" fill="rgb(255,255,255)" d="M 628.618 1564.74 C 630.694 1573.17 627.989 1616.58 628.11 1629.34 L 617.375 1615.41 L 601.121 1594.44 C 610.272 1584.97 619.641 1574.49 628.618 1564.74 z"/>
<path transform="translate(0,0)" fill="rgb(255,255,255)" d="M 427.519 136.497 C 440.872 139.753 457.317 145.164 470.738 149.25 C 471.28 162.349 472.077 175.437 473.13 188.505 C 466.347 184.357 434.594 145.027 427.519 136.497 z"/>
<path transform="translate(0,0)" fill="rgb(255,255,255)" d="M 641.884 749.464 C 642.237 749.932 642.417 750.11 642.652 750.611 C 644.194 753.886 645.128 1025.36 644.636 1048.84 C 644.579 1051.57 644.263 1053.99 643.444 1056.61 L 642.23 1055.54 C 639.921 994.446 641.153 927.099 640.975 865.366 L 640.691 791.624 C 640.637 784.905 639.236 753.11 641.884 749.464 z"/>
<path transform="translate(0,0)" fill="rgb(255,255,255)" d="M 643.5 118.715 C 644.72 124.252 636.396 177.477 635.059 186.752 L 618.23 182.09 C 617.399 181.909 615.466 181.153 614.567 180.833 L 614.148 179.454 C 619.147 165.176 635.934 132.041 643.5 118.715 z"/>
<path transform="translate(0,0)" fill="rgb(255,255,255)" d="M 632.491 813.707 C 633.891 818.659 633.031 859.523 632.931 867.621 C 627.285 864.317 620.79 859.942 615.218 856.37 L 602.786 848.135 C 612.787 836.781 622.954 825.445 632.491 813.707 z"/>
<path transform="translate(0,0)" fill="rgb(255,255,255)" d="M 867.139 479.581 C 871.068 482.06 905.455 512.759 906.416 515.526 L 904.743 516.477 C 896.964 517.962 890.201 519.129 882.632 521.529 L 868.08 512.539 C 867.81 501.278 867.112 491.063 867.139 479.581 z"/>
<path transform="translate(0,0)" fill="rgb(255,255,255)" d="M 858.208 472.369 L 858.598 472.583 C 861.078 476.532 860.227 501.96 860.222 508.326 L 835.535 492.765 C 828.417 488.409 823.552 485.201 816.878 480.208 C 830.617 477.401 844.395 474.788 858.208 472.369 z"/>
<path transform="translate(0,0)" fill="rgb(255,255,255)" d="M 631.997 886.891 C 634.484 890.218 633.28 916.892 633.213 922.935 L 624.296 933.46 L 615.935 921.105 L 603.746 903.745 C 613.12 898.055 622.537 892.437 631.997 886.891 z"/>
<path transform="translate(0,0)" fill="rgb(255,255,255)" d="M 625.945 521.876 L 626.856 523.436 C 624.177 531.74 610.468 558.882 605.939 567.62 C 601.228 565.12 596.43 562.358 591.755 559.755 C 588.668 557.866 584.978 555.167 581.936 553.062 C 596.154 542.044 610.837 531.639 625.945 521.876 z"/>
<path transform="translate(0,0)" fill="rgb(255,255,255)" d="M 667.586 313.643 C 676.152 315.666 713.77 338.355 725.635 343.846 L 717.529 348.894 L 703.161 357.558 C 690.586 342.559 679.656 329.189 667.586 313.643 z"/>
<path transform="translate(0,0)" fill="rgb(255,255,255)" d="M 745.781 891.662 C 748.773 894.027 759.43 906.571 762.363 909.946 C 772.988 922.169 783.198 934.047 794.402 945.814 C 790.848 944.341 788.022 942.248 784.838 940.099 C 767.851 930.108 750.398 918.976 733.561 908.596 L 745.781 891.662 z"/>
<path transform="translate(0,0)" fill="rgb(255,255,255)" d="M 661.263 493.235 C 669.679 495.184 728.361 532.066 737.832 540.714 C 740.554 543.199 739.993 544.46 740.146 547.797 C 735.557 547.738 670.54 507.844 662.345 502.835 C 660.702 500.237 661.223 496.53 661.263 493.235 z"/>
<path transform="translate(0,0)" fill="rgb(255,255,255)" d="M 595.013 857.08 C 602.684 861.184 615.377 870.232 622.995 875.332 L 604.598 886.868 L 595.891 892.141 C 590.716 885.59 585.669 878.94 580.751 872.194 L 595.013 857.08 z"/>
<path transform="translate(0,0)" fill="rgb(255,255,255)" d="M 896.011 717.735 C 899.489 719.83 928.319 753.803 929.034 757.181 L 926.721 758.188 C 918.26 760.332 909.835 762.619 901.451 765.047 C 899.051 752.556 897.309 730.746 896.011 717.735 z"/>
<path transform="translate(0,0)" fill="rgb(255,255,255)" d="M 719.232 444.136 C 720.86 444.955 726.41 448.773 728.233 449.964 C 710.186 461.559 689.022 472.567 670.065 483.037 C 666.311 484.805 665.998 485.679 662.286 485.382 C 660.448 482.885 661.073 478.631 661.125 475.218 C 679.451 466.636 702.108 454.836 719.232 444.136 z"/>
<path transform="translate(0,0)" fill="rgb(255,255,255)" d="M 633.367 1082.71 C 634.669 1086.94 633.972 1132.17 633.917 1139.98 C 630.778 1136.12 627.502 1131.49 624.497 1127.45 L 609.716 1108.12 L 633.367 1082.71 z"/>
<path transform="translate(0,0)" fill="rgb(255,255,255)" d="M 868.925 425.516 C 875.318 430.03 906.911 472.263 911.681 480.297 C 907.633 478.886 876.344 459.078 871.219 455.898 C 869.627 447.623 869.12 433.955 868.925 425.516 z"/>
<path transform="translate(0,0)" fill="rgb(255,255,255)" d="M 630.552 418.022 C 630.501 418.765 630.402 419.505 630.258 420.235 C 629.869 422.272 627.546 427.093 626.684 429.212 C 619.867 445.977 610.556 451.411 596.109 460.831 C 593.096 459.856 589.185 458.209 586.149 457.035 C 583.864 455.723 584.359 456.395 583.094 454.327 C 585.51 449.595 623.079 423.536 630.552 418.022 z"/>
<path transform="translate(0,0)" fill="rgb(255,255,255)" d="M 636.673 323.879 C 638.93 327.527 637.861 374.985 637.83 382.421 L 626.429 373.748 L 616.312 366.666 C 623.25 352.476 630.037 338.213 636.673 323.879 z"/>
<path transform="translate(0,0)" fill="rgb(255,255,255)" d="M 638.126 443.086 L 639.282 443.949 C 640.588 447.643 640.541 477.911 640.634 483.763 L 627.783 477.407 C 624.015 475.656 619.846 473.434 616.089 471.545 C 618.907 464.778 622.434 455.026 626.668 449.222 C 630.715 443.673 632.399 443.88 638.126 443.086 z"/>
<path transform="translate(0,0)" fill="rgb(255,255,255)" d="M 659.385 394.555 C 662.967 395.599 664.71 396.324 668.625 398.669 C 690.85 411.981 715.298 424.156 735.655 440.08 C 736.035 441.459 736.349 442.598 736.597 443.498 C 715.129 434.314 680.473 416.497 660.353 402.746 C 658.55 401.515 659.285 397.046 659.385 394.555 z"/>
<path transform="translate(0,0)" fill="rgb(255,255,255)" d="M 417.848 138.44 C 421.268 140.087 455.313 181.496 461.105 188.021 C 454.349 186.073 428.301 172.453 421.226 168.767 C 419.939 158.835 418.948 148.431 417.848 138.44 z"/>
<path transform="translate(0,0)" fill="rgb(255,255,255)" d="M 824.08 415.828 C 834.138 416.134 851.896 418.556 861.819 419.87 C 862.044 429.936 863.193 441.425 863.979 451.568 C 859.904 449.821 830.567 421.47 824.08 415.828 z"/>
<path transform="translate(0,0)" fill="rgb(255,255,255)" d="M 995.069 829.496 C 1001.7 832.116 1063.29 894.595 1072.21 904.352 C 1069.82 903.35 1065.53 900.549 1063.61 898.805 C 1040.43 877.649 1006.81 859.309 995.069 829.496 z"/>
<path transform="translate(0,0)" fill="rgb(255,255,255)" d="M 577.151 468.351 C 581.352 470.377 592.965 481.356 597.145 485.121 C 593.285 491.188 588.721 500.028 585.151 506.502 C 582.33 511.704 579.105 516.874 576.037 521.95 C 575.851 504.715 576.703 485.706 577.151 468.351 z"/>
<path transform="translate(0,0)" fill="rgb(255,255,255)" d="M 734.095 349.95 C 735.543 351.731 735.054 351.496 735.159 354.388 C 734.555 355.368 733.586 356.729 732.406 357.551 C 713.924 370.418 694.37 381.641 675.844 394.641 C 674.622 394.51 673.603 394.4 672.787 394.312 C 670.349 392.652 669.986 392.545 668.352 390.172 C 671.029 385.859 725.91 354.42 734.095 349.95 z"/>
<path transform="translate(0,0)" fill="rgb(255,255,255)" d="M 574.914 578.503 C 580.748 582.457 587.968 590.699 592.515 596.065 C 588.284 605.487 583.499 614.954 578.938 624.246 L 573.004 636.061 C 572.899 618.157 573.746 596.399 574.914 578.503 z"/>
<path transform="translate(0,0)" fill="rgb(255,255,255)" d="M 646.926 322.812 C 647.648 323.383 650.817 326.474 650.813 327.045 C 650.509 383.756 652.313 440.966 652.109 497.628 L 650.208 496.204 C 648.427 491.482 646.812 339.107 646.926 322.812 z"/>
<path transform="translate(0,0)" fill="rgb(255,255,255)" d="M 645.96 300.562 C 647.033 300.854 648.786 301.777 649.718 303.123 C 663.467 322.975 677.983 342.295 691.74 362.125 C 691.691 363.247 691.652 364.162 691.621 364.869 L 687.331 366.525 C 684.238 365.286 670.859 347.033 668.124 342.798 C 661.085 331.894 645.782 313.62 645.96 300.562 z"/>
<path transform="translate(0,0)" fill="rgb(255,255,255)" d="M 609.091 188.49 C 616.035 190.43 623.007 192.268 630.004 194.003 C 620.868 201.912 607.793 215.951 598.93 225.006 L 587.849 236.093 C 595.082 220.311 602.471 204.535 609.091 188.49 z"/>
<path transform="translate(0,0)" fill="rgb(255,255,255)" d="M 355.692 156.282 C 363.101 159.924 386.746 170.512 391.819 173.642 L 391.522 174.692 L 383.815 176.867 C 374.155 179.441 366.884 181.627 357.468 184.958 C 355.751 174.831 355.884 166.459 355.692 156.282 z"/>
<path transform="translate(0,0)" fill="rgb(255,255,255)" d="M 934.878 764.19 C 936.447 764.213 936.128 764.35 937.717 765.157 C 941.355 770.033 941.906 789.724 942.439 796.919 L 930.438 787.86 C 923.49 782.56 916.764 776.975 910.277 771.12 C 918.463 768.758 926.663 766.448 934.878 764.19 z"/>
<path transform="translate(0,0)" fill="rgb(255,255,255)" d="M 734.636 454.814 C 737.353 458.642 736.248 478.476 736.121 484.361 C 730.4 487.687 723.557 493.716 718.43 488.417 L 711.574 479.467 C 719.632 471.208 727.085 463.586 734.636 454.814 z"/>
<path transform="translate(0,0)" fill="rgb(255,255,255)" d="M 948.745 776.658 C 954.632 780.914 975.662 806.488 981.54 813.476 C 973.781 812.009 969.47 811.03 961.492 811.115 L 950.673 802.011 C 949.718 793.037 949.014 785.66 948.745 776.658 z"/>
<path transform="translate(0,0)" fill="rgb(255,255,255)" d="M 617.709 504.825 L 625.324 510.807 C 610.752 521.444 596.538 531.206 581.957 542.186 C 579.879 543.704 580.96 543.472 578.777 543.41 C 577.691 527.634 605.76 513.075 617.709 504.825 z"/>
<path transform="translate(0,0)" fill="rgb(255,255,255)" d="M 626.731 320.925 C 626.524 326.507 611.211 355.513 607.714 362.372 L 598.632 355.924 L 592.145 351.17 C 601.075 341.96 616.689 329.193 626.731 320.925 z"/>
<path transform="translate(0,0)" fill="rgb(255,255,255)" d="M 643.404 1066.71 C 645.754 1076.98 645.076 1139.87 645.116 1153.46 L 645.232 1204.44 C 645.233 1213.26 645.568 1227.18 644.52 1235.64 C 641.734 1231.55 640.412 1075.3 643.404 1066.71 z"/>
<path transform="translate(0,0)" fill="rgb(255,255,255)" d="M 580.096 372.324 C 583.209 373.862 594.284 382.031 597.747 384.496 C 592.969 392.847 588.897 401.901 584.802 410.632 L 578.28 423.385 C 578.477 406.822 579.613 389.092 580.096 372.324 z"/>
<path transform="translate(0,0)" fill="rgb(255,255,255)" d="M 767.869 842.127 L 768.345 843.207 C 765.099 848.138 761.085 852.757 757.402 857.415 C 753.467 862.393 748.408 874.352 741.787 874.449 L 738.105 870.353 L 729.982 860.4 C 742.525 854.133 755.156 848.042 767.869 842.127 z"/>
<path transform="translate(0,0)" fill="rgb(255,255,255)" d="M 910.115 521.102 C 916.671 521.002 921.416 527.208 926.834 532.157 L 927.462 548.17 C 924.57 546.592 921.355 544.594 918.476 542.902 C 909.638 537.674 900.901 532.278 892.27 526.715 C 897.838 524.72 904.399 522.867 910.115 521.102 z"/>
<path transform="translate(0,0)" fill="rgb(255,255,255)" d="M 661.978 510.525 C 664.605 512.112 668.132 514.171 670.576 515.936 C 679.52 522.394 689.008 539.397 686.584 550.596 L 683.125 551.369 C 678.534 548.685 666.037 527.93 662.03 521.977 L 661.978 510.525 z"/>
<path transform="translate(0,0)" fill="rgb(255,255,255)" d="M 707.382 384.689 C 711.969 385.425 735.142 421.147 735.549 426.411 L 733.666 427.66 C 722.29 423.422 707.771 401.516 702.992 390.58 C 703.256 388.227 705.597 386.473 707.382 384.689 z"/>
<path transform="translate(0,0)" fill="rgb(255,255,255)" d="M 689.819 600.9 C 691.43 602.419 698.044 611.685 699.752 613.998 C 696.13 616.771 683.161 627.462 679.67 627.635 L 665.903 621.563 C 673.351 614.217 681.729 607.558 689.819 600.9 z"/>
<path transform="translate(0,0)" fill="rgb(255,255,255)" d="M 663.041 566.438 C 666.096 568.332 680.254 586.32 683.495 590.328 L 673.689 598.25 L 663.007 607.273 C 662.789 593.662 662.8 580.048 663.041 566.438 z"/>
<path transform="translate(0,0)" fill="rgb(255,255,255)" d="M 600.131 602.744 C 601.883 604.275 607.18 610.669 608.987 612.762 C 600.174 624.176 590.043 637.103 583.512 649.827 C 580.724 651.585 579.793 652.324 576.521 653.074 C 576.37 652.547 576.22 652.021 576.07 651.495 C 581.368 641.33 596.081 611.02 600.131 602.744 z"/>
<path transform="translate(0,0)" fill="rgb(255,255,255)" d="M 704.299 483.545 C 708.596 486.329 740.208 527.122 738.679 531.248 L 737.463 531.679 C 725.641 523.553 706.858 501.945 700.518 489.495 C 700.719 486.17 701.475 486.439 704.299 483.545 z"/>
<path transform="translate(0,0)" fill="rgb(255,255,255)" d="M 607.586 586.482 C 609.761 587.621 635.766 615.359 639.224 618.922 C 638.822 620.488 636.427 621.816 634.834 623.03 C 633.033 623.698 633.133 623.518 631.153 623.625 C 624.513 619.815 609.151 602.297 604.759 595.774 C 604.066 592.528 606.036 589.695 607.586 586.482 z"/>
<path transform="translate(0,0)" fill="rgb(255,255,255)" d="M 738.954 561.003 C 740.97 563.195 740.843 579.812 740.94 583.671 C 737.729 586.175 732.407 591.111 728.711 591.371 L 726.682 589.542 C 723.65 585.476 720.807 580.816 718.062 576.516 L 738.954 561.003 z"/>
<path transform="translate(0,0)" fill="rgb(255,255,255)" d="M 662.019 538.629 C 662.234 538.781 662.794 539.148 663.018 539.45 C 673.164 553.167 684.502 566.813 693.718 581.102 C 693.639 582.324 693.575 583.317 693.525 584.082 C 691.487 585.094 691.495 585.217 689.128 585.387 C 680.787 579.884 667.546 559.604 661.992 550.815 L 662.019 538.629 z"/>
<path transform="translate(0,0)" fill="rgb(255,255,255)" d="M 884.553 472.846 C 892.985 475.343 920.988 492.618 927.573 499.412 C 930.552 502.485 934.75 507.815 937.472 511.465 L 927.959 512.417 C 913.386 499.729 898.807 485.971 884.553 472.846 z"/>
<path transform="translate(0,0)" fill="rgb(255,255,255)" d="M 714.812 611.673 C 720.326 615.759 743.704 648.949 743.982 654.938 L 742.536 655.476 L 733.291 650.988 C 726.76 640.098 717.964 629.062 710.978 617.477 C 711.198 614.76 712.626 614.085 714.812 611.673 z"/>
<path transform="translate(0,0)" fill="rgb(255,255,255)" d="M 660.035 343.804 C 664.556 348.465 674.805 363.825 679.018 369.838 C 677.365 371.269 673.911 373.624 672.017 375.009 L 659.96 383.422 C 659.804 370.216 659.829 357.009 660.035 343.804 z"/>
<path transform="translate(0,0)" fill="rgb(255,255,255)" d="M 549.54 828.902 C 555.663 831.461 579.886 847.816 586.487 852.125 L 581.922 857.62 L 575.416 864.64 C 567.757 854.449 556.034 839.5 549.54 828.902 z"/>
<path transform="translate(0,0)" fill="rgb(255,255,255)" d="M 716.65 542.785 C 721.001 545.382 725.164 548.175 729.387 550.967 C 723.297 556.638 717.962 560.947 711.436 566.133 L 710.038 566.217 C 706.638 563.291 702.493 557.218 699.694 553.437 L 716.65 542.785 z"/>
<path transform="translate(0,0)" fill="rgb(255,255,255)" d="M 934.202 539.366 C 938.362 540.825 974.924 573.995 980.836 579.175 C 974.625 577.458 941.829 556.902 935.096 552.75 L 934.202 539.366 z"/>
<path transform="translate(0,0)" fill="rgb(255,255,255)" d="M 667.745 748.346 C 669.299 749.434 668.954 749.283 669.974 751.002 C 670.83 763.281 673.839 866.192 672.106 872.486 L 671.09 872.609 C 668.946 869.057 667.868 762.212 667.745 748.346 z"/>
<path transform="translate(0,0)" fill="rgb(255,255,255)" d="M 612.568 373.305 C 619.02 376.955 636.785 388.045 639.007 394.49 C 639.099 398.046 638.759 398.53 637.042 401.685 C 630.454 398.222 613.535 388.43 610.359 381.573 C 609.06 378.769 611.182 376.097 612.568 373.305 z"/>
<path transform="translate(0,0)" fill="rgb(255,255,255)" d="M 604.633 390.341 C 609.749 392.979 614.454 396.525 619.16 399.86 L 596.799 417.159 L 588.599 422.98 C 593.032 412.392 599.299 400.622 604.633 390.341 z"/>
<path transform="translate(0,0)" fill="rgb(255,255,255)" d="M 733.644 367.681 C 734.657 370.664 734.693 403.439 734.893 408.931 L 728.39 399.907 L 718.612 385.279 C 723.527 379.847 728.73 373.341 733.644 367.681 z"/>
<path transform="translate(0,0)" fill="rgb(255,255,255)" d="M 267.109 397.755 C 271.675 399.644 298.74 423.208 304.723 428.178 C 297.852 427.553 275.597 416.371 268.165 412.813 L 267.109 397.755 z"/>
<path transform="translate(0,0)" fill="rgb(255,255,255)" d="M 703.926 621.821 C 706.842 622.961 718.785 642.096 721.375 646.055 L 712.753 642.527 C 705.303 639.438 697.033 635.433 689.621 632.05 L 703.926 621.821 z"/>
<path transform="translate(0,0)" fill="rgb(255,255,255)" d="M 625.982 405.771 L 627.636 406.191 L 628.217 407.475 C 624.689 413.683 590.263 437.556 582.441 443.176 L 581.824 443.399 L 580.515 442.734 C 582.71 434.624 617.539 410.907 625.982 405.771 z"/>
<path transform="translate(0,0)" fill="rgb(255,255,255)" d="M 685.544 428.355 C 690.843 429.672 704.461 436.774 708.908 440.139 C 708.16 442.297 704.955 443.616 702.539 445.138 C 698.766 447.316 694.791 449.423 690.956 451.517 C 688.286 443.699 686.84 436.463 685.544 428.355 z"/>
<path transform="translate(0,0)" fill="rgb(255,255,255)" d="M 574.29 558.4 C 580.685 561.155 595.051 572.409 599.605 577.743 C 599.83 581.104 598.419 582.683 596.838 586.108 L 596.346 586.683 C 592.451 586.016 580.734 572.159 577.422 568.381 C 573.889 564.35 574.116 563.237 574.29 558.4 z"/>
<path transform="translate(0,0)" fill="rgb(255,255,255)" d="M 660.355 428.58 C 663.905 430.51 682.549 452.491 682.621 456.451 C 680.221 457.732 679.581 457.931 676.944 458.631 C 670.474 456.628 664.638 445.902 660.776 440.093 L 660.355 428.58 z"/>
<path transform="translate(0,0)" fill="rgb(255,255,255)" d="M 726.797 601.784 C 737.137 614.141 744.663 620.291 743.644 636.441 L 742.493 636.341 C 737.126 628.67 725.82 616.083 723.232 607.15 C 722.783 605.6 725.455 603.285 726.797 601.784 z"/>
<path transform="translate(0,0)" fill="rgb(255,255,255)" d="M 650.441 502.804 C 654.843 509.717 650.447 591.39 652.637 604.817 C 652.886 606.344 652.643 615.039 652.586 616.986 L 650.39 615.799 C 649.873 612.303 649.67 581.487 649.921 575.454 C 650.779 554.887 648.14 521.684 650.441 502.804 z"/>
<path transform="translate(0,0)" fill="rgb(255,255,255)" d="M 974.487 556.564 C 967.57 549.84 941.622 526.59 937.878 521.723 L 938.93 520.316 C 941.133 520.036 946.271 520.585 947.526 522.117 C 955.791 532.206 968.335 546.337 976.58 555.62 L 974.487 556.564 z"/>
<path transform="translate(0,0)" fill="rgb(255,255,255)" d="M 761.362 669.915 C 767.648 671.156 818.611 707.717 822.8 713.08 C 822.407 713.12 822.014 713.171 821.62 713.201 C 814.443 713.752 769.174 676.524 761.362 669.915 z"/>
<path transform="translate(0,0)" fill="rgb(255,255,255)" d="M 694.262 1302.63 C 697.152 1304.64 705.736 1315.8 708.504 1319.24 L 702.631 1324.93 C 700.433 1327.77 697.518 1331.02 695.147 1333.8 C 694.682 1323.32 694.187 1313.14 694.262 1302.63 z"/>
<path transform="translate(0,0)" fill="rgb(255,255,255)" d="M 611.738 579.7 C 618.16 581.825 635.732 593.887 641.665 597.997 C 641.946 600.724 641.905 606.637 641.978 609.612 C 636.519 606.616 616.794 585.265 611.738 579.7 z"/>
<path transform="translate(0,0)" fill="rgb(255,255,255)" d="M 611.995 476.615 C 617.889 479.838 624.33 482.973 630.354 486.033 L 624.278 491.05 C 621.976 492.953 621.535 493.251 618.806 494.456 C 613.836 493.069 611.664 489.337 607.848 485.112 L 611.995 476.615 z"/>
<path transform="translate(0,0)" fill="rgb(255,255,255)" d="M 826.163 718.801 C 834.63 719.315 878.672 757.453 886.771 764.139 C 880.619 762.407 829.716 724.562 826.163 718.801 z"/>
<path transform="translate(0,0)" fill="rgb(255,255,255)" d="M 585.12 355.58 C 591.719 359.779 598.176 362.977 602.997 368.942 C 603.64 372.942 603.236 372.067 601.023 376.373 C 595.324 372.545 582.237 365.887 581.879 358.977 L 585.12 355.58 z"/>
<path transform="translate(0,0)" fill="rgb(255,255,255)" d="M 614.829 619.539 C 618.046 621.615 620.932 625.834 623.358 628.959 L 604.47 638.9 C 601.826 640.295 602.647 640.329 600.022 640.194 C 600.15 635.66 611.513 623.47 614.829 619.539 z"/>
<path transform="translate(0,0)" fill="rgb(255,255,255)" d="M 658.983 412.509 C 664.279 413.415 674.408 420.414 679.222 423.491 L 677.655 435.495 C 676.904 435.635 676.505 435.313 675.568 434.994 C 670.097 429.214 661.851 419.839 658.983 412.509 z"/>
<path transform="translate(0,0)" fill="rgb(255,255,255)" d="M 687.951 525.803 C 692.341 527.591 705.087 533.922 706.455 538.345 L 704.627 540.489 L 695.073 546.096 L 687.951 525.803 z"/>
<path transform="translate(0,0)" fill="rgb(255,255,255)" d="M 357.713 126.639 C 362.445 130.305 379.763 146.324 382.462 150.912 C 373.904 146.473 366.212 142.58 357.425 138.639 L 357.713 126.639 z"/>
<path transform="translate(0,0)" fill="rgb(255,255,255)" d="M 695.486 394.026 C 698.665 397.686 706.267 408.161 707.761 412.518 L 706.879 413.164 L 702.471 410.758 C 699.1 408.538 689.326 403.371 684.983 400.759 L 695.486 394.026 z"/>
<path transform="translate(0,0)" fill="rgb(255,255,255)" d="M 689.673 556.29 C 691.332 556.331 692.181 556.764 693.716 557.331 C 698.014 561.745 702.305 566.111 704.104 572.286 C 704.627 574.08 703.718 574.526 702.371 576.613 C 696.578 575.062 689.093 564.938 687.772 559.2 L 689.673 556.29 z"/>
<path transform="translate(0,0)" fill="rgb(255,255,255)" d="M 639.661 489.88 C 645.229 497.142 633.331 506.778 628.247 506.757 C 625.704 503.835 624.866 503.953 624.888 500.791 C 627.459 496.472 634.941 492.758 639.661 489.88 z"/>
<path transform="translate(0,0)" fill="rgb(255,255,255)" d="M 709.936 581.323 C 714.854 583.462 720.796 590.781 721.234 596.332 C 721.369 598.042 719.32 599.812 718.154 601.22 C 714.802 599.342 708.216 589.956 707.692 585.947 C 707.433 583.957 708.752 583.009 709.936 581.323 z"/>
<path transform="translate(0,0)" fill="rgb(255,255,255)" d="M 604.078 491.517 C 606.256 493.137 610.468 497.401 612.586 499.443 C 607.599 502.625 602.407 506.272 597.473 509.601 C 595.585 510.815 595.866 511.1 594.095 510.927 C 595.241 506.395 601.472 496.116 604.078 491.517 z"/>
<path transform="translate(0,0)" fill="rgb(255,255,255)" d="M 698.492 590.302 C 702.596 591.887 708.719 600.639 709.568 605.223 C 709.875 606.882 708.269 608.284 707.251 609.709 C 702.968 608.316 696.881 599.889 696.068 595.2 C 695.729 593.24 697.292 591.971 698.492 590.302 z"/>
<path transform="translate(0,0)" fill="rgb(255,255,255)" d="M 969.267 818.858 C 972.915 819.259 981.201 821.505 985.103 822.448 C 987.088 827.091 989.578 832.098 990.115 837.059 C 983.133 831.03 976.183 824.963 969.267 818.858 z"/>
<path transform="translate(0,0)" fill="rgb(255,255,255)" d="M 734.489 494.919 C 736.769 495.27 735.806 494.766 737.377 496.644 C 738.186 501.241 739.408 508.089 737.223 512.38 L 735.298 510.343 C 732.778 507.398 728.94 503.615 728.143 500.053 C 729.77 496.643 730.602 497.066 734.489 494.919 z"/>
<path transform="translate(0,0)" fill="rgb(255,255,255)" d="M 694.849 493.744 C 697.075 495.372 706.525 508.46 708.366 511.334 L 707.381 511.79 C 701.742 508.173 694.028 505.308 690.94 499.825 C 691.302 496.256 691.853 496.745 694.849 493.744 z"/>
<path transform="translate(0,0)" fill="rgb(255,255,255)" d="M 580.084 460.841 C 584.953 462.185 600.122 469.805 603.307 473.908 L 602.663 477.64 C 601.166 478.376 601.673 478.126 599.865 478.196 C 593.806 473.983 584.868 466.476 580.084 460.841 z"/>
<path transform="translate(0,0)" fill="rgb(255,255,255)" d="M 639.407 423.665 C 641.662 426.858 642.377 435.184 637.212 437.21 C 635.793 436.364 635.668 436.03 634.577 434.763 C 634.552 430.76 637.279 427.221 639.407 423.665 z"/>
<path transform="translate(0,0)" fill="rgb(255,255,255)" d="M 661.017 454.624 C 661.496 455.057 661.967 455.501 662.428 455.955 C 664.879 458.337 667.552 461.603 667.616 465.116 C 664.18 466.39 664.776 466.766 661.735 466.153 C 659.989 463.438 660.814 458.182 661.017 454.624 z"/>
<path transform="translate(0,0)" fill="rgb(255,255,255)" d="M 698.83 474.819 C 699.316 475.006 700.123 475.679 700.592 476.027 C 699.747 478.908 696.4 480.993 693.875 483.05 C 692.549 482.142 692.723 482.006 691.825 480.485 C 692.732 478.111 696.471 476.3 698.83 474.819 z"/>
<path transform="translate(0,0)" fill="rgb(175,174,174)" d="M 976.58 555.62 C 980.094 559.211 982.877 561.757 985.449 566.105 L 984.553 566.284 L 985.383 565.985 C 982.391 565.539 977.101 559.217 974.487 556.564 L 976.58 555.62 z"/>
<path transform="translate(0,0)" fill="rgb(30,36,55)" d="M 1088.35 954.252 C 1097.14 954.327 1105.11 956.184 1107.69 965.712 C 1117.29 1001.13 1126.63 1038.34 1134.56 1074.14 C 1129.2 1088.17 1120.67 1084.38 1124.13 1098.41 C 1122.62 1102.07 1122.97 1101.06 1119.5 1103.7 C 1116.91 1100.65 1114.82 1092.92 1113.34 1092.04 C 1107.31 1088.5 1106.55 1090.62 1100.72 1085.04 L 1099.91 1084.25 C 1089.03 1049.79 1079.68 1008.25 1072.1 972.564 C 1070.02 962.758 1079.66 956.531 1088.35 954.252 z"/>
<path transform="translate(0,0)" fill="rgb(255,255,255)" d="M 1086.66 963.892 C 1090.4 964.149 1094.68 964.066 1097.67 966.649 C 1100.42 969.024 1123.41 1064.88 1123.97 1073.77 C 1123.04 1077.1 1121.45 1077.92 1118.75 1080 C 1117.59 1080.16 1116.43 1080.31 1115.27 1080.45 C 1113.06 1080.69 1110.85 1080.79 1109.08 1079.2 C 1105.84 1076.28 1081.9 981.332 1081.86 971.73 C 1081.85 968.498 1084.6 966.121 1086.66 963.892 z"/>
<path transform="translate(0,0)" fill="rgb(30,36,55)" d="M 992.891 612.138 L 1014.91 623.297 C 1024.78 651.398 1033.35 699.761 1041.78 730.452 C 1037.75 736.759 1034.65 739.702 1029.38 744.961 L 1032.45 750.45 C 1032.34 753.798 1032.65 752.544 1029.94 755.564 L 1025.41 755.871 C 1020.88 753.322 1023.48 745.271 1015.26 742.353 C 1013.39 741.69 1006.65 736.617 1004.88 735.171 C 1001.56 721.292 977.692 631.06 979.7 625.337 C 981.005 621.616 984.973 620.94 988.063 619.281 C 991.758 617.296 991.83 615.859 992.891 612.138 z"/>
<path transform="translate(0,0)" fill="rgb(255,255,255)" d="M 1000.66 625.078 L 1004.77 626.349 C 1010.19 630.63 1028.52 717.068 1030.66 729.661 C 1026.93 732.101 1023.97 734.913 1020.04 735.176 C 1018.7 734.535 1012.74 731.652 1012.41 730.543 C 1002.77 698.025 994.258 663.336 987.344 630.183 C 991.471 628.928 996.555 626.73 1000.66 625.078 z"/>
</svg>