<svg version="1.1" xmlns="http://www.w3.org/2000/svg" style="display: block;" viewBox="0 0 2048 2048" width="1024" height="1024" preserveAspectRatio="none">
<defs>
	<linearGradient id="Gradient1" gradientUnits="userSpaceOnUse" x1="1711.09" y1="602.889" x2="1720.49" y2="630.189">
		<stop class="stop0" offset="0" stop-opacity="1" stop-color="rgb(186,210,215)"/>
		<stop class="stop1" offset="1" stop-opacity="1" stop-color="rgb(255,255,255)"/>
	</linearGradient>
</defs>
<path transform="translate(0,0)" fill="rgb(255,255,255)" d="M 0 0 L 2048 0 L 2048 2048 L 32.9421 2048 L 5.63738 2048 L 0 2048 L 0 0 z"/>
<path transform="translate(0,0)" fill="rgb(255,255,255)" d="M 946.912 419.097 C 1057.74 405.417 1170.21 421.774 1272.55 466.456 C 1303.43 480.04 1333.38 496.716 1362.32 513.996 C 1351.85 532.389 1348.31 548.986 1354.21 569.868 C 1358.93 586.876 1370.29 601.272 1385.74 609.816 C 1401.58 618.38 1421.84 620.324 1439.01 614.931 C 1449.59 611.592 1459.19 605.709 1466.97 597.798 C 1527.51 642.291 1591.4 719.26 1631.51 782.329 C 1636.55 790.263 1647.96 808.849 1651.22 817.093 C 1636.13 824.386 1624.28 838.366 1618.66 854.072 C 1612.45 871.55 1613.5 890.785 1621.56 907.487 C 1628.18 920.936 1636.66 929.824 1649.33 937.62 L 1544.57 1272.68 C 1524.58 1333.7 1505.18 1394.9 1486.35 1456.29 C 1476.79 1486.79 1466.78 1516.06 1458.16 1546.96 C 1419.52 1544.41 1393.82 1559.71 1381.6 1597 C 1347.99 1590.56 1312.26 1586.05 1278.21 1580.88 L 1136.14 1558.77 L 887.564 1519.24 L 767.45 1500.42 C 732.962 1495.22 698.973 1490.67 664.511 1484.78 C 647.337 1415.11 611.811 1359.4 549.537 1321.47 C 493.502 1287.77 426.417 1277.57 362.898 1293.11 C 333.427 1300.28 293.049 1318.68 269.007 1337.76 C 265.267 1332.22 259.304 1313.83 256.935 1306.76 C 242.139 1262.63 228.561 1217.94 222.05 1171.76 C 257.322 1165.27 276.556 1135 267.295 1100.48 C 262.487 1082.57 251.607 1073.91 236.347 1065.58 C 251.176 1032.63 270.16 1003.11 288.455 972.18 C 327.009 906.991 368.283 843.67 414.96 783.978 C 433.444 760.339 452.141 735.012 474.211 714.464 L 466.892 706.769 C 465.692 704.847 464.554 702.886 463.479 700.891 C 459.21 692.797 459.106 681.522 461.954 672.934 C 465.109 663.566 471.921 655.873 480.839 651.608 C 491.985 646.19 502.472 646.74 513.887 650.508 L 521.794 655.608 C 531.407 647.436 542.139 636.021 551.295 626.991 C 563.541 614.991 576.043 603.254 588.792 591.788 C 657.642 529.585 741.873 473.854 830.735 445.315 C 861.979 504.411 944.008 483.927 946.912 419.097 z"/>
<path transform="translate(0,0)" fill="rgb(154,182,196)" d="M 466.892 706.769 C 465.692 704.847 464.554 702.886 463.479 700.891 C 459.21 692.797 459.106 681.522 461.954 672.934 C 465.109 663.566 471.921 655.873 480.839 651.608 C 491.985 646.19 502.472 646.74 513.887 650.508 L 521.794 655.608 C 559.925 692.318 515.083 743.199 474.211 714.464 L 466.892 706.769 z"/>
<path transform="translate(0,0)" fill="rgb(255,255,255)" d="M 491.682 656.376 C 502.099 654.122 512.925 657.64 520.026 665.59 C 527.127 673.539 529.407 684.691 525.996 694.789 C 522.585 704.888 514.009 712.373 503.543 714.388 C 487.616 717.455 472.186 707.136 468.937 691.245 C 465.688 675.354 475.829 659.808 491.682 656.376 z"/>
<path transform="translate(0,0)" fill="rgb(70,106,134)" d="M 1284.81 735.185 C 1291.58 735.432 1298.75 735.16 1305.57 735.017 C 1307.48 742.12 1309.54 748.823 1311.74 755.847 C 1320.43 758.635 1330.2 761.24 1339.04 763.805 L 1352.44 751.111 C 1358.55 755.185 1364.65 759.291 1370.72 763.43 C 1368.05 770.377 1366.38 774.571 1362.92 781.123 C 1370.87 789.139 1375.31 795.379 1381.23 804.932 C 1389.12 803.037 1395.18 801.972 1403.23 800.731 C 1406.37 807.247 1409.89 813.949 1411.76 820.894 L 1394.64 832.395 C 1396.61 843.484 1397.18 850.869 1397.5 862.068 L 1418.33 870.736 C 1418 877.741 1416.7 884.447 1415.54 891.36 C 1408.84 892.111 1399.83 892.361 1392.94 892.743 C 1388.99 900.239 1385.13 907.831 1380.66 915.026 L 1394.78 933.726 C 1390.73 939.451 1386.36 944.068 1381.67 949.253 C 1375.64 946.158 1368.12 941.518 1362.13 938.047 C 1354.15 943.481 1347.89 946.984 1339.28 951.158 C 1341.05 960.901 1341.02 967.53 1340.88 977.362 L 1321.97 981.699 C 1319.05 977.187 1312.09 962.455 1308.06 960.943 C 1300.59 961.572 1291.4 961.008 1283.76 960.749 C 1280.65 968.491 1277.81 974.441 1274.09 981.938 C 1267.79 980.306 1261.12 978.242 1254.83 976.414 C 1253.99 968.925 1254.02 961.374 1253.91 953.837 C 1246.59 949.938 1238.6 943.74 1230.85 939.159 C 1224.83 942.271 1218.78 947.509 1213.4 951.816 C 1208.2 946.806 1203.19 941.61 1198.36 936.238 C 1202.4 929.643 1207.38 922.562 1211.64 915.802 C 1205.6 907.358 1203.91 903.283 1200.15 893.819 C 1193.58 893.329 1186.29 893.615 1179.63 893.714 C 1177.87 886.096 1176.55 879.794 1175.3 872.086 C 1182.66 868.526 1187.38 866.732 1195.13 864.001 C 1195.7 852.807 1195.95 845.398 1199.27 834.762 C 1191.5 830.711 1188.16 828.204 1181.24 822.802 C 1183.75 815.307 1186.23 809.675 1189.45 802.418 C 1198.4 803.373 1201.53 804.311 1209.98 806.856 C 1215.87 797.806 1219.25 791.406 1227.77 784.762 C 1225.14 776.661 1223.44 772.371 1219.88 764.623 C 1226.17 759.785 1230.5 756.779 1237.21 752.543 C 1242.61 757.026 1247.63 762.384 1252.57 767.416 C 1262.09 762.796 1269.81 760.25 1280.24 758.126 C 1281.65 750.24 1283 742.982 1284.81 735.185 z"/>
<path transform="translate(0,0)" fill="rgb(255,255,255)" d="M 1337.71 794.834 C 1363.61 813.334 1371.6 833.775 1372.13 864.841 L 1356.68 861.782 C 1346.94 859.805 1337.23 857.681 1327.56 855.411 C 1324.36 845.899 1321.4 840.23 1316.4 831.669 C 1323.69 818.973 1329.5 807.056 1337.71 794.834 z"/>
<path transform="translate(0,0)" fill="rgb(255,255,255)" d="M 1286.6 783.33 C 1300.41 781.561 1312.34 784.066 1325.18 788.728 C 1317.71 799.56 1309.75 813.811 1303.14 825.294 C 1299.72 825.231 1295.19 825.984 1291.72 826.438 C 1288.73 827.603 1285.62 829.194 1282.71 830.599 C 1274.41 818.773 1263.92 806.866 1254.49 795.726 C 1265.95 787.955 1272.9 785.358 1286.6 783.33 z"/>
<path transform="translate(0,0)" fill="rgb(255,255,255)" d="M 1243.84 804.618 C 1251 809.051 1263.96 831.358 1268.71 839.13 C 1265.91 846.225 1265.16 849.957 1263.56 857.483 C 1257.29 859.227 1249.46 860.486 1242.95 861.701 C 1234.9 863.09 1228.59 863.924 1220.46 864.699 C 1220.44 838.15 1226.99 825.037 1243.84 804.618 z"/>
<path transform="translate(0,0)" fill="rgb(255,255,255)" d="M 1325.66 868.84 C 1339.25 872.226 1354.87 877.121 1368.46 881.029 C 1361.57 895.97 1357.87 903.268 1346.36 914.801 C 1342.36 918.468 1338.8 921.237 1334.54 924.546 C 1326.11 911.717 1319.02 897.838 1311.79 884.276 L 1322.55 878.177 L 1325.66 868.84 z"/>
<path transform="translate(0,0)" fill="rgb(255,255,255)" d="M 1264.65 870.302 C 1265.39 870.896 1273.2 881.86 1276.79 885.301 C 1270.32 897.252 1263.1 912.712 1256.2 923.998 C 1251.85 920.883 1248.71 918.055 1244.72 914.551 C 1232.54 902.045 1229.12 896.187 1222.12 880.069 C 1236.92 876.699 1249.82 874.118 1264.65 870.302 z"/>
<path transform="translate(0,0)" fill="rgb(255,255,255)" d="M 1287.75 890.381 C 1291.43 891.058 1297.33 891.552 1301.21 892.005 C 1307.15 906.459 1314.41 917.694 1322.54 930.958 C 1315.89 933.02 1312.13 933.75 1305.25 934.98 C 1289.86 936.292 1282.58 934.561 1267.87 930.087 C 1274.98 917.344 1281.38 903.565 1287.75 890.381 z"/>
<path transform="translate(0,0)" fill="rgb(255,255,255)" d="M 1289.68 847.065 C 1296.49 846.651 1301.57 846.263 1305.99 852.353 C 1310.92 859.146 1306.1 864.839 1300.5 868.37 C 1283.64 870.94 1277.07 858.594 1289.68 847.065 z"/>
<path transform="translate(0,0)" fill="rgb(11,38,69)" d="M 592.544 897.296 C 601.481 896.659 616.472 898.987 621.129 906.654 C 636.993 932.769 606.98 964.024 587.068 977.847 C 573.684 986.946 554.499 999.197 537.714 998.504 C 528.269 998.113 537.297 980.083 539.109 976.977 C 556.209 972.048 568.943 970.469 584.302 959.176 C 591.141 954.148 615.003 931.271 604.631 922.517 C 587.888 908.387 553.579 928.445 540.762 941.348 C 531.758 950.412 523.053 961.159 519.106 973.612 C 503.288 1015.41 554.794 1036.04 551.751 1076.15 C 550.759 1092.03 543.117 1103.89 531.807 1114.3 C 508.487 1132.29 465.92 1141.5 445.006 1113.42 C 432.349 1093.99 439.26 1064.16 458.848 1052.06 C 465.12 1048.19 477.259 1049.18 480.519 1055.94 C 478.886 1059.26 470.677 1065.8 467.774 1069.36 C 458.079 1082.19 453.503 1092.59 466.735 1104 C 482.941 1117.97 515.711 1106.18 526.781 1089.97 C 545.903 1056.71 500.347 1034.04 496.728 1002.4 C 494.349 981.603 498.734 965.372 511.295 949.013 C 531.055 923.276 560.01 902.366 592.544 897.296 z"/>
<path transform="translate(0,0)" fill="rgb(11,38,69)" d="M 731.443 918.639 C 739.286 919.226 740.683 921.928 746.024 927.795 C 739.709 941.729 723.763 967.719 715.522 982.064 C 702.153 1005.64 689.15 1029.43 676.517 1053.41 C 687.452 1041.7 697.876 1029.8 711.971 1021.4 C 720.685 1016.21 726.947 1016.03 732.248 1026.5 C 732.286 1026.58 732.847 1029.08 732.651 1029.46 C 726.669 1041.11 717.01 1050.74 711.015 1062.5 C 706.154 1071.96 694.009 1093.49 696.439 1104.61 C 696.846 1106.47 699.671 1107.98 701.452 1108.3 C 704.119 1108.78 706.424 1107.2 708.683 1105.87 L 709.634 1105.29 L 711.182 1105.78 C 712.231 1109.25 712.328 1109.01 711.57 1112.52 C 700.78 1126.53 686.246 1127.95 678.819 1110.16 C 675.179 1087.15 688.928 1067.51 699.765 1048.2 C 686.759 1057.83 675.285 1069.38 665.733 1082.44 C 661.251 1088.51 657.422 1094.41 653.749 1101 C 651.265 1105.45 648.297 1115.99 644.011 1118.28 C 630.895 1118.24 631.906 1101.54 636.174 1092.91 C 643.908 1077.27 651.738 1061.01 660.115 1045.71 C 682.294 1005.21 704.06 955.708 731.443 918.639 z"/>
<path transform="translate(0,0)" fill="rgb(11,38,69)" d="M 1118.53 1003.16 C 1140.18 1001.82 1139.95 1019.47 1136.23 1036.04 C 1129.61 1065.5 1102.7 1114.93 1071 1122.32 C 1030.05 1112.53 1060.67 1057.35 1076.53 1038.74 C 1089.83 1023.13 1098.36 1010.36 1118.53 1003.16 z"/>
<path transform="translate(0,0)" fill="rgb(255,255,255)" d="M 1119.78 1018.89 C 1128.95 1032.99 1098.31 1081.26 1087.12 1091.67 C 1080.47 1097.85 1077.98 1100.89 1069.06 1102.93 C 1065.92 1097.51 1066.81 1090.26 1068.84 1084.62 C 1077.53 1060.49 1096.8 1030.98 1119.78 1018.89 z"/>
<path transform="translate(0,0)" fill="rgb(11,38,69)" d="M 1563.75 945.911 C 1568.83 945.784 1572.69 946.967 1574.31 952.086 C 1573.34 959.731 1563.1 971.442 1558.11 978.526 C 1568.65 977.37 1577.27 975.13 1588.68 974.25 C 1587.39 988.538 1583.37 990.714 1569.14 994.643 C 1558.23 997.655 1548.6 1000.23 1538.18 1004.66 C 1534.16 1009.79 1531.86 1015.05 1528.33 1020.18 C 1521.73 1029.75 1497.46 1091.71 1513.77 1096.5 C 1530.64 1093.36 1547 1063.46 1557.27 1051.26 L 1558.83 1051.22 C 1560.29 1054.23 1559.82 1054.95 1559.8 1058.55 C 1553.69 1075.95 1513.08 1148 1493.01 1101.99 C 1482.33 1077.52 1503.66 1033.35 1514.68 1009.44 C 1510.64 1010.3 1507.12 1011.41 1503.07 1010.92 C 1486.56 998.655 1525.1 987.46 1531.85 985.031 C 1539.96 973.641 1553.18 953.533 1563.75 945.911 z"/>
<path transform="translate(0,0)" fill="rgb(11,38,69)" d="M 1219.66 1018.94 C 1230.1 1018.27 1231.87 1028.68 1227.71 1033.96 C 1208.48 1058.41 1189.37 1080.2 1186.16 1112.51 C 1183.74 1136.96 1195.51 1132.02 1201.81 1142.81 C 1201.13 1144.33 1199.96 1146.37 1198.21 1146.39 C 1147.4 1146.82 1177.88 1073.52 1185.47 1058.18 C 1180.52 1062.86 1175.48 1068.43 1170.77 1073.43 C 1163.67 1081.27 1143.63 1114.7 1140.17 1116.24 C 1116.22 1110.15 1133.75 1079.22 1141.06 1066.11 C 1146.47 1056.39 1161.72 1024.57 1173.58 1026.13 C 1183.99 1032.99 1172.75 1050.46 1168.7 1058.64 C 1184.3 1042.85 1199.64 1029.05 1219.66 1018.94 z"/>
<path transform="translate(0,0)" fill="rgb(11,38,69)" d="M 774.071 1016.68 C 793.334 1025.58 763.947 1049.06 764.42 1057.81 C 770.84 1050.1 814.632 1001.84 822.243 1027.44 C 818.469 1045.73 774.344 1085.52 780.765 1109.99 C 785.885 1114.61 788.142 1109.86 796.288 1109.49 L 796.965 1111.04 C 790.164 1131.98 768.69 1133.21 762.991 1108.55 C 762.382 1085.87 774.35 1067.53 787.731 1050.33 C 761.373 1067.61 740.378 1100.18 728.513 1129.05 C 722.061 1122.39 720.505 1118.79 717.032 1110.53 C 720.972 1091.72 758.307 1026.64 774.071 1016.68 z"/>
<path transform="translate(0,0)" fill="rgb(11,38,69)" d="M 1307.55 1018.94 C 1313.51 1018.73 1323.32 1022.63 1319.21 1029.76 C 1304.65 1055.03 1281.8 1079.24 1281.6 1110.03 C 1281.51 1122.7 1291.51 1121.87 1292.06 1128.48 C 1288.11 1133.09 1282.38 1134.16 1277.43 1131.13 C 1247.33 1112.71 1276.18 1064.69 1286.13 1046.39 C 1276.57 1053.91 1259.34 1073.63 1251.3 1083.48 C 1242.23 1095.09 1235.18 1106.3 1229.93 1120.03 C 1228.6 1123.53 1222.38 1122.19 1220.28 1119.86 C 1211.35 1109.96 1218.36 1094.31 1223.14 1084.01 C 1233.38 1063.68 1245.49 1042.66 1260.68 1025.58 C 1261.51 1024.65 1263.43 1024.67 1264.61 1024.88 C 1269.13 1025.7 1270.88 1029.74 1273.46 1033.76 C 1267.98 1044.58 1261.72 1051.86 1256.42 1064.31 C 1271.28 1046.1 1285.7 1028.53 1307.55 1018.94 z"/>
<path transform="translate(0,0)" fill="rgb(11,38,69)" d="M 1376.22 1015.21 C 1408.7 1017.06 1376.03 1079.16 1333.04 1082.95 C 1331.67 1087.38 1328.03 1098.27 1331.19 1101.6 C 1349.68 1121.03 1379.59 1078.79 1389.54 1071.87 L 1391.01 1072.4 L 1392.32 1075.34 C 1392.31 1079.78 1390.22 1082.72 1388.14 1086.77 C 1345.42 1148.72 1279.62 1120.04 1324.82 1053.84 C 1336.72 1036.42 1354.69 1019.07 1376.22 1015.21 z"/>
<path transform="translate(0,0)" fill="rgb(255,255,255)" d="M 1377.52 1027.82 L 1378.78 1029.13 C 1379.7 1047.18 1352.8 1066.96 1338.45 1074.31 C 1337.5 1073.31 1337.96 1074.01 1337.66 1071.93 C 1345.24 1055.13 1361.97 1037.72 1377.52 1027.82 z"/>
<path transform="translate(0,0)" fill="rgb(11,38,69)" d="M 954.426 1015.15 C 982.582 1012.28 972.72 1040.62 962.749 1054.61 C 951.97 1069.98 935.443 1080.36 916.909 1083.4 C 906.952 1143.74 967.211 1074.67 973.897 1074.42 C 975.487 1079.23 972.966 1082.5 970.5 1086.5 C 962.691 1098.33 950.947 1109.54 938.744 1116.61 C 904.746 1136.28 885.84 1104.85 899.668 1073.98 C 911.208 1048.21 928.119 1026.56 954.426 1015.15 z"/>
<path transform="translate(0,0)" fill="rgb(255,255,255)" d="M 955.681 1027.63 L 957.662 1029.06 C 958.155 1031.5 958.018 1033.82 957.068 1036.13 C 949.972 1053.39 940.017 1065.23 923.415 1073.25 C 922.309 1073.03 923.005 1073.24 921.482 1072.23 C 927.789 1055.66 941.108 1037.97 955.681 1027.63 z"/>
<path transform="translate(0,0)" fill="rgb(11,38,69)" d="M 874.815 1015.11 C 898.115 1014.16 890.222 1040.33 882.228 1052.69 C 870.728 1070.46 856.835 1077.66 836.569 1082.16 C 821.596 1136.04 877.472 1090.68 888.537 1075.6 C 889.773 1073.92 890.948 1074.15 892.673 1074.34 C 894.207 1078.6 890.566 1084.03 888.476 1087.58 C 875.808 1104.35 848.167 1129.66 826.386 1119 C 807.715 1109.85 813.825 1079.33 822.04 1064.97 C 834.253 1043.62 851.118 1022.68 874.815 1015.11 z"/>
<path transform="translate(0,0)" fill="rgb(255,255,255)" d="M 874.631 1027.75 L 875.433 1028.46 C 882.955 1043.39 852.621 1066.72 841.542 1073.29 C 840.619 1072.41 841.072 1073.03 840.737 1071.11 C 846.119 1056.34 861.128 1035.95 874.631 1027.75 z"/>
<path transform="translate(0,0)" fill="rgb(11,38,69)" d="M 1455.25 1012.18 C 1487.05 1009.24 1470.86 1054.08 1454.88 1058.03 C 1450.6 1056.95 1452.12 1057.6 1448.73 1054.28 C 1447.48 1048.5 1458.63 1032.35 1461.38 1023.52 C 1459.22 1024.71 1457.12 1026 1455.09 1027.39 C 1441.07 1037.06 1406.1 1078.71 1417.63 1101.24 C 1418.43 1102.8 1422.65 1104.05 1424.61 1103.74 C 1441.21 1101.08 1457.49 1085.18 1468.65 1073.91 C 1471.1 1071.27 1479.09 1062.29 1481.58 1060.61 C 1488.41 1074.41 1447.73 1110.42 1434.91 1116.14 C 1398.63 1132.31 1387.46 1097.49 1400.27 1069.54 C 1411.04 1046.04 1431.13 1022.29 1455.25 1012.18 z"/>
<path transform="translate(0,0)" fill="rgb(11,38,69)" d="M 618.659 1014.12 C 635.907 1013.7 637.766 1024.75 633.677 1039.39 C 631.845 1045.96 625.045 1064.38 616.689 1061.71 C 611.96 1053.01 620.762 1039.49 623.845 1027.29 C 621.841 1028.29 619.878 1029.37 617.959 1030.52 C 598.925 1042.24 579.054 1069.56 573.72 1091.57 C 572.045 1098.48 573.934 1110.62 583.359 1108.97 C 601.64 1105.78 619.923 1086.24 631.301 1072.96 C 634.646 1068.72 637.305 1064.9 641.492 1061.48 L 642.779 1061.78 C 644.11 1074.47 611.82 1106.97 601.807 1114.77 C 594.855 1121.53 577.073 1129.15 567.844 1122.27 C 527.738 1092.39 587.769 1022.35 618.659 1014.12 z"/>
<path transform="translate(0,0)" fill="rgb(11,38,69)" d="M 1037.81 1014.01 C 1071.59 1013.03 1047.42 1074.95 1030.46 1058.03 C 1030.49 1050.56 1041.83 1035.55 1038.59 1030.54 C 1022.66 1029.73 998.153 1073.76 995.938 1088.47 C 989.947 1128.24 1025.11 1099 1037.81 1086.92 C 1041.49 1082.95 1045.39 1075.96 1049.39 1075.17 L 1050.73 1076.7 C 1050.58 1092.96 1010.31 1129.53 991.111 1121.28 C 984.742 1118.51 979.864 1113.14 977.71 1106.54 C 967.076 1073.93 1006.97 1023.86 1037.81 1014.01 z"/>
<path transform="translate(0,0)" fill="rgb(11,38,69)" d="M 520.543 1155.13 C 529.319 1154.68 537.659 1158.98 542.382 1166.39 C 547.105 1173.8 547.482 1183.18 543.37 1190.95 C 539.258 1198.71 531.291 1203.67 522.507 1203.93 C 509.127 1204.33 497.922 1193.88 497.384 1180.5 C 496.846 1167.13 507.174 1155.81 520.543 1155.13 z"/>
<path transform="translate(0,0)" fill="rgb(255,255,255)" d="M 520.71 1163.55 C 529.471 1162.97 537.084 1169.51 537.833 1178.26 C 538.581 1187.01 532.19 1194.75 523.457 1195.67 C 517.656 1196.28 511.979 1193.7 508.611 1188.94 C 505.244 1184.18 504.713 1177.97 507.222 1172.7 C 509.732 1167.44 514.89 1163.94 520.71 1163.55 z"/>
<path transform="translate(0,0)" fill="rgb(11,38,69)" d="M 574.873 1155.94 C 583.179 1155.61 595.932 1154.36 601.305 1161.7 C 603.509 1171.23 594.604 1175.01 603.355 1183.39 C 606.391 1186.3 604.682 1192.86 603.972 1196.83 C 595.495 1204.73 586.276 1203.29 574.782 1203.54 L 574.873 1155.94 z"/>
<path transform="translate(0,0)" fill="rgb(255,255,255)" d="M 583.094 1181.17 C 589.2 1181.1 592.865 1180.94 596.465 1186.24 C 596.996 1190.31 596.841 1190.16 595.314 1194.09 C 590.91 1195.44 588.046 1196.91 583.923 1194.56 C 582.082 1190.69 582.883 1185.69 583.094 1181.17 z"/>
<path transform="translate(0,0)" fill="rgb(255,255,255)" d="M 583.034 1162.86 C 587.92 1163.06 589.975 1162.88 593.327 1166.28 C 594.285 1169.8 593.84 1170.43 592.806 1173.88 C 589.493 1174.38 587.188 1175.17 584.215 1173.82 C 582.153 1170.95 582.893 1166.64 583.034 1162.86 z"/>
<path transform="translate(0,0)" fill="rgb(11,38,69)" d="M 429.926 1153.66 C 433.681 1157.77 443.552 1178 446.501 1183.83 C 450.03 1177.54 457.388 1159.56 461.007 1156.68 L 462.66 1157.03 C 464.779 1160.54 471.465 1193.66 470.512 1199.75 C 470.114 1202.28 469.559 1202.09 467.833 1203.2 L 466.141 1202.53 C 463.062 1197.38 462.315 1191.72 461.007 1185.78 L 458.341 1176.08 C 454.083 1184.19 449.747 1191.6 445.124 1199.48 L 434.455 1174.42 C 432.786 1181.89 430.98 1196.07 427.861 1202.57 C 425.429 1203.34 425.083 1202.99 422.485 1202.52 L 421.695 1201.22 C 421.921 1193.31 427.773 1161.55 429.926 1153.66 z"/>
<path transform="translate(0,0)" fill="rgb(11,38,69)" d="M 983.568 1155.18 C 985.97 1155.08 988.377 1155.16 990.767 1155.43 C 996.384 1156.03 1002.41 1158.01 1006.03 1162.57 C 1006.51 1165.91 1006.85 1164.41 1005.07 1167.21 C 997.559 1169.02 982.158 1155.04 973.46 1168.4 C 957.64 1192.71 993.88 1205.02 1001.29 1188.48 C 999.046 1182.56 994.211 1188.97 987.939 1185.15 C 988.782 1181.16 987.777 1182.47 990.099 1179.92 C 997.233 1177.89 1004.54 1178.72 1012.12 1178.86 C 1008.05 1196.57 996.867 1210.85 976.953 1202.21 C 970.592 1199.45 965.678 1194.16 963.403 1187.61 C 957.627 1170.66 968.356 1160.06 983.568 1155.18 z"/>
<path transform="translate(0,0)" fill="rgb(11,38,69)" d="M 910.41 1154.48 C 913.772 1156.64 932.457 1195 935.348 1201.18 C 932.825 1202.85 933.011 1202.74 929.968 1202.68 C 922.378 1198.85 927.895 1193.6 917.25 1192.92 L 901.563 1192.82 C 900.353 1196.21 899.852 1198.53 897.437 1201.22 C 893.74 1202.71 893.915 1202.66 889.924 1202.76 L 889.382 1201.53 C 891.649 1193.49 905.605 1166.88 910.41 1154.48 z"/>
<path transform="translate(0,0)" fill="rgb(255,255,255)" d="M 911.285 1170.67 C 913.483 1173 918.631 1181.9 917.82 1185.27 L 915.25 1185.55 C 911.267 1185.75 908.522 1186.77 905.828 1183.81 C 905.627 1180.19 909.416 1174.23 911.285 1170.67 z"/>
<path transform="translate(0,0)" fill="rgb(11,38,69)" d="M 791.496 1175.79 C 794.611 1168.78 798.885 1157.05 807.215 1154.77 C 810.31 1158.88 803.326 1168.92 801.095 1172.87 L 794.861 1184.94 C 795.202 1189.84 796.598 1199.1 793.732 1202.73 C 791.003 1203.46 791.198 1203.41 788.431 1202.76 C 786.469 1197.71 788.018 1189.66 787.156 1185.9 C 785.317 1177.88 775.688 1163.29 771.34 1155.92 C 785.196 1155.52 786.031 1164.29 791.496 1175.79 z"/>
<path transform="translate(0,0)" fill="rgb(11,38,69)" d="M 723.716 1156.48 C 730.81 1156.32 741.958 1154.5 747.857 1157.75 C 749.002 1160.54 748.969 1159.15 747.818 1162.06 C 744.69 1164.05 740.813 1163.65 736.979 1163.73 L 736.959 1199.25 C 736.961 1201 736.83 1200.77 736.249 1202.52 C 732.335 1203.26 734.13 1203.51 730.646 1201.99 C 726.944 1195.3 728.46 1172.76 728.504 1163.59 C 725.66 1163.46 723.776 1163.29 720.996 1162.96 C 717.574 1160.51 718.328 1162.03 717.672 1158.78 C 720.415 1156.44 719.622 1157.17 723.716 1156.48 z"/>
<path transform="translate(0,0)" fill="rgb(11,38,69)" d="M 633.338 1156.78 C 636.152 1156.77 638.278 1156.39 640.595 1157.84 C 641.702 1164.96 641.55 1186.47 641.75 1195.03 C 645.706 1194.85 650.177 1194.26 653.804 1195.56 C 655.884 1198.38 655.106 1198.16 654.896 1202.7 C 647.896 1203.03 640.261 1203.04 633.203 1203.19 C 633.157 1187.72 633.202 1172.25 633.338 1156.78 z"/>
<path transform="translate(0,0)" fill="rgb(11,38,69)" d="M 689.54 1155.96 C 691.924 1158.25 691.988 1199.17 689.954 1202.52 L 684.697 1203.79 C 681.734 1199.42 682.867 1164.73 683.373 1158.06 C 685.23 1156.09 686.2 1156.56 689.54 1155.96 z"/>
<path transform="translate(0,0)" fill="rgb(154,182,196)" d="M 827.834 436.524 C 812.921 357.288 925.554 331.573 945.802 410.252 C 1064.13 395.08 1184.33 414.2 1292.11 465.339 C 1320.1 478.538 1340.7 491.287 1367.21 506.358 C 1391.78 478.281 1428.13 475.37 1459.04 494.893 L 1462.13 496.228 L 1463.02 495.843 C 1463.72 498.931 1471.14 506.524 1474.15 510.605 C 1491.76 534.505 1489.9 565.017 1474.37 589.702 L 1473.79 590.603 C 1530.36 636.672 1580.15 690.489 1621.69 750.462 C 1633.57 767.276 1652.1 795.752 1660.31 814.246 C 1694.14 802.173 1731.53 821.71 1742.76 855.553 C 1748.54 873.21 1747.03 892.446 1738.55 908.978 C 1724.2 936.597 1699.07 944.305 1669.79 943.925 C 1664.33 965.302 1654.73 991.728 1648 1013.38 L 1598.96 1168.64 L 1477.64 1552.19 C 1511.28 1572.79 1525.46 1614.32 1503.83 1648.85 C 1494.24 1664.18 1478.9 1675.03 1461.25 1678.97 C 1423.45 1687.28 1388.83 1664.41 1381.33 1626.49 C 1380.75 1623.45 1380.25 1620.39 1379.82 1617.33 C 1288.16 1605.32 1193.9 1589.49 1102.61 1574.62 L 911.262 1544.26 L 751.163 1519.58 C 724.271 1515.57 695.41 1511.89 668.79 1507.26 C 673.385 1583.37 659.037 1647.79 607.113 1706.54 C 563.012 1757.29 500.195 1787.95 433.057 1791.5 C 368.947 1795.1 326.676 1778.34 273.335 1747.23 C 250.114 1771.15 212.121 1821.01 190.965 1848.14 L 89.3222 1976.44 C 72.2991 1997.96 50.1692 2027.76 32.9421 2048 L 5.63738 2048 C 14.9972 2034.52 32.9268 2013.24 43.9421 1999.36 L 116.202 1908.32 C 162.803 1849.93 207.819 1789.56 255.838 1732.29 C 245.218 1722.92 236.783 1714.6 227.752 1703.59 C 184.814 1650.65 164.755 1582.77 172.017 1514.98 C 179.049 1444.46 212.401 1384.12 266.977 1339.53 L 269.007 1337.76 C 293.049 1318.68 333.427 1300.28 362.898 1293.11 C 426.417 1277.57 493.502 1287.77 549.537 1321.47 C 611.811 1359.4 647.337 1415.11 664.511 1484.78 C 698.973 1490.67 732.962 1495.22 767.45 1500.42 L 887.564 1519.24 L 1136.14 1558.77 L 1278.21 1580.88 C 1312.26 1586.05 1347.99 1590.56 1381.6 1597 C 1393.82 1559.71 1419.52 1544.41 1458.16 1546.96 C 1466.78 1516.06 1476.79 1486.79 1486.35 1456.29 C 1505.18 1394.9 1524.58 1333.7 1544.57 1272.68 L 1649.33 937.62 C 1636.66 929.824 1628.18 920.936 1621.56 907.487 C 1613.5 890.785 1612.45 871.55 1618.66 854.072 C 1624.28 838.366 1636.13 824.386 1651.22 817.093 C 1647.96 808.849 1636.55 790.263 1631.51 782.329 C 1591.4 719.26 1527.51 642.291 1466.97 597.798 C 1459.19 605.709 1449.59 611.592 1439.01 614.931 C 1421.84 620.324 1401.58 618.38 1385.74 609.816 C 1370.29 601.272 1358.93 586.876 1354.21 569.868 C 1348.31 548.986 1351.85 532.389 1362.32 513.996 C 1333.38 496.716 1303.43 480.04 1272.55 466.456 C 1170.21 421.774 1057.74 405.417 946.912 419.097 C 944.008 483.927 861.979 504.411 830.735 445.315 L 827.834 436.524 z"/>
<path transform="translate(0,0)" fill="rgb(255,255,255)" d="M 417.785 1308.61 C 545.085 1307.26 649.441 1409.24 651.014 1536.54 C 652.587 1663.83 550.782 1768.36 423.488 1770.15 C 295.887 1771.95 191.051 1669.84 189.474 1542.24 C 187.898 1414.64 290.179 1309.97 417.785 1308.61 z"/>
<path transform="translate(0,0)" fill="rgb(154,182,196)" d="M 489.48 1388.13 C 501.808 1387.01 511.074 1390.38 522.429 1394.48 C 528.094 1402.59 532.659 1412.22 538.878 1419.78 C 560.125 1445.63 583.81 1470.37 604.815 1496.28 C 612.123 1505.3 615.149 1534.4 613.285 1546.07 C 611.695 1556.01 606.186 1560.91 598.178 1566.23 C 593.263 1551.86 586.082 1539.94 572.351 1532.33 C 559.851 1525.25 544.974 1523.68 531.273 1528 C 502.101 1537.32 491.218 1567.13 500.147 1594.71 C 466.963 1606.8 423.946 1620.43 389.957 1630.68 C 381.927 1606.99 365.609 1593.28 340.351 1591.61 C 304.558 1592.65 289.017 1616.89 288.444 1649.76 C 289.864 1652.41 291.469 1655.15 292.953 1657.79 C 282.183 1661.71 273.017 1665.25 262.462 1669.77 C 244.001 1625.38 231.12 1577.09 216.102 1531.89 C 209.902 1513.23 226.099 1471.48 245.506 1464.78 C 254.048 1461.84 263.789 1458.73 272.538 1456.1 C 286.279 1451.95 299.974 1447.64 313.621 1443.19 C 352.948 1430.31 392.398 1417.81 431.966 1405.69 C 449.984 1400.1 471.437 1392.63 489.48 1388.13 z"/>
<path transform="translate(0,0)" fill="rgb(255,255,255)" d="M 510.91 1426.06 C 513.67 1427.73 535.421 1480.78 538.147 1488.17 C 527.866 1490.97 515.047 1495.86 504.607 1499.36 L 438.229 1521.39 L 436 1522.18 C 435.502 1521.94 435.004 1521.7 434.506 1521.46 C 428.352 1503.86 418.073 1474.55 411.892 1458.58 C 445.14 1448.49 478.154 1437.65 510.91 1426.06 z"/>
<path transform="translate(0,0)" fill="rgb(255,255,255)" d="M 394.475 1464.08 L 396.253 1464.31 C 399.49 1468.78 417.264 1519.52 420.274 1527.82 C 391.114 1537.25 362.099 1547.12 333.239 1557.43 C 330.529 1558.42 331.777 1558.56 329.39 1557.63 C 321.456 1537.33 314.514 1513.07 307.109 1492.01 C 335.703 1483.53 367.175 1471.41 394.475 1464.08 z"/>
<path transform="translate(0,0)" fill="rgb(255,255,255)" d="M 289.795 1498.13 C 294.87 1500.95 309.423 1554.77 313.53 1565.04 C 293.314 1571.46 271.949 1577.81 252.195 1585.2 C 248.588 1582.94 231.423 1527.23 228.89 1518.98 C 249.135 1511.86 269.438 1504.92 289.795 1498.13 z"/>
<path transform="translate(0,0)" fill="rgb(154,182,196)" d="M 541.611 1547.92 C 558.017 1544.47 574.085 1555.07 577.377 1571.5 C 580.67 1587.94 569.923 1603.91 553.454 1607.05 C 537.205 1610.14 521.495 1599.57 518.246 1583.35 C 514.997 1567.13 525.422 1551.32 541.611 1547.92 z"/>
<path transform="translate(0,0)" fill="rgb(154,182,196)" d="M 335.59 1614 C 351.862 1611.42 367.125 1622.58 369.585 1638.88 C 372.046 1655.17 360.762 1670.34 344.452 1672.68 C 328.317 1674.99 313.338 1663.85 310.904 1647.74 C 308.47 1631.62 319.492 1616.56 335.59 1614 z"/>
<path transform="translate(0,0)" fill="rgb(255,255,255)" d="M 1408.43 492.197 C 1440.43 486.357 1471.11 507.579 1476.93 539.587 C 1482.75 571.595 1461.51 602.258 1429.5 608.061 C 1397.51 613.859 1366.88 592.64 1361.06 560.658 C 1355.25 528.676 1376.45 498.031 1408.43 492.197 z"/>
<path transform="translate(0,0)" fill="rgb(255,255,255)" d="M 877.775 371.708 C 905.285 367.046 931.363 385.576 936.011 413.088 C 940.66 440.6 922.118 466.668 894.603 471.304 C 867.108 475.936 841.061 457.409 836.415 429.916 C 831.77 402.422 850.284 376.366 877.775 371.708 z"/>
<path transform="translate(0,0)" fill="rgb(255,255,255)" d="M 1437.52 1567.39 C 1453.88 1563.96 1470.82 1569.58 1481.88 1582.12 C 1492.94 1594.65 1496.41 1612.16 1490.97 1627.97 C 1485.52 1643.77 1472.01 1655.43 1455.57 1658.5 C 1430.56 1663.16 1406.45 1646.83 1401.5 1621.87 C 1396.56 1596.91 1412.62 1572.62 1437.52 1567.39 z"/>
<path transform="translate(0,0)" fill="rgb(255,255,255)" d="M 1669.59 833.985 C 1693.68 828.128 1717.98 842.824 1723.98 866.88 C 1729.99 890.937 1715.44 915.326 1691.42 921.474 C 1667.19 927.676 1642.55 912.975 1636.49 888.712 C 1630.44 864.448 1645.29 839.893 1669.59 833.985 z"/>
<path transform="translate(0,0)" fill="rgb(236,239,240)" d="M 466.892 706.769 L 474.211 714.464 C 452.141 735.012 433.444 760.339 414.96 783.978 C 368.283 843.67 327.009 906.991 288.455 972.18 C 270.16 1003.11 251.176 1032.63 236.347 1065.58 C 251.607 1073.91 262.487 1082.57 267.295 1100.48 C 276.556 1135 257.322 1165.27 222.05 1171.76 C 228.561 1217.94 242.139 1262.63 256.935 1306.76 C 259.304 1313.83 265.267 1332.22 269.007 1337.76 L 266.977 1339.53 C 260.613 1333.35 255.699 1319.81 252.378 1311.37 C 234.69 1266.38 223.997 1220.95 216.432 1173.29 C 213.145 1173.07 209.715 1172.84 206.448 1172.44 C 191.336 1170.52 177.625 1162.62 168.377 1150.51 C 150.54 1126.8 154.864 1089.9 179.182 1072.16 C 193.426 1061.77 208.786 1060.73 225.498 1063.15 C 239.802 1039.83 252.984 1013.32 267.368 989.156 C 307.384 921.299 350.74 855.468 397.276 791.905 C 412.109 771.713 449.042 724.167 466.892 706.769 z"/>
<path transform="translate(0,0)" fill="rgb(255,255,255)" d="M 203.263 1069.41 C 229.475 1063.59 255.46 1080.05 261.387 1106.24 C 267.314 1132.43 250.95 1158.48 224.786 1164.51 C 198.474 1170.58 172.245 1154.1 166.285 1127.77 C 160.325 1101.43 176.905 1075.27 203.263 1069.41 z"/>
<path transform="translate(0,0)" fill="rgb(154,182,196)" d="M 1579.04 346.163 C 1577.73 342.554 1573.6 338.929 1571.08 335.747 C 1552.29 311.964 1560.39 277.149 1586.67 263.161 C 1598.81 256.562 1613.16 255.382 1626.21 259.91 C 1638.32 263.93 1648.27 272.719 1653.75 284.244 C 1665.11 308.343 1655.28 335.169 1633.71 349.538 C 1639.57 370.659 1712.74 545.566 1721.2 554.101 C 1719 555.866 1712.49 560.434 1709.72 560.42 C 1711.43 558.832 1711.95 558.354 1713.38 556.528 C 1711.41 553.63 1709.63 554.792 1707.01 552.12 C 1708.05 547.513 1675.05 474.285 1671.25 465.442 C 1655.09 427.983 1639.82 390.146 1625.46 351.963 C 1613.48 354.374 1604.68 355.652 1592.86 351.129 C 1588.72 349.545 1584.44 347.487 1580.12 346.772 L 1579.04 346.163 z"/>
<path transform="translate(0,0)" fill="rgb(255,255,255)" d="M 1603.55 266.09 C 1625.35 262.562 1645.94 277.212 1649.76 298.967 C 1653.57 320.723 1639.2 341.506 1617.5 345.611 C 1603.2 348.315 1588.55 343.116 1579.16 332.002 C 1569.77 320.889 1567.08 305.581 1572.13 291.934 C 1577.18 278.287 1589.18 268.414 1603.55 266.09 z"/>
<path transform="translate(0,0)" fill="rgb(185,204,213)" d="M 1788.03 527.72 C 1792.69 528.086 1791.85 526.56 1795.5 526.085 C 1799.2 535.396 1797.29 559.64 1792.44 569.097 C 1788.7 576.405 1786.93 578.875 1781.08 584.708 C 1782.9 585.654 1784.43 586.452 1786.3 587.278 L 1788.52 586.152 C 1785.45 591.305 1781.8 597.772 1777.6 601.996 C 1777.27 601.888 1771.58 601.551 1770.82 601.5 C 1774.53 605.453 1782.58 608.805 1787 615.07 C 1790.32 619.782 1796.44 622.463 1798.18 629.072 C 1797.34 632.671 1798.27 631.297 1795.56 633.484 C 1787.95 631.714 1779.49 608.875 1768.43 611.904 C 1767.36 612.272 1764.59 612.764 1764.09 612.383 C 1756.43 606.487 1756.11 604.784 1747.1 601.44 C 1744.53 600.965 1744.32 601.177 1741.62 601.329 L 1740.51 599.945 C 1739.05 599.945 1734.91 600.733 1733.04 600.967 L 1733.37 600.717 L 1733.72 599.546 C 1735.6 598.735 1738.79 597.822 1740.84 597.16 C 1737.41 594.866 1735.54 591.743 1732.84 591.621 C 1732.32 593.684 1731.64 595.591 1730.8 597.542 L 1729.85 600.062 C 1726.31 594.902 1721.53 588.066 1715.53 584.955 C 1712.68 583.475 1716.14 588.004 1710.71 583.258 C 1708.39 581.533 1707.21 579.348 1705.58 576.937 C 1699.23 570.567 1699.17 556.843 1707.01 552.12 C 1709.63 554.792 1711.41 553.63 1713.38 556.528 C 1711.95 558.354 1711.43 558.832 1709.72 560.42 C 1712.49 560.434 1719 555.866 1721.2 554.101 C 1736.94 554.205 1750.73 613.294 1774.94 552.179 C 1776.85 547.344 1785.02 531.639 1788.03 527.72 z"/>
<path transform="translate(0,0)" fill="rgb(255,255,255)" d="M 1740.51 599.945 C 1742.6 597.556 1743.06 597.12 1743.91 593.91 C 1743.01 587.125 1736.17 584.807 1733.96 578.971 C 1735.72 576.745 1735.93 577.13 1738.9 575.839 C 1749.17 579.185 1753.71 586.676 1761.9 584.134 L 1765.13 580.2 C 1769.7 585.778 1761.14 595.626 1770.82 601.5 C 1774.53 605.453 1782.58 608.805 1787 615.07 C 1790.32 619.782 1796.44 622.463 1798.18 629.072 C 1797.34 632.671 1798.27 631.297 1795.56 633.484 C 1787.95 631.714 1779.49 608.875 1768.43 611.904 C 1767.36 612.272 1764.59 612.764 1764.09 612.383 C 1756.43 606.487 1756.11 604.784 1747.1 601.44 C 1744.53 600.965 1744.32 601.177 1741.62 601.329 L 1740.51 599.945 z"/>
<path transform="translate(0,0)" fill="rgb(255,255,255)" d="M 1795.5 526.085 C 1799.2 535.396 1797.29 559.64 1792.44 569.097 C 1788.7 576.405 1786.93 578.875 1781.08 584.708 C 1776.19 588.507 1775.08 590.33 1771.53 595.189 C 1771.86 564.062 1783.29 555.01 1795.01 527.27 L 1795.5 526.085 z"/>
<path transform="translate(0,0)" fill="rgb(255,255,255)" d="M 1705.58 576.937 C 1709.19 571.212 1703.1 570.907 1712.92 565.034 C 1715.28 563.619 1721.83 558.788 1724.18 556.875 C 1726.62 560.049 1729.09 563.204 1731.57 566.342 C 1717.09 571.403 1722.92 573.743 1712.37 580.646 C 1711.8 581.917 1711.72 582.272 1710.71 583.258 C 1708.39 581.533 1707.21 579.348 1705.58 576.937 z"/>
<path transform="translate(0,0)" fill="rgb(236,239,240)" d="M 1718.21 582.853 L 1726.54 575.564 C 1732.21 581.48 1737.61 586.864 1741.61 594.073 C 1741.4 595.818 1741.66 595.837 1740.84 597.16 C 1737.41 594.866 1735.54 591.743 1732.84 591.621 C 1732.32 593.684 1731.64 595.591 1730.8 597.542 C 1726.6 592.045 1722.89 587.968 1718.21 582.853 z"/>
<path transform="translate(0,0)" fill="rgb(185,204,213)" d="M 827.834 436.524 L 830.735 445.315 C 741.873 473.854 657.642 529.585 588.792 591.788 C 576.043 603.254 563.541 614.991 551.295 626.991 C 542.139 636.021 531.407 647.436 521.794 655.608 L 513.887 650.508 C 540.13 626.986 565.012 600.818 591.551 576.851 C 663.504 511.869 737.368 469.902 827.834 436.524 z"/>
<path transform="translate(0,0)" fill="rgb(185,204,213)" d="M 1730.8 597.542 C 1731.64 595.591 1732.32 593.684 1732.84 591.621 C 1735.54 591.743 1737.41 594.866 1740.84 597.16 C 1738.79 597.822 1735.6 598.735 1733.72 599.546 L 1733.37 600.717 L 1733.04 600.967 C 1734.91 600.733 1739.05 599.945 1740.51 599.945 L 1741.62 601.329 C 1744.32 601.177 1744.53 600.965 1747.1 601.44 C 1756.11 604.784 1756.43 606.487 1764.09 612.383 C 1764.59 612.764 1767.36 612.272 1768.43 611.904 C 1769.22 614.519 1768.76 613.88 1770.26 615.999 C 1766.12 618.044 1764.39 619.075 1760.6 621.706 C 1753.23 629.724 1752.79 631.77 1749.74 642.265 C 1745.39 668.827 1755.93 675.567 1755.28 687.025 C 1753.35 689.577 1752.53 689.723 1749.73 691.273 C 1739.5 688.143 1739.05 648.143 1735.33 637.876 C 1734.73 636.217 1726.59 627.931 1724.89 626.16 C 1716 632.94 1712.54 633.232 1702.6 637.169 C 1696 639.778 1695.98 640.961 1693.44 647.361 C 1696.67 652.692 1701.84 660.45 1696.09 666.02 C 1686.6 666.603 1678.53 646.104 1676.56 638.339 C 1674.57 630.492 1667.61 621.83 1672.99 614.686 C 1676.85 612.735 1674.9 613.056 1679.01 613.442 C 1682.72 615.919 1683.57 620.211 1685.18 624.605 L 1686.8 625.185 C 1698.73 619.676 1710.44 613.692 1721.9 607.248 C 1722.08 606.883 1728.22 601.979 1729.85 600.062 L 1730.8 597.542 z"/>
<path transform="translate(0,0)" fill="url(#Gradient1)" d="M 1730.8 597.542 C 1731.64 595.591 1732.32 593.684 1732.84 591.621 C 1735.54 591.743 1737.41 594.866 1740.84 597.16 C 1738.79 597.822 1735.6 598.735 1733.72 599.546 L 1733.37 600.717 L 1733.04 600.967 C 1734.91 600.733 1739.05 599.945 1740.51 599.945 L 1741.62 601.329 C 1744.32 601.177 1744.53 600.965 1747.1 601.44 C 1737.29 613.073 1726.17 625.924 1710.6 629.725 C 1699.94 632.327 1694.6 628.79 1693.12 640.503 L 1692.45 640.408 C 1691.56 635.231 1689.53 629.938 1692.86 626.027 C 1699.38 618.367 1718.23 616.048 1721.9 607.248 C 1722.08 606.883 1728.22 601.979 1729.85 600.062 L 1730.8 597.542 z"/>
<path transform="translate(0,0)" fill="rgb(154,182,196)" d="M 1770.82 601.5 C 1771.58 601.551 1777.27 601.888 1777.6 601.996 C 1786.7 614.245 1799.05 622.265 1809.93 632.565 C 1814.05 636.47 1810.74 641.853 1807.62 644.946 C 1795.28 647.76 1784.4 621.465 1770.26 615.999 C 1768.76 613.88 1769.22 614.519 1768.43 611.904 C 1779.49 608.875 1787.95 631.714 1795.56 633.484 C 1798.27 631.297 1797.34 632.671 1798.18 629.072 C 1796.44 622.463 1790.32 619.782 1787 615.07 C 1782.58 608.805 1774.53 605.453 1770.82 601.5 z"/>
<path transform="translate(0,0)" fill="rgb(154,182,196)" d="M 1579.04 346.163 L 1580.12 346.772 C 1574.6 356.133 1562.59 369.933 1555.37 378.842 L 1509.47 435.406 C 1498.71 448.811 1488.13 462.354 1477.71 476.031 C 1473.53 481.556 1467.1 491.039 1463.02 495.843 L 1462.13 496.228 L 1459.04 494.893 C 1491.66 455.567 1523.54 414.84 1555.23 374.726 C 1563.14 364.712 1569.98 355.335 1579.04 346.163 z"/>
<path transform="translate(0,0)" fill="rgb(154,182,196)" d="M 1788.03 527.72 C 1790.59 523.921 1789.43 524.547 1793.09 522.692 C 1795.56 523.182 1797.04 523.384 1798.3 525.917 C 1809.68 548.818 1798.66 567.17 1788.52 586.152 L 1786.3 587.278 C 1784.43 586.452 1782.9 585.654 1781.08 584.708 C 1786.93 578.875 1788.7 576.405 1792.44 569.097 C 1797.29 559.64 1799.2 535.396 1795.5 526.085 C 1791.85 526.56 1792.69 528.086 1788.03 527.72 z"/>
<path transform="translate(0,0)" fill="rgb(236,239,240)" d="M 1879.59 1389.22 C 1890.13 1392.55 1900.68 1395.82 1911.25 1399.01 C 1910.18 1411.59 1909.19 1423.34 1908.75 1435.97 C 1920.07 1443.98 1931.28 1452.15 1942.36 1460.49 C 1953.64 1455.81 1967.3 1451.14 1979.02 1446.56 C 1985.6 1455.64 1992.71 1464.32 2000.31 1472.56 C 1995.64 1481.96 1986.47 1491.34 1980.54 1501.55 C 1985.83 1513.73 1992.83 1527.35 1998.49 1540.03 C 2010.52 1542.14 2022.92 1544.07 2034.49 1547.87 C 2035.48 1558.83 2036.34 1568.82 2038.06 1579.71 C 2025.38 1584.51 2014.95 1588.06 2003.29 1595.14 C 2001.79 1608.03 1998.75 1620.76 1995.99 1633.45 C 2004.91 1642.96 2013.58 1650.75 2022.37 1660.92 C 2019.3 1668.48 2012.37 1681.95 2008.29 1688.97 C 1996.93 1686.77 1985.68 1684.01 1974.58 1680.71 C 1948.12 1714.02 1945.06 1702.74 1954.33 1746.99 C 1945.57 1754.3 1938.78 1758.22 1929.12 1764.25 C 1919.69 1757.32 1910.11 1749.13 1901.02 1741.66 L 1882.75 1747.55 C 1875.52 1749.96 1870.57 1751.84 1863.58 1754.86 C 1859.44 1763.58 1855.69 1776.32 1851.35 1786.3 L 1820 1787.54 C 1814.81 1774.76 1811.45 1765.28 1805.27 1752.73 C 1791.36 1750.92 1781.74 1746.98 1768.23 1743.97 C 1759.96 1750.87 1750.95 1759.17 1742.73 1766.34 C 1734.95 1760.94 1727.05 1755.72 1719.04 1750.67 C 1721.19 1737.15 1722.13 1727.86 1722.93 1714.38 C 1712.23 1703.19 1705.17 1695.57 1696.03 1683.18 C 1686.24 1685.11 1671.63 1686.3 1660.8 1688.08 C 1656.79 1677.63 1653.31 1669.15 1648.66 1658.95 C 1654.49 1653.2 1671.17 1639.98 1677.95 1635.75 C 1675.4 1623.54 1672.19 1608.68 1671.58 1596.34 C 1634.8 1575.82 1639.77 1586.31 1644.17 1545.33 C 1652.26 1543.07 1670.61 1540.35 1678.88 1539.27 C 1683.51 1526.39 1689.61 1514.52 1694.06 1501.53 C 1689.08 1492.62 1680.85 1481.8 1674.75 1473.28 C 1679.07 1466.57 1689.81 1451.94 1694.9 1446.24 C 1707.15 1449.72 1718.95 1454.68 1730.8 1459.37 L 1765.4 1437.64 C 1764.44 1425.25 1763.32 1412.89 1762.02 1400.54 C 1772.32 1396.97 1782.64 1393.49 1792.99 1390.09 C 1796.81 1392.35 1812.67 1416.64 1816.22 1421.93 C 1829.47 1420.59 1844.58 1421.11 1858 1421.3 C 1865.14 1410.57 1872.33 1399.87 1879.59 1389.22 z"/>
<path transform="translate(0,0)" fill="rgb(255,255,255)" d="M 1943.46 1535.84 L 1945.06 1536.54 C 1949.15 1544.32 1954.84 1566.87 1955.56 1575.73 C 1958.89 1616.73 1946.46 1641.87 1921.81 1672.43 C 1918.11 1667.36 1914.94 1661.98 1911.65 1656.64 C 1902.89 1640.74 1894.12 1627.34 1884.2 1612.1 C 1889.38 1594.96 1891.27 1587.19 1883.74 1570.15 C 1900.44 1559.63 1926.03 1544.93 1943.46 1535.84 z"/>
<path transform="translate(0,0)" fill="rgb(255,255,255)" d="M 1833.81 1467.43 C 1871.47 1466.18 1913.36 1482.43 1933.38 1515.8 C 1923.24 1522.06 1911.13 1527.82 1900.42 1533.24 C 1889.31 1539.11 1880.35 1543.79 1868.81 1548.77 C 1859.32 1539.96 1847.09 1536.88 1834.8 1534.23 C 1832.14 1516.86 1821 1488.77 1816.31 1469.91 C 1822.37 1468.55 1827.65 1468.08 1833.81 1467.43 z"/>
<path transform="translate(0,0)" fill="rgb(255,255,255)" d="M 1867.48 1631.72 C 1874.2 1633.31 1896.96 1680.84 1900.68 1689.11 C 1875.36 1706.56 1850.98 1712.96 1820.08 1708.98 C 1808.08 1706.82 1797.26 1702.76 1785.94 1698.5 C 1793.45 1682.6 1812.48 1655.22 1823.09 1639.88 C 1845.36 1641.45 1848.48 1642.83 1867.48 1631.72 z"/>
<path transform="translate(0,0)" fill="rgb(255,255,255)" d="M 1720.04 1585.56 C 1733.19 1587.4 1773.26 1592.45 1784.11 1595.95 C 1790.79 1605.81 1794.34 1617.35 1802.08 1628.3 C 1794.25 1643.75 1790.11 1649.62 1779.86 1663.15 C 1774.11 1670.99 1769.46 1677.12 1763.08 1684.57 C 1758.64 1680.28 1754.27 1675.92 1749.98 1671.49 C 1724.94 1645.34 1719.17 1620.45 1720.04 1585.56 z"/>
<path transform="translate(0,0)" fill="rgb(255,255,255)" d="M 1791.31 1480 C 1795.82 1482.94 1811.64 1533.89 1813.32 1541.5 C 1799.34 1549.87 1794.82 1558.09 1785.75 1570.97 C 1773.56 1571.22 1761.32 1569.03 1749.24 1567.31 C 1739.8 1566.03 1731.56 1564.27 1722.27 1562.32 C 1734.81 1519.05 1749.56 1498.21 1791.31 1480 z"/>
<path transform="translate(0,0)" fill="rgb(255,255,255)" d="M 1831.39 1570.3 C 1841.5 1568.15 1851.46 1574.55 1853.7 1584.64 C 1855.95 1594.73 1849.65 1604.74 1839.59 1607.09 C 1833.87 1608.42 1827.85 1607.01 1823.32 1603.27 C 1818.78 1599.53 1816.26 1593.89 1816.48 1588.01 C 1816.81 1579.39 1822.95 1572.1 1831.39 1570.3 z"/>
<path transform="translate(0,0)" fill="rgb(236,239,240)" d="M 525.938 225.401 C 535.688 228.631 544.867 231.663 554.46 235.409 C 553.453 240.567 551.463 247.017 550.026 252.188 C 565.012 263.264 567.32 269.994 583.534 257.283 C 589.154 263.675 593.711 272.417 597.947 279.927 C 593.931 282.964 589.955 285.586 585.783 288.385 C 589.711 297.019 592.099 302.579 594.601 311.656 L 610.008 312.011 C 610.026 321.088 610.116 330.164 610.276 339.239 L 593.795 341.614 C 590.691 347.832 587.794 354.967 585.027 361.409 L 597.029 374.908 C 592.352 381.322 586.493 393.028 578.249 391.852 C 575.107 389.643 574.42 386.818 572.859 383.205 C 565.47 386.456 555.971 393.983 549.199 398.933 C 550.169 404.296 551.202 409.647 552.3 414.986 C 545.834 418.092 538.667 420.328 531.845 422.642 C 529.139 417.181 526.368 411.752 523.533 406.357 C 515.167 406.504 508.843 406.514 500.526 405.95 C 497.77 413.082 497.391 415.032 493.022 421.455 C 492.539 421.446 492.057 421.437 491.574 421.428 C 473.24 418.233 469.836 417.068 474.756 400.112 C 468.737 394.321 460.755 388.343 454.106 383.087 C 452.296 386.671 451.62 390.238 448.07 392.352 C 438.007 394.231 429.455 377.914 425.728 370.19 C 444.014 362.343 438.924 357.448 432.991 340.768 C 427.288 340.299 421.577 339.925 415.861 339.647 L 416.054 312.085 L 432.737 312.012 C 435.45 303.318 436.51 297.373 438.146 288.328 C 434.56 285.329 430.21 282.287 426.407 279.478 C 430.199 271.356 436.006 263.364 441.438 256.26 C 445.684 259.375 449.132 262.87 452.94 266.497 C 457.611 261.806 466.726 255.274 472.399 250.536 C 469.898 244.724 467.968 242.649 464.117 237.798 C 472.687 232.551 481.643 229.338 491.098 226.133 C 493.934 230.936 496.563 236.912 498.987 242.013 C 506.981 242.027 514.868 241.372 522.838 240.811 C 523.898 235.68 524.931 230.543 525.938 225.401 z"/>
<path transform="translate(0,0)" fill="rgb(255,255,255)" d="M 509.093 250.441 C 549.398 248.456 583.763 279.343 586.075 319.63 C 588.386 359.918 557.779 394.532 517.512 397.171 C 476.78 399.839 441.678 368.802 439.34 328.049 C 437.002 287.297 468.323 252.448 509.093 250.441 z"/>
<path transform="translate(0,0)" fill="rgb(236,239,240)" d="M 513.381 262.725 C 546.905 262.995 573.949 290.23 573.983 323.756 C 574.017 357.281 547.028 384.571 513.505 384.909 C 479.548 385.252 451.828 357.838 451.794 323.879 C 451.76 289.921 479.424 262.451 513.381 262.725 z"/>
<path transform="translate(0,0)" fill="rgb(255,255,255)" d="M 507.835 270.989 C 536.975 268.477 562.67 289.98 565.333 319.107 C 567.995 348.235 546.625 374.04 517.511 376.853 C 488.185 379.686 462.15 358.125 459.468 328.784 C 456.786 299.444 478.481 273.52 507.835 270.989 z"/>
<path transform="translate(0,0)" fill="rgb(236,239,240)" d="M 305.378 389.553 C 309.714 389.097 314.516 389.214 318.912 389.193 C 318.674 394.388 319.018 400.054 319.202 405.287 C 324.266 406.837 329.699 407.719 334.922 408.722 L 341.038 400.701 C 347.761 406.399 351.816 410.634 357.903 417.096 L 350.789 424.496 C 355.363 433.614 357.641 435.557 367.755 434.932 L 369.056 434.84 C 371.936 439.01 374.951 444.492 375.561 449.564 C 371.925 458.028 361.318 451 364.413 466.876 C 367.788 470.224 371.625 469.86 377.034 470.725 L 370.832 491.819 C 367.048 490.756 363.068 489.423 359.295 488.239 C 356.475 490.754 353.608 493.762 350.923 496.459 C 353.188 501.537 355.053 504.022 358.162 508.518 C 351.744 514.846 347.407 519.485 339.448 523.832 L 332.895 515.082 L 320.738 518.217 C 319.398 522.073 316.914 530.53 314.564 533.3 L 312.75 533.305 L 296.606 533.592 L 293.081 519.92 C 289.265 518.498 285.227 517.26 281.342 515.995 L 272.364 524.842 C 265.442 519.671 263.995 516.91 255.7 512.196 L 259.806 499.427 C 254.434 489.62 254.101 485.612 241.761 488.668 C 238.142 485.227 238.079 477.819 237.419 472.527 C 242.545 470.826 248.465 468.932 248.888 462.693 C 246.796 457.884 243.5 456.961 238.871 454.952 L 237.476 454.357 C 237.805 448.014 239.418 440.996 242.18 435.263 C 245.432 434.199 249.761 435.547 253.292 436.246 L 256.393 429.075 C 261.25 418.039 256.037 420.915 255.865 413.048 C 258.322 408.205 267.209 402.532 271.914 399.172 C 274.975 401.742 278.006 404.789 280.916 407.57 C 293.948 403.74 293.108 404.067 296.037 391.519 C 299.618 389.08 300.26 389.885 305.378 389.553 z"/>
<path transform="translate(0,0)" fill="rgb(255,255,255)" d="M 300.591 410.981 C 328.317 408.283 352.989 428.55 355.727 456.271 C 358.465 483.993 338.234 508.695 310.517 511.473 C 282.742 514.257 257.978 493.976 255.234 466.197 C 252.491 438.418 272.808 413.684 300.591 410.981 z"/>
<path transform="translate(0,0)" fill="rgb(236,239,240)" d="M 293.725 419.531 C 308.753 415.312 324.887 419.566 335.881 430.646 C 346.875 441.727 351.003 457.894 346.666 472.888 C 342.329 487.883 330.208 499.351 314.997 502.851 C 292.237 508.089 269.456 494.206 263.679 471.578 C 257.902 448.949 271.239 425.845 293.725 419.531 z"/>
<path transform="translate(0,0)" fill="rgb(255,255,255)" d="M 296.847 426.478 C 309.447 423.354 322.748 427.357 331.532 436.916 C 340.315 446.476 343.18 460.067 339.004 472.359 C 334.827 484.65 324.274 493.682 311.485 495.911 C 292.649 499.194 274.596 486.969 270.651 468.26 C 266.707 449.551 278.288 431.079 296.847 426.478 z"/>
</svg>