<svg version="1.1" xmlns="http://www.w3.org/2000/svg" style="display: block;" viewBox="0 0 1152 2048" width="1024" height="1820" preserveAspectRatio="none">
<path transform="translate(0,0)" fill="rgb(255,255,255)" d="M 0 0 L 1152 0 L 1152 2048 L 0 2048 L 0 0 z"/>
<path transform="translate(0,0)" fill="rgb(41,42,71)" d="M 850.111 821.26 C 869.604 819.758 895.912 825.709 909.176 832.035 C 929.951 841.943 955.379 863.481 940.547 884.681 C 939.306 886.454 944.58 899.204 938.425 912.31 C 941.917 922.135 952.246 934.806 950.898 943.974 C 950.249 948.391 943.139 948.216 938.856 950.688 C 935.443 958.776 945.39 957.511 933.052 971.097 C 933.585 1000.62 921.29 999.581 896.583 991.864 C 907.51 1008.26 916.097 1021.79 919.974 1041.19 C 928.685 1084.79 946.628 1126.16 951.069 1170.72 C 951.775 1177.81 947.495 1180.52 947.543 1181.53 C 948.357 1198.5 951.823 1205.12 939.775 1218.57 C 937.328 1233.4 938.016 1258.3 937.326 1274.01 C 935.467 1316.41 939.52 1358.07 942.795 1400.33 L 951.409 1511.73 C 953.122 1534 957.175 1568.31 957.037 1589.49 C 952.075 1593.15 947.201 1595.32 941.698 1598.01 C 950.114 1661.23 959.061 1734.34 964.423 1798.08 C 964.964 1798.52 965.402 1798.88 965.92 1799.36 L 966.529 1799.92 C 971.458 1804.43 975.927 1822.82 975.537 1829.7 C 975.398 1832.15 973.868 1834.8 973.29 1837.37 C 985.594 1848.47 1018.67 1853.32 1035.89 1850.79 C 1052.71 1848.32 1069.31 1842.54 1077.98 1866.16 C 1078.94 1868.78 1077.85 1875.05 1075.78 1877.02 C 1061.2 1890.9 1039.12 1900.11 1020.02 1906.12 C 1010.49 1908.68 1000.82 1909.18 991.417 1912.33 C 981.659 1915.6 934.087 1943.92 925.978 1933.47 C 917.031 1921.93 911.3 1883.14 909.799 1868.36 C 889.631 1871.66 889.213 1852.99 883.039 1837.29 C 884.642 1834.47 886.634 1832.03 888.601 1829.45 C 882.718 1811.91 873.883 1791.17 866.959 1773.69 L 839.4 1702.56 C 838.196 1712.53 839.124 1730.48 834.817 1738.4 C 828.449 1743.26 777.312 1753.82 765.173 1756.77 C 745.296 1746.16 714.066 1725.66 694.406 1713.29 C 692.543 1714.7 643.426 1785.79 636.451 1794.64 C 634.341 1797.31 632.856 1807.97 630.577 1812.75 C 626.567 1821.16 622.187 1831.18 612.666 1834.79 C 609.235 1836.09 606.596 1836.34 602.964 1837.84 C 601.01 1840.42 601.244 1842.63 601.033 1845.93 L 623.675 1891.57 C 633.18 1894.12 644.451 1896.48 652.245 1901.47 C 661.572 1907.44 662.292 1926.84 657.538 1935.01 C 654.528 1940.18 621.996 1940.27 616.127 1940.11 C 605.192 1939.81 593.666 1938.27 584.176 1932.92 C 571.032 1924.95 565.863 1907.91 555.067 1897.57 C 539.966 1883.82 515.738 1870.14 501.839 1855.52 C 509.274 1839.67 531.807 1810.79 542.692 1794.08 C 540.745 1790.44 539.171 1786.51 537.561 1782.69 C 539.701 1774.49 545.398 1758.16 551.013 1751.05 C 551.29 1750.7 555.853 1749.37 556.682 1747.42 C 560.975 1737.34 565.266 1726.99 569.454 1716.9 C 577.945 1695.92 586.95 1675.15 596.46 1654.6 C 596.237 1653.93 594.816 1649.45 594.947 1649.01 C 598.887 1635.87 601.676 1622.41 604.698 1609.03 C 591.556 1604.46 519.506 1582.05 512.679 1576.78 C 512.33 1571.23 521.084 1550.85 523.439 1544.85 L 540.923 1500.07 L 567.278 1433.09 C 569.84 1426.7 580.96 1396.6 585.363 1394.03 C 589.948 1393.02 643.017 1415.59 651.562 1418.92 C 653.131 1331.83 674.337 1233.69 694.976 1149.11 C 701.623 1121.87 708.936 1092.37 720.54 1066.89 C 732.082 1041.54 753.843 1021.95 767.989 1001.3 C 767.512 999.287 766.657 996.555 767.295 994.548 C 774.006 973.412 771.477 959.775 793.646 949.283 C 796.863 942.063 798.066 940.78 804.533 936.144 C 803.101 919.693 795.577 912.455 792.559 897.32 C 789.399 881.471 795.088 862.624 804.61 849.782 C 816.825 833.308 829.83 824.732 850.111 821.26 z"/>
<path transform="translate(0,0)" fill="rgb(255,255,255)" d="M 781.046 1005.7 C 803.116 1006.28 822.763 1016.61 840.061 1029.45 C 894.158 1069.6 868.199 1147.18 875.275 1201.12 C 878.473 1202.27 882.603 1203.25 885.954 1204.14 C 886.018 1211.49 884.421 1245.98 890.046 1249.26 C 901.924 1243.39 890.932 1207.95 892.817 1203.52 C 896.036 1201.72 894.608 1202.02 898.2 1202.3 C 901.694 1209.8 898.025 1237.03 903.411 1241.91 L 905.232 1241.09 C 914.217 1228.36 904.866 1210.14 906.72 1198.75 L 908.698 1198.23 C 918.042 1203.3 910.795 1227.54 916.192 1234.47 L 918.045 1234.12 C 930.448 1222.97 917.65 1205.74 918.442 1196.47 C 920.681 1193.3 921.395 1193.9 925.838 1192.3 C 929.805 1235.6 923.778 1284.13 926.282 1327.38 C 931.211 1412.5 939.292 1497.92 945.665 1583 C 913.246 1595.88 882.079 1599.87 847.544 1599.68 C 848.037 1588.22 849.336 1575.24 850.182 1563.69 C 835.519 1553.32 817.219 1545.5 803.042 1535.14 C 799.357 1520.46 796.625 1502.69 793.459 1487.46 C 802.607 1470.9 791.768 1450.21 785.611 1433.64 C 791.162 1422.95 791.926 1416.8 794.114 1405.11 C 821.57 1385.64 853.898 1342.67 873.049 1314.53 C 875.294 1318.56 877.97 1322.39 880.55 1326.23 C 866.586 1346.09 851.362 1365.05 834.973 1382.96 C 830.909 1387.39 807.654 1409.15 806.993 1410.88 C 806.454 1412.3 806.739 1412.49 807.331 1413.85 C 824.21 1421.05 880.06 1341.91 888.223 1325.95 C 885.324 1321.26 876.549 1304.66 871.848 1304.13 C 869.185 1306.29 848.663 1336 843.669 1342.35 C 828.855 1361.2 812.503 1378.78 794.781 1394.93 C 796.903 1364.75 799.064 1334.02 801.575 1303.8 C 802.287 1295.23 809.259 1280.97 808.851 1272.08 C 808.698 1268.72 802.613 1264.51 799.925 1262.49 C 820.268 1221.46 844.197 1173.89 858.059 1130.23 C 860.612 1120.48 867.502 1085.16 860.229 1077.48 L 858.69 1077.79 C 855.251 1091.01 855.041 1107.53 850.247 1122.15 C 845.234 1137.44 839.877 1149.8 833.542 1164.63 C 821.245 1193.15 808.354 1221.41 794.878 1249.4 C 787.31 1252.71 760.201 1263.12 757.623 1268.46 L 758.766 1270.19 C 766.594 1273.1 785.08 1264.18 793.184 1260.76 C 786.986 1268.36 760.098 1295.81 760.541 1302.66 C 769.774 1305.16 789.831 1274.99 796.331 1274.04 L 798.46 1275.89 C 798.793 1279.96 794.824 1291.63 793.848 1296.66 C 786.414 1334.97 789.476 1374.92 782.177 1413.37 C 777.674 1437.1 759.101 1434.85 740.472 1430.04 C 727.967 1426.62 721.689 1422.53 721.884 1408.77 C 722.553 1361.62 718.03 1314.96 715.879 1267.98 C 715.953 1244.25 718.557 1220.01 723.839 1196.63 C 735.498 1145.03 741.429 1082.16 794.544 1055.4 C 802.919 1051.18 813.383 1049.56 822.101 1045.44 C 811.806 1038.54 785.358 1050.54 775.809 1057.42 C 739.857 1083.32 730.282 1121.78 721.114 1162.72 C 716.697 1182.44 711.686 1202.17 708.206 1222.41 C 705.72 1237.04 704.472 1251.87 704.477 1266.72 C 704.47 1277.57 705.074 1288.55 706.132 1299.34 C 709.976 1338.52 711.147 1377.58 712.294 1416.86 C 712.458 1422.48 715.405 1427.81 718.591 1432.32 C 712.36 1444.3 709.867 1446.05 702.208 1456.72 C 699.666 1460.26 695.058 1476.15 693.345 1481.49 C 683.23 1475.81 673.075 1470.21 662.88 1464.67 C 662.696 1450.83 662.722 1436.99 662.958 1423.15 C 664.335 1335.48 683.002 1250.35 702.525 1165.38 C 718.857 1094.3 726.724 1058.36 781.046 1005.7 z"/>
<path transform="translate(0,0)" fill="rgb(41,42,71)" d="M 903.574 1295.93 C 919.689 1293.74 925.14 1312.45 911.243 1322.5 C 894.32 1324.27 890.932 1306.72 903.574 1295.93 z"/>
<path transform="translate(0,0)" fill="rgb(41,42,71)" d="M 912.094 1417.78 C 928.107 1421.31 928.1 1437.27 915.148 1445.11 C 898.242 1442.42 898.653 1425.47 912.094 1417.78 z"/>
<path transform="translate(0,0)" fill="rgb(255,255,255)" d="M 645.516 1490.87 C 693.659 1516.3 747.011 1549.97 795.187 1577.33 L 773.473 1683.76 C 770.81 1696.77 764.976 1727.57 761.264 1739.23 L 759.513 1739.91 C 709.625 1708.73 658.293 1678.27 608.027 1647.52 C 618.965 1594.9 634.234 1543.31 645.516 1490.87 z"/>
<path transform="translate(0,0)" fill="rgb(255,255,255)" d="M 583.236 1425.61 C 604.376 1435.02 628.812 1442.91 651.087 1452.61 C 651.556 1457.47 651.691 1462.91 651.921 1467.83 C 646.82 1471.52 641.745 1475.23 636.695 1478.98 C 626.697 1518.3 617.135 1557.73 608.01 1597.25 L 598.233 1594.05 C 574.908 1586.5 548.881 1578.65 526.105 1570.11 C 544.38 1523.47 563.217 1471.13 583.236 1425.61 z"/>
<path transform="translate(0,0)" fill="rgb(41,42,71)" d="M 595.074 1452.16 C 598.697 1453.53 598.728 1452.83 600.321 1455.69 C 598.525 1464.01 590.765 1484.75 587.462 1493.66 C 579.59 1514.88 571.753 1541.67 562.281 1561.79 C 559.66 1561.14 559.512 1561.14 557.363 1559.57 C 556.816 1554.01 590.724 1463.02 595.074 1452.16 z"/>
<path transform="translate(0,0)" fill="rgb(41,42,71)" d="M 620.963 1461.29 C 623.998 1461.9 625.049 1461.89 627.177 1464.06 C 627.64 1467.6 594.854 1560.24 591.025 1570.39 C 588.983 1570.13 587.823 1569.35 586.006 1568.41 C 584.594 1564.68 617.075 1473.08 620.963 1461.29 z"/>
<path transform="translate(0,0)" fill="rgb(255,255,255)" d="M 833.738 1573.21 C 836.541 1572.87 835.369 1572.52 837.464 1573.89 C 837.664 1590.2 835.025 1615.53 833.718 1632.28 C 831.25 1665.02 828.545 1697.75 825.605 1730.45 C 809.78 1733.8 793.096 1738.05 777.288 1741.8 L 774.395 1742.06 L 773.52 1740.77 L 806.628 1579.56 C 815.432 1577.06 824.767 1575.17 833.738 1573.21 z"/>
<path transform="translate(0,0)" fill="rgb(41,42,71)" d="M 820.34 1583.69 C 822.797 1593.48 809.252 1702.07 806.634 1715.71 C 804.092 1717.53 803.049 1717.05 799.541 1717.37 C 797.183 1711.38 816.841 1596.74 820.34 1583.69 z"/>
<path transform="translate(0,0)" fill="rgb(255,255,255)" d="M 929.051 1607.09 L 930.453 1607.25 C 933.299 1611.78 951.221 1785.72 953.446 1803.82 C 951.29 1805.12 947.588 1806.93 945.251 1808.16 C 940.449 1797.6 935.709 1785.12 931.291 1774.26 C 924.5 1757.45 901.605 1708.41 901.615 1694.9 C 901.626 1678.13 915.654 1664.02 926.723 1652.92 C 921.382 1652.17 916.057 1651.32 910.752 1650.35 C 904.441 1639.94 900.806 1625.98 897.211 1614.18 C 910.316 1612.67 916.52 1611.21 929.051 1607.09 z"/>
<path transform="translate(0,0)" fill="rgb(255,255,255)" d="M 798.108 957.95 C 799.35 963.572 803.1 981.463 806.314 985.633 L 808.412 986.062 C 813.529 978.485 799.331 947.975 807.63 945.268 C 839.63 956.017 893.11 1036.23 906.326 1040.31 L 909.771 1039.1 C 917.858 1068.25 887.14 1056.6 876.375 1047.19 C 842.631 1017.69 822.739 994.669 774.259 995.036 C 785.122 973.519 775.971 967.755 798.108 957.95 z"/>
<path transform="translate(0,0)" fill="rgb(41,42,71)" d="M 822.262 977.422 C 823.752 977.589 825.059 977.96 826.413 978.62 C 835.795 983.195 899.607 1041.22 902.201 1048.38 C 886.252 1048.61 830.634 992.859 822.262 977.422 z"/>
<path transform="translate(0,0)" fill="rgb(255,255,255)" d="M 849.237 830.229 C 870.363 828.89 883.321 832.018 903.275 838.971 C 898.201 843.361 888.765 853.686 883.87 858.956 C 868.841 875.139 856.971 887.071 838.83 899.82 C 829.488 905.895 819.858 911.511 809.971 916.651 C 787.527 880.015 809.024 839.16 849.237 830.229 z"/>
<path transform="translate(0,0)" fill="rgb(255,255,255)" d="M 876.477 1060.03 C 884.167 1063.23 890.518 1066.12 898.654 1067.98 C 902.467 1079.7 905.243 1093.14 908.057 1104.14 C 911.151 1116.23 918.226 1165.72 923.57 1172.44 C 929.169 1164.83 914.389 1086.65 910.443 1074.27 C 909.213 1070.41 908.488 1066.45 912.248 1064.63 C 917.227 1067.48 919.238 1081.05 921.089 1087.78 C 929.659 1115.72 937.571 1144.91 940.767 1173.95 C 925.951 1183.26 901.593 1189.96 884.824 1194.01 C 884.496 1143.69 893.726 1111.43 876.477 1060.03 z"/>
<path transform="translate(0,0)" fill="rgb(41,42,71)" d="M 890.016 1070.78 C 899 1077.63 905.713 1171.39 901.766 1182.12 C 899.288 1181.33 900.171 1181.81 898.376 1179.68 C 897.503 1162.62 896.637 1144.86 895.102 1127.94 C 894.233 1118.35 887.733 1076.48 890.016 1070.78 z"/>
<path transform="translate(0,0)" fill="rgb(255,255,255)" d="M 605.552 1660.36 C 616.876 1666.01 631.107 1675.27 641.737 1682.14 C 628.645 1711.4 609.972 1746.09 595.377 1775.34 C 594.079 1777.99 592.332 1781.01 590.885 1783.64 C 578.133 1774.5 574.538 1770.46 564.52 1758.13 C 566.099 1754.94 567.6 1751.06 568.925 1747.73 C 580.577 1718.44 594.145 1689.72 605.552 1660.36 z"/>
<path transform="translate(0,0)" fill="rgb(255,255,255)" d="M 930.39 888.855 L 931.407 889.684 C 933.318 893.48 933.155 898.078 933.342 902.375 C 926.66 903.845 912.521 906.121 914.315 915.461 L 915.956 915.702 C 917.957 914.302 918.237 913.953 920.558 913.405 C 920.933 918.612 920.135 918.665 922.708 922.379 C 925.929 923.927 924.782 923.976 927.469 923.06 C 929.992 919.712 929.182 914.998 928.834 910.842 C 932.328 921.85 937.454 931.23 942.843 941.395 C 921.015 945.775 933.024 948.9 931.278 959.582 C 926.824 966.942 922.483 963.701 914.247 967.457 C 916.361 971.039 920.018 971.356 924.195 972.497 C 928.047 978.387 924.881 986.906 918.238 988.03 C 911.289 989.206 900.494 983.676 894.606 980.172 C 889.77 976.015 885.321 970.759 880.249 966.335 C 877.988 968.374 881.433 971.358 879.915 975.346 C 877.316 973.056 867.587 964.067 866.716 961.285 C 869.613 960.952 871.693 960.936 874.322 959.669 C 875.933 956.966 875.749 958.184 875.01 955.122 C 872.547 952.884 867.358 953.57 863.95 952.943 C 853.397 951.002 853.097 934.283 861.25 929.335 C 867.321 925.651 877.476 936.896 882.969 938.095 C 884.683 938.469 893.349 920.363 895.436 918.279 C 904.995 905.544 917.62 897.624 930.39 888.855 z"/>
<path transform="translate(0,0)" fill="rgb(255,255,255)" d="M 546.374 1806.69 C 548.977 1809.78 548.285 1819.91 549.197 1825.19 C 552.923 1846.74 587.27 1838.53 591.348 1841.13 C 591.567 1843.8 592.025 1846.13 591.214 1848.62 C 588.072 1849.68 584.915 1850.7 581.745 1851.67 C 579.103 1854.53 579.596 1853.27 579.113 1856.57 L 580.784 1858.34 C 585.181 1859.73 588.252 1856.65 594.002 1856.21 C 597.226 1857.97 596.338 1857.65 598.21 1861.56 C 595.901 1866.85 583.06 1868.31 581.82 1876.66 L 583.022 1877.6 C 590.318 1878.46 595.273 1873.96 601.314 1869.9 L 606.108 1878.28 C 601.808 1881.03 590.692 1886.84 593.61 1892.93 C 599.534 1894.09 604.433 1889.33 609.125 1886.01 C 610.358 1887.99 612.444 1892.78 613.533 1895.13 C 609.195 1899.1 601.402 1905.36 601.141 1910.98 C 603.842 1912.53 602.803 1912.11 606.508 1911.63 C 611.905 1908.06 615.403 1904.9 620.254 1900.68 C 626.78 1902.66 644.603 1906.98 647.656 1912.43 L 646.666 1913.96 C 639.189 1917.27 609.88 1916.26 601.776 1913.09 C 588.731 1908 579.641 1886.44 569.102 1877.33 C 554.138 1864.39 537.773 1852.53 521.977 1840.55 C 530.203 1829.55 538.274 1817.86 546.374 1806.69 z"/>
<path transform="translate(0,0)" fill="rgb(255,255,255)" d="M 966.277 1845.09 C 969.763 1846.8 979.486 1853.25 983.203 1855.58 C 979.649 1860.92 974.726 1866.84 978.307 1873.38 C 985.985 1871.4 988.231 1853.03 997.443 1859.16 C 997.693 1862.79 992.375 1867.54 990.583 1873.58 C 990.83 1876.51 990.719 1876.77 992.54 1878.89 C 998.771 1878.03 1001.88 1863.81 1009.6 1859.6 C 1013.13 1859.4 1011.79 1858.97 1014.6 1861.27 C 1014.71 1862.53 1009.1 1881.69 1008.36 1884.59 C 1003.95 1885.14 998.793 1886.31 994.376 1887.19 C 969.629 1893.57 951.797 1906.57 928.256 1911.48 C 925.419 1901.25 922.772 1889.6 920.181 1879.2 C 953.444 1883.73 948.035 1865.94 966.277 1845.09 z"/>
<path transform="translate(0,0)" fill="rgb(255,255,255)" d="M 725.91 1436.84 C 744.527 1444.41 760.194 1447.74 778.972 1438.68 C 781.445 1444.86 790.34 1468.84 788.524 1474.13 C 783.781 1472.69 780.08 1464.74 776.089 1464.05 C 769.343 1468.07 763.9 1480 759.639 1487.26 C 756.925 1488.78 755.733 1489.76 752.571 1489.46 C 749.065 1488.2 747.423 1484.95 745.249 1481.79 C 746.824 1476.68 750.365 1467.62 748.516 1462.87 C 742.243 1460.57 738.488 1475.9 736.519 1480.74 L 734.673 1480.79 C 728.081 1476.63 730.733 1466.51 726.621 1460.71 C 724.211 1461.71 723.993 1466.93 721.258 1471.31 L 719.631 1471.66 C 711.402 1463.36 721.348 1445.26 725.91 1436.84 z"/>
<path transform="translate(0,0)" fill="rgb(255,255,255)" d="M 555.477 1764.52 C 557.512 1766.19 561.758 1771.59 563.801 1773.94 C 580.139 1792.78 596.702 1803.34 621.06 1808.84 L 611.835 1821.88 C 607.427 1825.68 592.438 1820.16 587.779 1817.93 C 571.239 1810.01 554.312 1799.66 547.626 1781.68 L 547.805 1781.16 C 550.578 1773.42 551.505 1771.58 555.477 1764.52 z"/>
<path transform="translate(0,0)" fill="rgb(255,255,255)" d="M 959.401 1811.91 C 961.206 1813.45 964.348 1826.62 965.189 1829.71 C 945.789 1842.37 925.788 1854.51 902.766 1858.72 C 900.202 1852.47 898.411 1847.39 896.306 1840.98 C 916.942 1837.06 941.806 1822.99 959.401 1811.91 z"/>
<path transform="translate(0,0)" fill="rgb(255,255,255)" d="M 514.639 1848.35 C 516.915 1848.86 520.331 1850.97 522.09 1852.58 C 536.957 1866.23 562.322 1879.74 572.505 1896.97 C 589.122 1925.08 605.233 1927.03 635.599 1924.96 C 639.923 1924.67 645.235 1923.54 649.317 1924.31 L 650.149 1925.94 L 648.771 1928.39 C 630.519 1930.67 605.15 1934.52 588.866 1923.62 C 577.778 1916.2 572.321 1899.48 562.418 1890.77 C 547.387 1877.56 530.164 1866.61 514.698 1853.98 C 513.399 1852.92 514.304 1850.27 514.639 1848.35 z"/>
<path transform="translate(0,0)" fill="rgb(255,255,255)" d="M 1066.08 1868.93 L 1067.22 1870.13 L 1066.85 1871.74 C 1041.78 1892.95 1013.8 1894.75 984.869 1904.15 C 966.206 1910.21 953.775 1921.13 932.35 1925.69 L 930.951 1922.47 C 931.111 1921.82 931.272 1921.18 931.432 1920.54 C 936.261 1918.97 942.321 1918.19 946.983 1916.29 C 959.635 1911.14 971.444 1904.33 984.43 1900.21 C 999.674 1895.37 1015.01 1893.66 1030.08 1887.9 C 1042.78 1883 1054.86 1876.64 1066.08 1868.93 z"/>
<path transform="translate(0,0)" fill="rgb(255,255,255)" d="M 842.755 957.211 C 847.03 956.969 850.464 956.551 854.659 957.47 C 855.398 958.555 855.722 959.131 855.926 960.46 C 857.158 968.489 884.426 993.092 891.439 1002.58 C 897.8 1011.18 902.339 1020.23 906.649 1029.99 L 904.786 1031.27 C 891.194 1009.76 860.631 978.307 842.755 957.211 z"/>
<path transform="translate(0,0)" fill="rgb(255,255,255)" d="M 1053.53 1857.21 C 1057.03 1857.9 1057.19 1857.33 1059.33 1859.61 L 1058.99 1861.69 C 1053.41 1868.41 1033.47 1876.9 1025.13 1880.36 C 1023.25 1881 1021.85 1881.24 1019.9 1881.63 L 1018.82 1880.56 C 1018.37 1875.83 1022.33 1866.45 1024.06 1861.3 C 1036.08 1861.17 1041.77 1859.69 1053.53 1857.21 z"/>
<path transform="translate(0,0)" fill="rgb(255,255,255)" d="M 589.941 1407.28 C 605.772 1413.31 636.138 1424.25 650.159 1431.54 C 651.699 1434.23 651.066 1436.26 650.721 1439.44 C 634.422 1432.99 602.952 1421.99 588.651 1414.72 C 587.992 1411.47 588.819 1410.81 589.941 1407.28 z"/>
<path transform="translate(0,0)" fill="rgb(255,255,255)" d="M 721.342 1481.54 C 731.678 1490.25 747.1 1500.28 760.91 1500.27 L 757.319 1515.65 C 743.852 1508.06 730.341 1500.55 716.786 1493.12 L 721.342 1481.54 z"/>
<path transform="translate(0,0)" fill="rgb(255,255,255)" d="M 712.534 1504.45 C 725.747 1512.23 740.217 1519.95 753.689 1527.42 L 750.492 1536.99 C 737.141 1530.13 721.604 1520.76 708.362 1513.23 L 712.534 1504.45 z"/>
<path transform="translate(0,0)" fill="rgb(255,255,255)" d="M 907.034 841.25 C 918.196 843.589 935.206 860.561 936.295 872.508 C 936.595 875.799 935.008 876.77 933.072 878.929 C 932.381 878.78 931.565 878.604 930.625 878.401 C 923.581 867.761 912.301 854.543 904.505 845.468 L 907.034 841.25 z"/>
<path transform="translate(0,0)" fill="rgb(255,255,255)" d="M 878.221 873.896 C 888.48 883.596 892.445 888.257 900.416 899.913 L 892.349 907.191 C 884.343 897.95 878.882 891.308 870.152 882.301 L 878.221 873.896 z"/>
<path transform="translate(0,0)" fill="rgb(255,255,255)" d="M 774.502 1478.29 C 778.359 1479.17 778.73 1478.53 780.731 1481.16 C 782.23 1490.86 768.811 1531.88 765.139 1544.31 C 762.996 1544.6 763.773 1544.61 761.482 1543.04 C 760.984 1538.43 773.881 1494.08 774.502 1478.29 z"/>
<path transform="translate(0,0)" fill="rgb(255,255,255)" d="M 889.305 861.723 C 896.482 865.873 908.793 882.27 913.633 889.38 L 905.83 895.514 C 904.294 894.991 901.957 891.01 900.72 889.392 C 895.2 882.173 888.963 876.091 882.407 869.806 L 889.305 861.723 z"/>
<path transform="translate(0,0)" fill="rgb(255,255,255)" d="M 776.632 1541.92 C 783.068 1545.5 811.482 1560.46 814.292 1564.96 L 812.551 1566.15 L 812.072 1566.28 C 807.657 1567.47 805.551 1568.78 801.023 1566.73 C 791.664 1562.51 782.713 1556.5 773.813 1551.3 L 776.632 1541.92 z"/>
<path transform="translate(0,0)" fill="rgb(255,255,255)" d="M 866.005 885.901 C 870.13 888.759 883.529 906.179 887.399 911.06 L 879.262 919.172 C 872.45 911.68 867.198 901.805 858.049 892.363 C 860.016 890.513 863.775 887.688 866.005 885.901 z"/>
<path transform="translate(0,0)" fill="rgb(255,255,255)" d="M 899.933 850.547 C 906.016 852.867 921.933 874.472 924.714 881 C 923.549 883.806 922.153 884.108 919.374 886.162 C 917.488 885.011 913.207 879.061 911.645 876.931 C 906.136 869.424 900.572 863.676 893.616 857.492 L 899.933 850.547 z"/>
<path transform="translate(0,0)" fill="rgb(255,255,255)" d="M 853.193 896.943 C 857.321 899.216 871.534 916.991 873.658 922.162 L 872.898 922.718 L 868.595 919.938 C 864.451 917.827 862.052 919.976 857.249 919.451 C 853.288 916.474 847.497 907.547 844.316 903.043 C 846.893 901.101 850.459 898.814 853.193 896.943 z"/>
<path transform="translate(0,0)" fill="rgb(255,255,255)" d="M 657.92 1476.66 C 663.024 1477.26 683.805 1489.09 688.008 1493.53 C 688.567 1496.99 688.565 1495.65 686.602 1499.58 C 681.736 1497.41 657.022 1484.11 653.478 1480.55 L 657.92 1476.66 z"/>
<path transform="translate(0,0)" fill="rgb(255,255,255)" d="M 840.553 905.872 C 843.629 909.606 849.528 920.643 852.549 925.369 C 850.653 927.661 848.766 930.289 846.969 932.686 C 845.616 931.271 844.282 929.838 842.966 928.388 C 837.97 922.858 834.218 918.74 834.585 911.25 C 836.491 907.642 836.625 908.366 840.553 905.872 z"/>
<path transform="translate(0,0)" fill="rgb(255,255,255)" d="M 827.219 913.698 L 828.517 914.638 C 831.889 922.666 836.286 930.65 842.559 936.733 L 842.987 937.143 C 842.273 938.92 839.573 939.687 837.397 940.776 C 832.566 940.823 823.565 923.284 823.49 918.503 C 823.455 916.244 825.667 915.056 827.219 913.698 z"/>
<path transform="translate(0,0)" fill="rgb(255,255,255)" d="M 816.732 919.579 C 817.548 920.277 829.182 942.617 830.524 945.403 L 828.522 946.207 C 819.991 940.241 803.014 930.008 816.732 919.579 z"/>
<path transform="translate(0,0)" fill="rgb(255,255,255)" d="M 708.26 1469.61 C 709.507 1472.39 710.718 1475.19 711.893 1478 C 707.794 1487.7 703.88 1497.48 700.154 1507.33 C 698.38 1507.27 699.274 1507.44 697.53 1505.89 C 697.091 1500.08 705.893 1476.49 708.26 1469.61 z"/>
<path transform="translate(0,0)" fill="rgb(255,255,255)" d="M 937.999 1187.24 C 940.671 1190.92 942.257 1213.58 937.431 1218.42 C 936.194 1209.96 932.469 1199.21 932.872 1191.11 C 932.967 1189.2 935.983 1188.26 937.999 1187.24 z"/>
<path transform="translate(0,0)" fill="rgb(255,255,255)" d="M 785.321 1507.59 C 787.858 1509.65 790.926 1524.2 789.125 1526.98 L 781.773 1522.2 C 782.917 1517.32 784.1 1512.45 785.321 1507.59 z"/>
<path transform="translate(0,0)" fill="rgb(237,235,238)" d="M 906.649 1029.99 L 909.771 1039.1 L 906.326 1040.31 C 906.904 1036.79 905.897 1034.61 904.786 1031.27 L 906.649 1029.99 z"/>
<path transform="translate(0,0)" fill="rgb(41,42,71)" d="M 338.848 266.869 C 339.251 267.027 339.829 267.221 340.12 267.537 C 379.717 310.454 411.004 361.944 430.378 417.058 C 435.188 430.744 438.267 446.242 441.44 460.109 C 516.188 457.438 556.117 469.267 612.51 520.386 L 603.059 532.859 C 601.822 531.407 600.546 529.987 599.235 528.601 C 565.492 492.831 521.017 474.303 472.085 472.967 C 489.872 590.596 406.07 679.304 315.107 738.785 C 278.42 691.437 265.742 639.155 286.511 581.745 C 291.32 581.843 296.441 582.222 301.269 582.491 C 282.073 635.855 289.425 672.485 317.876 720.001 C 350.511 702.497 396.368 656.875 417.839 626.523 C 416.363 624.946 414.861 623.392 413.334 621.862 C 324.082 532.544 169.594 558.792 114.439 672.046 C 83.6683 735.232 98.79 808.249 149.014 856.486 C 153.414 860.712 170.971 877.515 176.437 877.478 C 198.486 828.145 248.998 771.97 291.687 739.933 L 300.584 749.292 C 222.731 810.98 174.34 886.585 152.966 984.063 L 139.196 983.612 C 146.204 953.895 154.06 926.169 166.381 898.142 C 113.975 864.446 78.0648 810.383 76.0787 747.125 C 74.8457 697.752 93.2557 649.907 127.267 614.095 C 165.463 573.921 218.067 550.587 273.484 549.234 C 334.974 547.764 385.755 567.543 429.958 609.687 C 455.718 568.829 464.54 520.53 458 472.957 C 412.329 474.738 364.711 495.614 334.578 530.288 C 330.964 534.448 327.32 538.982 323.892 543.315 C 319.251 541.803 314.154 540.941 309.342 539.996 C 339.594 495.35 378.285 475.687 428.853 462.485 C 410.044 388.786 379.16 329.04 326.853 273.204 C 330.728 271.355 335.02 268.919 338.848 266.869 z"/>
<path transform="translate(0,0)" fill="rgb(41,42,71)" d="M 313.152 764.761 C 315.203 765.736 328.709 783.783 331.707 787 C 362.717 820.266 388.991 836.006 431.326 849.648 C 438.983 840.229 443.769 832.345 449.742 821.869 L 473.934 822.953 C 441.403 895.475 364.646 933.095 287.75 933.491 C 255.855 933.023 239.306 929.19 209.868 918.766 C 198.186 947.799 192.396 965.504 184.273 995.982 L 172.927 988.782 C 176.758 968.807 183.712 949.583 190.526 930.65 C 217.223 856.475 255.791 815.074 313.152 764.761 z"/>
<path transform="translate(0,0)" fill="rgb(255,255,255)" d="M 311.073 784.852 C 312.863 785.981 327.959 803.271 331.369 806.48 C 359.797 833.239 384.152 849.318 421.127 861.108 C 391.536 888.206 367.048 900.226 327.918 908.732 C 287.921 916.009 256.894 912.715 218.788 899.819 C 240.023 854.062 273.407 817.541 311.073 784.852 z"/>
<path transform="translate(0,0)" fill="rgb(41,42,71)" d="M 636.547 562.775 C 648.049 575.919 654.698 616.514 655.039 634.151 C 655.943 678.353 639.243 721.103 608.616 752.987 C 534.714 829.454 401.84 825.694 327.344 752.961 C 350.125 738.216 369.059 724.477 389.531 706.766 C 415.632 682.788 434.821 663.184 453.682 632.413 C 455.697 635.104 457.626 637.86 459.464 640.675 C 491.951 690.354 497.065 738.299 485.113 795.137 C 504.313 793.202 520.351 790.422 538.566 783.487 C 578.232 768.771 610.426 738.898 628.065 700.443 C 648.398 654.945 643.836 616.377 626.782 571.563 C 629.83 568.602 633.34 565.612 636.547 562.775 z"/>
<path transform="translate(0,0)" fill="rgb(255,255,255)" d="M 447.936 664.733 C 448.6 665.259 449.788 666.62 450.182 667.372 C 473.093 711.075 474.273 749.334 462.895 795.144 C 434.173 792.412 418.752 789.181 391.713 778.763 C 376.26 772.557 363.075 763.769 349.424 754.492 C 385.547 731.022 422.04 699.022 447.936 664.733 z"/>
<path transform="translate(0,0)" fill="rgb(41,42,71)" d="M 293.33 146.074 C 325.257 142.664 353.896 165.801 357.27 197.732 C 360.644 229.663 337.475 258.276 305.54 261.614 C 273.656 264.947 245.099 241.822 241.73 209.942 C 238.361 178.062 261.454 149.479 293.33 146.074 z"/>
<path transform="translate(0,0)" fill="rgb(255,255,255)" d="M 295.161 159.295 C 319.626 156.96 341.405 174.767 343.976 199.208 C 346.548 223.648 328.951 245.599 304.537 248.406 C 279.786 251.252 257.468 233.36 254.861 208.583 C 252.254 183.806 270.361 161.662 295.161 159.295 z"/>
<path transform="translate(0,0)" fill="rgb(41,42,71)" d="M 134.016 1001.17 C 165.189 995.098 195.364 1015.51 201.332 1046.7 C 207.3 1077.89 186.79 1108 155.578 1113.86 C 124.512 1119.7 94.5794 1099.31 88.6395 1068.26 C 82.6996 1037.22 102.991 1007.21 134.016 1001.17 z"/>
<path transform="translate(0,0)" fill="rgb(255,255,255)" d="M 138.794 1013.3 C 163.241 1009.84 185.869 1026.84 189.345 1051.28 C 192.821 1075.73 175.83 1098.37 151.386 1101.86 C 126.924 1105.35 104.265 1088.34 100.786 1063.88 C 97.3076 1039.41 114.327 1016.76 138.794 1013.3 z"/>
<path transform="translate(0,0)" fill="rgb(41,42,71)" d="M 547.042 878.189 C 578.161 873.149 607.484 894.257 612.581 925.366 C 617.679 956.475 596.625 985.838 565.526 990.993 C 534.344 996.161 504.888 975.04 499.777 943.849 C 494.667 912.659 515.842 883.242 547.042 878.189 z"/>
<path transform="translate(0,0)" fill="rgb(255,255,255)" d="M 549.581 891.352 C 565.226 888.951 580.952 895.169 590.723 907.622 C 600.495 920.075 602.795 936.828 596.742 951.453 C 590.689 966.079 577.222 976.306 561.509 978.212 C 537.739 981.093 516.054 964.373 512.796 940.652 C 509.539 916.931 525.914 894.984 549.581 891.352 z"/>
<path transform="translate(0,0)" fill="rgb(41,42,71)" d="M 762.491 109.009 C 793.775 104.571 822.681 126.478 826.865 157.796 C 831.05 189.115 808.91 217.842 777.559 221.774 C 746.564 225.661 718.234 203.827 714.097 172.865 C 709.96 141.902 731.563 113.397 762.491 109.009 z"/>
<path transform="translate(0,0)" fill="rgb(255,255,255)" d="M 765.174 122.086 C 788.842 119.132 810.458 135.829 813.58 159.475 C 816.701 183.121 800.158 204.855 776.535 208.144 C 752.674 211.466 730.672 194.72 727.52 170.836 C 724.367 146.952 741.268 125.07 765.174 122.086 z"/>
<path transform="translate(0,0)" fill="rgb(41,42,71)" d="M 852.692 453.036 C 883.952 449.505 912.101 472.122 915.388 503.409 C 918.674 534.696 895.838 562.668 864.527 565.71 C 833.559 568.719 805.96 546.188 802.71 515.244 C 799.46 484.301 821.774 456.527 852.692 453.036 z"/>
<path transform="translate(0,0)" fill="rgb(255,255,255)" d="M 856.602 466.397 C 880.312 465.082 900.608 483.215 901.962 506.923 C 903.316 530.631 885.216 550.957 861.51 552.35 C 837.75 553.745 817.366 535.594 816.009 511.832 C 814.652 488.069 832.837 467.715 856.602 466.397 z"/>
<path transform="translate(0,0)" fill="rgb(41,42,71)" d="M 364.022 242.95 C 413.01 292.845 448.616 358.701 467.727 425.679 C 574.179 402.139 700.039 418.03 800.493 458.829 C 797.821 461.712 793.392 466.865 790.317 468.921 C 776.266 463.282 758.832 457.991 744.279 453.679 C 648.031 425.163 555.284 419.085 457.621 441.716 C 439.856 368.641 405.63 308.864 355.27 253.647 C 358.285 250.58 361.339 246.41 364.022 242.95 z"/>
<path transform="translate(0,0)" fill="rgb(209,121,122)" d="M 478.729 281.463 C 562.048 283.198 633.385 326.943 658.012 409.074 C 652.467 407.757 643.699 406.582 637.852 405.641 C 633.193 394.664 629.819 386.805 623.567 376.642 C 608.704 352.667 587.817 333.008 562.988 319.623 C 520.756 296.528 472 293.082 426.138 306.497 L 415.936 291.387 C 439.18 284.755 454.623 282.305 478.729 281.463 z"/>
<path transform="translate(0,0)" fill="rgb(209,121,122)" d="M 641.243 480.54 C 646.978 481.239 654.821 482.961 660.684 484.087 C 634.474 566.822 563.876 617.982 477.751 622.206 C 470.416 622.881 467.681 622.761 460.474 621.934 C 463.668 616.396 466.766 610.145 469.74 604.439 C 549.968 601.432 616.453 558.393 641.243 480.54 z"/>
<path transform="translate(0,0)" fill="rgb(209,121,122)" d="M 349.296 319.959 L 361.384 334.312 C 307.971 374.808 288.701 448.969 318.968 509.415 L 310.134 519.684 C 308.536 521.842 307.534 522.883 305.662 524.825 L 303.853 523.927 C 292.121 508.026 284.688 464.968 285.835 444.398 C 288.941 388.705 310.282 356.336 349.296 319.959 z"/>
<path transform="translate(0,0)" fill="rgb(41,42,71)" d="M 573.872 448.458 C 635.894 449.078 726.232 464.682 783.046 490.214 C 781.717 494.014 780.379 499.404 779.261 503.389 C 767.358 498.581 756.358 494.731 744.242 490.559 C 709.83 478.211 653.414 467.244 617.51 463.867 C 604.106 462.609 590.646 462.033 577.184 462.14 C 544.75 462.457 552.589 465.035 521.791 452.084 C 540.684 449.495 554.998 448.936 573.872 448.458 z"/>
<path transform="translate(0,0)" fill="rgb(41,42,71)" d="M 718.865 213.79 L 728.08 223.413 C 695.244 256.408 657.078 296.798 623.02 327.553 L 613.275 318.888 C 646.433 288.586 686.048 246.218 718.865 213.79 z"/>
</svg>