<svg version="1.1" xmlns="http://www.w3.org/2000/svg" style="display: block;" viewBox="0 0 2048 1536" width="1365" height="1024" preserveAspectRatio="none">
<defs>
	<linearGradient id="Gradient1" gradientUnits="userSpaceOnUse" x1="1327.82" y1="1307.65" x2="1375.66" y2="1243.71">
		<stop class="stop0" offset="0" stop-opacity="1" stop-color="rgb(255,254,230)"/>
		<stop class="stop1" offset="1" stop-opacity="1" stop-color="rgb(255,255,255)"/>
	</linearGradient>
</defs>
<path transform="translate(0,0)" fill="rgb(255,255,255)" d="M 0 0 L 2048 0 L 2048 1536 L 0 1536 L 0 0 z"/>
<path transform="translate(0,0)" fill="rgb(57,51,115)" d="M 876.214 51.5576 C 916.848 49.0898 954.007 51.8773 994.399 55.4799 C 920.049 110.127 851.535 200.078 817.876 285.892 C 826.308 288.359 834.774 290.708 843.272 292.939 C 874.128 225.864 904.82 178.72 957.112 124.797 C 976.427 104.879 998.092 87.433 1018.33 68.5424 C 1033.76 83.2509 1051.27 98.0425 1067.15 113.063 C 1086.72 131.83 1105.11 151.789 1122.21 172.826 C 1251.5 333.333 1251.52 556.523 1098.96 700.471 C 1091.91 707.114 1085.21 712.956 1077.65 719.009 C 1073.32 738.428 1068.02 761.584 1062.38 780.54 C 1075 793.459 1089.27 806.036 1102.53 818.73 C 1179.27 892.186 1216.57 995.165 1213.87 1101.07 C 1210.85 1219.44 1146.36 1332.21 1060.54 1411.37 C 1046.85 1424.01 1031.62 1436.04 1018.45 1449.22 C 1018.25 1448.98 1018.04 1448.75 1017.84 1448.51 C 903.075 1352.87 818.037 1244.67 819.873 1081.15 C 810.033 1087.45 801.168 1092.55 790.958 1098.27 C 792.739 1202.09 837.441 1296.52 901.701 1375.96 C 929.939 1409.68 957.956 1433.36 992.08 1460.77 C 928.647 1471.05 857.569 1466.61 794.462 1455.76 C 656.301 1432.93 527.823 1370.22 424.832 1275.34 C 304.58 1166.14 225.518 1018.92 200.899 858.356 C 196.677 830.014 195.551 803.725 194.279 775.252 C 232.578 818.513 265.813 862.381 312.022 898.746 C 325.661 909.479 338.474 917.766 352.973 927.106 C 337.494 909.512 327.741 893.52 315.719 873.416 C 306.925 858.71 291.012 844.778 279.355 831.493 C 258.892 808.174 239.81 783.778 219.492 760.428 C 237.132 733.753 259.175 708.074 280.595 684.412 C 283.707 666.285 286.338 653.484 291.303 635.769 C 254.708 669.496 226.599 703.741 195.098 742.169 C 196.277 728.114 196.251 713.872 197.383 699.786 C 209.448 549.703 272.205 406.606 374.133 295.005 C 416.8 247.588 465.184 205.645 518.176 170.139 C 619.65 102.81 755.025 56.9925 876.214 51.5576 z"/>
<path transform="translate(0,0)" fill="rgb(115,192,192)" d="M 726.168 290.465 C 795.457 290.696 859.383 309.137 916.966 347.933 C 991.895 398.836 1043.55 477.402 1060.59 566.37 C 1078.84 661.638 1060.36 765.126 1014.89 850.292 C 1001.13 876.071 986.926 896.949 970.651 921.02 C 949.994 903.362 927.746 886.718 906.304 869.811 C 887.841 855.253 868.093 838.986 848.112 826.761 C 839.4 821.43 830.909 818.729 821.003 816.593 L 821.139 802.815 C 877.311 789.421 905.055 746.062 896.702 689.721 C 920.637 661.399 935.286 626.403 938.662 589.475 C 942.99 539.634 927.386 490.11 895.267 451.753 C 834.935 380.535 740.459 358.831 652.248 372.37 C 648.401 372.961 640.515 369.237 635.533 369.062 C 593.136 367.578 551.19 380.514 518.815 408.362 C 509.605 418.33 523.905 443.119 528.828 453.711 C 518.205 464.46 508.388 475.977 499.457 488.168 C 479.362 515.821 476.427 530.063 481.564 562.182 C 469.431 588.472 433.896 598.16 427.664 622.45 C 423.624 637.401 445.896 646.76 448.962 653.027 C 457.007 669.471 435.023 669.571 450.486 691.23 C 439.123 711.201 446.537 712.64 454.297 731.829 C 451.538 743.201 442.765 753.351 443.77 765.728 C 447.603 812.973 521.236 804.889 553.545 802.696 C 578.36 820.633 584.816 852.766 590.715 881.36 C 573.671 889.474 527.442 912.51 517.748 926.341 C 502.006 948.801 484.018 977.504 468.91 1001.12 C 181.076 836.575 289.828 484.767 535.723 342.952 C 597.147 307.527 655.517 292.631 726.168 290.465 z"/>
<path transform="translate(0,0)" fill="rgb(255,255,255)" d="M 213.998 824.502 C 217.354 826.743 231.881 845.066 235.904 849.402 C 267.383 883.402 302.524 916.559 343.014 939.615 C 360.642 949.652 375.269 954.66 390.863 968.374 C 410.923 986.015 435.352 1000.57 458.556 1013.68 C 449.79 1029.98 439.736 1046.18 431.043 1062.53 C 412.283 1097.8 393.242 1136.08 379.549 1173.65 C 407.745 1176.63 432.315 1181.04 461.691 1181.62 C 542.519 1183.22 623.546 1169.06 699.128 1140.4 C 725.428 1130.42 748.838 1119.47 774.153 1107.73 C 781.331 1211.54 813.783 1287.11 874.734 1370.03 C 894.913 1395.36 924.126 1427.63 949.265 1448.01 C 948.688 1448.07 948.11 1448.13 947.532 1448.18 C 918.915 1450.68 889.14 1449.17 860.545 1446.96 C 712.279 1435.19 571.345 1377.59 457.269 1282.15 C 324.734 1170.34 228.883 998.233 213.998 824.502 z"/>
<path transform="translate(0,0)" fill="rgb(255,255,255)" d="M 1026.51 864.688 C 1072.07 918.399 1115.94 954.613 1181.35 984.03 C 1226.67 1139.61 1166.3 1288 1051.68 1395.73 C 1040.92 1405.84 1029.72 1415.48 1019.44 1426.09 L 1013.32 1421.13 C 931.612 1357.68 868.956 1268.85 845.004 1167.79 C 837.119 1134.52 835.733 1103.15 836.861 1069.28 C 842.103 1064.64 854.807 1056.03 860.916 1051.59 C 872.3 1043.36 883.379 1034.71 894.132 1025.67 C 953.518 976.438 987.662 929.877 1026.51 864.688 z"/>
<path transform="translate(0,0)" fill="rgb(255,255,255)" d="M 883.121 68.4298 C 904.283 67.39 930.248 67.3955 951.226 69.1992 C 937.416 83.7325 921.977 95.5443 907.223 112.149 C 861.757 163.319 825.754 218.516 800.03 281.805 C 772.667 276.772 751.683 273.752 723.724 273.877 C 567.523 274.578 429.666 374.161 347.821 502.316 C 335.765 521.03 325.217 540.674 316.277 561.062 C 313.815 566.822 300.401 602.061 297.979 604.812 C 285.331 619.177 266.284 636.496 252.247 650.783 C 238.895 665.015 226.925 677.461 215.194 693.155 C 229.078 549.613 288.931 414.388 385.85 307.599 C 515.672 164.063 689.127 78.2092 883.121 68.4298 z"/>
<path transform="translate(0,0)" fill="rgb(255,255,255)" d="M 1018.16 91.6797 C 1020.33 92.5906 1024.36 96.5344 1026.31 98.2132 C 1088.87 151.899 1144.21 217.901 1173.9 295.621 C 1200 363.911 1208.65 444.705 1189.14 515.731 C 1147.04 540.244 1116.31 555.952 1081.37 593.077 C 1079.88 581.616 1078.49 572.079 1076.24 560.766 C 1070.16 531.294 1060.69 502.626 1048 475.337 C 1018.74 413.825 973.004 362.899 915.299 327.05 C 897.606 316.058 879.411 305.725 859.751 298.73 C 866.649 284.536 872.924 270.1 880.514 256.405 C 909.902 203.376 947.96 154.722 993.761 114.881 C 1001.12 108.475 1011.16 99.7571 1017.37 92.5964 L 1018.16 91.6797 z"/>
<path transform="translate(0,0)" fill="rgb(255,255,255)" d="M 536.504 465.679 C 549.224 520.454 583.75 550.258 627.43 581.796 C 627.049 597.668 629.141 611.154 634.739 625.353 C 661.337 692.814 714.49 638.437 737.196 648.534 C 727.255 659.037 733.8 666.494 729.345 677.992 C 728.997 678.89 720.786 685.176 718.336 687.824 L 718.608 688.879 C 752.239 688.283 730.016 648.503 749.658 654.267 C 756.446 663.461 747.174 683.869 740.608 691.468 C 729.202 704.669 709.761 718.174 692.058 720.316 C 681.18 721.633 674.364 718.278 673.997 707.05 L 673.964 705.871 L 672.893 705.07 L 670.978 706.214 C 667.995 711.09 668.449 716.008 669.154 721.442 L 669.343 722.845 C 658.696 744.033 651.171 754.14 631.923 768.475 C 603.599 787.404 539.32 793.117 506.035 790.572 C 492.562 789.541 470.793 786.799 461.697 775.297 C 449.702 760.131 467.876 748.23 465.531 731.561 C 464.04 720.964 459.07 713.55 458.992 703.78 C 458.988 703.336 459.852 700.922 460.822 700.942 C 468.941 701.109 504.211 704.604 510.006 701.264 C 510.3 697.304 508.72 695.651 505.67 693.488 L 504.122 693.776 C 485.961 696.948 476.142 679.009 463.596 677.747 C 460.55 679.887 462.211 680.332 460.914 685.563 L 459.262 684.262 C 453.929 673.77 467.661 665.427 461.003 652.35 C 457.669 645.801 438.655 630.799 440.582 624.612 C 444.349 612.511 466.069 601.801 474.554 591.577 C 495.358 572.501 494.045 566.353 492.399 539.932 C 492.918 512.748 517.359 483.078 536.504 465.679 z"/>
<path transform="translate(0,0)" fill="rgb(57,51,115)" d="M 500.16 575.052 C 498.713 566.688 498.873 561.117 509.731 559.913 C 529.992 557.665 549.488 583.383 562.236 596.749 L 561.906 597.786 C 558.077 596.522 549.854 592.706 547.12 592.633 C 539.778 595.629 533.514 598.226 525.893 600.575 C 518.679 603.543 509.468 607.357 503.273 600.324 C 503.993 594.231 510.887 598.033 514.602 594.788 C 508.969 576.873 515.668 587.358 516.391 576.368 C 510.675 577.57 511.27 577.801 507.932 573.596 L 505.096 573.966 C 501.765 573.541 503.381 573.318 500.16 575.052 z"/>
<path transform="translate(0,0)" fill="rgb(255,255,255)" d="M 527.882 595.714 C 528.197 593.149 530.229 584.89 530.866 581.93 C 535.007 584.768 538.562 586.989 542.879 589.559 C 544.303 590.539 545.837 591.501 547.12 592.633 C 539.778 595.629 533.514 598.226 525.893 600.575 C 526.145 598.143 526.608 597.793 527.882 595.714 z"/>
<path transform="translate(0,0)" fill="rgb(47,40,83)" d="M 542.879 589.559 C 544.303 590.539 545.837 591.501 547.12 592.633 C 539.778 595.629 533.514 598.226 525.893 600.575 C 526.145 598.143 526.608 597.793 527.882 595.714 L 542.879 589.559 z"/>
<path transform="translate(0,0)" fill="rgb(57,51,115)" d="M 711.828 665.291 C 716.767 665.253 721.638 666.531 724.065 671.016 C 724.005 683.055 706.312 690.548 696.259 691.946 C 693.303 691.987 690.385 691.278 687.776 689.888 C 684.954 688.381 685.15 687.455 684.513 684.942 C 686.547 672.809 700.996 666.78 711.828 665.291 z"/>
<path transform="translate(0,0)" fill="rgb(57,51,115)" d="M 516.731 536.31 C 540.392 537.423 557.539 555.892 572.415 572.611 C 567.593 570.39 564.339 568.294 559.848 565.492 C 546.464 555.819 532.768 547.035 515.614 550.613 C 510.418 551.697 500.909 552.594 498.364 547.011 C 500.834 540.659 510.446 537.22 516.731 536.31 z"/>
<path transform="translate(0,0)" fill="rgb(57,51,115)" d="M 453.624 631.754 C 471.139 631.995 476.863 648.854 485.848 648.378 C 487.29 646.517 487.523 646.084 489.373 644.542 C 492.406 646.291 491.626 646.103 493.707 649.509 C 492.28 650.874 489.895 653.205 488.198 654.09 C 485.804 655.307 482.992 655.395 480.528 654.328 C 478.136 653.294 460.268 638.127 455.729 635.562 C 455.044 635.175 453.963 632.735 453.624 631.754 z"/>
<path transform="translate(0,0)" fill="rgb(47,40,83)" d="M 500.16 575.052 C 503.381 573.318 501.765 573.541 505.096 573.966 C 506.145 578.006 507.417 580.744 506.057 584.53 L 504.543 585.092 C 501.392 582.642 500.88 578.995 500.16 575.052 z"/>
<path transform="translate(0,0)" fill="rgb(255,255,255)" d="M 882.267 898.396 C 892.62 897.404 906.286 897.917 916.723 898.116 C 931.907 909.546 946.876 921.257 961.624 933.244 C 949.201 933.1 939.47 933.094 927.009 935.42 C 831.768 953.201 755.515 1044.92 703.694 1121.26 C 654.169 1139.38 608.352 1153.13 555.5 1159.19 C 529.17 1162.95 507.838 1163.84 481.167 1165.22 C 481.5 1164.8 481.838 1164.37 482.182 1163.95 C 567.245 1061.53 746.985 910.477 882.267 898.396 z"/>
<path transform="translate(0,0)" fill="rgb(255,255,255)" d="M 810.739 830.487 C 813.904 830.492 819.621 830.526 822.342 831.558 C 849.058 841.684 877.369 866.771 900.67 883.456 C 888.821 882.189 876.514 881.727 864.636 882.55 C 699.206 894.005 559.719 1006.24 453.749 1121.85 L 418.573 1161.63 C 413.504 1160.78 407.288 1160.2 402.095 1159.58 C 408.195 1146.55 413.585 1133.22 419.923 1120.21 C 443.839 1071.3 470.427 1023.74 499.568 977.756 C 528.463 932.084 524.947 929.814 573.69 904.496 C 651.19 864.241 723.181 837.939 810.739 830.487 z"/>
<path transform="translate(0,0)" fill="rgb(255,255,255)" d="M 695.273 384.447 C 734.287 382.173 773.269 389.4 808.874 405.509 C 905.155 450.227 952.76 550.952 906.582 650.202 C 903.304 648.209 899.684 645.631 896.454 643.448 C 816.145 583.919 739.198 503.645 679.425 423.047 C 672.97 414.343 663.473 398.018 657.535 388.354 C 672.424 385.695 680.346 384.955 695.273 384.447 z"/>
<path transform="translate(0,0)" fill="rgb(255,255,255)" d="M 598.499 386.243 C 600.631 386.346 601.199 385.869 602.582 388.114 C 606.472 394.446 609.463 401.326 613.289 407.74 C 664.479 493.563 734.846 568.691 814.447 628.798 C 836.371 645.353 865.672 661.558 889.632 674.628 L 889.33 676.681 L 887.4 677.967 C 877.651 679.612 849.71 669.014 838.758 665.346 C 824.622 660.664 783.807 641.966 769.786 633.684 C 694.114 588.985 612.943 534.643 557.896 465.829 C 546.07 451.045 534.24 435.044 529.018 417.015 C 553.423 400.362 568.859 392.155 598.499 386.243 z"/>
<path transform="translate(0,0)" fill="rgb(255,255,255)" d="M 734.989 717.686 C 725.998 728.407 722.923 726.703 729.686 740.971 L 727.032 741.368 L 722.457 741.893 C 718.778 745.087 719.093 749.179 718.719 753.901 C 716.208 785.62 749.195 807.065 777.671 808.194 C 786.527 808.545 795.58 807.014 804.644 807.418 C 806.404 810.405 805.968 814.064 805.999 817.704 C 782.048 820.756 761.844 822.923 737.983 828.207 C 690.845 838.645 647.397 855.318 603.275 874.386 C 594.801 839.695 594.248 826.932 572.103 798.082 C 627.712 781.809 642.832 780.847 673.814 728.941 C 695.897 739.307 715.013 727.529 734.989 717.686 z"/>
<path transform="translate(0,0)" fill="rgb(255,255,255)" d="M 739.221 715.989 C 759.645 695.567 779.814 673.733 763.363 644.119 C 800.502 660.885 840.818 682.427 881.788 689.409 C 883.751 718.127 884.306 732.55 863.926 756.52 C 838.161 786.825 781.806 804.448 748.315 776.837 C 741.744 771.42 736.363 761.592 732.594 754.022 L 735.246 749.83 C 783.629 789.7 836.183 758.333 842.852 699.915 C 838.963 704.987 837.723 711.593 834.476 716.707 C 824.766 731.994 807.933 746.29 789.694 749.517 C 777.882 751.522 765.757 748.752 755.987 741.816 C 746.746 735.259 742.026 726.684 739.221 715.989 z"/>
<path transform="translate(0,0)" fill="rgb(255,255,255)" d="M 808.684 902.308 L 809.857 902.436 C 808.07 904.096 787.578 911.916 783.272 913.819 C 764.017 922.543 745.262 932.332 727.095 943.14 C 649.345 988.786 570.84 1053.95 508.15 1118.16 C 495.351 1131.27 476.308 1150.91 465.504 1164.97 C 455.267 1165 446.973 1164.69 436.756 1164.02 C 435.781 1164.03 434.812 1163.7 433.808 1163.46 C 434.368 1157.93 473.127 1117.46 479.428 1110.57 C 521.379 1064.68 568.777 1025.07 618.914 988.529 C 677.552 945.789 737.99 918.408 808.684 902.308 z"/>
<path transform="translate(0,0)" fill="rgb(255,255,255)" d="M 941.824 943.379 L 952.226 943.125 C 890.419 1016.42 817.721 1068.96 731.27 1109.37 L 724.392 1112.18 C 734.355 1097.18 744.994 1082.64 756.277 1068.6 C 800.797 1012.54 867.501 951.89 941.824 943.379 z"/>
<path transform="translate(0,0)" fill="rgb(255,255,255)" d="M 615.344 383.349 C 624.273 382.824 633.424 383.088 642.382 383.19 C 681.809 467.274 824.49 608.787 900.471 659.095 C 900.548 662.39 899.518 662.76 897.428 665.92 C 885.187 660.76 872.292 652.661 860.781 645.515 C 765.902 586.62 682.898 501.506 625.154 406.016 C 622.567 401.738 613.239 388.225 613.175 384.666 L 615.344 383.349 z"/>
<path transform="translate(0,0)" fill="rgb(255,255,255)" d="M 551.44 477.666 C 553.876 479.144 569.186 497.403 572.518 500.889 C 584.228 513.14 596.438 524.905 609.115 536.153 C 651.276 573.408 688.823 597.976 735.753 628.163 L 722.578 631.523 C 710.98 634.766 697.878 640.472 686.251 642.569 C 653.338 648.505 643.638 601.252 640.922 578.156 C 611.988 559.019 580.846 534.119 562.57 503.913 C 557.836 496.088 554.457 486.343 551.44 477.666 z"/>
<path transform="translate(0,0)" fill="rgb(255,255,255)" d="M 1047.07 820.341 C 1049.41 822.145 1063.93 839.884 1066.91 843.39 C 1075.84 854.023 1085.42 864.086 1095.6 873.52 C 1114.36 890.961 1138.47 907.783 1157.91 923.794 C 1162.14 927.281 1173.13 955.059 1176.21 962.389 L 1168.55 958.899 C 1114.57 933.225 1072.56 892.527 1034.6 847.663 C 1039.62 837.933 1042.89 830.489 1047.07 820.341 z"/>
<path transform="translate(0,0)" fill="rgb(255,255,255)" d="M 1180.44 540.96 L 1181.17 541.104 L 1181.74 542.38 C 1178.99 549.534 1169.69 574.945 1165.92 579.261 C 1158.81 587.39 1140.74 598.208 1131.29 606.741 C 1112.76 623.481 1100.63 636.846 1085.02 655.947 C 1083.73 654.169 1083.5 621.555 1082.83 615.959 C 1117.11 579.48 1135.82 565.497 1180.44 540.96 z"/>
<path transform="translate(0,0)" fill="rgb(255,255,255)" d="M 278.725 709.747 C 280.157 716.046 279.554 734.39 280.249 742.339 C 282.901 772.639 286.33 795.95 295.714 824.594 C 290.182 817.711 284.104 810.954 278.275 804.296 C 265.438 789.857 252.906 775.149 240.689 760.182 C 252.754 742.916 265.441 726.093 278.725 709.747 z"/>
<path transform="translate(0,0)" fill="rgb(253,253,235)" d="M 1143.88 618.964 C 1142.91 631.809 1094.66 679.899 1082.69 691.214 C 1082.44 690.356 1081.73 687.746 1082.09 687.21 C 1092.86 671.2 1130.98 629.433 1143.88 618.964 z"/>
<path transform="translate(0,0)" fill="rgb(253,253,235)" d="M 1054.47 800.621 C 1065.31 801.747 1095.65 840.012 1104.03 849.112 C 1113.51 859.411 1127.04 872.648 1135.83 883.295 C 1124.02 878.325 1063.34 814.517 1054.47 800.621 z"/>
<path transform="translate(0,0)" fill="rgb(253,253,235)" d="M 729.686 740.971 C 731.314 743.646 733.441 747.392 735.246 749.83 L 732.594 754.022 C 730.827 749.285 729.24 745.921 727.032 741.368 L 729.686 740.971 z"/>
<path transform="translate(0,0)" fill="rgb(57,51,115)" d="M 1113.46 52.4229 C 1116.3 52.233 1119.14 52.1097 1121.99 52.053 C 1311.76 48.8947 1495.08 120.845 1632.04 252.234 C 1765.54 381.655 1849.52 555.932 1852.33 743.289 C 1834.37 722.002 1817.34 699.279 1798.91 678.445 C 1755.18 629.01 1706.13 585.702 1648.64 553.04 C 1550.65 497.84 1437.05 476.891 1325.82 493.508 C 1299.91 497.53 1277.87 504.055 1252.69 511.016 C 1251.06 521.918 1248.46 532.484 1246 543.225 C 1361.99 497.104 1504.9 510.674 1615.73 565.2 C 1690.26 601.869 1784.81 684.962 1825.81 757.363 C 1763.34 848.787 1673.86 918.395 1569.87 956.449 C 1546.42 964.962 1523.69 969.973 1499.76 976.341 C 1493.67 993.421 1486.12 998.752 1472.95 1011.09 C 1542.1 999.44 1608.66 975.676 1669.55 940.889 C 1744.14 896.132 1799.77 836.682 1853.14 769.501 C 1852.9 785.702 1852.2 801.893 1851.04 818.055 C 1848.52 849.743 1840.21 903.739 1831.15 935.179 C 1791.44 1072.97 1710.99 1197.54 1602.58 1290.67 C 1468.35 1405.99 1309.18 1465.79 1132.42 1465.87 C 1103.73 1465.88 1073.42 1462.85 1044.62 1460.57 C 1068.74 1442.14 1091.27 1421.71 1111.94 1399.49 C 1224.18 1278.38 1273.28 1121.19 1221.79 960.952 C 1192.62 870.199 1145.89 819.043 1077.67 755.88 C 1106.3 736.195 1143.73 696.685 1164.49 669.252 C 1228.47 584.042 1255.72 476.788 1240.18 371.371 C 1222.75 246.311 1143.62 132.247 1044.15 57.207 C 1063.22 54.4678 1093.8 53.4735 1113.46 52.4229 z"/>
<path transform="translate(0,0)" fill="rgb(255,255,255)" d="M 1122.64 69.4465 L 1123.29 69.4006 C 1138.19 68.4361 1158.14 69.4681 1173.32 69.9659 C 1321.85 74.8371 1481.12 142.478 1593.01 240.086 C 1622.14 265.016 1649.16 292.318 1673.78 321.711 C 1757.22 421.827 1821.32 558.489 1830.29 689.448 C 1822.63 678.601 1811.82 666.549 1803.03 656.683 C 1756 605.916 1697.52 556.387 1635.4 526.015 C 1518.85 469.026 1380.69 452.09 1256.74 492.764 C 1258.81 482.535 1261.08 456.999 1261.49 446.297 C 1265.79 336.175 1224.97 226.068 1155.26 141.69 C 1141.15 124.946 1126.32 108.816 1110.82 93.3436 C 1104.32 86.8762 1094.23 78.1396 1088.57 71.842 L 1088.03 71.229 L 1122.64 69.4465 z"/>
<path transform="translate(0,0)" fill="rgb(57,51,115)" d="M 1461.82 229.351 C 1483.88 230.313 1508.41 229.886 1530.63 229.857 C 1530.57 247.943 1530.7 266.03 1531.03 284.114 C 1548.83 283.929 1566.63 283.838 1584.43 283.842 C 1585.49 305.666 1585.03 330.942 1585.11 353.033 C 1566.73 352.793 1548.35 352.744 1529.96 352.886 C 1529.85 365.743 1531.51 393.536 1529.63 404.791 C 1507.1 404.747 1484.56 404.885 1462.03 405.206 C 1461.91 387.659 1461.69 370.112 1461.38 352.566 C 1443.36 352.042 1425.32 352.146 1407.3 352.879 L 1407.43 283.104 L 1461.02 283.013 C 1461.04 265.123 1461.31 247.234 1461.82 229.351 z"/>
<path transform="translate(0,0)" fill="rgb(115,192,192)" d="M 1477.18 246.14 L 1514.1 245.727 L 1514.84 299.174 L 1568.53 299.121 C 1568.9 311.098 1568.68 324.043 1568.69 336.097 C 1550.79 336.457 1532.88 336.645 1514.98 336.66 C 1514.71 353.842 1514.94 371.673 1514.94 388.905 C 1501.89 388.43 1490.09 388.127 1477.05 388.327 L 1477.05 336.146 C 1459.48 336.678 1441.91 336.972 1424.34 337.027 L 1424.17 299.084 C 1441.79 299.056 1459.42 298.895 1477.04 298.602 C 1477.33 281.116 1477.38 263.627 1477.18 246.14 z"/>
<path transform="translate(0,0)" fill="rgb(57,51,115)" d="M 1309.6 208.916 C 1332.4 208.383 1351.31 226.437 1351.84 249.239 C 1352.37 272.041 1334.31 290.953 1311.51 291.478 C 1288.72 292.002 1269.81 273.95 1269.28 251.155 C 1268.75 228.36 1286.8 209.45 1309.6 208.916 z"/>
<path transform="translate(0,0)" fill="rgb(57,51,115)" d="M 1330.33 360.24 C 1347.74 358.664 1363.17 371.428 1364.88 388.828 C 1366.59 406.228 1353.94 421.749 1336.55 423.592 C 1318.98 425.456 1303.25 412.642 1301.52 395.052 C 1299.79 377.462 1312.73 361.832 1330.33 360.24 z"/>
<path transform="translate(0,0)" fill="rgb(255,255,255)" d="M 1831.61 823.976 L 1832.37 825.397 C 1811.23 1002.16 1724.19 1164.43 1588.62 1279.81 C 1450.67 1399.44 1270.96 1459.58 1088.79 1447.08 C 1108.73 1430.35 1127.59 1408.74 1144.4 1388.88 C 1205.9 1316.2 1242.77 1236.51 1255.7 1142.03 C 1261.63 1099.21 1259.3 1053.31 1251.25 1010.95 C 1263.5 1014.43 1275.85 1017.02 1288.29 1019.75 C 1286.82 1028.15 1286.85 1036.75 1288.38 1045.14 C 1292.91 1069.71 1307.59 1083.4 1327.03 1096.91 C 1282.87 1129.31 1291.61 1167.14 1324.38 1204.06 C 1317.31 1210.76 1312.54 1217.79 1309.25 1225.74 C 1294.95 1261.14 1317.64 1290.82 1330.11 1319.89 C 1332.25 1324.88 1328.28 1392.87 1327.96 1399.77 C 1333.94 1400.96 1343.14 1401.57 1349.43 1402.17 C 1350.97 1391.5 1364.21 1325.71 1368.76 1320.63 C 1402.61 1282.8 1425.7 1262.42 1403.82 1209.86 C 1406.73 1208.18 1409.6 1206.43 1412.42 1204.6 C 1449.42 1180.31 1457.95 1148.68 1432.92 1111.51 C 1467.51 1088.37 1486.34 1071.69 1472.96 1027.34 C 1584.5 1011.5 1688.6 962.168 1771.49 885.871 C 1794.81 864.696 1810.64 846.527 1831.61 823.976 z"/>
<path transform="translate(0,0)" fill="rgb(255,255,255)" d="M 1383.63 532.431 C 1405.24 530.827 1434.03 533.205 1455.54 535.744 C 1571.78 549.473 1669.46 603.802 1749.1 687.964 C 1768.1 708.04 1787.67 733.9 1804.95 755.961 C 1724.39 862.269 1633.81 927.115 1503.07 957.762 C 1503.05 956.85 1503 955.939 1502.93 955.029 C 1500.61 927.628 1489.98 913.861 1469.75 896.38 C 1571.63 865.363 1582.54 780.325 1486.06 728.913 C 1503.15 726.461 1529.01 719.949 1545.44 715.258 C 1546.81 716.477 1548.19 717.677 1549.59 718.857 C 1583.81 747.492 1618.41 686.919 1574.18 676.288 C 1563.28 673.666 1551.32 677.976 1544.7 687.552 C 1539.7 688.378 1534.79 688.734 1529.73 688.96 C 1503.11 690.15 1476.4 693.162 1449.79 694.09 C 1449.83 682.762 1450.92 670.519 1451.19 658.874 L 1458.37 654.716 C 1508.61 623.585 1476.36 552.184 1422.65 560.952 C 1408.78 563.268 1396.41 571.038 1388.3 582.529 C 1369.34 608.951 1378.13 636.179 1403.27 654.05 C 1401.02 664.716 1398.14 698.584 1397.53 710.118 C 1396.96 710.135 1396.4 710.156 1395.83 710.181 C 1368.27 711.293 1332.4 717.545 1313.6 739.242 C 1286.74 770.233 1277.49 775.08 1279.54 815.739 C 1276.18 819.04 1265.99 810.755 1259.82 808.679 C 1255.61 807.22 1251.14 806.673 1246.7 807.075 C 1224.32 809.037 1215.83 834.792 1235.78 847.398 C 1252.99 858.27 1268.35 842.89 1282.03 835.155 C 1284.55 833.727 1288.21 842.243 1289.46 843.585 C 1302.77 864.544 1315.09 874.539 1334.69 888.673 C 1333.94 889.096 1333.2 889.531 1332.47 889.978 C 1305.28 906.431 1298.64 935.464 1314.88 962.415 C 1285.55 959.166 1261.79 952.867 1234.01 943.925 C 1205.95 867.604 1162.66 809.832 1101.81 755.838 C 1112.8 749.323 1125.19 736.034 1134.6 727.072 C 1182.24 681.687 1217.26 627.645 1238.66 565.195 C 1246.18 560.461 1259.6 556.005 1268.18 553.15 C 1306.82 540.285 1343.15 534.516 1383.63 532.431 z"/>
<path transform="translate(0,0)" fill="rgb(255,255,255)" d="M 1302.53 773.913 C 1295.69 873.21 1488.05 862.712 1486.64 961.972 C 1486.38 979.739 1471.14 992.619 1458.29 1003.27 L 1456.05 1004.42 C 1453.28 1004.13 1453.37 1003.97 1451.32 1002.23 C 1451.96 993.469 1472.98 985.841 1469.63 968.186 C 1461.17 923.733 1405.54 907.305 1370.67 890.163 C 1337.18 873.696 1302.68 849.609 1294.67 811.284 C 1292.23 799.4 1294.85 783.226 1302.53 773.913 z"/>
<path transform="translate(0,0)" fill="rgb(255,255,255)" d="M 1388.92 725.412 C 1421.93 722.875 1455.51 730.779 1484.8 746.215 C 1516.28 762.807 1551.75 800.025 1529.65 837.493 C 1513.18 865.424 1485.88 875.89 1456.15 883.888 C 1450.14 881.256 1433.42 872.546 1429.28 868.38 C 1431.9 864.966 1472.34 851.462 1479.88 848.333 C 1611.04 784.125 1379.38 679.202 1320.24 778.761 C 1322.37 768.317 1322.27 758.266 1325.52 748.023 C 1339.73 732.877 1368.91 726.928 1388.92 725.412 z"/>
<path transform="translate(0,0)" fill="rgb(255,255,255)" d="M 1349.45 897.052 C 1351.74 897.765 1351.64 897.729 1353.58 899.142 C 1349.97 903.091 1343.09 909.711 1341.49 914.52 C 1337.97 925.059 1343.16 938.804 1350.82 946.389 C 1360.8 956.27 1372.55 963.041 1384.53 970.403 C 1410.86 986.595 1442.05 1006.71 1457.04 1034.69 C 1461.64 1043.28 1462.83 1055.13 1459.24 1064.18 C 1451.69 1083.24 1436.31 1090.7 1419.14 1098.54 L 1412.51 1090.67 C 1414.84 1089.54 1417.13 1088.3 1419.35 1086.95 C 1486.11 1046.78 1401.4 1010.34 1368.76 991.811 C 1330.1 969.86 1297.58 927.506 1349.45 897.052 z"/>
<path transform="translate(0,0)" fill="rgb(255,255,255)" d="M 1329.18 982.943 C 1340.13 993.673 1354.1 1000.91 1366.25 1010.47 C 1354.49 1008.4 1350.68 1006.74 1339.84 1002.02 C 1339.4 1002.31 1338.96 1002.62 1338.54 1002.93 C 1331.74 1007.98 1324.01 1017.97 1323.34 1026.6 C 1320.77 1059.21 1369.3 1078.01 1391.13 1094.6 C 1402.04 1102.05 1410.53 1110.85 1419.09 1120.81 C 1435.24 1139.59 1434.67 1168.16 1413.68 1183.81 C 1410.19 1186.23 1395.32 1197.28 1392.36 1197.23 C 1389.91 1194.84 1390.61 1196.26 1390.2 1192.85 C 1400.78 1178.61 1417.76 1177.5 1417.15 1152.64 C 1416.97 1123.01 1375.44 1105.56 1351.88 1093.48 C 1303.59 1068.73 1284.03 1025.79 1329.18 982.943 z"/>
<path transform="translate(0,0)" fill="rgb(255,255,255)" d="M 1423.44 574.988 C 1436.55 572.284 1450.11 576.834 1458.93 586.902 C 1467.75 596.971 1470.49 611.005 1466.09 623.649 C 1461.69 636.294 1450.83 645.599 1437.66 648.014 C 1417.61 651.692 1398.34 638.546 1394.44 618.535 C 1390.54 598.525 1403.47 579.105 1423.44 574.988 z"/>
<path transform="translate(0,0)" fill="rgb(57,51,115)" d="M 1425.73 584.929 C 1440.36 582.183 1454.44 591.827 1457.17 606.46 C 1459.9 621.093 1450.24 635.163 1435.6 637.874 C 1420.99 640.581 1406.95 630.94 1404.22 616.332 C 1401.5 601.724 1411.12 587.67 1425.73 584.929 z"/>
<path transform="translate(0,0)" fill="rgb(255,255,255)" d="M 1444.65 758.393 C 1462.92 762.388 1489.48 775.264 1499.52 791.828 C 1511.87 812.197 1493.63 823.807 1478.51 832.507 C 1465.32 839.224 1449.41 844.149 1435.23 848.932 C 1436.41 830.87 1438.3 813.023 1440.24 795.036 C 1441.56 782.823 1442.21 770.414 1444.65 758.393 z"/>
<path transform="translate(0,0)" fill="rgb(255,255,255)" d="M 1386.85 754.398 C 1388.45 754.132 1388.78 754.285 1390.42 754.393 C 1390.99 757.792 1389.98 762.742 1389.57 766.264 C 1386.5 792.688 1382.45 819.033 1380.03 845.527 C 1369.67 839.849 1359.49 833.834 1349.52 827.492 L 1348.54 826.795 C 1328.69 812.664 1319.38 801.877 1336.97 780.057 C 1349.56 764.43 1367.28 756.64 1386.85 754.398 z"/>
<path transform="translate(0,0)" fill="rgb(255,255,255)" d="M 1340.36 1104.51 C 1342.54 1104.62 1349.91 1109.33 1352.31 1110.73 C 1317.86 1131.67 1329.69 1161.59 1356.19 1182.98 C 1404.3 1221.8 1408.85 1247.38 1371.12 1295.51 C 1369.59 1294.07 1372.14 1291.7 1373.76 1288.68 C 1380.6 1275.96 1394.66 1251.77 1385.45 1237.79 C 1364.9 1207.01 1321.19 1194.83 1314.48 1154.02 C 1309.64 1124.58 1329.2 1120.88 1340.36 1104.51 z"/>
<path transform="translate(0,0)" fill="rgb(255,255,255)" d="M 1406.86 751.96 C 1414.67 752.078 1421.32 753.058 1428.95 754.481 C 1427.87 783.971 1421.1 830.382 1417.58 860.958 C 1410.94 858.864 1401.77 854.903 1395.11 852.255 C 1397.82 819.028 1402.66 785.121 1406.86 751.96 z"/>
<path transform="translate(0,0)" fill="rgb(255,255,255)" d="M 1417.18 659.74 C 1423.89 661.008 1429.99 661.356 1436.77 661.863 C 1435.85 669.816 1432.37 699.545 1437.2 704.808 C 1449.52 712.137 1522.06 702.745 1542.93 702.303 C 1537.43 703.873 1531.73 705.049 1526.14 706.282 C 1510.88 709.68 1477.66 713.795 1466.63 721.805 C 1448.81 716.24 1430.52 712.325 1411.98 710.112 C 1414.02 694.38 1416.75 675.425 1417.18 659.74 z"/>
<path transform="translate(0,0)" fill="rgb(255,255,255)" d="M 1241.15 963.817 C 1243.87 964.132 1248.61 965.522 1251.44 966.34 C 1270.88 971.965 1290.73 974.962 1310.4 979.468 C 1305.59 984.458 1303.28 986.955 1299.28 992.544 L 1292.34 1004.01 C 1277.17 999.858 1262.76 996.689 1247.43 993.319 C 1245.95 983.758 1243.34 973.349 1241.15 963.817 z"/>
<path transform="translate(0,0)" fill="rgb(255,255,255)" d="M 1388.3 914.714 C 1394.31 917.307 1402.27 921.586 1408.29 924.585 C 1405.96 937.437 1404.37 950.411 1403.51 963.445 C 1397.65 959.449 1389.63 955.006 1383.39 951.327 C 1385.91 940.633 1387.09 925.949 1388.3 914.714 z"/>
<path transform="translate(0,0)" fill="rgb(255,255,255)" d="M 1377.33 1014.47 C 1380.23 1015.61 1388.47 1020.47 1391.6 1022.23 C 1388.85 1037.18 1387.25 1058.18 1385.75 1073.59 C 1382.29 1073.85 1374.66 1067.35 1371.7 1065.11 C 1374.05 1052.11 1375.96 1027.99 1377.33 1014.47 z"/>
<path transform="translate(0,0)" fill="rgb(255,255,255)" d="M 1364.73 1116.99 C 1370.62 1120.17 1373.83 1122.3 1379.33 1126.19 C 1376.87 1141.72 1375.08 1162.01 1374.13 1177.52 L 1373.17 1177.54 C 1369 1174.96 1363.98 1168.37 1361.22 1164.25 C 1362.48 1148.51 1363.66 1132.75 1364.73 1116.99 z"/>
<path transform="translate(0,0)" fill="url(#Gradient1)" d="M 1354.4 1225.54 L 1363.06 1233.77 C 1359.75 1248.28 1358.36 1266.42 1356.02 1281.41 C 1353.3 1298.8 1350.08 1316.07 1347.51 1333.45 C 1347 1336.45 1346.89 1336.75 1345.8 1339.59 C 1344.22 1334.71 1352.54 1236.29 1354.4 1225.54 z"/>
<path transform="translate(0,0)" fill="rgb(255,255,255)" d="M 1423.14 933.248 C 1432.78 941.485 1445.77 951.047 1452.62 961.356 L 1451.55 962.823 C 1444.88 959.833 1428.16 961.741 1419.33 961.967 C 1420.33 951.634 1421.4 943.482 1423.14 933.248 z"/>
<path transform="translate(0,0)" fill="rgb(253,253,235)" d="M 1336.38 1214.65 C 1338.61 1215.81 1342.67 1219.25 1344.81 1220.94 C 1341.75 1223.86 1335.8 1229.31 1333.48 1232.45 C 1322.28 1247.61 1329.12 1273.08 1332.39 1291.01 L 1331.45 1291.18 C 1318.81 1262.59 1314.02 1238.91 1336.38 1214.65 z"/>
<path transform="translate(0,0)" fill="rgb(255,255,255)" d="M 1564.68 690.039 C 1570.41 688.192 1576.55 691.309 1578.43 697.02 C 1580.32 702.73 1577.24 708.891 1571.54 710.815 C 1565.79 712.756 1559.56 709.644 1557.66 703.88 C 1555.75 698.116 1558.91 691.905 1564.68 690.039 z"/>
<path transform="translate(0,0)" fill="rgb(255,255,255)" d="M 1407.35 1033.74 C 1415.06 1038.18 1418.65 1040.7 1424.1 1047.7 C 1421.2 1050.59 1417.81 1053.63 1414.79 1056.44 L 1403.63 1063.34 C 1404.06 1053.71 1405.6 1043.22 1407.35 1033.74 z"/>
<path transform="translate(0,0)" fill="rgb(255,255,255)" d="M 1246.84 820.989 C 1247.62 820.933 1248.41 820.889 1249.19 820.858 C 1260.43 820.452 1266.04 828.014 1255.47 836.224 C 1243.45 837.085 1234.72 830.78 1246.84 820.989 z"/>
<path transform="translate(0,0)" fill="rgb(255,255,255)" d="M 1341.24 1019.71 C 1347.14 1022.85 1350.9 1024.38 1357.17 1026.8 C 1356.41 1032.9 1355.86 1039.32 1355.24 1045.45 C 1345.09 1045.07 1341.26 1027.89 1341.24 1019.71 z"/>
<path transform="translate(0,0)" fill="rgb(255,255,255)" d="M 1394.89 1138.55 C 1404.54 1146.05 1402.18 1159.06 1396.51 1168.31 C 1394.92 1169.56 1394.81 1169.44 1392.83 1170 C 1390.29 1165.01 1393.94 1144.89 1394.89 1138.55 z"/>
<path transform="translate(0,0)" fill="rgb(253,253,235)" d="M 1452.62 961.356 C 1459.3 975.875 1448.99 982.542 1437.91 989.749 L 1428.34 981.114 C 1439.88 980.085 1454.22 978.923 1451.55 962.823 L 1452.62 961.356 z"/>
<path transform="translate(0,0)" fill="rgb(255,255,255)" d="M 1359.2 917.535 C 1365.64 916.801 1368.2 915.886 1372.11 921.583 C 1370.82 924.751 1371.7 923.669 1367.77 925.365 C 1362.39 926.059 1357.03 927.22 1355.21 920.57 C 1356.31 918.613 1357.13 918.532 1359.2 917.535 z"/>
</svg>