<svg version="1.1" xmlns="http://www.w3.org/2000/svg" style="display: block;" viewBox="0 0 2048 2048" width="1024" height="1024" preserveAspectRatio="none">
<path transform="translate(0,0)" fill="rgb(255,255,255)" d="M 0 0 L 2048 0 L 2048 2048 L 0 2048 L 0 0 z"/>
<path transform="translate(0,0)" fill="rgb(4,35,61)" d="M 1884.33 789.171 C 1922.94 785.258 1941.29 808.642 1952.81 841.624 C 1960.49 846.65 1979.94 858.112 1983.4 865.026 C 1982.84 873.378 1971.61 881.71 1965.26 886.433 C 1960.05 890.312 1954.28 889.435 1948.07 889.421 C 1945.63 894.014 1947.65 901.195 1946.23 905.553 C 1941.22 920.152 1932.91 932.685 1922.39 943.842 C 1903.97 963.385 1900.43 969.388 1876.53 955.209 C 1873.12 958.676 1870.63 960.591 1866.86 963.586 C 1870.62 970.613 1876.76 978.846 1881.23 986.738 C 1877.66 990.853 1873.32 994.456 1870.05 998.809 C 1866.97 1002.91 1857.59 1048.04 1856.45 1055.9 C 1854.33 1070.57 1851.16 1098.65 1851.87 1112.77 C 1852.7 1129.33 1859.66 1146.11 1861.4 1162.8 C 1861.44 1163.21 1861.48 1163.63 1861.52 1164.04 C 1858.93 1166.7 1855.22 1169.51 1852.28 1171.88 C 1862.26 1212.46 1873.11 1264.63 1899.53 1296.39 C 1925.11 1286.97 1930.42 1290.59 1952.29 1305.02 C 1963.31 1328.1 1959.73 1349.35 1933.97 1358.29 C 1916.11 1414.15 1895.36 1470.79 1878.31 1527.1 C 1876.91 1531.72 1878.58 1541.7 1879.33 1546.7 C 1885.98 1591.18 1903.96 1635.71 1901.88 1681.14 C 1916.37 1687.1 1929.87 1688.47 1945.27 1687.62 C 1956.49 1686.98 1964.56 1686.01 1970.47 1697.57 C 1980.12 1716.45 1927.43 1733.86 1914.58 1738.98 C 1896.59 1746.14 1875.69 1754.76 1857.06 1760.52 C 1838.1 1753.24 1837.69 1730.97 1835.41 1713.44 C 1834.01 1718.42 1831.61 1730.12 1827.49 1732.79 C 1820.83 1734.26 1812.72 1731.53 1806.63 1728.72 C 1804.33 1727.66 1803.35 1726.79 1803.19 1724.17 C 1802.66 1715.34 1818.71 1677.87 1820.66 1663.64 C 1822.56 1649.7 1798.81 1591.69 1792.83 1573.95 C 1785.81 1553.12 1780.85 1540.2 1791.29 1519.14 C 1785.4 1513 1780.08 1504.47 1775.53 1497.31 C 1770.11 1487.15 1768.15 1479.72 1765.2 1468.57 C 1737.94 1470.2 1728.94 1469.67 1703.36 1462.66 C 1692.16 1484.56 1678.61 1504.58 1666.2 1525.64 C 1637.5 1574.35 1604.29 1621.93 1578.99 1672.37 C 1589.42 1710.46 1619.79 1696.95 1631.06 1707.02 C 1633.32 1709.04 1633.78 1711.73 1633.63 1714.6 C 1633.28 1721.28 1629.71 1727.04 1624.52 1731.15 C 1622.27 1732.92 1619.38 1734.28 1616.53 1734.69 C 1606.59 1736.1 1594.95 1734.34 1584.83 1733.82 C 1557.62 1732.45 1530.36 1731.17 1503.28 1727.98 C 1502.21 1726.89 1501.18 1725.75 1500.2 1724.57 C 1495.23 1718.67 1490.95 1710.44 1492.36 1702.67 C 1495.57 1684.89 1504.41 1666.84 1510.8 1650.12 C 1519.4 1627.54 1527.68 1604.84 1535.63 1582.02 C 1540.35 1568.99 1544.88 1555.9 1549.23 1542.75 C 1560.32 1508.93 1558.22 1505.66 1586.8 1483.68 C 1589.29 1463.83 1590.32 1445.89 1599.31 1428.15 C 1599.76 1427.26 1600.66 1397.74 1600.86 1393.41 C 1592.33 1389.45 1584.31 1387.69 1575.15 1383.08 C 1598.01 1281.63 1619.6 1180.35 1661.99 1085.41 C 1692.32 1017.5 1726 964.938 1792.49 928.359 C 1800.28 924.069 1804.25 910.959 1811.65 908.074 C 1822.85 910.208 1823.84 904.928 1825.71 895.125 C 1826.77 889.552 1827.42 883.738 1828.21 878.109 C 1830.93 875.453 1833.15 874.352 1833.56 871.408 C 1830.98 871.829 1831.88 871.877 1829.33 871.479 C 1831.34 852.953 1824.78 838.387 1837.05 818.413 C 1848.29 800.108 1864.63 793.92 1884.33 789.171 z"/>
<path transform="translate(0,0)" fill="rgb(190,223,220)" d="M 1797.01 934.787 C 1799.5 936.477 1801.84 943.459 1803.34 946.87 C 1800.24 962.621 1802.01 978.676 1803.79 994.437 C 1792.79 1000.96 1790.71 1004.71 1785.36 1015.77 C 1791.76 1009.78 1800.62 1002.94 1809.52 1001.39 C 1814.76 1000.48 1825.39 1000.91 1828.43 996.216 C 1824.74 993.133 1816.63 993.012 1811.74 992.736 C 1809.53 979.193 1808.95 970.325 1808.29 956.721 C 1815.2 971.764 1824.08 985.796 1832.94 999.744 C 1836.42 1005.23 1840.25 1010.77 1842.07 1017.06 L 1841.17 1017.74 C 1836.64 1015.19 1834.45 1011.92 1831.07 1007.92 C 1834.52 1018.12 1844.96 1039.2 1847.07 1049.3 C 1848.55 1066.36 1845.62 1092.15 1843.69 1108.93 C 1841.62 1126.9 1790.19 1124.26 1777.38 1121.24 C 1768.81 1088.69 1767.08 1050.72 1757.15 1014.49 C 1755.36 1039.48 1759.53 1062.8 1763.36 1087.34 C 1749.11 1114.53 1732.25 1125.4 1709.01 1144.11 C 1735.73 1131.74 1748.3 1124.03 1765.5 1099.77 C 1766.92 1105.99 1768.13 1113.31 1769.34 1119.66 C 1768.66 1120.74 1768.03 1121.85 1767.45 1122.99 C 1761.88 1133.65 1765.16 1160.21 1768.73 1171.81 C 1771.15 1179.65 1773.6 1181.46 1780.49 1184.92 C 1779.9 1194.21 1779.2 1217.04 1776.23 1224.83 C 1773.2 1226.22 1771.98 1225.36 1770.33 1225.96 C 1763.97 1228.25 1755.6 1237.05 1750.51 1241.56 C 1736.52 1253.83 1722.18 1265.69 1707.51 1277.13 C 1701.32 1281.97 1678.19 1298.4 1674.63 1303.39 L 1674.98 1305.32 C 1683.39 1309.9 1733.56 1313.1 1743.36 1310.97 C 1745.51 1308.54 1744.86 1309.9 1745.46 1306.78 C 1742.67 1303.65 1744.35 1304.92 1739.76 1303.52 C 1723.24 1302.61 1707.76 1301.17 1691.28 1299.53 C 1717.08 1280.1 1754.31 1250.19 1776.63 1227.78 C 1770.98 1254.69 1769.13 1301.26 1767.71 1329.75 C 1765.57 1372.54 1762.1 1418.24 1760.96 1460.98 C 1721.53 1464.2 1688.98 1453.64 1660.05 1426.92 C 1632.49 1401.47 1619.25 1391.9 1584.11 1378.97 C 1586.28 1365.64 1590.54 1349.27 1593.65 1335.91 C 1597.8 1317.39 1602.08 1298.9 1606.49 1280.44 C 1630.41 1183.59 1667.72 1055.59 1736.4 980.146 C 1751.95 963.074 1777.11 946.792 1797.01 934.787 z"/>
<path transform="translate(0,0)" fill="rgb(4,35,61)" d="M 1751.17 1137.91 C 1755.07 1139.09 1755.23 1138.42 1757.29 1141.02 C 1753.5 1157.2 1720.47 1199.26 1708.94 1212.48 L 1706.03 1214.81 C 1706.6 1209.81 1744.87 1149.14 1751.17 1137.91 z"/>
<path transform="translate(0,0)" fill="rgb(255,255,255)" d="M 1780.48 1254.81 C 1780.25 1254.59 1795.71 1303.48 1797.81 1309.56 C 1810.12 1345.27 1832.4 1378.66 1844.74 1413.12 C 1854.87 1441.44 1861.92 1483.07 1867.22 1513.08 C 1869.87 1528.11 1870.9 1544.77 1873.9 1559.97 C 1881.75 1599.62 1894.34 1637.12 1895.04 1677.84 C 1875.89 1688.78 1862.44 1693.17 1840.65 1695.09 C 1831.66 1665 1823.38 1637.32 1813.02 1607.64 C 1798.55 1565.26 1778.53 1543.79 1813.29 1504.97 C 1806.36 1508.21 1802.8 1510.23 1796.28 1514.29 C 1792.6 1506.83 1787.47 1500.65 1783.19 1493.61 C 1776.68 1482.89 1773.34 1470.18 1769.67 1458.19 C 1788 1472.52 1801.43 1486.9 1822.17 1497.84 C 1803.95 1479.38 1787.96 1467.15 1770.72 1450.46 C 1769.65 1446.96 1769.95 1446.61 1770.41 1443.05 C 1772.19 1442.96 1777.59 1447.65 1779.98 1449.12 C 1787.38 1453.68 1795.42 1457.31 1803.27 1461.03 C 1791.79 1450.21 1782.89 1444.19 1770 1435.06 C 1774.03 1376.09 1777.3 1314.04 1780.48 1254.81 z"/>
<path transform="translate(0,0)" fill="rgb(4,35,61)" d="M 1847.29 1579.76 C 1850.77 1583.42 1851.94 1611.17 1852.44 1618.39 C 1853.76 1637.59 1853.06 1657.99 1847.95 1676.63 C 1846.78 1676.69 1847.6 1676.7 1845.54 1676.15 C 1839.86 1654.93 1845.66 1604.91 1847.29 1579.76 z"/>
<path transform="translate(0,0)" fill="rgb(255,255,255)" d="M 1638.02 1419.84 C 1641.51 1420.51 1657.67 1435.43 1661.91 1438.78 C 1672.75 1447.4 1684.56 1454.73 1697.1 1460.62 C 1658.32 1527.32 1613.53 1591.61 1577.14 1659.76 C 1573.89 1665.85 1573.61 1671.06 1573.5 1677.69 C 1558.27 1679.96 1522.33 1683.79 1509.7 1676.67 C 1510.31 1673.61 1515.17 1668.93 1517.66 1667.32 C 1541.32 1652.07 1563.09 1637.99 1584.31 1619.38 C 1558.78 1629.53 1538.6 1647.59 1515.28 1659.34 L 1525.51 1632.25 C 1535.35 1607.34 1543.01 1581.92 1552.5 1556.89 C 1584.51 1534.87 1627.94 1514.93 1656.69 1487.99 C 1625.55 1500.45 1584.21 1529.88 1555.37 1547.71 C 1568.65 1504.77 1574.61 1498.86 1613.16 1474.37 C 1621.47 1469.09 1635.52 1456.37 1642.36 1448.91 C 1624.77 1457.29 1610.27 1468.21 1594.36 1479.32 C 1596.63 1466.19 1598.78 1453.8 1601.67 1440.79 C 1611.2 1434.37 1626.99 1426.65 1638.02 1419.84 z"/>
<path transform="translate(0,0)" fill="rgb(4,35,61)" d="M 1633.82 1533.12 L 1633.64 1534.15 C 1621.7 1550.25 1586.36 1574.73 1569.98 1586.12 L 1569.9 1585.02 C 1581.37 1569.56 1617.04 1542.66 1633.82 1533.12 z"/>
<path transform="translate(0,0)" fill="rgb(255,255,255)" d="M 1788.14 1249.68 C 1790.75 1251.64 1803.55 1268.68 1806.58 1272.51 C 1812.39 1279.91 1818.75 1286.84 1825.62 1293.26 C 1836.04 1302.81 1846.86 1309.85 1859.17 1316.62 C 1863.78 1319.16 1867.35 1321.23 1871.02 1325.07 C 1869.92 1349.47 1873.73 1367.22 1898.22 1377.24 C 1890.01 1398.71 1882.35 1420.37 1875.23 1442.22 C 1872.57 1450.35 1870.05 1458.16 1866.94 1466.15 C 1862.51 1447.36 1857.6 1425.57 1850.84 1407.73 C 1843 1387.07 1831.51 1366.5 1822.06 1346.33 C 1807.41 1315.39 1796.04 1282.99 1788.14 1249.68 z"/>
<path transform="translate(0,0)" fill="rgb(255,255,255)" d="M 1842.6 1177 C 1845.59 1177.89 1844.36 1176.88 1845.43 1180.2 C 1860.24 1225.97 1864.7 1262.93 1893.55 1302.63 C 1887.13 1307.64 1880.75 1312.69 1874.41 1317.79 C 1868.18 1312.19 1864.87 1308.03 1859.96 1301.38 C 1836.75 1268.48 1801.82 1225.53 1792.41 1186.36 C 1811.85 1187.32 1825 1184.85 1842.6 1177 z"/>
<path transform="translate(0,0)" fill="rgb(255,255,255)" d="M 1870.58 875.072 C 1883.53 880.176 1875.17 889.898 1884.65 892.777 C 1887.35 890.54 1886.15 891.842 1887.41 887.598 L 1888.75 887.599 C 1900.9 897.066 1907.95 897.925 1922.92 901.107 C 1918.68 901.81 1909.61 900.995 1907.29 904.483 C 1911.6 906.779 1915.6 902.796 1918.89 905.352 C 1920.05 911.433 1921.13 914.994 1927.78 916.535 C 1928.15 915.805 1927.44 912.492 1927.27 911.407 L 1927.05 910.058 C 1925.83 902.069 1929.38 898.156 1937.33 898.027 C 1945.53 905.918 1922.7 932.774 1916.5 938.827 C 1910.75 939.17 1904.7 939.764 1898.93 940.246 C 1903.67 942.054 1907.37 943.014 1912.23 944.33 C 1906.64 950.575 1903.71 953.128 1896.52 957.01 C 1887.28 953.584 1882.29 950.876 1873.58 946.108 C 1865.96 939.355 1862.65 932.213 1856.8 927.429 L 1855.32 927.775 C 1853.52 936.608 1861.6 943.167 1867.2 949.091 C 1860.78 955.221 1857.93 960.265 1853.46 967.758 C 1843.79 952.313 1834.43 936.677 1825.38 920.859 C 1833.85 919.266 1841.21 918.235 1846.79 910.811 C 1850.05 906.48 1846.68 905.061 1847.92 902.027 C 1850.75 905.704 1851.63 907.367 1855.43 909.838 C 1862.17 910.94 1871.28 908.476 1877.14 905.1 C 1874.07 902.037 1860.52 906.257 1855.57 899.88 C 1854 887.326 1857.9 878.596 1870.58 875.072 z"/>
<path transform="translate(0,0)" fill="rgb(190,223,220)" d="M 1885.59 796.224 C 1914.32 793.329 1929.62 807.682 1941.92 831.442 C 1920.14 834.044 1901 847.236 1880.25 856.516 C 1873.4 859.412 1846.32 868.269 1839.92 866.919 C 1837.8 864.964 1836.61 863.136 1836.29 860.227 C 1832.21 823.067 1850.71 802.904 1885.59 796.224 z"/>
<path transform="translate(0,0)" fill="rgb(255,255,255)" d="M 1891.11 1688.06 C 1898.8 1687.29 1912.52 1694.57 1921.25 1695.24 C 1929.95 1695.91 1936.9 1695.91 1945.7 1695.34 C 1952.69 1694.88 1963.06 1693.05 1963.58 1702.51 C 1956.4 1718.77 1885.62 1740.64 1865.81 1749.37 C 1862.91 1750.55 1861.87 1750.75 1858.88 1751.46 C 1844.24 1748.8 1843.56 1715.49 1842.07 1703.33 C 1857.1 1702.03 1871.93 1697.37 1885.95 1692.09 C 1875.09 1703.85 1868.48 1705.05 1855.99 1713.96 L 1855.17 1714.55 C 1866.79 1711.9 1885.83 1706.72 1891.81 1695.37 C 1893.39 1692.36 1892.18 1690.86 1891.11 1688.06 z"/>
<path transform="translate(0,0)" fill="rgb(190,223,220)" d="M 1844.78 1122.07 C 1847.81 1125.73 1852.77 1154.02 1854.03 1160.27 C 1852.66 1161.42 1851.26 1162.54 1849.83 1163.62 C 1830.02 1178.46 1804.28 1180.65 1780.58 1177.28 C 1779.75 1176.72 1777.28 1175.21 1776.85 1173.55 C 1774.06 1162.69 1771.14 1143.59 1772.79 1132.5 C 1772.27 1131.83 1775.4 1128.25 1775.81 1128.31 C 1797.32 1131.81 1823.58 1132.9 1843.49 1122.75 L 1844.78 1122.07 z"/>
<path transform="translate(0,0)" fill="rgb(4,35,61)" d="M 1839.65 1141.08 C 1843.75 1140.59 1842.06 1140.07 1845.07 1141.95 L 1845.14 1144.29 C 1836.53 1155.81 1809.02 1152.35 1796.39 1150.83 C 1790.16 1149.63 1786.54 1148.38 1780.53 1146.38 C 1804.51 1147.23 1816.73 1148.05 1839.65 1141.08 z"/>
<path transform="translate(0,0)" fill="rgb(190,223,220)" d="M 1504.95 1684.58 C 1523.85 1692.02 1555.49 1687.9 1575.73 1685.73 C 1584.74 1698.81 1593.59 1708.38 1610.45 1709.47 C 1615.53 1709.8 1619.7 1709.46 1624.24 1711.55 C 1629.66 1717.69 1619.68 1726.42 1616.35 1726.58 C 1596.69 1727.51 1575.97 1725.28 1556.18 1724.2 C 1540.54 1723.22 1520.48 1722.14 1505.19 1719.72 C 1500.38 1712.56 1500.41 1710.27 1499.95 1701.85 C 1515.16 1707.93 1541.61 1715.21 1557.81 1716.11 C 1546.49 1709.05 1516.15 1699.28 1502.1 1694.47 L 1504.95 1684.58 z"/>
<path transform="translate(0,0)" fill="rgb(190,223,220)" d="M 1935.85 839.098 C 1943.3 842.654 1961.23 854.857 1968.69 859.665 C 1944.76 869.6 1937.43 893.724 1911.32 891.623 C 1894.44 886.008 1889.14 880.737 1876.54 868.442 C 1887.86 860.166 1922.6 843.324 1935.85 839.098 z"/>
<path transform="translate(0,0)" fill="rgb(255,255,255)" d="M 1877.01 1329.04 C 1892.07 1305.62 1926.18 1281.69 1948.61 1315.61 C 1953.7 1323.31 1948.59 1339.69 1945.55 1348.19 C 1944.83 1335.51 1948.93 1323.85 1941.1 1312.04 C 1934.5 1302.08 1923.78 1305.53 1916.24 1312.27 C 1907.66 1320.02 1902.69 1330.98 1902.51 1342.54 C 1902.3 1359.74 1908.85 1362.72 1923.75 1362.72 C 1924.69 1364.82 1923.25 1367.14 1922.3 1370.07 C 1915.84 1370.65 1913.01 1370.64 1906.92 1372.92 C 1884.22 1366.71 1878.19 1350.8 1877.01 1329.04 z"/>
<path transform="translate(0,0)" fill="rgb(190,223,220)" d="M 1906.92 1372.92 C 1913.01 1370.64 1915.84 1370.65 1922.3 1370.07 C 1905.97 1410.9 1887.73 1468.21 1875.58 1510.93 C 1874.7 1506.9 1870.23 1485.35 1870.77 1482.79 C 1876.67 1454.92 1890.29 1423.98 1899.4 1396.59 C 1901.33 1390.76 1907.08 1377.35 1906.92 1372.92 z"/>
<path transform="translate(0,0)" fill="rgb(190,223,220)" d="M 1812.72 916.564 C 1817.71 919.674 1844.21 966.517 1848.53 974.076 C 1849.87 976.422 1852.9 984.93 1853.95 988.013 C 1852.2 992.703 1848.5 1003.78 1845.84 1007.25 C 1841.06 998.01 1832.72 986.431 1826.94 977.126 C 1817.81 962.213 1809.82 946.627 1803.04 930.504 L 1812.72 916.564 z"/>
<path transform="translate(0,0)" fill="rgb(255,255,255)" d="M 1792.26 1212.73 C 1795.18 1215.69 1813.27 1245.78 1816.6 1251.62 C 1825.52 1267.3 1844.58 1289.1 1852.32 1303.07 L 1851.38 1304.14 C 1831.1 1289.74 1799.14 1257.91 1788.25 1235.12 C 1788.74 1225.6 1789.59 1221.72 1792.26 1212.73 z"/>
<path transform="translate(0,0)" fill="rgb(190,223,220)" d="M 1826.26 1675.65 C 1828.16 1679.13 1831.06 1691.8 1833.09 1697.41 C 1830.73 1704.54 1826 1719.57 1822.45 1725.5 L 1820.65 1725.88 L 1811.03 1721.89 C 1816.3 1708.29 1821.69 1689.84 1826.26 1675.65 z"/>
<path transform="translate(0,0)" fill="rgb(255,255,255)" d="M 1608.51 1396.52 C 1618.45 1402.05 1626.49 1408.17 1635.28 1415.33 L 1626.74 1419.39 C 1619.6 1422.49 1613.86 1425.6 1606.98 1429.3 C 1607 1418.32 1607.82 1407.47 1608.51 1396.52 z"/>
<path transform="translate(0,0)" fill="rgb(190,223,220)" d="M 1856.92 1000.74 L 1857.21 999.477 C 1859.33 990.076 1858.09 977.314 1860.31 971.341 L 1861.93 970.694 C 1866.54 973.549 1869.83 980.501 1872.58 985.38 C 1865.64 993.476 1859.01 997.82 1858.17 1007.39 L 1856.92 1000.74 z"/>
<path transform="translate(0,0)" fill="rgb(190,223,220)" d="M 1846.69 1023.55 C 1850.16 1017.01 1853.89 1007.7 1856.92 1000.74 L 1858.17 1007.39 C 1858.02 1017.13 1854.81 1031.42 1852.8 1041.2 C 1850.71 1036.01 1848.54 1028.97 1846.69 1023.55 z"/>
<path transform="translate(0,0)" fill="rgb(255,255,255)" d="M 1972.1 865.875 C 1973.05 866.709 1972.52 866.114 1973.26 867.943 C 1969.25 876.043 1961.29 880.16 1953.19 883.009 C 1951.87 882.631 1952.63 882.983 1951.22 881.485 C 1952.91 875.261 1966.47 868.648 1972.1 865.875 z"/>
<path transform="translate(0,0)" fill="rgb(51,116,138)" d="M 1925.28 1313.93 L 1925.55 1315.19 C 1923.76 1318.3 1914.6 1329.28 1910.98 1334.72 L 1910.61 1332.03 C 1914.15 1324.37 1919.35 1319.78 1925.28 1313.93 z"/>
<path transform="translate(0,0)" fill="rgb(190,223,220)" d="M 221.794 834.136 C 295.744 828.32 360.381 883.615 366.085 957.574 C 371.79 1031.53 316.398 1096.09 242.431 1101.68 C 168.62 1107.26 104.232 1052.01 98.5396 978.211 C 92.8468 904.409 148 839.939 221.794 834.136 z"/>
<path transform="translate(0,0)" fill="rgb(255,255,255)" d="M 196.479 874.204 L 266.104 874.198 L 266.053 933.469 C 285.989 933.495 305.925 933.741 325.856 934.207 L 326.012 1000.55 L 266.071 1000.39 C 266.104 1018.53 266.853 1041.48 265.789 1059.18 C 242.602 1059.45 219.199 1059.28 195.992 1059.27 L 195.944 1000.8 L 135.967 1000.64 L 136.015 934.549 L 196.346 934.467 C 196.514 914.38 196.558 894.292 196.479 874.204 z"/>
<path transform="translate(0,0)" fill="rgb(15,73,97)" d="M 1168.11 833.669 C 1219.31 826.052 1266.94 861.533 1274.29 912.773 C 1281.65 964.012 1245.93 1011.46 1194.65 1018.55 C 1143.74 1025.6 1096.71 990.188 1089.4 939.316 C 1082.1 888.445 1117.27 841.232 1168.11 833.669 z"/>
<path transform="translate(0,0)" fill="rgb(255,255,255)" d="M 1172.66 866.814 C 1205.43 861.739 1236.08 884.259 1241.03 917.044 C 1245.98 949.828 1223.34 980.393 1190.54 985.218 C 1157.91 990.017 1127.55 967.528 1122.62 934.92 C 1117.7 902.312 1140.07 871.862 1172.66 866.814 z"/>
<path transform="translate(0,0)" fill="rgb(15,73,97)" d="M 1464.95 836.971 C 1507.82 836.874 1563.1 830.384 1596.17 862.155 C 1634.18 898.667 1632.77 952.806 1598.48 990.794 C 1569.34 1016.57 1548.97 1017.02 1512.01 1016.81 L 1465.07 1016.6 L 1464.95 836.971 z"/>
<path transform="translate(0,0)" fill="rgb(255,255,255)" d="M 1499.79 869.042 C 1524.89 868.818 1550.31 867.839 1570.22 885.915 C 1585.6 899.866 1591.21 919.951 1587.72 940.053 C 1585.64 952.014 1580.85 960.098 1572.73 968.854 C 1550.92 987.902 1527.17 984.864 1499.68 984.724 L 1499.79 869.042 z"/>
<path transform="translate(0,0)" fill="rgb(15,73,97)" d="M 1306.87 836.969 C 1332 836.798 1362.75 834.232 1386.82 840.284 C 1424.69 849.807 1438.16 896.719 1413.99 926.059 C 1407.11 934.404 1400.42 937.665 1390.82 942.016 C 1407.36 965.091 1426.88 992.721 1441.69 1016.73 C 1429.05 1016.59 1416.41 1016.56 1403.77 1016.64 C 1403.44 1016.63 1403.1 1016.7 1402.78 1016.61 C 1400.04 1015.83 1362.06 953.819 1356.34 945.58 L 1341.98 945.477 C 1341.9 968.689 1342.22 993.296 1341.32 1016.39 L 1306.88 1016.42 L 1306.87 836.969 z"/>
<path transform="translate(0,0)" fill="rgb(255,255,255)" d="M 1341.17 868.052 C 1360.56 867.856 1391.81 863.981 1391.5 892.338 C 1391.4 900.7 1389.63 904.268 1383.7 910.053 C 1369.27 918.026 1357.24 916.674 1341.07 916.864 L 1341.17 868.052 z"/>
<path transform="translate(0,0)" fill="rgb(15,73,97)" d="M 623.053 836.5 C 646.263 836.277 669.93 836.549 693.174 836.593 L 693.122 867.661 L 619.128 866.998 L 619.089 909.481 C 639.669 908.95 661.403 909.274 682.068 909.255 L 681.931 939.819 C 661.249 940.352 639.717 940.034 618.97 940.005 C 618.903 947.328 617.873 980.294 620.15 984.595 L 622.75 984.984 L 694.105 984.843 L 694.051 1015.74 C 658.132 1016.33 621.031 1015.89 585.018 1015.94 L 584.914 836.852 C 597.401 836.52 610.513 836.609 623.053 836.5 z"/>
<path transform="translate(0,0)" fill="rgb(15,73,97)" d="M 730.942 836.756 L 837.764 836.75 L 837.519 867.566 L 765.349 867.428 C 764.904 880.947 765.2 896.093 765.17 909.737 C 785.788 909.49 806.408 909.354 827.028 909.33 L 826.979 939.43 C 807.911 940.264 784.583 939.599 765.2 939.568 L 765.023 949.94 L 764.94 985.159 L 839.398 984.988 L 839.295 1015.31 L 731.083 1015.14 L 730.942 836.756 z"/>
<path transform="translate(0,0)" fill="rgb(15,73,97)" d="M 490.851 833.406 C 512.51 831.928 529.224 839.731 545.206 853.572 L 525.017 877.787 C 510.291 866.562 480.161 850.782 470.809 881.386 C 468.891 887.663 481.442 898.154 486.757 900.724 C 516.443 915.08 554.643 927.047 551.537 968.082 C 550.563 982.629 543.686 996.145 532.501 1005.5 C 516.936 1018.41 497.812 1020.26 478.504 1018.27 C 456.392 1014.45 445.778 1006.55 430.451 991.189 C 436.341 983.198 443.822 974.343 450.025 966.216 C 457.276 973.471 465.697 982.613 475.483 985.97 C 515.155 999.58 536.581 958.001 493.019 941.458 C 470.066 931.612 439.279 919.557 437.286 890.429 C 435.787 868.527 445.258 848.28 465.806 839.119 C 474.921 835.054 481.011 834.246 490.851 833.406 z"/>
<path transform="translate(0,0)" fill="rgb(15,73,97)" d="M 875.383 836.767 L 986.031 837.002 L 985.949 867.123 C 960.616 867.45 934.444 867.066 909.044 867.019 L 909.005 910.678 C 930.797 910.262 952.594 910.107 974.389 910.213 C 974.1 919.603 974.129 929.386 974.019 938.812 C 970.843 941.227 917.258 940.607 909.146 940.689 L 909.096 1015.13 L 875.742 1015.14 L 875.383 836.767 z"/>
<path transform="translate(0,0)" fill="rgb(15,73,97)" d="M 1020 836.918 L 1054.93 836.895 L 1054.62 939.471 C 1054.52 960.176 1055.7 987.697 1051.3 1007.73 C 1048.71 1019.53 1041.45 1026.03 1031.36 1031.61 C 1019.19 1035.66 1009.58 1034.5 997.692 1031.3 C 997.491 1024.02 997.773 1016.06 997.893 1008.72 C 1010.77 1007.16 1017.64 1003.67 1018.98 989.601 C 1020.67 971.889 1020.01 953.727 1020.02 935.898 L 1020 836.918 z"/>
<path transform="translate(0,0)" fill="rgb(4,35,61)" d="M 988.792 1077.46 C 993.352 1077.28 1000.12 1076.85 1004.51 1077.49 C 1026.05 1080.61 1038.13 1099.2 1014.17 1111.56 C 1017.39 1116.66 1028.35 1131.71 1027.24 1136.84 C 1021.71 1137.9 1021.35 1136.96 1018.16 1133.39 C 1014.19 1127.36 1006.43 1113.39 998.972 1112.63 C 993.683 1118.74 999.19 1132.44 995.566 1136.73 C 991.412 1136.61 991.09 1137.39 988.902 1135.23 C 987.532 1126.9 988.627 1087.57 988.792 1077.46 z"/>
<path transform="translate(0,0)" fill="rgb(255,255,255)" d="M 996.732 1084.73 C 1009.32 1084.86 1022.58 1087.12 1015.2 1103.31 C 1008.88 1106.96 1003.94 1106.29 996.639 1106.32 L 996.732 1084.73 z"/>
<path transform="translate(0,0)" fill="rgb(4,35,61)" d="M 1400.88 1076.43 C 1403.34 1076.73 1403.46 1076.86 1405.79 1077.78 C 1410.99 1088.88 1428.31 1126.35 1431.33 1136.51 C 1428.87 1138.37 1429.11 1137.77 1425.53 1138.06 C 1422.16 1135.98 1420.07 1129.31 1418.33 1125.36 L 1403.95 1125.52 L 1388.47 1125.35 C 1386.87 1129.41 1385.97 1132.46 1383.29 1135.94 C 1380.84 1137.21 1377.15 1138.39 1374.93 1136.2 C 1377.03 1127.71 1395.86 1087.57 1400.88 1076.43 z"/>
<path transform="translate(0,0)" fill="rgb(255,255,255)" d="M 1402.51 1091.57 C 1405.72 1094.18 1413.19 1112.46 1414.08 1117.28 C 1411.51 1118.55 1407.72 1118.19 1404.69 1118.22 L 1391.7 1118.23 C 1394.6 1109.69 1398.96 1099.99 1402.51 1091.57 z"/>
<path transform="translate(0,0)" fill="rgb(4,35,61)" d="M 1474.32 1077.21 C 1483.69 1076.53 1502 1076.92 1504.05 1089.05 L 1502.79 1090.78 C 1495.19 1092.28 1488.99 1082.96 1476 1085.16 C 1462.63 1087.43 1457.27 1101.69 1460.54 1113.9 C 1462.16 1119.94 1466.17 1125.06 1471.64 1128.08 C 1477.53 1131.27 1483.47 1130.77 1489.8 1129.12 C 1496.94 1127.25 1500.27 1120.01 1503.62 1113.9 L 1487.01 1113.93 L 1485.77 1113.49 C 1484.63 1110.67 1484.89 1112.14 1485.28 1108.86 C 1489.5 1105.11 1504.8 1106.22 1511.18 1106.26 C 1510.68 1110 1510.13 1115.25 1509.03 1118.77 C 1503.96 1134.88 1488.01 1142.23 1472.18 1136.82 C 1463.83 1133.99 1457.03 1127.8 1453.43 1119.74 C 1444.31 1099.43 1455.39 1084.51 1474.32 1077.21 z"/>
<path transform="translate(0,0)" fill="rgb(4,35,61)" d="M 607.17 1076.35 C 607.825 1076.49 610.527 1077.32 610.698 1077.73 C 613.364 1084.05 635.886 1133.53 634.575 1136.67 C 631.586 1137.03 631.232 1137.36 628.44 1136.47 C 625.06 1133.07 623.108 1127.61 621.058 1123.08 L 609.777 1123.37 L 595.339 1123.2 C 593.446 1128.32 592.368 1133.18 588.493 1136.69 C 584.671 1137.73 586.603 1137.65 582.487 1136.53 L 582.087 1135.28 C 583.693 1129.01 603.436 1082.59 607.17 1076.35 z"/>
<path transform="translate(0,0)" fill="rgb(255,255,255)" d="M 608.324 1091.61 C 611.086 1094.08 616.448 1110.95 617.113 1114.98 C 614.503 1116.52 612.368 1115.98 608.848 1116.1 C 605.744 1116.23 603.622 1116.64 600.83 1115.35 C 598.726 1109.69 605.471 1098.33 608.324 1091.61 z"/>
<path transform="translate(0,0)" fill="rgb(4,35,61)" d="M 801.998 1076.57 C 805.826 1077.22 805.769 1076.53 807.942 1078.8 C 809.006 1093.99 808.069 1119.24 807.325 1134.98 C 807.207 1137.46 806.235 1137.55 804.571 1138.62 C 797.102 1136.25 799.718 1117.69 799.793 1110.97 L 769.693 1110.99 C 769.861 1120.05 769.806 1129.11 769.529 1138.16 C 766.035 1138.17 764.806 1138.41 761.549 1137.03 C 760.725 1129.45 760.057 1082.39 762.773 1078.12 C 766.758 1077.4 764.877 1077.19 768.617 1078.81 C 771.027 1083.08 769.946 1097.19 769.882 1103.31 L 799.77 1103.19 C 799.739 1095.52 798.132 1081.91 801.998 1076.57 z"/>
<path transform="translate(0,0)" fill="rgb(4,35,61)" d="M 455.221 1077.37 C 458.34 1077.23 458.785 1076.97 461.72 1078.14 C 465.472 1082.66 463.71 1096.6 463.716 1103.03 L 490.984 1103.03 C 491.056 1095.28 488.331 1083.63 493.997 1078.41 C 497.547 1078.01 496.023 1077.56 498.918 1078.89 C 500.27 1085.44 499.931 1130.97 498.831 1138.01 C 496.831 1137.77 494.972 1137.45 492.985 1137.11 C 489.107 1132.56 490.9 1117.44 490.989 1111.04 L 463.538 1111.04 C 463.392 1119.5 465.448 1129.16 462.058 1136.33 C 458.829 1138.62 460.613 1138 456.425 1137.98 C 453.872 1133.12 455.101 1085.98 455.221 1077.37 z"/>
<path transform="translate(0,0)" fill="rgb(4,35,61)" d="M 1257.45 1077.52 C 1258.09 1077.77 1258.73 1078.01 1259.37 1078.26 C 1259.49 1081.98 1260.05 1081.73 1258.54 1084.55 C 1252.98 1086.77 1239.65 1085.87 1233.24 1085.74 L 1233.3 1102.98 C 1241.21 1102.82 1251.32 1101.73 1258 1105.71 L 1258.22 1107.2 C 1252.13 1111.59 1240.76 1110.45 1233.17 1110.28 L 1233.33 1129.26 C 1237.67 1129.46 1242.46 1129.41 1246.85 1129.46 C 1251.46 1129.31 1256.33 1128.68 1260.5 1130.26 C 1261.7 1133.47 1261.9 1132.08 1260.77 1134.64 C 1254.74 1138.66 1233.52 1137.29 1224.94 1137.27 L 1224.96 1077.7 L 1257.45 1077.52 z"/>
<path transform="translate(0,0)" fill="rgb(4,35,61)" d="M 526.966 1077.89 C 536.098 1077.76 555.441 1076.74 563.332 1078.67 C 564.251 1081.29 564.087 1079.94 563.21 1082.83 C 558.451 1086.96 542.159 1085.32 535.042 1085.26 L 535.06 1103.53 C 542.325 1103.26 553.639 1101.93 559.218 1106.48 L 558.878 1108.08 C 551.942 1112.36 543.137 1111.21 535.035 1111 L 535.044 1130.1 C 541.675 1130.11 559.389 1127.99 563.795 1132.56 C 564.102 1135.6 564.589 1134.43 563.038 1136.44 C 553.833 1138.01 536.968 1137.27 526.935 1137.18 L 526.966 1077.89 z"/>
<path transform="translate(0,0)" fill="rgb(4,35,61)" d="M 944.583 1077.5 C 950.914 1077.4 960.05 1075.32 964.665 1079.63 C 965.116 1082.83 965.523 1081.44 964.077 1084.01 C 958.305 1085.37 944.208 1084.87 937.895 1084.84 L 937.918 1103.24 C 946.633 1103.01 953.149 1101.84 960.681 1105.99 L 960.95 1107.52 C 955.232 1112.06 945.321 1110.78 938.063 1110.61 L 938.149 1128.71 C 943.737 1132.52 959.152 1126.89 965.727 1131.47 C 966.781 1134.62 966.845 1133.14 965.792 1136.08 C 963.12 1137.81 934.984 1137.01 929.817 1137.01 C 929.667 1117.24 929.68 1097.47 929.858 1077.7 L 944.583 1077.5 z"/>
<path transform="translate(0,0)" fill="rgb(4,35,61)" d="M 1290.97 1077.05 C 1292.78 1076.94 1294.59 1076.89 1296.39 1076.87 C 1302.85 1076.85 1308.05 1077.99 1312.64 1082.53 L 1312.53 1084.17 L 1310.04 1086.31 C 1304.01 1088 1284.56 1078.7 1287.28 1095.01 C 1292.87 1105.54 1313.8 1105.37 1315.91 1118.1 C 1318.37 1132.87 1308.32 1137.48 1296.22 1138.73 C 1286.44 1136.96 1284.15 1135.63 1276.05 1130.51 C 1276.74 1129.62 1281.37 1123.44 1282.41 1124.05 C 1289.85 1129.2 1303.68 1137.61 1307.58 1123.62 C 1310.63 1112.66 1285.03 1111.05 1279.17 1099.75 C 1277.46 1096.37 1277.19 1092.45 1278.42 1088.87 C 1280.52 1082.58 1285.45 1079.82 1290.97 1077.05 z"/>
<path transform="translate(0,0)" fill="rgb(4,35,61)" d="M 880.11 1077.15 C 887.202 1076.4 898.623 1077.08 902.852 1083.8 C 895.352 1094.75 890.986 1079.37 878.959 1085.87 C 876.952 1089.23 877.15 1089.79 877.141 1093.62 C 881.474 1103.81 906.829 1104.87 906.612 1119.32 C 906.418 1132.21 897.463 1136.99 885.836 1138.73 C 876.316 1137.29 872.191 1134.4 865.476 1128.08 C 867.967 1125.38 868.721 1124.24 872.028 1122.52 C 874.229 1124.24 876.459 1125.91 878.718 1127.54 C 886.746 1133.28 892.245 1132.78 897.378 1124.11 C 897.902 1114.2 884.339 1110.46 877.143 1105.2 C 862.257 1094.31 865.392 1084.77 880.11 1077.15 z"/>
<path transform="translate(0,0)" fill="rgb(4,35,61)" d="M 1176.41 1077.19 C 1184.28 1076.64 1197.85 1076.68 1201.93 1084.5 C 1201.52 1087.84 1201.62 1087.63 1199.79 1090.44 C 1180.3 1081.12 1159.61 1083.16 1161.14 1109.56 C 1161.49 1115.52 1164.28 1121.08 1168.86 1124.93 C 1175.4 1130.52 1181.8 1130.35 1189.71 1129.82 C 1194.26 1127.54 1196.65 1125.12 1201.22 1127.69 L 1201.54 1129.61 C 1196.02 1139.86 1180.01 1139.1 1170.66 1135.49 C 1163.49 1132.77 1157.79 1127.17 1154.95 1120.05 C 1146.89 1100.1 1157.5 1084.15 1176.41 1077.19 z"/>
<path transform="translate(0,0)" fill="rgb(4,35,61)" d="M 1045.05 1077.42 L 1051.14 1077.28 C 1055.32 1079.63 1068.24 1114.28 1071.1 1121.21 C 1074.12 1113.08 1084.7 1081.6 1090.13 1077.83 C 1093.26 1077.61 1094.21 1076.96 1096.44 1078.24 C 1096.49 1082.42 1093.07 1088.58 1091.19 1092.66 C 1086.78 1102.93 1076.65 1129.49 1071.24 1138.17 L 1070.08 1138.28 C 1065.43 1131.08 1046.79 1085.84 1045.05 1077.42 z"/>
<path transform="translate(0,0)" fill="rgb(4,35,61)" d="M 697.75 1077.95 C 706.863 1077.79 735.931 1075.22 740.759 1081.53 L 740.057 1083.98 C 735.321 1085.67 729.851 1085.14 724.686 1085.08 L 724.647 1122.72 C 724.748 1126.84 725.827 1135.16 722.952 1137.71 C 719.674 1137.53 718.278 1138.11 716.389 1136.42 C 715.094 1126.79 715.924 1096.48 715.979 1085.31 C 709.95 1085.16 705.828 1086.61 700.141 1084.8 C 697.378 1082.24 698.268 1082.88 697.75 1077.95 z"/>
<path transform="translate(0,0)" fill="rgb(4,35,61)" d="M 657.708 1076.94 C 660.575 1077.1 662.402 1076.82 664.513 1078.66 C 665.707 1086.14 664.902 1120.11 664.832 1130.08 C 671.778 1130.2 686.818 1127.72 691.255 1132.42 L 690.942 1137.32 C 679.56 1137.29 668.178 1137.2 656.796 1137.05 C 656.85 1127.21 655.621 1083.21 657.708 1076.94 z"/>
<path transform="translate(0,0)" fill="rgb(4,35,61)" d="M 1118.91 1077.77 C 1122.06 1077.53 1124.73 1076.98 1126.95 1079.18 C 1128.32 1092.68 1127.23 1123.17 1127.13 1137.89 C 1123.64 1138.03 1122.84 1138.23 1119.42 1137.18 C 1117.74 1129.95 1118.81 1087.62 1118.91 1077.77 z"/>
</svg>