<svg version="1.1" xmlns="http://www.w3.org/2000/svg" style="display: block;" viewBox="0 0 2048 2048" width="1024" height="1024" preserveAspectRatio="none">
<defs>
	<linearGradient id="Gradient1" gradientUnits="userSpaceOnUse" x1="535.378" y1="948.12" x2="566.775" y2="947.706">
		<stop class="stop0" offset="0" stop-opacity="1" stop-color="rgb(15,21,19)"/>
		<stop class="stop1" offset="1" stop-opacity="1" stop-color="rgb(0,15,48)"/>
	</linearGradient>
</defs>
<path transform="translate(0,0)" fill="rgb(246,245,244)" d="M 0 0 L 2048 0 L 2048 2048 L 0 2048 L 0 0 z"/>
<path transform="translate(0,0)" fill="rgb(6,21,50)" d="M 572.322 602.355 C 594.899 600.356 611.364 612.837 622.924 630.906 C 644.894 628.886 664.797 629.113 673.495 652.945 C 669.658 675.455 657.549 687.098 639.341 699.429 C 638.921 699.713 635.758 700.884 635.537 701.898 C 633.991 708.973 632.749 713.309 628.912 719.541 L 628.166 720.735 L 637.273 730.113 C 613.438 753.38 627.056 771.253 585.982 762.149 C 583.254 767.342 580.614 773.426 578.133 778.821 C 600.514 799.863 607.491 841.168 612.977 870.538 C 617.708 895.865 622.736 925.231 624.127 950.967 C 627.43 1012.07 631.694 1072.71 639.151 1133.48 C 640.059 1140.92 638.348 1150.82 639.645 1157.68 C 644.645 1184.14 657.847 1209.32 662.302 1235.91 C 662.39 1236.48 658.225 1237.29 658.399 1238.8 C 663.121 1279.74 673.23 1324.26 682.937 1364.45 C 685.197 1373.81 689.064 1381.94 691.999 1387.38 C 699.665 1389.84 705.174 1391.13 713.048 1392.41 C 725.425 1394.41 762.794 1389.8 767.106 1404.81 C 762.333 1424.81 690.372 1436.38 677.724 1445.21 C 683.703 1452.35 728.905 1450.66 740.79 1450.87 L 827.62 1453.2 C 837.477 1453.43 862.027 1453.47 870.767 1455.27 C 839.062 1457.9 800.417 1457 768.281 1457.4 C 695.497 1458.17 622.71 1458.41 549.923 1458.11 L 320.139 1457.95 C 281.338 1457.8 231.308 1458.59 193.248 1456.34 C 169.558 1454.54 140.511 1454.34 116.535 1453.61 L 116.458 1453.4 C 137.443 1450.28 182.253 1450.63 205.084 1449.95 C 207.215 1441.74 207.683 1434.55 209.563 1426.35 C 211.284 1418.05 215.853 1409.17 217.553 1401.02 C 222.656 1376.54 226.964 1351.63 230.822 1326.93 C 231.382 1323.34 229.457 1321.83 227.176 1319.52 L 226.089 1318.43 C 223.97 1311.25 228.223 1302.84 230.909 1295.59 C 221.074 1292.56 208.381 1288.96 199.11 1284.54 C 186.161 1278.22 176.897 1270.73 164.437 1262.92 C 133.031 1243.25 159.398 1206.46 170.467 1182.65 C 172.581 1178.1 181.5 1170.73 184.581 1165.18 C 193.798 1148.54 204.417 1132.74 214.144 1116.45 C 217.689 1110.48 218.623 1093.81 220.251 1086.46 C 222.432 1076.6 224.553 1066.76 227.061 1056.9 C 230.401 1043.91 234.331 1031.08 238.838 1018.44 C 247.473 993.74 254.011 974.519 277.283 960.686 C 284.212 942.073 296.236 930.597 315.933 926.113 C 332.033 922.49 348.912 925.477 362.792 934.404 C 378.511 944.633 385.799 955.166 389.675 973.292 C 384.124 981.928 382.759 983.957 379.436 993.747 C 372.624 1013.81 360.681 1061.9 329.946 1045.52 C 327.844 1044.4 328.135 1044.31 325.651 1043.56 C 324.841 1046.76 335.292 1051.35 338.167 1056.64 C 349.191 1076.9 356.294 1101.33 359.958 1123.34 C 382.032 1110.08 385.664 1114.21 408.216 1095.26 C 412.484 1076.37 415.493 1081.98 414.678 1058.96 L 404.641 1055.31 C 408.637 1008.93 414.522 965.342 426.697 920.167 C 431.978 900.57 439.225 881.833 444.377 862.29 C 451.113 836.734 453.631 809.762 463.215 785.007 C 468.275 772.039 479.259 756.557 487.104 744.817 C 495.442 743.513 504.52 743.754 513.012 743.71 C 517.356 740.112 517.816 738.38 519.876 733.141 L 521.012 732.489 L 522.753 731.458 C 526.797 729.088 529.847 728.528 528.789 723.569 C 526.048 723.03 504.738 732.045 494.484 731.004 C 452.922 726.784 496.074 676.238 514.061 662.243 C 514.025 656.742 514.02 651.602 514.571 646.12 C 517.405 617.916 547.406 605.259 572.322 602.355 z"/>
<path transform="translate(0,0)" fill="rgb(246,245,244)" d="M 490.601 757.577 C 506.629 770.046 527.817 791.049 542.827 804.355 C 562.222 821.547 591.085 872.762 597.486 897.607 C 602.381 916.604 601.007 975.772 601.305 997.401 C 602.432 1079.14 598.866 1161.66 598.975 1243.37 C 557.782 1242.59 516.921 1239.29 475.863 1236.08 C 461.169 1234.94 447.324 1233.93 432.998 1230.21 C 432.874 1219.75 435.533 1145.76 437.872 1139.81 C 441.896 1141.61 443.76 1142.77 448.059 1143.23 C 472.663 1133.66 462.369 1103.83 457.352 1085.27 C 459.228 1077.05 459.691 1069.85 465.835 1064.37 C 468.437 1063.67 469.069 1063.62 471.403 1062.35 C 475.791 1054.45 487.669 997.722 490.65 984.761 C 502.74 938.433 531.568 895.281 545.009 849.217 C 525.643 872.794 496.883 936.079 486.598 965.069 C 478.819 986.997 469.887 1031.57 465.493 1055.45 C 445.626 1057.28 433.185 1055.09 414.252 1050.29 C 416.751 1004.64 428.028 949.896 440.6 905.734 C 449.592 874.149 471.548 828.507 494.877 805.109 C 501.214 798.753 509.142 794.411 516.982 790.157 C 484.413 798.404 475.073 815.32 458.064 842.513 C 462.037 814.056 471.12 779.088 490.601 757.577 z"/>
<path transform="translate(0,0)" fill="url(#Gradient1)" d="M 548.44 818.685 C 575.32 856.736 570.665 935.905 562.93 980.738 C 557.517 1011.86 549.095 1042.39 537.783 1071.89 L 536.436 1070.08 C 565.09 980.918 567.063 909.407 548.44 818.685 z"/>
<path transform="translate(0,0)" fill="rgb(60,64,67)" d="M 537.783 1071.89 C 535.262 1079.96 531.155 1088.77 527.224 1096.26 C 528.783 1089.29 533.761 1077.17 536.436 1070.08 L 537.783 1071.89 z"/>
<path transform="translate(0,0)" fill="rgb(192,199,203)" d="M 519.076 1110.73 L 519.561 1112.54 C 518.057 1117.23 515.614 1119.98 512.711 1123.98 C 512.272 1121.24 517.458 1113.47 519.076 1110.73 z"/>
<path transform="translate(0,0)" fill="rgb(246,245,244)" d="M 402.537 1136.72 C 411.098 1145.62 416.001 1144.96 427.122 1142.55 C 427.076 1171.29 425.116 1206.79 422.995 1235.63 C 431.125 1239.92 438.598 1241.38 447.465 1243.56 C 444.564 1259.32 444.901 1260.06 460.557 1263.47 C 459.675 1273.12 458.066 1283.35 456.7 1292.99 C 451.98 1326.3 447.714 1359.83 442.051 1392.98 C 440.945 1399.46 435.581 1409.49 433.246 1416.1 C 429.221 1427.48 428.619 1437.08 427.669 1449.13 C 418.185 1449.32 370.368 1450.36 364.479 1447.76 C 366.279 1445.55 367.357 1445.92 370.751 1444.96 C 379.122 1443.3 412.571 1429.69 419.357 1422.9 C 421.254 1421.01 420.945 1419.58 420.744 1417.42 C 412.552 1405.58 382.569 1409.03 365.437 1405.51 C 362.368 1394.23 360.795 1378.63 359.236 1366.94 C 356.285 1344.82 353.864 1323.01 349.981 1300.99 C 351.946 1299.27 351.8 1299.74 354.414 1299.19 C 355.682 1295.47 351.578 1282.42 351.251 1277.49 C 348.833 1241.1 357.713 1205.71 360.1 1169.4 C 374.322 1158.6 388.468 1147.71 402.537 1136.72 z"/>
<path transform="translate(0,0)" fill="rgb(246,245,244)" d="M 526.444 1269.14 C 549.401 1270.86 572.414 1271.72 595.435 1271.73 C 608.835 1310.27 627.045 1348.51 637.162 1388.31 C 639.35 1396.91 639.053 1409.79 640.476 1418.93 C 642.122 1429.5 644.687 1438.5 645.99 1449.18 C 635.558 1449.66 623.387 1449.2 612.826 1449.06 L 554.943 1448.84 C 550.292 1424.44 529.134 1425.97 511.056 1417.35 C 508.162 1415.97 495.53 1404.5 492.365 1401.69 C 501.214 1360.33 514.464 1309.33 526.444 1269.14 z"/>
<path transform="translate(0,0)" fill="rgb(246,245,244)" d="M 181.118 1182.99 C 190.623 1182.74 226.639 1199.76 237.541 1204.92 C 254.141 1212.77 278.51 1221.23 293.212 1230.96 C 290.33 1247.15 283.541 1276.53 270.25 1287.61 C 264.391 1292.49 259.617 1292.01 252.515 1291.28 C 234.734 1286.66 214.376 1280.73 197.335 1274 C 203.661 1273.16 205.848 1273.03 211.909 1270.5 L 212.455 1268.17 L 212.729 1270.13 L 213.298 1268.18 L 214.675 1268.72 L 214.69 1268.76 C 210.268 1266.01 199.864 1268.76 194.305 1269.66 C 179.982 1262.93 167.262 1256.12 159.092 1242.22 C 157.975 1225.01 171.936 1197.2 181.118 1182.99 z"/>
<path transform="translate(0,0)" fill="rgb(15,19,24)" d="M 178.044 1208.69 C 184.03 1209.85 187.426 1215.31 191.329 1220.04 C 238.537 1216.21 218.763 1238.84 235.338 1243.53 C 243.098 1245.72 254.515 1240 261.576 1243.97 L 261.622 1245.48 C 254.691 1246.62 249.951 1246.63 242.957 1246.72 C 238.985 1246.95 238.291 1246.9 234.742 1248.83 C 225.091 1245.74 224.197 1225.58 212.872 1223.63 C 205.275 1222.32 195.71 1222.6 187.965 1222.28 C 185.903 1219.19 183.434 1215.87 181.267 1212.81 C 184.34 1218.86 185.475 1220.79 187.107 1227.41 L 186.35 1227.64 C 183.099 1223.54 178.802 1213.88 178.044 1208.69 z"/>
<path transform="translate(0,0)" fill="rgb(246,245,244)" d="M 642.222 1239.41 C 644.303 1238.96 644.83 1239.06 646.984 1239 C 647.085 1239.12 673.223 1370.83 683.942 1394.34 C 677.353 1397.53 651.647 1407.19 649.218 1396.77 C 642.464 1369.63 633.113 1344.29 623.264 1318.23 C 619.021 1307.01 598.786 1261.41 601.635 1253.74 L 606.038 1252.11 C 608.172 1249.53 608.047 1245.32 608.371 1241.78 C 620.335 1241.28 630.335 1240.89 642.222 1239.41 z"/>
<path transform="translate(0,0)" fill="rgb(246,245,244)" d="M 294.315 1315.73 C 310.739 1343.22 326.78 1415.21 336.271 1448.74 C 330.37 1448.86 301.66 1449.72 298.104 1448.27 C 291.535 1429.08 274.799 1433.28 257.684 1424.4 L 256.467 1423.75 C 254.893 1420.48 253.785 1416.58 252.664 1413.08 C 254.789 1406.61 263.345 1387.84 266.6 1380.32 C 273.324 1364.77 285.208 1328.45 294.315 1315.73 z"/>
<path transform="translate(0,0)" fill="rgb(246,245,244)" d="M 272.418 1055.99 C 312.965 1056.65 310.539 1101.62 282.918 1114.2 C 281.056 1112.89 281.751 1113.17 279.622 1112.5 C 274.575 1119.58 275.179 1120.26 267.782 1125.22 L 266.31 1126.19 L 266.434 1127.09 L 270.57 1125.37 L 270.261 1127.77 C 265.113 1135 257.408 1139.11 249.863 1143.59 C 260.557 1141.89 264.332 1140.81 273.842 1135.71 C 286.34 1138.78 296.194 1142.6 308.282 1147 L 305.06 1155.68 C 302.371 1162.31 300.166 1169.96 298.017 1176.85 C 283.438 1170.01 238.253 1153.37 230.008 1142.75 C 226.216 1137.86 225.307 1132.17 226.284 1126.15 C 229.315 1107.49 257.151 1066.73 272.418 1055.99 z"/>
<path transform="translate(0,0)" fill="rgb(246,245,244)" d="M 469.219 1265.15 C 485.424 1267.51 500.931 1268.49 517.276 1269.04 C 504.323 1308.3 493.958 1356.93 484.182 1397.79 C 482.951 1401.74 480.79 1406.47 479.146 1410.36 C 469.041 1409.02 459.762 1407.92 449.799 1405.59 C 456.234 1358.6 464.328 1312.52 469.219 1265.15 z"/>
<path transform="translate(0,0)" fill="rgb(192,199,203)" d="M 629.943 640.191 C 643.057 639.215 665.027 639.681 662.54 658.39 C 660.669 672.468 644.857 684.608 634.267 692.301 C 634.667 686.486 636.502 672.766 633.258 668.793 C 616.434 665.239 546.288 703.862 525.859 713.04 C 484.862 729.195 474.545 721.962 503.487 685.677 C 507.531 680.606 511.77 677.004 516.782 672.96 C 520.965 677.699 522.598 679.706 527.78 683.598 C 560.834 688.045 594.177 666.662 618.387 646.209 C 623.01 642.304 623.798 640.925 629.943 640.191 z"/>
<path transform="translate(0,0)" fill="rgb(192,199,203)" d="M 573.649 611.358 C 592.528 610.936 605.396 619.156 613.794 636.018 C 601.147 651.52 579.838 662.934 561.463 670.061 C 552.426 673.012 537.88 678.363 528.685 672.861 C 525.163 669.185 524.084 660.808 523.33 656.039 C 518.913 628.139 550.178 613.958 573.649 611.358 z"/>
<path transform="translate(0,0)" fill="rgb(246,245,244)" d="M 321.525 934.197 C 327.382 933.613 333.275 933.031 338.993 934.566 C 364.873 941.515 382.242 957.625 374.092 984.91 C 371.055 978.341 369.136 971.795 363.232 968.086 C 355.292 967.549 352.118 975.402 344.913 979.656 C 340.518 982.251 338.187 983.332 333.555 985.378 C 328.651 986.791 323.353 987.553 318.3 988.432 C 296.778 972.144 291.779 983.467 292.847 1005.76 C 280.754 973.904 280.832 942.047 321.525 934.197 z"/>
<path transform="translate(0,0)" fill="rgb(246,245,244)" d="M 588.458 697.564 C 600.953 696.731 610.047 697.274 622.585 697.83 C 620.215 704.969 618.542 709.921 617.042 717.253 C 619.953 723.184 621.027 724.972 624.866 730.353 C 623.615 733.086 622.958 734.248 621.457 736.759 C 618.333 738.147 616.995 738.473 614.632 740.999 L 617.802 743.585 C 616.871 746.983 612.555 751.184 609.656 753.196 C 604.351 756.877 597.011 754.683 590.988 753.405 C 581.949 749.508 563.602 741.133 560.77 731.124 L 563.878 727.177 C 559.823 718.158 540.689 714.026 564.258 703.522 L 573.209 709.738 L 575.941 697.75 C 580.055 697.808 584.331 697.652 588.458 697.564 z"/>
<path transform="translate(0,0)" fill="rgb(246,245,244)" d="M 226.068 1152.28 C 235.153 1158.38 238.738 1160.16 248.438 1164.82 C 263.789 1172.19 283.537 1175.86 294.686 1188.54 C 294.238 1195.78 293.289 1216.53 283.725 1215.53 C 260.75 1205.1 235.675 1193 213.094 1183.18 C 217.611 1172.96 221.936 1162.66 226.068 1152.28 z"/>
<path transform="translate(0,0)" fill="rgb(246,245,244)" d="M 240.779 1323.8 C 253.102 1324.91 265.438 1325.86 277.786 1326.66 C 268.216 1349.82 259.357 1373 249.581 1396.24 L 243.203 1411.21 C 237.122 1410.63 232.129 1409.58 226.15 1408.39 C 231.361 1380.35 235.435 1352.01 240.779 1323.8 z"/>
<path transform="translate(0,0)" fill="rgb(246,245,244)" d="M 286.748 1036.76 C 291.529 1041.61 298.942 1045.98 305.205 1052.53 C 322.917 1071.06 338.451 1098.39 338.357 1124.63 C 338.343 1128.59 338.398 1130.16 335.919 1132.62 C 333.53 1132.67 326.757 1128.35 323.378 1126.79 C 324.721 1122.04 325.298 1117.09 325.088 1112.15 C 324.809 1106.23 322.078 1095.53 317.646 1091.54 C 316.387 1094.36 318.891 1104.83 317.623 1111.77 C 315.773 1120.61 313.519 1129.13 311.26 1137.87 C 300.222 1134.27 289.831 1130.12 278.516 1127.15 C 291.314 1118.06 305.577 1107.95 308.762 1091.5 C 313.357 1067.76 291.838 1055.88 271.837 1053.62 C 277.169 1047 280.806 1042.8 286.748 1036.76 z"/>
<path transform="translate(0,0)" fill="rgb(246,245,244)" d="M 342.352 1321.29 L 343.278 1321.37 C 344.722 1323.29 354.575 1395.85 356.35 1405.91 L 347.591 1410.31 C 343.447 1412.44 343.499 1412.84 338.847 1412.89 C 335.915 1410.94 336.68 1410.71 335.283 1406.38 C 326.161 1379.39 318.395 1354.22 312.056 1326.37 C 321.856 1324.55 332.381 1323.05 342.352 1321.29 z"/>
<path transform="translate(0,0)" fill="rgb(192,199,203)" d="M 443.141 1413.44 C 453.653 1415.6 475.657 1421.08 485.113 1418.28 C 487.507 1415.84 488.845 1414.36 490.977 1411.7 C 496.89 1418.33 499.587 1422.41 507.469 1426.58 C 517.747 1432.01 534.7 1433.2 541.99 1442.39 L 541.259 1445.09 L 542.019 1445.81 C 533.566 1448.36 444.488 1445.33 437.508 1440.92 L 437.56 1438.46 L 437.575 1435.93 C 438.814 1428.5 440.513 1420.5 443.141 1413.44 z"/>
<path transform="translate(0,0)" fill="rgb(192,199,203)" d="M 437.56 1438.46 C 450.787 1440.5 463.654 1442.65 476.943 1443.89 C 489.48 1445.05 532.625 1442.05 541.259 1445.09 L 542.019 1445.81 C 533.566 1448.36 444.488 1445.33 437.508 1440.92 L 437.56 1438.46 z"/>
<path transform="translate(0,0)" fill="rgb(15,19,24)" d="M 437.575 1435.93 C 477.908 1445.67 504.418 1439.47 541.99 1442.39 L 541.259 1445.09 C 532.625 1442.05 489.48 1445.05 476.943 1443.89 C 463.654 1442.65 450.787 1440.5 437.56 1438.46 L 437.575 1435.93 z"/>
<path transform="translate(0,0)" fill="rgb(192,199,203)" d="M 694.722 1397.73 C 715.064 1404.27 729.048 1402.17 750.125 1403.23 L 754.235 1403.96 L 755.539 1405.01 C 740.925 1418.77 677.164 1433.55 655.399 1438.07 L 653.551 1437.28 L 652.967 1434.98 L 652.122 1432.99 C 648.943 1428.16 648.618 1415.99 648.147 1409.95 C 669.777 1410.29 676.049 1408.14 694.722 1397.73 z"/>
<path transform="translate(0,0)" fill="rgb(192,199,203)" d="M 750.125 1403.23 L 754.235 1403.96 L 755.539 1405.01 C 740.925 1418.77 677.164 1433.55 655.399 1438.07 L 653.551 1437.28 L 652.967 1434.98 L 652.122 1432.99 C 662.372 1429.47 675.352 1428.16 684.45 1425.72 C 697.1 1422.33 741.261 1408.44 750.125 1403.23 z"/>
<path transform="translate(0,0)" fill="rgb(60,64,67)" d="M 750.125 1403.23 L 754.235 1403.96 C 745.272 1408.56 734.203 1411.24 724.668 1414.74 C 710.263 1420.01 696.543 1425.11 681.629 1428.9 C 672.008 1431.35 661.787 1430.91 652.967 1434.98 L 652.122 1432.99 C 662.372 1429.47 675.352 1428.16 684.45 1425.72 C 697.1 1422.33 741.261 1408.44 750.125 1403.23 z"/>
<path transform="translate(0,0)" fill="rgb(246,245,244)" d="M 360.021 975.694 C 363.003 977.618 367.417 991.345 368.898 995.391 L 365.363 1008.16 L 363.338 1005.34 C 360.179 1005.07 361.727 1004.77 358.716 1006.93 C 359.711 1007.51 360.493 1007.92 361.512 1008.45 C 359.242 1019.34 356.649 1012.76 352.616 1017.95 L 353.238 1019.16 C 356.371 1020.4 356.548 1020.02 358.587 1022.4 C 356.104 1032.96 344.418 1044.65 333.489 1037.4 C 316.072 1025.07 314.682 1023.64 304.321 1005.11 C 305.974 1005.03 307.625 1004.91 309.272 1004.74 C 318.037 1003.78 312.651 997.514 325.259 995.243 C 340.35 992.524 349.5 986.53 360.021 975.694 z"/>
<path transform="translate(0,0)" fill="rgb(246,245,244)" d="M 392.11 1116.87 L 393.234 1117.14 C 395.136 1119.83 396.028 1126.19 396.755 1129.71 C 373.159 1148.72 347.566 1166.18 323.522 1184.7 C 321.619 1186.16 316.848 1184.19 314.66 1183.46 L 307.39 1179.8 C 310.072 1169.35 313.367 1158.41 316.331 1147.98 C 318.287 1148.35 323.461 1149.34 325.171 1148.83 C 348.26 1141.98 369.879 1126.92 392.11 1116.87 z"/>
<path transform="translate(0,0)" fill="rgb(246,245,244)" d="M 610.837 996.812 C 613.954 996.78 614.325 996.845 617.402 997.427 C 617.646 998.132 630.982 1143.79 630.189 1150.36 C 625.145 1151.09 615.26 1151.13 609.787 1151.29 L 610.837 996.812 z"/>
<path transform="translate(0,0)" fill="rgb(246,245,244)" d="M 498.858 751.494 C 548.04 759.386 564.436 801.725 594.055 835.993 C 601.747 844.892 603.19 872.964 606.484 884.974 L 604.294 884.522 C 596.519 867.814 572.913 824.357 561.645 811.448 C 545.106 792.5 517.804 769.467 498.858 751.494 z"/>
<path transform="translate(0,0)" fill="rgb(246,245,244)" d="M 543.122 712.778 C 545.009 715.208 549.599 723.319 551.01 726.067 C 559.507 742.613 563.604 747.74 578.069 758.933 C 575.866 763.739 566.047 782.195 570.831 786.118 C 580.676 794.192 588.114 804.036 590.497 816.788 L 589.353 816.64 L 586.244 812.071 C 564.973 783.58 556.318 767.09 523.358 747.321 C 537 733.573 537.663 731.687 543.122 712.778 z"/>
<path transform="translate(0,0)" fill="rgb(246,245,244)" d="M 420.127 1084.26 C 431.065 1089.94 436.088 1089.37 448.374 1090.14 C 452.952 1102.2 457.831 1125.04 446.653 1134.53 C 442.393 1130.46 457.94 1117.86 440.282 1107.04 C 432.655 1111.32 431.103 1116.53 427.202 1124.07 C 418.991 1139.95 404.844 1135.48 402.723 1118.8 C 401.279 1107.44 412.332 1106.05 418.396 1098.56 L 416.618 1097.16 C 415.588 1094.11 418.712 1088.1 420.127 1084.26 z"/>
<path transform="translate(0,0)" fill="rgb(246,245,244)" d="M 455.422 1243.79 C 466.554 1245.68 481.359 1245.93 492.811 1247.03 C 525.121 1250.16 559.241 1250.4 591.258 1253.37 C 593.013 1255.81 592.529 1259.21 592.558 1262.44 C 552.985 1262.21 512.951 1258.48 473.528 1255.15 C 467.73 1254.66 461.423 1254.27 455.857 1252.71 C 454.375 1250.13 455.148 1246.96 455.422 1243.79 z"/>
<path transform="translate(0,0)" fill="rgb(246,245,244)" d="M 277.578 990.789 C 278.018 991.543 278.745 993.792 278.916 994.491 C 281.139 1003.56 286.421 1010.67 292.052 1018.02 C 275.868 1035.78 268.574 1044.11 254.83 1064 L 247.706 1074.42 C 254.955 1044.16 260.707 1017.4 277.578 990.789 z"/>
<path transform="translate(0,0)" fill="rgb(246,245,244)" d="M 335.896 1182.87 L 336.807 1183.86 C 338.469 1194.15 332.378 1205.83 328.059 1214.96 C 323.789 1215.87 300.555 1219.25 298.069 1217.65 C 300.837 1208.34 303.401 1196.34 305.708 1186.72 C 312.46 1189.85 314.115 1190.54 321.397 1192.07 C 326.433 1189.49 331.187 1186.05 335.896 1182.87 z"/>
<path transform="translate(0,0)" fill="rgb(246,245,244)" d="M 349.798 1173.87 L 350.611 1174.81 C 347.205 1207.65 340.583 1240.38 341.375 1273.31 C 341.478 1277.6 343.349 1285.6 341.658 1289.1 C 338.503 1289.87 340.069 1289.97 336.854 1288.34 C 332.108 1277.32 329.166 1240.38 335.426 1230.77 C 338.037 1230.03 339.922 1229.84 341.728 1227.87 C 342.064 1223.61 339.677 1218.3 338.195 1214.04 C 341.402 1202.39 342.442 1193.4 344.149 1181.51 C 344.873 1176.47 346.021 1176.54 349.798 1173.87 z"/>
<path transform="translate(0,0)" fill="rgb(246,245,244)" d="M 275.656 971.801 C 276.753 978.507 264.771 993.091 261.282 1000.82 C 252.952 1019.68 246.574 1039.35 242.247 1059.51 C 238.117 1078.48 241.723 1084.88 228.247 1100.25 C 227.954 1098 227.871 1096.57 228.266 1094.29 C 233.914 1061.73 249.875 991.485 275.656 971.801 z"/>
<path transform="translate(0,0)" fill="rgb(246,245,244)" d="M 358.572 1413.84 C 360.075 1413.72 360.012 1413.92 361.573 1414.4 C 365.397 1419.73 361.813 1417.56 364.476 1423.35 L 366.377 1422.72 L 368.345 1418.57 C 371.693 1416.46 383.459 1418.99 388.391 1418.87 C 393.885 1418.73 398.733 1418.12 404.135 1417.42 L 379.241 1426.41 C 369.466 1429.95 353.658 1433.23 343.277 1435.53 C 341.403 1431.44 339.644 1426.29 338.048 1422.01 C 344.932 1419.94 351.933 1416.71 358.572 1413.84 z"/>
<path transform="translate(0,0)" fill="rgb(246,245,244)" d="M 215.582 1131.72 C 216.51 1138.2 216.245 1139.54 219.072 1145.79 C 215.412 1154.3 208.59 1170.48 203.866 1177.93 C 200.39 1178.95 200.384 1178.23 196.234 1177.15 C 194.129 1176.83 194.297 1176.74 192.277 1175.91 C 189.803 1169.05 210.864 1138.63 215.582 1131.72 z"/>
<path transform="translate(0,0)" fill="rgb(246,245,244)" d="M 222.132 1415.17 C 230.856 1418.35 233.872 1418.9 242.858 1419.56 C 245.612 1422.81 247.958 1425.26 249.984 1429.02 L 250.855 1432.64 C 244.796 1433.24 239.355 1433.51 233.511 1435.22 L 229.852 1438.51 C 211.728 1435.23 215.805 1428.95 222.132 1415.17 z"/>
<path transform="translate(0,0)" fill="rgb(60,64,67)" d="M 249.984 1429.02 L 250.855 1432.64 C 244.796 1433.24 239.355 1433.51 233.511 1435.22 C 238.118 1430.07 242.82 1431.45 249.176 1429.3 L 249.984 1429.02 z"/>
<path transform="translate(0,0)" fill="rgb(246,245,244)" d="M 423.398 1062.62 C 434.718 1064.57 441.327 1065.04 452.771 1065.21 C 451.404 1069.57 450.194 1074.35 448.98 1078.79 C 446.101 1082.61 428.085 1078.9 423.89 1076.51 C 422.408 1073.03 423.204 1066.69 423.398 1062.62 z"/>
<path transform="translate(0,0)" fill="rgb(246,245,244)" d="M 303.923 1019.76 C 306.305 1021.64 314.809 1032.13 317.782 1035.44 C 316.837 1039.28 317.378 1046.52 314.4 1048.48 L 311.353 1046.25 C 304.578 1040.96 299.122 1037.4 291.76 1033.09 C 295.719 1028.63 299.889 1024.17 303.923 1019.76 z"/>
<path transform="translate(0,0)" fill="rgb(246,245,244)" d="M 322.308 1056.55 C 323.923 1056.99 327.348 1057.91 328.426 1059.15 C 338.959 1071.28 351.222 1115.62 351.554 1129.31 C 350.209 1129.46 349.167 1129.43 347.815 1129.44 C 345.9 1125.26 343.763 1105.86 341.833 1099.49 C 336.906 1083.24 330.01 1071.41 322.308 1056.55 z"/>
<path transform="translate(0,0)" fill="rgb(246,245,244)" d="M 622.384 677.966 L 623.987 679.007 C 625.271 683.701 624.796 688.071 624.658 692.975 C 609.224 692.65 601.44 692.632 586.233 694.94 L 584.053 694.678 C 586.982 691.813 616.772 680.23 622.384 677.966 z"/>
<path transform="translate(0,0)" fill="rgb(246,245,244)" d="M 609.857 940.52 C 610.245 934.874 609.299 924.983 611.666 921.554 C 613.156 932.729 618.862 978.278 615.958 987.133 L 613.974 987.782 C 612.458 986.884 610.453 985.805 610.512 983.72 C 610.844 972.082 609.134 951.1 609.857 940.52 z"/>
<path transform="translate(0,0)" fill="rgb(246,245,244)" d="M 250.855 1432.64 C 263.406 1435.88 271.472 1438.8 283.205 1444.33 C 267.366 1443.25 244.62 1442.32 229.852 1438.51 L 233.511 1435.22 C 239.355 1433.51 244.796 1433.24 250.855 1432.64 z"/>
<path transform="translate(0,0)" fill="rgb(126,144,159)" d="M 213.909 1442.26 C 222.087 1442.82 233.194 1444.92 242.519 1445.69 C 254.573 1446.68 275.196 1446.03 286.069 1447.74 L 286.914 1448.97 C 282.551 1449.66 271.62 1449.37 266.957 1448.83 C 256.349 1447.59 218.881 1449.73 213.909 1442.26 z"/>
<path transform="translate(0,0)" fill="rgb(192,199,203)" d="M 604.294 884.522 L 606.484 884.974 C 607.826 892.538 611.932 914.549 611.666 921.554 C 609.299 924.983 610.245 934.874 609.857 940.52 C 606.74 922.227 610.263 908.691 604.294 884.522 z"/>
<path transform="translate(0,0)" fill="rgb(246,245,244)" d="M 436.913 1114.49 C 440.658 1116.69 440.244 1121.85 438.431 1125.34 C 435.36 1131.25 432.327 1132.79 426.208 1134.97 L 425.466 1133.68 C 434.403 1126.32 431.705 1125.3 436.487 1115.36 L 436.913 1114.49 z"/>
<path transform="translate(0,0)" fill="rgb(246,245,244)" d="M 302.387 986.498 C 309.708 988.086 311.392 994.248 308.24 1000.33 C 300.372 1000.28 299.931 992.129 302.387 986.498 z"/>
<path transform="translate(0,0)" fill="rgb(126,144,159)" d="M 368.91 1435.43 C 378.748 1431.81 392.283 1427.73 401.457 1423.85 L 402.175 1424.12 C 395.207 1428.82 378.482 1434.77 370.111 1437 L 368.91 1435.43 z"/>
<path transform="translate(0,0)" fill="rgb(192,199,203)" d="M 368.91 1435.43 L 370.111 1437 C 365.747 1438.41 347.199 1445.32 344.542 1441.77 C 348.234 1439.95 363.498 1436.89 368.91 1435.43 z"/>
<path transform="translate(0,0)" fill="rgb(6,21,50)" d="M 1867.93 860.036 C 1875.36 859.978 1983.48 900.873 1995.98 905.755 C 1977.99 999.357 1960.27 1078.36 1872.58 1132.06 L 1870.54 1132.63 C 1863.13 1130.23 1845.52 1116.78 1839.06 1111.22 C 1773.54 1054.85 1753.05 984.156 1745.37 902.617 C 1787.4 890.368 1826.99 873.838 1867.93 860.036 z"/>
<path transform="translate(0,0)" fill="rgb(246,245,244)" d="M 1869.08 876.056 C 1872.07 875.999 1968.67 910.101 1978.69 914.222 C 1962.99 991.888 1945.8 1071.3 1870.47 1114.17 C 1867.11 1113.55 1860.44 1108.63 1857.66 1106.47 C 1817.05 1074.35 1787.59 1030.26 1773.45 980.449 C 1767.14 957.869 1764.55 937.491 1761.54 914.309 C 1796.94 902.127 1833.8 887.239 1869.08 876.056 z"/>
<path transform="translate(0,0)" fill="rgb(6,21,50)" d="M 1837 917.854 L 1899.77 918.059 L 1899.66 958.228 C 1912.23 958.223 1924.81 958.152 1937.38 958.013 L 1937.33 1017.1 C 1925.81 1017.73 1910.83 1017.35 1899.06 1017.36 C 1899.12 1023.82 1900.26 1053.25 1897.75 1056.86 L 1837.04 1056.87 L 1837.03 1017.5 C 1824.23 1017.11 1809.84 1017.43 1796.92 1017.44 L 1796.49 957.948 L 1837 957.918 L 1837 917.854 z"/>
<path transform="translate(0,0)" fill="rgb(246,245,244)" d="M 1847.39 927.345 C 1861.17 927.12 1875.52 927.343 1889.34 927.358 L 1889.11 967.938 L 1927.35 967.921 L 1927.59 1007.17 L 1889 1007.08 C 1889.07 1013.63 1890.19 1042.38 1887.75 1046.49 C 1874.93 1046.89 1860.86 1046.68 1847.94 1046.74 L 1847.89 1007.9 L 1807.48 1007.9 C 1806.62 994.936 1806.96 981.461 1807.11 968.446 C 1819.98 967.933 1834.29 968.069 1847.27 967.913 C 1847.52 954.584 1847.36 940.72 1847.39 927.345 z"/>
<path transform="translate(0,0)" fill="rgb(6,21,50)" d="M 1406.72 944.58 C 1407.84 944.819 1411.67 945.756 1412.2 946.867 C 1419.02 961.008 1425.37 975.398 1431.85 989.698 C 1443.98 1017.13 1456.76 1044.26 1470.19 1071.08 L 1439.93 1071.04 C 1437.47 1064.32 1434.45 1058.37 1431.34 1051.94 L 1386.62 1051.67 L 1378.13 1070.99 C 1358.4 1071.23 1338.36 1071.06 1318.6 1071.07 C 1308.12 1054.65 1294.89 1038.57 1283.86 1021.78 C 1283.49 1037.92 1283.71 1054.93 1283.65 1071.14 L 1255.37 1071.37 L 1255.27 985.5 L 1255.18 947.027 L 1284.03 947.012 L 1283.2 999.176 C 1293.77 982.015 1308.45 963.927 1320.15 946.933 L 1352.29 946.858 C 1339.97 966.08 1320.15 988.683 1305.85 1010.37 C 1323.7 1028.9 1333.29 1046.88 1348.97 1064.65 C 1353.73 1057.67 1359.89 1044.44 1363.72 1036.52 C 1372.09 1019.37 1380.13 1002.05 1387.84 984.583 C 1393.12 972.765 1400.4 955.43 1406.72 944.58 z"/>
<path transform="translate(0,0)" fill="rgb(246,245,244)" d="M 1408.42 997.729 C 1411.54 1001.42 1419.63 1024.08 1421.75 1029.78 L 1410.75 1029.59 L 1395.76 1029.12 C 1398.77 1019.44 1404.26 1007.01 1408.42 997.729 z"/>
<path transform="translate(0,0)" fill="rgb(6,21,50)" d="M 941.638 946.99 C 963.358 946.931 997.6 942.484 1013.42 959.604 C 1019.48 966.17 1020.95 977.801 1020.04 986.346 C 1019.13 994.975 1013.25 999.65 1006.93 1004.51 C 1029.22 1014.06 1035.88 1030.07 1025.07 1052.41 C 1007.71 1077.45 969.55 1071.25 941.859 1071.08 L 941.638 946.99 z"/>
<path transform="translate(0,0)" fill="rgb(246,245,244)" d="M 969.861 1019.08 C 984.692 1018.83 1017.42 1020.81 998.575 1043.84 C 989.282 1049.43 980.36 1048.65 969.867 1048.53 L 969.861 1019.08 z"/>
<path transform="translate(0,0)" fill="rgb(246,245,244)" d="M 970.012 970.043 C 985.534 969.962 1003.56 974.293 990.719 993.33 C 983.126 997.35 978.401 996.857 969.939 996.926 L 970.012 970.043 z"/>
<path transform="translate(0,0)" fill="rgb(6,21,50)" d="M 1139.09 946.909 C 1164.93 946.643 1216.19 939.504 1227.84 968.837 C 1237.08 992.117 1226.03 1010.34 1204.24 1020.1 C 1214.36 1035.73 1230.26 1056.26 1241.67 1071.26 L 1216.75 1071.2 L 1206.95 1071.11 C 1196.92 1058.6 1189.17 1043.53 1179.96 1030.39 C 1177.24 1026.52 1174.09 1022.12 1169.04 1022.36 C 1165.77 1026.41 1167.27 1063.01 1167.24 1070.88 L 1139.18 1070.88 L 1139.09 946.909 z"/>
<path transform="translate(0,0)" fill="rgb(246,245,244)" d="M 1167.49 969.61 C 1184.08 969.754 1215.04 971.903 1197.56 996.846 C 1188.98 1002.31 1177.64 1001.13 1167.55 1001.04 C 1167.4 990.564 1167.38 980.087 1167.49 969.61 z"/>
<path transform="translate(0,0)" fill="rgb(6,21,50)" d="M 1723.69 942.829 C 1727.06 947.106 1726.52 1055.78 1726.61 1071.53 L 1698.95 1071.45 L 1698.7 1006.85 C 1689.44 1017.98 1679.75 1028.75 1669.65 1039.14 C 1660.7 1030.23 1649.47 1017.09 1641.07 1007.39 L 1641 1055.5 L 1640.94 1071 L 1613.77 1071 L 1613.93 989.313 C 1613.93 981.545 1612.72 948.775 1616.14 944.412 C 1621.03 945.845 1663.54 992.064 1669.77 999.274 C 1689.05 982.003 1706.91 957.633 1723.69 942.829 z"/>
<path transform="translate(0,0)" fill="rgb(6,21,50)" d="M 1477.98 943.079 C 1485.16 945.322 1525.47 991.598 1533.15 999.828 C 1551.69 982.399 1567.64 962.768 1585.86 945.237 C 1586.78 944.353 1587.24 944.771 1588.38 945.021 C 1590.07 949.736 1588.87 1057.75 1588.85 1071.03 C 1582.6 1071.04 1565.19 1072.46 1561.42 1069.36 L 1561.08 1065.25 L 1561.23 1008.39 L 1533.17 1039.38 C 1524.75 1031.57 1514.49 1018.73 1505.12 1009.52 L 1505.01 1071.1 L 1477.38 1071.12 C 1477.35 1029.69 1476.7 984.231 1477.98 943.079 z"/>
<path transform="translate(0,0)" fill="rgb(6,21,50)" d="M 1044.28 946.889 L 1119.76 947.039 L 1119.76 970.874 L 1072.93 970.9 L 1072.96 997.708 L 1113.54 997.82 L 1113.73 1019.91 L 1072.3 1019.93 L 1072.15 1033.25 L 1072.14 1046.16 L 1120.56 1046.14 L 1120.63 1071.09 L 1044.74 1071.12 L 1044.28 946.889 z"/>
<path transform="translate(0,0)" fill="rgb(6,21,50)" d="M 736.445 944.254 C 754.665 942.908 765.649 946.534 780.507 956.422 C 777.34 963.195 773.035 970.752 769.433 977.42 C 757.911 972.16 740.472 962.066 730.139 974.195 C 720.333 985.414 744.698 993.59 752.454 995.986 C 782.95 1005.41 796.09 1033.37 775.745 1060.44 C 767.961 1070.8 752.372 1073.05 739.671 1073.81 C 719.505 1072.17 711.817 1069.14 695.666 1057.07 C 699.699 1050.12 705.684 1041.82 710.296 1035.05 C 717.849 1042.09 732.247 1050.74 741.634 1048.43 C 770.18 1041.39 752.317 1023.86 734.682 1018.46 C 721.675 1013.76 703.049 1004.52 700.812 989.295 C 697.037 963.608 713.17 948.145 736.445 944.254 z"/>
<path transform="translate(0,0)" fill="rgb(6,21,50)" d="M 850.003 946.968 L 877.042 946.942 L 876.973 1046.65 L 927.05 1046.67 L 927.029 1071.14 L 849.941 1071.42 L 850.003 946.968 z"/>
<path transform="translate(0,0)" fill="rgb(6,21,50)" d="M 801.938 946.965 L 828.672 946.941 C 828.123 987.754 828.629 1030.09 828.635 1071.01 C 820.464 1071.37 810.051 1071.09 801.7 1071.11 C 801.452 1029.73 801.532 988.346 801.938 946.965 z"/>
<path transform="translate(0,0)" fill="rgb(6,21,50)" d="M 955.941 1123.06 C 968.926 1122.82 995.17 1119.66 1001.36 1132.33 C 1008.21 1146.34 1001.85 1155 990.379 1161.49 C 995.443 1169.26 1000.49 1175.52 1005.89 1182.96 L 1005.13 1183.79 L 996.963 1184.1 C 995.852 1183.83 994.741 1183.57 993.631 1183.3 C 989.788 1179.12 981.721 1166.82 979.085 1162.95 L 966.947 1162.89 C 967.117 1168.37 968.348 1179.36 965.266 1183.39 C 962.361 1184 960.686 1183.59 957.772 1183.23 C 954.657 1179.77 956.163 1131.46 955.941 1123.06 z"/>
<path transform="translate(0,0)" fill="rgb(246,245,244)" d="M 966.891 1132.12 C 980.009 1132.03 999.51 1130.45 991.1 1150.27 C 983.807 1154.68 975.647 1153.33 966.897 1153.14 L 966.891 1132.12 z"/>
<path transform="translate(0,0)" fill="rgb(6,21,50)" d="M 1042.6 1123 C 1045.54 1122.91 1048.86 1122.54 1051.72 1123.34 C 1054.78 1124.2 1076.09 1175.98 1080.01 1183.43 C 1076.34 1183.66 1072.01 1183.64 1068.27 1183.72 L 1062.43 1170.86 L 1052.22 1170.47 L 1032.85 1170.38 L 1027.84 1183.3 C 1023.94 1183.71 1019.47 1183.77 1015.51 1183.93 C 1023.28 1171.72 1036.2 1138.02 1042.6 1123 z"/>
<path transform="translate(0,0)" fill="rgb(246,245,244)" d="M 1047.35 1134.79 C 1050.19 1138.3 1057.1 1155.88 1057.96 1160.95 C 1055.77 1162.34 1052.2 1162.02 1049.22 1162.17 L 1036.18 1162.18 C 1039.81 1153.01 1043.54 1143.89 1047.35 1134.79 z"/>
<path transform="translate(0,0)" fill="rgb(6,21,50)" d="M 744.751 1123.14 C 747.627 1123.09 750.346 1123.24 753.212 1123.37 C 754.735 1124.08 783.545 1158.82 787.574 1163.33 C 787.66 1154.67 786.821 1133.86 787.843 1126.74 C 790.494 1123.09 788.833 1124.41 793.065 1122.68 C 796.248 1123.33 795.124 1122.46 796.854 1124.86 C 798.451 1137.12 797.505 1168.04 797.405 1181.89 C 796.914 1182.53 796.422 1183.17 795.931 1183.81 C 784.72 1182.98 781.274 1174.17 774.773 1165.6 C 768.134 1156.85 761.949 1148.51 754.935 1140.05 C 754.867 1149.96 755.721 1173.06 754.488 1181.81 L 753 1182.69 C 750.122 1182.85 747.628 1183.33 745.059 1182.2 C 743.53 1172.91 744.622 1134.91 744.751 1123.14 z"/>
<path transform="translate(0,0)" fill="rgb(6,21,50)" d="M 1139.09 1165.79 C 1139.07 1159.14 1138.18 1126.18 1140.95 1123.3 C 1144.29 1123.12 1144.92 1122.85 1148.13 1123.91 C 1149.68 1129.27 1149.02 1175.65 1149.01 1184.11 C 1147.71 1184.18 1141.31 1184.46 1140.55 1183.57 C 1128.99 1170.06 1117.99 1155.27 1106.93 1141.36 C 1106.94 1154.22 1107.35 1169.68 1106.81 1182.33 L 1105.5 1183.52 C 1101.83 1183.53 1100.43 1184.07 1097.46 1182.53 C 1095.95 1176.03 1096.6 1132.48 1096.6 1123.01 C 1098.39 1122.93 1104.29 1122.55 1105.54 1123.95 C 1117.35 1137.19 1128.12 1151.77 1139.09 1165.79 z"/>
<path transform="translate(0,0)" fill="rgb(6,21,50)" d="M 1363.23 1122.92 C 1365.36 1122.9 1368.12 1122.59 1370.17 1123.03 C 1373.79 1123.79 1396.64 1176.55 1399.95 1183.25 C 1396.29 1183.56 1391.77 1183.51 1388.03 1183.57 C 1383.39 1171.79 1384.51 1170.67 1371.22 1170.78 L 1353.8 1170.01 C 1351.61 1174.48 1349.95 1180.01 1346.44 1183.07 C 1342.51 1183.64 1342.48 1183.55 1338.48 1183.02 L 1337.83 1181.64 C 1340.32 1172.9 1358.8 1133.14 1363.23 1122.92 z"/>
<path transform="translate(0,0)" fill="rgb(246,245,244)" d="M 1367.09 1136.54 C 1370.38 1139.85 1376.81 1156.14 1378.02 1160.98 C 1376.29 1162.47 1373.95 1161.98 1371.02 1162.12 L 1357.36 1162.03 C 1360.25 1153.74 1363.91 1144.79 1367.09 1136.54 z"/>
<path transform="translate(0,0)" fill="rgb(6,21,50)" d="M 1439.8 1122.12 L 1440.92 1122.03 C 1454.25 1121.11 1459.85 1122.76 1469.64 1131.35 C 1467.05 1133.83 1465.61 1135.56 1462.35 1137.14 C 1453.37 1131.75 1449.52 1128.5 1438.93 1132.19 C 1410.96 1141.94 1423.61 1180.74 1451.41 1175.55 C 1457.55 1174.41 1468.03 1167.12 1464.54 1160.06 C 1461.73 1158.45 1452.29 1158.86 1447.9 1158.55 C 1447.78 1155.24 1447.61 1155.25 1448.64 1152.16 C 1453.1 1148.58 1468.73 1150.8 1475.13 1150.98 C 1475.04 1155.27 1474.9 1164.99 1473.13 1168.69 C 1455.55 1205.26 1395.47 1175.23 1417.05 1137.7 C 1422.24 1128.66 1429.92 1124.79 1439.8 1122.12 z"/>
<path transform="translate(0,0)" fill="rgb(6,21,50)" d="M 1245.41 1123.05 C 1255.61 1123.07 1279.05 1122.01 1287.61 1123.78 C 1289.21 1126.4 1288.58 1127.09 1288.57 1130.72 C 1284.99 1133.69 1261.73 1132.56 1255.9 1132.61 L 1255.92 1148.63 C 1264.75 1148.62 1277.76 1147.46 1285.25 1151.53 L 1285.78 1154 C 1279.44 1158.55 1264.4 1157.42 1256.32 1157.25 C 1255.49 1160.75 1255.85 1170.33 1255.9 1174.47 C 1265.64 1174.77 1280.23 1172.59 1288.16 1176.07 C 1290.41 1179.06 1289.83 1177.37 1289.57 1181.42 C 1285.52 1184.53 1253.16 1183.3 1245.4 1183.29 C 1245.76 1163.42 1245.48 1142.96 1245.41 1123.05 z"/>
<path transform="translate(0,0)" fill="rgb(6,21,50)" d="M 883.096 1123.14 C 886.995 1123.03 888.051 1123.01 891.869 1123.59 C 898.546 1130.89 885.841 1169.48 901.196 1173.91 C 934.306 1183.46 917.892 1138.04 924.619 1123.35 C 927.084 1122.47 928.894 1123.01 931.515 1123.38 C 933.639 1125.76 932.847 1126.55 932.934 1130.75 C 933.109 1144.12 935.635 1166.65 926.577 1177.29 C 919.12 1186.45 898.258 1186.74 890.386 1178.33 C 879.713 1166.93 882.92 1138.55 883.096 1123.14 z"/>
<path transform="translate(0,0)" fill="rgb(6,21,50)" d="M 1196.89 1122.11 C 1211.27 1121.62 1214.74 1123.7 1226.93 1131.43 C 1213.66 1144.4 1209.55 1127.58 1197.73 1131.69 C 1169.5 1141.49 1178.34 1182.39 1214.23 1172.73 C 1216.15 1170.37 1216.64 1169.27 1219.57 1168.5 C 1223.06 1169.89 1223.99 1172.05 1226.64 1175.25 C 1174.37 1209.89 1147.6 1135.55 1196.89 1122.11 z"/>
<path transform="translate(0,0)" fill="rgb(6,21,50)" d="M 840.384 1122.26 C 841.541 1122.24 842.699 1122.26 843.855 1122.32 C 850.56 1122.66 856.875 1124.93 861.407 1130.03 C 862.745 1139.98 847.377 1131.57 842.917 1131.06 C 837.179 1130.41 829.579 1134.77 829.017 1140.85 C 834.349 1150.28 863.728 1149.11 863.64 1165.57 C 863.553 1182.12 850.585 1183.99 838.201 1184.12 C 832.299 1183.33 822.976 1181.07 818.774 1176.88 C 818.782 1174.41 819.617 1174.28 821.517 1171.8 C 826.877 1170.58 856.371 1184.64 852.853 1165.12 C 846.617 1155.78 821.617 1159.19 819.836 1143.59 C 818.195 1129.21 827.688 1124.17 840.384 1122.26 z"/>
<path transform="translate(0,0)" fill="rgb(6,21,50)" d="M 708.059 1123.22 C 712.267 1123.14 714.441 1122.61 717.435 1124.7 C 718.964 1133.71 718.059 1172.04 717.995 1183.14 C 713.827 1183.43 712.447 1183.82 708.614 1182.52 C 706.837 1177.59 707.999 1131.37 708.059 1123.22 z"/>
</svg>