<svg version="1.1" xmlns="http://www.w3.org/2000/svg" style="display: block;" viewBox="0 0 2048 2048" width="1024" height="1024" preserveAspectRatio="none">
<defs>
	<linearGradient id="Gradient1" gradientUnits="userSpaceOnUse" x1="1718.33" y1="879.001" x2="764.335" y2="1018.99">
		<stop class="stop0" offset="0" stop-opacity="1" stop-color="rgb(15,18,36)"/>
		<stop class="stop1" offset="1" stop-opacity="1" stop-color="rgb(37,42,79)"/>
	</linearGradient>
</defs>
<path transform="translate(0,0)" fill="rgb(255,255,255)" d="M 0 0 L 2048 0 L 2048 2048 L 0 2048 L 0 0 z"/>
<path transform="translate(0,0)" fill="rgb(22,27,52)" d="M 1020.58 84.8658 C 1023.1 84.5272 1026.41 84.5516 1028.74 85.7347 C 1070.48 106.945 1112.13 128.125 1154.22 148.64 C 1184.85 163.57 1215.4 178.639 1247.16 191.043 C 1251.86 192.876 1261.83 198.675 1259.43 204.704 C 1253.48 206.475 1245.93 203.03 1240.4 200.673 C 1166.8 169.322 1095.71 132.001 1024.5 95.6522 C 1003.51 104.579 980.903 117.544 960.11 127.816 C 913.352 151.296 866.095 173.767 818.37 195.212 C 627.44 279.953 430.648 344.658 223.308 375.268 C 213.574 376.705 203.907 378.12 194.197 379.718 C 208.389 383.361 230.06 394.289 243.547 400.914 C 261.525 396.692 285.189 394.04 303.834 391.357 C 328.977 387.648 354.026 383.333 378.96 378.415 C 433.129 367.834 486.935 355.475 540.292 341.358 C 610.872 321.989 696.074 291.866 763.554 264.145 C 826.246 237.779 887.65 208.449 947.558 176.254 C 963.638 167.664 979.465 157.46 995.315 148.424 C 1004.62 143.121 1015.36 135.783 1025.38 132.533 C 1071.98 158.842 1119.58 183.348 1168.07 205.997 C 1184.59 213.64 1201.31 220.624 1218 227.85 C 1222.61 229.844 1229.24 232.135 1228.75 237.787 C 1227.38 239.248 1226.59 239.944 1224.61 240.545 C 1214.45 243.62 1103 186.93 1084.97 177.381 C 1070.33 169.681 1055.94 161.521 1041.82 152.912 C 1040.91 220.142 1041.94 289.758 1042 357.215 L 1042.1 691.18 C 1059.94 683.459 1086.95 667.391 1105.34 658.011 C 1145.9 637.619 1186.82 617.941 1228.07 598.987 C 1415.85 513.164 1599.96 481.43 1805.2 490.341 C 1805.22 465.787 1804.23 433.832 1801.88 409.22 L 1800.96 409.14 C 1779.97 407.116 1759.08 404.156 1738.35 400.268 C 1711.38 395.341 1592.2 369.583 1579.33 354.017 L 1579.78 352.371 C 1589.5 349.051 1625.22 362.612 1637.34 365.977 C 1682.37 378.66 1728.13 388.537 1774.38 395.553 C 1783.27 396.889 1801.6 400.42 1809.38 397.834 C 1824.72 392.741 1839.4 383.823 1855.06 378.549 C 1837.11 374.898 1818.11 373.606 1799.49 370.271 C 1738.1 359.28 1676.55 346.774 1617.65 326.011 C 1614.8 325.007 1613.64 322.523 1612.88 319.844 C 1614.45 315.01 1619.43 315.429 1623.6 316.623 C 1636.22 320.231 1648.5 324.801 1661.11 328.493 C 1687.04 336.012 1713.27 342.434 1739.74 347.742 C 1765.32 352.46 1790.67 358.406 1816.28 363.155 C 1832.8 366.219 1858.49 367.09 1873.89 371.508 C 1875.42 386.86 1875.89 408.381 1876.73 424.146 C 1879.11 466.09 1880.55 508.083 1881.03 550.092 C 1881.63 605.701 1881.58 660.061 1878.16 715.626 C 1862.06 977.063 1787.83 1246.61 1647.64 1469.55 C 1550.05 1624.75 1404.97 1768.93 1247.44 1862.47 C 1212.65 1883.13 1180.91 1898.11 1144.26 1914.65 C 1115.52 1927.62 1089.52 1938.68 1059.31 1948.33 C 1048.47 1951.8 1036.97 1958.22 1025.58 1960.82 C 1012.75 1957.3 997.322 1951.51 984.656 1947.02 C 943.93 1933.01 904.27 1916.08 865.986 1896.36 C 705.667 1815.23 590.186 1719.28 478.372 1577.65 C 418.293 1500.29 366.813 1416.63 324.843 1328.13 C 204.845 1076.77 160.295 806.588 167.588 529.261 C 168.295 494.799 169.713 460.355 171.842 425.951 C 172.82 408.45 173.517 388.564 175.551 371.298 C 188.014 370.732 211.607 366.357 224.708 364.345 C 271.381 357.392 317.736 348.444 363.644 337.526 C 430.775 321.447 487.995 307.461 554.489 286.166 C 717.151 234.072 869.299 163.488 1020.58 84.8658 z"/>
<path transform="translate(0,0)" fill="rgb(255,255,255)" d="M 1022.54 146.014 C 1026.08 145.575 1025.9 145.557 1029.38 146.281 C 1031.93 149.543 1031.05 162.788 1031.05 167.492 C 1031.06 194.032 1031.01 220.572 1031.02 247.112 L 1031.5 591.284 L 1031.6 661.966 C 1031.62 673.42 1031.1 693.674 1032.68 704.239 C 1034.43 705.412 1035.98 706.385 1038.35 705.143 C 1050.78 698.622 1063.54 691.511 1075.92 684.931 C 1099.95 672.189 1124.18 659.831 1148.6 647.861 C 1369.48 538.505 1557.26 488.025 1806.03 501.477 L 1806.16 517.892 C 1643.79 508.627 1481.25 532.794 1328.61 588.895 C 1269.65 610.463 1219.27 633.432 1163.05 660.597 C 1133.73 674.802 1104.69 689.574 1075.95 704.905 C 1063.94 711.201 1042.04 721.932 1031.66 729.258 C 1030.53 786.875 1032.8 844.97 1031.38 902.617 C 1031.2 909.986 1034.93 914.668 1041.41 908.857 C 1044.51 901.311 1042.3 754.592 1042.44 734.377 C 1062.61 724.096 1082.37 712.856 1102.46 702.378 C 1145.1 679.948 1188.42 658.809 1232.34 638.988 C 1402.84 562.536 1581.01 520.223 1768.48 526.888 C 1781.31 527.344 1794.13 527.677 1806.93 528.727 C 1807.17 564.808 1808.67 599.24 1807.77 635.669 C 1805.07 816.068 1773.78 994.897 1715.06 1165.49 C 1679.35 1266.42 1635.06 1362.99 1578.87 1454.14 C 1502.56 1580.57 1401.86 1690.55 1282.63 1777.68 C 1201.99 1837.05 1134.86 1872.06 1041.6 1908.22 C 1040.72 1860.95 1041.74 1809.89 1041.73 1762.29 C 1065.42 1729.6 1085.02 1685.23 1106.63 1650.36 C 1115.76 1635.63 1126.58 1615.59 1134.17 1600.08 C 1148.03 1604.91 1162.2 1611.92 1176.01 1616.01 C 1179.51 1610.82 1182.97 1604.47 1186.17 1599.02 C 1209.13 1559.95 1231.01 1520.93 1255.33 1482.64 C 1264.48 1492.73 1293.09 1534.9 1300.44 1538.7 C 1308.25 1532.5 1339.75 1477.95 1347.35 1465.65 C 1380.13 1413.63 1412.35 1361.27 1444.02 1308.57 C 1466.57 1271.24 1493.91 1223.75 1517.84 1187.87 C 1534.09 1209.48 1549.33 1233.99 1565.12 1256.05 C 1573.66 1267.98 1581.31 1280.27 1591 1291.45 C 1594.32 1290.15 1607.36 1284.25 1609.87 1282.79 C 1617.09 1278.6 1665.71 1257.99 1668.16 1252.64 C 1667.56 1249.07 1667.82 1248.61 1665.35 1245.94 C 1659.76 1244.81 1604.33 1273.32 1593.87 1277.75 C 1578.99 1259.28 1566.29 1237.32 1552.29 1218.15 C 1546.63 1210.4 1522.61 1171.77 1516.58 1170.58 C 1508.48 1177.37 1436.55 1300.71 1426.46 1317.45 C 1397.48 1365.8 1368.02 1413.86 1338.1 1461.63 C 1333.3 1469.45 1305.81 1515.81 1301.53 1519.6 C 1289.73 1519.59 1264.81 1468.82 1253.99 1466.28 C 1252.05 1467 1250.37 1468.41 1249.34 1470.24 C 1223.86 1515.27 1196.4 1558.71 1171.47 1604.1 C 1161.59 1599.45 1142.01 1589.81 1131.72 1589.71 C 1127.47 1592.33 1123.97 1598.92 1121.34 1603.23 C 1093.95 1648 1070.81 1699.09 1041.2 1742.21 C 1042.45 1677.47 1040.87 1609.85 1041.41 1544.65 C 1041.72 1515.14 1041.88 1485.62 1041.87 1456.11 C 1041.93 1441.66 1042.67 1418.66 1041.3 1404.84 L 1039.81 1403.91 C 1036.73 1403.91 1033.84 1403.42 1031.51 1405.13 C 1030.31 1412.42 1031.05 1432.39 1031.06 1440.88 L 1031.01 1513.97 L 1031.09 1781.5 C 1031.11 1801.05 1028.28 1909.62 1033.75 1919.49 C 1034.72 1919.79 1037.27 1920.52 1038.19 1920.2 C 1273.19 1838.68 1472.44 1655.35 1598.54 1443.29 C 1679.48 1307.2 1742.31 1143.25 1776.94 988.229 C 1787.62 939.693 1796.04 890.688 1802.18 841.372 C 1805.91 815.262 1809 789.065 1811.44 762.804 C 1817.16 691.226 1819.31 619.408 1817.89 547.617 C 1817.05 501.047 1814.58 454.836 1813.05 408.353 C 1829.91 400.039 1846.69 392.914 1864.01 385.619 C 1865.81 401.486 1866.65 422.9 1867.54 439.211 C 1869.56 477.061 1870.81 514.949 1871.28 552.85 C 1874.36 821.174 1831.22 1083.8 1713.94 1327.27 C 1634.31 1495.45 1518.03 1643.66 1373.64 1761.04 C 1261.55 1852.13 1161.24 1902.23 1025.89 1949.61 C 859.829 1897.17 708.661 1805.89 584.926 1683.35 C 552.508 1650.68 521.919 1616.24 493.298 1580.2 C 442.281 1515.74 397.554 1446.54 359.73 1373.56 C 316.734 1292.17 281.133 1207.08 253.355 1119.33 C 246.959 1098.83 241.37 1076.35 235.865 1055.44 C 191.313 883.667 171.95 706.334 178.381 528.995 C 179.775 480.609 180.308 433.638 185.598 385.374 C 202.521 393.649 218.896 400.115 235.983 409.197 C 215.875 632.338 235.442 857.277 293.777 1073.59 C 296.044 1081.81 301.103 1105.24 307.463 1108.84 C 319.025 1105.93 356.897 1084.9 370.025 1078.06 L 522.622 997.257 C 687.417 910.986 851.496 823.355 1014.84 734.373 L 1014.11 329.469 L 1014.72 200.699 C 1014.83 186.121 1013.51 165.417 1015.45 150.834 C 1015.76 148.532 1020.39 146.999 1022.54 146.014 z"/>
<path transform="translate(0,0)" fill="url(#Gradient1)" d="M 1581.15 689.282 L 1631.31 688.125 C 1632.56 806.156 1630.57 925.548 1631.08 1043.83 L 1659.74 1043.63 C 1659.2 987.867 1658.95 932.105 1659 876.343 C 1658.96 850.681 1657.72 813.526 1659.24 788.946 C 1669.05 788.76 1698.55 787.675 1706.25 791.067 C 1710.39 798.977 1708.46 1021.93 1708.92 1049.02 C 1716.44 1048.84 1725.93 1047.21 1729.05 1055.88 C 1728.51 1062.82 1723.47 1063.89 1717.54 1063.92 C 1684.89 1064.07 1652.22 1063.63 1619.56 1063.58 L 1442.39 1064.41 C 1438.48 1070.69 1437.38 1072.27 1432.29 1077.67 C 1508.56 1078.57 1584.83 1078.94 1661.1 1078.78 C 1669.57 1078.79 1726.76 1077.71 1731.63 1079.63 C 1734.22 1082.4 1733.38 1080.77 1733.83 1084.89 C 1730.59 1090.2 1693.6 1087.73 1685.94 1087.69 L 1574.03 1087.53 L 1468.66 1088 C 1452.96 1088.08 1437.22 1087.9 1421.5 1088.04 C 1410.51 1088.14 1398.12 1091.97 1387.24 1092.16 C 1340.93 1092.99 1294.64 1097.72 1248.46 1098.32 C 1239.57 1098.44 1219.61 1075.02 1212.71 1068.82 C 1200.84 1057.08 1189.27 1045.93 1175.83 1035.93 C 1140.24 1078.01 1115.17 1112.09 1092.37 1162.36 C 1089.68 1159.96 1090.39 1160.72 1086 1160.28 C 1059.68 1152.34 1003.48 1140.87 975.275 1136.59 L 973.507 1134.78 C 975.374 1125.16 969.738 1123.78 975.435 1114.6 C 998.893 1076.8 1015.51 1037.28 1032.2 995.947 C 997.474 996.261 972.871 997.726 938.246 995.094 C 930.773 1007.28 921.084 1023.47 911.835 1034.09 C 887.289 1062.28 858.454 1087.25 831.778 1113.46 C 824.299 1120.8 818.486 1132.03 811.197 1138.94 C 805.644 1144.21 795.983 1155.08 789.016 1157.64 C 787.415 1158.23 787.001 1157.73 785.189 1157.18 C 781.157 1151.65 783.518 1146.98 783.342 1140.84 C 782.672 1117.32 790.475 1110.16 815.525 1107.73 C 843.571 1080.35 889.201 1007.53 911.343 972.459 C 936.004 966.246 961.346 963.507 987.269 956.561 C 1002.8 952.373 1018.21 947.757 1033.48 942.716 C 1046 938.634 1066.16 931.341 1078.45 929.994 C 1095.3 928.15 1115.71 932.591 1133.33 932.138 C 1138.96 927.488 1144.48 921.284 1149.47 917.467 C 1159.57 917.368 1162.23 918.781 1167.22 908.792 C 1162.25 879.655 1151.56 836.411 1193.78 831.238 C 1217.87 828.287 1227.94 831.717 1250.3 838.882 C 1278.39 847.883 1269.47 859.099 1245.79 867.657 C 1249.46 888.897 1247.36 899.961 1241.05 920.367 C 1233.17 945.812 1224.02 938.762 1199.85 938.58 C 1198.76 943.58 1196.43 953.747 1193.22 957.619 C 1198.58 962.184 1205.53 966.522 1210.05 971.412 C 1210.26 971.638 1211.28 978.452 1211.41 978.999 C 1216.76 1002.24 1244.36 1055.59 1260.46 1070.71 C 1303.78 1072.73 1352.63 1075.07 1395.89 1076.08 C 1398.84 1071.84 1402.58 1064.89 1408.67 1068.87 L 1409.1 1073.33 C 1414.22 1073.88 1422.71 1072.7 1427.57 1071.02 C 1429.81 1068.27 1430.35 1068.61 1430.37 1065.83 C 1420.17 1061.46 1352.55 1067.43 1338.6 1064.16 C 1336.05 1063.57 1337.05 1053.74 1337.66 1051.79 C 1339.72 1049.41 1339.94 1049.15 1342.43 1047.24 C 1343.84 1037.71 1343.16 1001.05 1343.17 989.61 L 1343.17 856.387 C 1343.17 846.917 1341.39 794.612 1345.15 790.388 C 1351.07 786.633 1383.41 787.299 1390.24 789.978 C 1392.62 795.994 1391.87 837.119 1391.86 845.67 L 1391.14 979.864 C 1391.15 998.722 1390.51 1026.02 1391.96 1044.57 L 1421.37 1044.13 L 1421.03 823.753 L 1420.88 763.932 C 1420.85 756.363 1419.26 728.934 1423.66 723.933 C 1428.59 722.213 1466.56 722.194 1470.13 727.666 C 1471.46 739.772 1470.79 759.291 1470.78 772.111 L 1470.6 848.115 L 1471 1043.1 L 1498.97 1043.04 L 1498.93 855.692 L 1498.93 802.765 C 1498.93 791.924 1498.48 777.599 1499.95 767.163 C 1504.39 763.499 1544.43 764.35 1552.42 764.741 C 1554.2 794.455 1552.67 835.97 1552.62 866.737 L 1552.81 1043.7 L 1581.14 1043.51 L 1580.77 807.098 C 1580.77 772.878 1579.14 722.456 1581.15 689.282 z"/>
<path transform="translate(0,0)" fill="rgb(255,255,255)" d="M 1138.26 952.041 C 1140.41 963.932 1142.13 973.301 1143.18 985.37 C 1151.97 982.606 1154.33 980.921 1161.39 974.585 C 1164.34 984.623 1162.46 996.442 1167.5 1001.12 C 1178.79 1001.26 1181.96 982.751 1185.62 978.786 C 1192 1013.74 1127.32 1078.68 1111.12 1109.7 C 1102.68 1125.86 1090.9 1142.1 1086 1160.28 C 1059.68 1152.34 1003.48 1140.87 975.275 1136.59 C 976.029 1133.4 976.233 1130.67 978.451 1128.4 C 982.648 1128.86 986.696 1130.09 990.758 1131.2 C 1009.99 1136.45 1029.47 1140.03 1049.06 1143.7 C 1054.18 1126.82 1078.73 1089.18 1087.87 1071.78 C 1100.79 1047.16 1115.58 1022.14 1125.41 995.653 C 1130.81 981.119 1134.01 966.771 1138.26 952.041 z"/>
<path transform="translate(0,0)" fill="rgb(255,255,255)" d="M 1590.98 698.979 C 1600.87 698.71 1611.4 698.877 1621.33 698.862 C 1623.01 741.758 1622.11 790.605 1622.09 833.888 L 1621.71 1043.58 L 1590.91 1043.92 C 1590.26 928.938 1590.28 813.957 1590.98 698.979 z"/>
<path transform="translate(0,0)" fill="rgb(255,255,255)" d="M 1430.88 732.866 L 1461.09 733.053 C 1462.12 836.626 1462.31 940.205 1461.68 1043.78 C 1452.3 1044.17 1440.62 1043.96 1431.08 1044.01 L 1430.88 732.866 z"/>
<path transform="translate(0,0)" fill="rgb(255,255,255)" d="M 1508.86 774.856 C 1520.03 774.703 1531.69 774.894 1542.9 774.921 L 1542.47 1043.54 C 1532.21 1044.05 1519.48 1043.77 1509.01 1043.79 L 1508.86 774.856 z"/>
<path transform="translate(0,0)" fill="rgb(255,255,255)" d="M 1352.97 797.428 C 1362.84 797.291 1372.72 797.313 1382.59 797.496 C 1383.12 877.96 1383.67 963.99 1382.54 1044.27 L 1352.64 1044.63 C 1352.47 963.176 1351.63 878.695 1352.97 797.428 z"/>
<path transform="translate(0,0)" fill="rgb(255,255,255)" d="M 1669.02 798.675 C 1679.4 798.453 1688.7 798.7 1699.04 799.036 C 1699.67 826.063 1699.12 855.165 1699.12 882.32 L 1699.03 1043.63 L 1669 1043.81 L 1669.02 798.675 z"/>
<path transform="translate(0,0)" fill="rgb(255,255,255)" d="M 1155.27 925.38 C 1164.86 921.757 1167.11 921.398 1173.24 913.124 C 1181.41 922.695 1186.55 929.798 1191.36 941.328 C 1185.61 946.304 1177.25 953.446 1172.58 959.164 C 1171.02 960.687 1169.99 961.526 1168.71 963.304 C 1167.8 955.278 1158.6 933.744 1155.27 925.38 z"/>
<path transform="translate(0,0)" fill="rgb(255,255,255)" d="M 1148.81 928.71 C 1152.16 931.275 1159.08 955.706 1160.85 961.232 C 1157.32 965.557 1154.47 968.787 1151.66 973.663 L 1150.33 975.023 L 1149.31 974.471 C 1147.03 964.851 1142.69 944.009 1142.23 934.55 C 1143.86 931.076 1145 931.252 1148.81 928.71 z"/>
<path transform="translate(0,0)" fill="rgb(255,255,255)" d="M 1187.19 951.542 C 1185.51 958.602 1180.46 982.327 1176.92 987.412 C 1174.94 985.679 1174.62 984.939 1173.09 982.806 L 1171.3 981.799 C 1171.63 977.1 1171.98 973.275 1167.5 970.14 C 1166.61 973.64 1168.09 977.529 1168.82 981.565 L 1167.56 981.427 C 1166.7 977.07 1165.78 972.726 1164.8 968.396 L 1163.57 968.156 L 1158.82 971.594 L 1158.13 970.707 C 1160.08 965.057 1165.1 966.199 1168.71 963.304 C 1169.99 961.526 1171.02 960.687 1172.58 959.164 L 1175.32 962.726 L 1187.19 951.542 z"/>
<path transform="translate(0,0)" fill="rgb(22,27,52)" d="M 1168.71 963.304 C 1169.99 961.526 1171.02 960.687 1172.58 959.164 L 1175.32 962.726 C 1175.01 971.214 1174.85 974.593 1173.09 982.806 L 1171.3 981.799 C 1171.63 977.1 1171.98 973.275 1167.5 970.14 C 1166.61 973.64 1168.09 977.529 1168.82 981.565 L 1167.56 981.427 C 1166.7 977.07 1165.78 972.726 1164.8 968.396 L 1163.57 968.156 L 1158.82 971.594 L 1158.13 970.707 C 1160.08 965.057 1165.1 966.199 1168.71 963.304 z"/>
<path transform="translate(0,0)" fill="rgb(255,255,255)" d="M 1211.08 871.399 C 1218.26 872.186 1234.31 874.035 1240.86 875.842 C 1242.65 878.463 1242.21 877.006 1241.85 880.453 L 1239.78 880.831 C 1234.06 879.276 1228.92 878.166 1223.01 877.691 C 1215.9 877.12 1217.3 877.334 1212.11 881.54 L 1210.81 881.138 L 1211.08 871.399 z"/>
<path transform="translate(0,0)" fill="rgb(255,255,255)" d="M 1192.38 888.885 L 1194.06 890.794 L 1195.93 892.256 C 1198.31 891.97 1198.19 892.072 1200.48 892.881 C 1199.55 896.574 1195.95 903.172 1193.52 906.242 L 1192.21 902.953 C 1190.03 901.584 1190.58 902.041 1188.87 900.327 C 1188.55 896.294 1190.7 892.685 1192.38 888.885 z"/>
<path transform="translate(0,0)" fill="rgb(255,255,255)" d="M 1192.38 888.885 C 1193.21 883.457 1192.2 885.026 1195.56 881.526 L 1198.19 880.948 C 1201.48 883.472 1200.1 881.9 1201.76 886.373 C 1199.85 885.598 1198.42 885.251 1196.38 884.913 C 1194.24 886.933 1194.8 887.288 1194.06 890.794 L 1192.38 888.885 z"/>
<path transform="translate(0,0)" fill="rgb(22,27,52)" d="M 891.325 1404.68 C 905.586 1358.18 922.55 1312.15 936.003 1265.96 C 941.286 1247.81 946.108 1229.53 950.465 1211.13 C 957.08 1182.37 958.556 1160.41 973.507 1134.78 L 975.275 1136.59 C 1003.48 1140.87 1059.68 1152.34 1086 1160.28 C 1090.39 1160.72 1089.68 1159.96 1092.37 1162.36 C 1117.53 1176.96 1262.53 1268.69 1267.42 1289.58 C 1268.31 1293.39 1262.05 1302.94 1259.95 1306.42 C 1248.46 1325.51 1234.87 1343.63 1222.66 1362.31 C 1194.36 1405.6 1166.71 1448.84 1139.85 1493.03 C 1126.62 1488.83 1115.43 1487.65 1100.89 1482.22 C 1108.09 1465.31 1118.25 1443.01 1125.87 1426.57 C 1143.97 1387.56 1167.3 1328.36 1198.78 1299.13 C 1149.21 1281.49 1038.18 1259.33 1003.37 1227.47 C 990.96 1216.11 984.131 1201.2 974.378 1187.82 C 985.438 1235.84 1012.58 1248.64 1055.65 1261.94 C 1051.55 1268.62 1044.17 1277.93 1039.42 1284.66 C 1029.25 1299.19 1019.17 1313.77 1009.18 1328.43 C 982.86 1367.57 957.158 1407.13 932.079 1447.07 C 917.263 1454.34 896.841 1461.68 881.295 1467.95 C 846.487 1481.98 811.587 1495.77 776.597 1509.34 C 761.702 1515.12 737.238 1523.73 723.549 1530.62 C 719.75 1518.47 713.362 1506.22 708.459 1494.14 C 739.16 1476.24 772.024 1460.9 802.941 1443.26 C 835.065 1424.92 853.323 1409.26 891.325 1404.68 z"/>
<path transform="translate(0,0)" fill="rgb(22,27,52)" d="M 550.193 1134.85 C 554.412 1135.85 567.826 1156.41 571.082 1161.03 L 595.639 1161 C 600.547 1153.17 605.006 1141.23 611.448 1135.68 C 619.654 1136.61 652.161 1151.93 658.864 1157.13 C 660.208 1163.87 652.091 1176.44 648.3 1182.23 C 655.127 1188.84 661.92 1195.48 668.681 1202.16 C 679.385 1199.38 687.607 1195.94 697.71 1191.56 C 704.467 1200.54 716.897 1228.68 721.749 1239.58 C 714.913 1243.9 701.06 1250.82 693.462 1254.87 L 693.943 1282.16 C 701.826 1286.27 709.455 1288.93 716.843 1294.19 C 715.062 1303.28 703.502 1332.86 699.292 1341.27 C 689.093 1340.51 677.913 1338.16 667.823 1336.16 C 664.025 1342.15 656.606 1350.72 651.912 1356.46 C 655.509 1364.5 658.124 1369.96 660.411 1378.39 C 650.003 1386 635.335 1391.5 623.246 1396.42 C 619.877 1397.26 616.464 1397.95 613.068 1398.68 C 608.774 1392.78 602.222 1382.19 599.471 1375.54 L 569 1376.15 C 562.58 1383.03 559.904 1390.41 551.736 1397.96 C 536.2 1392.78 518.297 1384.59 504.574 1375.87 C 506.383 1368.81 509.795 1360.31 512.387 1353.33 C 504.995 1346.8 497.977 1339.41 491.048 1332.35 C 483.889 1334.06 468.947 1338.24 462.566 1337.58 C 457.084 1331.81 448.716 1304.17 448.039 1296.07 C 451.055 1290.53 466.361 1283.56 472.657 1280.12 C 473.245 1271.01 473.356 1260.58 473.642 1251.34 C 467.259 1247.68 452.41 1241.72 449.368 1235.99 C 450.469 1227.18 463.111 1199.46 469.073 1193.02 C 474.885 1191.49 488.262 1198.66 494.386 1201.35 C 500.968 1196.27 510.402 1187.38 517.556 1181.57 C 513.838 1172.75 509.691 1164.62 507.756 1155.28 C 522.025 1148.46 535.77 1141.54 550.193 1134.85 z"/>
<path transform="translate(0,0)" fill="rgb(255,255,255)" d="M 548.756 1146.11 C 554.091 1150.71 561.951 1165.92 565.517 1172.41 C 579.506 1170.28 587.246 1170.47 601.504 1171.13 C 605.486 1163.28 609.701 1155.55 614.143 1147.96 C 625.54 1150.43 636.903 1156.48 647.475 1161.57 C 643.985 1170.35 640.949 1177.13 636.812 1185.63 C 648.808 1196.08 653.594 1200.1 663.078 1213.07 C 672.832 1211.02 685.208 1206.98 694.963 1204.09 C 698.854 1215.24 703.897 1225.58 708.866 1236.28 C 700.631 1240.12 691.77 1245.59 683.832 1250.22 C 684.762 1262.46 685.828 1276.25 681.639 1288.04 C 690.033 1291.68 697.393 1294.88 705.542 1299.12 C 701.784 1309.94 698.081 1320.78 694.433 1331.64 C 684.311 1329.96 676.185 1327.83 666.366 1325.1 C 657.799 1335.23 651.152 1343.25 640.775 1351.69 C 644.209 1360.42 646.21 1365.75 648.576 1374.76 C 639.175 1379.31 630.989 1382.63 621.242 1386.27 L 617.992 1386.97 C 612.726 1384.63 607.026 1370.68 604.232 1364.91 C 588.294 1366.95 578.984 1366.91 563.145 1366.52 C 558.526 1373.18 554.039 1379.94 549.689 1386.78 C 539.046 1382.24 525.887 1376.86 516.667 1370.19 C 518.212 1365.86 525.311 1353.04 521.737 1349.6 C 512.435 1340.66 503.839 1332.17 495.747 1322.1 C 487.566 1323.22 476.612 1325.94 468.387 1327.77 C 464.621 1318.43 460.663 1308.18 458.174 1298.46 C 466.396 1293.86 474.736 1289.48 483.185 1285.31 C 482.494 1270.22 482.306 1261.93 484.942 1247.15 C 476.796 1243.12 468.509 1238.19 460.576 1233.67 C 463.092 1226.45 467.492 1209.39 473.016 1205.67 C 479.876 1203.79 490.699 1210 497.602 1213.14 C 501.568 1210.26 506.326 1204.54 510.277 1200.84 C 517.271 1194.3 522.841 1190.48 530.672 1185.17 C 526.368 1176.5 522.157 1169.8 519.384 1160.47 C 527.5 1155.51 539.864 1150.22 548.756 1146.11 z"/>
<path transform="translate(0,0)" fill="rgb(22,27,52)" d="M 571.145 1185.96 C 616.519 1179.34 658.645 1210.82 665.168 1256.2 C 671.691 1301.59 640.134 1343.65 594.733 1350.09 C 549.461 1356.5 507.543 1325.05 501.038 1279.79 C 494.534 1234.53 525.899 1192.55 571.145 1185.96 z"/>
<path transform="translate(0,0)" fill="rgb(255,255,255)" d="M 576.881 1195.2 C 616.554 1191.8 651.62 1220.85 655.664 1260.46 C 659.709 1300.08 631.236 1335.61 591.696 1340.3 C 565.539 1343.4 539.742 1332.16 524.207 1310.89 C 508.673 1289.61 505.814 1261.62 516.729 1237.65 C 527.645 1213.68 550.637 1197.45 576.881 1195.2 z"/>
<path transform="translate(0,0)" fill="rgb(22,27,52)" d="M 571.453 1223.41 C 596.317 1216.98 621.677 1231.94 628.085 1256.81 C 634.493 1281.68 619.52 1307.03 594.649 1313.42 C 569.799 1319.81 544.473 1304.85 538.07 1280 C 531.667 1255.16 546.61 1229.82 571.453 1223.41 z"/>
<path transform="translate(0,0)" fill="rgb(255,255,255)" d="M 573.701 1233 C 593.415 1227.7 613.669 1239.49 618.793 1259.25 C 623.918 1279.01 611.946 1299.16 592.141 1304.11 C 572.585 1308.99 552.745 1297.2 547.685 1277.69 C 542.625 1258.18 554.235 1238.24 573.701 1233 z"/>
<path transform="translate(0,0)" fill="rgb(22,27,52)" d="M 1009.12 756.876 C 1011.88 757.061 1010.93 756.851 1013.44 757.955 C 1014.87 761.723 1014.13 802.126 1014.14 808.893 L 1014.24 871.07 C 1014.26 881.787 1014.4 892.852 1014.05 903.561 C 1013.9 908.336 1013.58 908.42 1011.05 911.431 C 1007.25 912.364 1008.96 912.589 1005.72 911.316 C 1001.43 905.772 1003.33 875.457 1003.31 866.914 L 1003.05 773.341 C 984.92 780.834 954.478 798.112 936.138 807.96 L 799.538 882.078 L 528.346 1024.7 C 460.388 1061 392.058 1096.6 323.367 1131.49 C 338.401 1183.52 359.675 1233.94 380.185 1284.02 C 495.158 1564.71 714.584 1800.77 1003.51 1906.22 L 1004.03 1550.5 L 1004.32 1478.89 C 1004.35 1471.72 1002.38 1446.98 1007.02 1442.64 C 1009.98 1442.37 1012.1 1441.77 1014.58 1443.21 C 1015.65 1448.2 1015.03 1475.24 1015.03 1481.82 L 1014.98 1577.23 L 1014.75 1807.34 C 1014.66 1842.15 1015.88 1883.14 1014.45 1917.04 C 1008.61 1922.89 981.469 1910.08 974.456 1907.28 C 899.398 1877.53 828.357 1838.51 762.985 1791.12 C 571.471 1654.99 443.56 1472.12 356.998 1255.69 C 346.597 1229.84 336.725 1203.78 327.386 1177.54 C 322.291 1163.06 314.695 1141.06 312.155 1126.09 C 334.566 1113.45 362.484 1100.18 385.672 1088.39 L 485.418 1036.5 L 872.544 830.341 C 915.074 807.208 968.058 781.705 1009.12 756.876 z"/>
<path transform="translate(0,0)" fill="rgb(189,25,33)" d="M 1525.57 716.358 C 1547.43 683.472 1563.91 648.369 1583.1 613.938 C 1587.15 606.666 1586.8 594.575 1594.7 591.431 C 1601.45 593.284 1600.6 600.366 1599.43 605.779 C 1615.42 634.045 1631.49 661.117 1648.76 688.63 C 1659.14 705.179 1668.68 722.6 1679.99 738.639 C 1687.51 735.432 1738.96 704.952 1740.48 702.13 C 1741.56 705.33 1742.56 707.816 1743 711.189 C 1731.56 714.663 1710.84 730.025 1700.2 736.802 C 1696.81 738.957 1690.79 743.864 1687.54 745.307 C 1686.8 749.592 1687.58 750.603 1684.6 754.006 C 1681.38 755.413 1682.96 755.355 1679.72 754.346 C 1676.31 751.41 1675.86 749.17 1674.05 744.859 C 1646.4 704.397 1620.79 656.09 1594.05 614.594 C 1572.92 642.835 1558.26 681.49 1539.37 711.697 C 1534.51 719.455 1537.02 728.995 1526.51 731.693 C 1523.8 730.831 1523.01 729.178 1521.29 726.856 C 1514.38 717.496 1500.54 708.794 1490.98 701.564 C 1474 688.714 1460.21 679.499 1444.8 664.654 C 1440.6 670.633 1414.12 692.133 1407.34 698.107 L 1348.05 749.735 C 1338.97 757.626 1329.85 765.831 1320.72 773.675 C 1319.15 775.026 1317.02 775.79 1315 775.799 C 1312.8 775.809 1313.66 775.882 1311.78 774.331 C 1311.28 769.57 1313.28 767.811 1316.83 764.758 C 1325.05 757.709 1333.77 751.193 1341.96 744.111 L 1428.27 668.718 C 1439.67 658.73 1436.94 654.864 1443.14 649.401 C 1446.79 648.86 1445.15 648.506 1448.24 650.425 C 1450.35 653.93 1450.2 655.63 1450.69 659.831 C 1462.88 669.907 1476.11 678.998 1488.83 688.456 C 1501.13 697.601 1513.22 707.37 1525.57 716.358 z"/>
<path transform="translate(0,0)" fill="rgb(193,22,31)" d="M 1674.05 744.859 C 1678.91 744.89 1684.27 743.749 1687.54 745.307 C 1686.8 749.592 1687.58 750.603 1684.6 754.006 C 1681.38 755.413 1682.96 755.355 1679.72 754.346 C 1676.31 751.41 1675.86 749.17 1674.05 744.859 z"/>
<path transform="translate(0,0)" fill="rgb(22,27,52)" d="M 1105.14 1491.26 C 1110.77 1493.93 1115.38 1497.31 1122.02 1500.32 C 1127.76 1499.7 1134.69 1498.48 1140.16 1499.73 C 1138.18 1500.79 1139.1 1500.11 1137.45 1501.84 C 1139.43 1512.11 1168.09 1527.02 1178.29 1529.38 C 1185.91 1531.15 1192.44 1535.43 1189.93 1544.35 C 1187.26 1546.71 1187.63 1545.87 1182.76 1545.7 C 1168.34 1544.59 1152.09 1543.66 1138.17 1539.85 C 1132.34 1538.26 1123.59 1530.5 1117.52 1529.96 C 1116.71 1531.21 1116.09 1532.2 1115.35 1533.51 L 1114.72 1534.65 C 1110.15 1535.13 1098.75 1532.38 1093.63 1531.34 C 1096.75 1517.13 1099.5 1504.75 1105.14 1491.26 z"/>
<path transform="translate(0,0)" fill="rgb(22,27,52)" d="M 700.752 1509.73 L 702.254 1510.6 C 704.161 1516.8 708.424 1523.75 711.663 1529.53 C 709.295 1552.17 715.26 1561.03 720.36 1582.4 C 721.698 1588.01 720.887 1597.14 713.139 1596.99 C 709.18 1594.4 707.631 1591.29 704.98 1587.32 C 696.91 1573.91 693.271 1562.3 686.064 1548.82 C 683.094 1543.27 676.278 1535.22 672.075 1530.13 C 680.322 1524.22 692.247 1513.79 700.752 1509.73 z"/>
<path transform="translate(0,0)" fill="rgb(193,22,31)" d="M 1740.48 702.13 C 1742.34 698.959 1742.15 698.995 1745.44 696.922 C 1748.91 696.597 1747.25 696.296 1750.5 698.282 C 1753.75 703.417 1754.74 707.679 1750.63 712.62 C 1747.37 713.526 1745.83 712.982 1743 711.189 C 1742.56 707.816 1741.56 705.33 1740.48 702.13 z"/>
<path transform="translate(0,0)" fill="rgb(255,255,255)" d="M 1001.88 157.856 L 1003.07 158.206 C 1004.9 163.906 1003.77 230.849 1003.64 243.54 C 1002.02 404.905 1006.17 567.19 1003.46 728.46 C 774.065 853.472 543.471 976.276 311.712 1096.86 C 305.737 1081.71 300.598 1058.99 296.454 1042.6 C 293.502 1028.1 287.877 1008.83 284.331 993.791 C 276.982 962.967 270.669 931.905 265.404 900.658 C 235.726 726.131 236.463 585.277 246.141 410.558 C 268.894 406.523 296.506 403.589 320.146 399.901 C 358.962 393.535 397.62 386.239 436.086 378.019 C 634.887 334.174 825.731 259.913 1001.88 157.856 z"/>
<path transform="translate(0,0)" fill="rgb(22,27,52)" d="M 611.462 394.424 C 623.46 393.481 638.952 394.449 650.843 395.898 L 651.369 424.55 C 679.459 430.577 691.531 434.674 717.066 446.788 C 723.01 437.251 727.886 430.467 734.533 421.509 C 753.057 433.639 768.997 444.97 785.947 459.102 C 779.785 467.696 774.991 474.357 768.031 482.41 C 784.602 498.978 794.433 512.986 806.234 533.112 C 816.62 528.281 826.32 525.714 837.248 522.492 C 842.86 539.689 853.077 563.878 860.191 580.6 C 849.975 584.351 839.785 588.177 829.624 592.076 C 836.367 620.643 834.424 640.96 832.627 669.882 C 840.694 674.277 849.471 677.486 857.951 682.085 C 853.192 698.012 842.521 727.979 835.762 743.208 C 829.636 739.863 816.38 735.236 809.321 732.473 C 798.083 752.712 789.46 763.174 774.811 780.616 C 780.657 788.937 786.295 796.767 790.669 805.959 C 782.169 812.363 748.065 837.115 740.027 839.38 C 733.974 837.839 724.682 826.375 719.589 821.22 C 694.578 832.344 681.176 837.624 654.555 844.321 C 652.57 853.1 651.025 864.389 649.536 873.431 L 630.701 873.94 C 616.579 874.21 604.819 875.019 590.403 874.663 C 587.593 865.547 584.739 852.863 582.339 843.364 C 557.103 836.421 541.33 832.488 517.742 820.561 C 511.915 827.662 506.665 833.784 499.701 839.771 C 479.139 828.92 467.568 819.654 449.099 806.258 C 453.015 795.833 457.172 787.033 460.474 776.192 C 442.638 756.678 437.622 749.146 423.543 727.165 C 415.855 729.977 407.61 733.212 399.744 735.262 C 394.384 731.271 379.549 691.285 376.133 682.34 C 384.379 676.13 393.153 670.652 402.354 665.971 C 398.83 643.617 399.903 619.597 403.542 597.354 C 393.577 592.895 387.538 588.335 376.9 585.372 C 383.536 565.299 389.799 549.07 395.649 528.153 C 405.885 529.729 415.982 532.101 425.849 535.248 C 438.482 512.257 448.141 500.328 466.249 482.308 C 460.753 476.991 450.759 463.263 445.471 456.62 C 457.325 446.091 485.437 428.383 499.888 419.643 C 505.737 428.53 512.073 437.482 518.124 446.264 C 535.841 437.752 565.257 429.066 584.329 425.463 C 584.3 416.131 584.4 406.799 584.629 397.47 C 594.401 395.472 601.515 395.018 611.462 394.424 z"/>
<path transform="translate(0,0)" fill="rgb(255,255,255)" d="M 600.505 431.546 C 712.592 422.186 810.933 505.724 819.82 617.85 C 828.707 729.976 744.754 827.963 632.592 836.377 C 521.097 844.741 423.819 761.396 414.985 649.938 C 406.151 538.479 489.084 440.85 600.505 431.546 z"/>
<path transform="translate(0,0)" fill="rgb(22,27,52)" d="M 601.209 465.496 C 694.471 456.298 777.484 524.561 786.475 617.843 C 795.465 711.125 727.018 793.986 633.716 802.769 C 540.707 811.524 458.163 743.339 449.201 650.35 C 440.239 557.361 508.24 474.665 601.209 465.496 z"/>
<path transform="translate(0,0)" fill="rgb(255,255,255)" d="M 608.878 475.278 C 696.644 470.332 771.79 537.495 776.692 625.263 C 781.594 713.032 714.393 788.145 626.622 793.002 C 538.914 797.857 463.866 730.714 458.967 643.008 C 454.069 555.302 521.174 480.22 608.878 475.278 z"/>
<path transform="translate(0,0)" fill="rgb(189,25,33)" d="M 590.924 521.006 L 647.217 521.183 C 647.271 548.405 647.462 575.627 647.789 602.847 L 722.353 602.925 C 722.227 622.849 722.307 642.774 722.593 662.697 L 647.437 662.824 C 647.139 680.193 647.546 697.684 647.399 715.04 C 647.331 723.002 647.789 735.261 646.802 742.936 L 591.139 743.027 L 591 662.003 C 564.919 662 538.838 662.141 512.759 662.425 L 512.817 602.742 L 590.948 602.73 L 590.924 521.006 z"/>
<path transform="translate(0,0)" fill="rgb(255,255,255)" d="M 495.765 434.782 C 499.204 435.84 506.912 447.832 509.588 451.57 C 495.125 459.145 487.448 465.447 474.59 475.417 C 470.523 472.712 462.972 461.884 459.635 457.388 C 468.009 450.907 486.167 440.571 495.765 434.782 z"/>
<path transform="translate(0,0)" fill="rgb(255,255,255)" d="M 593.443 844.837 C 612.104 846.57 624.789 846.909 643.306 845.275 C 643.047 851.072 642.245 857.588 641.655 863.434 C 632.2 864.99 607.925 864.584 597.678 864.414 C 595.879 858.175 594.698 851.265 593.443 844.837 z"/>
<path transform="translate(0,0)" fill="rgb(255,255,255)" d="M 827.599 535.929 L 829.794 536.089 C 833.148 539.521 843.814 568.093 844.772 573.452 C 843.772 574.943 832.712 579.95 829.388 581.911 L 828.427 581.96 C 827.119 580.858 814.777 547.895 811.85 542.257 C 816.295 539.815 822.718 537.723 827.599 535.929 z"/>
<path transform="translate(0,0)" fill="rgb(255,255,255)" d="M 598.103 405.5 C 612.227 404.475 626.916 404.695 641.058 405.364 C 641.118 409.772 641.769 419.395 640.264 422.845 L 638.249 423.139 C 622.126 422.343 610.557 422.566 594.653 423.414 C 594.551 417.894 593.815 411.747 595.541 406.738 L 598.103 405.5 z"/>
<path transform="translate(0,0)" fill="rgb(255,255,255)" d="M 736.949 436.434 C 745.636 440.521 764.195 454.606 772.17 460.87 C 768.981 465.55 764.503 471.123 760.985 475.726 C 757.938 474.813 732.016 455.401 725.406 451.456 C 731.14 445.727 732.927 443.209 736.949 436.434 z"/>
<path transform="translate(0,0)" fill="rgb(255,255,255)" d="M 765.69 788.666 C 769.592 790.469 774.574 799.224 776.959 803.08 C 765.652 811.727 752.388 820.134 740.456 827.995 C 735.92 823.816 732.676 820.01 728.627 815.375 C 742.127 807.927 753.978 798.565 765.69 788.666 z"/>
<path transform="translate(0,0)" fill="rgb(255,255,255)" d="M 828.727 680.412 C 834.443 681.838 839.51 685.013 844.577 687.95 C 840.712 700.036 835.165 717.211 830.325 728.692 L 812.899 724.543 C 819.441 707.44 824.109 699.484 828.727 680.412 z"/>
<path transform="translate(0,0)" fill="rgb(255,255,255)" d="M 403.698 540.645 C 409.766 541.578 415.935 543.099 421.942 544.451 C 415.421 559.152 410.99 570.289 406.358 585.528 C 403.471 586.188 393.74 581.202 390.625 579.769 C 394.226 567.775 398.726 551.762 403.698 540.645 z"/>
<path transform="translate(0,0)" fill="rgb(255,255,255)" d="M 468.995 785.664 C 482.917 797.966 493.278 805.643 508.258 816.228 C 505.371 819.768 502.526 822.226 499.193 825.312 C 493.418 827.023 467.872 806.836 461.758 802.284 C 463.907 796.642 466.499 791.166 468.995 785.664 z"/>
<path transform="translate(0,0)" fill="rgb(255,255,255)" d="M 403.633 676.823 C 404.903 678.006 417.498 712.226 419.86 717.763 L 405.198 721.84 C 403.634 721.996 404.536 722.06 402.554 721.222 C 397.914 711.153 393.129 697.514 389.098 686.855 L 403.633 676.823 z"/>
<path transform="translate(0,0)" fill="rgb(22,27,52)" d="M 1262.96 368.551 C 1263.18 354.358 1265.53 340.722 1270.82 327.516 C 1285.73 290.266 1375.68 179.041 1406.58 151.129 C 1423.07 136.234 1442.17 123.274 1462.7 114.624 C 1490.61 102.862 1523.53 102.127 1551.64 113.62 C 1567.86 120.252 1582.07 128.307 1589.16 145.038 C 1591.32 142.594 1593.53 140.188 1595.78 137.822 C 1599.43 134.053 1602.62 130.454 1607.8 130.343 C 1612.57 134.292 1612.26 152.534 1613.97 159.165 C 1620.35 183.898 1638.33 204.357 1655.64 222.386 C 1660.37 227.309 1676.24 233.902 1678.78 239.029 C 1674.49 245.2 1657.2 258.392 1650.71 263.858 C 1646.18 267.669 1631.78 264.356 1625.76 263.233 C 1615.45 249.366 1584.5 251.9 1571.06 259.966 C 1564.17 264.096 1563.14 275.754 1561.66 283.142 C 1559.04 297.61 1554.28 321.457 1557.9 335.44 C 1565.08 363.237 1605.82 377.737 1627.32 391.34 L 1628.36 392.011 C 1633.1 404.512 1643.56 418.464 1638.82 432.261 C 1634.07 446.06 1610.99 445.179 1613.76 426.52 C 1614.9 418.82 1613.9 406.602 1611.43 399.345 C 1601.81 394.653 1581.84 388.561 1571.17 384.872 C 1548.42 377.011 1531.05 370.388 1509.72 359.443 C 1484.5 370.609 1460.98 378.699 1433.73 383.466 C 1428.85 384.32 1422.69 385.158 1418.17 386.962 C 1424.49 387.457 1431.4 386.576 1437.78 386.032 C 1431.81 407.469 1421.93 426.78 1413.59 447.229 C 1409.67 457.836 1406.61 469.316 1411.48 480.383 C 1419.73 499.09 1445.7 483.821 1453.89 501.732 C 1454.58 503.234 1453.89 503.53 1453.09 504.995 C 1441.65 510.529 1439.89 496.846 1429.39 508.005 C 1427.64 508.474 1424.47 509.267 1422.8 509.002 C 1414.65 507.703 1409.87 512.064 1402.46 516.586 C 1399.58 514.47 1397.94 512.739 1395.38 510.212 C 1393.72 503.676 1393.4 501.112 1392.74 494.499 C 1386.9 487.004 1367.51 470.19 1366.22 466.006 C 1361.67 451.301 1390.62 426.888 1382.89 402.945 C 1379.1 391.191 1375.42 388.625 1366.03 382.842 C 1371.97 394.04 1374.33 404.253 1373.09 416.927 C 1368.78 460.879 1318.72 472.483 1313.25 494.784 C 1311.17 503.251 1314.95 513.979 1319.73 520.922 C 1324.28 527.515 1329.23 525.288 1336.04 526.583 C 1338.9 527.125 1340.92 528.483 1342.43 530.985 C 1344.29 534.063 1345.84 538.953 1344.84 542.461 C 1340.12 543.585 1334.05 540.138 1329.47 541.555 C 1328.67 543.954 1328.59 544.216 1327.33 546.393 L 1325.54 546.731 L 1324.53 543.483 C 1321.87 544.599 1315.88 547.523 1313.37 549.247 C 1309.96 551.593 1316.5 549.901 1311.16 553.734 C 1306.77 551.978 1304.4 551.141 1299.84 549.95 C 1301.94 552.127 1302.48 552.2 1303.2 555.022 L 1301.88 556.835 C 1256.84 573.405 1201.49 545.738 1201.19 494.023 C 1200.91 447.04 1232.25 401.841 1262.96 368.551 z"/>
<path transform="translate(0,0)" fill="rgb(255,255,255)" d="M 1269.34 393.642 C 1284.93 422.641 1293.49 436.053 1287.24 470.974 C 1285.83 478.858 1282.01 487.284 1282.33 494.802 C 1282.77 505.158 1293.4 510.764 1294.79 520.572 C 1296.42 531.979 1292.96 540.02 1299.84 549.95 C 1266.06 556.265 1230.55 542.987 1223.84 505.653 C 1218.04 473.434 1234.96 444.131 1251.25 417.695 C 1256.7 410.317 1263.54 400.476 1269.34 393.642 z"/>
<path transform="translate(0,0)" fill="rgb(255,255,255)" d="M 1497.51 122.39 C 1498.2 122.312 1498.88 122.242 1499.57 122.18 C 1532.01 119.302 1554.98 126.689 1579.53 147.354 C 1544.23 135.753 1506.17 135.578 1470.77 146.855 C 1413.25 165.546 1373.09 218.946 1335.46 263.633 C 1314.9 288.049 1292.6 315.497 1281.88 344.971 C 1272.29 371.338 1295.94 398.902 1303.46 421.418 C 1311.27 447.304 1305.23 474.524 1287.67 494.815 C 1300.05 458.503 1305.17 437.967 1286.03 402.614 C 1280.93 393.198 1276.53 381.575 1275.53 370.73 C 1272.12 333.743 1292.61 307.862 1312.75 279.483 C 1326.05 260.741 1339.4 244.475 1353.69 226.756 C 1391.7 179.621 1432.79 129.004 1497.51 122.39 z"/>
<path transform="translate(0,0)" fill="rgb(255,255,255)" d="M 1563.2 152.37 C 1574.82 153.042 1578.14 154.527 1588.75 159.069 C 1557.09 156.454 1534.14 163.419 1515.5 190.627 C 1512.88 195.017 1509.16 203.089 1506.59 208.04 C 1513.64 177.789 1530.35 155.578 1563.2 152.37 z"/>
<path transform="translate(0,0)" fill="rgb(255,255,255)" d="M 1602.91 173.151 C 1607.45 173.078 1605.56 172.37 1608.9 174.976 C 1610.16 178.849 1609.08 180.29 1607.58 184.392 L 1604.6 184.968 C 1602.06 183.828 1600.21 183.799 1597.54 183.171 C 1589.93 176.7 1595.88 174.517 1602.91 173.151 z"/>
<path transform="translate(0,0)" fill="rgb(255,255,255)" d="M 1604.7 142.748 C 1605.92 148.698 1603.09 153.485 1597.57 155.662 C 1594.57 149.378 1600.33 146.172 1604.7 142.748 z"/>
</svg>