<svg version="1.1" xmlns="http://www.w3.org/2000/svg" style="display: block;" viewBox="0 0 2048 1152" width="1820" height="1024" preserveAspectRatio="none">
<path transform="translate(0,0)" fill="rgb(255,255,255)" d="M 0 0 L 2048 0 L 2048 1152 L 0 1152 L 0 0 z"/>
<path transform="translate(0,0)" fill="rgb(30,26,51)" d="M 1372.15 68.2202 C 1379.1 68.0149 1466.64 110.953 1481.04 115.656 C 1510.09 125.138 1506.67 163.324 1505.87 188.598 C 1504.85 222.073 1503.13 255.523 1500.71 288.926 C 1581.49 265.774 1663.01 244.187 1747.78 246.728 C 1777.76 247.627 1810.58 250.856 1837.39 265.654 C 1849.26 272.886 1860.44 281.443 1874.03 285.274 C 1885.12 288.135 1897.96 289.729 1909.21 291.472 C 1993.82 304.576 1993.46 374.196 1936.66 423.918 C 1910 447.258 1885.71 463.085 1853.09 479.625 C 1812.67 500.123 1771.26 512.012 1728.71 527.185 C 1683.77 543.202 1638.65 558.716 1593.36 573.723 C 1552.17 587.362 1512.83 596.8 1475.94 619.908 C 1464.45 627.103 1446.44 634.815 1433.92 640.786 C 1477.63 666.635 1498.21 720.1 1498.9 768.859 C 1499.49 811.343 1480.07 822.927 1445.48 838.191 C 1386.59 864.176 1326.41 870.865 1263.19 868.787 C 1253.02 860.228 1247.93 851.945 1240.68 840.872 C 1215.85 841.889 1192.63 842.294 1167.75 840.92 C 1160.79 840.536 1150.12 841.163 1143.88 839.388 C 1139.27 835.732 1134.77 818.252 1132.27 811.311 C 1112.75 814.116 1100.84 812.528 1081.87 807.358 C 1034.14 839.315 989.01 869.946 940.157 900.3 C 884.351 934.562 827.565 967.201 769.871 998.177 C 707.46 1031.88 653.368 1065.82 580.462 1067.19 C 559.217 1045.11 533.543 1021.58 513.387 999.18 L 551.563 989.915 C 579.054 999.213 606.109 1011.57 633.565 1020.47 C 700.822 977.713 766.546 932.592 830.615 885.191 C 880.365 848.689 927.602 813.609 974.698 773.458 C 958.136 779.241 940.506 783.878 923.499 788.123 C 774.55 826.581 615.303 838.424 461.679 834.989 C 421.949 833.843 382.239 832.087 342.563 829.722 C 333.511 829.202 305.574 825.023 299.408 826.44 C 276.375 831.731 245.668 839.842 223.161 845.957 L 73.5108 885.773 C 78.5077 876.269 85.3493 865.96 91.2751 856.909 C 128.5 841.707 169.053 825.29 205.829 809.349 C 200.635 796.44 198.15 783.096 204.122 769.934 C 215.34 745.21 259.807 732.701 284.307 723.122 L 78.0946 336.04 C 96.3019 329.722 114.589 323.636 132.952 317.785 C 200.602 295.838 200.194 303.43 253.585 346.436 L 319.969 399.338 L 520.35 558.829 L 626.031 565.485 C 644.04 566.639 668.323 568.505 685.994 567.475 C 691.948 567.127 715.965 557.391 723.514 554.846 C 764.889 540.822 806.169 526.522 847.352 511.945 L 1288.34 359.721 C 1292.88 349.16 1307.15 327.715 1313.77 316.811 L 1297.43 323.362 C 1291.13 319.607 1286.68 316.466 1280.75 312.175 C 1295.68 308.184 1310.42 303.499 1324.92 298.135 C 1336.6 279.462 1353.98 246.696 1363.53 226.493 L 1343.64 231.954 L 1326.92 221.757 C 1345.58 216.225 1353.92 215.026 1372.97 206.789 C 1380.41 193.727 1393.46 159.741 1399.87 144.197 C 1394.49 139.431 1385.82 128.954 1380.73 123.394 C 1366.43 107.77 1352.69 91.2258 1337.84 76.1214 C 1349.13 73.7662 1360.87 70.8435 1372.15 68.2202 z"/>
<path transform="translate(0,0)" fill="rgb(255,255,255)" d="M 604.34 613.776 C 606.058 612.824 609.411 611.61 611.303 610.903 C 673.787 587.56 737.087 565.946 800.005 543.895 C 917.915 502.16 1036.07 461.134 1154.48 420.82 C 1212.28 400.955 1270.08 381.965 1328.01 361.734 C 1450.46 318.974 1577.44 271.799 1707.76 261.787 C 1740.07 259.304 1789.54 260.909 1819.53 273.976 C 1808.4 279.174 1788.55 286.169 1776.68 290.758 C 1787.2 301.856 1793.19 311.14 1805.85 321.434 C 1817.2 319.891 1864.37 310.73 1869.07 301.818 L 1869.8 300.35 L 1870.79 300.606 C 1896.59 307.085 1941.13 304.214 1955.97 330.992 C 1982.29 378.457 1910.78 428.399 1879.77 447.587 C 1828.2 479.504 1774.72 495.247 1719.37 514.906 C 1650.5 539.057 1581.33 562.314 1511.86 584.671 C 1469.53 505.086 1371.42 542.196 1305.7 562.331 C 1276.02 571.57 1246.49 581.311 1217.14 591.551 C 1154.04 612.899 1090.95 635.528 1032.11 667.022 C 1009.82 678.956 989.061 692.722 969.441 708.727 C 961.053 715.57 950.249 726.842 956.34 738.721 C 961.236 747.702 973.865 752.11 983.005 755.778 C 837.908 802.478 682.656 820.106 530.646 821.316 C 467.129 821.822 402.62 820.511 339.409 814.132 C 360.948 808.11 382.456 801.976 403.933 795.732 C 416.849 792.026 433.739 788.55 444.977 782.404 C 466.483 770.642 465.805 739.725 443.536 728.91 C 433.257 723.917 425.441 724.237 414.864 728.037 C 395.438 734.989 376.43 743.334 357.148 750.712 C 311.54 767.882 266.101 785.497 220.837 803.554 C 212.92 789.549 213.305 770.37 229.133 762.024 C 245.077 753.617 264.609 747.095 281.574 740.402 L 363.126 707.578 L 461.445 668.307 C 475.252 662.841 494.838 654.265 508.503 650.071 L 532.238 641.135 L 604.34 613.776 z"/>
<path transform="translate(0,0)" fill="rgb(205,107,79)" d="M 532.238 641.135 L 604.34 613.776 C 599.338 618.906 541.247 643.367 530.975 647.348 L 532.238 641.135 z"/>
<path transform="translate(0,0)" fill="rgb(184,48,50)" d="M 508.503 650.071 L 532.238 641.135 L 530.975 647.348 C 524.282 650.036 516.73 654.868 510.216 651.106 L 509.622 650.768 C 509.249 650.536 508.876 650.303 508.503 650.071 z"/>
<path transform="translate(0,0)" fill="rgb(30,26,51)" d="M 609.712 632.166 C 616.677 631.628 624.564 633.396 626.337 641.295 C 629.661 656.101 630.779 671.275 634.747 686.025 C 642.568 715.098 651.906 743.348 662.469 771.507 C 663.298 774.454 665.387 782.762 662.985 785.251 C 651.85 796.794 618.457 805.373 603.563 808.419 C 598.608 807.871 596.902 807.246 592.308 805.46 C 583.335 801.971 575.064 773.337 572.041 764.005 C 566.171 745.886 547.901 687.467 547.369 671.482 C 547.253 667.127 548.259 662.815 550.291 658.962 C 557.218 645.579 593.679 637.388 609.712 632.166 z"/>
<path transform="translate(0,0)" fill="rgb(255,255,255)" d="M 612.02 640.126 C 612.953 640.039 615.066 640.14 616.104 640.157 C 620.491 643.827 623.951 671.138 625.549 678.425 C 629.719 697.2 634.858 715.747 640.944 733.992 C 643.54 741.607 657.18 776.051 655.636 781.836 C 648.979 788.475 612.555 798.894 602.519 801.014 C 600.403 800.551 598.091 800.104 596.173 799.07 C 587.56 794.433 573.889 746.521 570.512 735.297 C 566.38 721.558 550.218 672.645 557.174 661.486 C 562.722 652.586 600.844 643.429 612.02 640.126 z"/>
<path transform="translate(0,0)" fill="rgb(30,26,51)" d="M 1622.47 305.024 C 1639.8 303.03 1638.02 322.756 1639.63 334.236 C 1645.21 374.502 1660.66 410.569 1674.66 448.107 C 1680.09 462.666 1621.46 475.289 1613.23 476.782 C 1609.98 477.175 1605.08 477.801 1602.02 476.514 C 1595.98 473.978 1591.55 458.678 1589.42 452.847 C 1582.14 432.966 1553.9 343.86 1562.72 327.813 C 1566.84 320.317 1612.01 308.443 1622.47 305.024 z"/>
<path transform="translate(0,0)" fill="rgb(255,255,255)" d="M 1623.91 312.065 L 1626.05 312.232 C 1629.79 314.929 1629.86 315.974 1630.31 320.636 C 1634.82 366.546 1649.84 407.259 1668.01 449.329 C 1654.03 460.735 1628.61 466.602 1611.24 469.738 C 1608.81 470.022 1608.6 469.927 1606.17 469.423 C 1592.15 456.71 1569.13 353.926 1567.35 331.576 C 1578.9 325.882 1609.99 316.563 1623.91 312.065 z"/>
<path transform="translate(0,0)" fill="rgb(30,26,51)" d="M 1604.11 385.506 C 1605.73 384.409 1607.83 384.294 1609.56 385.205 C 1611.3 386.116 1612.4 387.907 1612.42 389.868 C 1612.44 391.828 1611.38 393.641 1609.66 394.588 C 1607.17 395.964 1604.03 395.133 1602.54 392.702 C 1601.06 390.271 1601.75 387.1 1604.11 385.506 z"/>
<path transform="translate(0,0)" fill="rgb(30,26,51)" d="M 1159.89 489.181 C 1180.64 488.136 1185.17 502.803 1190.09 520.173 C 1194.68 536.365 1207.16 560.653 1201.19 576.589 C 1198.53 583.711 1169.08 591.281 1161.56 593.619 C 1152.44 594.834 1149.37 593.297 1141.65 588.76 C 1136.02 579.886 1118.83 526.463 1116.5 514.936 C 1121.95 495.025 1142.05 494.785 1159.89 489.181 z"/>
<path transform="translate(0,0)" fill="rgb(255,255,255)" d="M 1160.92 497.063 C 1169.52 495.734 1176.01 502.28 1177.78 509.507 C 1181.16 523.279 1198.45 561.212 1193.92 573.241 C 1188.12 578.086 1167.37 583.582 1159.22 586.07 C 1145.63 589.707 1142.25 571.346 1139.34 561.745 C 1135.03 547.232 1129.33 532.453 1125.48 517.917 C 1121.88 504.313 1151.24 500.1 1160.92 497.063 z"/>
<path transform="translate(0,0)" fill="rgb(30,26,51)" d="M 1163.61 516.985 L 1165.27 517.536 C 1168.3 521.171 1174.46 538.285 1172.52 542.812 C 1170.79 546.858 1158.85 549.237 1154.24 550.457 C 1147.95 547.293 1143.33 532.612 1144.29 525.97 C 1147.56 520.992 1157.67 518.846 1163.61 516.985 z"/>
<path transform="translate(0,0)" fill="rgb(30,26,51)" d="M 1736.75 305.947 C 1739.04 309.151 1745.37 356.717 1746.39 364.097 C 1737.83 368.6 1721.23 374.425 1711.67 378.086 C 1710.43 377.367 1707.05 375.448 1706.63 374.009 C 1703.36 362.771 1701.11 332.358 1703.8 321.825 C 1705 317.077 1730.8 308.495 1736.75 305.947 z"/>
<path transform="translate(0,0)" fill="rgb(30,26,51)" d="M 1772.33 292.89 C 1775.77 293.579 1795.62 319.512 1798.56 324.203 C 1790.61 338.425 1780.3 347.086 1766.45 355.043 L 1751.79 361.883 C 1749.06 344.195 1746.06 321.095 1744.61 303.497 L 1772.33 292.89 z"/>
<path transform="translate(0,0)" fill="rgb(184,48,50)" d="M 1837.51 351.22 L 1837.01 363.85 C 1823.53 369.232 1809.66 372.001 1796.65 377.445 C 1786.27 381.792 1782.94 388.815 1779.46 398.599 C 1793.27 394.591 1806.87 389.889 1820.21 384.51 C 1820.54 387.628 1821.53 392.013 1820.13 394.463 C 1802.11 400.745 1784.78 405.834 1766.4 412.515 C 1764.59 375.977 1775.17 371.198 1808.8 360.933 C 1818.07 358.105 1828.37 354.577 1837.51 351.22 z"/>
<path transform="translate(0,0)" fill="rgb(30,26,51)" d="M 1812.84 401.123 C 1817.39 405.939 1815.41 423.746 1814.71 430.605 C 1807.21 437.425 1775.06 451.875 1766.29 452.254 L 1765.04 450.503 C 1764.82 446.731 1766.86 442.591 1768.29 438.977 L 1782.76 433.569 C 1789.1 431.604 1804.41 427.922 1801.32 418.051 C 1793.69 414.147 1774.91 427.313 1768.1 421.215 C 1767.25 413.389 1778.85 412.678 1784.82 410.834 C 1794.29 407.993 1803.64 404.753 1812.84 401.123 z"/>
<path transform="translate(0,0)" fill="rgb(30,26,51)" d="M 880.044 611.106 L 883.418 611.019 C 886.151 612.441 890.973 620.658 891.924 623.899 C 895.794 637.098 885.007 639.089 877.235 641.303 C 875.249 641.845 875.068 641.57 873.135 640.891 C 867.458 635.418 861.924 620.428 869.308 614.762 C 871.091 613.393 877.647 611.743 880.044 611.106 z"/>
<path transform="translate(0,0)" fill="rgb(30,26,51)" d="M 990.373 573.998 C 992.315 573.776 992.981 574.025 994.846 574.417 C 997.125 576.702 997.637 578.488 998.782 581.281 C 1006.17 599.291 1001.47 599.828 986.343 604.686 C 985.281 604.738 984.154 604.284 983.072 603.975 C 979.058 600.325 973.62 585.357 976.173 579.752 C 979.723 576.966 985.911 575.42 990.373 573.998 z"/>
<path transform="translate(0,0)" fill="rgb(30,26,51)" d="M 955.285 585.997 L 958.329 586.332 C 962.362 590.227 965.248 605.222 966.749 611.4 C 961.674 613.867 955.675 615.613 950.264 617.371 C 942.96 615.552 939.155 601.036 939.312 594.385 C 942.141 588.975 949.117 587.94 955.285 585.997 z"/>
<path transform="translate(0,0)" fill="rgb(30,26,51)" d="M 1396.11 438.941 L 1399.16 439.616 C 1403.39 443.351 1409.21 458.257 1406.42 463.972 C 1402.64 467.043 1396.38 468.526 1391.59 470.022 L 1389.03 469.742 C 1384.17 466.857 1379.22 451.452 1381.32 445.664 C 1384.19 442.877 1392.03 440.466 1396.11 438.941 z"/>
<path transform="translate(0,0)" fill="rgb(30,26,51)" d="M 915.75 598.999 C 924.054 598.101 925.526 604.484 928.132 611.827 C 932.942 625.381 924.698 626.055 914.462 628.962 C 913.009 629.227 911.976 628.787 910.539 628.395 C 908.376 626.276 904.372 619.416 903.595 616.355 C 900.406 603.796 907.245 601.881 915.75 598.999 z"/>
<path transform="translate(0,0)" fill="rgb(30,26,51)" d="M 1220.12 497.134 C 1225.39 500.251 1228.23 515.195 1229.86 521.333 C 1223.55 525.283 1218.25 526.562 1211.23 528.443 C 1205.79 526.657 1202.64 508.887 1201.42 503.594 C 1207 500.739 1214.01 498.419 1220.12 497.134 z"/>
<path transform="translate(0,0)" fill="rgb(30,26,51)" d="M 1060.8 550.123 C 1063.61 549.817 1064.08 549.746 1066.82 550.386 C 1072.03 554.262 1076.8 567.695 1074.22 574.47 C 1071.45 577.184 1065.68 578.553 1061.77 579.801 C 1060.04 579.991 1058.86 579.809 1057.13 579.688 C 1054.93 578.214 1050.6 571.311 1049.81 568.594 C 1046.08 555.691 1051.78 553.466 1060.8 550.123 z"/>
<path transform="translate(0,0)" fill="rgb(30,26,51)" d="M 1362.08 451.094 C 1367.04 452.323 1371.67 469.715 1371.89 474.606 C 1369.04 479.399 1360.9 480.726 1355.26 482.341 C 1349.89 481.088 1343.19 462.268 1346.18 456.757 C 1350.39 453.854 1357 452.484 1362.08 451.094 z"/>
<path transform="translate(0,0)" fill="rgb(30,26,51)" d="M 1465.41 415.97 C 1468.1 415.544 1468.2 415.571 1470.87 416.272 C 1475.59 420.028 1480.8 433.889 1478.24 440.094 C 1475.28 443.03 1469.45 444.364 1465.3 445.685 C 1464.83 445.785 1461.72 445.823 1461.03 445.842 C 1456.51 442.98 1451.06 427.04 1453.47 421.488 C 1456.39 418.593 1461.39 417.334 1465.41 415.97 z"/>
<path transform="translate(0,0)" fill="rgb(30,26,51)" d="M 1026.14 561.94 C 1027.56 561.94 1028.92 562.199 1030.34 562.398 C 1035.51 566.098 1038.04 579.616 1039.74 586.046 C 1035.44 588.179 1028.97 590.036 1024.27 591.552 C 1022.94 591.94 1021.51 591.841 1020.08 591.872 C 1015.41 588.77 1010.41 573.785 1012.75 568.252 C 1015.91 565.175 1021.83 563.509 1026.14 561.94 z"/>
<path transform="translate(0,0)" fill="rgb(30,26,51)" d="M 846.296 622.026 C 851.585 623.014 857.291 642.161 855.308 647.276 C 851.948 650.15 844.73 652.058 840.28 653.537 C 832.945 651.34 829.794 636.633 830.118 629.855 C 833.007 624.875 840.522 623.701 846.296 622.026 z"/>
<path transform="translate(0,0)" fill="rgb(30,26,51)" d="M 737.313 658.123 L 739.894 658.602 C 744.021 661.906 749.274 678.412 746.709 683.635 C 743.034 686.55 736.897 687.897 732.247 689.264 L 729.993 688.772 C 725.264 684.866 722.456 670.295 720.868 664.041 C 727.108 660.712 730.631 659.891 737.313 658.123 z"/>
<path transform="translate(0,0)" fill="rgb(30,26,51)" d="M 1323.45 463.048 L 1327.38 463.198 C 1331.65 466.526 1337.41 481.468 1334.95 487.03 C 1331.65 490.181 1326.25 491.49 1321.82 492.966 L 1317.59 492.816 C 1313.23 489.312 1307.3 474.261 1310.16 468.673 C 1313.51 465.621 1319 464.416 1323.45 463.048 z"/>
<path transform="translate(0,0)" fill="rgb(30,26,51)" d="M 769.593 647.12 C 772.409 646.837 773.038 646.91 775.845 647.327 C 780.694 650.86 786.134 665.006 783.1 671.217 C 780.271 674.005 775.175 675.073 771.232 676.257 C 767.501 676.807 768.826 677.048 765.68 675.868 C 760.309 669.664 755.779 660.901 759.385 652.892 C 760.95 649.414 766.218 648.276 769.593 647.12 z"/>
<path transform="translate(0,0)" fill="rgb(30,26,51)" d="M 1097.08 538.066 C 1098.28 537.983 1101.26 537.536 1101.96 538.145 C 1107.83 543.279 1113.47 553.169 1109.53 560.976 C 1107.2 565.604 1101.87 566.375 1097.83 567.635 L 1093.52 567.822 C 1088.47 564.818 1085.32 551.209 1083.14 544.819 C 1087.22 542.123 1092.54 540.038 1097.08 538.066 z"/>
<path transform="translate(0,0)" fill="rgb(30,26,51)" d="M 1433.19 427.104 C 1438.4 428.132 1442.8 445.825 1442.94 450.558 C 1439.89 455.332 1431.99 456.366 1426.25 457.844 C 1421.15 456.698 1416.07 439.103 1416.3 434.581 C 1419.59 430.186 1427.85 428.558 1433.19 427.104 z"/>
<path transform="translate(0,0)" fill="rgb(30,26,51)" d="M 699.069 670.957 L 703.38 671.111 C 706.112 673.147 708.235 678.188 709.684 681.396 C 716.366 696.199 711.364 696.757 699.449 700.604 C 696.866 701.131 696.749 701.079 694.122 700.561 C 689.979 697.332 684.561 682.898 686.619 677.628 C 687.908 674.329 695.804 672.114 699.069 670.957 z"/>
<path transform="translate(0,0)" fill="rgb(30,26,51)" d="M 1288.91 475.053 C 1290.33 474.647 1291.38 475.061 1292.84 475.395 C 1295.32 477.739 1296.01 480.071 1297.14 483.181 C 1303.66 501.072 1298.98 500.936 1284.23 505.141 C 1278.5 504.891 1272.62 486.666 1274.22 481.066 C 1277.03 478.501 1284.95 476.37 1288.91 475.053 z"/>
<path transform="translate(0,0)" fill="rgb(30,26,51)" d="M 1251.78 487.07 C 1254.33 486.637 1254.44 486.579 1256.82 487.426 C 1261.15 491.613 1266.29 505.352 1263.35 511.318 C 1259.98 514.102 1254.56 515.065 1250.22 516.205 C 1248.32 517.021 1248.29 516.869 1246.32 516.509 C 1241.52 512.537 1238.86 498.876 1237.18 492.58 C 1241.22 490.554 1247.38 488.609 1251.78 487.07 z"/>
<path transform="translate(0,0)" fill="rgb(30,26,51)" d="M 807.173 635.009 C 816.577 634.43 824.43 654.325 816.877 660.44 C 815.47 661.58 809.234 663.325 807.249 663.907 C 804.641 664.784 804.546 664.849 801.942 664.231 C 796.305 659.494 794.771 647.673 793.134 640.362 C 798.302 637.785 801.748 636.747 807.173 635.009 z"/>
<path transform="translate(0,0)" fill="rgb(30,26,51)" d="M 1504.01 403.04 L 1506.02 403.366 C 1510.13 406.7 1515.69 422.581 1513.25 427.541 C 1509.47 430.473 1502.99 432.137 1498.28 433.667 L 1495.6 432.931 C 1492.76 430.718 1491.95 427.042 1490.71 423.808 C 1484.42 407.345 1490.62 407.192 1504.01 403.04 z"/>
<path transform="translate(0,0)" fill="rgb(30,26,51)" d="M 1538.07 391.003 L 1541.39 391.306 C 1546.14 394.744 1548.59 409.474 1550 415.47 C 1545.19 417.456 1539.2 419.44 1534.23 421.236 L 1531.99 420.914 C 1527.6 417.973 1522.03 402.132 1524.45 396.723 C 1527.76 394.031 1533.84 392.415 1538.07 391.003 z"/>
<path transform="translate(0,0)" fill="rgb(247,180,92)" d="M 1820.21 384.51 C 1824.43 382.899 1829.04 381.022 1833.26 379.565 C 1833.25 394.355 1832.37 408.908 1832.3 423.397 C 1828.65 424.918 1824.99 426.488 1821.27 427.825 C 1821.35 422.736 1822.67 396.205 1820.13 394.463 C 1821.53 392.013 1820.54 387.628 1820.21 384.51 z"/>
<path transform="translate(0,0)" fill="rgb(184,48,50)" d="M 132.035 333.491 C 191.408 314.103 186.233 311.589 235.108 350.018 L 285.91 390.199 L 470.621 536.949 C 480.127 544.383 510.665 571.11 518.41 572.22 C 563.577 578.696 619.558 578.264 664.577 582.387 C 639.779 593.002 612.565 600.082 589.386 609.995 C 561.184 621.629 528.097 633.71 499.065 644.171 C 493.583 646.845 489.601 648.77 483.792 650.864 C 458.678 659.893 433.498 670.258 408.343 679.564 C 403.694 681.641 398.645 683.488 393.873 685.327 C 347.724 655.608 302.638 623.408 256.678 593.328 C 242.473 584.031 227.366 574.018 214.624 562.883 C 212.138 560.71 207.705 550.565 206.104 547.161 C 187.039 512.747 167.493 473.556 149.193 438.341 C 145.892 433.761 140.198 421.845 137.385 416.301 C 135.01 412.971 127.976 398.925 125.635 394.512 L 99.4833 345.036 C 110.283 341.048 121.135 337.199 132.035 333.491 z"/>
<path transform="translate(0,0)" fill="rgb(247,180,92)" d="M 149.193 438.341 C 164.832 446.749 182.485 459.394 197.409 469.39 C 226.186 488.665 254.323 508.819 283.532 527.495 C 316.366 548.754 349.485 569.569 382.881 589.934 C 414.937 609.119 452.981 630.305 483.792 650.864 C 458.678 659.893 433.498 670.258 408.343 679.564 C 403.694 681.641 398.645 683.488 393.873 685.327 C 347.724 655.608 302.638 623.408 256.678 593.328 C 242.473 584.031 227.366 574.018 214.624 562.883 C 212.138 560.71 207.705 550.565 206.104 547.161 C 187.039 512.747 167.493 473.556 149.193 438.341 z"/>
<path transform="translate(0,0)" fill="rgb(255,255,255)" d="M 206.104 547.161 C 219.742 548.848 354.093 649.243 379.863 661.721 C 382.208 662.857 406.785 678.231 408.343 679.564 C 403.694 681.641 398.645 683.488 393.873 685.327 C 347.724 655.608 302.638 623.408 256.678 593.328 C 242.473 584.031 227.366 574.018 214.624 562.883 C 212.138 560.71 207.705 550.565 206.104 547.161 z"/>
<path transform="translate(0,0)" fill="rgb(255,255,255)" d="M 132.035 333.491 C 191.408 314.103 186.233 311.589 235.108 350.018 L 285.91 390.199 L 470.621 536.949 C 480.127 544.383 510.665 571.11 518.41 572.22 C 563.577 578.696 619.558 578.264 664.577 582.387 C 639.779 593.002 612.565 600.082 589.386 609.995 C 581.077 605.496 572.629 601.162 563.982 597.483 C 427.82 539.548 302.788 460.046 183.598 372.962 C 166.196 360.247 149.373 346.509 132.035 333.491 z"/>
<path transform="translate(0,0)" fill="rgb(255,255,255)" d="M 137.385 416.301 C 146.153 418.784 216.203 469.062 229.815 478.272 C 263.952 501.418 298.471 523.997 333.356 546 C 370.56 569.109 408.096 591.681 445.95 613.708 C 457.309 620.325 468.725 626.845 480.196 633.267 C 483.938 635.363 496.028 641.785 499.065 644.171 C 493.583 646.845 489.601 648.77 483.792 650.864 C 452.981 630.305 414.937 609.119 382.881 589.934 C 349.485 569.569 316.366 548.754 283.532 527.495 C 254.323 508.819 226.186 488.665 197.409 469.39 C 182.485 459.394 164.832 446.749 149.193 438.341 C 145.892 433.761 140.198 421.845 137.385 416.301 z"/>
<path transform="translate(0,0)" fill="rgb(255,255,255)" d="M 1361.3 567.38 C 1366.54 566.791 1376.23 564.384 1378.66 569.705 C 1376.36 577.62 1313.4 623.124 1303.48 630.579 C 1222.97 692.364 1140.4 751.417 1055.9 807.637 C 1001.24 844.914 945.552 880.677 888.915 914.885 C 841.721 942.72 793.897 969.471 745.479 995.119 C 723.356 1006.74 689.333 1022.28 669.425 1034.1 C 666.716 1034.61 653.812 1028.92 650.221 1027.5 C 661.385 1019.36 677.281 1009.85 689.177 1001.97 C 710.8 987.371 732.346 972.661 753.814 957.838 C 820.425 912.046 898.031 855.313 960.557 803.934 C 992.056 778.494 1022.2 751.419 1050.86 722.821 C 1060.53 713.063 1090.26 675.205 1097.75 671.167 C 1172.24 631.049 1278.22 576.492 1361.3 567.38 z"/>
<path transform="translate(0,0)" fill="rgb(255,255,255)" d="M 1402.42 653.16 L 1403.26 653.246 L 1403.75 654.307 C 1376.51 691.605 1410.58 797.062 1455.78 817.114 C 1399 848.027 1331.79 855.297 1268.3 855.118 C 1236.14 813.924 1230.72 781.757 1235.17 730.247 C 1268.23 711.877 1306.24 693.796 1341.79 681.208 C 1348.25 678.92 1361.84 679.787 1363.74 673.058 C 1359.2 666.007 1354.51 668.494 1347.75 670.658 C 1306.78 686.177 1269.44 703.575 1230.62 723.669 C 1226.23 725.941 1219.4 724.89 1215.82 728.46 C 1214.82 738.911 1228.87 741.483 1206.76 752.083 C 1196.62 756.944 1184.3 762.618 1174.89 768.758 C 1171.87 770.727 1174.3 776.651 1174.27 780.016 C 1170.29 785.812 1131.35 798.875 1122.66 798.521 C 1114.53 798.19 1106.07 797.662 1097.87 796.483 C 1140.09 769.067 1180.33 739.601 1221.58 710.689 C 1228.97 706.352 1262.41 677.809 1268.11 677.315 C 1315.83 673.175 1356.2 665.314 1402.42 653.16 z"/>
<path transform="translate(0,0)" fill="rgb(30,26,51)" d="M 1383.3 774.14 L 1387 773.705 C 1389.97 775.02 1389.11 774.15 1390.42 776.851 L 1389.52 778.792 C 1382.79 784.291 1343.53 792.404 1333.14 794.74 C 1329.28 795.328 1329.22 794.975 1326.68 792.681 L 1326.63 790.6 C 1330.38 786.572 1374.93 776.273 1383.3 774.14 z"/>
<path transform="translate(0,0)" fill="rgb(255,255,255)" d="M 1474.88 130.194 C 1482.9 128.412 1491.05 145.335 1491.47 151.728 C 1492.5 167.361 1491.22 183.766 1490.55 199.442 C 1489.43 230.535 1487.81 261.609 1485.7 292.65 C 1429.51 310.582 1378.25 328.65 1322.71 347.966 C 1319.03 349.073 1313.09 351.541 1309.32 352.965 C 1313.3 345.6 1320.55 334.55 1325.03 327.055 C 1335.86 309.078 1346.34 290.893 1356.47 272.511 C 1380.69 228.496 1396.43 191.878 1415.19 145.346 C 1433.98 140.008 1455.66 135.169 1474.88 130.194 z"/>
<path transform="translate(0,0)" fill="rgb(255,255,255)" d="M 1418.45 543.419 C 1451.2 540.151 1489.36 556.517 1503.87 587.265 C 1455.88 617.072 1397.45 643.003 1341.87 652.799 C 1326.54 656.122 1302.6 658.566 1285.56 661.511 C 1300.66 650.954 1393.71 584.167 1395.63 573.749 C 1396.32 569.984 1395.73 566.535 1393.53 563.375 C 1388.27 555.824 1376.65 554.189 1368.33 552.613 C 1387.15 546.854 1398.87 544.888 1418.45 543.419 z"/>
<path transform="translate(0,0)" fill="rgb(255,255,255)" d="M 1418.15 651.857 C 1467.28 654.552 1510.89 782.327 1468.98 811.353 C 1428.77 823.431 1374.18 680.291 1418.15 651.857 z"/>
<path transform="translate(0,0)" fill="rgb(30,26,51)" d="M 1423.9 658.764 C 1457.09 658.934 1501.44 773.474 1469.12 799.543 C 1438.17 806.955 1393.65 685.759 1423.9 658.764 z"/>
<path transform="translate(0,0)" fill="rgb(255,255,255)" d="M 423.966 740.098 C 433.786 739.327 442.908 741.593 445.673 752.415 C 446.758 756.603 446.118 761.05 443.897 764.762 C 442.179 767.632 438.749 771.122 435.635 772.071 C 410.519 779.731 383.716 786.753 358.509 793.714 C 296.515 811.093 234.353 827.866 172.032 844.032 C 164.985 845.743 156.126 847.244 148.888 848.673 C 179.712 835.414 212.102 823.01 243.321 810.647 C 303.336 786.623 363.554 763.106 423.966 740.098 z"/>
<path transform="translate(0,0)" fill="rgb(255,255,255)" d="M 1169.52 624.081 L 1170.3 624.211 C 1168.73 627.007 1083.67 667.268 1075.98 672.593 C 1068.19 677.993 1054.51 697.699 1047.08 705.395 C 1031.8 721.236 1015.61 737.027 998.751 751.041 C 989.671 749.403 981.932 746.579 973.356 743.331 C 969.548 741.601 964.986 738.776 963.344 734.706 C 962.352 732.246 962.661 729.763 963.789 727.415 C 973.834 706.515 1077.79 660.457 1102.69 649.868 C 1124.56 640.571 1147.1 631.938 1169.52 624.081 z"/>
<path transform="translate(0,0)" fill="rgb(255,255,255)" d="M 1216.19 755.869 L 1216.93 755.926 C 1219.66 758.009 1219.09 765.515 1219.34 769.257 C 1220.7 789.6 1225.43 807.608 1232.73 826.555 C 1210.64 827.926 1183.54 827.284 1161.55 826.138 C 1158.16 826.225 1155.92 826.496 1152.66 825.379 C 1149.86 823.097 1149.37 819.439 1148.3 815.752 C 1162.59 810.68 1177.38 803.985 1191.3 797.87 L 1183.39 772.727 C 1191.18 767.961 1207.45 760.286 1216.19 755.869 z"/>
<path transform="translate(0,0)" fill="rgb(255,255,255)" d="M 546.389 1004.65 C 557.222 1005.18 630.038 1035.5 646.716 1041.46 L 634.162 1045.59 C 619.326 1050.15 602.774 1052 587.384 1053.2 C 581.614 1047.11 544.022 1011.05 543.58 1007.14 L 546.389 1004.65 z"/>
<path transform="translate(0,0)" fill="rgb(255,255,255)" d="M 1369.74 82.7238 C 1372.61 83.2954 1392.8 92.254 1396.92 94.1498 C 1419.78 104.652 1444.81 114.684 1467.13 126.011 L 1451.8 129.824 L 1414.14 138.717 C 1402.1 127.032 1379.61 100.108 1366.94 86.0612 L 1367.09 84.6626 L 1369.74 82.7238 z"/>
<path transform="translate(0,0)" fill="rgb(255,255,255)" d="M 1811.19 285.76 C 1815.31 285.155 1815.14 284.454 1818.84 287.135 C 1822.65 289.903 1836.73 301.809 1837.61 305.784 L 1836.97 307.058 C 1834.51 306.69 1834.37 306.727 1832.53 305.168 L 1831.36 307.789 L 1827.31 308.462 L 1822.39 309.925 L 1820.97 310.207 C 1818.77 310.641 1816.57 311.025 1814.36 311.357 C 1810.07 312.273 1794.29 296.525 1793.35 292.274 C 1794.77 291.98 1796.17 291.983 1797.62 291.907 L 1801.19 290.783 L 1803.25 289.172 L 1808.57 287.131 L 1811.19 285.76 z"/>
<path transform="translate(0,0)" fill="rgb(58,53,74)" d="M 1797.62 291.907 L 1801.19 290.783 C 1805.32 294.27 1820.07 306.256 1822.39 309.925 L 1820.97 310.207 C 1818.77 310.641 1816.57 311.025 1814.36 311.357 C 1810.07 312.273 1794.29 296.525 1793.35 292.274 C 1794.77 291.98 1796.17 291.983 1797.62 291.907 z"/>
<path transform="translate(0,0)" fill="rgb(255,255,255)" d="M 1797.62 291.907 L 1801.19 290.783 C 1805.32 294.27 1820.07 306.256 1822.39 309.925 L 1820.97 310.207 C 1815.52 309.371 1801.82 296.156 1797.62 291.907 z"/>
<path transform="translate(0,0)" fill="rgb(255,255,255)" d="M 1793.35 292.274 C 1796.27 294.053 1812.83 308.911 1814.36 311.357 C 1810.07 312.273 1794.29 296.525 1793.35 292.274 z"/>
<path transform="translate(0,0)" fill="rgb(255,255,255)" d="M 1811.19 285.76 C 1815.31 285.155 1815.14 284.454 1818.84 287.135 C 1822.65 289.903 1836.73 301.809 1837.61 305.784 L 1836.97 307.058 C 1834.51 306.69 1834.37 306.727 1832.53 305.168 C 1827.36 299.879 1817.26 291.467 1811.19 285.76 z"/>
<path transform="translate(0,0)" fill="rgb(58,53,74)" d="M 1801.19 290.783 L 1803.25 289.172 C 1810.67 295.593 1819.11 303.031 1827.31 308.462 L 1822.39 309.925 C 1820.07 306.256 1805.32 294.27 1801.19 290.783 z"/>
<path transform="translate(0,0)" fill="rgb(58,53,74)" d="M 1808.57 287.131 L 1811.19 285.76 C 1817.26 291.467 1827.36 299.879 1832.53 305.168 L 1831.36 307.789 C 1827.68 303.471 1813.24 291.254 1808.57 287.131 z"/>
<path transform="translate(0,0)" fill="rgb(255,255,255)" d="M 1869.07 301.818 C 1852.93 297.18 1841.8 291.909 1829.38 280.091 L 1829.59 279.312 C 1835.19 281.304 1843.7 287.141 1849.21 290.366 C 1856.8 294.806 1861.64 297.016 1869.8 300.35 L 1869.07 301.818 z"/>
<path transform="translate(0,0)" fill="rgb(255,255,255)" d="M 1819.92 283.622 C 1824.1 285.285 1833.1 294.179 1838.12 296.859 C 1841.92 298.891 1845.29 299.475 1848.27 301.904 L 1846.45 301.934 C 1845.5 303.448 1845.05 303.476 1843.46 304.304 C 1836.64 302.288 1823.34 289.689 1819.92 283.622 z"/>
</svg>