<svg version="1.1" xmlns="http://www.w3.org/2000/svg" style="display: block;" viewBox="0 0 2048 2048" width="1024" height="1024" preserveAspectRatio="none">
<defs>
	<linearGradient id="Gradient1" gradientUnits="userSpaceOnUse" x1="1200.58" y1="1123.44" x2="1144.42" y2="1089.56">
		<stop class="stop0" offset="0" stop-opacity="1" stop-color="rgb(0,0,0)"/>
		<stop class="stop1" offset="1" stop-opacity="1" stop-color="rgb(12,11,27)"/>
	</linearGradient>
</defs>
<path transform="translate(0,0)" fill="rgb(246,244,238)" d="M 0 0 L 2048 0 L 2048 2048 L 0 2048 L 0 0 z"/>
<path transform="translate(0,0)" fill="rgb(35,34,47)" d="M 196.161 978.367 C 169.153 926.547 138.782 876.286 113.652 823.482 C 105.435 806.216 110.873 791.48 132.074 795.621 C 144.429 797.947 159.721 800.555 170.714 806.691 C 177.196 811.417 183.583 819.089 188.417 825.265 C 213.897 857.82 239.961 889.836 264.851 922.831 C 266.13 924.504 268.878 928.291 270.212 929.605 C 282.029 944.765 298.021 967.42 310.308 981.027 L 383.122 1004.74 C 405.097 1011.95 427.21 1019.62 449.515 1025.64 C 445.924 1014.73 442.265 1005.19 438.086 994.52 C 478.223 999.589 472.473 997.359 502.682 1026.33 C 523.672 1017.7 545.036 1006.11 566.852 997.103 C 576.031 1000.28 591.109 1005.79 599.351 1010.15 C 594.87 1019.9 554.735 1077.71 546.809 1087 C 555.469 1094.15 585.376 1115.26 585.787 1124.6 C 580.876 1129.43 549.181 1126.35 543.218 1122.36 C 531.117 1114.27 519.718 1104.69 507.706 1096.24 C 483.351 1099.18 452.345 1100.31 427.488 1101 C 458.535 1132.29 491.63 1162.25 522.241 1194.09 C 536.188 1208.6 551.138 1222.19 564.367 1237.36 C 544.237 1248.49 508.156 1247.15 488.32 1235.47 C 472.996 1226.45 454.101 1209.09 439.872 1197.39 C 407.977 1171.31 376.399 1144.83 345.146 1117.98 C 332.46 1106.96 317.594 1093.16 303.959 1083.5 C 301.234 1081.57 282.953 1076.87 278.046 1075.14 C 254.563 1066.86 197.971 1048.58 183.96 1029.13 C 170.562 1046.49 161.086 1053.67 141.449 1064.49 C 152.319 1048.92 169.925 1037.14 180.055 1018.5 C 179.335 1011.26 179.974 1008.34 181.358 1001.48 C 166.711 990.531 149.966 982.195 134.703 970.4 C 155.758 976.752 166.443 983.075 184.673 994.576 C 187.733 989.055 191.725 982.844 196.161 978.367 z"/>
<path transform="translate(0,0)" fill="rgb(246,244,238)" d="M 298.851 1047 C 304.883 1046.69 311.106 1047.91 317.001 1049.11 C 330.594 1051.88 372.994 1061.98 382.544 1067.91 C 391.364 1073.38 541.197 1222.41 545.598 1229.01 C 536.877 1228.95 502.894 1225.9 496.998 1221.43 C 428.671 1169.65 365.38 1109.96 301.275 1053 C 298.753 1050.76 299.164 1049.95 298.851 1047 z"/>
<path transform="translate(0,0)" fill="rgb(246,244,238)" d="M 250.781 974.89 C 265.551 975.078 278.298 979.181 292.352 983.396 C 347.371 999.898 401.498 1019.09 456.27 1036.36 C 461.284 1037.94 466.57 1039.78 471.407 1041.79 C 465.304 1044.03 457.633 1046.62 451.953 1049.44 C 461.577 1057.74 470.859 1066.42 479.777 1075.47 C 449.675 1075.99 419.015 1074.32 390.066 1065.17 C 389.67 1065.05 387.296 1061.62 386.892 1061.02 C 371.592 1055.67 350.573 1050.07 334.302 1044.95 C 308.857 1036.94 282.317 1026.93 257.164 1019.43 C 259.663 1006.41 261.71 985.246 249.661 976.342 L 250.781 974.89 z"/>
<path transform="translate(0,0)" fill="rgb(246,244,238)" d="M 126.055 802.836 C 127.048 802.963 128.039 803.105 129.027 803.261 C 172.72 809.948 172.143 818.648 197.646 851.04 L 266.267 939.934 C 275.558 952.118 285.622 963.261 294.709 975.682 C 268.134 967.805 257.467 966.203 230.75 967.163 L 228.539 966.55 C 226.984 960.458 238.718 925.479 237.334 915.297 L 235.864 914.847 C 227.56 919.386 221.323 956.556 218.704 966.49 C 217.769 970.033 216.763 969.57 212.781 971.434 C 212.487 971.21 194.973 936.181 192.83 932.296 C 173.043 896.423 151.882 861.273 132.561 825.158 C 128.546 817.652 123.642 810.68 126.055 802.836 z"/>
<path transform="translate(0,0)" fill="rgb(246,244,238)" d="M 567.796 1004.16 L 568.504 1004.79 C 567.1 1007.4 487.685 1048.01 479.235 1052.02 C 517.021 1070.8 542.684 1093.27 574.747 1119.98 L 563.248 1119.12 C 544.844 1118.33 541.202 1110.69 526.717 1100.25 C 524.014 1098.3 518.1 1093.97 515.996 1091.92 C 506.842 1082.97 472.576 1060.66 466.174 1051.03 C 470.593 1047.5 473.002 1049.99 476.227 1048.36 C 504.715 1033.9 537.393 1013.63 567.796 1004.16 z"/>
<path transform="translate(0,0)" fill="rgb(246,244,238)" d="M 231.872 974.738 C 239.368 974.379 243.329 974.322 250.781 974.89 L 249.661 976.342 C 247.262 982.056 254.021 991.769 252.81 999.415 C 248.052 1029.46 229.679 1049.19 200.824 1031.2 C 208.623 1031.46 215.945 1031.93 222.589 1027.25 C 241.82 1013.69 243.64 993.126 231.872 974.738 z"/>
<path transform="translate(0,0)" fill="rgb(246,244,238)" d="M 452.385 1003.91 C 457.257 1004.92 466.468 1005.37 470.406 1007.28 C 476.005 1009.99 491.376 1025.1 493.211 1030.12 L 491.091 1031.86 L 480.17 1037.44 C 462.699 1028.5 462.005 1021.69 452.385 1003.91 z"/>
<path transform="translate(0,0)" fill="rgb(248,160,32)" d="M 622.732 1253.48 C 667.644 1252.6 713.673 1253.26 758.682 1253.2 L 1120.41 1253.5 C 1212.21 1252.87 1304 1252.91 1395.8 1253.63 C 1456.99 1254.25 1516.7 1254.21 1577.68 1260.09 C 1567.6 1263.62 1556.78 1264.59 1546.2 1265.72 C 1510.48 1269.41 1470.54 1268.83 1434.25 1269.09 C 1374.88 1269.56 1315.5 1269.61 1256.13 1269.25 L 828.011 1269.53 C 752.011 1269.54 669.652 1267.47 594.139 1269.77 C 602.597 1265.04 615.148 1254.19 622.732 1253.48 z"/>
<path transform="translate(0,0)" fill="rgb(35,34,47)" d="M 832.222 899.842 C 866.881 894.104 899.594 917.653 905.152 952.341 C 910.71 987.028 886.992 1019.62 852.275 1025 C 817.813 1030.33 785.513 1006.83 779.996 972.394 C 774.479 937.96 797.817 905.538 832.222 899.842 z"/>
<path transform="translate(0,0)" fill="rgb(246,244,238)" d="M 836.007 924.486 C 856.698 921.013 876.32 934.87 879.967 955.531 C 883.615 976.191 869.924 995.929 849.295 999.751 C 828.418 1003.62 808.391 989.728 804.7 968.819 C 801.008 947.91 815.068 928.001 836.007 924.486 z"/>
<path transform="translate(0,0)" fill="rgb(248,160,32)" d="M 467.576 689.4 C 468.498 689.311 469.422 689.238 470.347 689.179 C 497.466 687.676 524.08 696.951 544.392 714.982 C 563.318 731.584 579.52 759.797 581.27 785.06 C 648.606 782.999 682.233 845.779 660.376 905.699 C 660.168 874.989 657.475 853.014 636.566 828.971 C 598.989 785.762 552.116 806.451 516.669 837.291 C 527.186 815.787 543.054 802.108 564.207 791.522 C 563.899 789.67 563.556 787.823 563.179 785.983 C 552.51 732.372 509.94 699.497 455.144 710.717 C 422.309 721.279 401.36 741.18 389.669 773.63 C 401.353 781.851 408.456 789.455 417.268 800.499 C 406.813 793.095 396.886 788.114 385.263 783.035 C 353.107 768.982 318.948 786.261 307.018 818.659 C 327.274 819.622 345.212 828.284 361.639 839.654 C 314.438 826.662 282.275 835.377 246.806 868.006 C 250.799 846.554 269.491 827.543 288.8 818.616 C 301.002 778.121 332.208 752.948 375.371 762.738 C 391.662 720.256 421.572 694.141 467.576 689.4 z"/>
<path transform="translate(0,0)" fill="rgb(248,160,32)" d="M 1821.67 1068.39 C 1869.74 1063.93 1903.85 1102.41 1910.55 1147.33 C 1946.89 1161.76 1963.49 1193.48 1940.35 1228.51 C 1950.53 1195.69 1938.98 1166.95 1900.05 1164.1 C 1877.68 1162.47 1858.04 1178.71 1842.73 1193.62 C 1852.75 1166.52 1865.83 1155.52 1892.93 1147.38 C 1886.62 1115.79 1871.72 1096.54 1840.03 1088.14 C 1808.18 1083.77 1785.18 1094.86 1772.63 1125.18 C 1777.81 1144.24 1780.96 1152.31 1789.17 1170.28 C 1777.73 1158.39 1762.94 1132.3 1746.18 1132.27 C 1725.66 1132.23 1719.99 1150.54 1719.67 1166.39 C 1718.72 1164.82 1717.75 1163.26 1716.76 1161.7 C 1701.82 1138.38 1674.62 1140.49 1659.34 1162.49 C 1656.97 1165.9 1655.71 1170.8 1652.52 1173.07 C 1642.75 1156.68 1681.01 1118.92 1712.53 1135.9 C 1723.38 1116.98 1736.29 1111.25 1757.53 1110.94 C 1774.65 1086.15 1790.57 1071.78 1821.67 1068.39 z"/>
<path transform="translate(0,0)" fill="rgb(248,160,32)" d="M 220.754 1057.98 C 222.648 1059.92 211.641 1075.45 209.898 1078.49 C 198.757 1097.4 193.43 1126.14 202.079 1147.29 C 231.207 1221.35 336.544 1249.19 409.092 1254.38 C 453.3 1257.54 510.138 1260.66 554.419 1258.95 C 545.946 1262.63 543.442 1263.69 534.477 1265.52 C 469.051 1273.43 389.559 1272.21 324.783 1256.72 C 258.728 1240.92 162.085 1184.61 185.471 1102.45 C 190.808 1083.5 203.517 1067.49 220.754 1057.98 z"/>
<path transform="translate(0,0)" fill="rgb(35,34,47)" d="M 1699.11 896.442 C 1707.48 900.912 1757.81 961.91 1766.02 972.553 L 1765.93 899.177 L 1788.45 899.149 L 1788.41 1029.25 C 1788.35 1031.1 1788.6 1030.19 1787.53 1031.93 C 1777.8 1024.37 1733.97 970.298 1721.86 956.271 C 1722.34 978.886 1722.13 1002.35 1722.2 1025.03 L 1698.98 1025.03 C 1699.29 982.19 1698.55 939.26 1699.11 896.442 z"/>
<path transform="translate(0,0)" fill="rgb(35,34,47)" d="M 1028.04 897.078 C 1037.6 900.32 1083.85 957.591 1094.04 969.986 C 1094.02 946.367 1093.67 922.75 1093 899.14 L 1117.01 899.102 L 1116.79 1025.84 L 1116.23 1026.96 L 1114.93 1027.3 C 1097.34 1012.35 1066.4 973.605 1051.05 954.988 L 1051.18 1025.06 L 1028 1025.05 L 1028.04 897.078 z"/>
<path transform="translate(0,0)" fill="rgb(35,34,47)" d="M 1220.3 897.377 C 1228.31 901.517 1274.17 956.592 1283.13 966.978 L 1283.16 899.177 L 1306.68 899.219 C 1306.78 930.074 1306.72 960.929 1306.5 991.783 C 1306.44 999.11 1306.66 1024.03 1305.48 1030.22 C 1285.05 1009.51 1263.55 976 1242.81 955.811 L 1242.79 1025.15 L 1220.04 1025.22 C 1220.2 997.408 1220.17 969.593 1219.96 941.779 C 1219.91 929.943 1219.22 908.529 1220.3 897.377 z"/>
<path transform="translate(0,0)" fill="rgb(35,34,47)" d="M 919.727 896.316 C 929.222 901.296 973.872 955.885 983.359 967.806 C 983.175 944.941 983.138 922.075 983.247 899.21 L 1006.65 899.246 L 1006.45 984.043 C 1006.37 996.825 1006.71 1013.94 1005.81 1026.46 L 1004.19 1027.29 C 982.991 1004.37 962.913 977.734 941.153 954.118 C 940.917 977.743 941.493 1002.11 941.464 1025.88 L 919.052 1025.82 C 919.314 984.993 918.129 936.193 919.727 896.316 z"/>
<path transform="translate(0,0)" fill="rgb(35,34,47)" d="M 1327.29 899.059 L 1350.48 899.106 C 1350.28 915.751 1350.24 932.398 1350.36 949.044 C 1363.84 949.168 1377.55 948.991 1391.05 948.945 L 1391.09 899.636 L 1414.19 899.483 C 1414.03 913.632 1415.3 1019.2 1413.42 1024.45 L 1411.25 1025.1 L 1390.73 1025.04 L 1390.94 972.413 C 1378.1 971.851 1363.78 972.105 1350.81 972.101 L 1350.86 1025.4 L 1327.12 1025.27 L 1327.29 899.059 z"/>
<path transform="translate(0,0)" fill="rgb(248,160,32)" d="M 1657.71 1247.4 C 1694.41 1248.31 1714.67 1267.69 1727.64 1300.63 C 1749.77 1301.38 1771.16 1313.47 1780.32 1334.08 C 1782.33 1338.61 1782.76 1344.08 1783.41 1348.95 L 1781.81 1349.36 C 1763.46 1303.54 1701.29 1308.63 1671.37 1338.29 C 1690.57 1339.77 1715.24 1345.89 1730.79 1357.75 C 1673.13 1344.41 1631.43 1347.93 1573.21 1356.36 C 1595.93 1346.76 1623.43 1340.51 1647.77 1336.25 C 1651.97 1335.76 1657.93 1335.67 1662.29 1335.47 C 1678.94 1316.32 1688.73 1309.76 1712.9 1302.24 C 1708.95 1289.99 1701.01 1279.42 1690.35 1272.2 C 1656.4 1249.31 1623.76 1267.46 1603.75 1297.72 C 1615.87 1303.75 1622.88 1310.28 1632.19 1319.82 C 1616.64 1311.87 1599.67 1303.93 1581.81 1307.01 C 1553.5 1311.88 1536.29 1328.83 1519.98 1350.49 C 1526.47 1329.17 1537.52 1310.93 1556.67 1298.62 C 1568.77 1290.84 1578.66 1290.76 1592.28 1290.93 C 1608.58 1265.29 1626.52 1249.58 1657.71 1247.4 z"/>
<path transform="translate(0,0)" fill="rgb(35,34,47)" d="M 1477.13 896.49 C 1481.57 900.126 1524.76 1010.26 1530.99 1025.43 C 1522.34 1025.65 1515.57 1025.55 1506.94 1025.12 C 1503.83 1017.98 1500.64 1010.88 1497.35 1003.82 L 1478.75 1003.73 L 1457.2 1003.62 C 1453.98 1010.37 1450.96 1018.13 1448.07 1025.11 L 1424.12 1025.08 C 1437.26 987.686 1460.38 931.641 1477.13 896.49 z"/>
<path transform="translate(0,0)" fill="rgb(246,244,238)" d="M 1476.3 948.79 C 1479.18 954.329 1486.96 975.152 1489.81 982.167 L 1479.62 982.682 L 1465.19 982.47 C 1468.09 971.234 1472.43 959.771 1476.3 948.79 z"/>
<path transform="translate(0,0)" fill="rgb(35,34,47)" d="M 1617.58 899.906 L 1683.13 899.84 L 1683.08 924.047 C 1669.42 924.78 1654.42 924.531 1640.62 924.546 L 1640.53 950.058 L 1677 949.966 L 1676.94 973.905 L 1640.26 973.935 L 1640.1 989.5 L 1640.11 1000.74 L 1683.2 1000.86 L 1683.21 1025.13 L 1616.96 1025.28 C 1616.78 983.487 1616.99 941.694 1617.58 899.906 z"/>
<path transform="translate(0,0)" fill="rgb(35,34,47)" d="M 1138.92 899.25 L 1202.76 899.262 L 1202.68 923.027 L 1161.95 922.957 L 1161.94 951.164 L 1197.99 951.091 L 1198.03 973.126 L 1161.68 973.193 L 1161.62 988.5 L 1161.67 1000.81 L 1201.66 1000.83 L 1201.7 1025.18 L 1138.95 1025.1 L 1138.92 899.25 z"/>
<path transform="translate(0,0)" fill="rgb(248,160,32)" d="M 264.851 922.831 C 274.167 910.366 289.945 901.839 303.134 894.076 C 344.712 869.604 393.702 852.223 441.532 845.12 C 500.019 836.435 575.525 844.863 623.975 881.033 C 625.105 881.867 626.215 882.727 627.304 883.614 C 609.734 876.336 593.012 868.69 574.255 864.431 C 499.934 847.553 421.262 860.166 351.568 889.046 C 323.547 900.657 296.638 915.312 270.212 929.605 C 268.878 928.291 266.13 924.504 264.851 922.831 z"/>
<path transform="translate(0,0)" fill="rgb(35,34,47)" d="M 734.989 897.165 C 751.002 896.451 758.455 899.07 771.322 907.905 C 766.564 914.624 760.441 921.535 754.602 927.344 C 745.905 921.375 738.027 916.693 728.677 925.123 C 713.709 938.617 743.955 950.633 752.307 957.662 C 760.746 964.158 771.609 974.745 771.949 986.336 C 772.709 1012.29 758.155 1025.65 734.389 1027.88 C 718.319 1026.48 711.282 1022.08 699.44 1012.17 C 703.293 1005.61 708.355 998.224 712.553 991.765 C 721.041 998.783 736.882 1010.21 746.357 996.047 C 752.908 985.771 738.245 975.743 730.463 972.045 C 705.953 960.4 692.267 941.356 707.422 914.883 C 713.115 904.939 723.84 899.764 734.989 897.165 z"/>
<path transform="translate(0,0)" fill="rgb(248,160,32)" d="M 1658.07 1179.98 C 1673.46 1180.92 1688.96 1183.29 1704.3 1184.92 C 1745.32 1189.28 1888.17 1203.75 1912.91 1232.88 C 1915.37 1235.78 1917.05 1239.3 1916.66 1243.17 C 1916.18 1247.99 1912.78 1251.79 1909.03 1254.53 C 1881.88 1274.33 1772.26 1271.26 1737.05 1266.17 L 1738.37 1265.84 C 1773.61 1257.2 1875.07 1258.4 1897.14 1242.18 L 1897.15 1240.59 C 1876.68 1222.95 1752.55 1200.37 1721.47 1194.79 C 1702.81 1191.45 1666.71 1187.46 1648.13 1181.94 C 1650.55 1180.15 1654.84 1180.25 1658.07 1179.98 z"/>
<path transform="translate(0,0)" fill="rgb(35,34,47)" d="M 1540.2 899.793 C 1560.86 899.184 1584.1 899.602 1604.94 899.542 L 1604.89 924.1 L 1563.62 924.124 L 1563.76 950.883 L 1599.56 950.95 C 1599.49 959.182 1601.4 966.922 1598 973.511 C 1594.37 975.605 1594.03 974.788 1589.07 974.712 L 1563.8 974.759 C 1563.66 991.568 1563.89 1008.58 1563.98 1025.41 C 1556.26 1025.58 1548.26 1025.42 1540.52 1025.36 C 1539.8 984.117 1540.24 941.098 1540.2 899.793 z"/>
<path transform="translate(0,0)" fill="rgb(11,10,16)" d="M 847.181 1074.9 C 860.839 1074.65 887.258 1071.62 894.167 1085 C 901.344 1098.88 893.222 1107.52 882.291 1113.74 C 887.831 1122.19 894.831 1131.67 900.728 1140.03 L 886.431 1139.85 C 882.387 1133.81 869.754 1110.82 862.692 1114.06 C 858.387 1120.5 859.658 1131.3 859.837 1139.27 C 856.084 1139.71 850.973 1139.67 847.094 1139.76 L 847.181 1074.9 z"/>
<path transform="translate(0,0)" fill="rgb(246,244,238)" d="M 860.006 1084.84 C 871.487 1084.7 889.342 1084.63 881.176 1101.78 C 873.308 1105.92 868.919 1105.04 859.991 1104.9 L 860.006 1084.84 z"/>
<path transform="translate(0,0)" fill="rgb(11,10,16)" d="M 1467.27 1073.21 C 1481.86 1072.26 1489.52 1075.16 1501.4 1082.95 L 1492.99 1091.35 C 1475.8 1080.78 1449.79 1081.09 1448.37 1105.64 C 1448.03 1111.88 1450.2 1118 1454.38 1122.64 C 1466.16 1135.81 1494.37 1129.34 1494.05 1116.99 C 1488.88 1114.89 1484.18 1120.92 1473.83 1115.63 C 1471.44 1111.86 1472.34 1111.7 1472.37 1106.31 C 1474.31 1103.46 1503.24 1104.79 1508.08 1104.84 C 1508.05 1110.43 1508.37 1118.57 1505.68 1123.4 C 1483.88 1162.55 1413.27 1133.11 1440.62 1088.54 C 1446.52 1078.93 1456.61 1075.38 1467.27 1073.21 z"/>
<path transform="translate(0,0)" fill="rgb(11,10,16)" d="M 1100.94 1074.39 L 1113.04 1074.35 C 1113.12 1094.12 1113.35 1114.39 1112.99 1134.18 C 1112.9 1139.09 1112.45 1138.95 1109.72 1141.45 C 1108.52 1141.26 1104.99 1140.76 1104.19 1139.99 C 1091.86 1128.13 1075.71 1108.23 1065.14 1095.34 C 1065.01 1108.06 1065.49 1123.21 1065.29 1136.14 C 1065.27 1137.36 1064.22 1138.67 1063.06 1139.31 C 1059.91 1141.02 1057.58 1140.67 1054.36 1139.62 C 1051.79 1135.6 1052.82 1084.86 1053.33 1076.65 C 1055.19 1074.44 1056.62 1074.86 1060.23 1074.09 C 1065.26 1074.92 1095.41 1112.77 1100.98 1119.43 L 1100.94 1074.39 z"/>
<path transform="translate(0,0)" fill="rgb(11,10,16)" d="M 728.279 1074.99 L 738.614 1074.59 C 749.331 1096.07 759.554 1117.8 769.275 1139.75 L 755.901 1139.58 C 752.006 1130.19 752.889 1126.4 742.25 1126.24 L 717.696 1126.74 L 711.72 1140.06 L 698.204 1140.08 C 707.967 1118.27 717.992 1096.57 728.279 1074.99 z"/>
<path transform="translate(0,0)" fill="rgb(246,244,238)" d="M 732.504 1088.74 C 735.683 1091.87 743.795 1110.17 745.224 1114.99 C 742.314 1116.65 740.999 1116.09 737.266 1116.08 L 722.113 1116.01 C 726.196 1106.23 729.057 1098.75 732.504 1088.74 z"/>
<path transform="translate(0,0)" fill="rgb(11,10,16)" d="M 1371.12 1072.83 L 1374.96 1073.54 C 1379.52 1076.5 1405.78 1129.94 1410.99 1140.01 L 1396.56 1139.96 L 1390.6 1127.68 L 1379.71 1127.57 L 1357.68 1127.6 L 1352.44 1140.08 L 1338.5 1139.97 C 1348.39 1119.06 1360.53 1093.06 1371.12 1072.83 z"/>
<path transform="translate(0,0)" fill="rgb(246,244,238)" d="M 1373.37 1092.65 C 1376.11 1095.46 1383.91 1112.68 1385.49 1116.85 C 1383.1 1118.24 1381.47 1117.71 1378.25 1117.77 L 1362.41 1117.71 L 1373.37 1092.65 z"/>
<path transform="translate(0,0)" fill="url(#Gradient1)" d="M 1150.77 1074.54 C 1158.28 1074.53 1191.06 1073.13 1194.82 1076.43 C 1195.07 1079.39 1195.34 1080 1194.5 1082.87 C 1189.29 1086.88 1171.31 1085.24 1163.5 1085.1 L 1163.5 1101.69 C 1172.69 1101.94 1182.48 1099.72 1189.24 1103.03 C 1191.66 1106.59 1190.82 1107.78 1190.82 1112.7 C 1181.65 1112.65 1172.48 1112.68 1163.31 1112.77 L 1163.39 1129.61 C 1171.85 1129.71 1189.11 1126.45 1194.41 1132.65 C 1195.21 1135.76 1195.49 1135.7 1194.42 1138.63 C 1187.43 1141.19 1159.57 1139.91 1150.23 1139.75 C 1150.14 1118.01 1150.32 1096.28 1150.77 1074.54 z"/>
<path transform="translate(0,0)" fill="rgb(11,10,16)" d="M 1243.91 1074.18 C 1256.11 1073.44 1262.18 1074.55 1273.01 1079.98 C 1270.72 1083.79 1269.09 1085.94 1266.38 1089.49 C 1258.52 1085.97 1238.51 1078.99 1237.36 1093.43 C 1242.57 1104.8 1272.4 1101.16 1275.12 1116.75 C 1277.98 1133.21 1266.48 1138.49 1253.57 1140.87 C 1239.67 1140.6 1234.9 1139.82 1223.02 1132.56 C 1224.81 1129.6 1226.47 1126.36 1228.1 1123.29 C 1235.31 1126.96 1264.99 1138.63 1262.2 1120.49 C 1255.17 1111.11 1228.14 1112.71 1224.84 1097.15 C 1221.8 1082.83 1232.55 1077.02 1243.91 1074.18 z"/>
<path transform="translate(0,0)" fill="rgb(11,10,16)" d="M 932.972 1075.03 C 936.292 1074.95 942.008 1074.4 944.533 1076.25 C 945.89 1085.93 944.997 1117.8 944.923 1129.13 C 954.42 1129.41 963.607 1126.91 970.925 1131.01 C 973.16 1134.69 972.296 1134.74 972.153 1139.94 L 932.877 1139.85 L 932.972 1075.03 z"/>
<path transform="translate(0,0)" fill="rgb(11,10,16)" d="M 1004.04 1075.05 L 1016.98 1074.98 C 1017.12 1096.55 1017.05 1118.12 1016.76 1139.7 L 1003.93 1139.84 L 1004.04 1075.05 z"/>
<path transform="translate(0,0)" fill="rgb(11,10,16)" d="M 797.589 1075.06 L 809.648 1075.1 L 809.362 1140.02 L 797.199 1139.98 C 797.172 1118.34 797.302 1096.7 797.589 1075.06 z"/>
<path transform="translate(0,0)" fill="rgb(241,158,64)" d="M 1648.13 1181.94 C 1642.72 1181.74 1608.67 1175.36 1602.95 1173.82 L 1603.39 1173.18 C 1620.87 1176.02 1639.27 1176.86 1658.07 1179.98 C 1654.84 1180.25 1650.55 1180.15 1648.13 1181.94 z"/>
</svg>