<svg version="1.1" xmlns="http://www.w3.org/2000/svg" style="display: block;" viewBox="0 0 2048 2048" width="1024" height="1024" preserveAspectRatio="none">
<path transform="translate(0,0)" fill="rgb(250,250,249)" d="M 0 0 L 2048 0 L 2048 2048 L 0 2048 L 0 0 z"/>
<path transform="translate(0,0)" fill="rgb(79,79,79)" d="M 355.214 831.286 C 358.244 831.494 358.79 831.297 361.504 832.717 C 363.95 836.279 363.001 842.146 362.892 846.89 C 368.922 847.171 372.313 845.273 375.359 850.982 L 374.268 853.058 C 370.825 855.571 367.113 854.86 362.595 854.804 C 362.717 864.623 362.915 873.422 362.157 883.253 C 370.14 892.649 379.276 901.36 386.739 911.135 C 390.358 915.876 385.641 927.048 385.27 932.902 C 384.714 941.668 384.93 950.412 385.032 959.152 C 427.61 977.463 452.928 1010.12 461.684 1054.47 C 463.405 1059.69 467.747 1062.32 468.003 1068.14 C 468.902 1088.56 468.576 1109.32 468.857 1129.78 C 481.821 1127.92 497.863 1123.31 510.757 1119.88 C 535.834 1113.37 560.718 1106.14 585.377 1098.19 C 593.829 1101.3 602.097 1106.7 610.01 1110.87 C 631.877 1122.39 658.343 1139.85 681.686 1146.91 C 682.473 1172.78 681.897 1201.05 681.857 1227.06 C 681.948 1270.75 681.709 1314.44 681.141 1358.12 C 662.757 1367.67 628.054 1379.65 608.224 1386.84 C 561.593 1403.59 514.764 1419.79 467.747 1435.43 C 446.496 1442.23 424.451 1447.65 403.585 1454.57 C 370.948 1465.39 335.955 1481.78 303.404 1491.95 C 294.985 1487.04 283.43 1482.43 274.439 1478.24 C 248.065 1465.93 220.48 1454.92 194.213 1442.55 C 187.156 1439.23 171.995 1428.81 165.061 1424.27 C 163.346 1409.85 164.178 1374.89 164.17 1359.35 L 164.229 1225.11 C 188.076 1215.21 225.476 1185.26 244.193 1166.24 C 246.076 1135.86 243.707 1104.62 245.136 1074.17 C 245.447 1071.95 250.419 1066.29 250.654 1064.3 C 254.338 1033.06 267.435 1003.98 290.642 982.227 C 302.374 971.231 316.326 963.636 330.746 955.366 L 330.722 922.655 L 323.664 913.915 C 333.843 903.031 344.286 893.03 354.998 882.67 L 355.089 855.114 C 350.852 855.093 346.803 855.719 343.617 853.197 C 342.116 849.997 342.165 851.533 342.989 848.474 C 346.089 846.011 348.444 847.077 353.579 846.798 C 355.32 844.732 355.062 835.01 355.214 831.286 z"/>
<path transform="translate(0,0)" fill="rgb(250,250,249)" d="M 563.898 1196.14 L 564.729 1196.55 C 567.102 1199.86 565.857 1371.65 565.899 1391.2 C 557.696 1393.68 545.859 1398.5 537.541 1401.59 C 536.844 1387.65 540.605 1344.33 532.211 1338.66 C 487.398 1308.4 496.433 1402.17 496.368 1415.2 C 486.894 1419.04 476.673 1422.46 466.995 1425.87 C 466.52 1409.23 467.665 1392.05 466.958 1375.48 C 466.562 1366.21 463.437 1362.12 456.669 1356.59 C 416.013 1343.47 426.594 1414.91 425.627 1438.29 L 405.01 1443.92 C 404.834 1377.59 405.044 1311.26 405.638 1244.94 C 457.048 1227.84 511.842 1211.65 563.898 1196.14 z"/>
<path transform="translate(0,0)" fill="rgb(79,79,79)" d="M 529.79 1231.1 L 531.55 1231.32 C 534.019 1235.18 532.841 1252.29 532.71 1257.9 C 525.176 1259.49 515.727 1262.72 508.218 1265.06 L 505.811 1264.94 C 504.055 1260.91 504.673 1243.76 504.694 1238.6 C 512.764 1236.82 521.826 1233.66 529.79 1231.1 z"/>
<path transform="translate(0,0)" fill="rgb(79,79,79)" d="M 529.601 1279.92 C 531.218 1279.83 530.314 1279.7 532.211 1280.76 C 533.212 1287.55 532.619 1299.17 532.482 1306.4 C 523.988 1308.68 515.592 1311.45 507.21 1314.12 C 506.393 1314.4 505.664 1314.29 504.722 1314.3 C 503.526 1310.4 504.405 1293.3 504.474 1288.17 L 529.601 1279.92 z"/>
<path transform="translate(0,0)" fill="rgb(79,79,79)" d="M 454.835 1303.25 C 456.869 1306.24 455.843 1322.91 455.735 1327.78 C 446.837 1331.95 438.63 1334.72 429.403 1337.97 C 427.097 1335.33 428.01 1316.62 428.036 1311.86 C 437.641 1308.4 444.871 1305.96 454.835 1303.25 z"/>
<path transform="translate(0,0)" fill="rgb(79,79,79)" d="M 450.583 1256.13 C 454.058 1255.96 452.764 1255.34 454.909 1257.28 C 456.373 1263.9 455.439 1273.3 455.16 1280.33 C 448.72 1283.01 440.014 1285.67 433.242 1287.95 L 430.065 1288.57 C 427.088 1285.33 428.364 1267.75 428.38 1262.12 C 435.794 1259.91 443.089 1258.05 450.583 1256.13 z"/>
<path transform="translate(0,0)" fill="rgb(250,250,249)" d="M 172.963 1231.16 L 174.691 1231.1 C 177.294 1230.99 180.104 1230.82 182.546 1231.9 C 221.84 1249.25 259.93 1268.9 299.783 1285.03 L 299.844 1479.14 C 274.62 1468.32 249.794 1455.77 224.409 1445.28 C 205.285 1437.38 190.231 1430.17 173.733 1417.45 C 173.678 1357.77 175.186 1290.38 172.963 1231.16 z"/>
<path transform="translate(0,0)" fill="rgb(79,79,79)" d="M 247.84 1336.17 C 256.489 1339.28 264.885 1343.61 273.056 1347.8 L 273.007 1373.59 C 265.101 1370.8 255.235 1366.05 247.52 1362.52 L 247.84 1336.17 z"/>
<path transform="translate(0,0)" fill="rgb(79,79,79)" d="M 197.155 1263.94 C 204.913 1266.68 213.75 1270.89 220.949 1274.88 C 220.952 1283.59 221.068 1292.3 220.506 1300.99 L 196.691 1291.39 C 196.374 1281.23 196.618 1274 197.155 1263.94 z"/>
<path transform="translate(0,0)" fill="rgb(79,79,79)" d="M 247.451 1386.04 C 254.012 1388.19 265.619 1393.54 272.739 1396.37 C 272.602 1404.86 272.378 1413.34 272.069 1421.82 C 264.536 1419.89 254.335 1414.39 247.092 1410.78 C 247.008 1402.23 246.925 1394.6 247.451 1386.04 z"/>
<path transform="translate(0,0)" fill="rgb(79,79,79)" d="M 247.991 1287.91 C 256.099 1290.77 265.169 1295.31 273.063 1299.01 L 273.068 1324.95 C 264.854 1321.28 256.554 1317.43 248.147 1314.27 L 247.991 1287.91 z"/>
<path transform="translate(0,0)" fill="rgb(79,79,79)" d="M 196.973 1314.26 C 204.532 1316.64 213.813 1321.29 221.172 1324.7 L 221.007 1351.32 C 211.931 1347.76 205.617 1344.41 197.041 1339.77 L 196.973 1314.26 z"/>
<path transform="translate(0,0)" fill="rgb(79,79,79)" d="M 197.045 1363.07 C 203.485 1365.22 214.573 1370.83 221.074 1373.88 C 221.077 1382.54 220.96 1391.21 220.724 1399.86 C 216.43 1399.1 205.218 1394.22 201.888 1390.92 C 195.084 1384.18 196.795 1372.36 197.045 1363.07 z"/>
<path transform="translate(0,0)" fill="rgb(250,250,249)" d="M 395.663 1248.01 C 396.817 1252.51 396.296 1292.8 396.28 1301.36 L 395.807 1447.19 C 372.67 1457.8 335.337 1469.42 309.371 1479.86 C 308.152 1471.34 309.043 1432.13 309.043 1421.12 L 309.162 1283.81 C 338.096 1272.12 366.931 1260.19 395.663 1248.01 z"/>
<path transform="translate(0,0)" fill="rgb(79,79,79)" d="M 359.617 1393.95 L 361.331 1394 C 363.646 1397.85 362.539 1412.39 362.394 1417.77 C 355.847 1421.45 346.452 1424.6 339.234 1427.28 L 337.091 1427.68 C 334.828 1424.73 335.935 1406.5 336.038 1401.57 C 343.452 1398.93 352.042 1396.39 359.617 1393.95 z"/>
<path transform="translate(0,0)" fill="rgb(79,79,79)" d="M 361.968 1294.05 C 364.01 1295.73 363.041 1315.72 363.006 1319.57 C 355.69 1322.74 345.067 1325.88 337.273 1328.42 C 335.182 1325.86 336.082 1307.87 336.123 1303.43 C 345.412 1300.38 352.89 1297.73 361.968 1294.05 z"/>
<path transform="translate(0,0)" fill="rgb(79,79,79)" d="M 361.239 1344.01 L 362.514 1344.66 C 363.505 1349.78 363.045 1362.52 363 1368.3 C 355.373 1371.28 345.719 1374.28 337.838 1376.97 L 335.969 1376.33 C 335.034 1371.17 335.503 1358.38 335.557 1352.58 L 361.239 1344.01 z"/>
<path transform="translate(0,0)" fill="rgb(250,250,249)" d="M 670.829 1154.94 C 672.476 1161.55 672.059 1205.38 672.068 1213.9 C 672.212 1260.05 672.079 1306.19 671.668 1352.34 C 663.634 1356.31 652.091 1360.5 643.554 1363.88 C 642.289 1347.23 646.779 1319.82 637.123 1306.34 C 630.537 1297.14 616.375 1300.16 609.152 1307.91 C 598.774 1319.05 601.543 1334.96 601.705 1349.32 C 601.652 1359.23 601.491 1369.14 601.222 1379.05 L 574.982 1388.01 L 575.07 1192.72 C 584.507 1188.36 599.454 1183.33 609.752 1179.41 C 630.279 1171.68 650.643 1163.53 670.829 1154.94 z"/>
<path transform="translate(0,0)" fill="rgb(79,79,79)" d="M 637.895 1198.2 C 639.535 1201.2 638.352 1220.76 638.197 1225.37 C 629.502 1228.34 620.199 1231.11 611.397 1233.89 C 609.214 1232.03 610.322 1211.17 610.38 1207.06 L 637.895 1198.2 z"/>
<path transform="translate(0,0)" fill="rgb(79,79,79)" d="M 636.851 1247.23 L 637.462 1247.81 C 638.582 1251.97 638.24 1267.3 638.253 1272.45 C 630.255 1276.07 619.797 1278.96 611.25 1281.59 C 610.383 1278.66 610.518 1261.01 610.307 1255.94 C 619.251 1252.65 627.768 1250.03 636.851 1247.23 z"/>
<path transform="translate(0,0)" fill="rgb(250,250,249)" d="M 254.125 1121.86 C 257.071 1123.1 260.031 1124.31 263.006 1125.48 C 313.309 1145.17 410.65 1143.55 460.937 1121.72 C 460.899 1135.43 461.342 1149.13 461.302 1162.79 C 461.266 1174.98 459.956 1179.54 451.798 1187.74 C 407.342 1220.43 307.555 1222.83 262.417 1186.18 C 260.623 1184.73 255.636 1178.05 255.278 1175.74 C 252.606 1158.51 253.915 1139.47 254.125 1121.86 z"/>
<path transform="translate(0,0)" fill="rgb(79,79,79)" d="M 341.136 1153.43 L 378.029 1153.55 C 378.074 1165.61 378.693 1185.56 377.643 1196.99 C 365.089 1197.99 353.362 1197.51 340.859 1196.96 C 340.7 1182.45 340.793 1167.94 341.136 1153.43 z"/>
<path transform="translate(0,0)" fill="rgb(79,79,79)" d="M 429.587 1151.26 C 432.488 1150.93 431.24 1150.53 433.539 1151.88 C 435.186 1158.36 434.41 1173.83 434.265 1181.32 C 427.784 1185.63 422.52 1187.01 415.211 1189.11 C 412.879 1189.51 413.963 1189.66 411.942 1188.8 C 410.006 1182.87 411.04 1162.12 411.236 1154.55 L 429.587 1151.26 z"/>
<path transform="translate(0,0)" fill="rgb(79,79,79)" d="M 282.682 1150.67 C 289.337 1152.23 298.113 1153.43 305.019 1154.56 L 304.73 1189.63 C 277.033 1184.38 281.986 1175.42 282.682 1150.67 z"/>
<path transform="translate(0,0)" fill="rgb(250,250,249)" d="M 339.764 966.909 C 339.947 969.266 327.994 992.228 325.889 997.57 C 315.56 1023.77 311.269 1051.3 310.838 1079.21 C 341.909 1082.01 373.182 1081.68 404.187 1078.23 C 400.195 1047.63 399.363 1023.15 385.581 994.448 C 383.723 990.577 373.452 971.097 373.616 968.942 C 381.765 967.737 395.453 988.062 399.41 994.502 C 411.728 1014.55 420.278 1036.69 422.954 1060.15 C 423.749 1064.78 424.182 1071.15 424.651 1075.95 C 432.726 1073.62 439.329 1071.04 446.982 1067.67 C 451.803 1065.55 455.739 1064.21 459.172 1068.7 C 459.827 1073.22 459.644 1075.85 457.075 1079.94 C 452.714 1086.87 426.605 1091.55 418.193 1092.54 C 371.956 1097.98 317.926 1098.92 272.544 1087.87 C 269.822 1087.04 258.073 1083.58 256.749 1081.56 C 242.644 1060.03 285.559 1074.99 288.942 1075.82 C 288.964 1043.91 308.398 981.068 339.764 966.909 z"/>
<path transform="translate(0,0)" fill="rgb(250,250,249)" d="M 459.086 1093.12 L 459.919 1094.99 C 451.635 1121.02 348.44 1121.9 321.588 1118.59 C 295.985 1115.43 279.268 1113.78 256.234 1101.44 C 253.748 1098.51 253.973 1099.81 253.377 1096.71 C 256.078 1096.31 269.308 1101.65 273.218 1102.89 C 282.133 1105.64 291.251 1107.68 300.486 1108.99 C 339.267 1114.72 428.401 1116.04 459.086 1093.12 z"/>
<path transform="translate(0,0)" fill="rgb(250,250,249)" d="M 339.107 919.238 L 377.061 918.914 C 377.516 929.065 377.069 942.867 377.024 953.29 C 364.363 953.288 351.703 953.097 339.047 952.717 L 339.107 919.238 z"/>
<path transform="translate(0,0)" fill="rgb(79,79,79)" d="M 363.208 929.323 C 364.25 929.763 365.258 930.278 366.225 930.866 C 371.369 934.035 372.213 943.177 368.907 947.885 C 355.826 947.638 357.057 937.388 363.208 929.323 z"/>
<path transform="translate(0,0)" fill="rgb(79,79,79)" d="M 347.923 930.78 L 352.467 931.382 C 356.849 934.689 357.489 943.206 354.787 947.286 C 349.616 947.215 349.034 947.846 345.727 945.095 C 343.786 940.104 346.042 935.901 347.923 930.78 z"/>
<path transform="translate(0,0)" fill="rgb(250,250,249)" d="M 356.315 893.689 C 361.181 894.615 370.675 906.463 374.719 910.888 L 357.53 911.661 L 338.74 911.881 L 356.315 893.689 z"/>
<path transform="translate(0,0)" fill="rgb(79,79,79)" d="M 1649.11 1109.07 C 1671.1 1107.13 1714.31 1121.1 1738.14 1123.16 C 1752.03 1124.36 1769.28 1128.78 1783.21 1131.21 C 1787.76 1132 1790.95 1139.54 1792.93 1143.44 C 1789.72 1162.31 1783.63 1186.73 1779.63 1206.14 C 1774.69 1230.13 1769.55 1262.39 1760.88 1284.42 C 1752.87 1298.29 1742.32 1313.03 1732.55 1325.63 C 1724.19 1336.41 1719.58 1351.91 1704.68 1349.73 C 1674.88 1344.54 1644.35 1337.61 1614.76 1331.23 C 1602.5 1328.59 1565.72 1322.87 1558.14 1316.43 C 1556.82 1305.22 1608.73 1256.35 1612.98 1242.35 C 1625.32 1201.66 1627.8 1156.48 1641.89 1116.28 C 1642.78 1113.73 1647.02 1110.62 1649.11 1109.07 z"/>
<path transform="translate(0,0)" fill="rgb(250,250,249)" d="M 1567.73 1312.24 C 1576.53 1302.81 1618.83 1253.72 1621.48 1243.39 C 1631.3 1205.11 1637.65 1161.31 1647.72 1122.82 C 1650.27 1113.07 1671.49 1119.53 1678.91 1120.85 L 1730.04 1130.36 C 1740.04 1132.2 1775.81 1135.99 1782.27 1141.35 C 1786.04 1149.94 1776.03 1180.26 1773.85 1190.74 L 1763.16 1244.48 C 1759.91 1260.61 1757.31 1278.42 1747.19 1291.57 C 1735.25 1307.1 1722.98 1328.68 1709.76 1342.63 C 1691.41 1339.27 1670.95 1333.33 1653.19 1330.67 C 1647.37 1330.61 1636.55 1327.79 1630.86 1326.38 C 1615.79 1321.23 1583.94 1315.25 1567.73 1312.24 z"/>
<path transform="translate(0,0)" fill="rgb(79,79,79)" d="M 1631.16 1324.74 C 1628.57 1322.79 1624.9 1318.77 1625 1315.51 C 1625.71 1293.97 1668.06 1300.51 1668.56 1320.41 C 1668.7 1325.75 1663.35 1327.25 1659.09 1327.92 L 1653.79 1329.46 L 1653.19 1330.67 C 1647.37 1330.61 1636.55 1327.79 1630.86 1326.38 L 1631.16 1324.74 z"/>
<path transform="translate(0,0)" fill="rgb(141,141,142)" d="M 1631.16 1324.74 C 1643.42 1327.65 1646.48 1328.33 1659.09 1327.92 L 1653.79 1329.46 L 1653.19 1330.67 C 1647.37 1330.61 1636.55 1327.79 1630.86 1326.38 L 1631.16 1324.74 z"/>
<path transform="translate(0,0)" fill="rgb(79,79,79)" d="M 1659.8 1124.18 C 1676.17 1123.42 1742.52 1138.34 1761.65 1141.6 C 1765.14 1142.19 1771.09 1144.9 1774.13 1147.33 C 1778.15 1156.64 1774.07 1171.29 1771.89 1180.99 C 1765.92 1207.56 1761.72 1234.7 1754.51 1260.96 C 1753.23 1265.63 1749.38 1267.2 1745.39 1269.15 C 1729.85 1270.45 1660.95 1254.28 1641.41 1250.76 C 1637.97 1250.13 1632.61 1247.6 1629.7 1245.26 C 1626.27 1236.28 1631.52 1219.67 1633.36 1210.47 C 1634.39 1205.32 1635.74 1199.65 1636.88 1194.48 C 1641.38 1173.96 1644.53 1153.03 1650.02 1132.76 C 1651.31 1127.99 1655.8 1126.05 1659.8 1124.18 z"/>
<path transform="translate(0,0)" fill="rgb(250,250,249)" d="M 1659.08 1132.11 C 1669.69 1132.59 1757.49 1147.3 1764.77 1151.38 C 1766.36 1152.27 1767.74 1153.19 1768.17 1155.03 C 1769.47 1160.67 1751.84 1241.85 1748.73 1252.73 C 1747.77 1256.09 1746.41 1259.05 1744.59 1262.03 C 1734.18 1261.86 1646 1244.2 1635.31 1240.12 C 1636.52 1228.63 1655.84 1137.84 1659.08 1132.11 z"/>
<path transform="translate(0,0)" fill="rgb(79,79,79)" d="M 1622.27 1254.81 C 1630.83 1254.61 1647.51 1258.67 1656.45 1260 C 1686.6 1264.5 1719.38 1273.34 1749.4 1276.89 C 1743.54 1286.74 1731.27 1304.62 1723.81 1313.19 C 1712.45 1313.41 1607.77 1291.54 1597.08 1287.61 C 1602.52 1276.51 1613.8 1263.67 1622.27 1254.81 z"/>
<path transform="translate(0,0)" fill="rgb(79,79,79)" d="M 1735.62 1007.39 C 1779.69 1002.34 1822.59 1027.24 1842.59 1066.15 C 1852.67 1085.77 1854.9 1103.24 1855.05 1124.95 C 1872.54 1138.59 1884.63 1152.05 1890.86 1173.7 C 1903.54 1217.73 1876.1 1267.71 1831.47 1279.25 C 1818.84 1282.52 1799.16 1283.88 1786.71 1278.58 C 1784.32 1277.12 1782.08 1273.23 1782.44 1270.58 C 1783.8 1260.67 1792.44 1261.1 1800.14 1261.37 C 1806.75 1261.59 1813.96 1261.73 1820.59 1260.89 C 1833.36 1259.26 1847.06 1251.18 1855.84 1241.82 C 1867.99 1228.79 1874.45 1211.46 1873.81 1193.66 C 1873.23 1177.01 1865.82 1159.25 1852.51 1149.08 C 1846.13 1144.21 1840.97 1141.38 1834.97 1135.8 C 1835.09 1097.53 1830.54 1066.35 1796.58 1042.51 C 1777.5 1029.26 1753.94 1024.11 1731.07 1028.2 C 1705.47 1033 1685.46 1046.9 1670.96 1068.17 C 1657.77 1095.01 1654.55 1078.06 1636.48 1071.13 C 1608.86 1060.55 1575.71 1084.64 1577.99 1114.73 C 1578.2 1116.35 1577.43 1129.2 1574.71 1129.43 C 1545.63 1131.93 1519.44 1133.66 1502.8 1166.54 C 1494.53 1182.83 1493.19 1201.76 1499.09 1219.04 C 1505.38 1237.9 1519.47 1253.51 1538.52 1260.23 C 1547.44 1263.31 1572.34 1263.92 1563.05 1279.71 C 1557.63 1288.94 1540.26 1282.85 1532.37 1280.06 C 1516.3 1274.37 1503.25 1263.99 1493.11 1250.4 C 1452.12 1195.47 1485.26 1118.32 1554.02 1110.86 L 1555.38 1110.72 C 1557.02 1101.97 1558.83 1095.08 1562.75 1086.98 C 1570.95 1070.44 1585.35 1057.81 1602.81 1051.84 C 1622.46 1045.09 1636.68 1048.75 1654.42 1057.57 C 1672.53 1028.4 1701.76 1011.2 1735.62 1007.39 z"/>
<path transform="translate(0,0)" fill="rgb(79,79,79)" d="M 1106.93 687.397 L 1494.07 687.704 L 1602.05 687.309 C 1615.5 687.29 1648.35 686.439 1659.84 688.943 C 1660.81 700.406 1660.18 719.52 1660.16 731.852 L 1660.17 808.665 L 1660.26 920.625 C 1660.27 941.445 1660.83 964.949 1659.9 985.528 C 1656.64 986.293 1654.07 986.78 1651.18 984.869 C 1648.6 980.694 1649.61 954.477 1649.63 947.646 L 1649.83 886.541 L 1650 698.029 L 1221.32 698.051 C 1210.31 698.047 1112.11 699.034 1107.87 697.495 C 1105.96 693.804 1106.76 691.978 1106.93 687.397 z"/>
<path transform="translate(0,0)" fill="rgb(79,79,79)" d="M 1027.05 883.965 C 1055.13 883.624 1104.85 875.695 1100.75 919.716 C 1099.87 929.178 1093.84 933.776 1086.91 939.109 C 1107.95 947.548 1116.36 963.479 1105.58 984.643 C 1090.61 1007.83 1051.85 1002.97 1027.13 1002.91 L 1027.05 883.965 z"/>
<path transform="translate(0,0)" fill="rgb(250,250,249)" d="M 1050.02 951.087 C 1065.06 950.906 1099.41 951.318 1081.42 975.87 C 1072.18 981.405 1061.26 980.079 1050.66 979.847 C 1049.85 971.408 1050.09 959.777 1050.02 951.087 z"/>
<path transform="translate(0,0)" fill="rgb(250,250,249)" d="M 1050.03 905.016 C 1063.63 904.969 1088.97 906.883 1074.76 927.313 C 1065.66 932.133 1060.55 931.056 1050.17 930.917 L 1050.03 905.016 z"/>
<path transform="translate(0,0)" fill="rgb(79,79,79)" d="M 716.94 883.48 C 744.39 883.169 788.99 876.725 789.939 916.633 C 790.176 926.603 783.912 932.947 777.245 939.225 L 778.987 940.078 C 798.344 949.783 801.787 967.417 791.944 985.837 C 773.689 1007.9 742.286 1002.05 715.861 1001.91 C 715.869 988.917 714.896 888.634 716.94 883.48 z"/>
<path transform="translate(0,0)" fill="rgb(250,250,249)" d="M 739.032 951.893 C 753.941 951.324 786.646 951.534 769.872 975.939 C 760.598 981.674 749.858 980.61 739.051 980.66 L 739.032 951.893 z"/>
<path transform="translate(0,0)" fill="rgb(250,250,249)" d="M 738.884 904.965 C 752.865 904.712 777.227 906.847 763.55 927.752 C 756.075 933.399 748.126 932.367 739.106 932.224 L 738.884 904.965 z"/>
<path transform="translate(0,0)" fill="rgb(79,79,79)" d="M 1048.33 1144.51 L 1239.98 1144.54 C 1295.46 1144.6 1350.98 1144.66 1406.45 1144.83 C 1412.65 1144.85 1417.57 1144.11 1421.69 1148.32 C 1421.29 1154.12 1414.88 1156.31 1409.79 1156.21 C 1380.6 1155.62 1351.35 1155.91 1322.15 1155.94 L 1108.84 1155.87 L 845.486 1156.05 L 777.134 1155.93 C 769.723 1155.93 734.66 1159.73 737.368 1148.55 C 744.448 1142.57 770.532 1144.63 780.166 1144.7 C 799.267 1144.92 818.37 1144.98 837.473 1144.89 L 1048.33 1144.51 z"/>
<path transform="translate(0,0)" fill="rgb(79,79,79)" d="M 390.087 688.224 C 433.121 687.027 480.745 687.952 524.075 687.9 L 794.966 687.876 L 880.583 687.954 C 889.308 687.925 934.78 686.859 940.781 688.817 C 941.459 691.744 941.486 695.787 939.606 698.202 C 933.119 699.322 900.399 698.126 891.385 698.123 L 768.5 698.232 L 399.858 698.213 C 399.85 749.634 399.499 801.048 399.443 852.469 C 399.436 858.558 401.051 867.413 394.574 869.679 C 390.142 868.587 391.6 869.788 389.279 866.954 C 387.955 859.459 388.068 693.757 390.087 688.224 z"/>
<path transform="translate(0,0)" fill="rgb(79,79,79)" d="M 498.185 883.914 C 511.27 883.759 538.858 882.068 550.214 885.472 C 585.456 896.037 586.746 938.522 554.051 954.711 C 565.657 970.033 575.53 988.942 587.315 1002.06 L 560.15 1001.76 C 552.154 999.735 536.637 959.313 524.34 956.886 L 522.501 958.164 C 520.973 962.612 521.34 995.233 521.278 1001.68 L 498.134 1001.39 L 498.185 883.914 z"/>
<path transform="translate(0,0)" fill="rgb(250,250,249)" d="M 521.33 905.025 C 530.992 904.831 539.868 903.849 548.464 909.311 C 557.576 915.102 554.853 925.027 549.146 932.237 C 540.703 938.431 531.634 937.302 521.456 937.291 L 521.33 905.025 z"/>
<path transform="translate(0,0)" fill="rgb(79,79,79)" d="M 1129.29 883.112 C 1153.97 882.989 1190.59 877.692 1203.41 904.092 C 1207.54 912.645 1208.04 922.505 1204.8 931.433 C 1200.77 942.38 1194.1 946.804 1184.34 951.448 C 1190.87 961.589 1210.4 991.656 1214.13 1002.08 C 1206.4 1002.11 1195.81 1002.47 1188.36 1001.57 C 1183.26 993.381 1162.28 951.407 1154.35 953.428 C 1151.45 959.224 1152.68 991.992 1152.3 1001.9 L 1128.98 1001.92 C 1128.87 962.32 1128.97 922.715 1129.29 883.112 z"/>
<path transform="translate(0,0)" fill="rgb(250,250,249)" d="M 1152.1 904.968 C 1166.48 904.792 1197.47 909.29 1179.22 929.9 C 1170.23 934.692 1162.54 933.867 1152.67 933.492 C 1152.33 924.132 1152.28 914.368 1152.1 904.968 z"/>
<path transform="translate(0,0)" fill="rgb(79,79,79)" d="M 1340.18 882.801 C 1342.27 882.933 1345.47 882.729 1346.73 883.878 C 1369.06 904.369 1394.97 933.845 1415.02 956.091 C 1414.81 931.753 1414.74 907.414 1414.8 883.075 L 1436.97 883.137 L 1437.02 1002.94 C 1435.71 1004.88 1436.37 1004.01 1433.56 1005.13 C 1431.22 1004.84 1430.18 1005.15 1428.47 1003.23 C 1407.08 979.251 1385.55 956.089 1362.99 933.186 L 1362.93 1001.51 C 1355.6 1001.79 1347.45 1001.67 1340.05 1001.71 L 1340.18 882.801 z"/>
<path transform="translate(0,0)" fill="rgb(79,79,79)" d="M 1461.59 883.298 C 1463.82 883.168 1467.15 882.574 1468.88 884.302 C 1475.84 891.267 1482.64 898.396 1489.5 905.466 C 1504.77 921.099 1519.95 936.823 1535.04 952.635 L 1535.47 885.157 C 1543.17 885.098 1551.08 885.277 1558.81 885.362 C 1558.7 900.928 1560.97 998.69 1556.94 1005.91 C 1555.04 1005.48 1552.88 1004.98 1551.51 1003.45 C 1529.72 979.06 1507.71 954.668 1484.14 931.978 C 1484.12 952.046 1484.98 982.667 1483.37 1001.42 C 1476.59 1001.99 1468.1 1001.85 1461.16 1001.91 L 1461.59 883.298 z"/>
<path transform="translate(0,0)" fill="rgb(79,79,79)" d="M 907.807 882.595 C 928.811 899.673 959.392 931.628 979.101 951.863 C 979.553 929.256 979.759 906.644 979.719 884.032 L 1002.23 883.897 L 1002.28 1003.55 C 998.645 1003.49 977.668 981.081 973.509 976.955 C 959.341 963.116 945.086 949.367 930.745 935.707 L 930.667 1002.63 L 907.843 1002.74 L 907.807 882.595 z"/>
<path transform="translate(0,0)" fill="rgb(79,79,79)" d="M 646.363 877.553 C 649.542 880.417 697.124 988.167 703.503 1001.63 C 694.544 1001.89 687.012 1001.7 678.036 1001.37 C 674.717 994.791 671.788 987.697 668.861 980.911 L 646.426 980.847 L 624.199 980.618 L 613.329 1001.63 C 605.237 1002.08 596.026 1002 587.843 1002.12 C 598.996 978.212 611.369 954.702 622.439 930.442 C 629.961 913.959 638.321 893.238 646.363 877.553 z"/>
<path transform="translate(0,0)" fill="rgb(250,250,249)" d="M 646.159 924.611 C 649.668 930.914 656.91 951.111 659.916 959.007 L 646.895 959.245 L 632.037 959.296 C 636.597 947.675 641.305 936.113 646.159 924.611 z"/>
<path transform="translate(0,0)" fill="rgb(79,79,79)" d="M 815.007 883.052 L 887.051 883.003 L 887.043 906.249 L 838.738 906.142 L 838.79 931.046 L 883.35 931.789 L 883.294 953.919 C 873.618 953.553 848.443 952.329 839.603 953.762 L 838.596 955.75 L 838.781 980.106 L 886.637 980.163 C 886.785 987.598 886.46 995.012 886.21 1002.44 L 814.964 1002.23 L 815.007 883.052 z"/>
<path transform="translate(0,0)" fill="rgb(79,79,79)" d="M 1228.7 883.218 L 1252.16 883.176 L 1251.87 934.63 C 1251.77 953.489 1247.92 998.492 1286.51 979.674 C 1297.38 974.371 1294.95 943.321 1294.85 931.219 L 1294.7 883.386 L 1317.25 883.284 L 1317.31 904.27 C 1317.24 926.174 1318.32 950.143 1316.02 971.736 C 1312.3 1006.67 1262.79 1014.12 1240.42 992.566 C 1235.49 987.86 1231.97 981.862 1230.28 975.256 C 1227.44 964.107 1228.67 898.646 1228.7 883.218 z"/>
<path transform="translate(0,0)" fill="rgb(79,79,79)" d="M 1051.77 762.735 C 1067.06 762.787 1090.81 760.349 1103.18 769.719 C 1123.48 785.089 1121.13 812.234 1107.26 830.648 C 1092.62 845.253 1070.89 841.694 1052.02 840.874 C 1051.75 814.829 1051.67 788.782 1051.77 762.735 z"/>
<path transform="translate(0,0)" fill="rgb(250,250,249)" d="M 1064.06 773.306 C 1075.83 773.408 1087.52 773.31 1097.07 781.504 C 1102.51 786.106 1105.81 792.765 1106.15 799.889 C 1106.64 808.742 1102.75 817.3 1096.9 823.795 C 1085.19 831.842 1077.66 831.012 1063.97 830.836 L 1064.06 773.306 z"/>
<path transform="translate(0,0)" fill="rgb(79,79,79)" d="M 1285.22 794.459 C 1296.24 793.887 1311.28 794.39 1322.77 794.409 L 1395.85 794.489 C 1442.81 794.521 1490 794.564 1536.97 794.499 C 1539.26 794.496 1541.37 794.734 1543.26 795.989 C 1545 797.146 1544.4 796.909 1545.13 799.324 C 1543.94 802.74 1544.01 802.488 1541.16 804.758 C 1456.72 803.627 1371.88 805.167 1287.41 804.612 C 1284.44 804.592 1283.85 803.537 1282.08 801.569 C 1281.24 797.11 1281.48 796.327 1285.22 794.459 z"/>
<path transform="translate(0,0)" fill="rgb(79,79,79)" d="M 505.071 794.083 C 558.162 792.677 615.277 793.928 668.612 793.905 L 714.358 793.827 C 720.865 793.818 736.524 791.903 739.439 797.555 C 739.358 801.674 739.448 801.466 737.05 804.799 C 661.004 803.139 584.08 805.799 507.984 803.953 C 505.284 803.887 504.524 802.853 503.186 800.925 C 503.036 797.154 503.254 797.237 505.071 794.083 z"/>
<path transform="translate(0,0)" fill="rgb(79,79,79)" d="M 998.5 761.737 C 1001.29 764.978 1012.68 793.18 1015.42 799.09 C 1022.06 813.221 1028.99 827.216 1036.2 841.067 C 1031.91 841.314 1027.36 841.379 1023.04 841.516 L 1015.33 827.597 L 1000.13 827.646 L 979.25 827.627 C 978.214 830.009 977.154 832.381 976.072 834.743 C 973.121 841.103 968.322 844.495 961.242 840.788 C 963.581 834.399 967.235 827.217 970.28 821.001 C 979.863 801.438 988.446 781.027 998.5 761.737 z"/>
<path transform="translate(0,0)" fill="rgb(250,250,249)" d="M 997.357 789.615 C 1001.29 793.505 1008.81 811.064 1011.5 817.158 L 998.651 817.15 L 984.29 817.518 L 997.357 789.615 z"/>
<path transform="translate(0,0)" fill="rgb(79,79,79)" d="M 849.472 762.195 C 864.167 760.798 869.254 762.204 882.774 767.414 C 881.924 769.464 879.428 775.81 878.234 776.266 C 870.873 779.77 852.41 765.994 845.566 775.212 C 837.727 786.214 846.549 792.168 856.851 795.542 C 876.425 801.952 895.019 810.851 880.157 834.184 C 875.811 841.008 866.481 842.833 858.726 843.906 C 845.735 843.788 837.405 840.327 825.637 835.382 C 827.246 831.612 829.368 827.587 831.214 823.887 C 841.274 829.167 851.565 835.146 863.387 831.696 C 868.316 830.258 874.141 823.404 871.074 818.019 C 868.713 814.332 864.169 811.741 860.073 810.126 C 844.015 803.793 821.701 795.366 832.311 773.616 C 835.344 767.398 842.934 764.126 849.472 762.195 z"/>
<path transform="translate(0,0)" fill="rgb(79,79,79)" d="M 899.823 763.11 C 918.841 762.586 939.669 763.075 958.818 763.145 C 958.861 766.97 958.64 770.381 958.417 774.202 L 934.501 774.154 L 934.301 819.022 L 934.18 842.876 C 930.245 842.908 925.905 843.331 922.679 841.352 C 921.011 835.271 921.948 783.39 922 773.962 C 914.31 773.782 907.096 775.876 901.283 772.764 C 898.912 768.767 899.8 768.613 899.823 763.11 z"/>
<path transform="translate(0,0)" fill="rgb(79,79,79)" d="M 1130.02 762.954 C 1149.18 762.459 1170.04 762.871 1189.34 762.869 C 1189.36 765.602 1189.92 771.076 1187.48 772.559 C 1182.39 775.643 1171.29 773.987 1165.08 773.964 C 1164.95 787.728 1165.24 801.95 1165.35 815.75 C 1165.19 824.286 1167.7 835.019 1163.21 841.013 C 1159.96 842.705 1159.04 842.319 1155.43 841.96 C 1152.26 838.214 1153.88 781.982 1153.88 773.89 C 1145.22 773.619 1138.47 775.878 1131.7 772.718 C 1129.2 768.969 1130.05 768.03 1130.02 762.954 z"/>
<path transform="translate(0,0)" fill="rgb(79,79,79)" d="M 1015.57 553.34 C 1039.09 551.71 1061.29 557.968 1080.27 572.189 C 1084.96 575.706 1091.94 580.144 1092.69 585.651 C 1090.81 587.827 1088.56 590.625 1085.74 588.51 C 1069.16 576.062 1058.39 566.81 1037.06 563.222 L 1035.9 563.037 C 1033.4 562.62 1030.89 562.339 1028.36 562.194 C 1000.79 560.404 981.008 571.803 961.125 589.22 L 953.63 583.937 C 973.091 564.883 988.677 557.214 1015.57 553.34 z"/>
<path transform="translate(0,0)" fill="rgb(0,0,0)" d="M 947.934 1037.95 C 956.586 1037.2 963.09 1036.7 970.011 1042.69 C 980.75 1051.97 979.124 1067.38 970.524 1077.28 C 961.354 1082.33 957.675 1081.57 947.192 1081.72 C 947.259 1067.23 947.674 1052.46 947.934 1037.95 z"/>
<path transform="translate(0,0)" fill="rgb(250,250,249)" d="M 953.924 1042.89 C 971.84 1042.8 973.749 1059.24 967.467 1072.62 C 963.491 1075.15 960.089 1076.68 955.776 1074.41 C 952.163 1068.58 953.783 1051 953.924 1042.89 z"/>
<path transform="translate(0,0)" fill="rgb(79,79,79)" d="M 1021.74 579.389 C 1043.07 578.433 1060.14 588.159 1075.2 602.256 C 1072.89 604.49 1070.36 607.369 1068.15 609.759 C 1055.76 596.538 1049.32 593.089 1031.78 589.044 C 1029.31 588.857 1026.85 588.757 1024.38 588.744 C 1004.1 588.677 994.029 593.626 979.959 607.582 C 977.927 605.636 975.482 602.967 973.482 600.899 C 989.877 585.883 999.66 581.408 1021.74 579.389 z"/>
<path transform="translate(0,0)" fill="rgb(0,0,0)" d="M 1074.05 1068.73 C 1074.31 1059.56 1072.14 1041.41 1077.05 1036.18 L 1078.36 1036.71 C 1080.39 1043.27 1079.62 1072.57 1079.56 1081.3 L 1079.24 1081.38 C 1075.69 1079.96 1055.15 1055.97 1050.78 1051.03 C 1050.69 1056.25 1051.58 1078.53 1049.6 1080.83 L 1046.72 1081.02 L 1045.38 1079.81 C 1044.04 1069.8 1045 1047.31 1045.3 1036.4 C 1050.07 1038.24 1069.69 1063.4 1074.05 1068.73 z"/>
<path transform="translate(0,0)" fill="rgb(79,79,79)" d="M 1022.48 605.391 C 1033.23 605.663 1049.64 608.33 1054.35 619.478 C 1052.8 628.183 1036.16 616.527 1028.53 614.8 C 1009.44 613.926 1015.24 617.044 999.207 622.634 C 997.091 623.372 996.128 622.263 994.834 621.29 C 993.695 608.652 1013.57 606.367 1022.48 605.391 z"/>
<path transform="translate(0,0)" fill="rgb(0,0,0)" d="M 1167.2 1037.12 C 1174.67 1036.92 1184.39 1035.89 1190.83 1039.81 L 1190.02 1040.96 C 1183.86 1043.25 1179.79 1042.81 1173.22 1042.75 L 1173.16 1057.37 C 1177.91 1057.3 1181.82 1057.44 1186.53 1057.67 C 1188.5 1059.66 1187.86 1058.48 1188 1061.53 C 1184.76 1064.43 1180.24 1061.63 1173.73 1063.53 L 1173.05 1065.78 C 1173.09 1068.86 1172.63 1073.78 1174 1075.97 C 1176.24 1076 1178.47 1076.17 1180.7 1076.46 C 1184.06 1076.88 1188.54 1077.44 1190.58 1080.09 C 1187.1 1081.95 1172.15 1081.67 1167.28 1081.69 C 1167.42 1066.76 1167.63 1052.05 1167.2 1037.12 z"/>
<path transform="translate(0,0)" fill="rgb(0,0,0)" d="M 1103.21 1035.07 C 1109.87 1035.05 1114.78 1036.43 1118.07 1042.78 L 1117.79 1041.98 L 1117.93 1044.08 C 1116.26 1045.69 1117.23 1045.06 1114.73 1045.51 C 1108.92 1041.45 1101.79 1036.76 1098.06 1046.58 C 1099.42 1057.33 1135.61 1069.31 1107.02 1082.14 C 1101.71 1082.38 1093.64 1081.35 1091.29 1075.98 L 1092.38 1073.67 C 1097.33 1072.38 1100.05 1077.34 1105.73 1076.52 C 1109.48 1074.23 1108.86 1075.31 1110.71 1071.88 C 1109.59 1060.73 1072.21 1048.25 1103.21 1035.07 z"/>
<path transform="translate(0,0)" fill="rgb(79,79,79)" d="M 1045.98 638.635 C 1050.42 637.321 1055.22 638.492 1058.55 641.701 C 1061.88 644.911 1063.23 649.664 1062.08 654.145 C 1060.94 658.627 1057.47 662.145 1053 663.358 C 1046.21 665.203 1039.2 661.238 1037.27 654.466 C 1035.35 647.694 1039.23 640.636 1045.98 638.635 z"/>
<path transform="translate(0,0)" fill="rgb(79,79,79)" d="M 991.186 639.372 C 997.823 637.263 1004.93 640.856 1007.16 647.452 C 1009.39 654.048 1005.93 661.217 999.379 663.573 C 995.03 665.137 990.175 664.23 986.684 661.201 C 983.193 658.173 981.609 653.495 982.543 648.968 C 983.476 644.442 986.782 640.772 991.186 639.372 z"/>
<path transform="translate(0,0)" fill="rgb(0,0,0)" d="M 1010.98 1037.05 C 1019.38 1036.8 1025.71 1035.85 1033.34 1039.37 L 1033.04 1040.48 C 1027.57 1042.83 1022.72 1042.42 1016.82 1042.43 L 1016.7 1056.99 C 1020.7 1056.96 1028.34 1056.4 1031.08 1058.7 L 1030.72 1059.77 C 1023.93 1062.95 1023.12 1061.28 1017.56 1063.48 L 1016.78 1066.84 C 1016.81 1070.66 1016.8 1071.89 1017.51 1075.6 C 1022.87 1078.11 1032.28 1073.64 1034.5 1078.63 L 1033.67 1080.07 C 1030.3 1082.41 1015.99 1081.58 1010.95 1081.57 L 1010.98 1037.05 z"/>
<path transform="translate(0,0)" fill="rgb(0,0,0)" d="M 872.606 1037.06 C 879.976 1036.96 902.562 1035.44 907.024 1039.33 L 906.851 1041.38 C 903.547 1042.8 898.609 1042.44 894.855 1042.48 L 894.945 1070.96 C 895.078 1075.21 895.812 1079.11 893.445 1082.23 L 890.116 1082.23 C 887.312 1079.34 888.303 1049.38 888.268 1042.47 C 880.433 1042.23 874.529 1045.24 872.606 1037.06 z"/>
<path transform="translate(0,0)" fill="rgb(0,0,0)" d="M 1125.11 1036.97 C 1132.18 1036.87 1154.23 1035.33 1158.37 1039.3 L 1157.96 1041 C 1154.53 1042.7 1149.76 1042.27 1145.78 1042.31 L 1145.92 1069.5 C 1146.09 1074.67 1147.38 1078.43 1143.52 1081.8 L 1141.94 1081.07 C 1138.71 1073.61 1139.88 1051.64 1139.96 1042.53 C 1134.08 1042.36 1129.77 1044.31 1125.43 1041.01 L 1125.11 1036.97 z"/>
<path transform="translate(0,0)" fill="rgb(0,0,0)" d="M 855.239 1036.26 C 857.521 1036.58 858.213 1036.86 860.423 1037.58 C 861.911 1042.5 861.015 1076.47 860.93 1083.1 C 858.068 1082.52 857.818 1082.68 855.403 1081.15 C 854.207 1071.4 855.052 1047.19 855.239 1036.26 z"/>
<path transform="translate(0,0)" fill="rgb(0,0,0)" d="M 990.705 1036.3 C 992.735 1036.71 992.629 1036.75 994.563 1037.53 C 997.122 1043.2 995.809 1073.53 995.661 1081.74 C 992.459 1081.23 992.153 1081.76 990.218 1079.92 C 989.642 1072.29 989.646 1043.67 990.705 1036.3 z"/>
</svg>