<svg version="1.1" xmlns="http://www.w3.org/2000/svg" style="display: block;" viewBox="0 0 2048 1462" width="1434" height="1024" preserveAspectRatio="none">
<path transform="translate(0,0)" fill="rgb(255,255,255)" d="M 0 0 L 2048 0 L 2048 1462 L 0 1462 L 0 0 z"/>
<path transform="translate(0,0)" fill="rgb(33,48,85)" d="M 1522.18 57.911 C 1541.19 59.7447 1569.71 63.7595 1587.96 64.1083 C 1591.51 88.9912 1594.39 115.736 1597.37 140.76 C 1612.84 145.779 1627.85 151.758 1643.65 156.685 C 1657.32 144.433 1687.17 120.639 1701.88 109.915 C 1719.95 120.442 1739.54 133.239 1757.44 144.352 C 1750.18 167.349 1739.48 193.394 1731.43 217.333 C 1741.6 225.695 1753.55 237.726 1762.22 247.537 C 1781.91 241.525 1825.85 232.857 1847.11 228.632 C 1856.27 247.958 1865.38 269.81 1874.31 289.544 C 1856.9 306.016 1832.12 325.249 1816.17 341.503 C 1820.69 355.958 1824.84 370.526 1828.61 385.194 L 1910.06 404.524 C 1910.6 426.346 1910.64 448.177 1910.19 470.001 C 1884.9 476.97 1859.7 484.228 1834.58 491.772 C 1832.6 508.311 1829.97 521.693 1824.8 537.517 C 1845.98 554.848 1869.47 571.362 1889.86 589.315 C 1882.12 601.673 1872.04 633.119 1865.13 648.781 L 1864.54 648.631 C 1843.2 643.412 1805.63 640.165 1783.34 638.782 C 1773.76 651.638 1765.14 663.383 1755.19 676.004 C 1763.6 697.378 1776.45 729.363 1785.97 750.196 C 1769.81 764.087 1751.88 777.127 1735.46 791.313 C 1716.72 779.442 1688.22 757.958 1669.6 744.51 C 1653.61 754.739 1640.63 759.695 1623.13 767.088 C 1622.07 793.458 1615.6 823.019 1614.54 848.115 C 1593.16 852.025 1571.73 855.707 1550.26 859.162 C 1542.92 844.2 1535.49 829.284 1527.96 814.415 C 1524.01 806.62 1518.74 795.155 1513.63 788.371 C 1495.73 789.483 1481.99 789.8 1464.33 787.033 L 1428.79 848.242 L 1420.67 861.649 C 1405.65 855.931 1375.81 848.862 1359.65 844.567 C 1360.08 827.22 1366.46 775.987 1364.57 762.736 C 1362.73 760.797 1359.74 759.524 1357.23 758.485 C 1340.43 751.527 1326.93 743.98 1311.33 734.625 C 1304.75 742.266 1281.29 780.424 1275 790.242 L 1261.68 781.405 C 1274.23 765.768 1285.68 742.158 1299.17 725.881 C 1285.3 716.681 1272.21 706.72 1260.45 694.896 C 1245.9 700.217 1204.55 721.514 1190.56 729.322 C 1176.58 713.99 1164.29 695.798 1149.67 679.36 C 1163.6 657.148 1181.43 630.281 1196.51 609.004 C 1183.18 585.573 1177.26 569.444 1168.35 544.155 C 1145.57 540.326 1112.03 535.261 1089.49 533.337 C 1085.71 512.921 1080.38 489.376 1077.82 469.216 C 1103.28 460.303 1133.07 447.901 1157.46 440.294 C 1158.62 425.712 1159.96 409.712 1162.65 395.309 C 1144.43 380.613 1116.3 362.316 1096.67 348.689 C 1103.9 330.2 1110.98 308.19 1117.57 289.246 C 1131.04 292.684 1183.22 294.492 1199.04 294.87 C 1207.65 282.812 1216.79 268.514 1225.43 256.031 C 1213.35 236.336 1200.32 210.525 1188.69 189.725 C 1202.19 178.415 1218.7 160.039 1232.82 147.015 C 1250.56 155.697 1267.7 165.672 1285.16 174.911 C 1291.7 178.372 1298.2 181.849 1304.23 186.155 C 1312.51 178.978 1330.19 168.525 1339.9 162.414 C 1340.53 137.663 1337.24 109.224 1337.9 83.5229 C 1356.48 77.3347 1379.69 71.9775 1399.52 65.7976 C 1411.9 84.0377 1432 115.5 1445.06 131.902 C 1458.63 129.548 1476.8 129.279 1490.8 128.933 C 1501.29 105.244 1511.38 81.4628 1522.18 57.911 z"/>
<path transform="translate(0,0)" fill="rgb(255,255,255)" d="M 1529.92 74.9412 C 1537.94 74.2599 1565.63 77.5326 1574.88 78.4599 C 1576.02 90.0109 1581.35 142.778 1583.81 151.176 C 1587.4 154.059 1636.74 170.787 1645.21 173.807 C 1658.42 163.134 1671.96 153.042 1684.75 141.837 C 1690.48 136.817 1696.33 131.722 1702.89 127.852 C 1714.29 136.008 1728.1 142.929 1738.74 151.661 C 1730.58 175.783 1721.79 197.799 1712.95 221.555 C 1727.28 236.173 1741.3 248.455 1756.11 264.15 C 1783.57 258.508 1810.52 251.632 1837.89 245.85 C 1844.13 257.779 1849.94 273.362 1856.05 286.188 C 1842.09 299.96 1810.13 322.517 1799.75 336.51 C 1798.65 341.28 1813.35 389.062 1815.8 397.905 C 1842.62 404.097 1868.28 409.821 1895.19 416.483 L 1895.12 458.716 C 1870 465.19 1844.95 471.933 1819.98 478.943 C 1817.23 507.603 1814 517.341 1806.57 545.561 C 1826.06 559.881 1852.37 577.918 1869.97 593.879 C 1864.76 605.397 1860.03 619.218 1855.22 631.262 C 1833.77 627.122 1797.04 624.068 1774.02 621.421 C 1762.41 641.709 1751.8 655.272 1736.56 672.623 C 1745.45 695.569 1757.09 722.911 1767.01 745.307 C 1757.42 753.119 1744.82 762.832 1736.04 771.169 C 1716.32 758.513 1689.01 740.346 1670.91 725.854 C 1660.71 731.104 1650.35 737.949 1639.79 742.98 C 1630.11 747.588 1620.09 751.238 1610.07 755.012 C 1605.88 777.423 1604.04 809.466 1600.34 833.823 C 1587.51 837.167 1571.57 839.685 1558.48 841.758 L 1524.11 772.935 C 1497.1 774.587 1482.3 774.887 1456.01 771.424 L 1450.12 781.502 L 1415.02 842.657 C 1407.02 839.999 1378.74 834.03 1374.94 829.782 C 1373.46 819.652 1377.87 777.715 1379.17 765.639 L 1392.48 768.259 L 1395.89 755.875 C 1388.39 752.142 1369.15 746.368 1359.35 742.226 C 1322.95 726.478 1289.96 703.792 1262.23 675.435 C 1243.07 686.715 1214.37 699.644 1194.21 709.25 C 1186.83 698.586 1177.29 687.541 1169.14 677.138 C 1177.94 661.837 1203.97 624.323 1214.65 610.745 C 1206.56 596.154 1200.09 583.097 1193.82 568.278 C 1190.88 561.319 1182.12 532.371 1180.47 531.761 C 1169.21 527.607 1113.89 521.317 1102.94 520.763 C 1100.06 507.334 1097.64 492.697 1095.13 479.116 C 1103.84 475.301 1117.15 471.445 1126.47 467.934 C 1141.76 462.172 1157.55 455.824 1172.97 450.645 C 1173.19 424.498 1176.46 413.264 1179.45 388.158 C 1170.08 380.58 1157.91 373.045 1147.97 365.923 C 1137.26 358.244 1126.63 350.452 1115.83 342.913 C 1118.85 330.94 1124.33 316.291 1129.06 304.847 C 1155.36 307.246 1182 308.772 1208.45 311.144 C 1215.61 296.57 1231.97 271.834 1243.51 260.474 C 1235.33 239.833 1215.84 212.917 1207.88 192.974 C 1217 183.545 1226.18 173.797 1235.87 164.992 C 1258.92 178.15 1282.53 190.438 1305.58 203.55 C 1315.7 194.493 1342.44 178.501 1354.79 172.515 C 1354.17 146.849 1352.89 120.051 1353.16 94.5255 C 1366.66 91.4512 1379.18 86.9767 1393.05 84.1327 C 1408.06 104.966 1422.62 126.114 1436.74 147.562 C 1458.96 143.737 1478.67 142.972 1501.03 143.953 C 1509.58 123.792 1522.72 95.2296 1529.92 74.9412 z"/>
<path transform="translate(0,0)" fill="rgb(33,48,85)" d="M 1482.27 177.573 C 1483.22 177.479 1484.18 177.4 1485.13 177.336 C 1494.33 176.698 1504.56 177.31 1513.84 177.73 C 1579.76 180.455 1642.76 205.717 1692.3 249.295 C 1745.38 295.114 1777.95 360.244 1782.76 430.198 C 1794.47 595.511 1674.78 725.984 1510.99 736.975 C 1490.72 736.742 1470.07 736.866 1450.02 733.714 C 1315.4 712.556 1215.38 604.013 1209.47 467.522 C 1206.26 394.413 1232.04 322.992 1281.2 268.785 C 1332.18 213.586 1407.37 180.408 1482.27 177.573 z"/>
<path transform="translate(0,0)" fill="rgb(255,255,255)" d="M 1493.82 189.371 C 1641.45 187.957 1762.31 306.4 1763.88 454.024 C 1765.46 601.649 1647.15 722.642 1499.52 724.377 C 1351.67 726.115 1230.45 607.581 1228.88 459.73 C 1227.3 311.878 1345.97 190.787 1493.82 189.371 z"/>
<path transform="translate(0,0)" fill="rgb(33,48,85)" d="M 1455.16 254.677 C 1479.85 263.883 1516.58 282.232 1541.14 293.758 L 1680.75 359.473 C 1672.5 375.761 1665.24 394.207 1656.27 410.065 C 1668.96 417.744 1693.51 429.181 1707.84 436.682 L 1719.7 427.058 C 1717.38 424.463 1715.3 420.994 1713.37 418.035 C 1721.33 411.313 1729.76 409.019 1738.11 402.018 C 1744.24 409.73 1747.45 415.118 1751.97 423.58 C 1746.34 427.495 1740.47 431.752 1734.57 435.2 C 1732.36 434.824 1732 434.558 1730.07 433.582 L 1729.48 433.282 C 1721.34 436.19 1717 449.734 1706.73 446.042 C 1700.86 451.73 1682.45 492.488 1676.76 503.438 C 1660.68 494.254 1640.07 485.24 1623.05 476.722 C 1615.09 492.311 1605.11 510.733 1598.25 526.527 C 1620.5 538.794 1647.89 549.058 1670.21 561.631 L 1664.9 570.649 C 1642.87 559.353 1613.74 547.484 1593.17 535.52 L 1570.46 582 C 1582.08 589.17 1594.61 593.339 1606.71 600.414 C 1607 607.407 1609.98 635.192 1612.2 641.323 L 1615.58 642.187 C 1617.79 648.035 1618.83 659.227 1619.69 665.799 C 1611.11 667.279 1602.19 669.188 1593.62 670.906 C 1592.71 662.139 1589.06 654.263 1591.62 647.188 C 1595.07 644.002 1595.87 644.668 1601.1 643.41 C 1599.59 631.479 1598.08 617.911 1595.67 606.265 C 1586.49 602.69 1574.56 596.43 1565.49 591.974 C 1561.06 603.461 1550.21 625.98 1544.09 636.738 C 1537.21 645.635 1534.1 646.253 1523.19 647.666 C 1498.33 638.673 1467.86 622.652 1443.44 611.398 C 1406.04 593.834 1368.6 576.519 1331.3 558.734 C 1317.11 552.337 1310.82 545.413 1317.12 529.649 C 1322.22 516.909 1328.43 503.955 1334.51 491.539 C 1342.84 474.529 1350.46 456.21 1359.87 439.812 C 1346.55 433.885 1326.82 425.556 1312.96 421.148 C 1301.6 425.331 1288.47 432.424 1277.78 438.256 C 1271.84 441.497 1275.11 450.626 1272.21 453.703 C 1250.33 476.933 1228.59 429.181 1262.48 430.688 C 1273.31 430.913 1300.88 415.42 1312.45 409.461 C 1327.49 416.34 1348.7 424.087 1364.5 430.48 C 1372.56 413.871 1380.87 397.926 1388.01 380.871 C 1373.65 374.663 1361.26 369.362 1347.12 362.462 C 1342.93 367.391 1335.79 371.152 1329.37 368.07 C 1318.06 364.087 1318.02 339.726 1330.05 337.96 C 1343.88 335.93 1349.03 343.071 1351.27 353.971 C 1365.05 360.015 1378.89 365.92 1392.79 371.687 C 1399.06 359.698 1405.11 347.592 1410.93 335.374 C 1402.58 331.636 1396.58 329.097 1388.95 323.958 C 1384.83 316.485 1380.33 305.917 1376.19 297.797 C 1367.18 293.885 1365.58 290.307 1362.18 281.899 C 1363.59 277.931 1365.36 274.312 1367.14 270.499 C 1370.4 268.483 1374.83 266.615 1378.38 264.977 C 1393.59 270.898 1400.92 283.842 1386.12 295.296 C 1389.62 302.125 1392.8 309.406 1395.99 316.41 C 1402.5 319.629 1407.65 323.063 1413.71 326.972 C 1421.19 313.329 1427.81 299.842 1434.74 285.954 C 1439.07 277.279 1446.41 258.263 1455.16 254.677 z"/>
<path transform="translate(0,0)" fill="rgb(255,255,255)" d="M 1515.61 294.583 C 1525.78 297.853 1544.84 307.718 1555.12 312.71 C 1572.87 321.213 1590.69 329.563 1608.58 337.757 C 1574.65 407.18 1540.29 476.385 1505.48 545.368 C 1494.78 566.918 1484.91 589.159 1474.07 610.485 L 1472.45 611.619 C 1465.37 610.459 1395.43 576.161 1382.47 570.49 C 1406.58 518.296 1431.29 466.379 1456.59 414.747 C 1475.97 374.621 1494.94 334.024 1515.61 294.583 z"/>
<path transform="translate(0,0)" fill="rgb(33,48,85)" d="M 1474.64 394.325 C 1480.41 395.717 1546.17 426.507 1549.6 429.848 C 1549.4 438.397 1521.39 492.298 1515.36 504.328 C 1513.23 504.786 1446.57 473.01 1438.93 469.638 C 1450.44 444.351 1462.35 419.243 1474.64 394.325 z"/>
<path transform="translate(0,0)" fill="rgb(169,61,67)" d="M 1520.27 311.478 C 1541.35 323.161 1568.62 334.004 1591.25 345.193 C 1582.02 366.71 1568.03 390.464 1557.97 412.809 C 1554.49 412.538 1495.62 383.917 1487.72 380.127 C 1498.63 359.094 1510.45 333.137 1520.27 311.478 z"/>
<path transform="translate(0,0)" fill="rgb(169,61,67)" d="M 1433.99 487.584 C 1441.51 491.46 1452.99 496.104 1460.99 499.755 C 1475.44 506.483 1489.82 513.374 1504.11 520.428 C 1494.68 542.412 1483.96 563.914 1473.45 585.399 C 1450.16 572.605 1427.16 563.203 1403.69 551.228 C 1412.81 531.077 1423.59 506.958 1433.99 487.584 z"/>
<path transform="translate(0,0)" fill="rgb(255,255,255)" d="M 1457.08 267.408 C 1459.77 268.523 1465.12 271.713 1468.56 273.31 L 1506.66 290.713 C 1496.42 308.66 1485.58 332.239 1476.47 350.899 C 1461.14 381.677 1446.18 412.641 1431.6 443.783 C 1412.64 484.155 1391.48 525.263 1373.99 566.163 C 1359 559.208 1337.97 549.855 1323.94 541.999 L 1333.66 522.406 C 1344.5 526.812 1355.86 532.133 1366.6 536.941 C 1369.46 531.617 1371.81 526.099 1374.25 520.575 C 1363.65 516.357 1351.26 509.373 1341.42 503.732 C 1344.79 498.03 1347.85 492.23 1350.98 486.395 C 1361.98 491.501 1373.02 496.54 1384.09 501.514 C 1386.02 497.791 1390.97 489.591 1390.22 485.757 L 1387.69 484.644 C 1378.35 480.748 1367.3 474.156 1358.64 469.007 C 1360.77 464.298 1364.58 454.669 1368.34 451.814 C 1374.91 453.699 1391.26 463.313 1399.76 466.606 L 1400.77 466.991 C 1403.47 461.672 1405.66 456.638 1408.03 451.183 L 1376.17 435.013 L 1384.23 416.312 C 1395.35 421.24 1406.41 426.292 1417.42 431.466 L 1424.35 414.351 C 1415.78 409.411 1402.02 403.283 1392.78 398.842 C 1396.75 391.864 1397.09 386.462 1402.83 379.929 C 1413.37 384.777 1423.85 389.741 1434.28 394.82 C 1437.58 388.835 1439.53 383.652 1442.03 377.342 C 1432.98 372.455 1420.36 366.924 1410.72 362.206 L 1420.06 343.077 C 1430.69 348.509 1441.5 353.586 1452.47 358.302 C 1455.97 351.767 1456.83 348.878 1459.05 341.702 C 1448.74 336.407 1439.16 331.423 1428.47 326.857 C 1431.69 319.938 1435.27 312.817 1438.61 305.929 C 1444.68 310.089 1462.09 318.396 1469.17 321.961 C 1472.92 315.155 1474.78 311.337 1477.65 304.122 C 1469.3 299.244 1455.43 293.161 1446.47 288.974 C 1449.5 282.193 1453.73 274.159 1457.08 267.408 z"/>
<path transform="translate(0,0)" fill="rgb(255,255,255)" d="M 1618.51 342.368 C 1631.61 349.066 1651.25 358.939 1664.66 364.206 C 1662.47 369.646 1657.8 381.073 1654.38 385.308 C 1649.6 384.381 1630.72 374.664 1625.04 371.884 C 1622.14 373.653 1616.7 384.148 1614.69 387.589 C 1624.84 392.233 1636.07 397.077 1645.63 402.658 C 1644.04 408.322 1640.36 415.756 1637.85 421.277 C 1627 416.314 1616.47 411.823 1605.73 406.526 C 1602.3 412.805 1600.62 416.333 1598.01 422.99 C 1607.89 426.793 1619.08 432.351 1628.8 436.909 C 1625.65 443.64 1622.02 449.051 1620.05 456.338 C 1612.13 453.014 1594.9 446.418 1589 440.958 L 1580.47 457.994 C 1590.78 462.152 1600.68 467.361 1610.59 472.387 L 1601.65 490.62 C 1591.13 485.149 1580.62 482.116 1570.44 476.008 L 1562.33 492.803 C 1570.02 495.529 1585.82 503.563 1593.35 507.574 C 1590.59 513.894 1587.64 519.669 1584.88 526.231 C 1573.93 521.28 1563.82 516.335 1552.62 511.608 L 1543.7 527.7 C 1550.01 531.107 1571.84 540.006 1575.4 543.469 L 1574.72 545.382 C 1572.17 551.857 1570.12 556.722 1567.04 562.952 C 1556.31 557.676 1545.42 552.7 1534.4 548.031 C 1531.81 554.083 1529.88 559.237 1527.69 565.455 C 1534.41 568.527 1552.97 575.055 1555.7 579.147 C 1557.12 585.863 1551.92 592.523 1548.36 598.782 C 1539.41 594.001 1525.41 588.448 1515.75 584.309 C 1514.09 591.537 1512.31 594.764 1508.87 601.357 C 1517.12 606.031 1530.14 610.469 1540.05 615.846 C 1537.07 622.978 1533.12 631.473 1528.77 637.772 C 1518.22 634.195 1492.63 622.02 1481.64 616.92 C 1510.79 555.198 1543.65 491.5 1574.18 430.297 L 1600.55 376.455 C 1605.53 366.269 1612.42 351.416 1618.51 342.368 z"/>
<path transform="translate(0,0)" fill="rgb(255,255,255)" d="M 1652.08 420.447 C 1664.42 426.265 1683.98 435.507 1694.99 442.657 C 1687.4 457.479 1680.39 473.296 1672.56 488.595 C 1657.73 481.739 1642.38 474.736 1628.05 466.973 C 1635.73 451.206 1644.38 436.141 1652.08 420.447 z"/>
<path transform="translate(0,0)" fill="rgb(255,255,255)" d="M 1376.3 277.581 C 1378.75 276.597 1381.54 277.697 1382.65 280.087 C 1383.77 282.477 1382.83 285.324 1380.5 286.573 C 1378.88 287.444 1376.91 287.347 1375.38 286.321 C 1373.85 285.294 1373.02 283.507 1373.21 281.675 C 1373.4 279.844 1374.59 278.268 1376.3 277.581 z"/>
<path transform="translate(0,0)" fill="rgb(255,255,255)" d="M 1333.38 348.722 C 1334.97 347.864 1336.89 347.952 1338.39 348.951 C 1339.89 349.95 1340.71 351.696 1340.53 353.488 C 1340.35 355.28 1339.19 356.824 1337.52 357.5 C 1335.13 358.467 1332.4 357.4 1331.3 355.067 C 1330.2 352.735 1331.11 349.951 1333.38 348.722 z"/>
<path transform="translate(0,0)" fill="rgb(255,255,255)" d="M 1259.12 440.79 C 1261.33 440.239 1263.58 441.536 1264.21 443.725 C 1264.84 445.913 1263.62 448.208 1261.46 448.916 C 1259.99 449.398 1258.37 449.038 1257.24 447.977 C 1256.12 446.917 1255.66 445.325 1256.05 443.827 C 1256.44 442.33 1257.62 441.165 1259.12 440.79 z"/>
<path transform="translate(0,0)" fill="rgb(109,115,142)" d="M 1572.84 487.912 C 1579.01 488.138 1593.4 496.042 1598.16 500.294 C 1592.4 499.333 1578.03 491.158 1572.84 487.912 z"/>
<path transform="translate(0,0)" fill="rgb(109,115,142)" d="M 1518.55 594.975 C 1523.63 596 1541.81 603.974 1545.62 608.041 C 1541.09 607.251 1522.34 598.455 1518.55 594.975 z"/>
<path transform="translate(0,0)" fill="rgb(142,145,165)" d="M 1553.64 522.161 C 1560.72 524.977 1575.62 530.669 1581.15 535.046 C 1575.89 534.378 1557.32 526.37 1553.64 522.161 z"/>
<path transform="translate(0,0)" fill="rgb(142,145,165)" d="M 1535.86 558.979 C 1542.15 559.197 1557.57 567.846 1563.81 571.085 C 1556.21 570.17 1542.56 563.027 1535.86 558.979 z"/>
<path transform="translate(0,0)" fill="rgb(109,115,142)" d="M 1609.96 418.086 L 1611.15 417.758 C 1615.05 419.448 1630.71 425.663 1632.73 428.01 L 1631.52 428.475 C 1627.42 426.912 1611.89 420.921 1609.96 418.086 z"/>
<path transform="translate(0,0)" fill="rgb(109,115,142)" d="M 1336.29 512.989 C 1340.55 512.94 1356.54 521.007 1360.19 523.753 L 1358.34 524.234 C 1351.35 520.902 1342.7 517.092 1336.29 512.989 z"/>
<path transform="translate(0,0)" fill="rgb(109,115,142)" d="M 1372.85 444.107 L 1373.68 443.851 C 1378.84 445.187 1391.98 452.403 1396.73 455.133 C 1392.5 454.624 1375.71 447.118 1372.85 444.107 z"/>
<path transform="translate(0,0)" fill="rgb(109,115,142)" d="M 1409.26 372.852 C 1415.6 372.943 1428.25 379.798 1433.77 383.189 C 1427.35 382.618 1415.43 375.971 1409.26 372.852 z"/>
<path transform="translate(0,0)" fill="rgb(142,145,165)" d="M 1442.01 297.981 C 1446.96 298.689 1461.92 305.716 1466.03 309.069 C 1460.38 308.991 1447.55 301.027 1442.01 297.981 z"/>
<path transform="translate(0,0)" fill="rgb(109,115,142)" d="M 1387.43 407.07 C 1391.79 407.185 1405.23 414.561 1410.09 417.065 C 1404.03 416.622 1392.28 410.666 1387.43 407.07 z"/>
<path transform="translate(0,0)" fill="rgb(142,145,165)" d="M 1625.73 382.922 C 1630.96 382.984 1640.76 388.622 1645.8 391.172 C 1638.03 390.545 1632.3 386.906 1625.73 382.922 z"/>
<path transform="translate(0,0)" fill="rgb(33,48,85)" d="M 420.787 246.615 C 428.707 251.713 460.68 325.511 465.956 337.292 C 474.195 335.126 486.922 328.685 494.161 330.748 C 500.156 334.685 506.646 360.07 510.1 369.543 C 554.094 367.32 592.617 382.744 619.397 418.564 C 622.977 423.353 632.572 441.43 634.86 443.354 C 636.187 444.469 644.196 444.333 647.067 445.903 C 650.394 451.262 645.935 454.09 641.835 457.371 C 645.436 467.714 646.212 473.128 659.542 471.493 C 664.706 470.859 670.593 470.82 675.843 470.755 C 677.772 474.822 680.286 482.489 680.971 487.038 C 681.702 491.894 679.185 492.172 676.31 496.013 C 685.656 525.226 697.465 554.178 707.391 583.247 C 710.693 592.916 714.438 603.391 718.792 612.605 C 733.615 613.744 760.046 620.446 774.665 624.289 C 772.517 627.809 770.97 629.336 768.226 632.297 C 775.443 647.443 781.501 663.031 787.718 678.614 C 801.187 675.566 825.594 666.074 839.291 661.291 C 872.283 650.064 905.069 638.243 937.633 625.833 C 957.104 648.425 974.687 675.194 992.878 698.981 C 999.765 707.987 1006.77 718.107 1012.57 727.828 C 1016.19 733.88 1009.91 740.171 1003.89 741.183 C 991.399 745.201 978.932 748.948 966.529 753.018 L 888.063 779.543 C 824.724 801.278 760.248 824.957 696.907 845.784 C 684.8 850.474 668.714 855.442 656.163 859.763 L 577.517 886.992 C 494.926 915.892 412.17 944.317 329.253 972.267 L 318.832 961.374 C 315.266 932.491 313.594 902.931 311.085 873.917 C 310.287 864.684 309.563 854.951 309.483 845.699 L 455.24 795.253 C 451.177 782.083 444.177 763.774 438.607 751.206 C 432.318 753.595 425.227 755.399 418.706 757.222 C 427.982 738.981 437.457 722.876 446.537 704.219 C 437.584 679.176 428.452 654.196 419.143 629.283 C 412.481 610.944 409.217 595.798 397.249 580.446 C 385.831 565.799 400.795 560.321 412.058 554.064 C 406.626 534.772 409.058 543.015 395.983 535.121 C 393.538 529.824 398.656 526.496 402.899 524.11 C 397.143 477.702 402.382 432.406 438.914 399.109 C 435.595 387.769 427.291 367.099 422.948 355.394 C 429.643 351.702 443.17 346.843 450.799 343.884 C 442.651 314.578 425.338 277.453 420.787 246.615 z"/>
<path transform="translate(0,0)" fill="rgb(255,255,255)" d="M 748.781 642.176 C 751.135 644.909 758.335 664.89 760.447 669.775 C 773.92 700.938 785.457 733.074 798.731 764.262 C 754.181 763.475 709.205 759.624 664.621 758.602 C 653.982 758.358 643.379 758.351 632.76 757.705 C 620.827 769.508 605.558 782.226 592.804 793.381 L 510.002 865.138 L 505.809 869.157 C 499.27 855.582 492.879 837.509 487.381 823.098 C 477.271 796.827 467.462 770.442 457.955 743.946 C 479.689 738.081 501.82 728.887 523.159 721.617 L 672.917 669.269 C 697.517 660.499 724.206 649.965 748.781 642.176 z"/>
<path transform="translate(0,0)" fill="rgb(33,48,85)" d="M 693.556 678.815 L 694.389 678.723 C 698.844 680.657 707.395 708.513 710.705 716.323 C 702.534 719.38 694.398 722.53 686.299 725.773 C 685.915 725.834 684.744 725.445 684.288 725.323 C 681.08 719.664 672.873 696.375 669.69 688.337 C 677.714 685.324 685.793 682.44 693.556 678.815 z"/>
<path transform="translate(0,0)" fill="rgb(33,48,85)" d="M 619.923 705.039 C 623.969 707.298 633.906 737.077 636.133 743.47 L 613.376 752.057 L 611.361 751.309 C 608.022 745.562 599.683 721.305 596.942 713.801 L 619.923 705.039 z"/>
<path transform="translate(0,0)" fill="rgb(33,48,85)" d="M 547.911 731.052 L 548.613 731.214 C 551.735 733.433 561.25 763.437 562.821 768.952 C 555.205 772.024 547.552 775.002 539.862 777.884 C 535.785 775.147 526.589 745.267 524.915 739.147 L 547.911 731.052 z"/>
<path transform="translate(0,0)" fill="rgb(255,255,255)" d="M 930.476 648.886 C 931.291 649.11 932.107 649.334 932.922 649.558 C 949.606 669.799 974.309 706.174 989.336 725.572 C 963.478 733.766 937.716 742.256 912.053 751.04 C 895.502 756.684 872.076 767.026 855.248 765.315 C 853.312 765.976 826.053 764.228 822.207 763.808 C 814.371 746.769 802.447 715.237 795.785 697.328 C 811.51 690.575 830.401 684.65 846.612 678.983 C 874.667 669.234 902.624 659.201 930.476 648.886 z"/>
<path transform="translate(0,0)" fill="rgb(255,255,255)" d="M 458.932 813.006 L 460.947 813.213 C 465.683 819.056 483.33 867.567 487.282 877.947 C 460.415 909.268 454.454 909.756 417.16 922.366 L 353.277 944.027 C 346.364 946.262 341.997 948.062 335.362 950.994 C 334.94 923.808 330.899 886.522 329.01 858.622 C 370.263 842.628 417.434 829.5 458.932 813.006 z"/>
<path transform="translate(0,0)" fill="rgb(255,255,255)" d="M 639.848 780.051 C 695.236 780.013 753.758 786.018 810.537 786.069 C 790.89 793.438 768.916 800.385 748.936 807.18 L 640.5 844.347 C 623.642 850.98 604.549 857.136 587.286 863.161 C 563.274 871.714 539.202 880.1 515.072 888.316 C 556.218 851.717 597.813 815.625 639.848 780.051 z"/>
<path transform="translate(0,0)" fill="rgb(255,255,255)" d="M 637.271 501.229 L 638.082 501.454 C 640.32 504.7 641.512 509.509 642.714 513.354 C 652.864 545.82 665.069 577.52 674.984 610.065 C 670.17 610.06 667.043 610.268 662.244 610.748 C 657.162 597.178 652.177 583.572 647.29 569.931 C 638.449 544.573 635.674 518.423 605.332 512.826 C 578.362 527.977 590.203 553.041 597.912 576.265 C 602.415 589.833 608.658 603.552 612.433 617.239 C 610.044 619.242 602.334 621.357 598.933 622.458 C 589.915 598.914 582.847 570.721 571.335 548.856 C 566.185 539.075 557.79 535.272 547.479 532.91 C 512.069 540.883 529.534 576.814 537.237 598.845 L 548.43 631.759 L 550.919 639.52 C 546.506 641.301 542.072 643.195 537.675 645.03 C 530.185 625.64 524.292 605.274 516.718 585.86 C 510.214 569.187 504.778 562.451 487.872 557.108 C 472.916 560.928 463.596 572.965 466.541 588.509 C 471.716 615.818 484.595 642.343 493.116 669.156 C 488.582 671.987 483.205 674.906 478.517 677.6 C 472.027 664.615 463.973 641.584 459.073 627.872 L 438.355 571.085 C 449.413 564.126 466.362 557.305 478.361 551.911 C 531.244 528.137 581.3 514.707 637.271 501.229 z"/>
<path transform="translate(0,0)" fill="rgb(255,255,255)" d="M 664.126 622.572 C 678.377 621.268 717.329 622.538 729.811 627.327 C 724.91 632.448 528.448 699.735 502.759 708.539 C 485.95 714.45 468.788 720.776 451.668 725.594 C 454.934 718.313 457.96 710.926 460.741 703.446 C 477.483 692.876 496.572 680.375 513.563 670.742 C 556.244 646.54 614.55 625.218 664.126 622.572 z"/>
<path transform="translate(0,0)" fill="rgb(255,255,255)" d="M 487.872 390.023 C 516.31 390.423 541.257 440.665 551.733 463.363 L 537.762 468.059 C 525.893 471.498 514.584 475.796 503.004 480.06 C 497.87 466.407 479.789 400.837 487.872 390.023 z"/>
<path transform="translate(0,0)" fill="rgb(255,255,255)" d="M 624.168 461.383 C 626.548 460.891 626.386 460.837 628.707 461.499 C 631.545 464.581 632.562 469.686 633.848 473.897 C 565.964 485.254 488.894 515.819 426.507 544.888 C 424.543 546.201 425.567 546.008 423.384 545.689 C 420.784 542.153 419.992 537.137 418.879 532.729 C 473.742 505.76 564.36 470.554 624.168 461.383 z"/>
<path transform="translate(0,0)" fill="rgb(255,255,255)" d="M 473.583 395.745 C 475.739 398.706 475.876 414.675 476.719 420.3 C 480.127 441.938 485.437 463.234 492.587 483.94 C 482.218 487.922 471.938 492.134 461.755 496.572 L 449.764 501.522 C 442.895 464.519 444.918 423.512 473.583 395.745 z"/>
<path transform="translate(0,0)" fill="rgb(255,255,255)" d="M 487.181 568.905 C 488.221 569.138 489.256 569.379 490.275 569.696 C 507.166 574.943 519.218 633.444 527.581 650.061 L 513.483 657.766 L 504.129 663.635 L 487.719 619.503 C 482.604 605.845 468.244 577.332 487.181 568.905 z"/>
<path transform="translate(0,0)" fill="rgb(255,255,255)" d="M 546.647 544.117 C 548.912 544.403 551.286 544.65 553.332 545.734 C 566.131 552.509 581.814 609.397 587.463 625.921 L 574.678 629.95 L 561.899 633.986 C 557.674 621.556 553.285 609.182 548.734 596.868 C 543.678 583.227 534.191 564.115 539.378 549.627 C 540.551 546.35 543.658 545.338 546.647 544.117 z"/>
<path transform="translate(0,0)" fill="rgb(255,255,255)" d="M 607.529 524.604 C 618.67 528.97 624.775 537.265 627.734 548.364 C 630.019 556.934 649.503 606.507 648.444 611.091 C 645.782 612.89 644.15 612.663 640.806 612.924 L 622.944 615.624 C 618.13 591.737 605.363 569.114 600.731 545.219 C 599.092 536.768 600.795 530.204 607.529 524.604 z"/>
<path transform="translate(0,0)" fill="rgb(255,255,255)" d="M 509.425 385.843 C 540.83 386.224 572.421 416.061 587.231 441.991 C 588.74 444.634 591.977 449.552 591.202 452.352 L 587.736 453.328 C 579.313 455.31 571.117 457.666 562.79 460.002 C 548.457 432.332 538.509 404.351 509.425 385.843 z"/>
<path transform="translate(0,0)" fill="rgb(255,255,255)" d="M 446.938 410.95 L 447.347 411.4 C 447.755 414.013 442.294 422.61 440.957 426.212 C 433.295 446.848 431.436 486.395 439.935 506.386 C 432.865 509.893 426.908 512.111 419.498 516.086 C 417.446 517.537 418.527 517.301 416.216 517.062 C 414.454 513.576 413.267 495.78 413.563 491.546 C 415.897 458.107 422.832 434.37 446.938 410.95 z"/>
<path transform="translate(0,0)" fill="rgb(255,255,255)" d="M 653.537 498.165 C 656.947 497.864 658.086 497.755 661.467 498.156 C 663.369 499.83 700.073 604.483 700.479 609.331 L 699.063 610.149 C 695.348 610.17 691.159 610.595 688.302 608.662 C 684.848 601.834 651.074 501.181 651.001 499.625 L 653.537 498.165 z"/>
<path transform="translate(0,0)" fill="rgb(255,255,255)" d="M 427.465 576.942 C 429.807 581.349 440.502 612.517 442.778 619.101 C 450.583 641.677 459.711 663.924 467.558 686.298 L 456.856 691.357 C 454.453 686.053 452.253 680.005 450.328 674.464 C 439.629 643.657 426.754 612.744 417.115 581.634 L 427.465 576.942 z"/>
<path transform="translate(0,0)" fill="rgb(255,255,255)" d="M 549.42 386.922 C 571.809 386.184 611.894 424.366 620.386 444.989 L 619.631 446.284 L 604.973 448.905 C 595.527 425.232 571.018 400.351 549.42 386.922 z"/>
<path transform="translate(0,0)" fill="rgb(255,255,255)" d="M 447.009 361.07 L 448.064 361.145 C 450.899 363.369 456.069 380.277 456.902 384.503 C 455.651 387.029 451.608 388.569 448.888 389.973 C 445.951 386.702 441.294 369.932 439.564 364.768 C 440.924 363.039 444.608 362.04 447.009 361.07 z"/>
<path transform="translate(0,0)" fill="rgb(255,255,255)" d="M 487.492 345.747 C 490.987 350.23 495.448 365.497 497.524 371.814 C 494.951 372.466 490.775 373.068 488.037 373.556 C 484.868 365.662 479.619 357.557 479.677 349.966 C 481.965 346.768 483.17 347.204 487.492 345.747 z"/>
<path transform="translate(0,0)" fill="rgb(255,255,255)" d="M 466.066 353.928 C 467.899 353.958 466.98 353.807 468.778 355.114 C 472.478 363.046 476.01 368.223 475.083 376.946 C 472.918 379.776 472.244 379.209 468.233 380.32 C 465.103 378.103 460.226 362.442 458.567 357.682 C 460.192 355.76 463.578 354.866 466.066 353.928 z"/>
<path transform="translate(0,0)" fill="rgb(33,48,85)" d="M 1567.86 912.024 C 1578.9 912.945 1589.95 913.725 1601.01 914.365 C 1603.59 926.199 1605.76 944.585 1607.63 957.011 C 1618.55 960.928 1628.48 965.035 1639.19 969.517 L 1672.16 943.81 C 1682.04 949.321 1691.97 954.777 1700.82 961.86 C 1697.38 973.829 1691.24 990.468 1687.14 1002.6 C 1692.52 1010.3 1700.53 1019.89 1706.48 1027.43 C 1720.3 1026.34 1738.27 1023.19 1752.24 1021.01 C 1756.14 1030.14 1760.19 1039.21 1764.38 1048.21 C 1753.29 1057.72 1742.47 1068.71 1732.42 1079.28 C 1733.24 1086.37 1736.77 1099.66 1738.54 1107.09 C 1753.24 1109.89 1768.51 1113.97 1782.94 1117.89 C 1783.44 1128.96 1783.8 1140.04 1784.03 1151.12 C 1773.06 1156.19 1750.18 1162.91 1738.55 1165.79 C 1737.31 1171.85 1733.06 1186.44 1733 1191.28 C 1736.21 1198.22 1758.3 1215.55 1765.23 1221.39 C 1761.42 1230.57 1757.8 1240.77 1754.29 1250.14 C 1739.01 1249.62 1723.98 1245.57 1707.15 1245.67 C 1702.12 1252.85 1697.85 1257.75 1692.1 1264.35 C 1696.48 1276.74 1704 1293.88 1710.22 1305.56 C 1701.9 1312.67 1692.11 1320.13 1683.47 1327.2 C 1671.07 1318.02 1658.36 1309.27 1645.77 1300.34 C 1635.75 1305.09 1627.48 1308.69 1617.16 1312.76 C 1616.02 1328.43 1615.13 1340.76 1614.68 1356.64 C 1607.33 1359.86 1590.65 1363.67 1582.49 1365.73 C 1573.64 1353 1566.2 1338.66 1558.55 1325.08 L 1544.5 1325.02 C 1537.93 1325.09 1532.02 1324.67 1525.49 1324.23 C 1519.61 1332.82 1506.46 1357.41 1500.89 1363.4 C 1499.34 1363.47 1473.2 1356.93 1472.62 1356.61 C 1469.51 1354.9 1466.41 1313.1 1465.67 1307.96 C 1456.3 1303.79 1449.69 1300.3 1440.91 1295.14 C 1427.9 1303.59 1412.2 1313.27 1400.06 1322.57 C 1393.53 1315.17 1384.31 1307.38 1376.79 1300.7 C 1382.24 1285.45 1389.8 1271.47 1394.98 1256.48 C 1390.14 1248.4 1386.48 1242 1382.27 1233.59 C 1368.35 1234.31 1347.79 1233.33 1333.32 1233.03 C 1330.81 1222.52 1326.97 1210.98 1324.15 1200.12 C 1335.72 1193.85 1349.43 1184.17 1360.59 1176.73 C 1359.76 1167.72 1358.11 1152.83 1358.96 1144.22 C 1351.91 1138.13 1329.7 1127.01 1320.37 1122.02 L 1324.45 1089.33 C 1336.35 1088.49 1354.12 1085.76 1366.42 1084.34 L 1382.21 1051.08 C 1378.33 1041.56 1366.93 1026.05 1360.94 1015.89 L 1380.21 986.219 C 1391.18 991.545 1410.58 998.847 1422.2 1003.66 C 1432 993.806 1447.14 985.582 1458.39 976.453 C 1457.36 962.257 1455.88 948.017 1454.67 933.814 C 1464.05 930.048 1477.58 926.05 1487.57 922.588 C 1495.19 930.753 1505.91 945.401 1512.68 954.433 C 1525.02 952.457 1538.31 951.415 1550.82 950.117 C 1554.95 943.053 1563.79 921.046 1567.86 912.024 z"/>
<path transform="translate(0,0)" fill="rgb(255,255,255)" d="M 1576.26 925.06 L 1589.64 926.365 C 1592.2 938.403 1593.09 954.112 1594.29 966.716 C 1611.52 972.773 1625.86 978.769 1642.68 985.965 C 1651.22 976.595 1662.51 967.171 1672.21 958.753 C 1676.37 961.093 1682.37 965.515 1686.46 968.338 C 1680.18 981.331 1677.82 991.765 1669.85 1005.53 C 1680.48 1015.93 1692.65 1031.72 1702.26 1043.54 C 1713.33 1038.94 1730.47 1037.4 1742.93 1035.43 C 1745.13 1038.9 1746.46 1042.04 1748.14 1045.75 C 1737 1056.78 1728.44 1064.79 1716.06 1074.38 C 1721.56 1091 1724.69 1105.73 1727.35 1122.95 C 1740.19 1119.13 1757.65 1124 1770.18 1128.28 L 1770.1 1142.03 C 1756.83 1147.54 1742.91 1151.29 1728.67 1153.19 C 1724.71 1170.58 1722.14 1182.04 1716.24 1198.84 C 1729.14 1206.63 1737.72 1215.22 1748.76 1225.4 L 1745.2 1236.04 C 1733.6 1234.4 1714.74 1232.33 1704.1 1229.09 C 1693.04 1243.43 1686.93 1251.52 1673.89 1263.85 C 1682.45 1274.67 1687.97 1289.48 1693.62 1302.33 L 1683.02 1310.09 C 1672.11 1302.49 1657.23 1292.61 1647.97 1283.56 C 1628.81 1294.84 1622.87 1296.79 1601.72 1304.2 C 1603.11 1311.63 1604.81 1341.77 1600.83 1347.37 C 1596.99 1349.66 1592.27 1349.92 1587.77 1350.57 C 1582.35 1338.02 1572.71 1324.72 1568.81 1311.48 C 1549.42 1312.78 1542.83 1313.43 1523.97 1310.92 C 1520.87 1310.95 1520.93 1309.56 1515.89 1310.62 C 1514.45 1312.23 1511.65 1319.25 1510.45 1321.81 C 1506.07 1331.11 1500.95 1339.61 1495.57 1348.35 L 1483.01 1346.45 C 1481.13 1335.5 1478.8 1313.49 1480.87 1302.88 L 1480.99 1302.29 C 1475.5 1297.6 1445.89 1282.62 1437.49 1277.74 L 1436.72 1278.58 C 1428.32 1287.9 1412.05 1298.19 1401.19 1305.52 C 1398.31 1302.68 1394.71 1300.05 1391.5 1297.54 C 1396.81 1283.38 1403.64 1267.63 1413.53 1256.28 C 1403.84 1246.27 1395.31 1232.64 1389.72 1219.92 C 1375.46 1219.55 1357.84 1220.13 1343.58 1220.89 L 1338.49 1206.74 C 1349.36 1199.67 1363.11 1188.89 1375.72 1187.93 C 1372.49 1169.75 1370.67 1151.33 1370.29 1132.86 C 1359.21 1128 1344.56 1120.94 1334.37 1114.58 L 1334.65 1101.17 C 1349.14 1098.8 1361.89 1097.28 1376.52 1099.67 C 1379.91 1080.49 1389.83 1063.17 1399.42 1046.7 C 1390.33 1038.45 1382.96 1026.25 1376.66 1015.71 C 1379.64 1011.49 1382.17 1006.68 1384.68 1002.14 C 1399.43 1008.57 1411.21 1011.78 1421.01 1024.24 C 1435.82 1005.38 1455.3 995.36 1474.76 982.517 C 1470.81 967.797 1469.94 957.695 1467.11 943.248 C 1472.56 941.138 1477.95 938.883 1483.28 936.488 C 1493.25 949.414 1499.4 956.432 1506.08 971.263 C 1523.85 965.277 1542.54 962.498 1561.28 963.054 C 1563.84 952.314 1571.21 934.802 1576.26 925.06 z"/>
<path transform="translate(0,0)" fill="rgb(33,48,85)" d="M 1538.38 986.298 C 1622.35 980.005 1695.49 1043.04 1701.67 1127.02 C 1707.84 1211 1644.7 1284.05 1560.72 1290.1 C 1476.9 1296.15 1404.02 1233.16 1397.86 1149.35 C 1391.7 1065.54 1454.58 992.578 1538.38 986.298 z"/>
<path transform="translate(0,0)" fill="rgb(255,255,255)" d="M 1540.06 998.333 C 1617.38 993.019 1684.33 1051.48 1689.48 1128.81 C 1694.63 1206.14 1636.03 1272.96 1558.69 1277.95 C 1481.58 1282.93 1414.99 1224.54 1409.86 1147.44 C 1404.72 1070.34 1462.97 1003.63 1540.06 998.333 z"/>
<path transform="translate(0,0)" fill="rgb(33,48,85)" d="M 1540.18 1056.96 C 1543.37 1059 1548.24 1069.83 1551.16 1074.45 C 1562.32 1075.76 1567.29 1077.32 1577.56 1081.08 C 1581.01 1076.42 1586.16 1071.69 1590.36 1067.56 C 1601.14 1074.39 1609.04 1081.57 1617.83 1090.63 C 1612.19 1096.36 1609.1 1100.77 1604.41 1107.2 C 1609.52 1117.38 1610.46 1120.15 1611.5 1131.5 C 1621.05 1133.7 1624.8 1135.11 1633.73 1139.26 C 1630.89 1150.53 1627.27 1161.59 1622.91 1172.36 C 1616.19 1170.6 1608.83 1168.98 1602.04 1167.35 C 1597.39 1177.83 1591.46 1182.47 1583.37 1190.64 L 1590.74 1208.55 C 1582.51 1212.08 1568.13 1216.55 1559.26 1219.62 L 1557.54 1220.13 C 1554.18 1218.06 1548.97 1202.04 1547.34 1201.76 C 1539.55 1200.4 1527.81 1199.11 1519.34 1194.02 L 1518.3 1193.39 C 1512.94 1198.29 1507.51 1203.13 1502.03 1207.91 C 1493.55 1199.88 1485.52 1191.39 1477.95 1182.49 C 1483.76 1176.6 1486.03 1174.04 1490.73 1167.26 C 1487.6 1156.87 1486.43 1151.96 1484.53 1141.44 C 1477.68 1139.52 1473.47 1137.9 1466.86 1135.19 C 1468.36 1125.73 1472.92 1110.51 1475.83 1101.28 C 1482.16 1102.83 1488.62 1104.61 1494.94 1106.26 C 1500.24 1096.73 1506.12 1091.85 1514.8 1085.58 C 1512.51 1080.15 1509.57 1075.37 1510.98 1069.89 C 1514.72 1064.31 1532.11 1059.96 1540.18 1056.96 z"/>
<path transform="translate(0,0)" fill="rgb(255,255,255)" d="M 1532.84 1072.82 L 1535.19 1073.42 C 1536.98 1078.49 1538.68 1083.58 1540.3 1088.7 C 1556.44 1086.81 1565.67 1089.27 1579.02 1098.42 C 1582.84 1094.77 1588 1088.75 1591.68 1084.7 L 1600.31 1091.63 L 1586.95 1106.01 C 1596.35 1119.73 1597.79 1125.63 1598.2 1142.33 C 1603.86 1143.99 1611.85 1145.5 1618.03 1147.12 C 1617.02 1151.55 1617.19 1153.2 1613.74 1155.43 C 1609.17 1155.97 1601 1152.5 1596.02 1150.9 C 1588.89 1167.61 1582.01 1175.47 1566.47 1184.4 C 1568.51 1188.88 1572.38 1196.33 1572.84 1200.92 L 1570.81 1202.91 C 1566.53 1204.17 1567.52 1204.56 1563.85 1203.53 C 1560.34 1199.9 1558.36 1192.29 1556.24 1186.95 C 1541.89 1190.01 1526.66 1185.09 1515.34 1176.25 L 1502.12 1189.22 C 1499.72 1187.32 1497.17 1184.97 1494.85 1182.92 C 1500.8 1177.57 1502.76 1175.82 1507.58 1169.48 C 1499.17 1154.63 1497.98 1147.46 1497.99 1130.74 L 1479.82 1127.45 L 1483.64 1116.4 C 1490.04 1117.99 1494.74 1119.74 1500.88 1122 C 1508.93 1106.29 1513.79 1100.69 1529.92 1092.96 C 1528.91 1087.21 1526.38 1083.09 1526.67 1077.66 C 1528.48 1074.14 1528.79 1074.84 1532.84 1072.82 z"/>
<path transform="translate(0,0)" fill="rgb(33,48,85)" d="M 1542.63 1094.46 C 1566.43 1091.58 1588.09 1108.47 1591.09 1132.26 C 1594.1 1156.05 1577.32 1177.8 1553.55 1180.93 C 1529.6 1184.09 1507.65 1167.16 1504.62 1143.19 C 1501.59 1119.22 1518.64 1097.36 1542.63 1094.46 z"/>
<path transform="translate(0,0)" fill="rgb(255,255,255)" d="M 1539.59 1114.55 C 1547.83 1111.73 1556.95 1113.56 1563.46 1119.34 C 1569.97 1125.12 1572.86 1133.96 1571.04 1142.47 C 1569.21 1150.99 1562.95 1157.86 1554.64 1160.47 C 1542.02 1164.42 1528.57 1157.5 1524.45 1144.94 C 1520.33 1132.37 1527.08 1118.83 1539.59 1114.55 z"/>
<path transform="translate(0,0)" fill="rgb(33,48,85)" d="M 395.131 391.615 C 399.17 392.414 402.934 400.7 404.782 404.139 C 394.863 409.912 385.481 420.159 377.817 428.745 C 342.678 467.824 321.009 517.148 315.998 569.462 C 314.611 583.165 315.851 604.868 313.814 616.785 C 313.26 620.024 252.2 640.069 246.632 642.019 L 142.138 679.3 C 164.673 742.823 194.065 809.477 218.517 872.758 C 275.348 1019.84 336.117 1166.43 391.622 1313.96 C 412.146 1308.12 435.253 1300.02 455.575 1293.24 L 383.891 1099.45 L 360.616 1035.52 C 355.996 1022.61 351.226 1007.61 345.179 995.385 C 344.006 993.012 333.1 983.519 330.439 980.997 C 345.725 977.48 380.235 964.433 396.296 958.883 L 525.44 914.417 L 758.248 834.301 C 843.687 804.005 929.343 774.325 1015.21 745.262 C 1020.61 755.971 1027.47 775.761 1031.77 787.404 L 1057.62 857.187 L 1109.32 996.494 C 1121.02 1027.69 1133.52 1058.86 1144.7 1090.21 C 1127.57 1097.08 1108.03 1103.39 1090.47 1109.73 C 1042.89 1127.07 995.097 1143.8 947.096 1159.92 L 635.507 1266.6 C 626.876 1244.79 618.62 1219.51 610.644 1197.21 L 558.157 1048.9 L 540.128 997.748 C 537.239 989.612 534.004 979.434 530.063 971.803 C 527.423 966.691 527.647 971.699 522.009 968.691 C 518.749 964.754 517.273 958.151 515.757 953.077 C 534.511 946.039 560.072 937.618 579.173 931.587 C 580.63 935.674 585.447 947.151 584.184 950.251 L 578.682 952.169 C 578.5 952.746 578.319 953.322 578.138 953.898 C 587.853 979.859 602.215 1019.12 611.134 1043.7 L 677.784 1230.5 C 699.408 1223.71 722.921 1214.74 744.462 1208.76 C 736.838 1189.31 729.216 1167.04 722.226 1147.63 C 706.47 1103.87 686.322 1074.68 746.993 1059.7 C 763.154 1055.71 783.416 1042.82 801.876 1047.34 C 817.455 1052.58 825.615 1083.94 830.644 1097.51 C 839.633 1121.62 848.473 1145.77 857.164 1169.98 C 871.487 1163.68 900.617 1154.59 916.251 1149.57 C 906.533 1116.9 889.233 1074.33 877.574 1041.39 L 841.587 940.748 C 834.324 920.288 827.883 899.703 819.776 879.498 C 814.31 865.877 811.55 882.628 805.873 867.184 C 804.763 864.165 803.609 860.706 802.583 857.601 C 820.31 850.108 847.606 841.286 866.358 834.583 C 867.821 838.905 871.499 846.047 871.087 850.454 C 870.81 853.42 868.278 854.134 865.702 855.696 C 900.513 947.858 932.226 1040.66 966.795 1132.69 C 983.224 1127.87 999.532 1121.09 1016.59 1116.13 C 1009.69 1094.66 1000.28 1071.06 992.231 1049.79 C 1009.8 1042.62 1033.75 1035.22 1051.98 1029.15 C 1059.58 1047.54 1070.47 1075.87 1076.81 1094.38 C 1089.19 1091.1 1107.04 1083.87 1120.09 1079.64 C 1115.41 1065.22 1108.62 1048.17 1103.32 1033.76 L 1067.85 938.04 C 1047.92 884.208 1026.24 821.458 1004.76 769.107 C 983.871 776.985 960.711 784.532 939.481 791.923 C 926.786 797.28 902.496 804.656 888.382 809.505 L 792.927 842.802 L 508.663 941.531 L 419.589 972.316 C 401.051 978.647 382.486 984.429 364.18 991.421 L 461.098 1254.89 C 471.781 1283.87 483.859 1312.25 493.599 1341.69 C 497.85 1354.54 502.615 1365.45 505.79 1378.95 L 886.249 1248.13 L 1122.48 1165.93 C 1155.7 1154.4 1187.95 1142.49 1221.42 1131.39 C 1213.87 1109.98 1204.04 1086.76 1195.63 1065.51 L 1157.44 967.999 C 1126.85 888.49 1095.82 809.146 1064.37 729.971 C 1050.85 696.198 1037.59 662.318 1024.61 628.333 C 1019.02 613.898 1007.85 582.777 1001.03 571.298 C 995.433 570.049 922.454 597.663 911.909 601.794 C 899.063 566.495 882.459 526.038 867.777 491.072 C 840.372 499.67 803.546 513.369 776.6 523.771 L 770.792 509.965 L 875.849 472.594 C 891.138 509.063 906.087 545.673 920.693 582.421 C 950.398 571.331 980.32 560.83 1010.44 550.926 L 1172.82 965.964 L 1210.22 1061.95 C 1220.3 1087.49 1230.99 1113.21 1239.75 1139.18 C 1224.26 1146.37 1194.07 1155.65 1176.99 1161.73 L 1029.76 1213.1 C 901.295 1258.52 772.599 1303.29 643.675 1347.4 C 593.938 1364.31 544.298 1381.5 494.757 1398.97 C 485.063 1370.62 471.182 1334.65 460.227 1306.61 C 438.024 1315.66 407.312 1324.87 383.918 1332.73 C 373.001 1308.66 360.209 1273.18 350.376 1248.02 C 328.358 1190.83 306.003 1133.76 283.313 1076.84 L 191.034 843.293 C 169.281 788.831 142.229 724.816 122.938 670.16 C 181.447 649.394 242.973 627.081 301.878 608.006 C 300.611 600.277 300.445 584.679 301.101 576.801 C 307.517 499.754 337.637 442.063 395.131 391.615 z"/>
<path transform="translate(0,0)" fill="rgb(255,255,255)" d="M 847.241 862.11 C 848.239 862.823 848.683 863.145 849.123 864.351 C 882.348 955.26 912.829 1048.14 948.293 1138.17 C 944.993 1139.42 940.53 1140.76 937.095 1141.89 L 935.558 1142.02 C 932.281 1139.76 922.335 1109.13 920.13 1103.16 C 906.028 1064.76 892.289 1026.22 878.913 987.559 C 864.448 946.452 849.021 907.704 835.955 865.875 L 847.241 862.11 z"/>
<path transform="translate(0,0)" fill="rgb(255,255,255)" d="M 557.651 959.21 C 559.13 958.766 558.36 958.799 559.98 959.544 C 568.418 979.272 576.575 1004.29 584.024 1024.82 L 629.694 1152.88 C 636.423 1172.29 643.302 1191.65 650.329 1210.96 C 651.951 1215.44 659.308 1232.87 659.096 1236.4 C 656.25 1239.36 654.679 1239.04 650.257 1240.33 C 649.057 1240.5 648.433 1240.41 647.218 1240.37 C 644.662 1235.68 640.15 1221.74 638.078 1215.88 C 632.891 1201.11 627.574 1186.38 622.126 1171.7 C 596.416 1102.05 571.555 1032.08 547.546 961.827 L 557.651 959.21 z"/>
<path transform="translate(0,0)" fill="rgb(255,255,255)" d="M 787.129 1059.08 C 807.425 1058.47 810.161 1079.05 815.485 1094.87 C 793.107 1100.79 764.263 1111.5 742.242 1119.35 L 727.857 1124.05 C 725.408 1115.41 715.079 1094.65 720.351 1087.88 C 730.792 1074.48 771.556 1063.94 787.129 1059.08 z"/>
<path transform="translate(0,0)" fill="rgb(255,255,255)" d="M 815.203 1108.04 C 816.932 1107.77 816.248 1107.81 818.069 1108.44 C 820.975 1113.29 826.182 1129.14 828.255 1135.23 C 832.945 1148.99 837.33 1161.32 842.83 1174.84 L 810.477 1186.03 L 809.01 1185.73 C 806.073 1181.4 786.449 1125.76 784.145 1118.42 C 794.449 1114.6 804.739 1111.38 815.203 1108.04 z"/>
<path transform="translate(0,0)" fill="rgb(255,255,255)" d="M 770.662 1123.13 C 775.857 1129.31 792.254 1179.89 796.005 1190.75 C 785.672 1194.3 775.427 1198.1 765.277 1202.15 L 764.153 1201.94 C 762.052 1200.1 742.231 1141.62 739.254 1133.88 C 748.407 1130.23 761.096 1126.36 770.662 1123.13 z"/>
<path transform="translate(0,0)" fill="rgb(255,255,255)" d="M 1042.16 1043 L 1043.47 1043.1 C 1047.09 1045.34 1060.22 1084.94 1062.52 1091.41 L 1051.02 1095.89 C 1047.65 1093.17 1033.45 1053.21 1031.09 1046.93 L 1042.16 1043 z"/>
<path transform="translate(0,0)" fill="rgb(255,255,255)" d="M 1018.23 1052.03 L 1019.67 1052.22 C 1022.38 1055.9 1035.22 1092.89 1037.6 1099.6 C 1034.19 1101.39 1030.83 1102.66 1027.26 1104.07 L 1025.7 1103.44 C 1022.17 1096.53 1009.19 1062.44 1008.29 1055.76 C 1010.47 1053.85 1015.23 1052.88 1018.23 1052.03 z"/>
<path transform="translate(0,0)" fill="rgb(33,48,85)" d="M 751.079 940.851 L 753.374 941.029 C 755.753 942.986 784.79 1021.19 788.042 1030.63 C 778.44 1035.68 760.833 1041.37 750.152 1045.08 L 692.198 1065.17 L 690.553 1065.82 C 687.472 1064.17 659.822 987.116 655.797 975.431 C 685.663 963.087 721.302 954.177 751.079 940.851 z"/>
<path transform="translate(0,0)" fill="rgb(255,255,255)" d="M 745.589 954.855 L 747.262 954.96 C 751.312 959.417 771.21 1017.06 773.965 1025.84 C 760.219 1029.49 709.714 1046.92 697.419 1053.45 L 695.753 1053.26 C 691.765 1045.14 687.301 1031.31 684.12 1022.24 C 679.651 1009.51 673.734 994.48 670.162 981.645 C 693.849 972.395 721.353 963.545 745.589 954.855 z"/>
<path transform="translate(0,0)" fill="rgb(33,48,85)" d="M 542.498 342.447 C 623.07 343.746 696.969 377.522 745.942 442.769 C 763.026 435.746 784.775 428.761 802.634 422.209 C 838.597 408.68 874.75 395.66 911.083 383.155 C 916.837 396.075 957.799 493.722 957.318 496.026 C 953.228 497.813 948.109 499.657 943.877 501.312 L 902.289 401.322 C 849.48 418.796 794.147 440.97 740.957 459.476 C 690.838 390.679 625.791 360.785 542.573 355.815 C 542.295 351.06 542.382 347.192 542.498 342.447 z"/>
<path transform="translate(0,0)" fill="rgb(33,48,85)" d="M 557.478 1208.99 L 558.74 1209.15 C 562.646 1214.04 581.614 1270.52 585.673 1281.21 L 527.226 1301.32 L 525.928 1300.85 C 521.331 1295.18 502.095 1239.4 498.404 1229 C 517.452 1221.85 538.063 1215.45 557.478 1208.99 z"/>
<path transform="translate(0,0)" fill="rgb(255,255,255)" d="M 548.612 1224.08 L 550.373 1223.88 C 553.719 1226.43 567.588 1268.6 569.955 1275.14 L 560.226 1278.16 L 556.957 1278.62 C 554.644 1275.27 539.99 1232.35 539.166 1227.96 C 541.706 1225.53 545.088 1225.05 548.612 1224.08 z"/>
<path transform="translate(0,0)" fill="rgb(255,255,255)" d="M 523.13 1232.02 L 525.182 1232.55 C 530.568 1243.82 539.431 1270.47 544.065 1283.25 L 534.536 1287.01 L 533.096 1286.66 C 530.25 1282.61 516.524 1243.14 513.999 1235.77 L 523.13 1232.02 z"/>
<path transform="translate(0,0)" fill="rgb(33,48,85)" d="M 972.411 808.068 C 975.943 810.161 996.952 871.515 1000.28 880.77 C 985.265 887.007 958.466 895.165 942.404 900.623 L 940.72 900.333 C 936.74 894.626 917.936 838.477 914.111 827.904 C 932.495 822.68 954.15 814.474 972.411 808.068 z"/>
<path transform="translate(0,0)" fill="rgb(255,255,255)" d="M 966.111 822.266 C 968.179 823.996 983.525 868.349 985.955 875.033 L 973.952 878.964 L 971.943 878.409 C 967.743 869.503 957.249 836.932 953.238 825.767 C 958.061 824.174 961.083 823.1 966.111 822.266 z"/>
<path transform="translate(0,0)" fill="rgb(255,255,255)" d="M 939.521 831.028 L 940.751 831.093 C 944.271 834.814 957.208 875.82 959.839 883.397 C 956.396 884.651 952.501 885.795 948.978 886.916 L 947.381 885.856 C 944.652 880.057 929.115 838.47 930.111 834.818 C 932.723 832.305 935.89 831.953 939.521 831.028 z"/>
<path transform="translate(0,0)" fill="rgb(33,48,85)" d="M 475.513 988.939 L 477.095 989.527 C 484.609 1005.87 497.361 1042.64 503.874 1060.59 C 487.027 1066.92 463.21 1075.26 446.257 1080.41 L 444.889 1079.99 C 441.022 1074.45 421.132 1018.65 417.633 1008.89 C 433.85 1003.89 460.055 994.908 475.513 988.939 z"/>
<path transform="translate(0,0)" fill="rgb(255,255,255)" d="M 468.292 1004.14 L 469.246 1004.27 C 472.601 1008.41 484.939 1047.13 487.248 1054.36 L 477.231 1058.02 C 473.437 1055.21 460.009 1014.3 457.585 1007.16 L 468.292 1004.14 z"/>
<path transform="translate(0,0)" fill="rgb(255,255,255)" d="M 443.511 1012.14 C 447.698 1018.08 459.494 1054.99 461.949 1063.59 L 451.844 1066.71 C 448.505 1058.63 434.503 1023.42 434.556 1016.57 C 437.014 1013.99 440.06 1013.35 443.511 1012.14 z"/>
<path transform="translate(0,0)" fill="rgb(33,48,85)" d="M 1010.56 918.896 L 1012.8 919.204 C 1015.16 922.815 1020.82 939.723 1022.57 944.589 L 1038.86 989.391 C 1026.45 995.227 995.759 1005.17 981.863 1010.01 L 979.204 1009.79 C 977.205 1007.53 956.223 947.064 953.331 938.982 C 966.143 933.267 995.56 924.265 1010.56 918.896 z"/>
<path transform="translate(0,0)" fill="rgb(255,255,255)" d="M 1004.85 932.62 C 1006.96 934.248 1021.66 977.284 1023.91 983.641 L 1012.25 987.286 C 1008.21 984.388 995.82 944.562 993.289 937.202 C 994.925 934.499 1001.94 933.086 1004.85 932.62 z"/>
<path transform="translate(0,0)" fill="rgb(255,255,255)" d="M 977.952 941.363 L 980.504 941.593 C 982.837 945.148 996.442 985.234 999.009 992.394 L 988.662 996.912 C 984.624 995.775 970.033 950.951 968.087 944.532 C 970.928 943.399 974.944 942.295 977.952 941.363 z"/>
<path transform="translate(0,0)" fill="rgb(33,48,85)" d="M 516.729 1098.06 C 518.392 1099.96 540.293 1160.66 543.303 1168.67 C 529.829 1174.86 499.817 1184.75 485.213 1189.29 L 483.823 1188.58 C 479.44 1181.61 459.793 1126.33 458.648 1118.27 C 474.915 1112.77 501.789 1104.6 516.729 1098.06 z"/>
<path transform="translate(0,0)" fill="rgb(255,255,255)" d="M 508.84 1113.04 C 511.519 1116.54 524.94 1155.21 527.752 1162.87 C 524.731 1164 520.436 1165.22 517.273 1166.22 L 515.468 1165.32 C 509.027 1150.23 503.263 1132.64 498.423 1116.97 L 508.84 1113.04 z"/>
<path transform="translate(0,0)" fill="rgb(255,255,255)" d="M 479.61 1121.8 C 480.313 1121.78 481.794 1121.63 482.52 1121.86 C 486.811 1123.26 499.981 1163.58 502.311 1169.98 C 501.186 1172.28 499.576 1172.38 496.766 1173.69 L 492.439 1174.5 C 489.009 1171.85 475.923 1132.79 473.991 1126.14 C 475.51 1123.25 476.312 1123.54 479.61 1121.8 z"/>
</svg>