<svg version="1.1" xmlns="http://www.w3.org/2000/svg" style="display: block;" viewBox="0 0 1024 2048" width="1024" height="2048" preserveAspectRatio="none">
<path transform="translate(0,0)" fill="rgb(255,255,255)" d="M 0 0 L 1024 0 L 1024 2048 L 0 2048 L 0 0 z"/>
<path transform="translate(0,0)" fill="rgb(33,48,70)" d="M 322.779 1072.41 C 356.441 1069.76 390.296 1073.79 422.391 1084.29 C 490.095 1106.16 546.304 1154.09 578.596 1217.49 C 612.628 1284.6 618.782 1362.43 595.721 1434.06 C 571.434 1508.93 519.482 1559.94 450.905 1594.9 C 453.818 1584.73 456.499 1573.75 459.188 1563.45 C 523.829 1529.28 572.99 1458.23 583.13 1385.88 C 592.673 1315.77 574.244 1244.71 531.825 1188.07 C 494.888 1139.44 433.916 1106.17 373.632 1098.13 C 311.495 1089.82 248.595 1106.42 198.641 1144.3 C 170.288 1167.13 150.712 1188.89 132.87 1220.77 C 99.8342 1279.33 91.8207 1348.74 110.644 1413.29 C 128.152 1476.11 169.928 1529.39 226.762 1561.38 C 289.375 1596.32 345.223 1599.78 413.049 1580.59 C 411.02 1589.24 409.378 1598.71 407.758 1607.49 C 393.097 1611.61 378.823 1613.82 363.634 1615.09 C 295.029 1620.54 227.051 1598.65 174.519 1554.19 C 118.458 1506.46 83.7717 1438.32 78.1618 1364.91 C 72.1973 1292.85 94.9642 1221.35 141.499 1166 C 188.413 1110.96 250.347 1078.16 322.779 1072.41 z"/>
<path transform="translate(0,0)" fill="rgb(53,160,160)" d="M 352.424 326.303 C 384 320.801 416.06 340.853 431.887 367.34 C 443.476 386.431 446.834 409.403 441.194 431.011 C 435.674 452.811 424.43 468.336 405.181 479.741 C 401.323 522.293 386.659 522.655 362.891 553.523 C 352.256 567.335 347.25 572.506 332.578 582.099 C 315.187 591.96 299.904 595.996 280.123 598.675 C 278.784 596.622 277.521 594.521 276.336 592.376 C 261.092 564.478 258.37 540.781 267.168 510.605 C 265.809 505.923 264.669 501.18 263.75 496.392 C 260.929 480.906 262.552 466.479 267.806 451.808 C 268.23 449.635 272.72 438.113 272.57 437.055 C 270.64 423.479 275.547 417.87 278.729 407.406 C 284.174 389.498 285.527 375.673 296.842 360.081 C 311.515 339.864 328.267 330.547 352.424 326.303 z"/>
<path transform="translate(0,0)" fill="rgb(255,255,255)" d="M 354.08 334.306 C 427.363 324.414 471.55 432.288 396.953 476.065 C 396.969 483.376 395.965 490.653 393.971 497.686 C 389.392 513.603 378.904 528.677 364.259 536.776 C 355.727 554.36 343.357 566.571 326.331 576.128 C 340.438 563.364 346.802 557.905 356.07 541.215 C 325.861 547.422 300.781 540.358 278.787 518.884 C 272.231 540.832 275.34 544.51 271.828 561.754 C 267.597 528.55 272.074 494.903 305.97 478.447 C 310.138 476.424 312.259 474.903 316.904 476.075 C 318.041 479.708 305.162 484.821 301.376 487.451 C 290.462 495.032 286.587 501.862 280.826 512.975 C 302.843 534.5 328.889 543.52 359.047 534.041 C 359.464 531.886 359.833 529.721 360.153 527.55 C 362.326 512.446 358.763 504.038 350.12 492.477 C 348.533 490.941 346.93 489.119 345.423 487.48 C 363.511 487.382 366.239 517.182 365.814 530.222 C 385.049 513.506 388.532 503.185 392.581 478.328 C 363.727 484.649 340.923 481.726 315.045 467.161 C 310.12 464.389 290.401 449.95 294.775 443.698 C 297.433 444.265 311.818 458.984 320.722 463.668 C 345.094 476.489 365.457 479.244 391.85 471.943 C 383.892 441.614 359.556 411.311 325.057 415.21 C 311.478 416.701 299.112 423.715 290.864 434.604 C 277.644 451.794 274.577 471.737 277.299 492.735 L 271.426 500.564 C 268.598 472.843 271.313 448.573 290.227 426.444 C 292.873 423.349 296.554 420.702 299.545 417.65 C 299.842 413.593 300.377 414.463 298.572 411.431 C 294.681 410.494 294.739 411.232 290.307 412.6 C 286.437 418.172 283.685 422.254 279.11 427.29 C 281.103 421.404 284.282 415.977 285.867 410.61 C 290.921 393.5 292.948 378.294 304.119 363.699 C 317.899 345.695 332.131 337.619 354.08 334.306 z"/>
<path transform="translate(0,0)" fill="rgb(53,160,160)" d="M 355.412 340.26 C 381.539 338.377 403.414 348.527 417.74 370.782 C 428.445 387.107 432.109 407.06 427.903 426.123 C 423.415 446.392 413.553 458.779 396.474 469.729 C 395.393 463.892 393.62 459.086 391.725 453.489 C 373.455 410.327 332.469 409.596 297.869 391.998 C 304.57 361.108 325.517 345.7 355.412 340.26 z"/>
<path transform="translate(0,0)" fill="rgb(255,255,255)" d="M 334.075 370.305 C 371.108 366.517 404.547 385.082 412.338 423.054 C 405.554 421.116 397.718 418.322 390.925 416.091 C 385.635 414.895 364.1 407.359 358.058 405.227 C 343.318 400.027 323.019 394.42 309.04 388.559 L 307.875 385.683 C 309.385 376.865 326.338 372.221 334.075 370.305 z"/>
<path transform="translate(0,0)" fill="rgb(255,255,255)" d="M 354.797 348.185 C 416.439 342.961 444.006 421.898 401.17 456.421 C 395.652 441.507 387.974 431.455 376.542 420.653 C 378.153 419.908 379.877 420.942 382.04 421.608 C 387.676 423.49 415.939 434.831 417.685 426.317 C 422.375 403.447 400.014 378.542 380.447 369.43 C 359.041 359.462 339.839 359.378 317.825 366.962 C 329.851 355.218 338.821 351.464 354.797 348.185 z"/>
<path transform="translate(0,0)" fill="rgb(53,160,160)" d="M 309.011 402.586 C 312.971 402.895 323.417 405.917 326.138 408.701 L 323.83 409.521 C 318.382 410.877 311.04 413.844 307.111 409.025 C 306.999 405.704 307.146 405.345 309.011 402.586 z"/>
<path transform="translate(0,0)" fill="rgb(255,255,255)" d="M 324.497 423.237 C 330.73 422.071 342.624 424.386 348.422 427.177 C 366.473 435.869 375.233 448.194 382.175 466.098 C 374.423 467.671 368.262 467.745 360.448 467.447 C 335.747 465.682 314.99 453.419 298.57 435.469 C 307.096 428.714 313.658 424.943 324.497 423.237 z"/>
<path transform="translate(0,0)" fill="rgb(255,255,255)" d="M 327.119 483.146 C 331.906 485.425 340.507 492.678 343.598 497.116 C 365.503 528.576 349.077 532.771 321.791 527.059 C 309.169 523.827 300.388 518.218 289.987 510.762 C 301.273 492.697 309.874 491.516 327.119 483.146 z"/>
<path transform="translate(0,0)" fill="rgb(255,255,255)" d="M 282.483 532.678 C 302.249 547.06 316.993 550.832 341.112 550.948 C 333.675 559.073 327.34 565.342 318.478 571.897 C 307.41 579.58 293.608 587.435 281.825 593.946 C 279.395 576.197 279.271 549.94 282.483 532.678 z"/>
<path transform="translate(0,0)" fill="rgb(255,255,255)" d="M 288.794 453.491 C 294.912 461.216 298.887 464.579 307.047 470.002 C 302.855 472.068 298.619 474.408 294.486 476.617 C 291.228 478.519 286.76 482.221 283.666 484.626 C 283.67 472.186 284.762 465.168 288.794 453.491 z"/>
<path transform="translate(0,0)" fill="rgb(255,255,255)" d="M 382.228 488.563 L 383.071 488.6 C 384.408 493.096 377.851 508.349 373.4 510.218 L 372.449 507.735 C 370.098 500.73 367.862 496.06 363.659 490.068 L 382.228 488.563 z"/>
<path transform="translate(0,0)" fill="rgb(53,160,160)" d="M 321.513 124.387 C 404.446 116.564 487.852 154.678 542.292 216.34 C 589.648 270.279 614.06 340.584 610.322 412.264 L 586.688 419.915 C 588.946 386.317 586.1 356.597 575.912 324.361 C 555.735 259.11 510.091 204.756 449.31 173.602 C 393.629 144.989 328.83 139.788 269.299 159.155 C 210.158 178.226 155.826 226.145 128.588 281.425 C 96.1344 347.288 93.2192 410.786 115.551 479.626 C 144.066 557.29 207.179 616.632 288.576 635.433 C 341.628 647.687 398.647 643.155 447.35 617.797 C 445.464 626.598 444.031 637.911 442.635 646.966 C 416.588 656.531 398.771 661.656 370.48 664.618 C 300.777 671.388 231.217 650.393 176.899 606.191 C 120.962 560.397 85.653 494.143 78.8297 422.175 C 64.6921 279.311 164.984 143.124 310.206 125.56 C 313.964 125.106 317.745 124.752 321.513 124.387 z"/>
<path transform="translate(0,0)" fill="rgb(33,48,70)" d="M 673.246 1371.47 C 677.499 1371.53 681.752 1371.63 686.004 1371.77 C 757.462 1374.06 825.04 1404.82 873.692 1457.21 C 976.559 1567.86 970.502 1746.49 859.289 1849.02 C 807.273 1896.11 738.78 1920.79 668.678 1917.7 C 598.563 1914.57 532.596 1883.59 485.417 1831.62 C 431.538 1772.66 412.644 1700.59 416.236 1622.52 C 423.782 1620.44 431.293 1618.23 438.767 1615.9 C 440.941 1618.11 439.391 1632.55 439.264 1636.89 C 438.373 1664.36 441.817 1691.79 449.468 1718.19 C 466.548 1777.57 508.476 1834.31 563.097 1863.4 C 761.962 1969.32 974.584 1784.54 912.036 1572.08 C 893.75 1509.2 850.972 1456.29 793.309 1425.25 C 737.926 1394.52 672.45 1387.56 611.841 1405.95 C 613.704 1397.41 615.692 1388.25 616.277 1379.57 C 637.157 1374.21 652.079 1372.58 673.246 1371.47 z"/>
<path transform="translate(0,0)" fill="rgb(184,78,91)" d="M 666.531 418.415 C 672.197 417.627 690.656 418.195 696.109 418.522 C 766.534 423.341 832.184 455.853 878.7 508.948 C 926.785 564.349 951.192 636.416 946.666 709.635 C 942.002 781.766 908.919 849.104 854.674 896.876 C 744.165 993.299 575.988 979.747 480.389 869.352 C 433.871 814.771 410.435 744.221 415.047 672.655 C 419.838 671.453 426.86 669.035 431.746 667.514 L 437.601 665.798 C 439.511 666.961 438.256 675.95 438.125 678.733 C 433.693 772.707 479.7 856.36 560.514 904.645 C 615.081 936.796 680.174 945.989 741.511 930.205 C 799.801 915.354 856.007 874.405 886.701 822.616 C 921.417 764.578 931.732 695.152 915.39 629.528 C 892.114 538.729 824.225 468.761 732.101 447.658 C 689.218 437.834 655.609 441.329 613.812 452.105 C 615.698 445.15 616.779 433.292 617.269 426.111 C 633.219 421.883 650.109 419.594 666.531 418.415 z"/>
<path transform="translate(0,0)" fill="rgb(33,48,70)" d="M 666.658 1533.98 C 666.925 1534.05 667.209 1534.08 667.46 1534.19 C 671.911 1536.27 705.919 1631.18 710.549 1643.51 C 708.466 1623.29 705.129 1603.21 700.559 1583.4 L 780.491 1549.59 C 777.156 1576.83 772.096 1582.18 746.131 1591.01 C 737.494 1593.94 726.775 1598.58 718.116 1602.06 C 717.408 1630.7 705.958 1654.77 721.016 1679.78 C 716.537 1655.37 716.357 1633.03 732.723 1612.72 C 743.413 1599.59 758.9 1591.27 775.748 1589.61 C 836.95 1583.47 876.076 1654 835.444 1702.16 C 824.09 1715.74 807.733 1724.14 790.089 1725.48 C 788.975 1730.73 787.608 1736.42 785.206 1741.24 C 779.849 1751.99 770.389 1760.12 758.964 1763.8 C 733.383 1772.16 702.944 1757.27 692.031 1733.1 C 690.626 1729.99 689.63 1726.65 688.567 1723.41 L 698.786 1723.9 C 713.209 1755.41 754.805 1771.95 776.275 1736.69 C 777.39 1734.86 779.006 1727.96 779.642 1725.52 C 770.336 1724.67 763.541 1722.15 754.921 1718.84 C 752.975 1712.27 750.508 1705.94 748.114 1699.52 C 761.012 1709.65 768.855 1712.79 785.291 1713.88 C 791.303 1713.31 797.789 1712.03 803.45 1709.91 C 816.94 1704.95 827.821 1694.71 833.576 1681.54 C 854.11 1635.32 809.86 1588.38 762.678 1606.05 C 750.57 1610.59 739.462 1621.63 734.536 1633.63 C 723.946 1659.44 734.741 1685.14 744.367 1709.31 L 760.021 1747.91 C 732.045 1758.09 735.613 1743.47 723.578 1722.07 C 712.926 1716.59 700.835 1714.55 688.973 1716.23 C 685.281 1716.72 680.821 1717.9 677.423 1716.96 C 674.703 1710.16 679.34 1709.44 679.469 1705.84 C 679.982 1691.49 681.644 1679.81 688.249 1666.87 C 675.625 1653.07 663.253 1639.42 650.028 1626.17 C 637.617 1631.55 620.82 1638.06 607.966 1641.95 L 575.863 1629.81 C 600.195 1619.64 626.017 1609.93 650.665 1600.49 C 652.539 1602.96 654.331 1605.8 655.995 1608.42 C 669.014 1628.95 683.118 1649.09 695.456 1670.02 C 691.433 1684.55 689.848 1689.53 689.48 1704.39 C 705.958 1704.95 710.44 1706.58 725.535 1713.18 C 721.065 1708.24 705.303 1691.37 702.946 1686.34 C 698.292 1676.41 695.412 1664.46 689.67 1653.14 C 671.699 1617.69 653.395 1582.51 635.78 1546.89 C 643.627 1544.22 658.5 1537.41 666.658 1533.98 z"/>
<path transform="translate(0,0)" fill="rgb(33,48,70)" d="M 570.703 1394.95 L 572.052 1395.23 C 573.464 1398.96 567.91 1418.87 566.643 1423.95 C 563.575 1425.66 560.558 1427.46 557.595 1429.35 C 494.242 1469.32 458.195 1525.33 441.792 1597.53 C 433.436 1600.74 427.627 1602.47 418.954 1604.81 L 418.047 1604.23 C 416.54 1599.18 425.786 1563.97 427.943 1557.76 C 453.702 1483.61 501.219 1430.11 570.703 1394.95 z"/>
<path transform="translate(0,0)" fill="rgb(53,160,160)" d="M 606.071 427.025 C 609.822 432.966 600.105 470.071 597.764 477.379 C 574.976 548.505 520.897 607.764 455.038 641.876 L 454.796 641.628 C 453.547 638.746 458.597 616.733 459.554 611.927 C 464.856 608.906 470.025 605.656 475.046 602.187 C 534.662 561.655 570.89 506.126 584.36 435.335 C 591.578 432.514 598.815 429.744 606.071 427.025 z"/>
<path transform="translate(0,0)" fill="rgb(33,48,70)" d="M 656.014 1712.85 L 657.036 1713.79 C 658.417 1717.09 658.006 1721.7 657.947 1725.39 C 625.463 1743.36 619.453 1786.33 644.243 1812.96 C 654.507 1823.78 668.619 1830.12 683.524 1830.61 C 698.123 1830.96 712.282 1825.59 722.98 1815.65 C 736.7 1802.86 739.535 1789.72 740.193 1772.15 C 751.52 1772.12 757.311 1771.3 768.232 1768.35 C 780.243 1794.98 791.995 1821.72 803.487 1848.58 L 793.587 1854.98 C 793.074 1855.35 791.547 1855.65 790.828 1855.83 C 786.685 1852.06 756.982 1792.36 752.018 1782.7 C 751.489 1786.26 750.837 1790.78 749.906 1794.2 C 745.159 1811.05 733.997 1825.37 718.814 1834.09 C 703.02 1843.01 684.314 1845.24 666.867 1840.28 C 648.632 1835.05 634.232 1824.28 625.07 1807.6 C 616.281 1791.46 614.245 1772.5 619.408 1754.87 C 625.327 1734.9 638.172 1722.51 656.014 1712.85 z"/>
<path transform="translate(0,0)" fill="rgb(184,78,91)" d="M 571.341 439.76 L 572.403 439.994 C 574.217 443.678 568.293 463.089 566.911 468.239 C 565.5 469.042 564.099 469.86 562.706 470.693 C 521.406 495.403 489.522 526.647 466.857 569.426 C 461.904 578.776 455.073 593.321 452.489 603.564 C 443.592 607.669 434.727 611.845 425.896 616.09 L 424.583 615.575 C 424.453 612.127 425.833 607.918 426.953 604.605 C 453.31 526.679 499.904 477.288 571.341 439.76 z"/>
<path transform="translate(0,0)" fill="rgb(33,48,70)" d="M 599.54 1650.33 C 621.982 1647.87 644.536 1659.74 658.817 1676.53 C 683.497 1705.55 676.862 1749.48 647.249 1772.35 C 642.88 1775.73 639.431 1778.93 633.569 1778.35 C 632.636 1776.46 632.836 1770.46 632.805 1767.99 C 659.416 1754.21 668.74 1722.38 656.121 1695.95 C 649.288 1681.93 637.218 1671.15 622.514 1665.95 C 606.611 1660.4 593.719 1662.73 579.214 1669.67 C 566.351 1677.54 556.452 1689.37 552.558 1704.12 C 548.929 1718.37 551.066 1733.48 558.507 1746.16 C 565.733 1758.56 578.529 1768.79 592.766 1771.34 C 598.899 1772.44 606.048 1773.08 611.854 1774.63 C 613.477 1777.59 613.04 1782.41 613.022 1785.96 C 594.149 1786.31 579.944 1783.88 564.458 1772.08 C 550.103 1761.04 540.693 1744.78 538.278 1726.83 C 533.171 1686.63 560.019 1655.3 599.54 1650.33 z"/>
<path transform="translate(0,0)" fill="rgb(53,160,160)" d="M 593.735 693.294 C 604.065 691.808 614.597 692.679 624.543 695.843 C 680.479 714.082 693.526 794.788 635.166 823.354 C 634.92 819.076 634.861 814.443 634.721 810.127 C 643.687 803.045 651.197 796.294 656.155 785.488 C 669.277 756.858 653.326 721.332 625.256 708.934 C 609.667 702.049 595.229 703.976 580.019 710.041 C 553.529 726.184 541.063 752.908 554.215 783.674 C 559.805 796.751 575.557 811.07 589.462 814.075 C 596.329 815.559 604.153 815.06 610.977 817.486 C 612.404 820.413 612.201 824.854 612.31 828.263 C 608.02 828.299 603.737 828.242 599.453 828.005 C 570.425 826.403 544.704 803.115 538.544 774.993 C 534.478 757.02 537.877 738.167 547.965 722.747 C 559.111 705.554 574.221 697.52 593.735 693.294 z"/>
<path transform="translate(0,0)" fill="rgb(33,48,70)" d="M 196.393 1146.58 C 203.279 1146.73 340.74 1212.69 354.843 1219.24 C 353.913 1227.08 353.048 1234.92 352.249 1242.77 C 351.123 1244.17 351.871 1243.62 349.605 1243.94 C 321.522 1229.58 291.641 1217.4 263.465 1203.22 C 238.305 1190.57 198.175 1180.57 196.393 1146.58 z"/>
<path transform="translate(0,0)" fill="rgb(33,48,70)" d="M 368.69 1223.23 C 378.531 1226.48 405.81 1239.48 416.544 1244.26 C 402.685 1271.34 385.54 1298.39 371.234 1326.42 L 360.439 1347.92 C 354.147 1345.23 348.276 1342.42 342.111 1339.45 C 355.618 1306.15 362.371 1259.36 368.69 1223.23 z"/>
<path transform="translate(0,0)" fill="rgb(33,48,70)" d="M 430.856 1251.72 C 434.863 1253.22 444.959 1258.37 449.303 1260.37 C 462.759 1266.47 476.183 1272.64 489.575 1278.87 C 518.641 1292.47 548.174 1305.38 576.932 1319.49 L 560.637 1326.07 C 546.895 1331.76 539.911 1330.09 527.024 1323.68 C 490.362 1305.47 452.164 1289.53 415.448 1271.58 C 420.916 1263.76 424.607 1258.92 430.856 1251.72 z"/>
<path transform="translate(0,0)" fill="rgb(34,110,107)" d="M 715.562 698.389 C 730.475 596.646 865.008 624.19 851.016 712.247 C 848.139 730.143 838.224 746.145 823.478 756.687 C 809.785 766.563 798.224 768.553 781.874 769.245 L 782.285 756.75 C 814.615 756.228 839.392 733.048 838.834 699.947 C 838.595 685.013 832.344 670.807 821.496 660.541 C 811.05 650.423 796.906 645.041 782.377 645.657 C 752.88 646.817 733.611 668.436 729.009 696.52 C 724.695 697.032 719.761 697.492 715.562 698.389 z"/>
<path transform="translate(0,0)" fill="rgb(33,48,70)" d="M 667.865 574.948 C 669.788 576.771 707.143 684.619 712.698 699.088 C 706.871 701.727 701.648 704.604 696.032 707.645 L 690.86 697.47 C 672.122 661.77 653.992 625.754 636.478 589.438 C 646.837 586.145 659.521 581.928 667.865 574.948 z"/>
<path transform="translate(0,0)" fill="rgb(184,78,91)" d="M 721.329 703.268 C 749.541 700.187 776.859 715.352 786.981 741.998 C 788.105 744.956 788.906 745.387 787.75 748.414 C 784.995 749.432 779.216 748.475 778.069 747.204 C 767.114 735.069 762.32 723.088 745.167 718.038 C 734.071 714.771 719.951 714.816 709.212 720.736 C 701.196 725.191 695.311 732.685 692.882 741.528 C 685.597 768.637 711.266 790.324 735.075 796.769 C 754.279 799.827 769.733 793.641 779.688 776.671 L 791.322 776.133 C 789.606 780.757 787.551 785.753 784.82 789.857 C 777.903 800.253 766.699 807.054 754.547 809.438 C 731.176 814.022 701.713 801.371 691.173 779.164 C 690.158 777.027 686.066 762.342 684.94 761.985 C 682.661 761.262 681.602 762.647 679.173 760.986 C 671.27 733.298 694.5 707.436 721.329 703.268 z"/>
<path transform="translate(0,0)" fill="rgb(33,48,70)" d="M 215.522 1190.97 C 230.243 1198.71 248.484 1206.77 263.636 1213.89 L 350.441 1254.49 C 349.957 1261.25 348.4 1270.53 347.441 1277.43 L 346.745 1278.52 C 342.803 1278.88 289.265 1252.74 281.542 1249.34 C 249.469 1235.19 225.961 1227.18 215.522 1190.97 z"/>
<path transform="translate(0,0)" fill="rgb(34,110,107)" d="M 652.444 754.861 L 653.964 755.274 C 655.566 757.825 655.759 763.322 656.101 766.597 C 626.578 787.008 620.509 829.651 644.671 855.918 C 654.98 867.082 669.335 873.647 684.523 874.144 C 699.354 874.562 713.713 868.91 724.279 858.495 C 737.696 845.407 740.104 832.458 740.333 814.964 L 752.901 815.711 C 752.978 820.953 752.262 826.585 751.737 831.834 C 742.041 870.741 708.717 894.073 668.84 884.15 C 651.657 879.841 636.894 868.874 627.807 853.668 C 607.362 819.592 617.882 775.278 652.444 754.861 z"/>
<path transform="translate(0,0)" fill="rgb(33,48,70)" d="M 816.513 1463.02 L 816.996 1463.52 C 818.148 1466.23 814.838 1479.91 813.528 1482.85 C 806.579 1498.46 775.674 1508.66 760.812 1515.01 L 694.314 1543.23 L 693.21 1541.9 C 691.228 1533.37 695.724 1521.65 699.012 1513.78 C 737.273 1499.21 778.738 1479.7 816.513 1463.02 z"/>
<path transform="translate(0,0)" fill="rgb(53,160,160)" d="M 197.948 202.588 C 244.645 222.336 291.923 244.165 337.818 265.77 C 357.167 274.879 363.773 300.507 368.648 319.534 L 367.566 320.992 C 364.496 321.719 363.693 321.406 360.731 320.73 C 357.725 314.895 355.144 304.01 352.886 297.166 C 344.687 272.32 316.183 264.721 293.763 254.76 C 275.82 246.878 257.981 238.759 240.251 230.406 C 230.391 226.077 220.581 221.634 210.822 217.08 C 225.605 255.874 238.666 260.431 276.323 276.902 C 290.701 283.192 306.025 290.569 320.582 296.811 C 324.536 298.506 333.8 301.321 335.782 304.314 C 335.726 307.696 335.58 306.924 333.673 310.152 C 329.086 311.196 275.966 285.378 267.036 282.064 C 222.718 265.616 210.23 247.413 197.948 202.588 z"/>
<path transform="translate(0,0)" fill="rgb(33,48,70)" d="M 814.537 507.985 C 815.098 508.13 815.949 508.646 816.509 508.943 C 811.71 542.688 800.46 540.245 772.877 553.003 C 746.621 565.146 716.855 574.553 691.881 588.808 C 686.31 581.868 693.802 567.952 696.37 560.172 C 733.315 542.904 779.377 526.045 814.537 507.985 z"/>
<path transform="translate(0,0)" fill="rgb(33,48,70)" d="M 602.703 1549.15 C 614.822 1551.96 621.784 1556.98 629.548 1566.24 C 592.945 1578.36 557.376 1594.3 520.679 1606.15 C 519.102 1606.66 517.196 1606.3 515.697 1605.72 C 505.426 1601.84 493.697 1597.74 483.897 1593.04 C 523.65 1578.82 563.253 1564.19 602.703 1549.15 z"/>
<path transform="translate(0,0)" fill="rgb(33,48,70)" d="M 410.209 1280.24 C 421.084 1283.95 443.108 1294.6 454.158 1299.81 C 478.601 1311.34 505.535 1323.04 529.353 1335.48 C 523.443 1338.07 518.04 1341.22 512.414 1344.37 C 511.009 1345.03 509.531 1345.7 508.067 1346.21 C 505.371 1347.14 502.458 1347.25 499.702 1346.51 C 489.862 1343.86 473.466 1335.48 463.724 1331.03 L 396.984 1300.5 C 401.413 1294.05 405.907 1286.84 410.209 1280.24 z"/>
<path transform="translate(0,0)" fill="rgb(33,48,70)" d="M 603.002 592.034 C 610.976 591.17 623.425 603.473 628.412 609.108 C 598.263 616.732 543.697 646.728 515.449 647.098 C 503.033 644.839 500.114 643.37 488.937 637.27 C 526.503 622.202 565.913 607.42 603.002 592.034 z"/>
<path transform="translate(0,0)" fill="rgb(33,48,70)" d="M 307.393 1388.25 C 316.693 1387.59 323.592 1386.76 332.346 1390.98 C 346.512 1398.31 355.045 1413.59 360.123 1428.14 C 369.754 1455.74 364.919 1485.25 333.851 1495.69 C 326.493 1498.09 317.045 1498.81 309.366 1498.42 C 297.951 1497.84 271.863 1485.05 268.494 1474.15 L 269.838 1472.1 L 275.849 1463.94 C 276.067 1464.29 276.29 1464.63 276.519 1464.97 C 289.225 1483.92 319.797 1492.61 339.236 1478.82 C 346.238 1473.78 350.902 1466.13 352.165 1457.6 C 354.324 1443.03 347.376 1424.28 338.662 1412.85 C 327.459 1398.15 318.369 1397.38 301.405 1401.63 C 298.742 1402.3 294.736 1403.43 292.095 1403.04 C 290.555 1400.37 290.681 1395.42 290.535 1392.17 C 296.721 1390.29 301.072 1389.44 307.393 1388.25 z"/>
<path transform="translate(0,0)" fill="rgb(33,48,70)" d="M 801.212 549.898 C 802.019 550.066 802.138 550.355 802.897 550.956 C 801.076 559.195 796.529 575.489 788.802 578.983 C 760.196 591.917 725.133 609.105 695.618 618.805 C 693.214 611.988 690.923 598.498 698.913 594.468 C 731.88 577.841 767.996 565.951 801.212 549.898 z"/>
<path transform="translate(0,0)" fill="rgb(33,48,70)" d="M 799.698 1506.96 L 800.85 1507.73 C 802.929 1514.8 796.343 1532.13 790.074 1535.45 C 779.019 1541.3 704.825 1574.58 698.801 1573.61 C 696.905 1566.87 695.219 1559.54 693.518 1552.7 C 725.844 1536.46 764.772 1524.32 799.698 1506.96 z"/>
<path transform="translate(0,0)" fill="rgb(33,48,70)" d="M 239.843 1239.86 C 243.802 1241.52 247.934 1243.55 251.807 1245.46 C 282.693 1260.67 314.58 1274.24 345.293 1289.75 C 343.864 1295.91 342.702 1304.6 341.661 1311 L 341.333 1312.65 C 340.744 1312.79 340.155 1312.93 339.565 1313.07 C 319.989 1303.49 292.655 1291.95 274.028 1282.4 C 255.466 1272.88 245.433 1258.54 239.843 1239.86 z"/>
<path transform="translate(0,0)" fill="rgb(33,48,70)" d="M 392.423 1308.36 C 423.151 1322.1 456.738 1337.64 486.584 1352.97 L 469.252 1360.66 C 466.964 1361.88 461.754 1363.6 459.087 1364.56 C 446.267 1362 396.095 1337.11 380.587 1330.13 C 383.958 1323.07 388.556 1315.27 392.423 1308.36 z"/>
<path transform="translate(0,0)" fill="rgb(33,48,70)" d="M 631.563 1573.95 L 633.636 1574.33 C 637.884 1579.3 642.539 1587.31 646.116 1593.07 C 620.912 1603.94 591.542 1614.42 565.765 1623.98 L 551.538 1619.04 C 545.074 1616.32 538.534 1614.07 531.929 1611.72 C 563.238 1598.71 599.566 1586.01 631.563 1573.95 z"/>
<path transform="translate(0,0)" fill="rgb(33,48,70)" d="M 272.895 1397.09 C 275.684 1398.35 283.125 1392.74 286.507 1391.03 L 287.11 1392.78 C 288.448 1408.7 290.608 1420.89 303.418 1432.06 C 315.219 1442.34 333.12 1444.61 347.953 1441.75 L 348.014 1458.49 C 345.028 1458.43 327.772 1457.1 326.796 1457.9 C 330.858 1464.83 333.85 1468.44 337.736 1475.9 C 333.289 1477.67 327.592 1480.13 323.108 1481.46 C 318.796 1455.89 297.424 1451.17 275.903 1460.21 C 274.26 1456.79 272.171 1452.73 270.843 1449.25 C 289.272 1440.78 290.238 1446.92 299.313 1443.91 C 285.365 1437.04 273.353 1417.97 273.767 1402.37 L 272.895 1397.09 z"/>
<path transform="translate(0,0)" fill="rgb(226,227,227)" d="M 272.895 1397.09 C 275.684 1398.35 283.125 1392.74 286.507 1391.03 L 287.11 1392.78 C 283.116 1395.52 277.283 1399.28 273.767 1402.37 L 272.895 1397.09 z"/>
<path transform="translate(0,0)" fill="rgb(53,160,160)" d="M 406.555 226.031 C 421.283 224.518 435.003 228.808 442.379 242.587 C 446.041 249.296 446.848 257.198 444.616 264.509 C 438.978 282.979 427.837 281.66 416.865 288.476 C 413.572 290.522 405.512 324.105 398.907 327.564 L 395.578 326.246 C 392.711 319.476 407.415 287.109 410.997 278.132 C 430.3 278.822 442.26 263.852 434.08 245.729 C 432.554 243.371 430.688 241.251 428.541 239.439 C 407.195 221.269 373.927 254.052 404.838 276.594 C 401.253 285.274 390.239 317.97 386.19 322.781 C 382.557 322.667 382 322.517 378.581 321.365 C 379.218 317.946 391.89 285.704 394.314 279.077 C 390.814 275.546 388.033 271.854 386.128 267.236 C 382.953 259.608 383.037 251.014 386.362 243.45 C 390.453 234.159 397.434 229.478 406.555 226.031 z"/>
<path transform="translate(0,0)" fill="rgb(33,48,70)" d="M 630.304 616.892 C 637.956 617.815 643.366 629.947 646.454 636.284 C 616.734 641.4 584.946 666.207 554.694 662.46 C 547.05 660.443 541.352 658.734 534.605 654.593 C 544.508 649.452 557.374 645.46 567.813 641.369 C 588.317 633.333 610.269 625.86 630.304 616.892 z"/>
<path transform="translate(0,0)" fill="rgb(33,48,70)" d="M 779.118 593.99 L 779.955 594.663 C 781.055 597.666 778.601 606.331 777.337 609.487 C 772.041 622.712 755.922 628.292 744.06 633.2 C 729.525 639.215 715.551 644.921 701.287 650.754 C 698.873 644.147 696.597 630.22 703.799 626.568 C 727.273 614.667 754.904 603.876 779.118 593.99 z"/>
<path transform="translate(0,0)" fill="rgb(33,48,70)" d="M 272.895 1397.09 C 276.493 1364.5 284.907 1360.79 313.78 1353.91 C 344.397 1346.61 365.855 1355.36 377.997 1384.99 C 374.304 1389.4 372.717 1391.52 367.975 1394.98 C 359 1370 340.961 1360.29 314.512 1365.05 C 304.431 1366.87 291.546 1372.57 288.898 1383.48 C 288.185 1386.42 288.493 1388.62 286.507 1391.03 C 283.125 1392.74 275.684 1398.35 272.895 1397.09 z"/>
<path transform="translate(0,0)" fill="rgb(33,48,70)" d="M 641.711 645.976 C 653.933 644.291 661.08 657.325 667.749 666.044 C 661.275 668.021 652.484 669.623 645.655 671.348 C 632.958 674.553 619.653 680.302 606.726 680.878 C 594.845 679.291 589.2 677.384 579.218 671.033 C 596.472 662.708 622.975 653.343 641.711 645.976 z"/>
<path transform="translate(0,0)" fill="rgb(33,48,70)" d="M 767.334 812.036 C 767.395 812.051 767.461 812.055 767.518 812.082 C 771.662 814.059 799.329 880.422 803.378 889.698 L 791.426 896.343 C 790.283 896.986 789.348 896.972 788.046 897.119 C 784.636 894.284 764.877 844.004 760.614 836.564 C 757.967 831.945 756.365 822.277 757.755 816.687 C 759.632 814.138 764.183 813.082 767.334 812.036 z"/>
<path transform="translate(0,0)" fill="rgb(33,48,70)" d="M 398.71 1183.41 C 405.663 1181.31 413.205 1183.14 418.43 1188.18 C 423.655 1193.23 425.748 1200.7 423.903 1207.72 C 422.057 1214.74 416.561 1220.22 409.532 1222.05 C 398.951 1224.79 388.121 1218.56 385.173 1208.03 C 382.225 1197.51 388.244 1186.56 398.71 1183.41 z"/>
<path transform="translate(0,0)" fill="rgb(33,48,70)" d="M 382.122 1339.24 C 389.143 1342.93 396.971 1353.18 399.396 1360.85 C 402.534 1370.8 401.551 1381.6 396.667 1390.82 C 388.945 1405.42 378.281 1411.12 363.502 1415.68 L 359.019 1416.24 C 356.12 1413.78 355.301 1409.81 353.631 1405.79 C 383.964 1396.88 398.067 1378.73 378.111 1349.79 L 382.122 1339.24 z"/>
<path transform="translate(0,0)" fill="rgb(53,160,160)" d="M 721.702 720.788 C 722.382 721.733 723.075 722.669 723.779 723.596 C 739.222 743.893 757.286 753.332 782.285 756.75 L 781.874 769.245 C 757.583 767.797 718.157 750.188 708.051 727.436 C 712.095 725.003 717.345 722.783 721.702 720.788 z"/>
<path transform="translate(0,0)" fill="rgb(34,110,107)" d="M 697.168 744.624 C 723.773 749.415 742.69 761.4 756.199 785.289 C 757.565 787.704 757.592 787.64 756.781 790.03 C 750.865 791.67 747.152 791.995 741.101 792.669 C 736.127 777.655 727.478 767.322 712.494 760.908 C 707.504 758.772 702.563 758.1 697.689 755.303 C 695.964 752.456 696.848 748.099 697.168 744.624 z"/>
<path transform="translate(0,0)" fill="rgb(53,160,160)" d="M 225.836 266.735 L 238.664 273.82 C 243.629 283.55 248.179 292.189 256.375 299.637 C 263.664 306.26 271.781 310.759 280.769 314.697 C 291.034 319.194 301.32 323.726 311.701 327.95 C 311.946 328.509 312.191 329.068 312.436 329.627 L 310.557 333.457 C 309.453 334.432 308.68 334.758 307.399 335.426 C 306.295 335.219 304.501 334.818 303.491 334.359 C 254.563 312.112 247.888 314.055 225.836 266.735 z"/>
<path transform="translate(0,0)" fill="rgb(33,48,70)" d="M 639.577 546.597 C 645.328 544.671 651.673 546.069 656.082 550.234 C 660.492 554.399 662.25 560.653 660.655 566.505 C 659.06 572.357 654.372 576.855 648.46 578.207 C 639.916 580.161 631.343 575.068 628.972 566.631 C 626.601 558.194 631.267 549.38 639.577 546.597 z"/>
<path transform="translate(0,0)" fill="rgb(33,48,70)" d="M 639.419 1502.69 C 647.885 1499.59 657.262 1503.96 660.328 1512.44 C 663.395 1520.92 658.981 1530.28 650.488 1533.3 C 642.049 1536.31 632.766 1531.93 629.719 1523.51 C 626.673 1515.08 631.008 1505.78 639.419 1502.69 z"/>
<path transform="translate(0,0)" fill="rgb(33,48,70)" d="M 734.624 1662.3 C 761.893 1665.12 782.013 1684.43 788.369 1710.67 L 776.215 1709.81 C 767.568 1690.76 758.733 1678.86 736.622 1675.59 C 736.099 1671.25 735.297 1666.64 734.624 1662.3 z"/>
<path transform="translate(0,0)" fill="rgb(33,48,70)" d="M 270.897 1405.86 C 272.062 1406.96 275.937 1418.07 276.886 1420.54 C 265.831 1433.62 264 1446.76 273.12 1461.55 L 265.81 1472.37 C 260.479 1465.78 255.379 1449.8 255.555 1441.39 C 255.875 1426.1 260.753 1416.44 270.897 1405.86 z"/>
<path transform="translate(0,0)" fill="rgb(33,48,70)" d="M 338.13 1499.32 L 339.067 1500.48 C 329.955 1522.52 302.85 1528.1 282.068 1530.53 L 281.635 1530.29 C 282.126 1528.49 287.387 1526.35 289.559 1524.98 C 301.609 1517.38 311.32 1512.85 320.187 1501.39 C 327.853 1501.17 330.646 1500.9 338.13 1499.32 z"/>
<path transform="translate(0,0)" fill="rgb(33,48,70)" d="M 255.816 1462.4 C 257.044 1463.51 263.236 1473.81 264.773 1476.23 C 264.37 1487.18 266.331 1497.84 267.951 1508.63 C 268.665 1513.39 270.786 1519.93 270.561 1524.43 L 269.51 1524.4 C 255.034 1503.17 246.957 1488.32 255.816 1462.4 z"/>
<path transform="translate(0,0)" fill="rgb(33,48,70)" d="M 325.76 1317 L 326.948 1318.5 C 328.123 1330.36 319.336 1332.62 312.929 1341.44 C 311.605 1343.26 310.001 1348.03 309.233 1350.28 C 304.826 1350.93 299.494 1352.55 295.115 1353.75 L 294.004 1352.52 C 293.108 1335.92 312.174 1322.52 325.76 1317 z"/>
<path transform="translate(0,0)" fill="rgb(33,48,70)" d="M 387.736 1407.85 C 390.38 1411.04 389.313 1419.85 388.295 1423.72 C 385.345 1434.92 377.373 1446.66 367.391 1452.75 C 366.974 1447.28 365.768 1440.92 364.877 1435.43 C 371.326 1429.27 374.686 1424.64 377.256 1416.1 C 381.766 1413.13 383.722 1411.49 387.736 1407.85 z"/>
<path transform="translate(0,0)" fill="rgb(53,160,160)" d="M 249.098 312.725 C 252.547 314.306 257.63 317.298 261.1 319.192 C 264.005 324.873 269.574 334.563 273.85 339.08 L 274.37 339.623 C 280.277 345.853 292.463 349.079 295.334 352.596 L 293.417 356.845 L 291.444 358.346 C 270.343 358.355 256.399 328.846 249.098 312.725 z"/>
<path transform="translate(0,0)" fill="rgb(33,48,70)" d="M 303.994 1406.11 C 315.783 1404.88 324.541 1405.45 333.492 1414.5 C 336.242 1417.28 340.277 1422.99 338.623 1426.97 L 334.655 1425.41 C 320.768 1417.55 314.462 1417.63 299.11 1416.52 C 296.731 1416.35 294.709 1415 293.293 1413.03 L 293.872 1410.81 C 296.814 1407.64 299.767 1407.26 303.994 1406.11 z"/>
<path transform="translate(0,0)" fill="rgb(33,48,70)" d="M 309.3 1371.1 L 311.362 1371.06 C 314.083 1373.94 320.287 1379.05 319.132 1383.09 L 315.006 1383.61 C 311.632 1383.87 310.268 1383.92 306.885 1383.64 C 303.27 1382.08 301.206 1377.68 299.07 1374.2 L 309.3 1371.1 z"/>
</svg>