<svg version="1.1" xmlns="http://www.w3.org/2000/svg" style="display: block;" viewBox="0 0 2048 2048" width="1024" height="1024" preserveAspectRatio="none">
<path transform="translate(0,0)" fill="rgb(255,255,255)" d="M 0 0 L 2048 0 L 2048 2048 L 0 2048 L 0 0 z"/>
<path transform="translate(0,0)" fill="rgb(27,52,79)" d="M 1703.95 652.156 C 1731.35 649.054 1745.17 671.871 1737.86 696.877 C 1744.44 705.589 1750.79 713.221 1755.96 723.059 C 1764.47 739.268 1758.03 757.326 1759.44 774.862 C 1759.43 774.807 1755.94 781.948 1755.44 783.437 L 1759.66 790.756 C 1764.51 799.029 1765.84 814.33 1767.26 824.297 C 1783.49 845.711 1796.22 859.599 1808.57 884.79 C 1813.53 883.993 1819.06 883.52 1823.23 886.682 C 1839.66 899.141 1845.62 924.092 1851.95 942.495 C 1868.11 989.475 1807.78 1014.61 1772.56 1022.05 C 1773.39 1027.95 1774.17 1033.95 1774.85 1039.85 C 1779.44 1079.51 1791.57 1117.77 1803.64 1155.72 C 1816.54 1196.32 1832.22 1237.38 1839.74 1279.4 C 1842.21 1293.14 1835.76 1298.92 1827.73 1308.9 C 1833.1 1321.93 1839.14 1324.1 1845.76 1335.42 C 1851.91 1346.71 1839.25 1354.16 1836.53 1364.61 C 1831.93 1382.27 1819.12 1402.35 1798.41 1400.56 C 1790.35 1399.86 1778.59 1396.6 1773.95 1389.27 C 1772.75 1377.34 1810.92 1363.96 1795.32 1324.42 C 1784.15 1326.27 1753.83 1335.28 1747.04 1334.49 C 1743.67 1330.57 1742.27 1325.25 1740.47 1320.25 L 1727.67 1286.72 C 1725.41 1299.83 1722.19 1312.6 1719.1 1325.54 C 1711.4 1329.23 1708.19 1329.85 1700.08 1331.06 C 1700.03 1332.58 1700.07 1336.74 1699.92 1338.02 C 1698.39 1351.28 1711.55 1371.87 1703.77 1383.8 C 1697.22 1393.86 1681.57 1385.9 1673.39 1389.05 C 1660.96 1393.84 1655.18 1399.49 1640.96 1400.84 C 1631.43 1401.74 1615.67 1398.55 1607.49 1392.52 C 1605.29 1390.91 1605.45 1388.89 1605.3 1386.68 C 1609.73 1375.99 1626.78 1372.84 1637.61 1367.38 C 1659.85 1356.18 1660.81 1352.16 1668.74 1329.53 C 1658.83 1327.67 1648.11 1326.73 1638.03 1325.64 C 1637.35 1298.16 1637.95 1267.92 1637.96 1240.26 C 1637.7 1183.59 1638.13 1126.92 1639.25 1070.26 C 1633.06 1065.26 1631.97 1064.2 1626.8 1058.1 C 1627.52 1049.86 1628.59 1039.2 1631.4 1031.38 C 1635.29 1018.35 1653.18 998.994 1654.47 986.38 C 1659.02 942.066 1635.85 890.954 1650.48 848.162 C 1652.79 841.421 1663.52 829.826 1668.3 822.888 C 1668.25 821.885 1667.84 816.297 1667.96 815.62 C 1670.14 803.184 1683.18 792.473 1691.94 784.171 C 1691.76 779.865 1691.83 775.086 1691.8 770.735 C 1686.81 771.486 1681.45 772.022 1676.41 772.618 C 1666.26 767.912 1667.59 765.555 1661.25 756.783 C 1655.03 748.156 1657.87 746.153 1660.3 735.241 C 1654.99 729.68 1649.35 723.074 1649.64 715.013 C 1650.57 689.645 1679.74 683.011 1698.94 682.349 C 1689.08 668.692 1685.49 660.055 1703.95 652.156 z"/>
<path transform="translate(0,0)" fill="rgb(255,255,255)" d="M 1716.7 945.933 C 1718.01 948.017 1716.87 967.202 1717.28 971.065 C 1720.74 1004.16 1725.91 1032.06 1765.91 1023.04 C 1771.61 1090.99 1793.52 1143.71 1813.09 1208.58 C 1819.76 1230.69 1831.92 1265.08 1833.78 1287.63 C 1822.97 1309.97 1804.46 1314.38 1782.61 1319.16 C 1772.96 1321.11 1760.53 1325.18 1750.76 1327.98 C 1738.34 1297.16 1726.96 1264.81 1714.87 1233.58 C 1700.7 1196.98 1684.88 1157.12 1676.05 1119.02 C 1671.47 1099.23 1670.15 1073.04 1669.14 1052.67 C 1684.25 1034.44 1672.07 1025.48 1679.55 1010.49 C 1690.24 989.073 1705.46 967.897 1716.7 945.933 z"/>
<path transform="translate(0,0)" fill="rgb(255,255,255)" d="M 1663.19 1047.12 C 1659.9 1128.87 1694.14 1200.26 1723.49 1275.23 C 1720.77 1287.72 1716.6 1311.49 1712.24 1322.24 C 1686.71 1324.95 1668.96 1320.64 1645.09 1319.88 L 1645.6 1152.24 L 1646.12 1096.47 C 1646.19 1088.13 1646.7 1074.88 1646.08 1067.06 C 1648.22 1066.3 1652.24 1066.37 1653.77 1065.5 C 1659.5 1062.25 1659.12 1054.66 1662.6 1048.18 L 1663.19 1047.12 z"/>
<path transform="translate(0,0)" fill="rgb(153,215,201)" d="M 1815.59 894.172 C 1826.14 894.093 1830.92 907.548 1833.9 915.754 C 1819.36 944.41 1786.44 954.657 1756.66 943.2 C 1753.24 941.884 1748.41 938.523 1745.19 936.491 C 1771.58 968.98 1817.85 954.99 1836.76 921.999 C 1843.39 940.131 1845.92 946.761 1845.92 966.055 C 1840.19 988.199 1804.3 1004.22 1784.25 1010.28 C 1780.47 1011.42 1771.63 1012.21 1768.68 1009.18 C 1749.78 989.743 1739.84 951.639 1734.24 925.72 C 1757.01 912.196 1789.42 900.059 1815.59 894.172 z"/>
<path transform="translate(0,0)" fill="rgb(255,255,255)" d="M 1664.23 974.855 C 1667.13 919.383 1656.79 871.484 1696.24 825.886 C 1706.38 814.171 1726.98 782.134 1743.17 782.067 C 1767.47 794.112 1754.93 853.85 1749.97 873.585 C 1740.31 874.017 1714.5 873.085 1705.89 870.374 L 1701.35 868.486 C 1699.17 874.356 1695.97 895.975 1693.71 905.039 C 1686.7 933.27 1677.48 949.759 1664.23 974.855 z"/>
<path transform="translate(0,0)" fill="rgb(42,55,72)" d="M 1709.91 842.387 C 1708.39 851.551 1706.58 861.15 1705.89 870.374 L 1701.35 868.486 C 1704.04 858.442 1706.12 852.045 1709.91 842.387 z"/>
<path transform="translate(0,0)" fill="rgb(255,255,255)" d="M 1668.05 731.473 C 1663.9 726.817 1662.3 725.723 1661.04 719.024 C 1659.63 711.55 1668.24 705.217 1675 705.764 C 1684 706.492 1686.82 726.758 1697.05 726.42 C 1704.33 726.18 1707.05 714.131 1715.24 715.233 C 1727.45 725.043 1712.42 731.974 1709.95 741.604 C 1711.11 745.465 1713.88 742.093 1715.15 744.908 C 1721.72 759.36 1723.59 763.865 1736.01 774.1 C 1730.19 777.397 1724.71 781.261 1719.66 785.634 C 1707.6 795.927 1701.78 803.995 1692.51 816.065 C 1670.04 845.328 1661.65 865.707 1658.82 902.413 C 1656.64 910.794 1659.24 919.273 1656.3 923.913 C 1653.65 900.215 1647.23 867.236 1659.86 845.865 C 1662.21 841.667 1667.62 836.863 1670.09 833.225 C 1673.84 827.704 1694.85 810.572 1693.92 805.167 L 1692.15 804.621 C 1685.66 806.346 1679.3 813.009 1674.42 817.617 C 1680.12 803.739 1689.4 798.91 1699.82 788.068 C 1700.56 784.984 1699.15 767.941 1698.32 765.075 C 1690.54 759.465 1685.61 767.984 1675.22 764.48 C 1670.37 759.99 1673.55 755.318 1665.92 746.946 L 1668.05 731.473 z"/>
<path transform="translate(0,0)" fill="rgb(255,255,255)" d="M 1706.26 879.63 C 1714.36 879.845 1724.06 881.346 1732.22 882.388 C 1721.11 910.281 1712.47 939.806 1697.56 965.679 C 1687.18 983.695 1672.94 1000.08 1662.74 1018.28 C 1658.53 1025.8 1662.7 1031.79 1664.59 1039.81 C 1664.39 1043.74 1665 1044.31 1663.19 1047.12 L 1662.6 1048.18 C 1659.12 1054.66 1659.5 1062.25 1653.77 1065.5 C 1652.24 1066.37 1648.22 1066.3 1646.08 1067.06 C 1643.57 1067.69 1644.83 1067.67 1642.31 1067.12 L 1641.28 1064.8 C 1641.54 1061.07 1641.37 1060.32 1643.32 1057.03 C 1643.11 1048.42 1639.75 1043.45 1634.96 1036.88 C 1658.9 994.088 1691.39 952.415 1701.45 903.382 C 1703.07 895.468 1704.68 887.552 1706.26 879.63 z"/>
<path transform="translate(0,0)" fill="rgb(40,56,86)" d="M 1643.32 1057.03 L 1644.46 1057.43 L 1646.59 1055.25 L 1648.37 1055.41 L 1651 1059.44 L 1652.63 1059.16 C 1657.08 1052.97 1653.79 1041.82 1661.4 1038.26 L 1664.59 1039.81 C 1664.39 1043.74 1665 1044.31 1663.19 1047.12 L 1662.6 1048.18 C 1659.12 1054.66 1659.5 1062.25 1653.77 1065.5 C 1652.24 1066.37 1648.22 1066.3 1646.08 1067.06 C 1643.57 1067.69 1644.83 1067.67 1642.31 1067.12 L 1641.28 1064.8 C 1641.54 1061.07 1641.37 1060.32 1643.32 1057.03 z"/>
<path transform="translate(0,0)" fill="rgb(255,255,255)" d="M 1826.05 1321.12 C 1831.31 1327.46 1836.85 1333.81 1841.35 1340.69 C 1838.49 1346.97 1835.09 1350.43 1832.23 1355.98 C 1827.2 1365.74 1826.22 1378.63 1817.67 1386.78 C 1811.55 1392.62 1804.65 1393.75 1796.62 1393.68 C 1789.71 1391.81 1787.38 1390.74 1780.95 1387.78 C 1792.53 1376.34 1802.81 1366.22 1805.84 1349.39 C 1806.98 1343.04 1808.58 1339.44 1805.95 1333.09 C 1808.35 1330.4 1817.86 1328.09 1825.09 1321.95 L 1826.05 1321.12 z"/>
<path transform="translate(0,0)" fill="rgb(255,255,255)" d="M 1667 1353.66 C 1678.57 1358.12 1684.99 1359.56 1697.33 1357.75 C 1698.57 1364.95 1700.59 1371.62 1698.09 1378.31 C 1692.52 1384.56 1679.16 1380.1 1670.48 1383.18 C 1661.7 1386.28 1655.41 1389.44 1646.35 1391.87 C 1636.08 1393.68 1621.2 1393.17 1612.42 1387.03 C 1613.21 1383.51 1641.25 1374.55 1647.01 1370.7 C 1655.6 1364.98 1660.17 1362.05 1667 1353.66 z"/>
<path transform="translate(0,0)" fill="rgb(153,215,201)" d="M 1727.26 928.456 C 1729.84 930.63 1733 947.839 1733.78 952.166 C 1735.65 962.509 1739.83 972.293 1742.22 982.176 C 1744.93 993.411 1757.11 1005.22 1759.58 1014.01 L 1757.78 1015.3 C 1752.14 1016.02 1744.08 1017.01 1739.47 1013.3 C 1724.57 1001.3 1719.08 941.063 1727.26 928.456 z"/>
<path transform="translate(0,0)" fill="rgb(255,255,255)" d="M 1762.52 845.852 C 1763.92 847.253 1771.38 888.805 1773.16 894.817 C 1757.54 900.732 1748.54 905.191 1734.3 913.698 L 1726.46 919.136 C 1730.75 906.672 1735.88 894.517 1741.83 882.757 C 1746.8 882.198 1751.7 881.295 1756.63 880.456 C 1759.25 871.939 1761.33 855.152 1762.52 845.852 z"/>
<path transform="translate(0,0)" fill="rgb(255,255,255)" d="M 1770.94 841.74 C 1775.38 845.896 1799.95 881.303 1799.87 886.006 L 1797.76 886.731 C 1791.37 888.266 1785.12 890.392 1778.85 892.393 C 1775.89 876.489 1773.45 857.939 1770.94 841.74 z"/>
<path transform="translate(0,0)" fill="rgb(255,255,255)" d="M 1674.98 1329.82 C 1681.18 1331.08 1687.15 1330.92 1693.47 1331.01 C 1693.31 1335.79 1693.62 1347.91 1690.84 1351.19 C 1670.39 1352.16 1668.79 1348.45 1674.98 1329.82 z"/>
<path transform="translate(0,0)" fill="rgb(255,255,255)" d="M 1820.49 1312.91 L 1821.56 1313.71 L 1821.61 1315.5 C 1817.59 1321.33 1810.95 1323.33 1804.41 1326.04 L 1802.94 1323.95 L 1803.24 1322.22 C 1805.41 1320.41 1816.45 1315.23 1820.49 1312.91 z"/>
<path transform="translate(0,0)" fill="rgb(227,230,230)" d="M 1656.3 923.913 C 1659.24 919.273 1656.64 910.794 1658.82 902.413 C 1658.88 908.303 1659.62 943.461 1658.89 946.842 C 1657.32 938.681 1656.92 932.233 1656.3 923.913 z"/>
<path transform="translate(0,0)" fill="rgb(93,102,135)" d="M 1669.95 1020.49 L 1671.66 1022.15 C 1672.52 1028.35 1671.89 1033.67 1671.49 1039.9 L 1670.53 1039.1 C 1669.57 1034.02 1669.91 1025.95 1669.95 1020.49 z"/>
<path transform="translate(0,0)" fill="rgb(40,56,86)" d="M 353.189 671.343 C 373.442 670.47 411.32 673.365 409.192 700.465 C 408.765 705.902 404.997 710.578 404.678 716.702 C 404.177 726.351 412.903 742.447 402.625 748.512 C 400.97 749.488 402.344 759.857 401.975 762.903 C 401.512 766.853 399.447 770.439 396.264 772.822 C 389.45 777.857 376.623 773.989 368.258 772.475 C 365.192 775.348 361.8 778.942 358.79 781.967 C 376.179 822.843 375.596 835.533 377.387 879.491 C 378.143 895.465 379.111 911.429 380.291 927.377 C 385.159 995.494 390.784 1063.6 392.235 1131.9 C 392.38 1138.71 392.337 1145.5 392.028 1152.31 L 382.644 1154.69 C 385.604 1198.46 394.27 1248.89 402.139 1291.78 C 405.308 1309.06 409.462 1337.1 414.486 1352.84 C 426.823 1363.41 451.497 1368.42 468.473 1371.53 C 484.534 1374.46 500.058 1386.89 477.508 1396.61 C 462.078 1403.26 432.094 1397.96 415.812 1395.89 C 397.667 1393.59 374.742 1394.93 380.882 1368.22 C 381.723 1363.99 383.563 1348.24 382.698 1343.87 C 376.747 1313.81 359.97 1286.58 352.145 1257.04 C 347.604 1239.99 348.014 1225.98 345.638 1209.13 C 343.982 1197.39 337.738 1183.4 334.352 1171.86 L 318.14 1176.6 C 311.448 1178.48 299.846 1180.04 292.49 1181.36 C 275.158 1201.76 267.222 1221.87 260.817 1247.36 C 257.314 1261.3 241.917 1329.17 249.955 1338.04 C 255.817 1344.51 283.824 1345.14 292.609 1346.93 C 298.674 1348.16 311.57 1351.54 314.373 1357.62 C 315.497 1360.05 315.606 1361.61 314.706 1364.12 C 313.563 1367.31 310.233 1369.93 307.258 1371.27 C 296.94 1375.92 232.996 1375.18 222.03 1370.3 C 219.437 1369.15 217.849 1367.35 216.98 1364.66 C 213.158 1352.81 218.733 1330.32 219.853 1317.54 C 222.592 1286.27 216.466 1251.15 223.493 1221.16 C 228.048 1201.73 238.65 1183.45 247.566 1165.71 C 227.487 1154.07 204.057 1138.7 193.429 1117.21 C 194.798 1112.25 195.659 1107.18 196.751 1102.15 C 216.195 1012.48 229.433 918.858 267.119 834.499 C 274.799 817.308 284.16 801.736 296.375 787.372 C 304.969 777.264 316.51 769.604 322.17 757.576 C 299.21 721.568 305.211 678.319 353.189 671.343 z"/>
<path transform="translate(0,0)" fill="rgb(255,255,255)" d="M 322.608 771.857 C 334.797 790.377 351.115 800.151 354.807 825.578 C 358.927 853.951 359.086 881.294 359.128 909.862 C 359.359 946.754 358.623 983.646 356.919 1020.5 C 356.548 1028.98 355.704 1057.02 354.033 1063.89 C 351.726 1065.82 351.11 1065.71 348.206 1066.44 C 337.845 1063.71 344.163 1049.9 333.004 1048.15 L 333.129 1049.39 C 338.28 1060.93 344.345 1068.08 327.865 1069.62 L 323.924 1069.92 C 320.827 1071.02 319.845 1071.61 316.533 1071.31 C 314.315 1068.89 314.494 1065.17 314.172 1061.71 L 313.837 1056.69 C 313.08 1056.5 309.728 1056.68 308.726 1056.71 C 306.455 1054.17 305.35 1053.9 302.305 1052.48 L 303.494 1068.82 C 300.98 1076.79 294.131 1079 286.6 1076.33 C 283.454 1076.53 278.032 1076.76 275.835 1078.99 C 267.555 1087.4 273.436 1108.77 279.643 1116.27 C 280.602 1127.95 280.974 1146.94 289.67 1154.94 C 301.905 1159.54 361.815 1146.53 377.932 1143.52 C 375.962 1145.11 373.894 1146.57 371.739 1147.9 C 356.777 1157.29 316.834 1170.5 298.936 1171.68 C 268.68 1173.67 216.714 1143.03 201.429 1117.96 C 203.822 1099.51 209.267 1075.9 213.431 1057.56 C 232.805 972.217 251.656 828.57 322.608 771.857 z"/>
<path transform="translate(0,0)" fill="rgb(27,52,79)" d="M 327.105 844.141 C 334.497 869.33 331.058 923.355 319.779 944.744 C 319.506 944.923 319.231 945.098 318.961 945.28 C 315.274 947.76 313.107 950.082 312.342 954.584 C 310.575 964.983 331.376 1027.1 333.004 1048.15 L 333.129 1049.39 C 338.28 1060.93 344.345 1068.08 327.865 1069.62 L 323.924 1069.92 C 320.827 1071.02 319.845 1071.61 316.533 1071.31 C 314.315 1068.89 314.494 1065.17 314.172 1061.71 L 313.837 1056.69 C 313.08 1056.5 309.728 1056.68 308.726 1056.71 C 306.455 1054.17 305.35 1053.9 302.305 1052.48 C 298.949 1051.32 300.454 1052.27 298.071 1048.95 C 301.299 1046.8 301.917 1047.26 302.535 1044.49 C 294.122 1018.53 279.311 991.781 273.297 964.78 C 271.225 955.477 274.99 941.497 276.816 932.439 C 277.558 928.757 266.855 930.685 271.821 920.528 C 272.902 918.316 273.237 918.882 274.013 918.481 C 280.094 919.632 281.482 926.241 288.023 929.92 C 296.481 934.677 305.715 937.548 315.108 939.713 C 323.713 905.696 327.18 878.972 327.105 844.141 z"/>
<path transform="translate(0,0)" fill="rgb(255,255,255)" d="M 333.129 1049.39 C 338.28 1060.93 344.345 1068.08 327.865 1069.62 L 323.924 1069.92 C 320.827 1071.02 319.845 1071.61 316.533 1071.31 C 314.315 1068.89 314.494 1065.17 314.172 1061.71 L 313.837 1056.69 C 317.457 1057.3 319.039 1057.58 322.676 1057.64 L 326.337 1057.18 L 333.129 1049.39 z"/>
<path transform="translate(0,0)" fill="rgb(255,255,255)" d="M 313.837 1056.69 C 317.457 1057.3 319.039 1057.58 322.676 1057.64 C 322.902 1061.12 323.061 1066.75 323.924 1069.92 C 320.827 1071.02 319.845 1071.61 316.533 1071.31 C 314.315 1068.89 314.494 1065.17 314.172 1061.71 L 313.837 1056.69 z"/>
<path transform="translate(0,0)" fill="rgb(42,55,72)" d="M 322.676 1057.64 L 326.337 1057.18 C 326.538 1060.9 326.484 1066.38 327.865 1069.62 L 323.924 1069.92 C 323.061 1066.75 322.902 1061.12 322.676 1057.64 z"/>
<path transform="translate(0,0)" fill="rgb(255,255,255)" d="M 283.114 935.097 C 291.53 940.376 299.01 942.664 308.231 945.993 C 306.456 949.906 305.156 953.825 303.721 957.872 C 304.703 963.939 306.867 970.694 308.818 976.595 C 315.926 998.092 321.703 1019.52 327.219 1041.45 C 325.199 1044.56 324.65 1043.92 320.355 1045.63 C 317.108 1046.86 320.17 1047.41 319.193 1050.14 C 315.685 1050.31 313.351 1048.94 310.065 1047.58 C 306.043 1032 298.116 1012.66 291.964 997.666 C 281.233 971.514 278.075 962.711 283.114 935.097 z"/>
<path transform="translate(0,0)" fill="rgb(42,55,72)" d="M 298.071 1048.95 C 300.454 1052.27 298.949 1051.32 302.305 1052.48 L 303.494 1068.82 C 300.98 1076.79 294.131 1079 286.6 1076.33 C 290.825 1075.33 294.922 1075.08 299.242 1074.65 C 298.543 1066.26 296.36 1057.08 298.071 1048.95 z"/>
<path transform="translate(0,0)" fill="rgb(153,215,201)" d="M 368.964 1102.4 L 371.358 1102.33 C 373.107 1104.57 375.457 1128.42 376.776 1134.61 L 377.161 1136.38 C 348.765 1141.16 324.24 1146.59 295.238 1149.93 L 292.474 1149.47 C 288.476 1143.49 287.121 1123.92 286.465 1116.48 C 313.923 1111.54 341.424 1106.85 368.964 1102.4 z"/>
<path transform="translate(0,0)" fill="rgb(255,255,255)" d="M 395.652 711.741 L 396.663 712.848 C 397.528 718.172 401.35 737.923 399.643 741.243 C 397.008 741.702 395.664 741.599 393.701 743.32 C 391.909 752.02 399.063 758.335 391.417 766.755 C 382.34 771.416 367.533 760.141 357.28 758.77 L 356.256 759.947 C 356.742 763.992 358.457 765.59 360.935 769.043 L 353.134 778.235 C 352.9 782.129 353.558 786.143 351.597 788.477 L 349.421 786.889 C 340.378 779.412 334.256 773.924 326.939 764.804 C 335.005 763.248 337.329 762.563 343.898 758.867 C 364.224 747.435 348.787 736.256 350.872 728.909 C 354.041 727.265 360.209 728.769 364.447 728.724 C 379.239 728.566 386.243 721.311 395.652 711.741 z"/>
<path transform="translate(0,0)" fill="rgb(153,215,201)" d="M 360.71 1072.36 L 362.465 1072.59 C 367.044 1077.57 366.899 1087.83 368.231 1095.43 C 341.559 1098.9 313.791 1104.74 286.721 1108.63 C 284.931 1108.9 284.854 1108.67 282.971 1108.36 C 278.658 1104.04 278.913 1092.51 278.491 1085.96 C 285.98 1084.3 296.916 1083 304.81 1081.7 L 360.71 1072.36 z"/>
<path transform="translate(0,0)" fill="rgb(255,255,255)" d="M 405.085 1359.16 L 408.973 1359.07 C 423.738 1368.95 435.539 1371.53 452.507 1375.28 C 459.405 1376.8 477.136 1379.07 480.519 1384.02 L 479.758 1386.44 C 474.931 1390.49 468.422 1390.8 462.254 1391.55 C 452.944 1392.51 391.016 1390.66 387.689 1378.79 C 384.152 1366.17 393.709 1361.94 405.085 1359.16 z"/>
<path transform="translate(0,0)" fill="rgb(255,255,255)" d="M 236.365 1340.18 C 246.913 1339.68 246.525 1345.8 255.365 1348.86 C 265.877 1352.51 301.923 1351.26 306.827 1361.88 L 305.737 1363.9 C 302.765 1366.15 299.018 1366.26 295.244 1366.83 C 276.788 1368.7 245.149 1366.83 226.724 1363.83 C 222.948 1363.22 218.019 1343.98 236.365 1340.18 z"/>
<path transform="translate(0,0)" fill="rgb(255,255,255)" d="M 302.305 1052.48 C 305.35 1053.9 306.455 1054.17 308.726 1056.71 C 309.728 1056.68 313.08 1056.5 313.837 1056.69 L 314.172 1061.71 C 314.151 1066.17 314.845 1068.32 312.885 1071.87 L 309.759 1073 C 306.26 1073.22 307.487 1073.55 304.469 1072.34 L 303.494 1068.82 L 302.305 1052.48 z"/>
<path transform="translate(0,0)" fill="rgb(42,55,72)" d="M 308.726 1056.71 C 309.728 1056.68 313.08 1056.5 313.837 1056.69 L 314.172 1061.71 C 314.151 1066.17 314.845 1068.32 312.885 1071.87 L 309.759 1073 C 310.454 1066.11 309.881 1063.28 308.726 1056.71 z"/>
<path transform="translate(0,0)" fill="rgb(153,215,201)" d="M 510.307 699.984 L 586.954 699.943 L 586.97 764.695 L 648.006 764.288 L 647.717 838.127 L 586.266 838.195 C 586.705 856.956 586.416 876.311 586.361 895.12 L 586.108 895.796 C 582.895 898.049 519.723 897.001 510.513 896.971 C 510.548 877.247 510.409 857.523 510.095 837.802 C 490.465 837.547 470.833 837.488 451.202 837.625 L 451.292 764.733 L 510.16 764.604 L 510.307 699.984 z"/>
<path transform="translate(0,0)" fill="rgb(7,96,111)" d="M 864.724 1175.16 L 892.397 1175.11 L 886.856 1195.79 C 879.283 1223.13 871.394 1250.37 863.192 1277.52 L 839.207 1277.91 C 832.496 1256.98 827.733 1234.88 822.887 1213.4 L 806.513 1277.37 L 780.836 1277.28 C 772.019 1245.27 764.037 1212.75 755.309 1180.69 C 754.591 1178.06 754.874 1177.63 755.782 1175.41 C 765.215 1175.56 774.923 1175.41 784.379 1175.38 C 790.552 1197.94 794.047 1222.38 797.012 1245.55 C 799.064 1238.99 800.711 1227.61 802.324 1220.48 C 805.721 1205.46 809.109 1190.45 812.569 1175.44 C 820.683 1175.78 828.832 1175.56 836.956 1175.44 C 842.17 1197.03 847.014 1226.83 853.067 1246.73 C 855.224 1221.68 860.28 1199.79 864.724 1175.16 z"/>
<path transform="translate(0,0)" fill="rgb(7,96,111)" d="M 658.236 1127.4 L 687.931 1127.26 C 687.574 1147.56 687.579 1167.87 687.946 1188.17 C 689.785 1185.72 691.822 1183.01 693.807 1180.73 C 702.236 1170.81 721.657 1170.25 731.299 1178.45 C 741.83 1187.4 743.43 1203.6 743.556 1216.56 C 743.753 1236.82 743.868 1257.04 743.969 1277.28 L 714.028 1277.31 L 714.046 1242.9 C 714.059 1232.82 716.996 1212.08 710.322 1204.16 C 708.093 1201.52 703.898 1199.5 700.415 1199.26 C 697.771 1199.08 695.217 1200.09 693.3 1201.88 C 683.404 1211.1 687.484 1262.75 687.519 1277.45 L 658.836 1277.33 C 659.112 1227.35 658.912 1177.37 658.236 1127.4 z"/>
<path transform="translate(0,0)" fill="rgb(7,96,111)" d="M 521.515 1129.22 C 536.841 1128.44 544.271 1129.7 558.714 1135.14 C 556.376 1144.96 554.361 1152.72 551.304 1162.44 C 541.66 1158.75 508.987 1148.42 508.632 1173.47 C 508.446 1186.61 541.241 1193.86 551.233 1204.34 C 564.032 1217.77 565.567 1231.91 559.788 1250.11 C 552.676 1272.68 531.269 1278.55 510.153 1279.33 C 496.043 1278.99 488.237 1277.27 475.483 1271.25 C 477.302 1262.24 479.918 1253.36 482.383 1244.5 C 496.267 1250.53 520.571 1260.1 530.973 1244.32 C 540.615 1227.79 509.085 1217.02 499.122 1210.96 C 477.038 1197.53 472.506 1171.69 485.562 1150.26 C 493.196 1137.73 507.713 1131.88 521.515 1129.22 z"/>
<path transform="translate(0,0)" fill="rgb(7,96,111)" d="M 930.576 1173.33 C 941.701 1171.64 957.091 1173.24 965.517 1181.13 C 982.743 1197.27 977.065 1224.45 977.562 1245.54 C 977.823 1256.61 978.391 1266.53 979.283 1277.44 C 970.976 1277.6 962.666 1277.5 954.366 1277.12 L 951.437 1265.56 C 939.399 1279.91 927.928 1282.03 910.874 1276.15 C 905.928 1273.35 901.645 1270.1 899.515 1264.82 C 888.714 1238.02 899.818 1216.65 928.594 1211.59 C 934.131 1210.61 942.003 1210.17 946.812 1208.12 C 949.174 1205.1 948.697 1206.75 948.391 1203.01 C 939.725 1190.27 921.423 1195.37 910.37 1201.76 C 908.301 1195.95 906.091 1187.63 904.178 1181.47 C 914.668 1176.73 919.244 1174.76 930.576 1173.33 z"/>
<path transform="translate(0,0)" fill="rgb(255,255,255)" d="M 936.937 1229.24 L 948.813 1228.84 C 949.001 1241.98 949.177 1251.48 936.028 1257.48 C 919.358 1255.77 918.597 1235.89 936.937 1229.24 z"/>
<path transform="translate(0,0)" fill="rgb(7,96,111)" d="M 1416.89 1174.13 C 1420.6 1173.77 1424.32 1173.63 1428.04 1173.7 C 1462.18 1174.64 1464.64 1210.96 1462.7 1236.34 C 1451.69 1236.94 1413.89 1234.12 1407.63 1235.83 C 1404.43 1262.88 1438.67 1256.47 1454.55 1252.14 L 1455.83 1253.17 C 1456.26 1261.56 1456.95 1265.27 1459.56 1273 C 1457.38 1273.89 1455.16 1274.68 1452.91 1275.35 C 1423.97 1283.92 1389.85 1280.36 1380.72 1245.67 C 1376.6 1230 1378.44 1209.96 1386.83 1195.94 C 1394.02 1183.93 1403.58 1177.71 1416.89 1174.13 z"/>
<path transform="translate(0,0)" fill="rgb(255,255,255)" d="M 1418.03 1196.04 C 1427.72 1195.54 1434.95 1198.3 1439.18 1208.98 C 1439.98 1210.99 1438.34 1213.17 1437.31 1214.88 C 1434.38 1216.8 1430.79 1216.12 1427.14 1215.95 C 1419.82 1216.02 1413.41 1215.83 1406.09 1215.49 C 1408.71 1205.54 1409.52 1201.72 1418.03 1196.04 z"/>
<path transform="translate(0,0)" fill="rgb(7,96,111)" d="M 1135.59 1173.16 C 1138.48 1173.01 1141.38 1172.92 1144.28 1172.88 C 1153.72 1172.76 1162.8 1176.53 1169.36 1183.3 C 1182.5 1197.09 1183.24 1218.3 1182.85 1236.05 C 1173.28 1235.96 1135.06 1235.1 1128.21 1236.62 C 1126.86 1240.05 1127.68 1243.92 1129.47 1247.16 C 1138.74 1263.9 1165.89 1251.75 1173.45 1253.72 L 1174.51 1256.27 L 1177.89 1272.96 C 1084.85 1307.42 1077.2 1190.9 1135.59 1173.16 z"/>
<path transform="translate(0,0)" fill="rgb(255,255,255)" d="M 1138.08 1194.96 C 1147.39 1194.75 1158.82 1204.14 1154.67 1213.25 C 1150.87 1215.84 1150.96 1214.93 1145.42 1215.06 L 1125.74 1215.14 C 1128.42 1204.49 1129.06 1201.05 1138.08 1194.96 z"/>
<path transform="translate(0,0)" fill="rgb(7,96,111)" d="M 1047.84 1173.13 C 1086.51 1171.86 1083.12 1214.26 1083.2 1241.01 L 1083.34 1277.42 L 1053.2 1277.61 C 1053.33 1256.94 1053.93 1235.92 1053.03 1215.3 C 1052.33 1199.19 1039.75 1191.56 1029.49 1206.92 C 1026.82 1217.78 1027.93 1263.9 1027.98 1277.31 L 999.856 1277.6 C 999.76 1245.9 1000.67 1207.29 997.618 1176.43 C 1005.43 1176.11 1013.24 1175.63 1021.04 1174.98 L 1023.91 1189.71 C 1031.76 1179.1 1035.26 1176.68 1047.84 1173.13 z"/>
<path transform="translate(0,0)" fill="rgb(7,96,111)" d="M 1519.23 1173.33 C 1556.53 1172.09 1560.15 1209.21 1558.94 1236.84 C 1542.16 1236.86 1518.08 1236.42 1501.66 1235.1 C 1513.72 1272.42 1538.91 1249.95 1550.54 1253.9 L 1551.46 1257.61 L 1553.99 1274.02 C 1533.94 1280.05 1512.04 1283.21 1493.47 1270.07 C 1470 1253.48 1471.02 1211.93 1487.01 1190.42 C 1495.26 1179.33 1505.86 1174.91 1519.23 1173.33 z"/>
<path transform="translate(0,0)" fill="rgb(255,255,255)" d="M 1518.39 1195.01 C 1531.33 1196.67 1532.43 1204.6 1533.78 1215.93 L 1518.37 1215.86 L 1501.63 1215.8 C 1505.4 1203.77 1506.39 1199.78 1518.39 1195.01 z"/>
<path transform="translate(0,0)" fill="rgb(7,96,111)" d="M 1249.13 1173.22 C 1250.53 1173.11 1251.92 1173.05 1253.32 1173.02 C 1277.77 1172.76 1283.68 1198.2 1283.56 1217.81 C 1283.44 1237.63 1283.49 1257.49 1283.43 1277.32 L 1255 1277.29 C 1255.09 1258.33 1254.96 1239.28 1254.99 1220.34 C 1255.03 1201.67 1242.69 1188.53 1229.68 1207.32 C 1226.5 1217.89 1227.95 1264.01 1228.04 1277.34 L 1198.98 1277.54 C 1198.98 1244.53 1199.64 1208.66 1198.32 1175.91 L 1220.5 1175.74 C 1221.17 1179.5 1221.06 1183.42 1223.41 1186.03 C 1230.43 1185.27 1230.51 1176.71 1247.75 1173.47 L 1249.13 1173.22 z"/>
<path transform="translate(0,0)" fill="rgb(7,96,111)" d="M 1336.92 975.191 C 1392.34 978.269 1364.04 1095.69 1314.96 1050.6 L 1315.03 1071.5 L 1315.26 1080.03 C 1315.38 1083.71 1315.86 1084.37 1313.78 1087.44 C 1310.79 1089.22 1309.16 1088.76 1305.66 1088.6 C 1302.27 1085.57 1303.79 1052.99 1304.06 1047.76 C 1304.5 1039.38 1302.57 981.002 1304.97 977.827 C 1308.16 977.123 1308.72 976.629 1311.68 977.92 C 1313.74 980.846 1313.13 986.208 1313.14 990.064 C 1321.34 980.648 1324.35 977.73 1336.92 975.191 z"/>
<path transform="translate(0,0)" fill="rgb(255,255,255)" d="M 1332.53 984.02 C 1365.66 985.615 1362.19 1041.2 1338.28 1051.06 C 1325.45 1051.58 1322.5 1048.21 1315.12 1038.45 C 1314.47 1025.68 1313.4 1010.15 1315.3 997.716 C 1320.38 990.12 1323.95 986.811 1332.53 984.02 z"/>
<path transform="translate(0,0)" fill="rgb(7,96,111)" d="M 1338.24 1173.42 C 1348.91 1173.67 1354.5 1174.45 1363.99 1179.38 C 1362.4 1187.44 1361.46 1191.78 1358.84 1199.51 C 1351.04 1197.4 1329.68 1190.92 1328.93 1204.42 C 1332.83 1212.84 1349.27 1216.37 1357.08 1223.93 C 1370.97 1237.37 1372.42 1254.76 1358.87 1268.95 C 1349.3 1278.97 1333.95 1279.3 1321.28 1279.12 C 1312.31 1277.66 1307.86 1276.13 1299.35 1272.99 C 1300.93 1265.45 1302.33 1257.87 1303.53 1250.25 C 1312.29 1255.45 1334.52 1264.82 1339.83 1251.12 C 1338.09 1240.6 1320.88 1236.12 1313.72 1229.5 C 1286.64 1204.45 1305.73 1175.57 1338.24 1173.42 z"/>
<path transform="translate(0,0)" fill="rgb(7,96,111)" d="M 621.629 1173.36 C 628.695 1172.37 638.731 1175.69 645.491 1177.83 C 643.008 1186.42 641.802 1191.33 640.351 1200.11 C 629.489 1198.02 618.887 1197 610.91 1206.4 C 601.614 1217.35 601.631 1239.12 613.786 1248.14 C 622.691 1254.74 631.676 1253 641.731 1251.32 C 642.718 1258.23 644.377 1266.62 644.746 1273.51 C 644.847 1275.39 644.456 1275.1 642.813 1276.57 C 640.916 1276.97 639.013 1277.34 637.105 1277.68 C 581.51 1287.71 559.11 1235.08 585.862 1192.05 C 593.159 1180.31 608.132 1174.93 621.629 1173.36 z"/>
<path transform="translate(0,0)" fill="rgb(7,96,111)" d="M 1017.96 975.126 C 1058.11 973.802 1048.18 1005.79 1049.15 1034.1 C 1049.42 1041.85 1049.97 1049.63 1049.63 1057.35 C 1049.56 1058.96 1048.19 1059.41 1046.8 1060.6 C 1040.49 1060.64 1040.03 1054.78 1039.53 1049.82 C 1025.27 1061.34 1015.28 1067.58 1000.49 1053.19 C 994.786 1044.33 991.907 1031.59 998.918 1022.65 C 1008.29 1010.7 1025.57 1009.23 1039.45 1007.65 C 1038.2 968.526 1019.17 989.158 1003.25 987.192 C 1000.95 984.151 1001.23 985.726 1001.41 982.558 C 1005.48 978.199 1012.22 976.749 1017.96 975.126 z"/>
<path transform="translate(0,0)" fill="rgb(255,255,255)" d="M 1038.07 1015.6 C 1039.83 1017.75 1038.93 1033.93 1038.84 1037.92 C 1031.34 1049.26 1023.85 1056.96 1010.17 1049.05 C 993.17 1025.29 1019.49 1017.7 1038.07 1015.6 z"/>
<path transform="translate(0,0)" fill="rgb(7,96,111)" d="M 1482.06 975.232 C 1528.79 972.785 1507.69 1023.64 1513.9 1052.69 C 1514.73 1056.57 1513.81 1058.08 1511.41 1060.65 C 1505.03 1060.58 1504.26 1054.27 1503.71 1049.17 C 1491.71 1062.23 1479.44 1066.28 1465.24 1053.74 C 1452.77 1035.76 1460.41 1018.38 1480.51 1012.03 C 1487.48 1009.82 1494.49 1009.33 1501.45 1007.17 C 1506.08 1001.71 1501.38 992.974 1497.73 988.226 C 1487.94 975.51 1470.71 992.926 1464.63 987.386 C 1463.4 978.947 1476.11 976.59 1482.06 975.232 z"/>
<path transform="translate(0,0)" fill="rgb(255,255,255)" d="M 1491.08 1017.18 L 1503.56 1016.55 C 1503.68 1023.86 1503.46 1030.9 1503.25 1038.21 C 1502.66 1039.13 1502.06 1040.04 1501.45 1040.94 C 1496.08 1048.82 1492.56 1050.16 1483.53 1051.96 C 1459.73 1046.77 1467.78 1022.19 1491.08 1017.18 z"/>
<path transform="translate(0,0)" fill="rgb(7,96,111)" d="M 1093.34 975.221 C 1095.56 975.062 1097.79 974.97 1100.01 974.948 C 1125.53 974.913 1127.33 1000.08 1127.11 1019.05 C 1112.05 1018.08 1090.24 1018.05 1075.43 1019.71 C 1078.88 1043.43 1086.21 1052.84 1111.24 1050.41 C 1114.54 1049.13 1116.06 1048.37 1119.63 1047.89 C 1122.54 1050.23 1121.97 1051.43 1123.22 1055.96 C 1077.13 1072.61 1055.59 1036.34 1070.55 995.07 C 1074.15 985.127 1083.56 978.757 1093.34 975.221 z"/>
<path transform="translate(0,0)" fill="rgb(255,255,255)" d="M 1094.17 984.102 C 1094.85 984.033 1095.54 983.971 1096.22 983.916 C 1113.6 982.591 1117.12 995.432 1118.25 1009.96 L 1101.23 1010.13 L 1075.55 1010.14 C 1078.89 996.661 1081.74 990.74 1094.17 984.102 z"/>
<path transform="translate(0,0)" fill="rgb(7,96,111)" d="M 770.921 975.277 C 798.681 973.728 801.859 996.765 802.148 1018.49 L 750.11 1018.97 C 753.259 1044.36 761.985 1053.66 787.449 1050.37 C 790.387 1049.04 792.59 1047.66 795.759 1047.74 C 798.255 1050.1 797.805 1051.02 798.928 1054.93 C 733.591 1085.86 721.477 985.096 770.921 975.277 z"/>
<path transform="translate(0,0)" fill="rgb(255,255,255)" d="M 772.547 983.17 C 787.697 984.934 790.004 996.084 792.505 1009.06 C 786.215 1009.71 779.598 1009.7 773.25 1009.84 L 751.077 1009.83 C 753.701 996.056 758.083 986.295 772.547 983.17 z"/>
<path transform="translate(0,0)" fill="rgb(7,96,111)" d="M 537.593 951.213 C 541.825 951.472 542.237 950.82 545.293 952.79 C 546.259 961.786 545.575 975.262 545.247 984.494 C 544.493 1000.53 549.454 1039.69 535.195 1050.87 C 501.527 1077.28 472.093 1047.94 475.678 1010.65 C 476.82 998.775 475.747 979.945 475.804 969.5 C 475.619 963.352 474.411 956.498 478.012 951.976 C 481.461 951.391 481.261 951.433 484.719 952.083 C 493.868 972.924 467.107 1052.47 514.497 1050.96 C 550.017 1049.82 528.699 961.646 537.593 951.213 z"/>
<path transform="translate(0,0)" fill="rgb(7,96,111)" d="M 600.92 975.324 C 602.543 975.385 604.165 975.491 605.783 975.643 C 633.284 978.472 628.725 1037.39 626.447 1057.73 C 623.346 1059.04 620.088 1058.28 616.468 1058 C 615.957 1036.9 626.462 965.195 586.118 989.639 C 570.246 1008.42 584.713 1044.93 577.041 1057.19 C 573.124 1059.32 575.238 1058.71 570.325 1058.51 C 565.867 1054.4 569.425 1006.02 568.127 997.055 C 567.457 992.435 566.996 983.346 566.173 978.002 L 567.359 977.067 C 570.272 976.932 571.818 976.544 574.342 977.969 C 576.641 981.518 576.989 986.061 577.762 990.358 C 585.036 980.208 588.729 977.356 600.92 975.324 z"/>
<path transform="translate(0,0)" fill="rgb(7,96,111)" d="M 704.248 1044.83 C 708.135 1031.95 720.95 980.054 729.727 975.94 C 733.212 976.247 731.693 975.615 734.376 978.057 C 735.464 981.858 733.895 984.408 732.455 988.249 C 727.897 1001.73 722.751 1015.12 718.035 1028.57 C 715.205 1036.64 712.127 1050.57 708.469 1057.6 C 704.791 1059 704.864 1058.83 701.136 1058.4 C 697.234 1056.1 674.97 988.248 670.758 977.064 C 675.353 976.889 677.124 976.665 681.567 977.476 C 685.304 983.262 700.746 1033.63 704.248 1044.83 z"/>
<path transform="translate(0,0)" fill="rgb(7,96,111)" d="M 880.88 975.178 C 886.944 974.891 905.649 976.604 902.727 985.836 C 895.378 991.107 886.584 981.063 879.745 983.859 C 870.245 987.742 865.387 997.651 875.515 1005.43 C 884.297 1012.17 901.272 1017.88 904.404 1030.32 C 908.507 1046.61 900.461 1056.89 883.979 1061.07 C 877.87 1061.18 862.462 1060.84 859.042 1055.05 C 861.161 1047.56 862.153 1046.45 869.712 1049.86 C 876.855 1053.08 889.161 1053.44 893.173 1045.01 C 903.935 1022.41 863.188 1021.97 860.463 1002.66 C 858.196 986.595 866.01 978.314 880.88 975.178 z"/>
<path transform="translate(0,0)" fill="rgb(7,96,111)" d="M 1430.8 954.224 C 1432.93 955.576 1432.03 972.65 1432.01 976.126 C 1438.2 976.053 1450.7 974.738 1453.98 981.191 C 1449.86 986.75 1438.07 985.206 1431.95 985 C 1431.92 999.63 1429.38 1033.04 1435.46 1047.33 C 1436.86 1050.64 1445.98 1050.2 1450.19 1051.43 C 1452.9 1054.31 1451.98 1053.93 1452.13 1059.22 C 1448.73 1060.74 1446.31 1060.56 1442.78 1061.13 C 1407.37 1066.79 1428.83 992.67 1419.88 984.952 C 1415.79 985.428 1413.84 986.47 1411.3 983.113 C 1410.91 980.251 1410.37 978.739 1411.68 976.198 C 1414.93 975.85 1417.06 975.805 1420.34 975.782 C 1426.1 969.789 1419.44 963.741 1422.48 957.382 C 1424.83 954.744 1427.21 954.84 1430.8 954.224 z"/>
<path transform="translate(0,0)" fill="rgb(7,96,111)" d="M 1207.86 975.239 C 1215.57 974.931 1229.81 975.744 1228.4 986.324 C 1223.55 992.14 1216.18 980.626 1206.3 984.738 C 1192.58 989.114 1194.19 1003.43 1206.48 1008.67 C 1232.89 1019.92 1245.58 1049.02 1209.75 1060.08 C 1208.49 1060.2 1207.22 1060.27 1205.95 1060.3 C 1198.86 1060.4 1191.8 1060.39 1186.73 1055.51 C 1185.63 1051.83 1186.42 1052.09 1188.03 1047.55 C 1201.78 1052.12 1225.23 1055.69 1220.87 1034.7 C 1217.78 1019.8 1171.79 1014.04 1190.02 985.098 C 1193.85 979.01 1201.08 976.607 1207.86 975.239 z"/>
<path transform="translate(0,0)" fill="rgb(7,96,111)" d="M 1263.86 975.177 C 1271.68 974.877 1277.09 976.767 1284.3 979.194 C 1283.39 983.385 1282.81 985.456 1281.35 989.486 C 1273.63 986.18 1250.95 975.399 1253.15 998.7 C 1254.16 1009.48 1286.52 1014.5 1287.24 1031.7 C 1288.08 1051.41 1281.52 1057.78 1263.61 1060.83 C 1253.48 1060.33 1250.09 1059.08 1240.97 1055.57 C 1241.82 1053.39 1243.72 1049.69 1244.79 1047.46 C 1253.59 1050.64 1270.06 1055.54 1276.09 1044.45 C 1278.98 1039.23 1277.46 1030.35 1272.41 1026.64 C 1257.49 1015.67 1232.9 1008.96 1246.56 985.07 C 1250.01 979.041 1257.21 976.668 1263.86 975.177 z"/>
<path transform="translate(0,0)" fill="rgb(7,96,111)" d="M 1150.65 954.673 C 1155.26 954.797 1153.62 953.892 1156.32 956.295 C 1157.96 962.655 1157.03 970.06 1156.9 976.957 C 1164.57 976.735 1172.18 975.424 1178.13 980.183 L 1178.1 981.82 C 1172.11 986.558 1164.6 985.291 1156.91 985.099 C 1157 998.831 1154.29 1039.92 1160.65 1048.73 C 1164.15 1051.25 1169.13 1050.6 1173.72 1051.48 C 1176.73 1054.17 1175.78 1053.49 1176.7 1058.48 C 1172.13 1062.38 1164.94 1061.03 1158.85 1060.68 C 1140.94 1047.38 1146.52 1006.66 1146.59 985.432 C 1141.22 985.573 1135.08 986.748 1133.17 980.628 L 1134.74 978.328 C 1138.17 976.21 1142.41 976.895 1146.59 976.997 C 1146.68 968.878 1143.88 959.509 1150.65 954.673 z"/>
<path transform="translate(0,0)" fill="rgb(7,96,111)" d="M 964.743 956.58 C 966.318 956.883 966.572 957.085 968.069 957.689 C 969.643 962.05 968.916 971.849 968.806 977.017 C 976.634 977.063 983.038 975.548 988.912 980.569 L 988.836 982.275 C 982.666 987.089 976.891 985.935 968.912 985.821 C 968.888 1001.08 967.097 1029.86 970.311 1044.81 C 972.414 1054.59 983.416 1043.06 988.105 1058.64 C 985.484 1060.58 982.073 1060.99 978.947 1061.09 C 973.158 1061.28 967.931 1059.59 964.104 1055.01 C 957.934 1047.61 958.618 1036.54 958.708 1027.59 C 958.847 1013.72 958.896 999.944 958.978 986.125 C 952.867 986.337 950.367 987.566 946.028 982.686 C 945.783 975.466 953.609 976.417 958.932 976.263 C 959.141 966.614 954.974 960.598 964.743 956.58 z"/>
<path transform="translate(0,0)" fill="rgb(7,96,111)" d="M 1533.98 938.966 C 1537.98 938.791 1540.05 938.392 1543.79 939.577 C 1544.8 944.064 1544.35 967.279 1544.37 973.46 C 1544.56 1001.97 1544.59 1030.47 1544.47 1058.98 C 1540.87 1059.06 1537.89 1059.63 1534.95 1057.8 C 1533.92 1051.43 1534.58 1029.05 1534.56 1021.21 L 1533.98 938.966 z"/>
<path transform="translate(0,0)" fill="rgb(7,96,111)" d="M 841.659 976.202 C 845.928 975.824 848.568 975.101 851.849 977.437 C 852.849 980.718 852.354 981.145 851.344 984.438 C 845.207 986.954 838.26 989.48 833.632 994.423 C 825.324 1003.29 828.762 1044.79 828.858 1058.5 C 825.153 1058.78 822.406 1059.37 818.973 1058.06 L 818.125 1056.06 C 818.164 1047.82 816.847 979.475 817.449 978.045 C 819.904 977.121 821.656 977.441 824.276 977.567 C 826.289 980.294 826.406 986.805 826.904 990.79 C 831.817 983.883 833.965 980.247 841.659 976.202 z"/>
<path transform="translate(0,0)" fill="rgb(7,96,111)" d="M 648.571 976.957 C 652 976.748 655.624 976.117 658.463 977.728 C 659.396 985.395 658.935 999.627 658.895 1007.83 L 658.66 1058.85 C 655.404 1058.86 650.855 1059.3 648.442 1057.45 C 647.513 1049.4 647.87 1030.84 647.981 1021.79 C 648.148 1008.17 647.514 990.101 648.571 976.957 z"/>
<path transform="translate(0,0)" fill="rgb(7,96,111)" d="M 1385.09 976.154 C 1389.08 975.969 1390.17 975.956 1394.1 976.455 C 1396.54 979.387 1395.49 1048.19 1395.47 1057.75 L 1394.41 1058.56 C 1390.37 1059.25 1390.39 1059.42 1386.47 1058.71 C 1383.74 1055.24 1385.05 986.632 1385.09 976.154 z"/>
<path transform="translate(0,0)" fill="rgb(7,96,111)" d="M 924.425 977.23 C 927.724 977.295 929.824 976.952 932.543 978.743 C 933.293 986.034 933.723 1056.11 931.73 1059.4 C 927.809 1059.44 927.312 1059.54 923.621 1058.47 C 920.815 1052.13 923.768 993.782 922.536 982.334 C 922.231 979.507 922.781 978.689 924.425 977.23 z"/>
<path transform="translate(0,0)" fill="rgb(7,96,111)" d="M 650.673 945.697 C 654.915 944.263 659.523 946.495 661.027 950.713 C 662.531 954.93 660.375 959.575 656.183 961.148 C 653.408 962.189 650.289 961.653 648.021 959.746 C 645.753 957.84 644.69 954.858 645.239 951.946 C 645.789 949.035 647.866 946.646 650.673 945.697 z"/>
<path transform="translate(0,0)" fill="rgb(27,52,79)" d="M 1386.41 940.619 C 1390.31 938.646 1395.08 940.226 1397.03 944.142 C 1398.98 948.058 1397.37 952.814 1393.45 954.744 C 1389.55 956.659 1384.84 955.067 1382.9 951.182 C 1380.97 947.296 1382.53 942.576 1386.41 940.619 z"/>
<path transform="translate(0,0)" fill="rgb(7,96,111)" d="M 926.098 944.566 C 930.236 943.332 934.591 945.686 935.826 949.824 C 937.061 953.961 934.708 958.317 930.57 959.553 C 926.432 960.789 922.075 958.435 920.84 954.296 C 919.604 950.157 921.958 945.801 926.098 944.566 z"/>
</svg>