<svg version="1.1" xmlns="http://www.w3.org/2000/svg" style="display: block;" viewBox="0 0 1229 2048" width="1024" height="1707" preserveAspectRatio="none">
<defs>
	<linearGradient id="Gradient1" gradientUnits="userSpaceOnUse" x1="678.177" y1="1493.41" x2="446.686" y2="1569.11">
		<stop class="stop0" offset="0" stop-opacity="1" stop-color="rgb(23,28,34)"/>
		<stop class="stop1" offset="1" stop-opacity="1" stop-color="rgb(42,45,64)"/>
	</linearGradient>
</defs>
<path transform="translate(0,0)" fill="rgb(254,254,254)" d="M 0 0 L 1229 0 L 1229 2048 L 0 2048 L 0 0 z"/>
<path transform="translate(0,0)" fill="rgb(40,45,58)" d="M 548.569 112.448 C 603.574 113.619 649.097 150.441 678.364 194.766 C 740.978 133.803 812.73 146.148 869.186 208.823 C 893.451 235.761 907.204 262.175 922.184 294.742 C 945.074 285.787 967.837 275.989 990.358 266.152 C 996.496 263.471 1002.57 259.372 1008.83 263.019 C 1010.16 265.17 1011.02 267.694 1011.04 270.242 C 1011.27 298.573 1010.01 327.233 1011.22 355.538 C 1028.21 357.51 1141.15 373.931 1149.26 379.652 C 1150.53 398.711 1149.75 424.643 1149.77 444.136 L 1150.01 554.036 L 1150.18 860.382 L 1150.39 1307.5 C 1150.97 1375.25 1151 1443.01 1150.48 1510.77 C 1064.15 1557.37 978.174 1604.63 892.556 1652.53 L 621.46 1800.25 L 382.92 1928.15 C 367.301 1921.84 342.669 1908.55 326.743 1900.4 L 243.244 1857.88 L 145.32 1807.98 C 121.93 1796.3 96.7247 1784.34 73.778 1772.08 C 78.0313 1707.06 78.9326 1639.86 82.2086 1574.64 L 109.581 970.787 L 118.641 746.541 L 121.254 674.367 C 121.839 658.319 122.068 640.042 124.269 624.333 C 126.798 619.559 191.368 594.658 200.658 590.831 L 344.082 531.534 C 342.706 504.207 342.536 477.705 344.068 450.353 C 350.346 338.301 411.017 119.262 548.569 112.448 z"/>
<path transform="translate(0,0)" fill="rgb(254,254,254)" d="M 1136.62 392.991 C 1138.84 395.297 1138.05 433.064 1138.05 439.226 L 1138.07 521.696 L 1138.38 775.139 L 1138.88 1502.79 C 1095.34 1527.84 1051.37 1552.16 1007.01 1575.74 L 877.24 1646.93 C 714.728 1736.16 551.727 1824.49 388.243 1911.92 L 381.498 1724.78 C 380.005 1680.21 379.236 1632.12 376.247 1587.9 L 343.814 745.953 C 423.605 712.079 502.306 672.21 582.313 638.503 C 584.751 648.681 586.936 656.204 590.199 666.158 C 582.044 679.264 577.709 690.655 578.841 706.325 C 580.956 735.613 612.24 751.011 635.404 731.851 C 650.755 719.153 660.674 694.266 652.947 675.127 C 647.482 661.14 640.725 654.075 625.497 652.675 C 622.653 644.208 620.702 634.115 618.78 625.273 C 646.573 612.056 675.373 600.073 703.561 587.594 L 919.06 493.963 C 918.956 507.052 918.056 520.122 916.363 533.101 C 896.624 548.001 886.264 576.15 901.676 597.686 C 906.087 603.914 912.892 608.024 920.457 609.032 C 954.821 613.861 978.467 565.578 956.806 537.299 C 957.632 515.155 959.415 495.767 959.79 472.85 C 984.358 460.9 1009.8 450.239 1034.63 438.809 C 1068.47 423.233 1103.44 410.012 1136.62 392.991 z"/>
<path transform="translate(0,0)" fill="rgb(254,254,254)" d="M 557.423 1226.65 C 551.39 1230.99 545.57 1235.29 539.05 1238.87 C 502.737 1258.79 461.801 1254.18 434.578 1221.62 C 364.32 1137.6 444.209 935.156 558.924 948.268 C 562.246 949.591 566.744 951.68 570.155 951.916 C 607.506 965.482 623.139 1015.54 625.237 1051.39 C 643.398 1037.1 655.092 1030.69 676.968 1024.68 C 680.343 1024.37 681.181 1024.11 684.413 1023.04 C 689.86 1022.83 699.744 1022.39 704.75 1023.97 C 707.844 1024.51 710.926 1025.12 713.995 1025.79 C 721.456 1029.85 727.115 1031.58 734.358 1036.94 C 746.999 1046.3 755.368 1064.14 759.62 1078.96 C 773.645 1127.62 763.048 1179.69 739.219 1223.54 C 721.33 1256.47 691.942 1289.79 654.836 1300.73 C 605.459 1315.3 572.207 1282.29 560.06 1237.57 C 559.088 1233.96 558.208 1230.31 557.423 1226.65 z"/>
<path transform="translate(0,0)" fill="rgb(254,254,254)" d="M 684.413 1023.04 C 689.86 1022.83 699.744 1022.39 704.75 1023.97 C 707.844 1024.51 710.926 1025.12 713.995 1025.79 C 721.456 1029.85 727.115 1031.58 734.358 1036.94 C 746.999 1046.3 755.368 1064.14 759.62 1078.96 C 773.645 1127.62 763.048 1179.69 739.219 1223.54 C 721.33 1256.47 691.942 1289.79 654.836 1300.73 C 605.459 1315.3 572.207 1282.29 560.06 1237.57 C 559.088 1233.96 558.208 1230.31 557.423 1226.65 C 560.713 1224.2 564.23 1220.88 567.326 1218.11 C 577.257 1206.8 585.95 1192.92 595.3 1182.73 C 596.093 1178.82 597.267 1175.61 599.988 1172.68 C 600.262 1169.91 603.052 1163.39 604.375 1160.46 C 618.277 1129.65 622.534 1098.9 626.26 1065.45 C 622.043 1069.35 617.087 1073.58 613.73 1078.16 C 610.814 1116.66 602.38 1141.25 585.376 1176 C 580.211 1176.85 574.807 1177.9 569.599 1178.07 C 565.127 1178.01 562.648 1177.54 558.226 1176.77 C 559.12 1175.05 560.7 1166.95 561.124 1164.65 C 566.52 1135.44 579.118 1107.24 596.751 1083.37 C 602.62 1075.42 609.965 1067.66 616.176 1059.54 C 618.36 1057.08 622.611 1053.64 625.237 1051.39 C 643.398 1037.1 655.092 1030.69 676.968 1024.68 C 680.343 1024.37 681.181 1024.11 684.413 1023.04 z"/>
<path transform="translate(0,0)" fill="rgb(164,66,65)" d="M 684.413 1023.04 C 689.86 1022.83 699.744 1022.39 704.75 1023.97 C 707.844 1024.51 710.926 1025.12 713.995 1025.79 C 721.456 1029.85 727.115 1031.58 734.358 1036.94 C 746.999 1046.3 755.368 1064.14 759.62 1078.96 C 773.645 1127.62 763.048 1179.69 739.219 1223.54 C 721.33 1256.47 691.942 1289.79 654.836 1300.73 C 605.459 1315.3 572.207 1282.29 560.06 1237.57 C 559.088 1233.96 558.208 1230.31 557.423 1226.65 C 560.713 1224.2 564.23 1220.88 567.326 1218.11 C 570.405 1231.22 572.708 1241.96 579.018 1254.12 C 597.571 1289.87 636.829 1300.7 671.613 1280.85 C 712.06 1257.83 735.79 1218.09 748.279 1174.27 C 756.638 1144.94 758.073 1113.69 748.636 1084.3 C 747.216 1079.87 744.995 1073.51 742.762 1069.53 C 733.699 1053.58 718.782 1041.78 701.171 1036.63 C 695.773 1035.09 690.513 1034.38 685.441 1037.18 L 684.532 1040.86 C 684.386 1038.68 684.417 1038.82 683.366 1036.9 L 680.971 1036.27 C 677.653 1038.23 678.586 1037.02 677.531 1040.82 L 676.56 1038.49 C 664.003 1036.95 635.107 1056.17 626.26 1065.45 C 622.043 1069.35 617.087 1073.58 613.73 1078.16 C 610.814 1116.66 602.38 1141.25 585.376 1176 C 580.211 1176.85 574.807 1177.9 569.599 1178.07 C 565.127 1178.01 562.648 1177.54 558.226 1176.77 C 559.12 1175.05 560.7 1166.95 561.124 1164.65 C 566.52 1135.44 579.118 1107.24 596.751 1083.37 C 602.62 1075.42 609.965 1067.66 616.176 1059.54 C 618.36 1057.08 622.611 1053.64 625.237 1051.39 C 643.398 1037.1 655.092 1030.69 676.968 1024.68 C 680.343 1024.37 681.181 1024.11 684.413 1023.04 z"/>
<path transform="translate(0,0)" fill="rgb(254,254,254)" d="M 613.73 1078.16 C 610.814 1116.66 602.38 1141.25 585.376 1176 C 580.211 1176.85 574.807 1177.9 569.599 1178.07 C 572.665 1143.1 591.096 1104.67 613.73 1078.16 z"/>
<path transform="translate(0,0)" fill="rgb(254,254,254)" d="M 626.26 1065.45 C 635.107 1056.17 664.003 1036.95 676.56 1038.49 L 677.531 1040.82 C 673.213 1094.15 649.937 1147.82 599.988 1172.68 C 600.262 1169.91 603.052 1163.39 604.375 1160.46 C 618.277 1129.65 622.534 1098.9 626.26 1065.45 z"/>
<path transform="translate(0,0)" fill="rgb(40,45,58)" d="M 677.531 1040.82 C 678.586 1037.02 677.653 1038.23 680.971 1036.27 L 683.366 1036.9 C 684.417 1038.82 684.386 1038.68 684.532 1040.86 C 680.991 1085.82 663.541 1132.21 628.895 1162.74 C 618.316 1172.06 608.047 1177.06 595.3 1182.73 C 596.093 1178.82 597.267 1175.61 599.988 1172.68 C 649.937 1147.82 673.213 1094.15 677.531 1040.82 z"/>
<path transform="translate(0,0)" fill="rgb(254,254,254)" d="M 557.89 961.377 C 603.871 977.813 610.684 1017.22 616.176 1059.54 C 609.965 1067.66 602.62 1075.42 596.751 1083.37 C 579.118 1107.24 566.52 1135.44 561.124 1164.65 C 560.7 1166.95 559.12 1175.05 558.226 1176.77 C 546.899 1171.97 540.817 1169.67 531.667 1160.08 C 512.926 1140.46 504.983 1110.83 505.868 1084.18 C 507.369 1039.01 525.015 992.806 557.89 961.377 z"/>
<path transform="translate(0,0)" fill="rgb(64,158,134)" d="M 557.423 1226.65 C 551.39 1230.99 545.57 1235.29 539.05 1238.87 C 502.737 1258.79 461.801 1254.18 434.578 1221.62 C 364.32 1137.6 444.209 935.156 558.924 948.268 C 562.246 949.591 566.744 951.68 570.155 951.916 C 607.506 965.482 623.139 1015.54 625.237 1051.39 C 622.611 1053.64 618.36 1057.08 616.176 1059.54 C 610.684 1017.22 603.871 977.813 557.89 961.377 C 554.546 960.194 552.026 959.067 548.678 959.976 C 527.405 958.487 508.301 966.481 491.794 979.495 C 434.608 1024.58 404.111 1111.65 426.144 1181.84 C 442.354 1233.48 498.502 1254.08 542.67 1222.85 C 545.986 1220.51 552.751 1215.26 556.075 1213.61 C 556.004 1202.95 556.321 1195.81 557.285 1185.19 C 561.191 1185.6 565.312 1186.13 569.21 1186.14 C 580.518 1186.23 580.805 1186.32 585.376 1176 C 602.38 1141.25 610.814 1116.66 613.73 1078.16 C 617.087 1073.58 622.043 1069.35 626.26 1065.45 C 622.534 1098.9 618.277 1129.65 604.375 1160.46 C 603.052 1163.39 600.262 1169.91 599.988 1172.68 C 597.267 1175.61 596.093 1178.82 595.3 1182.73 C 585.95 1192.92 577.257 1206.8 567.326 1218.11 C 564.23 1220.88 560.713 1224.2 557.423 1226.65 z"/>
<path transform="translate(0,0)" fill="rgb(164,66,65)" d="M 557.285 1185.19 C 561.191 1185.6 565.312 1186.13 569.21 1186.14 L 569.015 1186.82 C 567.415 1192.32 567.203 1195.14 566.638 1200.9 C 563.813 1206.7 561.519 1210 556.075 1213.61 C 556.004 1202.95 556.321 1195.81 557.285 1185.19 z"/>
<path transform="translate(0,0)" fill="rgb(254,254,254)" d="M 569.015 1186.82 L 574.341 1186.88 L 575.522 1188.14 C 575.018 1191.92 569.399 1197.71 566.638 1200.9 C 567.203 1195.14 567.415 1192.32 569.015 1186.82 z"/>
<path transform="translate(0,0)" fill="rgb(40,45,58)" d="M 548.678 959.976 C 552.026 959.067 554.546 960.194 557.89 961.377 C 525.015 992.806 507.369 1039.01 505.868 1084.18 C 504.983 1110.83 512.926 1140.46 531.667 1160.08 C 540.817 1169.67 546.899 1171.97 558.226 1176.77 C 562.648 1177.54 565.127 1178.01 569.599 1178.07 C 574.807 1177.9 580.211 1176.85 585.376 1176 C 580.805 1186.32 580.518 1186.23 569.21 1186.14 C 565.312 1186.13 561.191 1185.6 557.285 1185.19 C 519.515 1173.94 500.493 1133.25 498.907 1096.45 C 497.072 1046.21 514.931 997.241 548.678 959.976 z"/>
<path transform="translate(0,0)" fill="rgb(14,87,93)" d="M 1007.48 701.536 L 1025.37 704.421 C 1021.7 717.935 1018.6 734.166 1014.41 746.979 L 1028.21 755.005 L 1052.52 719.172 C 1056.89 723.186 1061.94 727.634 1066.14 731.733 C 1058.64 744.325 1051.62 759.052 1044.98 772.248 C 1047.81 776.812 1050.94 781.578 1053.2 786.417 L 1083.5 759.559 C 1085.91 766.931 1088.5 774.245 1091.26 781.493 C 1082.24 791.11 1071.64 801.896 1063.03 811.687 C 1064.64 818.07 1066.31 824.404 1067.61 830.859 C 1077.3 827.273 1087.34 823.393 1097.07 820.048 L 1098.22 844.654 C 1088.35 850.604 1078.68 857.634 1068.93 863.135 C 1068.4 869.433 1067.83 878.995 1066.8 884.95 L 1094.19 885.254 C 1092.56 893.777 1090.61 905.845 1088.49 913.986 C 1078.74 915.859 1070.63 917.057 1060.77 918.275 C 1059.28 927.184 1055.88 936.965 1053.11 945.678 L 1075.73 955.564 C 1071.65 965.179 1067.38 975.851 1063.04 985.263 C 1055.37 982.277 1047.24 978.949 1039.52 976.244 C 1035.42 983.718 1031.33 991.339 1027.15 998.757 C 1032.47 1006.91 1037.67 1013.27 1042.98 1020.94 L 1025.15 1045.89 C 1018.98 1038.69 1012.21 1031.06 1006.32 1023.7 C 1001.49 1029.76 996.445 1035.64 991.205 1041.35 L 997.763 1074.26 C 990.796 1080.24 983.736 1086.22 976.848 1092.28 C 973.913 1081.13 971.037 1069.95 968.221 1058.77 C 962.185 1062.69 956.231 1066.79 949.738 1069.87 C 948.174 1083.18 946.822 1096.52 945.682 1109.87 C 939.564 1111.98 930.326 1114.9 924.622 1117.39 C 924.524 1104.31 924.644 1091.22 924.984 1078.15 C 918.223 1078.94 912.66 1079.49 905.83 1079.84 C 901.021 1094.05 896.32 1107.81 892.131 1122.22 L 871.883 1118.74 C 874.837 1105.88 879.2 1087.56 883.43 1075.04 C 878.71 1073.09 873.079 1070.93 868.58 1068.67 C 860.065 1080.69 852.091 1093.82 844.507 1106.48 C 839.345 1101.45 834.475 1096.66 829.023 1091.93 C 837.07 1078.98 844.267 1065.13 852.092 1052.65 C 847.429 1046.71 845.208 1043.55 841.691 1036.75 C 831.922 1045.34 822.393 1054.19 813.115 1063.31 C 810.553 1056.03 807.801 1048.55 805.36 1041.26 C 814.181 1031.51 822.926 1021.7 831.596 1011.83 C 829.581 1004.1 828.268 998.903 827.528 990.825 C 817.211 995.763 807.006 1000.72 796.407 1005.04 C 795.115 996.021 793.982 986.975 793.007 977.912 C 801.301 972.779 817.865 962.779 826.697 958.636 C 827.382 951.559 828.082 941.587 829.268 934.81 C 820.598 935.529 810.714 936.123 802.173 937.184 C 804.58 927.008 806.876 916.806 809.062 906.579 C 817.765 904.946 826.483 903.395 835.216 901.928 C 837.72 894.767 841.937 883.79 843.815 876.766 L 821.459 864.622 C 825.344 854.635 829.194 844.451 833.22 834.536 C 840.431 838.54 850.447 844.464 857.804 847.509 C 862.25 838.718 866.657 829.705 872.267 821.585 C 868.119 815.749 859.862 803.434 855.498 798.512 C 857.076 795.88 860.913 790.547 860.27 787.936 C 861.488 786.379 861.737 785.606 862.607 783.848 C 865.28 783.031 870.369 776.187 872.527 773.625 L 873.497 773.563 C 878.906 782.143 884.601 790.538 890.574 798.736 C 896.606 791.67 902.892 784.314 909.519 777.792 C 906.545 766.753 904.458 755.494 903.28 744.123 C 909.682 738.425 917.554 731.049 924.256 726.005 C 926.06 736.295 930.478 751.73 931.523 760.835 C 937.631 756.554 942.837 753.403 949.662 750.281 C 952.098 737.685 953.862 724.743 955.741 712.036 C 962.088 709.438 969.594 706.15 975.94 703.861 C 975.529 717.034 975.243 730.212 975.083 743.391 C 980.741 742.555 985.574 741.752 991.328 741.601 C 997.751 728.167 1002.48 715.573 1007.48 701.536 z"/>
<path transform="translate(0,0)" fill="rgb(254,254,254)" d="M 974.401 769.326 C 1019.69 766.929 1042.7 807.219 1047.36 846.708 C 1056.03 920.207 1003.07 1039.44 921.283 1048.64 C 875.744 1051.54 854.359 1013.33 849.449 973.794 C 842.655 919.093 861.995 863.083 894.74 819.567 C 915.395 792.118 940.113 773.851 974.401 769.326 z"/>
<path transform="translate(0,0)" fill="rgb(14,87,93)" d="M 963.51 797.259 C 1061.96 786.059 1045.39 989.369 935.434 1020.62 C 896.603 1026.09 875.956 998.39 870.76 963.304 C 864.524 921.192 878.116 872.567 902.459 837.974 C 917.851 816.099 936.603 801.621 963.51 797.259 z"/>
<path transform="translate(0,0)" fill="rgb(254,254,254)" d="M 962.435 802.213 C 1058.23 792.764 1038.66 983.179 936.626 1015.63 C 837.504 1029.84 862.214 823.237 962.435 802.213 z"/>
<path transform="translate(0,0)" fill="url(#Gradient1)" d="M 552.041 1389.8 C 550.154 1375.02 544.845 1361.46 555.187 1346.44 C 559.43 1340.28 568.497 1337.14 575.583 1336.44 C 579.367 1336.08 591.872 1334.72 594.716 1336.82 C 598.213 1339.4 599.53 1348.87 599.966 1353.59 C 600.893 1363.62 600.61 1377.33 596.917 1386.68 C 596.554 1387.6 591.34 1390.31 590.144 1390.94 C 607.315 1414.05 607.579 1426.44 618.879 1447.92 C 623.589 1447.82 663.753 1445.5 664.683 1446.02 C 666.759 1450.27 663.905 1452.43 664.871 1454.99 C 666.281 1458.72 666.964 1456.01 666.822 1461.54 C 665.286 1465 662.124 1466.78 659.005 1469.05 C 640.752 1467.18 623.552 1478.51 597.138 1477.99 C 595.781 1514.65 596.439 1508.65 613.77 1541.89 C 629.34 1571.75 632.438 1614.8 649.584 1644.66 C 652.504 1649.93 668.301 1638 675.768 1642.14 C 679.951 1650.9 648.124 1673.05 641.355 1680.64 C 638.267 1681.5 639.506 1681.64 636.848 1680.27 C 627.184 1663.1 593.96 1578.96 582.465 1573.32 C 577.89 1576.57 577.45 1603.57 574.571 1609.66 C 560.845 1638.71 545.833 1677.41 528.021 1703.74 L 528.322 1704.78 C 532.118 1717.57 551.5 1728.32 528.473 1735.93 C 515.734 1740.15 511.206 1722.4 508.913 1713.68 C 506.822 1718.52 505.664 1724.43 500.29 1725.6 C 494.271 1717.33 510.763 1688.16 514.896 1679.41 C 518.953 1670.82 522.437 1661.42 526.11 1652.63 C 505.005 1641.8 481.102 1631.63 460.803 1620.65 C 467.187 1604.93 473.492 1589.17 479.717 1573.39 C 482.179 1567.17 487.285 1553.27 490.103 1547.94 C 496.161 1550.39 506.773 1554.32 512.291 1557.08 C 516.271 1548.78 518.445 1546.89 525.02 1540.63 C 528.267 1514.51 526.275 1491.31 528.243 1465.59 C 528.944 1456.43 538.849 1435.58 541.724 1424.72 C 536.561 1417.14 535.069 1413.07 533.761 1404 C 540.132 1398.65 545.287 1394.65 552.041 1389.8 z"/>
<path transform="translate(0,0)" fill="rgb(254,254,254)" d="M 515.989 1558.57 C 517.132 1554.13 522.449 1549.36 525.637 1546.3 C 531.549 1559.29 535.196 1550 537.466 1567.45 C 530.708 1564.58 522.792 1561.02 515.989 1558.57 z"/>
<path transform="translate(0,0)" fill="rgb(40,45,58)" d="M 525.02 1540.63 L 525.637 1546.3 C 522.449 1549.36 517.132 1554.13 515.989 1558.57 C 512.71 1558.83 507.098 1582.2 504.96 1587.31 L 504.499 1586.97 C 506.449 1576.47 509.284 1567.28 512.291 1557.08 C 516.271 1548.78 518.445 1546.89 525.02 1540.63 z"/>
<path transform="translate(0,0)" fill="rgb(254,254,254)" d="M 563.249 1394.84 C 575.634 1396.53 587.259 1418.73 594.056 1429.34 C 593.552 1453.86 588.572 1483.37 590.593 1507.2 C 593.975 1523.49 608.134 1540.53 613.232 1555.84 C 622.836 1584.68 629.43 1614.97 640.831 1643.08 L 631.152 1652.63 C 623.479 1635.42 600.819 1579.52 587.79 1569.28 C 585.04 1567.12 582.88 1566.28 579.387 1566.7 C 569.428 1571.86 572.289 1599.19 567.268 1611.28 C 562.405 1622.99 557.474 1633.03 551.974 1644.39 C 550.106 1648.26 547.753 1652.52 545.742 1656.38 C 551.29 1629.94 555.331 1604.03 560.428 1577.57 C 553.355 1573.72 550.344 1572.58 542.781 1569.94 C 542.215 1564.77 541.571 1559.6 540.85 1554.44 C 548.537 1545.58 547.525 1540.65 549.153 1529.37 C 551.966 1509.87 552.742 1490.01 556.309 1470.65 C 557.071 1466.51 563.576 1458.39 565.115 1453.72 C 567.199 1448.37 574.734 1437.04 572.838 1431.4 L 570.656 1430.79 C 565.097 1434.02 552.387 1466.57 549.779 1473.94 C 546.659 1482.76 545.61 1519.28 542.508 1524.24 C 539.542 1525.37 538.91 1525.05 535.627 1524.6 C 532.795 1520.17 533.761 1508.2 534.113 1502.76 C 534.692 1493.83 532.771 1475.59 534.353 1467.98 C 538.921 1445.96 551.403 1427.49 553.471 1404.42 C 557.348 1399.79 558.496 1398.45 563.249 1394.84 z"/>
<path transform="translate(0,0)" fill="rgb(254,254,254)" d="M 577.988 1342.23 C 582.172 1341.72 588.237 1342.02 592.59 1342.1 C 593.952 1359.63 595.648 1365.75 591.469 1383.4 C 588.11 1384.86 583.55 1386.38 580.02 1387.67 C 586.609 1398.27 588.511 1403.28 592.47 1414.81 C 586.764 1406.15 580.656 1397.26 573.502 1389.76 C 575.974 1387.64 578.831 1384.72 581.217 1382.39 C 584.652 1376.94 590.448 1364.23 587.723 1358.04 L 585.791 1357.8 C 581.066 1361.17 574.142 1395.47 558.655 1386.48 C 557.99 1386.09 554.306 1373.47 554.331 1372.44 C 554.799 1353.01 559.554 1345.86 577.988 1342.23 z"/>
<path transform="translate(0,0)" fill="rgb(254,254,254)" d="M 599.921 1419.61 C 604.435 1426.66 607.298 1442.49 612.409 1450.13 C 617.915 1458.37 635.81 1449.58 642.91 1455.97 C 643.888 1459.43 643.643 1458.17 642.424 1462.41 C 640.341 1464.79 637.424 1465.13 634.221 1466 C 621.519 1469.84 611.118 1470.82 597.993 1471.05 C 598.512 1453.9 601.646 1437.11 599.921 1419.61 z"/>
<path transform="translate(0,0)" fill="rgb(254,254,254)" d="M 531.137 1655.54 L 544.056 1660.7 C 539.147 1671.71 534.183 1680.14 528.179 1690.52 L 527.249 1691.33 C 523.84 1691.65 521.024 1689.79 517.794 1688.24 C 523.422 1677.73 527.139 1666.72 531.137 1655.54 z"/>
<path transform="translate(0,0)" fill="rgb(254,254,254)" d="M 489.271 1587.95 C 492.251 1587.41 522.85 1600.86 528.316 1603.23 L 528.643 1604.31 L 525.796 1608.45 C 517.152 1611.68 504.947 1606.17 497.175 1602.54 L 499.949 1593.18 C 496.291 1591.43 491.83 1590.62 489.271 1587.95 z"/>
<path transform="translate(0,0)" fill="rgb(254,254,254)" d="M 514.112 1695.35 C 517.231 1696.69 519.943 1697.55 522.114 1700.19 C 523.241 1703.79 521.88 1706.57 520.748 1710.34 C 523.301 1714.2 531.584 1724.74 531.786 1727.41 C 528.384 1728 526.108 1728.58 522.634 1728.11 C 517.852 1723.79 514.616 1711.72 512.47 1705.62 C 510.654 1700.47 511.806 1699.74 514.112 1695.35 z"/>
<path transform="translate(0,0)" fill="rgb(254,254,254)" d="M 643.834 1649.71 C 650.787 1656.54 657.313 1651.99 665.931 1649.33 L 653.307 1660.89 L 641.149 1671.64 L 635.576 1657.52 C 637.948 1655.61 641.517 1651.96 643.834 1649.71 z"/>
<path transform="translate(0,0)" fill="rgb(254,254,254)" d="M 533.896 1531.12 C 537.478 1531.02 539.117 1530.5 541.56 1533.08 C 542.747 1536.51 540.673 1542.52 539.698 1546.31 C 535.184 1546.11 535.514 1546.31 533.034 1543.97 C 531.612 1540.46 533.149 1535.03 533.896 1531.12 z"/>
<path transform="translate(0,0)" fill="rgb(254,254,254)" d="M 652.491 1451.98 C 654.983 1451.89 655.373 1451.74 657.635 1452.62 C 659.386 1457.33 659.176 1455.28 658.113 1460.5 L 654.856 1462.41 C 652.131 1462.32 651.685 1462.41 649.174 1461.49 C 646.985 1458.57 647.402 1459.89 647.297 1456.53 C 649.73 1452.82 648.399 1454.05 652.491 1451.98 z"/>
<path transform="translate(0,0)" fill="rgb(254,254,254)" d="M 549.719 1400 L 550.4 1400.66 C 547.215 1406.97 546.394 1416.21 544.231 1418.35 C 542.485 1414.97 541.565 1409.76 540.707 1405.92 C 543.267 1404.03 546.976 1401.77 549.719 1400 z"/>
<path transform="translate(0,0)" fill="rgb(40,45,58)" d="M 815.408 704.733 C 818.31 696.988 824.816 674.523 833.169 672.898 L 834.547 674.133 C 837.133 681.717 831.528 697.345 829.212 705.405 C 834.141 706.393 839.111 707.861 843.967 709.206 C 848.24 703.319 860.473 683.97 865.176 680.872 C 867.861 681.68 868.056 681.645 869.725 683.755 C 870.609 690.84 860.629 708.592 856.817 715.215 C 861.868 718.863 865.088 721.96 869.587 726.182 C 877.092 718.375 883.898 709.432 892.098 700.966 C 893.702 702.965 896.435 707.438 897.915 709.733 C 891.523 718.409 884.885 728.487 878.705 737.43 L 885.953 751.161 C 890.649 748.509 898.272 743.832 903.156 742.353 C 889.47 753.848 888.926 761.055 873.497 773.563 L 872.527 773.625 C 870.369 776.187 865.28 783.031 862.607 783.848 C 861.737 785.606 861.488 786.379 860.27 787.936 C 854.414 770.322 845.845 750.132 828.278 742.385 C 778.647 720.721 733.686 770.723 714.793 811.111 C 698.745 845.417 691.138 886.96 703.515 923.578 C 717.218 964.121 749.524 976.202 787.833 961.936 C 791.778 960.45 795.707 958.918 799.618 957.342 C 796.292 970.213 792.732 975.406 785.411 986.55 C 786.313 994.978 788.041 1007.69 788.205 1015.83 L 777.989 1019.84 L 772.769 991.087 C 767.216 992.899 761.67 994.831 755.971 996.101 C 754.521 1001.52 749.654 1026.27 745.614 1030.19 C 745.003 1030.78 741.125 1030.71 739.855 1030.71 C 736.565 1024.98 742.591 1003.29 744.149 996.431 C 739.1 995.305 733.92 994.078 728.849 993.119 C 725.967 999.894 717.537 1020.68 713.995 1025.79 C 710.926 1025.12 707.844 1024.51 704.75 1023.97 C 699.744 1022.39 689.86 1022.83 684.413 1023.04 C 681.181 1024.11 680.343 1024.37 676.968 1024.68 C 655.092 1030.69 643.398 1037.1 625.237 1051.39 C 623.139 1015.54 607.506 965.482 570.155 951.916 C 566.744 951.68 562.246 949.591 558.924 948.268 C 578.704 938.784 594.277 929.092 617.783 931.578 C 639.61 933.887 651.807 945.312 664.685 961.465 C 670.393 954.846 676.383 946.51 682.379 939.375 L 676.72 921.411 C 671.752 924.673 658.37 935.029 652.808 931.36 C 653.755 922.38 668.096 911.211 675.086 905.014 C 674.671 897.278 674.901 889.151 674.974 881.38 C 666.62 883.596 660.818 884.872 652.293 886.296 L 654.368 873.919 L 676.017 863.529 C 677.573 854.564 679.544 846.601 681.725 837.757 C 673.971 835.234 668.776 832.957 661.331 829.634 C 661.98 826.805 663.683 822.164 664.661 819.277 C 672.193 819.826 679.717 820.488 687.229 821.262 C 690.669 812.833 694.298 805.068 698.164 796.822 L 683.579 779.537 C 685.466 777.14 688.101 772.823 689.857 770.11 C 697.181 773.65 701.502 776.267 708.39 780.642 C 713.507 771.889 717.32 765.956 723.879 758.271 C 720.985 751.284 718.345 743.982 715.679 736.889 C 718.041 734.442 721.245 730.236 723.48 727.467 C 727.577 733.159 731.746 738.8 735.986 744.387 C 741.766 738.082 745.671 735.102 752.585 730.537 C 752.181 720.909 751.694 711.284 751.122 701.663 C 754.061 699.414 757.523 697.473 760.715 695.552 C 763.168 703.403 765.406 711.597 767.672 719.528 C 773.143 716.652 778.944 714.339 784.647 711.944 C 786.279 702.73 786.608 691.488 790.475 683.278 C 792.351 679.296 795.965 678.748 800.223 677.48 C 800.09 687.728 799.947 697.07 799.167 707.322 C 803.353 706.178 810.873 705.358 815.408 704.733 z"/>
<path transform="translate(0,0)" fill="rgb(254,254,254)" d="M 570.155 951.916 C 630.633 914.502 673.088 966.413 676.968 1024.68 C 655.092 1030.69 643.398 1037.1 625.237 1051.39 C 623.139 1015.54 607.506 965.482 570.155 951.916 z"/>
<path transform="translate(0,0)" fill="rgb(254,254,254)" d="M 705.818 977.851 C 710.822 982.562 713.388 984.742 718.93 988.866 C 713.938 1000.46 709.21 1012.16 704.75 1023.97 C 699.744 1022.39 689.86 1022.83 684.413 1023.04 C 684.072 1020.64 682.016 1008.32 682.821 1006.3 C 683.288 1005.13 687.214 1004.65 689.293 1001.97 C 695.129 994.431 700.587 985.807 705.818 977.851 z"/>
<path transform="translate(0,0)" fill="rgb(254,254,254)" d="M 862.607 783.848 C 860.624 778.784 855.566 767.096 864.967 766.227 C 868.593 767.26 870.316 770.512 872.527 773.625 C 870.369 776.187 865.28 783.031 862.607 783.848 z"/>
<path transform="translate(0,0)" fill="rgb(254,254,254)" d="M 687.345 952.954 L 697.695 969.141 C 692.052 978.491 686.354 987.809 680.601 997.092 C 677.292 986.479 674.473 979.939 669.641 970.017 C 675.799 964.299 681.477 958.966 687.345 952.954 z"/>
<path transform="translate(0,0)" fill="rgb(40,45,58)" d="M 824.15 1216.83 C 826.821 1217.38 825.655 1216.76 827.596 1219.01 C 828.632 1223.78 827.76 1230.49 827.373 1235.52 C 838.198 1250.67 833.963 1261.13 824.45 1274.95 C 824.2 1277.11 842.305 1328.84 844.668 1337.65 C 854.661 1336.86 863.893 1336.12 873.937 1335.93 C 899.408 1317.05 901.142 1340.1 888.646 1355.98 C 868.061 1354.5 853.57 1363.87 832.895 1370.73 C 831.276 1376.99 830.153 1378.83 825.848 1383.37 C 844.052 1436.47 857.525 1482.65 872.83 1536.62 C 878.805 1535.17 892.923 1530.92 898.313 1532.59 L 899.044 1534.65 C 897.903 1544.35 868.148 1566.19 859.289 1573.43 C 852.146 1554.13 843.472 1535.3 835.922 1516.29 C 826.386 1492.29 823.191 1482.76 805.4 1464.01 L 803.765 1464.57 C 800.78 1477.07 798.78 1494.41 794.879 1505.93 C 791.779 1515.09 783.198 1531.69 778.7 1540.91 C 769.568 1559.6 760.541 1578.34 751.618 1597.13 C 763.211 1614.44 778.303 1614.04 749.737 1628.97 C 746.143 1626.15 722.238 1609.91 723.122 1607.34 C 725.718 1599.8 730.975 1588.39 733.744 1580.38 L 750.869 1529.87 C 756.088 1514.73 761.487 1501.76 763.363 1485.6 C 765.067 1470.92 768.791 1455.46 769.853 1440.71 C 770.102 1437.26 767.139 1425.51 766.243 1421.61 C 764.354 1420.96 764.103 1420.92 762.324 1419.84 C 759.093 1406.6 754.581 1371.84 754.737 1357.95 C 754.784 1353.76 761.184 1335.98 762.996 1330.57 C 768.136 1315.29 773.185 1299.98 778.142 1284.63 C 783.055 1281.33 791.157 1277.48 796.625 1274.69 L 788.476 1238.43 L 792.22 1228.33 C 802.85 1224.17 812.76 1221.56 824.15 1216.83 z"/>
<path transform="translate(0,0)" fill="rgb(254,254,254)" d="M 789.507 1284.7 C 808.637 1283.68 824.287 1341.82 827.153 1356.88 C 827.723 1359.88 826.161 1371.35 825.713 1375.04 C 813.496 1383.34 799.283 1386.72 785.219 1390.88 C 784.314 1380.91 783.927 1370.66 783.435 1360.65 C 790.829 1350.3 812.114 1319.9 803.2 1307.62 L 801.613 1307.96 L 800.146 1311.17 C 796.278 1334.75 788.982 1340.86 777.03 1360.73 L 780.592 1406.74 C 776.473 1408.51 772.076 1410.78 768.016 1412.78 C 766.64 1406.16 759.693 1363.6 761.007 1358.03 C 764.681 1342.47 775.845 1311.14 781.458 1294.64 C 783.492 1288.66 784.139 1287.08 789.507 1284.7 z"/>
<path transform="translate(0,0)" fill="rgb(254,254,254)" d="M 809.237 1389.97 L 811.071 1389.71 L 811.976 1390.93 C 806.866 1424.63 795.979 1468.54 789.644 1502.28 C 788.191 1510.02 752.688 1580.6 748.541 1587.5 C 744.558 1587.46 744.546 1586.56 740.585 1584.08 L 739.857 1581.56 C 745.951 1557.57 761.225 1524.8 767.275 1500.02 C 769.483 1493.04 775.026 1441.39 777.888 1438.91 C 801.584 1418.45 790.321 1429.49 785.587 1396.48 C 794.44 1395.78 800.948 1392.98 809.237 1389.97 z"/>
<path transform="translate(0,0)" fill="rgb(254,254,254)" d="M 819.33 1386.82 C 824.069 1390.56 861.96 1520.78 867.235 1537.74 C 863.643 1539.77 858.676 1543.27 855.111 1545.62 C 845.015 1523.56 836.449 1499.54 825.987 1477.68 C 823.419 1472.32 810.62 1459.9 805.788 1454.33 C 810.179 1433.06 814.123 1407.44 819.33 1386.82 z"/>
<path transform="translate(0,0)" fill="rgb(254,254,254)" d="M 819.976 1225.17 L 820.932 1226.5 C 820.724 1238.07 827.631 1249.11 825.489 1261.81 C 823.901 1271.22 822.553 1265.99 815.848 1270.84 C 813.94 1272.22 816.865 1277.89 815.744 1279.61 C 814.163 1275.24 815.167 1281.13 812.353 1276.16 C 809.47 1273.76 806.505 1272.7 803.068 1271.22 C 799.542 1258.06 796.624 1247.42 795.625 1233.87 L 819.976 1225.17 z"/>
<path transform="translate(0,0)" fill="rgb(254,254,254)" d="M 824.06 1299.83 C 830.537 1310.32 836.088 1331.7 839.38 1343.94 C 847.973 1343.62 869.678 1339.17 875.016 1345.22 L 874.858 1347.5 C 872.582 1350.15 869.501 1350.77 866.084 1351.97 C 855.457 1356.07 844.774 1360.03 834.038 1363.84 C 834.202 1349.12 827.346 1315.04 824.06 1299.83 z"/>
<path transform="translate(0,0)" fill="rgb(254,254,254)" d="M 737.924 1592.29 C 738.866 1592.66 739.703 1592.99 740.63 1593.41 L 741.604 1593.86 C 746.03 1595.85 747.589 1604.7 751.661 1609.06 C 754.337 1611.93 755.477 1612.98 758.598 1615.47 C 757.146 1618.44 755.784 1618.44 752.455 1620.37 C 748.708 1619.82 734.381 1609.01 729.975 1606.02 L 737.924 1592.29 z"/>
<path transform="translate(0,0)" fill="rgb(254,254,254)" d="M 885.628 1540.26 C 887.059 1539.86 886.515 1539.99 888.146 1540.37 C 886.63 1543.45 866.622 1559.37 862.71 1562.62 C 861.423 1560.47 859.077 1554.79 857.948 1552.24 L 867.622 1543.35 C 873.016 1542.75 880.155 1541.25 885.628 1540.26 z"/>
<path transform="translate(0,0)" fill="rgb(254,254,254)" d="M 781.983 1414.09 C 785.37 1416.67 786.264 1421.22 785.866 1425.23 L 784.861 1425.34 L 780.302 1420.25 L 778.628 1420.2 L 778.404 1422 C 777.558 1424.73 776.75 1425.24 774.498 1426.83 L 772.543 1425.58 C 770.275 1417.76 775.996 1416.26 781.983 1414.09 z"/>
<path transform="translate(0,0)" fill="rgb(254,254,254)" d="M 885.807 1334.44 C 886.351 1334.7 887.361 1335.61 887.885 1336.03 C 889.062 1342.72 889.349 1347.31 882.986 1350.79 L 880.958 1348.96 C 878.988 1341.62 880.186 1338.7 885.807 1334.44 z"/>
<path transform="translate(0,0)" fill="rgb(40,45,58)" d="M 974.671 1146.81 C 982.665 1140.49 995.009 1134.85 1004.96 1140.57 C 1018.77 1148.52 1010.02 1169.57 1009.34 1181.73 C 1009.17 1184.83 1010.68 1189.49 1011.62 1192.53 C 1014.82 1192.09 1035.65 1188.94 1036.77 1190.79 C 1048.97 1210.99 1058.97 1228.45 1075.6 1246.06 C 1077.9 1265.49 1080.5 1284.52 1084.74 1303.61 C 1084.74 1303.61 1082.99 1308.1 1082.85 1308.47 L 1086.39 1308.9 C 1088.62 1312.05 1090.9 1315.16 1093.22 1318.24 C 1089.17 1324.68 1086.18 1331.45 1078.09 1332.76 C 1069.96 1329.69 1072.82 1318.1 1075.02 1311.53 C 1065.59 1293.52 1059.62 1280.3 1054.13 1260.91 C 1049.96 1258.35 1045.64 1254.98 1041.68 1252.03 C 1044.96 1268.89 1049.34 1288.17 1047.09 1305.29 C 1046.27 1311.52 1052.57 1348.22 1055.67 1352.61 C 1068.71 1371.13 1088.73 1404.44 1104.43 1419.37 C 1104.24 1419.75 1104.05 1420.12 1103.84 1420.5 C 1099.06 1429.24 1084.32 1456.05 1074.71 1458.81 L 1073.4 1457.94 C 1072.59 1451.53 1079.85 1436.34 1082.81 1430.18 C 1072.5 1422.23 1055.61 1406.12 1045.36 1396.94 C 1025.35 1379.96 1026.6 1378.04 1018.01 1354.19 C 1007.62 1403.2 992.791 1457.16 981.143 1506.72 C 980.253 1507.2 979.353 1507.65 978.443 1508.09 C 971.427 1511.41 949.006 1522.07 942.641 1519.77 L 942.057 1517.82 C 944.689 1510.77 959.165 1499.13 965.452 1493.53 C 972.411 1435.03 985.362 1376.37 989.505 1317.47 C 990.291 1306.29 987.187 1282.8 986.14 1270.85 C 974.481 1309.01 974.689 1305.59 946.952 1335.19 C 946.893 1345.31 939.565 1361.14 928.15 1359.02 C 916.983 1351.38 931.412 1341.2 932.447 1334.98 C 935.559 1316.3 954.385 1302.56 960.921 1284.71 C 968.29 1264.58 969.122 1240.12 976.038 1219.84 C 982.254 1216.16 984.877 1210.97 990.369 1209.38 C 987.513 1200.33 981.751 1204.02 980.833 1200.83 C 978.587 1193.02 980.711 1179.25 970.564 1171.36 C 967.945 1169.33 973.27 1151.18 974.671 1146.81 z"/>
<path transform="translate(0,0)" fill="rgb(254,254,254)" d="M 1004.5 1200.23 L 1005.77 1198.96 L 1007.71 1200.16 L 1008.69 1199.86 C 1005.17 1221.28 1002.41 1246.03 991.912 1265.83 C 990.825 1256.91 986.836 1229.66 988.646 1222.16 L 989.263 1221.3 L 993.461 1220.02 C 996.181 1217.18 1002.17 1204.7 1004.5 1200.23 z"/>
<path transform="translate(0,0)" fill="rgb(40,45,58)" d="M 1004.5 1200.23 L 1005.77 1198.96 L 1007.71 1200.16 C 1003.07 1208.9 997.9 1215.74 998.554 1225.29 L 997.044 1226.38 C 994.868 1225.22 990.807 1222.9 988.646 1222.16 L 989.263 1221.3 L 993.461 1220.02 C 996.181 1217.18 1002.17 1204.7 1004.5 1200.23 z"/>
<path transform="translate(0,0)" fill="rgb(254,254,254)" d="M 1004.5 1200.23 C 1002.17 1204.7 996.181 1217.18 993.461 1220.02 L 989.263 1221.3 C 986.861 1216.91 988.753 1213.78 990.369 1209.38 C 995.047 1206.28 999.758 1203.23 1004.5 1200.23 z"/>
<path transform="translate(0,0)" fill="rgb(40,45,58)" d="M 793.927 750.271 C 826.453 747.006 849.413 768.598 853.249 801.536 C 853.333 802.26 852.623 802.472 852.005 802.932 C 849.479 800.807 847.951 789.923 845.906 785.981 C 809.66 716.09 739.625 773.665 722.81 824.452 C 710.912 860.387 706.24 888.609 721.771 922.711 C 732.982 941.691 748.817 953.457 772.558 949.746 C 776.584 949.117 787.275 944.751 790.512 945.81 L 789.821 947.373 C 786.481 949.531 777.072 953.091 773.057 953.706 C 739.901 958.791 717.884 935.327 711.23 905.357 C 698.321 847.209 732.124 764.631 793.927 750.271 z"/>
<path transform="translate(0,0)" fill="rgb(254,254,254)" d="M 135.051 633.008 L 264.031 633.909 C 262.247 668.961 262.807 708.026 262.311 743.542 L 259.112 925.679 L 246.366 1629.36 C 238.029 1636.9 225.268 1646.6 216.28 1653.83 L 160.325 1698.89 C 138.927 1715.98 106.2 1739.78 86.9683 1757.33 C 87.0283 1731.21 89.1251 1700.23 90.148 1673.63 L 99.7154 1452.31 L 135.051 633.008 z"/>
<path transform="translate(0,0)" fill="rgb(254,254,254)" d="M 275.608 650.555 C 278.243 653.085 287.808 669.061 290.233 672.885 C 304.467 695.329 316.986 718.662 331.568 740.909 C 331.142 774.188 334 821.517 335.519 855.329 C 337.672 903.599 339.492 951.883 340.978 1000.18 L 364.933 1589.5 L 371.291 1767.16 C 372.767 1808.21 374.974 1850.96 375.074 1891.97 L 368.476 1877.25 C 359.547 1855.79 349.389 1834.36 339.866 1813.07 L 283.391 1686.36 C 275.585 1668.68 264.114 1647.4 258.489 1628.99 C 257.654 1626.25 258.452 1609.11 258.532 1604.7 C 258.718 1587.68 259.023 1570.67 259.447 1553.65 L 262.464 1389.13 L 275.608 650.555 z"/>
<path transform="translate(0,0)" fill="rgb(254,254,254)" d="M 539.578 163.257 C 546.573 162.452 553.633 162.399 560.639 163.097 C 600.27 167.365 628.03 197.256 651.535 226.354 C 606.7 290.094 587.498 360.429 574.771 435.873 C 542.298 451.457 498.994 467.908 464.96 482 C 438.231 493.364 410.869 504.382 383.988 515.453 C 379.894 415.517 396.901 308.606 454.785 224.505 C 475.226 194.805 502.985 169.575 539.578 163.257 z"/>
<path transform="translate(0,0)" fill="rgb(254,254,254)" d="M 571.323 451.019 L 572.166 451.36 C 572.505 452.776 568.992 512.802 569.003 522.666 C 569.041 557.879 573.013 592.207 579.677 626.733 C 555.988 636.332 529.627 648.87 505.991 659.416 L 341.385 733.479 C 333.682 722.402 325.264 707.501 318.245 695.726 C 305.161 673.303 291.618 651.151 277.624 629.285 L 272.744 621.312 C 235.638 622.26 197.214 621.848 160.003 621.868 C 173.197 615.288 192.621 607.745 206.481 601.932 C 237.836 588.733 269.275 575.736 300.798 562.943 L 571.323 451.019 z"/>
<path transform="translate(0,0)" fill="rgb(254,254,254)" d="M 886.581 321.907 L 888.618 322.353 C 891.585 326.592 895.455 338.268 897.317 343.512 C 913.194 388.254 919.619 432.982 919.094 480.251 C 886.308 495.061 851.973 509.264 818.865 523.579 C 757.336 550.342 695.969 577.477 634.767 604.982 C 628.365 607.811 621.945 610.602 615.509 613.354 C 605.765 548.768 604.007 498.755 614.388 433.684 C 650.385 417.242 689.729 402.066 726.512 387.075 L 886.581 321.907 z"/>
<path transform="translate(0,0)" fill="rgb(254,254,254)" d="M 249.788 1643.04 C 253.479 1647.45 266.633 1678.77 269.545 1685.43 L 295.063 1742.75 C 319.521 1797.66 346.597 1853.31 369.489 1908.7 C 334.291 1891.35 299.258 1873.68 264.392 1855.67 C 248.033 1848.26 224.881 1834.99 207.939 1826.43 L 91.9956 1768.38 C 142.903 1726.47 198.003 1684.23 249.788 1643.04 z"/>
<path transform="translate(0,0)" fill="rgb(254,254,254)" d="M 752.738 163.297 C 850.761 154.8 908.826 267.428 932.032 346.682 C 950.734 410.555 956.925 478.435 946.654 544.408 C 945.28 553.235 944.608 567.14 940.198 575.493 C 932.421 585.739 919.482 579.931 920.528 565.498 C 921.532 551.623 924.725 538.09 926.004 524.222 C 928.917 490.961 928.273 457.484 924.081 424.359 C 915.098 352.027 886.318 268.925 828.227 221.5 C 774.858 177.93 717.37 196.98 678.183 247.66 C 600 346.477 585.849 515.874 612.669 635.786 C 616.963 654.983 624.727 675.034 630.787 693.923 C 624.614 710.715 616.141 714.749 608.617 695.688 C 557.922 567.255 569.187 412.613 625.455 287.753 C 649.149 235.174 691.357 172.557 752.738 163.297 z"/>
<path transform="translate(0,0)" fill="rgb(254,254,254)" d="M 759.29 205.349 C 762.131 204.943 767.003 204.995 769.984 205.228 C 824.565 209.492 863.028 265.495 884.307 309.794 L 805.5 341.989 L 748.763 365.022 C 740.742 315.352 726.147 276.182 701.426 232.874 C 720.781 217.587 734.005 208.418 759.29 205.349 z"/>
<path transform="translate(0,0)" fill="rgb(254,254,254)" d="M 540.745 120.367 C 546.846 119.357 559.073 120.126 565.274 121.157 C 612.104 128.94 646.085 162.742 672.646 199.579 C 667.3 205.608 660.751 214.391 655.618 220.866 C 637.328 193.943 606.045 165.642 573.745 157.605 C 548.871 151.522 522.597 155.688 500.825 169.167 C 435.612 208.973 404.751 297.884 387.561 368.215 C 376.567 428.382 373.92 457.071 376.829 518.187 L 351.858 528.56 C 351.728 527.711 351.613 526.86 351.514 526.007 C 348.982 504.603 350.438 477.951 351.249 456.218 C 355.263 348.673 413.393 135.792 540.745 120.367 z"/>
<path transform="translate(0,0)" fill="rgb(254,254,254)" d="M 673.153 267.568 C 674.923 269.594 678.812 276.986 680.143 279.594 C 696.682 311.999 705.053 344.023 711.242 379.376 C 696.365 387.069 662.984 400.143 646.731 406.915 C 636.855 410.587 627.071 414.501 617.387 418.653 C 622.392 369.453 647.947 309.459 673.153 267.568 z"/>
<path transform="translate(0,0)" fill="rgb(254,254,254)" d="M 968.967 360.43 C 1000.27 364.678 1032.91 370.919 1064.2 376.039 C 1083.6 379.213 1103.46 383.341 1123 385.29 C 1107.84 391.702 1089.59 400.998 1074.01 408.032 C 1038.81 423.837 1004.55 439.764 969.072 455.116 C 968.682 423.555 968.647 391.991 968.967 360.43 z"/>
<path transform="translate(0,0)" fill="rgb(254,254,254)" d="M 696.45 238.692 C 698.891 241.614 704.796 253.092 706.639 256.852 C 724.71 293.707 734.228 328.054 741.815 367.851 C 735.049 370.497 728.309 373.208 721.596 375.986 L 720.444 376.267 C 716.12 375.031 717.236 367.309 716.041 362.458 C 708.983 333.798 696.041 284.43 677.955 261.106 C 684.156 253.122 689.545 246.126 696.45 238.692 z"/>
<path transform="translate(0,0)" fill="rgb(254,254,254)" d="M 988.922 280.021 C 991.516 282.567 966.61 329.973 962.993 337.768 C 951.29 362.987 956.371 394.884 956.798 423.281 C 954.956 415.369 953.406 404.433 952 396.226 C 946.296 362.353 938.527 337.445 926.82 305.485 C 948.028 297.111 968.019 289.173 988.922 280.021 z"/>
<path transform="translate(0,0)" fill="rgb(254,254,254)" d="M 629.653 661.087 C 662.345 672.433 647.201 725.825 617.567 731.654 C 598.34 735.436 589.444 721.036 585.96 704.658 C 585.65 692.488 588.11 686.448 593.28 675.768 C 597.207 686.876 600.438 698.604 606.276 708.587 C 615.84 721.422 630.591 717.88 635.557 702.259 C 640.643 686.26 628.11 670.647 629.653 661.087 z"/>
<path transform="translate(0,0)" fill="rgb(254,254,254)" d="M 913.719 546.709 C 915.297 555.608 910.183 566.772 913.531 575.709 C 916.948 584.829 925.938 591.968 936.072 587.813 C 953.448 580.69 948.547 565.585 954.479 552.193 L 955.501 552.234 C 957.465 557.763 957.485 564.475 956.812 570.244 C 944.354 628.657 873.551 592.764 913.719 546.709 z"/>
<path transform="translate(0,0)" fill="rgb(254,254,254)" d="M 997.529 292.882 C 999.963 296.313 998.279 345.679 997.964 353.526 C 991.019 352.896 983.961 351.122 977.129 349.61 L 973.567 348.771 C 972.756 346.246 994.281 300.576 997.529 292.882 z"/>
</svg>