<svg version="1.1" xmlns="http://www.w3.org/2000/svg" style="display: block;" viewBox="0 0 2048 2048" width="1024" height="1024" preserveAspectRatio="none">
<path transform="translate(0,0)" fill="rgb(255,255,255)" d="M 0 0 L 2048 0 L 2048 2048 L 0 2048 L 0 0 z"/>
<path transform="translate(0,0)" fill="rgb(11,18,22)" d="M 548.64 519.149 C 567.701 517.027 572.969 525.262 585.119 537.825 C 621.702 523.678 658.398 520.914 684.115 556.631 C 695.266 570.678 686.029 583.603 693.096 598.886 C 697.469 608.343 715.345 616.736 714.508 626.438 C 711.668 632.674 706.502 634.503 700.422 637.808 L 701.941 650.916 C 700.075 652.365 696.903 654.42 694.872 655.823 C 696.985 687.039 688.897 687.762 659.7 683.72 C 648.788 690.104 646.957 692.78 641.972 704.008 C 649.314 710.558 674.084 733.279 667.961 744.284 C 664.416 745.261 660.453 742.989 656.544 741.47 C 653.534 742.248 653.046 742.092 650.804 744.273 C 650.599 753.759 655.676 779.445 656.924 790.01 C 659.087 808.321 660.824 826.394 662.6 844.747 C 665.013 843.321 668.661 841.215 671.498 841.386 C 679.673 841.881 696.026 858.403 702.064 864.451 C 702.112 873.222 704.72 892.867 705.685 902.464 C 695.442 908.582 690.431 920.709 680.405 928.032 C 669.216 936.205 671.344 936.816 658.944 932.214 C 652.625 933.516 651.551 936.506 651.753 942.694 C 652.147 954.739 652.704 966.73 652.996 978.79 C 653.711 1004.17 654.017 1029.55 653.914 1054.94 C 651.556 1058.28 649.014 1061.12 646.362 1064.22 C 652.442 1094.31 663.173 1125.87 669.159 1155.98 C 672.986 1175.23 675.974 1196.02 679.632 1215.65 C 686.46 1252.45 694.135 1289.09 702.651 1325.53 C 705.005 1335.77 711.298 1366.36 714.566 1374.54 C 716.055 1375.62 717.543 1376.7 719.031 1377.78 C 723.285 1392.53 726.17 1408 729.362 1423.04 L 716.302 1426.68 C 719.293 1431.95 723.64 1438.14 727.058 1443.28 C 747.694 1449.34 769.401 1450.83 790.673 1447.66 C 808.457 1444.94 822.91 1435.16 840.35 1441.03 C 863.389 1448.78 841.869 1464.26 833.025 1471.83 C 803.432 1497.17 771.304 1503.68 734.758 1511.81 C 725.618 1513.87 709.232 1522.05 699.784 1526.37 C 695.359 1519.47 687.264 1507.5 685.145 1499.57 C 679.148 1477.11 679.725 1462.33 670.704 1439.95 C 663.919 1442.02 656.74 1443.93 649.886 1445.87 C 644.858 1430.23 640.26 1414.26 635.014 1398.66 C 634.49 1397.1 635.976 1392.69 636.516 1391 C 623.117 1342.68 600.882 1294.97 591.598 1245.23 C 586.015 1215.32 581.209 1208.19 565.907 1183.02 C 557.818 1169.89 550.068 1156.55 542.666 1143.01 C 533.396 1159.82 528.663 1193.14 524.352 1213.41 C 517.874 1242.97 511.677 1272.59 505.759 1302.26 C 502.3 1318.95 498.508 1338.11 494.242 1354.45 C 468.251 1353.11 442.336 1352.75 416.272 1351.42 L 381.507 1396.32 C 375.828 1393.58 369.858 1390.08 364.308 1386.98 C 353.796 1401.36 342.783 1415.32 332.269 1429.85 C 333.329 1446.24 332.815 1462.72 332.069 1479.11 C 353.537 1486.48 390.507 1506.27 356.299 1526.91 C 338.702 1526.36 301.488 1524.53 286.867 1515.76 C 281.243 1504.06 277.948 1477.1 272.887 1462.57 C 269.769 1450.58 256.501 1431.41 257.132 1419.33 C 257.844 1405.67 285.548 1392.11 297.32 1392.55 C 307.01 1381.81 313.519 1372.39 321.33 1360.32 C 315.857 1356.07 310.803 1353.36 304.802 1349.93 C 311.925 1340 320.524 1329.37 328.257 1319.85 C 316.723 1313.33 299.94 1306.55 287.567 1300.4 C 270.778 1292.06 253.626 1283.79 236.948 1275.19 C 227.823 1270.48 210.605 1263.41 203.22 1257.35 C 202.616 1253.06 215.862 1237.17 219.243 1232.49 C 208.712 1228.22 162.919 1210.63 156.161 1205.15 C 158.134 1197.24 242.503 1074.57 256.7 1053.88 C 267.083 1056.05 282.413 1062.76 292.561 1066.92 C 300.774 1054.43 309.231 1060.07 321.487 1063.86 C 334.277 1045.2 344.136 1037.24 363.355 1026.12 C 389.844 1010.79 401.444 974.326 409.062 946.321 C 402.877 943.407 399.346 941.631 393.524 938.049 C 397.866 917.736 416.73 878.785 425.742 857.401 L 453.36 791.434 C 477.97 732.734 496.218 687.879 562.661 676.489 C 573.694 674.598 582.675 666.352 589.808 658.03 C 565.442 645.697 550.391 628.544 544.501 601.756 C 539.094 608.641 534.993 616.089 533.173 624.805 C 531.886 630.966 535.254 643.934 531.629 648.32 C 521.138 651.186 504.813 621.734 502.029 612.818 C 490.77 576.754 511.684 530.461 548.64 519.149 z"/>
<path transform="translate(0,0)" fill="rgb(255,255,255)" d="M 611.544 832.8 C 615.456 837.035 620.472 864.796 620.255 871.162 C 619.378 896.981 619.329 922.371 619.586 948.232 C 615.381 947.478 601.422 944.291 598.393 945.563 C 598.083 946.307 598.599 962.936 598.337 966.913 C 595.329 966.6 592.37 966.187 589.373 965.792 L 589.195 965.162 C 593.167 960.78 596.666 957.205 597.455 951.272 C 594.871 944.817 581.345 943.32 579.687 949.673 C 585.013 960.023 573.932 963.612 579.074 971.109 C 587.754 974.548 608.922 973.22 619.768 973.219 C 625.461 1034.76 646.358 1092.05 659.719 1152.12 C 665.041 1176.04 668.238 1202.57 673.128 1227.21 C 683.31 1277.33 694.205 1327.29 705.812 1377.1 C 685.789 1381.2 665.825 1385.58 645.927 1390.25 C 632.795 1347.77 614.269 1306.62 604.104 1262.92 C 600.003 1245.29 596.419 1221.6 589.224 1205.69 C 579.486 1188.67 568.116 1171.83 558.379 1154.65 C 553.678 1146.35 551.233 1140.33 547.039 1132.2 C 553.885 1107.14 555.085 1082.19 559.927 1057.19 C 561.753 1047.77 577.941 1029.91 579.631 1016.9 C 578.383 1014 579.314 1015.19 576.598 1013.33 C 572.643 1014.89 561.66 1034.96 558.781 1039.86 C 558.934 1033.56 560.195 1019.12 556.869 1014.67 L 555.174 1014.59 C 552.052 1017.52 552.702 1031.94 552.258 1038.08 C 549.85 1071.34 547.311 1110.88 534.69 1142.02 C 522.94 1136.92 512.243 1132.37 500.359 1127.73 C 485.31 1121.86 461.652 1114.99 447.978 1107.38 C 445.505 1102.04 449.564 1083.36 450.428 1075.87 C 461.149 1081.24 476.791 1089.96 488.621 1086.16 C 501.894 1074.98 539.742 983.816 548.028 964.363 C 554.866 966.099 564.247 971.643 570.391 968.724 C 571.625 966.87 577.039 945.715 578.481 941.207 C 574.059 939.981 565.825 938.695 561.012 937.815 C 583.071 901.856 596.485 871.97 611.544 832.8 z"/>
<path transform="translate(0,0)" fill="rgb(214,227,212)" d="M 260.4 1064.51 C 275.749 1067.19 290.195 1076.15 304.436 1082.21 C 322.721 1090 421.72 1131.83 431.425 1127.3 C 435.463 1125.42 437.731 1118.07 439.364 1114.21 C 450.185 1118.26 462.652 1123.91 473.562 1128.41 C 464.101 1139.77 452.064 1158.86 443.438 1171.43 C 421.426 1203.52 400.621 1237.27 377.765 1268.78 C 374.079 1274.21 370.245 1279.09 366.234 1284.27 C 348.502 1276.43 329.734 1269.3 311.754 1261.86 L 234.925 1229.72 C 213.23 1220.88 187.99 1211.36 167.238 1201.34 C 199.413 1157.98 228.091 1108.07 260.4 1064.51 z"/>
<path transform="translate(0,0)" fill="rgb(255,255,255)" d="M 563.639 685.357 C 564.783 696.481 566.93 709.171 568.59 720.325 L 560.672 726.903 C 569.776 738.376 578.694 750.311 587.834 761.896 C 582.567 766.973 576.934 771.076 571.219 776.722 C 575.838 786.558 585.71 799.222 591.676 810.016 L 591.487 811.937 C 590.033 827.806 574.899 867.376 568.582 883.917 C 544.611 946.683 519.032 1022.61 483.857 1079.74 C 470.636 1076.67 460.98 1071.89 449.84 1064.44 C 448.099 1046.31 445.02 1035.07 433.655 1020.43 C 435.177 1010.86 436.835 1002.99 438.96 993.601 C 450.813 1001.66 479.289 1017.2 491.74 1003.11 C 503.249 990.091 511.08 970.96 521.961 957.026 C 523.585 954.947 524.256 953.426 523.747 950.941 C 521.539 949.407 521.706 949.278 519.069 949.257 C 510.694 953.806 491.676 989.316 485.358 999.812 C 469.092 999.776 454.981 995.282 441.591 985.939 L 448.991 964.142 L 458.845 967.602 C 466.396 955.158 470.147 945.294 468.859 930.784 C 474.116 914.214 482.612 893.878 489.091 877.635 C 497.088 884.314 513.919 900.88 523.976 900.237 C 534.566 899.56 549.786 857.828 547.997 850.986 C 545.343 848.911 546.855 849.471 543.186 849.624 C 535.833 861.364 531.289 880.42 522.967 893.265 C 512.558 887.102 502.289 877.723 493.026 869.745 C 501.911 849.086 514.231 830.088 525.671 810.82 C 528.739 805.653 538.994 792.728 538.665 787.843 C 535.626 785.525 537.275 786.013 533.605 786.146 C 525.197 790.965 495.382 845.943 488.665 858.753 C 479.162 876.875 469.204 904.26 462.06 923.513 C 446.264 916.992 432.001 910.264 415.771 904.121 C 419.929 890.491 434.245 858.166 440.354 844.017 C 456.359 806.953 471.702 765.009 492.445 730.644 C 510.328 701.016 531.106 692.357 563.639 685.357 z"/>
<path transform="translate(0,0)" fill="rgb(135,177,151)" d="M 624.485 536.428 C 651.645 536.813 666.715 545.021 681.328 567.908 C 669.071 570.022 653.516 572.307 641.933 576.493 C 625.649 582.376 629.261 599.294 631.723 612.74 C 609.574 592.588 595.583 610.013 607.28 633.659 C 608.47 635.705 608.208 634.878 608.265 637.26 C 604.166 643.287 599.515 645.975 593.556 649.953 C 558.578 635.213 539.2 594.189 569.342 564.072 C 586.584 546.846 599.668 538.052 624.485 536.428 z"/>
<path transform="translate(0,0)" fill="rgb(214,227,212)" d="M 227.622 1235.84 C 238.15 1241.25 251.132 1245.2 262.221 1250.52 C 297.8 1267.59 340.113 1279.86 374.074 1299.14 C 390.862 1308.67 411.34 1329.84 424.542 1343.24 L 413.763 1342.74 C 381.834 1338.35 350.238 1320.16 321.538 1306.89 C 285.483 1290.21 250.169 1271.65 214.359 1254.74 C 218.345 1248.6 223.348 1241.88 227.622 1235.84 z"/>
<path transform="translate(0,0)" fill="rgb(135,177,151)" d="M 481.416 1131.91 L 494.659 1136.67 C 479.326 1171.65 461.167 1206.22 444.868 1240.82 C 433.123 1265.76 419.412 1289.51 407.743 1314.7 C 404.706 1311.88 401.527 1309.2 398.386 1306.49 C 391.612 1300.76 382.898 1294.21 375.874 1288.66 C 380.475 1278.65 410.609 1235.67 418.02 1224.73 L 459.563 1163.97 C 466.754 1153.42 473.666 1141.9 481.416 1131.91 z"/>
<path transform="translate(0,0)" fill="rgb(135,177,151)" d="M 515.749 1143.95 L 529.953 1149.25 C 523.556 1168.11 517.194 1203.31 512.912 1223.79 L 487.429 1345.28 L 462.864 1344.31 L 446.178 1344.25 C 451.83 1327.33 459.646 1308.18 465.779 1290.81 C 483.219 1242.13 499.878 1193.17 515.749 1143.95 z"/>
<path transform="translate(0,0)" fill="rgb(255,255,255)" d="M 679.594 576.263 C 680.28 576.416 680.966 576.569 681.652 576.723 C 682.839 583.513 681.76 591.789 684.233 597.867 C 688.53 608.43 698.62 616.764 706.535 624.771 C 704.587 625.628 702.653 626.515 700.732 627.431 C 697.362 629.052 693.86 630.591 692.586 634.175 C 693.811 639.447 694.56 641.24 693.131 646.356 C 690.263 649.04 686.743 648.63 682.238 649.744 C 678.9 656.063 688.582 660.91 688.225 668.075 C 687.625 679.194 679.22 679.359 670.72 677.421 C 656.703 674.225 646.568 668.728 638.453 656.568 C 636.659 653.579 634.658 648.927 633.12 645.654 C 624.753 640.673 601.636 620.878 616.978 612.55 C 626.157 614.065 619.779 624.636 631.022 632.121 L 632.603 631.422 C 633.641 626.234 632.001 623.562 631.886 618.277 L 632.837 617.427 C 636.557 619.654 638.071 621.245 641.8 620.821 C 645.938 615.762 643.894 613.113 640.315 609.191 C 639.211 601.087 639.055 596.111 638.924 587.874 C 652.071 582.286 665.58 578.781 679.594 576.263 z"/>
<path transform="translate(0,0)" fill="rgb(135,177,151)" d="M 608.802 711.413 C 617.213 715.933 624.738 726.448 632.468 733.513 C 635.749 727.039 637.471 720.468 639.574 713.529 C 647.342 720.474 650.7 723.921 656.277 732.585 C 645.914 735.617 641.447 735.705 642.632 747.944 C 645.846 781.116 652.102 814.912 653.102 848.247 C 651.653 853.895 636.974 866.392 631.672 871.24 C 626.19 846.908 606.975 796.32 617.812 775.547 C 610.342 758.93 606.592 738.458 602.464 720.423 C 604.334 717.123 606.521 714.425 608.802 711.413 z"/>
<path transform="translate(0,0)" fill="rgb(255,255,255)" d="M 415.638 949.18 C 423.924 953.304 432.111 957.439 440.558 961.237 C 433.449 981.724 427.088 999.142 424.674 1020.98 C 435.249 1041.27 436.861 1036.81 440.35 1062.16 L 439.011 1062.52 C 435.439 1058.14 435.012 1057.59 430.262 1056.8 C 429.721 1052.95 429.691 1049.06 427.214 1046.25 C 423.973 1044.66 425.555 1044.72 422.329 1045.76 C 417.447 1051.15 418.869 1054.05 419.758 1060.81 C 408.581 1061.24 399.644 1061.44 390.467 1053.13 C 385.183 1048.41 382.085 1041.71 381.909 1034.63 C 381.259 1015.99 395.781 1005.6 403.198 990.939 C 408.443 980.571 413.907 960.642 415.638 949.18 z"/>
<path transform="translate(0,0)" fill="rgb(214,227,212)" d="M 503.658 1140.23 C 506.839 1141.9 505.946 1140.65 507.105 1143.49 C 500.051 1161.82 493.444 1184.14 487.214 1203.07 C 478.528 1228.77 469.474 1254.35 460.054 1279.79 C 452.439 1300.79 444.922 1322.95 435.662 1343.17 L 427.088 1333.94 C 422.785 1330.22 417.829 1325.28 413.626 1321.29 C 445.385 1260.96 472.601 1199.85 503.658 1140.23 z"/>
<path transform="translate(0,0)" fill="rgb(135,177,151)" d="M 291.133 1401 C 292.801 1402.52 294.739 1407.03 296.447 1409.21 C 305.965 1421.39 310.04 1428.1 324.631 1434.37 C 324.494 1449.99 322.889 1467.38 323.678 1482.8 C 330.555 1488.05 367.557 1501.67 361.655 1512.45 C 358.344 1514.07 355.668 1513.2 351.902 1512.69 C 338.127 1510.64 318.835 1506.3 306.116 1500.61 C 297.85 1496.92 299.503 1481.39 298.009 1473.75 C 296.669 1466.9 294.861 1459.49 292.739 1452.75 C 288.611 1438.41 279.56 1424.57 275.885 1410.33 C 278.022 1405.75 286.345 1403.04 291.133 1401 z"/>
<path transform="translate(0,0)" fill="rgb(135,177,151)" d="M 552.583 527.247 C 566.908 527.71 570.091 533.387 579.433 543.386 C 567.207 542.768 553.914 543.978 547.976 556.385 L 548.629 557.824 C 550.61 557.851 563.108 553.539 566.679 552.602 C 555.103 566.614 552.394 573.214 543.291 588.994 C 541.513 592.076 533.865 601.929 531.056 606.109 C 525.701 616.525 524.765 621.474 523.7 632.805 C 516.841 623.459 510.629 615.626 508.477 603.822 C 503.29 575.371 521.685 532.431 552.583 527.247 z"/>
<path transform="translate(0,0)" fill="rgb(135,177,151)" d="M 822.988 1447.07 C 825.871 1446.82 828.111 1446.27 830.702 1447.41 C 826.648 1451.72 816.71 1455.58 811.552 1459.21 C 783.624 1478.89 753.038 1482.33 720.966 1490.68 C 716.464 1491.85 696.139 1500.83 694.684 1500.81 L 693.083 1498.8 C 690.125 1488.26 688.851 1480.62 687.062 1469.91 C 696.077 1474.72 703.995 1475.54 713.505 1471.17 C 721.475 1467.56 727.706 1460.96 730.852 1452.8 C 763.964 1461.9 791.463 1458.03 822.988 1447.07 z"/>
<path transform="translate(0,0)" fill="rgb(255,255,255)" d="M 584.732 674.068 L 585.45 674.929 L 584.109 677.571 C 581.428 679.044 580.91 679.178 578.632 681.314 C 579.456 686.705 586.884 703.16 588.914 709.678 C 593.379 724.015 598.395 739.163 601.86 753.781 C 607.154 776.117 606.409 798.835 610 822.393 C 602.682 833.43 598.591 846.747 593.145 858.806 C 584.794 877.3 575.745 899.098 565.243 916.361 L 568.687 905.75 C 576.11 885.418 597.406 830.188 599.849 811.547 C 594.775 799.903 587.552 789.603 581.095 778.517 C 586.303 774.551 594.392 769.881 595.109 762.818 C 596.099 753.064 572.014 735.017 572.963 726.844 C 579.519 720.459 571.736 693.118 570.344 682.809 C 577.289 680.481 579.266 678.581 584.732 674.068 z"/>
<path transform="translate(0,0)" fill="rgb(255,255,255)" d="M 336.258 1324.73 C 339.403 1325.24 363.031 1335.86 368.403 1338.01 C 381.758 1343.35 391.794 1346.49 405.715 1350.32 C 398.403 1360.79 389.688 1371.98 382.032 1382.4 C 379.823 1385.25 381.106 1384.73 378.434 1385.41 C 357.968 1372.19 337.986 1360.46 317.772 1347.66 C 322.848 1339.54 329.888 1331.94 336.258 1324.73 z"/>
<path transform="translate(0,0)" fill="rgb(255,255,255)" d="M 706.693 1385.26 C 707.621 1385.08 710.261 1385.05 711.347 1385.01 C 715.348 1388.81 718.783 1410.94 720.261 1418.09 C 699.88 1422.31 678.979 1429.2 658.22 1433.85 L 656.103 1433.61 C 653.79 1429.81 646.233 1405.96 643.293 1398.77 C 661.698 1395.78 687.322 1389.09 706.693 1385.26 z"/>
<path transform="translate(0,0)" fill="rgb(255,255,255)" d="M 615.665 641.696 L 625.796 648.046 C 631.352 662.069 636.529 671.594 650.366 679.324 C 636.404 690.197 632.882 700.774 628.002 717.095 C 623.069 710.596 599.406 690.078 591.53 682.631 C 600.362 658.426 597.242 659.662 615.665 641.696 z"/>
<path transform="translate(0,0)" fill="rgb(255,255,255)" d="M 670.038 849.787 C 681.222 849.839 693.15 877.628 693.168 887.533 C 693.194 901.604 673.383 917.721 659.702 917.781 C 655.022 917.802 653.216 915.349 650.185 912.265 C 655.691 909.006 667.42 902.139 667.818 895.358 L 665.937 894.578 C 660.552 894.993 656.43 897.859 651.567 900.493 L 646.407 901.852 C 643.248 900.632 643.386 900.833 641.522 898.035 C 641.718 897.432 641.914 896.83 642.11 896.227 C 652.717 893.626 672.185 883.788 674.206 870.168 C 668.057 868.88 649.473 890.006 637.158 884.205 C 634.792 881.162 635.052 882.723 635.331 879.593 C 648.565 869.119 655.749 858.846 670.038 849.787 z"/>
<path transform="translate(0,0)" fill="rgb(255,255,255)" d="M 373.337 1046.61 C 377.918 1048.33 382.372 1057.5 387.501 1061.81 C 398.328 1070.91 409.891 1070.36 422.888 1069.84 L 423.043 1099.96 C 416.117 1097.37 408.865 1094.92 401.874 1092.45 C 383.013 1086.2 362.708 1078.07 343.996 1070.99 C 354.417 1058.29 358.901 1054.32 373.337 1046.61 z"/>
<path transform="translate(0,0)" fill="rgb(135,177,151)" d="M 627.489 898.588 C 636.191 903.757 634.746 910.385 643.668 917.551 C 640.854 958.727 646.476 1012.37 644.943 1055.38 L 643.708 1055.43 C 641.949 1051.34 639.18 1038.1 638.046 1033.04 C 632.893 1010.71 629.777 987.955 628.738 965.061 C 627.805 942.965 628.589 920.594 627.489 898.588 z"/>
<path transform="translate(0,0)" fill="rgb(255,255,255)" d="M 328.02 1363.79 C 338.044 1369.59 347.904 1375.67 357.588 1382.03 C 347.667 1395.14 337.624 1408.16 327.462 1421.09 C 324.36 1424.2 326.046 1423.65 322.647 1424.13 C 313.984 1420.12 306.062 1408.39 301.499 1400.15 C 312.966 1388.73 320.055 1377.89 328.02 1363.79 z"/>
<path transform="translate(0,0)" fill="rgb(255,255,255)" d="M 411.007 912.412 C 420.331 915.321 429.269 919.341 438.297 922.789 C 458.674 930.57 469.471 934.367 454.46 956.961 C 438.977 950.812 419.38 941.24 403.906 934.217 C 405.469 925.273 407.318 920.508 411.007 912.412 z"/>
<path transform="translate(0,0)" fill="rgb(214,227,212)" d="M 303.318 1067.93 C 315.484 1069.88 410.87 1103.23 420.684 1108.53 C 420.746 1112.18 420.059 1111.9 417.752 1115.65 C 409.35 1116.19 307.597 1076.71 302.172 1070.6 L 303.318 1067.93 z"/>
<path transform="translate(0,0)" fill="rgb(135,177,151)" d="M 839.732 1452.09 L 840.381 1453.04 C 829.073 1470.43 787.908 1491.65 767.487 1495.94 C 755.648 1498.43 743.228 1500.63 731.233 1503.76 C 724.26 1505.57 708.482 1514.97 703.071 1515.33 C 701.031 1512.97 700.402 1512.61 699.433 1509.62 C 714.306 1496.65 766.041 1490.73 785.635 1482.29 C 804.312 1474.24 822.219 1462.57 839.732 1452.09 z"/>
<path transform="translate(0,0)" fill="rgb(255,255,255)" d="M 704.644 1430.09 L 706.922 1429.91 C 711.676 1432.65 718.822 1446.44 721.954 1451.92 C 714.643 1461.78 710.442 1465.67 698.057 1465.23 C 694.441 1464.13 691.039 1462.44 687.598 1460.86 C 684.552 1453.02 681.684 1445.11 678.997 1437.13 C 687.38 1434.61 696.167 1432.37 704.644 1430.09 z"/>
<path transform="translate(0,0)" fill="rgb(135,177,151)" d="M 266.116 1416.51 C 270.097 1418.28 270.86 1422.93 272.968 1426.5 C 287.082 1450.44 287.822 1475.2 293.959 1500.67 L 294.252 1501.85 C 305.289 1511.12 318.401 1513.24 332.181 1516.64 C 325.893 1517.22 296.26 1515.44 293.748 1509.64 C 287.744 1495.77 286.209 1478.24 281.888 1463.34 C 277.81 1449.28 264.499 1430.5 266.116 1416.51 z"/>
<path transform="translate(0,0)" fill="rgb(83,152,127)" d="M 430.262 1056.8 C 435.012 1057.59 435.439 1058.14 439.011 1062.52 L 440.35 1062.16 C 443.975 1072.72 436.617 1098.12 433.595 1109.05 C 431.452 1090.19 435.628 1078.46 430.262 1056.8 z"/>
<path transform="translate(0,0)" fill="rgb(24,67,57)" d="M 372.821 1029.99 C 374.66 1032.16 374.304 1036.78 374.265 1039.63 L 371.7 1041.16 C 362.474 1041.43 364.873 1040.98 357.028 1046.41 C 346.519 1053.68 341.204 1057.89 333.736 1068.1 C 332.771 1067.92 333.419 1068.11 331.995 1067.07 C 340.059 1052.13 357.327 1037.2 372.821 1029.99 z"/>
<path transform="translate(0,0)" fill="rgb(135,177,151)" d="M 555.791 946.518 C 559.827 946.778 563.859 947.098 567.885 947.478 L 568.574 948.434 C 566.74 949.72 564.882 950.974 563.003 952.194 L 563.453 956.143 L 565.741 956.198 C 567.28 957.055 566.669 956.41 567.362 958.315 L 565.991 959.419 C 561.006 958.732 556.026 958.004 551.052 957.235 L 555.791 946.518 z"/>
<path transform="translate(0,0)" fill="rgb(83,152,127)" d="M 606.263 955.965 C 610.064 955.83 614.279 955.255 617.676 956.696 C 619.824 960.061 619.047 960.406 619.148 965.164 C 615.242 965.315 609.718 966.015 606.394 964.459 C 604.625 960.888 605.493 960.868 606.263 955.965 z"/>
<path transform="translate(0,0)" fill="rgb(11,18,22)" d="M 1589.72 895.129 C 1611.61 895.087 1645.48 891.535 1662.96 906.642 C 1687.83 928.136 1687.21 972.861 1666.63 997.185 C 1646.19 1016.72 1616.31 1013.12 1589.61 1013.01 C 1589.87 973.72 1589.91 934.424 1589.72 895.129 z"/>
<path transform="translate(0,0)" fill="rgb(255,255,255)" d="M 1611.45 916.937 C 1622.43 916.882 1636.2 916.157 1645.22 923.047 C 1663.59 937.08 1662.57 964.927 1649.27 981.65 C 1637.56 992.842 1626.6 991.344 1611.4 991.37 L 1611.45 916.937 z"/>
<path transform="translate(0,0)" fill="rgb(11,18,22)" d="M 929.125 896.866 C 967.989 896.306 1013.65 890.796 1019 945.567 C 1021.05 966.593 1017.82 981.833 1003.81 998.307 C 985.24 1016.74 953.149 1013.11 928.792 1012.96 L 929.125 896.866 z"/>
<path transform="translate(0,0)" fill="rgb(255,255,255)" d="M 950.768 916.975 C 962.572 917.003 973.015 916.817 983.201 923.859 C 1002.65 937.308 1000.89 964.162 988.887 981.779 C 976.994 993.331 966.265 991.865 950.725 991.903 L 950.768 916.975 z"/>
<path transform="translate(0,0)" fill="rgb(11,18,22)" d="M 1124.22 896.788 C 1155.76 896.127 1218.67 887.207 1205.81 943.201 C 1203.41 953.616 1193.95 960.105 1184.75 964.572 C 1192.73 980.06 1203.49 996.885 1212.05 1013.04 L 1186.86 1013 C 1179.36 998.833 1170.88 980.263 1163.34 967.158 L 1146.05 967.109 L 1146.07 1013.08 L 1123.99 1013.1 C 1124.31 974.329 1124.38 935.558 1124.22 896.788 z"/>
<path transform="translate(0,0)" fill="rgb(255,255,255)" d="M 1146.4 917.059 C 1163.5 916.878 1198.71 915.446 1182.49 943.935 C 1173.05 948.904 1157.47 947.45 1146.42 947.34 C 1146.29 937.342 1146.4 927.079 1146.4 917.059 z"/>
<path transform="translate(0,0)" fill="rgb(11,18,22)" d="M 1224.94 896.141 C 1228.9 896.04 1233.14 896.145 1237.13 896.167 C 1257.27 921.553 1276.5 947.647 1294.78 974.401 C 1295.12 948.827 1294.77 922.46 1294.75 896.823 L 1316.2 896.843 C 1315.93 934.903 1315.87 972.964 1316.03 1011.02 L 1315.31 1012.45 C 1311.21 1013.68 1305.07 1013.17 1300.6 1013.09 C 1283.81 993.732 1262.64 961.712 1246.03 939.943 L 1245.73 1012.99 L 1224.76 1012.98 L 1224.94 896.141 z"/>
<path transform="translate(0,0)" fill="rgb(11,18,22)" d="M 838.165 896.603 C 861.488 895.851 889.505 896.672 913.191 896.745 L 913.176 916.995 L 860.12 916.954 L 860.119 944.233 L 908.952 944.145 L 908.966 963.176 C 902.016 963.348 863.712 962.139 860.039 964.279 L 860.099 992.415 L 914.524 992.426 L 914.332 1013.1 L 838.549 1013.14 L 838.165 896.603 z"/>
<path transform="translate(0,0)" fill="rgb(11,18,22)" d="M 1421.46 896.401 L 1494.88 896.601 L 1494.63 916.807 L 1442.88 916.899 L 1442.9 943.754 L 1490.09 943.68 L 1490.07 963.175 C 1482.41 963.322 1448.04 962.001 1443.37 964.181 L 1442.85 966.75 L 1442.94 992.093 L 1496.65 992.17 L 1496.46 1013.27 L 1421.05 1013.2 C 1420.83 975.041 1420.68 934.465 1421.46 896.401 z"/>
<path transform="translate(0,0)" fill="rgb(11,18,22)" d="M 1033.27 896.793 C 1057.19 896.18 1083.53 896.763 1107.63 896.84 L 1107.62 916.961 L 1055.13 916.93 L 1055.15 943.432 C 1070.75 943.671 1087.01 943.42 1102.65 943.41 L 1102.5 963.07 C 1095.06 963.02 1058.89 962.021 1054.98 964.269 L 1055 992.058 L 1108.95 992.024 L 1108.94 1013.01 L 1033.49 1012.99 C 1033.69 974.256 1033.62 935.523 1033.27 896.793 z"/>
<path transform="translate(0,0)" fill="rgb(11,18,22)" d="M 747.908 896.219 L 825.463 896.514 L 825.291 912.175 L 794.907 960.345 C 789.165 969.487 780.481 982.847 776.082 992.389 C 792.931 992.596 809.781 992.604 826.63 992.411 L 826.691 1013.06 L 745.584 1013.04 L 745.097 997.811 C 760.41 972.037 780.11 943.399 796.401 917.232 C 780.314 916.981 763.919 917.093 747.804 917.042 L 747.908 896.219 z"/>
<path transform="translate(0,0)" fill="rgb(11,18,22)" d="M 1337.53 896.457 L 1410.5 896.671 L 1410.33 916.991 L 1357.98 916.983 L 1357.99 944.843 L 1406.82 944.859 L 1406.7 964.653 L 1357.99 964.5 L 1358.04 1013.18 L 1336.06 1013.25 C 1336.27 983.778 1335.5 929.773 1336.3 897.908 C 1336.71 897.424 1337.12 896.94 1337.53 896.457 z"/>
<path transform="translate(0,0)" fill="rgb(11,18,22)" d="M 1510.48 896.167 L 1532.8 896.202 L 1532.65 991.925 L 1580.12 991.954 L 1580.3 1013.07 L 1510.55 1013.09 L 1510.48 896.167 z"/>
<path transform="translate(0,0)" fill="rgb(11,18,22)" d="M 742.965 1034.06 C 756.267 1033.88 781.315 1031.32 786.674 1045.87 C 791.244 1058.27 785.122 1066.94 774.207 1071.57 C 780.302 1080.19 786.265 1088.9 792.094 1097.7 C 788.437 1097.68 784.733 1097.51 781.073 1097.38 C 775.613 1088.88 770.677 1081.31 764.707 1073.11 L 751.517 1073.21 C 751.51 1080.09 753.41 1092.89 749.542 1097.75 C 746.18 1098.78 747.929 1098.7 744.137 1097.26 C 741.393 1090.72 742.863 1044.1 742.965 1034.06 z"/>
<path transform="translate(0,0)" fill="rgb(255,255,255)" d="M 751.531 1041.95 C 765.195 1041.68 788.662 1041.71 775.925 1062.56 C 768.009 1067.1 760.826 1065.89 751.608 1065.7 L 751.531 1041.95 z"/>
<path transform="translate(0,0)" fill="rgb(11,18,22)" d="M 1195.04 1052.19 C 1198.29 1051.7 1202.33 1051.39 1205.51 1052.21 C 1211.58 1053.79 1216.75 1057.73 1219.89 1063.15 C 1223.32 1069.21 1224.09 1076.42 1222.01 1083.07 C 1219.22 1091.85 1214.62 1095.03 1206.92 1098.89 C 1196.34 1099.53 1188.44 1097.81 1182.54 1087.89 C 1179.09 1082.07 1178.18 1075.08 1180.04 1068.57 C 1182.59 1059.96 1187.54 1056.15 1195.04 1052.19 z"/>
<path transform="translate(0,0)" fill="rgb(255,255,255)" d="M 1195.94 1059.88 C 1217.52 1058.69 1221.24 1079.8 1206.27 1090.89 C 1184.97 1094.04 1180.9 1069.92 1195.94 1059.88 z"/>
<path transform="translate(0,0)" fill="rgb(11,18,22)" d="M 1032.26 1033.16 C 1041.16 1032.39 1059.01 1034.88 1062.59 1043.99 C 1060.75 1047.34 1061.27 1046.32 1057.54 1048.56 C 1049.14 1043.41 1039.24 1036.89 1029.6 1042.56 C 1023.21 1046.31 1018.95 1050.63 1017.01 1057.95 C 1015.02 1065.41 1016.07 1073.36 1019.93 1080.06 C 1028.15 1094.02 1042.77 1095.05 1055.55 1086.63 L 1055.84 1071.14 L 1041.24 1071.03 C 1039.26 1069.01 1039.17 1067.5 1039.18 1065.29 C 1043.47 1062.02 1057.74 1063.44 1064.05 1063.63 C 1064.12 1070.92 1066.02 1094.71 1061.43 1098.38 C 1058.76 1098.53 1057.47 1097.36 1055.56 1096.13 C 1051.96 1095.19 1045.85 1099.73 1041.4 1099.67 C 1000.26 1099.07 993.851 1048.61 1032.26 1033.16 z"/>
<path transform="translate(0,0)" fill="rgb(11,18,22)" d="M 1585.4 1051.13 C 1605.72 1050.12 1608.47 1062.72 1608.65 1080.51 C 1608.71 1086.32 1609.07 1092.01 1607.21 1097.62 C 1603.81 1099.29 1605.45 1099.23 1602.16 1098.26 L 1600.15 1094.48 C 1589.77 1094.41 1585.38 1106.63 1571.4 1093.17 C 1559.17 1065.29 1595.71 1078.32 1599.81 1066.73 C 1599.21 1063.35 1599.53 1063.24 1597.13 1060.94 C 1589.65 1057.56 1581.93 1060.88 1573.02 1061.64 L 1572.55 1059.49 C 1577.3 1053.82 1578.52 1053.74 1585.4 1051.13 z"/>
<path transform="translate(0,0)" fill="rgb(255,255,255)" d="M 1580.59 1078.14 C 1586.78 1077.75 1599.15 1075.04 1600.26 1082.68 C 1598.95 1086.5 1598.3 1086.94 1595.6 1090.12 C 1585.24 1093.94 1572.35 1091.47 1580.59 1078.14 z"/>
<path transform="translate(0,0)" fill="rgb(11,18,22)" d="M 1336.03 1052.17 C 1337.61 1052.04 1339.19 1051.95 1340.77 1051.91 C 1357.29 1051.62 1359.31 1065.51 1359.38 1078.37 C 1351.51 1078.92 1333.78 1077.55 1328.16 1079.8 C 1328.54 1091.47 1342.51 1095.5 1352.24 1086.97 C 1354.86 1087.79 1356.57 1090.46 1358.47 1092.69 C 1320.64 1114.65 1302.87 1066.54 1336.03 1052.17 z"/>
<path transform="translate(0,0)" fill="rgb(255,255,255)" d="M 1335.86 1058.91 C 1343.71 1058.35 1352.01 1062.18 1350.75 1070.97 C 1348.2 1073.52 1349 1072.7 1344.25 1072.95 C 1338.13 1073.09 1333.83 1074.06 1328.85 1071.22 C 1325.48 1065.87 1331.75 1061.85 1335.86 1058.91 z"/>
<path transform="translate(0,0)" fill="rgb(11,18,22)" d="M 901.794 1051.19 C 911.9 1051.46 915.059 1053.55 920.643 1061.82 C 921.479 1067.03 923.201 1094.38 921.195 1097.92 C 916.307 1098.92 915.924 1098.67 913.314 1094.9 C 901.147 1095.47 897.967 1106.66 885.278 1090.69 C 880.698 1064.85 903.972 1074.54 913.104 1068.54 L 913.464 1066.41 C 905.801 1050 898.591 1063.74 888.777 1061.61 L 887.646 1059.7 C 888.865 1053 896.079 1052.52 901.794 1051.19 z"/>
<path transform="translate(0,0)" fill="rgb(255,255,255)" d="M 900.636 1076.34 C 907.018 1076.56 910.404 1075.19 913.204 1081.18 C 912.396 1086.48 909.262 1088.69 905.146 1091.88 C 897.464 1091.7 890.107 1089.4 893.53 1079.97 C 896.288 1077.16 896.628 1077.24 900.636 1076.34 z"/>
<path transform="translate(0,0)" fill="rgb(11,18,22)" d="M 817.295 1051.2 C 817.976 1051.15 818.659 1051.11 819.342 1051.08 C 836.625 1050.51 838.735 1063.4 838.863 1077.17 C 832.647 1077.28 811.37 1075.04 808.235 1079.68 C 809.615 1092.37 825.021 1093.73 834.829 1085.89 C 837.321 1087.71 837.873 1087.79 839.253 1090.56 C 835.694 1097.11 821.465 1101.01 814.91 1098.3 C 792.315 1088.94 794.479 1059.49 817.295 1051.2 z"/>
<path transform="translate(0,0)" fill="rgb(255,255,255)" d="M 816.876 1058.01 C 824.131 1058.27 831.312 1061.88 830.84 1069.96 C 828.233 1072.45 828.982 1071.64 824.25 1071.83 C 817.759 1072.05 814.466 1073.03 809.088 1069.69 C 805.932 1064 812.264 1060.53 816.876 1058.01 z"/>
<path transform="translate(0,0)" fill="rgb(11,18,22)" d="M 1092.96 1052.23 C 1111.7 1050.94 1115.99 1061.41 1117.15 1077.95 C 1106.17 1078.17 1094.91 1078.12 1083.91 1078.2 C 1087.67 1090.98 1095.37 1095.86 1107.68 1089.04 L 1109.29 1087.49 L 1111.46 1088.13 C 1112.55 1089.76 1113.03 1089.54 1112.65 1091.38 C 1110.73 1100.74 1097.1 1100.02 1090.67 1098.03 C 1077.69 1094 1073.01 1079.42 1077.41 1067.5 C 1080.55 1059 1084.98 1055.73 1092.96 1052.23 z"/>
<path transform="translate(0,0)" fill="rgb(255,255,255)" d="M 1092.83 1058.88 C 1100.94 1058.42 1108.73 1061.7 1107.82 1070.93 C 1105.24 1073.45 1106.02 1072.64 1101.25 1072.82 C 1095.34 1073.02 1089.11 1074.44 1084.95 1069.9 C 1085.44 1064.72 1088.92 1062.3 1092.83 1058.88 z"/>
<path transform="translate(0,0)" fill="rgb(11,18,22)" d="M 1517.31 1031.88 C 1520.4 1031.79 1521.29 1031.51 1524.16 1032.64 C 1527.7 1037.97 1525.87 1051.16 1525.93 1059.05 C 1558.78 1028.15 1562.48 1089.99 1555.81 1097.88 C 1551.81 1098.51 1553.67 1098.75 1550.02 1097.29 C 1548.06 1094.39 1549.03 1077.62 1549.11 1072.94 C 1548.8 1066.16 1548.86 1063.61 1543.45 1059.24 C 1516.3 1051.74 1530.41 1089.56 1524.88 1097.78 C 1520.21 1097.84 1522.11 1098.55 1518.68 1096.49 C 1517.53 1094.11 1517.25 1038.41 1517.31 1031.88 z"/>
<path transform="translate(0,0)" fill="rgb(11,18,22)" d="M 1394.81 1051.25 C 1410.93 1052.68 1409.98 1067.1 1410.59 1079.97 C 1410.84 1085.38 1410.87 1091.57 1408.72 1096.6 C 1405.6 1098.46 1407.15 1098.27 1404.05 1097.86 C 1397.14 1088.94 1411.79 1052.49 1385.59 1060.35 L 1384.51 1060.68 C 1374.75 1071.1 1382.65 1091.72 1378.73 1098.05 C 1375.89 1099.38 1377.33 1099.27 1374.25 1098.23 C 1369.84 1093.39 1369.73 1056.15 1373.72 1052.48 C 1377.05 1052.39 1375.88 1052.02 1378.65 1053.4 L 1379.26 1057.47 C 1379.94 1057.53 1388.95 1052.08 1394.81 1051.25 z"/>
<path transform="translate(0,0)" fill="rgb(11,18,22)" d="M 1129.72 1052.47 C 1132.71 1052.48 1133.15 1052.49 1136.07 1053.06 C 1140.39 1058.26 1135.4 1054.11 1137.35 1058.96 C 1143.85 1055.38 1150.44 1048.76 1159.46 1053 C 1169.11 1057.53 1170.72 1091.01 1166.2 1098.05 C 1163.28 1099.28 1164.83 1099.05 1161.36 1098.21 C 1157.52 1093.92 1159.1 1081.9 1159.22 1074.98 C 1159.16 1070.33 1159.71 1067.53 1157.46 1063.67 C 1154.13 1060.85 1147.82 1056.44 1142.85 1059.99 C 1132.42 1067.45 1141.48 1093.98 1132.77 1098.95 L 1130.28 1098.18 C 1128.3 1094.91 1129.13 1058.31 1129.72 1052.47 z"/>
<path transform="translate(0,0)" fill="rgb(11,18,22)" d="M 1247.52 1051.2 C 1254.21 1051.8 1260.39 1053.6 1264.06 1059.75 L 1263.46 1061.47 C 1255.14 1065.57 1256.06 1056.85 1243.87 1059.62 C 1241.4 1061.55 1241.55 1061.38 1240.67 1064.4 C 1244.19 1073.43 1266.73 1073.25 1266.84 1084.07 C 1267 1097.97 1253.49 1099.21 1244.61 1098.97 C 1239.39 1097.54 1234.25 1095.59 1230.53 1091.55 L 1230.76 1089.76 C 1238.91 1082.78 1252.89 1101.57 1258.11 1085.95 C 1254.91 1077.24 1235.08 1078.72 1232.58 1067.5 C 1230.22 1056.93 1238.92 1053.12 1247.52 1051.2 z"/>
<path transform="translate(0,0)" fill="rgb(11,18,22)" d="M 1286.83 1052.09 C 1292.95 1051.61 1303.65 1051.81 1307.58 1057.43 C 1307.54 1060.51 1308 1059.13 1305.98 1061.65 C 1299.72 1062.93 1289.35 1053.6 1285.59 1061.7 C 1283.39 1067.44 1288.36 1069.8 1293.49 1071.13 C 1304.88 1074.06 1315.66 1079.48 1308.24 1092.91 C 1306.31 1096.4 1300.98 1098.31 1297.21 1099.54 C 1290.79 1099.3 1279.66 1098.05 1275.38 1092.67 C 1275.48 1089.41 1274.95 1090.86 1277.23 1088.27 C 1283.76 1087.01 1297.57 1099.14 1301.59 1086.48 C 1298.79 1078.44 1282.51 1077.32 1277.36 1069.16 C 1272.19 1060.97 1280.16 1055.34 1286.83 1052.09 z"/>
<path transform="translate(0,0)" fill="rgb(11,18,22)" d="M 1437.4 1051.11 C 1443 1051.46 1454.64 1053.57 1455.11 1060.64 C 1449.43 1063.62 1439.15 1057.57 1433.48 1059.71 C 1430.43 1063.31 1431.28 1061.3 1430.79 1065.95 C 1435.09 1073.62 1441.7 1071.05 1447.88 1074.71 C 1465.91 1085.4 1455.17 1096.4 1439.77 1099.26 C 1432.34 1098.67 1426.2 1096.93 1420.89 1091.24 L 1421.2 1088.91 C 1430.55 1083.83 1433.26 1096.52 1446.05 1090.32 C 1448.37 1087.29 1447.71 1088.97 1447.99 1085.09 C 1443.07 1076.39 1426.26 1080.22 1423.12 1069.71 C 1420.18 1059.87 1429.51 1053.24 1437.4 1051.11 z"/>
<path transform="translate(0,0)" fill="rgb(11,18,22)" d="M 1639.5 1033.2 C 1643.85 1033.09 1647.52 1033.12 1650.8 1036.21 C 1651.33 1039.42 1651.52 1037.88 1649.92 1040.94 C 1643.81 1043.52 1639.91 1037.9 1635.14 1042.57 C 1634.54 1047.15 1634.22 1048.05 1635.04 1052.48 C 1639.96 1054.68 1643.11 1051.46 1647.27 1053.76 C 1648.54 1056.87 1648.45 1055.29 1647.23 1058.68 C 1643.58 1060.84 1639.42 1059.91 1634.51 1059.86 C 1634.24 1069.15 1634.45 1079.11 1634.48 1088.46 C 1634.66 1092.55 1635.37 1095.41 1633.2 1098.38 C 1629.47 1098.79 1631.1 1099.23 1628.1 1097.2 C 1624.7 1090.08 1626.29 1068.92 1626.39 1059.44 C 1623.93 1059.55 1621.47 1059.64 1619 1059.71 L 1617.86 1058.51 C 1617.69 1054.4 1617.05 1056.03 1618.88 1053.16 C 1621.55 1053 1622.36 1052.95 1624.97 1052.39 C 1630.42 1040.45 1622.35 1036.97 1639.5 1033.2 z"/>
<path transform="translate(0,0)" fill="rgb(11,18,22)" d="M 1483.24 1051.11 C 1491.71 1050.62 1496.67 1051.7 1503.08 1057.43 C 1504.32 1061.03 1504.33 1059.31 1503.31 1062.77 L 1501.04 1063.99 C 1495.72 1063.66 1492.73 1059.58 1489.74 1058.99 C 1464.73 1054.02 1469.33 1104.31 1497.13 1088.24 L 1497.77 1087.56 C 1500.59 1087.6 1504.05 1089.96 1506.7 1091.44 C 1504.79 1092.77 1502.84 1094.05 1500.86 1095.28 C 1488.86 1102.51 1474.05 1098.55 1467.86 1085.86 C 1464.9 1079.79 1464.52 1072.78 1466.82 1066.43 C 1470.05 1057.67 1475.26 1054.55 1483.24 1051.11 z"/>
<path transform="translate(0,0)" fill="rgb(11,18,22)" d="M 1662.07 1037.98 C 1665.21 1037.99 1665.26 1037.87 1668.21 1038.77 C 1670.56 1042.69 1669.58 1047.35 1669.5 1052.59 C 1675.02 1052.69 1679.7 1051.14 1682.99 1056.15 L 1682.01 1058.22 C 1678.3 1060.68 1674.54 1059.93 1669.86 1059.81 C 1669.82 1105.44 1670.23 1080.96 1685.71 1093.13 C 1685.41 1093.98 1684.63 1095.36 1684.19 1096.21 C 1680.71 1098.34 1679.66 1098.63 1675.53 1098.91 C 1658.08 1100.1 1662.48 1078.07 1662.16 1067.06 C 1661.81 1054.72 1659.77 1063.17 1654.6 1058.21 C 1654.17 1054.35 1653.63 1055.71 1654.95 1052.79 C 1657.31 1052.57 1658.37 1052.43 1660.68 1051.93 C 1662.82 1048.17 1662.02 1042.95 1662.07 1037.98 z"/>
<path transform="translate(0,0)" fill="rgb(11,18,22)" d="M 854.128 1038.96 C 857.129 1038.89 857.654 1038.75 860.649 1039.41 C 865.558 1044.75 859.817 1045.2 862.211 1050.83 C 866.111 1053.69 868.303 1050.74 874.038 1052.89 C 875.362 1055.76 875.175 1054.29 874.49 1057.47 C 870.992 1059.28 866.411 1058.73 862.323 1058.68 C 862.232 1066.82 859.766 1086.97 867.462 1090.86 C 873.335 1090.17 874.334 1089.31 876.814 1094.74 C 872.188 1099.11 864.833 1100.47 859.535 1096.85 C 848.936 1089.63 856.592 1071.36 853.635 1060.04 C 850.319 1056.85 850.537 1059.87 845.286 1057.81 C 844.762 1055.25 844.553 1055.32 845.589 1052.99 C 849.083 1052.47 849.591 1052.66 852.575 1050.69 C 854.986 1047.42 854.23 1043.21 854.128 1038.96 z"/>
<path transform="translate(0,0)" fill="rgb(11,18,22)" d="M 963.026 1032.14 C 966.051 1032.06 967.783 1031.71 970.461 1033.1 C 971.75 1043.54 970.971 1085.96 970.957 1098.54 C 967.87 1098.43 965.137 1098.64 963.201 1096.78 C 961.872 1083.83 962.547 1046.19 963.026 1032.14 z"/>
<path transform="translate(0,0)" fill="rgb(11,18,22)" d="M 937.604 1052.86 C 940.947 1052.76 942.182 1052.49 945.343 1053.71 C 946.553 1059.15 945.815 1091.49 945.744 1098.58 C 942.341 1098.64 940.663 1099.02 937.729 1097.32 C 936.827 1092.03 937.561 1059.76 937.604 1052.86 z"/>
<path transform="translate(0,0)" fill="rgb(11,18,22)" d="M 939.464 1032.47 C 942.197 1031.39 945.287 1032.71 946.402 1035.43 C 947.518 1038.15 946.246 1041.26 943.547 1042.41 C 941.763 1043.18 939.707 1042.92 938.165 1041.74 C 936.624 1040.56 935.837 1038.65 936.105 1036.73 C 936.374 1034.8 937.658 1033.18 939.464 1032.47 z"/>
</svg>